<?xml version="1.0" encoding="UTF-8" standalone="no"?>
<!DOCTYPE svg PUBLIC "-//W3C//DTD SVG 1.1//EN"
 "http://www.w3.org/Graphics/SVG/1.1/DTD/svg11.dtd">
<!-- Generated by graphviz version 2.43.0 (0)
 -->
<!-- Title: ABLModulatedPowerLaw.H Pages: 1 -->
<svg width="1026pt" height="151pt"
 viewBox="0.00 0.00 1025.50 151.00" xmlns="http://www.w3.org/2000/svg" xmlns:xlink="http://www.w3.org/1999/xlink">
<g id="graph0" class="graph" transform="scale(1 1) rotate(0) translate(4 147)">
<title>ABLModulatedPowerLaw.H</title>
<polygon fill="white" stroke="transparent" points="-4,4 -4,-147 1021.5,-147 1021.5,4 -4,4"/>
<!-- Node1 -->
<g id="node1" class="node">
<title>Node1</title>
<g id="a_node1"><a xlink:title=" ">
<polygon fill="#bfbfbf" stroke="black" points="743.5,-123.5 743.5,-142.5 889.5,-142.5 889.5,-123.5 743.5,-123.5"/>
<text text-anchor="middle" x="816.5" y="-130.5" font-family="Helvetica,sans-Serif" font-size="10.00">ABLModulatedPowerLaw.H</text>
</a>
</g>
</g>
<!-- Node2 -->
<g id="node2" class="node">
<title>Node2</title>
<g id="a_node2"><a xlink:href="_a_b_l_8_h.html" target="_top" xlink:title=" ">
<polygon fill="white" stroke="black" points="426.5,-67.5 426.5,-86.5 472.5,-86.5 472.5,-67.5 426.5,-67.5"/>
<text text-anchor="middle" x="449.5" y="-74.5" font-family="Helvetica,sans-Serif" font-size="10.00">ABL.H</text>
</a>
</g>
</g>
<!-- Node1&#45;&gt;Node2 -->
<g id="edge1" class="edge">
<title>Node1&#45;&gt;Node2</title>
<path fill="none" stroke="midnightblue" d="M748.42,-121.98C664.77,-109.67 527.23,-89.44 472.76,-81.42"/>
<polygon fill="midnightblue" stroke="midnightblue" points="747.94,-125.45 758.35,-123.44 748.96,-118.53 747.94,-125.45"/>
</g>
<!-- Node10 -->
<g id="node10" class="node">
<title>Node10</title>
<g id="a_node10"><a xlink:href="_a_b_l_fill_m_p_l_8_h.html" target="_top" xlink:title=" ">
<polygon fill="white" stroke="black" points="776.5,-67.5 776.5,-86.5 856.5,-86.5 856.5,-67.5 776.5,-67.5"/>
<text text-anchor="middle" x="816.5" y="-74.5" font-family="Helvetica,sans-Serif" font-size="10.00">ABLFillMPL.H</text>
</a>
</g>
</g>
<!-- Node1&#45;&gt;Node10 -->
<g id="edge9" class="edge">
<title>Node1&#45;&gt;Node10</title>
<path fill="none" stroke="midnightblue" d="M816.5,-112.8C816.5,-103.91 816.5,-93.78 816.5,-86.75"/>
<polygon fill="midnightblue" stroke="midnightblue" points="813,-113.08 816.5,-123.08 820,-113.08 813,-113.08"/>
</g>
<!-- Node12 -->
<g id="node12" class="node">
<title>Node12</title>
<g id="a_node12"><a xlink:href="_a_b_l_modulated_power_law_8cpp.html" target="_top" xlink:title=" ">
<polygon fill="white" stroke="black" points="861.5,-6 861.5,-25 1017.5,-25 1017.5,-6 861.5,-6"/>
<text text-anchor="middle" x="939.5" y="-13" font-family="Helvetica,sans-Serif" font-size="10.00">ABLModulatedPowerLaw.cpp</text>
</a>
</g>
</g>
<!-- Node1&#45;&gt;Node12 -->
<g id="edge12" class="edge">
<title>Node1&#45;&gt;Node12</title>
<path fill="none" stroke="midnightblue" d="M833.51,-116.52C842.97,-107.87 854.93,-96.89 865.5,-87 889.08,-64.94 916.54,-38.61 930.44,-25.24"/>
<polygon fill="midnightblue" stroke="midnightblue" points="830.97,-114.1 825.94,-123.42 835.69,-119.27 830.97,-114.1"/>
</g>
<!-- Node3 -->
<g id="node3" class="node">
<title>Node3</title>
<g id="a_node3"><a xlink:href="_a_b_l_forcing_8cpp.html" target="_top" xlink:title=" ">
<polygon fill="white" stroke="black" points="0,-6 0,-25 91,-25 91,-6 0,-6"/>
<text text-anchor="middle" x="45.5" y="-13" font-family="Helvetica,sans-Serif" font-size="10.00">ABLForcing.cpp</text>
</a>
</g>
</g>
<!-- Node2&#45;&gt;Node3 -->
<g id="edge2" class="edge">
<title>Node2&#45;&gt;Node3</title>
<path fill="none" stroke="midnightblue" d="M416.45,-73.18C354.22,-67.55 215.56,-53.49 100.5,-31 92.17,-29.37 83.22,-27.2 75.02,-25.04"/>
<polygon fill="midnightblue" stroke="midnightblue" points="416.2,-76.67 426.47,-74.07 416.82,-69.7 416.2,-76.67"/>
</g>
<!-- Node4 -->
<g id="node4" class="node">
<title>Node4</title>
<g id="a_node4"><a xlink:href="_a_b_l_mean_boussinesq_8cpp.html" target="_top" xlink:title=" ">
<polygon fill="white" stroke="black" points="109.5,-6 109.5,-25 247.5,-25 247.5,-6 109.5,-6"/>
<text text-anchor="middle" x="178.5" y="-13" font-family="Helvetica,sans-Serif" font-size="10.00">ABLMeanBoussinesq.cpp</text>
</a>
</g>
</g>
<!-- Node2&#45;&gt;Node4 -->
<g id="edge3" class="edge">
<title>Node2&#45;&gt;Node4</title>
<path fill="none" stroke="midnightblue" d="M416.39,-68.73C366.17,-57.7 270.94,-36.8 217.46,-25.05"/>
<polygon fill="midnightblue" stroke="midnightblue" points="415.88,-72.2 426.39,-70.93 417.38,-65.36 415.88,-72.2"/>
</g>
<!-- Node5 -->
<g id="node5" class="node">
<title>Node5</title>
<g id="a_node5"><a xlink:href="incflo_8cpp.html" target="_top" xlink:title=" ">
<polygon fill="white" stroke="black" points="266,-6 266,-25 329,-25 329,-6 266,-6"/>
<text text-anchor="middle" x="297.5" y="-13" font-family="Helvetica,sans-Serif" font-size="10.00">incflo.cpp</text>
</a>
</g>
</g>
<!-- Node2&#45;&gt;Node5 -->
<g id="edge4" class="edge">
<title>Node2&#45;&gt;Node5</title>
<path fill="none" stroke="midnightblue" d="M418.29,-63.78C388.75,-52.22 345.18,-35.16 319.24,-25.01"/>
<polygon fill="midnightblue" stroke="midnightblue" points="417.13,-67.09 427.72,-67.48 419.69,-60.57 417.13,-67.09"/>
</g>
<!-- Node6 -->
<g id="node6" class="node">
<title>Node6</title>
<g id="a_node6"><a xlink:href="incflo__apply__nodal__projection_8cpp.html" target="_top" xlink:title=" ">
<polygon fill="white" stroke="black" points="347,-0.5 347,-30.5 454,-30.5 454,-0.5 347,-0.5"/>
<text text-anchor="start" x="355" y="-18.5" font-family="Helvetica,sans-Serif" font-size="10.00">incflo_apply_nodal</text>
<text text-anchor="middle" x="400.5" y="-7.5" font-family="Helvetica,sans-Serif" font-size="10.00">_projection.cpp</text>
</a>
</g>
</g>
<!-- Node2&#45;&gt;Node6 -->
<g id="edge5" class="edge">
<title>Node2&#45;&gt;Node6</title>
<path fill="none" stroke="midnightblue" d="M435.94,-59.53C428.43,-50.42 419.21,-39.21 412.05,-30.52"/>
<polygon fill="midnightblue" stroke="midnightblue" points="433.42,-61.98 442.48,-67.48 438.82,-57.53 433.42,-61.98"/>
</g>
<!-- Node7 -->
<g id="node7" class="node">
<title>Node7</title>
<g id="a_node7"><a xlink:href="init_8cpp.html" target="_top" xlink:title=" ">
<polygon fill="white" stroke="black" points="472,-6 472,-25 525,-25 525,-6 472,-6"/>
<text text-anchor="middle" x="498.5" y="-13" font-family="Helvetica,sans-Serif" font-size="10.00">init.cpp</text>
</a>
</g>
</g>
<!-- Node2&#45;&gt;Node7 -->
<g id="edge6" class="edge">
<title>Node2&#45;&gt;Node7</title>
<path fill="none" stroke="midnightblue" d="M462.95,-59.67C472.19,-48.45 484.07,-34.02 491.49,-25.01"/>
<polygon fill="midnightblue" stroke="midnightblue" points="460.18,-57.53 456.52,-67.48 465.58,-61.98 460.18,-57.53"/>
</g>
<!-- Node8 -->
<g id="node8" class="node">
<title>Node8</title>
<g id="a_node8"><a xlink:href="_a_b_l_8cpp.html" target="_top" xlink:title=" ">
<polygon fill="white" stroke="black" points="543.5,-6 543.5,-25 599.5,-25 599.5,-6 543.5,-6"/>
<text text-anchor="middle" x="571.5" y="-13" font-family="Helvetica,sans-Serif" font-size="10.00">ABL.cpp</text>
</a>
</g>
</g>
<!-- Node2&#45;&gt;Node8 -->
<g id="edge7" class="edge">
<title>Node2&#45;&gt;Node8</title>
<path fill="none" stroke="midnightblue" d="M476.11,-63.02C499.77,-51.48 533.68,-34.94 554.05,-25.01"/>
<polygon fill="midnightblue" stroke="midnightblue" points="474.43,-59.95 466.98,-67.48 477.5,-66.24 474.43,-59.95"/>
</g>
<!-- Node9 -->
<g id="node9" class="node">
<title>Node9</title>
<g id="a_node9"><a xlink:href="_a_b_l_wall_function_8cpp.html" target="_top" xlink:title=" ">
<polygon fill="white" stroke="black" points="618,-6 618,-25 735,-25 735,-6 618,-6"/>
<text text-anchor="middle" x="676.5" y="-13" font-family="Helvetica,sans-Serif" font-size="10.00">ABLWallFunction.cpp</text>
</a>
</g>
</g>
<!-- Node2&#45;&gt;Node9 -->
<g id="edge8" class="edge">
<title>Node2&#45;&gt;Node9</title>
<path fill="none" stroke="midnightblue" d="M482.24,-67.42C525.41,-56.1 600.91,-36.31 643.97,-25.03"/>
<polygon fill="midnightblue" stroke="midnightblue" points="481.3,-64.05 472.52,-69.97 483.08,-70.82 481.3,-64.05"/>
</g>
<!-- Node11 -->
<g id="node11" class="node">
<title>Node11</title>
<g id="a_node11"><a xlink:href="_a_b_l_fill_m_p_l_8cpp.html" target="_top" xlink:title=" ">
<polygon fill="white" stroke="black" points="753.5,-6 753.5,-25 843.5,-25 843.5,-6 753.5,-6"/>
<text text-anchor="middle" x="798.5" y="-13" font-family="Helvetica,sans-Serif" font-size="10.00">ABLFillMPL.cpp</text>
</a>
</g>
</g>
<!-- Node10&#45;&gt;Node11 -->
<g id="edge10" class="edge">
<title>Node10&#45;&gt;Node11</title>
<path fill="none" stroke="midnightblue" d="M810.95,-57.66C807.66,-46.77 803.64,-33.49 801.07,-25.01"/>
<polygon fill="midnightblue" stroke="midnightblue" points="807.68,-58.92 813.92,-67.48 814.38,-56.89 807.68,-58.92"/>
</g>
<!-- Node10&#45;&gt;Node12 -->
<g id="edge11" class="edge">
<title>Node10&#45;&gt;Node12</title>
<path fill="none" stroke="midnightblue" d="M843.33,-63.02C867.19,-51.48 901.37,-34.94 921.91,-25.01"/>
<polygon fill="midnightblue" stroke="midnightblue" points="841.6,-59.97 834.12,-67.48 844.65,-66.27 841.6,-59.97"/>
</g>
</g>
</svg>
