<?xml version="1.0" encoding="UTF-8" standalone="no"?>
<!DOCTYPE svg PUBLIC "-//W3C//DTD SVG 1.1//EN"
 "http://www.w3.org/Graphics/SVG/1.1/DTD/svg11.dtd">
<!-- Generated by graphviz version 2.43.0 (0)
 -->
<!-- Title: ABLForcing.H Pages: 1 -->
<svg width="2323pt" height="319pt"
 viewBox="0.00 0.00 2323.39 319.00" xmlns="http://www.w3.org/2000/svg" xmlns:xlink="http://www.w3.org/1999/xlink">
<g id="graph0" class="graph" transform="scale(1 1) rotate(0) translate(4 315)">
<title>ABLForcing.H</title>
<polygon fill="white" stroke="transparent" points="-4,4 -4,-315 2319.39,-315 2319.39,4 -4,4"/>
<!-- Node1 -->
<g id="node1" class="node">
<title>Node1</title>
<g id="a_node1"><a xlink:title=" ">
<polygon fill="#bfbfbf" stroke="black" points="1983.39,-291.5 1983.39,-310.5 2064.39,-310.5 2064.39,-291.5 1983.39,-291.5"/>
<text text-anchor="middle" x="2023.89" y="-298.5" font-family="Helvetica,sans-Serif" font-size="10.00">ABLForcing.H</text>
</a>
</g>
</g>
<!-- Node2 -->
<g id="node2" class="node">
<title>Node2</title>
<g id="a_node2"><a xlink:href="_momentum_source_8_h.html" target="_top" xlink:title=" ">
<polygon fill="white" stroke="black" points="1201.39,-224.5 1201.39,-254.5 1356.39,-254.5 1356.39,-224.5 1201.39,-224.5"/>
<text text-anchor="start" x="1209.39" y="-242.5" font-family="Helvetica,sans-Serif" font-size="10.00">amr&#45;wind/equation_systems</text>
<text text-anchor="middle" x="1278.89" y="-231.5" font-family="Helvetica,sans-Serif" font-size="10.00">/icns/MomentumSource.H</text>
</a>
</g>
</g>
<!-- Node1&#45;&gt;Node2 -->
<g id="edge1" class="edge">
<title>Node1&#45;&gt;Node2</title>
<path fill="none" stroke="midnightblue" d="M1983.31,-296.76C1866.69,-287.44 1528.66,-260.45 1367.01,-247.54"/>
<polygon fill="midnightblue" stroke="midnightblue" points="1366.87,-244.02 1356.62,-246.71 1366.31,-250.99 1366.87,-244.02"/>
</g>
<!-- Node28 -->
<g id="node28" class="node">
<title>Node28</title>
<g id="a_node28"><a xlink:href="_sim_time_8_h.html" target="_top" xlink:title=" ">
<polygon fill="white" stroke="black" points="1880.89,-230 1880.89,-249 2024.89,-249 2024.89,-230 1880.89,-230"/>
<text text-anchor="middle" x="1952.89" y="-237" font-family="Helvetica,sans-Serif" font-size="10.00">amr&#45;wind/core/SimTime.H</text>
</a>
</g>
</g>
<!-- Node1&#45;&gt;Node28 -->
<g id="edge49" class="edge">
<title>Node1&#45;&gt;Node28</title>
<path fill="none" stroke="midnightblue" d="M2013.72,-291.48C2002.54,-282.11 1984.38,-266.88 1970.8,-255.51"/>
<polygon fill="midnightblue" stroke="midnightblue" points="1972.96,-252.75 1963.05,-249.01 1968.46,-258.11 1972.96,-252.75"/>
</g>
<!-- Node32 -->
<g id="node32" class="node">
<title>Node32</title>
<g id="a_node32"><a xlink:href="trig__ops_8_h.html" target="_top" xlink:title=" ">
<polygon fill="white" stroke="black" points="2060.39,-224.5 2060.39,-254.5 2163.39,-254.5 2163.39,-224.5 2060.39,-224.5"/>
<text text-anchor="start" x="2068.39" y="-242.5" font-family="Helvetica,sans-Serif" font-size="10.00">amr&#45;wind/utilities</text>
<text text-anchor="middle" x="2111.89" y="-231.5" font-family="Helvetica,sans-Serif" font-size="10.00">/trig_ops.H</text>
</a>
</g>
</g>
<!-- Node1&#45;&gt;Node32 -->
<g id="edge53" class="edge">
<title>Node1&#45;&gt;Node32</title>
<path fill="none" stroke="midnightblue" d="M2036.5,-291.48C2048.53,-283.34 2067.09,-270.79 2082.79,-260.18"/>
<polygon fill="midnightblue" stroke="midnightblue" points="2084.83,-263.02 2091.15,-254.52 2080.91,-257.22 2084.83,-263.02"/>
</g>
<!-- Node34 -->
<g id="node34" class="node">
<title>Node34</title>
<g id="a_node34"><a xlink:href="linear__interpolation_8_h.html" target="_top" xlink:title=" ">
<polygon fill="white" stroke="black" points="2190.39,-224.5 2190.39,-254.5 2315.39,-254.5 2315.39,-224.5 2190.39,-224.5"/>
<text text-anchor="start" x="2198.39" y="-242.5" font-family="Helvetica,sans-Serif" font-size="10.00">amr&#45;wind/utilities</text>
<text text-anchor="middle" x="2252.89" y="-231.5" font-family="Helvetica,sans-Serif" font-size="10.00">/linear_interpolation.H</text>
</a>
</g>
</g>
<!-- Node1&#45;&gt;Node34 -->
<g id="edge57" class="edge">
<title>Node1&#45;&gt;Node34</title>
<path fill="none" stroke="midnightblue" d="M2056.7,-291.48C2091.12,-282.53 2146.1,-268.25 2189.1,-257.07"/>
<polygon fill="midnightblue" stroke="midnightblue" points="2190.12,-260.43 2198.92,-254.52 2188.36,-253.65 2190.12,-260.43"/>
</g>
<!-- Node3 -->
<g id="node3" class="node">
<title>Node3</title>
<g id="a_node3"><a xlink:href="_factory_8_h.html" target="_top" xlink:title=" ">
<polygon fill="white" stroke="black" points="1728.89,-112.5 1728.89,-131.5 1862.89,-131.5 1862.89,-112.5 1728.89,-112.5"/>
<text text-anchor="middle" x="1795.89" y="-119.5" font-family="Helvetica,sans-Serif" font-size="10.00">amr&#45;wind/core/Factory.H</text>
</a>
</g>
</g>
<!-- Node2&#45;&gt;Node3 -->
<g id="edge2" class="edge">
<title>Node2&#45;&gt;Node3</title>
<path fill="none" stroke="midnightblue" d="M1356.62,-233.3C1459.61,-225.7 1635.32,-210 1695.89,-188 1727.62,-176.47 1759.49,-153.27 1778.46,-137.93"/>
<polygon fill="midnightblue" stroke="midnightblue" points="1780.75,-140.58 1786.22,-131.51 1776.28,-135.19 1780.75,-140.58"/>
</g>
<!-- Node9 -->
<g id="node9" class="node">
<title>Node9</title>
<g id="a_node9"><a xlink:href="_field_desc_types_8_h.html" target="_top" xlink:title=" ">
<polygon fill="white" stroke="black" points="287.89,-0.5 287.89,-19.5 463.89,-19.5 463.89,-0.5 287.89,-0.5"/>
<text text-anchor="middle" x="375.89" y="-7.5" font-family="Helvetica,sans-Serif" font-size="10.00">amr&#45;wind/core/FieldDescTypes.H</text>
</a>
</g>
</g>
<!-- Node2&#45;&gt;Node9 -->
<g id="edge8" class="edge">
<title>Node2&#45;&gt;Node9</title>
<path fill="none" stroke="midnightblue" d="M1201.38,-235.21C948.53,-224 158.11,-185.02 56.89,-132 21.5,-113.46 -17.58,-85.92 8.89,-56 26.52,-36.08 175.14,-23.09 277.75,-16.41"/>
<polygon fill="midnightblue" stroke="midnightblue" points="278.09,-19.9 287.85,-15.76 277.64,-12.91 278.09,-19.9"/>
</g>
<!-- Node10 -->
<g id="node10" class="node">
<title>Node10</title>
<g id="a_node10"><a xlink:href="_field_utils_8_h.html" target="_top" xlink:title=" ">
<polygon fill="white" stroke="black" points="65.89,-112.5 65.89,-131.5 211.89,-131.5 211.89,-112.5 65.89,-112.5"/>
<text text-anchor="middle" x="138.89" y="-119.5" font-family="Helvetica,sans-Serif" font-size="10.00">amr&#45;wind/core/FieldUtils.H</text>
</a>
</g>
</g>
<!-- Node2&#45;&gt;Node10 -->
<g id="edge9" class="edge">
<title>Node2&#45;&gt;Node10</title>
<path fill="none" stroke="midnightblue" d="M1201.28,-230.71C1026.9,-213.2 590.79,-169.33 225.89,-132 224.62,-131.87 223.33,-131.74 222.04,-131.61"/>
<polygon fill="midnightblue" stroke="midnightblue" points="222.3,-128.11 211.99,-130.57 221.58,-135.08 222.3,-128.11"/>
</g>
<!-- Node11 -->
<g id="node11" class="node">
<title>Node11</title>
<g id="a_node11"><a xlink:title=" ">
<polygon fill="white" stroke="#bfbfbf" points="1023.39,-0.5 1023.39,-19.5 1132.39,-19.5 1132.39,-0.5 1023.39,-0.5"/>
<text text-anchor="middle" x="1077.89" y="-7.5" font-family="Helvetica,sans-Serif" font-size="10.00">AMReX_MultiFab.H</text>
</a>
</g>
</g>
<!-- Node2&#45;&gt;Node11 -->
<g id="edge48" class="edge">
<title>Node2&#45;&gt;Node11</title>
<path fill="none" stroke="midnightblue" d="M1356.48,-229.48C1494.15,-210.61 1758.04,-159.84 1661.89,-56 1627.19,-18.52 1287.2,-12.15 1142.53,-11.15"/>
<polygon fill="midnightblue" stroke="midnightblue" points="1142.48,-7.65 1132.45,-11.08 1142.43,-14.65 1142.48,-7.65"/>
</g>
<!-- Node13 -->
<g id="node13" class="node">
<title>Node13</title>
<g id="a_node13"><a xlink:href="_field_repo_8_h.html" target="_top" xlink:title=" ">
<polygon fill="white" stroke="black" points="800.39,-168.5 800.39,-187.5 949.39,-187.5 949.39,-168.5 800.39,-168.5"/>
<text text-anchor="middle" x="874.89" y="-175.5" font-family="Helvetica,sans-Serif" font-size="10.00">amr&#45;wind/core/FieldRepo.H</text>
</a>
</g>
</g>
<!-- Node2&#45;&gt;Node13 -->
<g id="edge13" class="edge">
<title>Node2&#45;&gt;Node13</title>
<path fill="none" stroke="midnightblue" d="M1201,-227.03C1126.15,-216 1014.18,-199.51 942.85,-189.01"/>
<polygon fill="midnightblue" stroke="midnightblue" points="943.03,-185.5 932.63,-187.5 942.01,-192.42 943.03,-185.5"/>
</g>
<!-- Node4 -->
<g id="node4" class="node">
<title>Node4</title>
<g id="a_node4"><a xlink:title=" ">
<polygon fill="white" stroke="#bfbfbf" points="1709.89,-56.5 1709.89,-75.5 1767.89,-75.5 1767.89,-56.5 1709.89,-56.5"/>
<text text-anchor="middle" x="1738.89" y="-63.5" font-family="Helvetica,sans-Serif" font-size="10.00">memory</text>
</a>
</g>
</g>
<!-- Node3&#45;&gt;Node4 -->
<g id="edge3" class="edge">
<title>Node3&#45;&gt;Node4</title>
<path fill="none" stroke="midnightblue" d="M1786.73,-112.32C1778.39,-104.42 1765.86,-92.55 1755.72,-82.94"/>
<polygon fill="midnightblue" stroke="midnightblue" points="1757.88,-80.17 1748.22,-75.83 1753.07,-85.25 1757.88,-80.17"/>
</g>
<!-- Node5 -->
<g id="node5" class="node">
<title>Node5</title>
<g id="a_node5"><a xlink:title=" ">
<polygon fill="white" stroke="#bfbfbf" points="1560.39,-56.5 1560.39,-75.5 1653.39,-75.5 1653.39,-56.5 1560.39,-56.5"/>
<text text-anchor="middle" x="1606.89" y="-63.5" font-family="Helvetica,sans-Serif" font-size="10.00">unordered_map</text>
</a>
</g>
</g>
<!-- Node3&#45;&gt;Node5 -->
<g id="edge4" class="edge">
<title>Node3&#45;&gt;Node5</title>
<path fill="none" stroke="midnightblue" d="M1765.94,-112.44C1733.73,-103.24 1682.36,-88.56 1646.75,-78.39"/>
<polygon fill="midnightblue" stroke="midnightblue" points="1647.28,-74.9 1636.7,-75.52 1645.35,-81.63 1647.28,-74.9"/>
</g>
<!-- Node6 -->
<g id="node6" class="node">
<title>Node6</title>
<g id="a_node6"><a xlink:title=" ">
<polygon fill="white" stroke="#bfbfbf" points="1785.89,-56.5 1785.89,-75.5 1845.89,-75.5 1845.89,-56.5 1785.89,-56.5"/>
<text text-anchor="middle" x="1815.89" y="-63.5" font-family="Helvetica,sans-Serif" font-size="10.00">iostream</text>
</a>
</g>
</g>
<!-- Node3&#45;&gt;Node6 -->
<g id="edge5" class="edge">
<title>Node3&#45;&gt;Node6</title>
<path fill="none" stroke="midnightblue" d="M1799.2,-112.08C1801.87,-104.85 1805.74,-94.41 1809.08,-85.4"/>
<polygon fill="midnightblue" stroke="midnightblue" points="1812.46,-86.34 1812.65,-75.75 1805.9,-83.91 1812.46,-86.34"/>
</g>
<!-- Node7 -->
<g id="node7" class="node">
<title>Node7</title>
<g id="a_node7"><a xlink:title=" ">
<polygon fill="white" stroke="#bfbfbf" points="1863.89,-56.5 1863.89,-75.5 1953.89,-75.5 1953.89,-56.5 1863.89,-56.5"/>
<text text-anchor="middle" x="1908.89" y="-63.5" font-family="Helvetica,sans-Serif" font-size="10.00">AMReX_Print.H</text>
</a>
</g>
</g>
<!-- Node3&#45;&gt;Node7 -->
<g id="edge6" class="edge">
<title>Node3&#45;&gt;Node7</title>
<path fill="none" stroke="midnightblue" d="M1813.8,-112.44C1832.15,-103.68 1860.9,-89.94 1881.99,-79.86"/>
<polygon fill="midnightblue" stroke="midnightblue" points="1883.56,-82.99 1891.07,-75.52 1880.54,-76.67 1883.56,-82.99"/>
</g>
<!-- Node8 -->
<g id="node8" class="node">
<title>Node8</title>
<g id="a_node8"><a xlink:title=" ">
<polygon fill="white" stroke="#bfbfbf" points="1971.89,-56.5 1971.89,-75.5 2033.89,-75.5 2033.89,-56.5 1971.89,-56.5"/>
<text text-anchor="middle" x="2002.89" y="-63.5" font-family="Helvetica,sans-Serif" font-size="10.00">AMReX.H</text>
</a>
</g>
</g>
<!-- Node3&#45;&gt;Node8 -->
<g id="edge7" class="edge">
<title>Node3&#45;&gt;Node8</title>
<path fill="none" stroke="midnightblue" d="M1828.69,-112.44C1864.69,-103.05 1922.55,-87.96 1961.61,-77.77"/>
<polygon fill="midnightblue" stroke="midnightblue" points="1962.81,-81.07 1971.6,-75.16 1961.04,-74.3 1962.81,-81.07"/>
</g>
<!-- Node10&#45;&gt;Node9 -->
<g id="edge10" class="edge">
<title>Node10&#45;&gt;Node9</title>
<path fill="none" stroke="midnightblue" d="M143.74,-112.33C152.08,-98.24 170.53,-70.5 193.89,-56 221.72,-38.73 255.78,-28.09 286.89,-21.52"/>
<polygon fill="midnightblue" stroke="midnightblue" points="287.74,-24.92 296.87,-19.53 286.38,-18.06 287.74,-24.92"/>
</g>
<!-- Node10&#45;&gt;Node11 -->
<g id="edge11" class="edge">
<title>Node10&#45;&gt;Node11</title>
<path fill="none" stroke="midnightblue" d="M211.93,-117.51C400.52,-108.4 891.5,-84.07 925.89,-76 973.09,-64.92 1024.17,-40.16 1053.47,-24.6"/>
<polygon fill="midnightblue" stroke="midnightblue" points="1055.4,-27.54 1062.53,-19.71 1052.07,-21.38 1055.4,-27.54"/>
</g>
<!-- Node12 -->
<g id="node12" class="node">
<title>Node12</title>
<g id="a_node12"><a xlink:title=" ">
<polygon fill="white" stroke="#bfbfbf" points="17.89,-56.5 17.89,-75.5 141.89,-75.5 141.89,-56.5 17.89,-56.5"/>
<text text-anchor="middle" x="79.89" y="-63.5" font-family="Helvetica,sans-Serif" font-size="10.00">AMReX_Interpolater.H</text>
</a>
</g>
</g>
<!-- Node10&#45;&gt;Node12 -->
<g id="edge12" class="edge">
<title>Node10&#45;&gt;Node12</title>
<path fill="none" stroke="midnightblue" d="M129.41,-112.32C120.69,-104.34 107.55,-92.31 96.99,-82.65"/>
<polygon fill="midnightblue" stroke="midnightblue" points="99.28,-80 89.54,-75.83 94.56,-85.17 99.28,-80"/>
</g>
<!-- Node13&#45;&gt;Node5 -->
<g id="edge15" class="edge">
<title>Node13&#45;&gt;Node5</title>
<path fill="none" stroke="midnightblue" d="M949.64,-176.87C1055.79,-175.32 1255.78,-167.4 1421.89,-132 1478.96,-119.84 1542.53,-94.83 1578.32,-79.62"/>
<polygon fill="midnightblue" stroke="midnightblue" points="1579.85,-82.78 1587.65,-75.61 1577.08,-76.35 1579.85,-82.78"/>
</g>
<!-- Node13&#45;&gt;Node9 -->
<g id="edge16" class="edge">
<title>Node13&#45;&gt;Node9</title>
<path fill="none" stroke="midnightblue" d="M800.22,-172.58C661.23,-164.11 372.87,-145.23 328.89,-132 279.37,-117.1 253.23,-120.51 226.89,-76 209.47,-46.56 241.96,-30.42 281,-21.6"/>
<polygon fill="midnightblue" stroke="midnightblue" points="281.96,-24.97 291.04,-19.51 280.53,-18.12 281.96,-24.97"/>
</g>
<!-- Node13&#45;&gt;Node10 -->
<g id="edge17" class="edge">
<title>Node13&#45;&gt;Node10</title>
<path fill="none" stroke="midnightblue" d="M800.37,-172.66C679.63,-165.43 433.78,-149.96 225.89,-132 224.62,-131.89 223.33,-131.78 222.03,-131.66"/>
<polygon fill="midnightblue" stroke="midnightblue" points="222.25,-128.17 211.98,-130.74 221.62,-135.14 222.25,-128.17"/>
</g>
<!-- Node13&#45;&gt;Node11 -->
<g id="edge46" class="edge">
<title>Node13&#45;&gt;Node11</title>
<path fill="none" stroke="midnightblue" d="M905.14,-168.47C946.07,-155.37 1018.61,-126.38 1058.89,-76 1069.55,-62.67 1074.23,-43.55 1076.29,-29.5"/>
<polygon fill="midnightblue" stroke="midnightblue" points="1079.77,-29.86 1077.44,-19.52 1072.81,-29.06 1079.77,-29.86"/>
</g>
<!-- Node14 -->
<g id="node14" class="node">
<title>Node14</title>
<g id="a_node14"><a xlink:title=" ">
<polygon fill="white" stroke="#bfbfbf" points="922.89,-0.5 922.89,-19.5 966.89,-19.5 966.89,-0.5 922.89,-0.5"/>
<text text-anchor="middle" x="944.89" y="-7.5" font-family="Helvetica,sans-Serif" font-size="10.00">string</text>
</a>
</g>
</g>
<!-- Node13&#45;&gt;Node14 -->
<g id="edge14" class="edge">
<title>Node13&#45;&gt;Node14</title>
<path fill="none" stroke="midnightblue" d="M894.75,-168.43C909.43,-161 928.6,-148.79 938.89,-132 958.24,-100.43 953.82,-55.06 949.17,-29.8"/>
<polygon fill="midnightblue" stroke="midnightblue" points="952.54,-28.82 947.1,-19.73 945.68,-30.23 952.54,-28.82"/>
</g>
<!-- Node15 -->
<g id="node15" class="node">
<title>Node15</title>
<g id="a_node15"><a xlink:href="_field_8_h.html" target="_top" xlink:title=" ">
<polygon fill="white" stroke="black" points="1288.89,-112.5 1288.89,-131.5 1412.89,-131.5 1412.89,-112.5 1288.89,-112.5"/>
<text text-anchor="middle" x="1350.89" y="-119.5" font-family="Helvetica,sans-Serif" font-size="10.00">amr&#45;wind/core/Field.H</text>
</a>
</g>
</g>
<!-- Node13&#45;&gt;Node15 -->
<g id="edge18" class="edge">
<title>Node13&#45;&gt;Node15</title>
<path fill="none" stroke="midnightblue" d="M949.53,-168.53C1039.6,-158.32 1189.98,-141.25 1278.86,-131.17"/>
<polygon fill="midnightblue" stroke="midnightblue" points="1279.32,-134.64 1288.86,-130.04 1278.53,-127.69 1279.32,-134.64"/>
</g>
<!-- Node22 -->
<g id="node22" class="node">
<title>Node22</title>
<g id="a_node22"><a xlink:href="_int_field_8_h.html" target="_top" xlink:title=" ">
<polygon fill="white" stroke="black" points="372.39,-112.5 372.39,-131.5 509.39,-131.5 509.39,-112.5 372.39,-112.5"/>
<text text-anchor="middle" x="440.89" y="-119.5" font-family="Helvetica,sans-Serif" font-size="10.00">amr&#45;wind/core/IntField.H</text>
</a>
</g>
</g>
<!-- Node13&#45;&gt;Node22 -->
<g id="edge33" class="edge">
<title>Node13&#45;&gt;Node22</title>
<path fill="none" stroke="midnightblue" d="M806.12,-168.44C728.11,-158.74 601.14,-142.94 519.33,-132.76"/>
<polygon fill="midnightblue" stroke="midnightblue" points="519.7,-129.28 509.34,-131.52 518.83,-136.22 519.7,-129.28"/>
</g>
<!-- Node23 -->
<g id="node23" class="node">
<title>Node23</title>
<g id="a_node23"><a xlink:title=" ">
<polygon fill="white" stroke="#bfbfbf" points="235.89,-56.5 235.89,-75.5 347.89,-75.5 347.89,-56.5 235.89,-56.5"/>
<text text-anchor="middle" x="291.89" y="-63.5" font-family="Helvetica,sans-Serif" font-size="10.00">AMReX_iMultiFab.H</text>
</a>
</g>
</g>
<!-- Node13&#45;&gt;Node23 -->
<g id="edge47" class="edge">
<title>Node13&#45;&gt;Node23</title>
<path fill="none" stroke="midnightblue" d="M800,-176.28C677.25,-174.12 439.26,-165.6 362.89,-132 338.85,-121.42 317.57,-99.34 304.72,-83.86"/>
<polygon fill="midnightblue" stroke="midnightblue" points="307.14,-81.28 298.17,-75.64 301.67,-85.64 307.14,-81.28"/>
</g>
<!-- Node24 -->
<g id="node24" class="node">
<title>Node24</title>
<g id="a_node24"><a xlink:href="_scratch_field_8_h.html" target="_top" xlink:title=" ">
<polygon fill="white" stroke="black" points="591.89,-112.5 591.89,-131.5 751.89,-131.5 751.89,-112.5 591.89,-112.5"/>
<text text-anchor="middle" x="671.89" y="-119.5" font-family="Helvetica,sans-Serif" font-size="10.00">amr&#45;wind/core/ScratchField.H</text>
</a>
</g>
</g>
<!-- Node13&#45;&gt;Node24 -->
<g id="edge37" class="edge">
<title>Node13&#45;&gt;Node24</title>
<path fill="none" stroke="midnightblue" d="M842.73,-168.44C807.83,-159.16 752,-144.31 713.72,-134.13"/>
<polygon fill="midnightblue" stroke="midnightblue" points="714.47,-130.7 703.91,-131.52 712.67,-137.47 714.47,-130.7"/>
</g>
<!-- Node27 -->
<g id="node27" class="node">
<title>Node27</title>
<g id="a_node27"><a xlink:title=" ">
<polygon fill="white" stroke="#bfbfbf" points="819.89,-112.5 819.89,-131.5 929.89,-131.5 929.89,-112.5 819.89,-112.5"/>
<text text-anchor="middle" x="874.89" y="-119.5" font-family="Helvetica,sans-Serif" font-size="10.00">AMReX_AmrCore.H</text>
</a>
</g>
</g>
<!-- Node13&#45;&gt;Node27 -->
<g id="edge45" class="edge">
<title>Node13&#45;&gt;Node27</title>
<path fill="none" stroke="midnightblue" d="M874.89,-168.08C874.89,-161.01 874.89,-150.86 874.89,-141.99"/>
<polygon fill="midnightblue" stroke="midnightblue" points="878.39,-141.75 874.89,-131.75 871.39,-141.75 878.39,-141.75"/>
</g>
<!-- Node15&#45;&gt;Node4 -->
<g id="edge20" class="edge">
<title>Node15&#45;&gt;Node4</title>
<path fill="none" stroke="midnightblue" d="M1412.37,-112.44C1492.9,-101.24 1631.77,-81.91 1699.48,-72.49"/>
<polygon fill="midnightblue" stroke="midnightblue" points="1700.29,-75.91 1709.71,-71.06 1699.33,-68.97 1700.29,-75.91"/>
</g>
<!-- Node15&#45;&gt;Node5 -->
<g id="edge21" class="edge">
<title>Node15&#45;&gt;Node5</title>
<path fill="none" stroke="midnightblue" d="M1391.46,-112.44C1436.21,-103 1508.28,-87.8 1556.59,-77.61"/>
<polygon fill="midnightblue" stroke="midnightblue" points="1557.46,-81.01 1566.52,-75.52 1556.01,-74.16 1557.46,-81.01"/>
</g>
<!-- Node15&#45;&gt;Node9 -->
<g id="edge27" class="edge">
<title>Node15&#45;&gt;Node9</title>
<path fill="none" stroke="midnightblue" d="M1288.73,-119.38C1157.86,-115.45 857.94,-103.66 759.89,-76 741.14,-70.71 739.49,-61.79 720.89,-56 640.09,-30.85 544.39,-19.75 474.31,-14.85"/>
<polygon fill="midnightblue" stroke="midnightblue" points="474.37,-11.35 464.16,-14.17 473.9,-18.33 474.37,-11.35"/>
</g>
<!-- Node15&#45;&gt;Node11 -->
<g id="edge23" class="edge">
<title>Node15&#45;&gt;Node11</title>
<path fill="none" stroke="midnightblue" d="M1376.3,-112.41C1406.48,-100.89 1450.31,-79.2 1429.89,-56 1411.26,-34.83 1239.25,-20.93 1142.77,-14.72"/>
<polygon fill="midnightblue" stroke="midnightblue" points="1142.73,-11.21 1132.53,-14.07 1142.29,-18.2 1142.73,-11.21"/>
</g>
<!-- Node15&#45;&gt;Node14 -->
<g id="edge19" class="edge">
<title>Node15&#45;&gt;Node14</title>
<path fill="none" stroke="midnightblue" d="M1309.16,-112.44C1269.12,-104 1207.08,-90.32 1153.89,-76 1090.47,-58.92 1017.41,-35.27 976.64,-21.71"/>
<polygon fill="midnightblue" stroke="midnightblue" points="977.59,-18.34 967,-18.49 975.38,-24.98 977.59,-18.34"/>
</g>
<!-- Node16 -->
<g id="node16" class="node">
<title>Node16</title>
<g id="a_node16"><a xlink:title=" ">
<polygon fill="white" stroke="#bfbfbf" points="1477.89,-56.5 1477.89,-75.5 1541.89,-75.5 1541.89,-56.5 1477.89,-56.5"/>
<text text-anchor="middle" x="1509.89" y="-63.5" font-family="Helvetica,sans-Serif" font-size="10.00">algorithm</text>
</a>
</g>
</g>
<!-- Node15&#45;&gt;Node16 -->
<g id="edge22" class="edge">
<title>Node15&#45;&gt;Node16</title>
<path fill="none" stroke="midnightblue" d="M1376.09,-112.44C1402.84,-103.36 1445.3,-88.94 1475.2,-78.78"/>
<polygon fill="midnightblue" stroke="midnightblue" points="1476.47,-82.05 1484.82,-75.52 1474.22,-75.42 1476.47,-82.05"/>
</g>
<!-- Node17 -->
<g id="node17" class="node">
<title>Node17</title>
<g id="a_node17"><a xlink:title=" ">
<polygon fill="white" stroke="#bfbfbf" points="1163.39,-56.5 1163.39,-75.5 1262.39,-75.5 1262.39,-56.5 1163.39,-56.5"/>
<text text-anchor="middle" x="1212.89" y="-63.5" font-family="Helvetica,sans-Serif" font-size="10.00">AMReX_BCRec.H</text>
</a>
</g>
</g>
<!-- Node15&#45;&gt;Node17 -->
<g id="edge24" class="edge">
<title>Node15&#45;&gt;Node17</title>
<path fill="none" stroke="midnightblue" d="M1329.03,-112.44C1306.11,-103.48 1269.92,-89.31 1244.03,-79.18"/>
<polygon fill="midnightblue" stroke="midnightblue" points="1245.24,-75.9 1234.66,-75.52 1242.69,-82.42 1245.24,-75.9"/>
</g>
<!-- Node18 -->
<g id="node18" class="node">
<title>Node18</title>
<g id="a_node18"><a xlink:title=" ">
<polygon fill="white" stroke="#bfbfbf" points="2176.39,-56.5 2176.39,-75.5 2263.39,-75.5 2263.39,-56.5 2176.39,-56.5"/>
<text text-anchor="middle" x="2219.89" y="-63.5" font-family="Helvetica,sans-Serif" font-size="10.00">AMReX_Gpu.H</text>
</a>
</g>
</g>
<!-- Node15&#45;&gt;Node18 -->
<g id="edge25" class="edge">
<title>Node15&#45;&gt;Node18</title>
<path fill="none" stroke="midnightblue" d="M1413.04,-117.14C1575.95,-107.01 2013.29,-79.84 2166.21,-70.34"/>
<polygon fill="midnightblue" stroke="midnightblue" points="2166.53,-73.82 2176.29,-69.71 2166.1,-66.84 2166.53,-73.82"/>
</g>
<!-- Node19 -->
<g id="node19" class="node">
<title>Node19</title>
<g id="a_node19"><a xlink:href="incflo__enums_8_h.html" target="_top" xlink:title=" ">
<polygon fill="white" stroke="black" points="1280.39,-56.5 1280.39,-75.5 1421.39,-75.5 1421.39,-56.5 1280.39,-56.5"/>
<text text-anchor="middle" x="1350.89" y="-63.5" font-family="Helvetica,sans-Serif" font-size="10.00">amr&#45;wind/incflo_enums.H</text>
</a>
</g>
</g>
<!-- Node15&#45;&gt;Node19 -->
<g id="edge26" class="edge">
<title>Node15&#45;&gt;Node19</title>
<path fill="none" stroke="midnightblue" d="M1350.89,-112.08C1350.89,-105.01 1350.89,-94.86 1350.89,-85.99"/>
<polygon fill="midnightblue" stroke="midnightblue" points="1354.39,-85.75 1350.89,-75.75 1347.39,-85.75 1354.39,-85.75"/>
</g>
<!-- Node20 -->
<g id="node20" class="node">
<title>Node20</title>
<g id="a_node20"><a xlink:href="_view_field_8_h.html" target="_top" xlink:title=" ">
<polygon fill="white" stroke="black" points="768.89,-56.5 768.89,-75.5 916.89,-75.5 916.89,-56.5 768.89,-56.5"/>
<text text-anchor="middle" x="842.89" y="-63.5" font-family="Helvetica,sans-Serif" font-size="10.00">amr&#45;wind/core/ViewField.H</text>
</a>
</g>
</g>
<!-- Node15&#45;&gt;Node20 -->
<g id="edge28" class="edge">
<title>Node15&#45;&gt;Node20</title>
<path fill="none" stroke="midnightblue" d="M1288.86,-114.41C1198.05,-104.75 1028.7,-86.75 926.84,-75.92"/>
<polygon fill="midnightblue" stroke="midnightblue" points="927.21,-72.44 916.89,-74.87 926.47,-79.4 927.21,-72.44"/>
</g>
<!-- Node20&#45;&gt;Node9 -->
<g id="edge30" class="edge">
<title>Node20&#45;&gt;Node9</title>
<path fill="none" stroke="midnightblue" d="M769.15,-56.47C685.01,-46.74 547.68,-30.86 459.59,-20.68"/>
<polygon fill="midnightblue" stroke="midnightblue" points="459.97,-17.2 449.63,-19.53 459.16,-24.15 459.97,-17.2"/>
</g>
<!-- Node20&#45;&gt;Node11 -->
<g id="edge31" class="edge">
<title>Node20&#45;&gt;Node11</title>
<path fill="none" stroke="midnightblue" d="M880.13,-56.44C920.95,-47.06 986.54,-31.99 1030.88,-21.8"/>
<polygon fill="midnightblue" stroke="midnightblue" points="1031.87,-25.17 1040.83,-19.52 1030.3,-18.34 1031.87,-25.17"/>
</g>
<!-- Node20&#45;&gt;Node14 -->
<g id="edge29" class="edge">
<title>Node20&#45;&gt;Node14</title>
<path fill="none" stroke="midnightblue" d="M859.28,-56.32C875.56,-47.7 900.76,-34.36 919.61,-24.39"/>
<polygon fill="midnightblue" stroke="midnightblue" points="921.34,-27.43 928.55,-19.65 918.07,-21.24 921.34,-27.43"/>
</g>
<!-- Node21 -->
<g id="node21" class="node">
<title>Node21</title>
<g id="a_node21"><a xlink:title=" ">
<polygon fill="white" stroke="#bfbfbf" points="637.89,-0.5 637.89,-19.5 735.89,-19.5 735.89,-0.5 637.89,-0.5"/>
<text text-anchor="middle" x="686.89" y="-7.5" font-family="Helvetica,sans-Serif" font-size="10.00">AMReX_Vector.H</text>
</a>
</g>
</g>
<!-- Node20&#45;&gt;Node21 -->
<g id="edge32" class="edge">
<title>Node20&#45;&gt;Node21</title>
<path fill="none" stroke="midnightblue" d="M818.17,-56.44C792.04,-47.4 750.63,-33.06 721.32,-22.92"/>
<polygon fill="midnightblue" stroke="midnightblue" points="722.09,-19.48 711.5,-19.52 719.8,-26.1 722.09,-19.48"/>
</g>
<!-- Node22&#45;&gt;Node9 -->
<g id="edge35" class="edge">
<title>Node22&#45;&gt;Node9</title>
<path fill="none" stroke="midnightblue" d="M430.93,-112.21C421.81,-103.72 408.46,-90.09 399.89,-76 391.1,-61.55 384.73,-43.36 380.77,-29.9"/>
<polygon fill="midnightblue" stroke="midnightblue" points="384.04,-28.6 378.01,-19.89 377.29,-30.46 384.04,-28.6"/>
</g>
<!-- Node22&#45;&gt;Node14 -->
<g id="edge34" class="edge">
<title>Node22&#45;&gt;Node14</title>
<path fill="none" stroke="midnightblue" d="M446.84,-112.4C457.41,-97.9 481.02,-68.88 508.89,-56 545.35,-39.15 818.19,-19.49 912.74,-13.11"/>
<polygon fill="midnightblue" stroke="midnightblue" points="913.11,-16.59 922.86,-12.43 912.65,-9.61 913.11,-16.59"/>
</g>
<!-- Node22&#45;&gt;Node23 -->
<g id="edge36" class="edge">
<title>Node22&#45;&gt;Node23</title>
<path fill="none" stroke="midnightblue" d="M417.28,-112.44C392.43,-103.44 353.12,-89.19 325.14,-79.05"/>
<polygon fill="midnightblue" stroke="midnightblue" points="325.99,-75.63 315.39,-75.52 323.6,-82.21 325.99,-75.63"/>
</g>
<!-- Node24&#45;&gt;Node9 -->
<g id="edge40" class="edge">
<title>Node24&#45;&gt;Node9</title>
<path fill="none" stroke="midnightblue" d="M627,-112.45C591.32,-104.93 540.49,-92.59 497.89,-76 461.37,-61.78 421.79,-39.25 397.92,-24.8"/>
<polygon fill="midnightblue" stroke="midnightblue" points="399.65,-21.75 389.29,-19.51 395.99,-27.72 399.65,-21.75"/>
</g>
<!-- Node24&#45;&gt;Node11 -->
<g id="edge42" class="edge">
<title>Node24&#45;&gt;Node11</title>
<path fill="none" stroke="midnightblue" d="M752.11,-114.62C851.7,-106.16 1011.38,-90.57 1034.89,-76 1052.27,-65.23 1064.12,-44.52 1070.91,-29.36"/>
<polygon fill="midnightblue" stroke="midnightblue" points="1074.21,-30.53 1074.8,-19.95 1067.75,-27.85 1074.21,-30.53"/>
</g>
<!-- Node24&#45;&gt;Node14 -->
<g id="edge38" class="edge">
<title>Node24&#45;&gt;Node14</title>
<path fill="none" stroke="midnightblue" d="M752,-115.92C816.59,-110.21 900.68,-98.61 925.89,-76 938.87,-64.37 943.19,-44.42 944.52,-29.68"/>
<polygon fill="midnightblue" stroke="midnightblue" points="948.02,-29.82 945.06,-19.65 941.03,-29.45 948.02,-29.82"/>
</g>
<!-- Node24&#45;&gt;Node20 -->
<g id="edge41" class="edge">
<title>Node24&#45;&gt;Node20</title>
<path fill="none" stroke="midnightblue" d="M698.99,-112.44C727.88,-103.32 773.82,-88.81 806,-78.65"/>
<polygon fill="midnightblue" stroke="midnightblue" points="807.44,-81.87 815.92,-75.52 805.33,-75.19 807.44,-81.87"/>
</g>
<!-- Node24&#45;&gt;Node21 -->
<g id="edge43" class="edge">
<title>Node24&#45;&gt;Node21</title>
<path fill="none" stroke="midnightblue" d="M591.78,-114.67C538.04,-107.19 481.66,-90.98 508.89,-56 523.5,-37.24 581.55,-25.06 627.44,-18.16"/>
<polygon fill="midnightblue" stroke="midnightblue" points="628.23,-21.59 637.62,-16.69 627.22,-14.66 628.23,-21.59"/>
</g>
<!-- Node25 -->
<g id="node25" class="node">
<title>Node25</title>
<g id="a_node25"><a xlink:title=" ">
<polygon fill="white" stroke="#bfbfbf" points="518.39,-56.5 518.39,-75.5 563.39,-75.5 563.39,-56.5 518.39,-56.5"/>
<text text-anchor="middle" x="540.89" y="-63.5" font-family="Helvetica,sans-Serif" font-size="10.00">utility</text>
</a>
</g>
</g>
<!-- Node24&#45;&gt;Node25 -->
<g id="edge39" class="edge">
<title>Node24&#45;&gt;Node25</title>
<path fill="none" stroke="midnightblue" d="M651.14,-112.44C629.58,-103.56 595.63,-89.56 571.1,-79.45"/>
<polygon fill="midnightblue" stroke="midnightblue" points="572.13,-76.09 561.55,-75.52 569.46,-82.56 572.13,-76.09"/>
</g>
<!-- Node26 -->
<g id="node26" class="node">
<title>Node26</title>
<g id="a_node26"><a xlink:title=" ">
<polygon fill="white" stroke="#bfbfbf" points="581.39,-56.5 581.39,-75.5 712.39,-75.5 712.39,-56.5 581.39,-56.5"/>
<text text-anchor="middle" x="646.89" y="-63.5" font-family="Helvetica,sans-Serif" font-size="10.00">AMReX_PhysBCFunct.H</text>
</a>
</g>
</g>
<!-- Node24&#45;&gt;Node26 -->
<g id="edge44" class="edge">
<title>Node24&#45;&gt;Node26</title>
<path fill="none" stroke="midnightblue" d="M667.76,-112.08C664.38,-104.77 659.48,-94.18 655.27,-85.1"/>
<polygon fill="midnightblue" stroke="midnightblue" points="658.32,-83.36 650.94,-75.75 651.97,-86.3 658.32,-83.36"/>
</g>
<!-- Node29 -->
<g id="node29" class="node">
<title>Node29</title>
<g id="a_node29"><a xlink:title=" ">
<polygon fill="white" stroke="#bfbfbf" points="2033.89,-168.5 2033.89,-187.5 2125.89,-187.5 2125.89,-168.5 2033.89,-168.5"/>
<text text-anchor="middle" x="2079.89" y="-175.5" font-family="Helvetica,sans-Serif" font-size="10.00">AMReX_REAL.H</text>
</a>
</g>
</g>
<!-- Node28&#45;&gt;Node29 -->
<g id="edge50" class="edge">
<title>Node28&#45;&gt;Node29</title>
<path fill="none" stroke="midnightblue" d="M1971.09,-229.98C1992.4,-219.99 2027.92,-203.35 2052.56,-191.81"/>
<polygon fill="midnightblue" stroke="midnightblue" points="2054.16,-194.92 2061.73,-187.51 2051.19,-188.58 2054.16,-194.92"/>
</g>
<!-- Node30 -->
<g id="node30" class="node">
<title>Node30</title>
<g id="a_node30"><a xlink:title=" ">
<polygon fill="white" stroke="#bfbfbf" points="1881.89,-168.5 1881.89,-187.5 2015.89,-187.5 2015.89,-168.5 1881.89,-168.5"/>
<text text-anchor="middle" x="1948.89" y="-175.5" font-family="Helvetica,sans-Serif" font-size="10.00">AMReX_GpuQualifiers.H</text>
</a>
</g>
</g>
<!-- Node28&#45;&gt;Node30 -->
<g id="edge51" class="edge">
<title>Node28&#45;&gt;Node30</title>
<path fill="none" stroke="midnightblue" d="M1952.32,-229.98C1951.76,-221.58 1950.87,-208.48 1950.15,-197.66"/>
<polygon fill="midnightblue" stroke="midnightblue" points="1953.63,-197.25 1949.46,-187.51 1946.64,-197.72 1953.63,-197.25"/>
</g>
<!-- Node31 -->
<g id="node31" class="node">
<title>Node31</title>
<g id="a_node31"><a xlink:title=" ">
<polygon fill="white" stroke="#bfbfbf" points="1747.89,-168.5 1747.89,-187.5 1863.89,-187.5 1863.89,-168.5 1747.89,-168.5"/>
<text text-anchor="middle" x="1805.89" y="-175.5" font-family="Helvetica,sans-Serif" font-size="10.00">AMReX_Extension.H</text>
</a>
</g>
</g>
<!-- Node28&#45;&gt;Node31 -->
<g id="edge52" class="edge">
<title>Node28&#45;&gt;Node31</title>
<path fill="none" stroke="midnightblue" d="M1931.83,-229.98C1906.83,-219.86 1864.95,-202.9 1836.41,-191.35"/>
<polygon fill="midnightblue" stroke="midnightblue" points="1837.5,-188.02 1826.92,-187.51 1834.87,-194.51 1837.5,-188.02"/>
</g>
<!-- Node32&#45;&gt;Node18 -->
<g id="edge56" class="edge">
<title>Node32&#45;&gt;Node18</title>
<path fill="none" stroke="midnightblue" d="M2152.51,-224.35C2169.74,-216.31 2188.44,-204.5 2199.89,-188 2221.37,-157.06 2222.72,-111.1 2221.5,-85.65"/>
<polygon fill="midnightblue" stroke="midnightblue" points="2224.98,-85.28 2220.82,-75.53 2217.99,-85.74 2224.98,-85.28"/>
</g>
<!-- Node32&#45;&gt;Node29 -->
<g id="edge55" class="edge">
<title>Node32&#45;&gt;Node29</title>
<path fill="none" stroke="midnightblue" d="M2104.31,-224.4C2099.85,-216.11 2094.17,-205.55 2089.42,-196.71"/>
<polygon fill="midnightblue" stroke="midnightblue" points="2092.37,-194.81 2084.55,-187.66 2086.2,-198.12 2092.37,-194.81"/>
</g>
<!-- Node33 -->
<g id="node33" class="node">
<title>Node33</title>
<g id="a_node33"><a xlink:title=" ">
<polygon fill="white" stroke="#bfbfbf" points="2144.39,-168.5 2144.39,-187.5 2191.39,-187.5 2191.39,-168.5 2144.39,-168.5"/>
<text text-anchor="middle" x="2167.89" y="-175.5" font-family="Helvetica,sans-Serif" font-size="10.00">cmath</text>
</a>
</g>
</g>
<!-- Node32&#45;&gt;Node33 -->
<g id="edge54" class="edge">
<title>Node32&#45;&gt;Node33</title>
<path fill="none" stroke="midnightblue" d="M2125.16,-224.4C2133.47,-215.58 2144.19,-204.18 2152.82,-195.02"/>
<polygon fill="midnightblue" stroke="midnightblue" points="2155.44,-197.34 2159.74,-187.66 2150.34,-192.54 2155.44,-197.34"/>
</g>
<!-- Node34&#45;&gt;Node18 -->
<g id="edge58" class="edge">
<title>Node34&#45;&gt;Node18</title>
<path fill="none" stroke="midnightblue" d="M2251.48,-224.33C2248.97,-200.8 2243.12,-152.26 2233.89,-112 2231.83,-103.02 2228.88,-93.23 2226.21,-85.08"/>
<polygon fill="midnightblue" stroke="midnightblue" points="2229.49,-83.87 2222.97,-75.52 2222.86,-86.11 2229.49,-83.87"/>
</g>
</g>
</svg>
