<?xml version="1.0" encoding="UTF-8" standalone="no"?>
<!DOCTYPE svg PUBLIC "-//W3C//DTD SVG 1.1//EN"
 "http://www.w3.org/Graphics/SVG/1.1/DTD/svg11.dtd">
<!-- Generated by graphviz version 2.43.0 (0)
 -->
<!-- Title: ActParser.H Pages: 1 -->
<!--zoomable 308 -->
<svg id="main" version="1.1" xmlns="http://www.w3.org/2000/svg" xmlns:xlink="http://www.w3.org/1999/xlink" xml:space="preserve" onload="init(evt)">
<style type="text/css"><![CDATA[
.edge:hover path { stroke: red; }
.edge:hover polygon { stroke: red; fill: red; }
]]></style>
<script type="text/javascript"><![CDATA[
var edges = document.getElementsByTagName('g');
if (edges && edges.length) {
  for (var i=0;i<edges.length;i++) {
    if (edges[i].id.substr(0,4)=='edge') {
      edges[i].setAttribute('class','edge');
    }
  }
}
]]></script>
        <defs>
                <circle id="rim" cx="0" cy="0" r="7"/>
                <circle id="rim2" cx="0" cy="0" r="3.5"/>
                <g id="zoomPlus">
                        <use xlink:href="#rim" fill="#404040">
                                <set attributeName="fill" to="#808080" begin="zoomplus.mouseover" end="zoomplus.mouseout"/>
                        </use>
                        <path d="M-4,0h8M0,-4v8" fill="none" stroke="white" stroke-width="1.5" pointer-events="none"/>
                </g>
                <g id="zoomMin">
                        <use xlink:href="#rim" fill="#404040">
                                <set attributeName="fill" to="#808080" begin="zoomminus.mouseover" end="zoomminus.mouseout"/>
                        </use>
                        <path d="M-4,0h8" fill="none" stroke="white" stroke-width="1.5" pointer-events="none"/>
                </g>
                <g id="dirArrow">
                        <path fill="none" stroke="white" stroke-width="1.5" d="M0,-3.0v7 M-2.5,-0.5L0,-3.0L2.5,-0.5"/>
                </g>
               <g id="resetDef">
                       <use xlink:href="#rim2" fill="#404040">
                               <set attributeName="fill" to="#808080" begin="reset.mouseover" end="reset.mouseout"/>
                       </use>
               </g>
        </defs>

<script type="text/javascript">
var viewWidth = 1167;
var viewHeight = 308;
var sectionId = 'dynsection-1';
</script>
<script xlink:href="svgpan.js"/>
<svg id="graph" class="graph">
<g id="viewport">
<title>ActParser.H</title>
<polygon fill="white" stroke="transparent" points="-4,4 -4,-304 1163,-304 1163,4 -4,4"/>
<!-- Node1 -->
<g id="node1" class="node">
<title>Node1</title>
<g id="a_node1"><a xlink:title=" ">
<polygon fill="#bfbfbf" stroke="black" points="533,-280.5 533,-299.5 605,-299.5 605,-280.5 533,-280.5"/>
<text text-anchor="middle" x="569" y="-287.5" font-family="Helvetica,sans-Serif" font-size="10.00">ActParser.H</text>
</a>
</g>
</g>
<!-- Node2 -->
<g id="node2" class="node">
<title>Node2</title>
<g id="a_node2"><a xlink:href="actuator__ops_8_h.html" target="_top" xlink:title=" ">
<polygon fill="white" stroke="black" points="381,-168.5 381,-187.5 471,-187.5 471,-168.5 381,-168.5"/>
<text text-anchor="middle" x="426" y="-175.5" font-family="Helvetica,sans-Serif" font-size="10.00">actuator_ops.H</text>
</a>
</g>
</g>
<!-- Node1&#45;&gt;Node2 -->
<g id="edge1" class="edge">
<title>Node1&#45;&gt;Node2</title>
<path fill="none" stroke="midnightblue" d="M539.15,-276.1C522.39,-268.12 501.57,-256.93 485,-244 463.14,-226.93 442.54,-201.28 432.46,-187.88"/>
<polygon fill="midnightblue" stroke="midnightblue" points="537.94,-279.39 548.49,-280.42 540.88,-273.04 537.94,-279.39"/>
</g>
<!-- Node4 -->
<g id="node4" class="node">
<title>Node4</title>
<g id="a_node4"><a xlink:href="_actuator_model_8_h.html" target="_top" xlink:title=" ">
<polygon fill="white" stroke="black" points="244,-56.5 244,-75.5 342,-75.5 342,-56.5 244,-56.5"/>
<text text-anchor="middle" x="293" y="-63.5" font-family="Helvetica,sans-Serif" font-size="10.00">ActuatorModel.H</text>
</a>
</g>
</g>
<!-- Node1&#45;&gt;Node4 -->
<g id="edge33" class="edge">
<title>Node1&#45;&gt;Node4</title>
<path fill="none" stroke="midnightblue" d="M523.07,-281.92C408.38,-263.19 114.55,-208.53 58,-132 52.72,-124.85 52.34,-118.85 58,-112 81.13,-84.03 182.18,-73.27 244,-69.27"/>
<polygon fill="midnightblue" stroke="midnightblue" points="522.53,-285.37 532.96,-283.51 523.64,-278.46 522.53,-285.37"/>
</g>
<!-- Node5 -->
<g id="node5" class="node">
<title>Node5</title>
<g id="a_node5"><a xlink:href="_actuator_8cpp.html" target="_top" xlink:title=" ">
<polygon fill="white" stroke="black" points="110.5,-0.5 110.5,-19.5 187.5,-19.5 187.5,-0.5 110.5,-0.5"/>
<text text-anchor="middle" x="149" y="-7.5" font-family="Helvetica,sans-Serif" font-size="10.00">Actuator.cpp</text>
</a>
</g>
</g>
<!-- Node1&#45;&gt;Node5 -->
<g id="edge34" class="edge">
<title>Node1&#45;&gt;Node5</title>
<path fill="none" stroke="midnightblue" d="M522.91,-289.83C387.45,-291.06 0,-285.27 0,-179 0,-179 0,-179 0,-121 0,-63.93 71.63,-33.12 115.56,-19.59"/>
<polygon fill="midnightblue" stroke="midnightblue" points="523.01,-293.33 532.97,-289.73 522.94,-286.33 523.01,-293.33"/>
</g>
<!-- Node14 -->
<g id="node14" class="node">
<title>Node14</title>
<g id="a_node14"><a xlink:href="uniform__ct__ops_8cpp.html" target="_top" xlink:title=" ">
<polygon fill="white" stroke="black" points="1047,-0.5 1047,-19.5 1159,-19.5 1159,-0.5 1047,-0.5"/>
<text text-anchor="middle" x="1103" y="-7.5" font-family="Helvetica,sans-Serif" font-size="10.00">uniform_ct_ops.cpp</text>
</a>
</g>
</g>
<!-- Node1&#45;&gt;Node14 -->
<g id="edge35" class="edge">
<title>Node1&#45;&gt;Node14</title>
<path fill="none" stroke="midnightblue" d="M615.23,-289.51C747.5,-289.73 1118,-281.22 1118,-179 1118,-179 1118,-179 1118,-121 1118,-82.84 1109.03,-37.91 1104.96,-19.5"/>
<polygon fill="midnightblue" stroke="midnightblue" points="615.03,-286.01 605.02,-289.47 615.01,-293.01 615.03,-286.01"/>
</g>
<!-- Node20 -->
<g id="node20" class="node">
<title>Node20</title>
<g id="a_node20"><a xlink:href="wing__ops_8_h.html" target="_top" xlink:title=" ">
<polygon fill="white" stroke="black" points="554.5,-112.5 554.5,-131.5 627.5,-131.5 627.5,-112.5 554.5,-112.5"/>
<text text-anchor="middle" x="591" y="-119.5" font-family="Helvetica,sans-Serif" font-size="10.00">wing_ops.H</text>
</a>
</g>
</g>
<!-- Node1&#45;&gt;Node20 -->
<g id="edge45" class="edge">
<title>Node1&#45;&gt;Node20</title>
<path fill="none" stroke="midnightblue" d="M553.14,-273.09C531.6,-249.44 497.92,-203.97 518,-168 527.94,-150.19 548.15,-138.56 564.79,-131.59"/>
<polygon fill="midnightblue" stroke="midnightblue" points="550.74,-275.63 560.15,-280.49 555.82,-270.82 550.74,-275.63"/>
</g>
<!-- Node22 -->
<g id="node22" class="node">
<title>Node22</title>
<g id="a_node22"><a xlink:href="wing__ops_8cpp.html" target="_top" xlink:title=" ">
<polygon fill="white" stroke="black" points="592.5,-56.5 592.5,-75.5 675.5,-75.5 675.5,-56.5 592.5,-56.5"/>
<text text-anchor="middle" x="634" y="-63.5" font-family="Helvetica,sans-Serif" font-size="10.00">wing_ops.cpp</text>
</a>
</g>
</g>
<!-- Node1&#45;&gt;Node22 -->
<g id="edge46" class="edge">
<title>Node1&#45;&gt;Node22</title>
<path fill="none" stroke="midnightblue" d="M615.6,-284.82C672.28,-278.85 763.57,-266.07 789,-244 808.96,-226.68 804.49,-214.04 809,-188 815.62,-149.76 797.54,-134.62 766,-112 739.05,-92.67 703.14,-81.14 675.58,-74.6"/>
<polygon fill="midnightblue" stroke="midnightblue" points="615.03,-281.36 605.44,-285.86 615.74,-288.32 615.03,-281.36"/>
</g>
<!-- Node23 -->
<g id="node23" class="node">
<title>Node23</title>
<g id="a_node23"><a xlink:href="_f_l_l_c_8_h.html" target="_top" xlink:title=" ">
<polygon fill="white" stroke="black" points="579,-224.5 579,-243.5 629,-243.5 629,-224.5 579,-224.5"/>
<text text-anchor="middle" x="604" y="-231.5" font-family="Helvetica,sans-Serif" font-size="10.00">FLLC.H</text>
</a>
</g>
</g>
<!-- Node1&#45;&gt;Node23 -->
<g id="edge36" class="edge">
<title>Node1&#45;&gt;Node23</title>
<path fill="none" stroke="midnightblue" d="M580.3,-271.57C586.32,-262.27 593.47,-251.25 598.33,-243.75"/>
<polygon fill="midnightblue" stroke="midnightblue" points="577.28,-269.79 574.78,-280.08 583.16,-273.6 577.28,-269.79"/>
</g>
<!-- Node27 -->
<g id="node27" class="node">
<title>Node27</title>
<g id="a_node27"><a xlink:href="turbine__utils_8_h.html" target="_top" xlink:title=" ">
<polygon fill="white" stroke="black" points="692,-224.5 692,-243.5 780,-243.5 780,-224.5 692,-224.5"/>
<text text-anchor="middle" x="736" y="-231.5" font-family="Helvetica,sans-Serif" font-size="10.00">turbine_utils.H</text>
</a>
</g>
</g>
<!-- Node1&#45;&gt;Node27 -->
<g id="edge42" class="edge">
<title>Node1&#45;&gt;Node27</title>
<path fill="none" stroke="midnightblue" d="M605.17,-277.3C636.64,-267.13 681.49,-252.62 709.66,-243.52"/>
<polygon fill="midnightblue" stroke="midnightblue" points="603.9,-274.04 595.46,-280.44 606.05,-280.7 603.9,-274.04"/>
</g>
<!-- Node3 -->
<g id="node3" class="node">
<title>Node3</title>
<g id="a_node3"><a xlink:href="_act_src_line_op_8_h.html" target="_top" xlink:title=" ">
<polygon fill="white" stroke="black" points="178,-112.5 178,-131.5 270,-131.5 270,-112.5 178,-112.5"/>
<text text-anchor="middle" x="224" y="-119.5" font-family="Helvetica,sans-Serif" font-size="10.00">ActSrcLineOp.H</text>
</a>
</g>
</g>
<!-- Node2&#45;&gt;Node3 -->
<g id="edge2" class="edge">
<title>Node2&#45;&gt;Node3</title>
<path fill="none" stroke="midnightblue" d="M384.21,-165.83C346.07,-155.63 290.52,-140.78 255.86,-131.52"/>
<polygon fill="midnightblue" stroke="midnightblue" points="383.43,-169.24 393.99,-168.44 385.24,-162.48 383.43,-169.24"/>
</g>
<!-- Node2&#45;&gt;Node4 -->
<g id="edge9" class="edge">
<title>Node2&#45;&gt;Node4</title>
<path fill="none" stroke="midnightblue" d="M374.6,-165.37C354.42,-158.56 332.44,-148.03 317,-132 301.65,-116.06 295.97,-89.45 293.98,-75.75"/>
<polygon fill="midnightblue" stroke="midnightblue" points="373.74,-168.77 384.33,-168.43 375.84,-162.09 373.74,-168.77"/>
</g>
<!-- Node10 -->
<g id="node10" class="node">
<title>Node10</title>
<g id="a_node10"><a xlink:href="_act_src_disk_op___turbine_8_h.html" target="_top" xlink:title=" ">
<polygon fill="white" stroke="black" points="326,-112.5 326,-131.5 460,-131.5 460,-112.5 326,-112.5"/>
<text text-anchor="middle" x="393" y="-119.5" font-family="Helvetica,sans-Serif" font-size="10.00">ActSrcDiskOp_Turbine.H</text>
</a>
</g>
</g>
<!-- Node2&#45;&gt;Node10 -->
<g id="edge10" class="edge">
<title>Node2&#45;&gt;Node10</title>
<path fill="none" stroke="midnightblue" d="M415.17,-159.27C409.53,-150.05 402.88,-139.17 398.35,-131.75"/>
<polygon fill="midnightblue" stroke="midnightblue" points="412.35,-161.38 420.55,-168.08 418.32,-157.73 412.35,-161.38"/>
</g>
<!-- Node11 -->
<g id="node11" class="node">
<title>Node11</title>
<g id="a_node11"><a xlink:href="_act_src_disk_op_8_h.html" target="_top" xlink:title=" ">
<polygon fill="white" stroke="black" points="66.5,-112.5 66.5,-131.5 159.5,-131.5 159.5,-112.5 66.5,-112.5"/>
<text text-anchor="middle" x="113" y="-119.5" font-family="Helvetica,sans-Serif" font-size="10.00">ActSrcDiskOp.H</text>
</a>
</g>
</g>
<!-- Node2&#45;&gt;Node11 -->
<g id="edge12" class="edge">
<title>Node2&#45;&gt;Node11</title>
<path fill="none" stroke="midnightblue" d="M370.78,-167.47C310.82,-157.13 216.09,-140.79 159.7,-131.06"/>
<polygon fill="midnightblue" stroke="midnightblue" points="370.37,-170.95 380.82,-169.21 371.56,-164.06 370.37,-170.95"/>
</g>
<!-- Node12 -->
<g id="node12" class="node">
<title>Node12</title>
<g id="a_node12"><a xlink:href="disk__ops_8_h.html" target="_top" xlink:title=" ">
<polygon fill="white" stroke="black" points="879,-112.5 879,-131.5 949,-131.5 949,-112.5 879,-112.5"/>
<text text-anchor="middle" x="914" y="-119.5" font-family="Helvetica,sans-Serif" font-size="10.00">disk_ops.H</text>
</a>
</g>
</g>
<!-- Node2&#45;&gt;Node12 -->
<g id="edge14" class="edge">
<title>Node2&#45;&gt;Node12</title>
<path fill="none" stroke="midnightblue" d="M481.05,-170.91C582.18,-159.72 794.86,-136.18 878.83,-126.89"/>
<polygon fill="midnightblue" stroke="midnightblue" points="480.59,-167.44 471.04,-172.02 481.36,-174.4 480.59,-167.44"/>
</g>
<!-- Node18 -->
<g id="node18" class="node">
<title>Node18</title>
<g id="a_node18"><a xlink:href="turbine__fast__ops_8_h.html" target="_top" xlink:title=" ">
<polygon fill="white" stroke="black" points="649,-112.5 649,-131.5 757,-131.5 757,-112.5 649,-112.5"/>
<text text-anchor="middle" x="703" y="-119.5" font-family="Helvetica,sans-Serif" font-size="10.00">turbine_fast_ops.H</text>
</a>
</g>
</g>
<!-- Node2&#45;&gt;Node18 -->
<g id="edge23" class="edge">
<title>Node2&#45;&gt;Node18</title>
<path fill="none" stroke="midnightblue" d="M480,-166.47C532.35,-156.27 610.77,-140.98 659.31,-131.52"/>
<polygon fill="midnightblue" stroke="midnightblue" points="479.04,-163.09 469.89,-168.44 480.38,-169.97 479.04,-163.09"/>
</g>
<!-- Node19 -->
<g id="node19" class="node">
<title>Node19</title>
<g id="a_node19"><a xlink:href="fixed__wing__ops_8_h.html" target="_top" xlink:title=" ">
<polygon fill="white" stroke="black" points="473.5,-56.5 473.5,-75.5 574.5,-75.5 574.5,-56.5 473.5,-56.5"/>
<text text-anchor="middle" x="524" y="-63.5" font-family="Helvetica,sans-Serif" font-size="10.00">fixed_wing_ops.H</text>
</a>
</g>
</g>
<!-- Node2&#45;&gt;Node19 -->
<g id="edge25" class="edge">
<title>Node2&#45;&gt;Node19</title>
<path fill="none" stroke="midnightblue" d="M448.3,-162.57C459.8,-154.46 473.55,-143.64 484,-132 500.11,-114.05 513.53,-88.77 519.94,-75.65"/>
<polygon fill="midnightblue" stroke="midnightblue" points="446.32,-159.69 440.04,-168.22 450.27,-165.46 446.32,-159.69"/>
</g>
<!-- Node2&#45;&gt;Node20 -->
<g id="edge27" class="edge">
<title>Node2&#45;&gt;Node20</title>
<path fill="none" stroke="midnightblue" d="M461.74,-165.3C492.83,-155.13 537.15,-140.62 564.98,-131.52"/>
<polygon fill="midnightblue" stroke="midnightblue" points="460.56,-162.01 452.14,-168.44 462.74,-168.66 460.56,-162.01"/>
</g>
<!-- Node21 -->
<g id="node21" class="node">
<title>Node21</title>
<g id="a_node21"><a xlink:href="flat__plate__ops_8_h.html" target="_top" xlink:title=" ">
<polygon fill="white" stroke="black" points="360.5,-56.5 360.5,-75.5 455.5,-75.5 455.5,-56.5 360.5,-56.5"/>
<text text-anchor="middle" x="408" y="-63.5" font-family="Helvetica,sans-Serif" font-size="10.00">flat_plate_ops.H</text>
</a>
</g>
</g>
<!-- Node2&#45;&gt;Node21 -->
<g id="edge32" class="edge">
<title>Node2&#45;&gt;Node21</title>
<path fill="none" stroke="midnightblue" d="M446.92,-161.95C461.96,-149.15 478.11,-130.04 469,-112 460.46,-95.08 442.22,-82.96 427.91,-75.59"/>
<polygon fill="midnightblue" stroke="midnightblue" points="444.5,-159.4 438.84,-168.36 448.85,-164.88 444.5,-159.4"/>
</g>
<!-- Node3&#45;&gt;Node4 -->
<g id="edge3" class="edge">
<title>Node3&#45;&gt;Node4</title>
<path fill="none" stroke="midnightblue" d="M243.04,-106.1C255.46,-96.38 271.24,-84.03 281.71,-75.83"/>
<polygon fill="midnightblue" stroke="midnightblue" points="240.8,-103.4 235.09,-112.32 245.12,-108.92 240.8,-103.4"/>
</g>
<!-- Node4&#45;&gt;Node5 -->
<g id="edge4" class="edge">
<title>Node4&#45;&gt;Node5</title>
<path fill="none" stroke="midnightblue" d="M260.75,-52.91C233.68,-42.75 195.68,-28.51 171.71,-19.52"/>
<polygon fill="midnightblue" stroke="midnightblue" points="259.59,-56.21 270.18,-56.44 262.05,-49.66 259.59,-56.21"/>
</g>
<!-- Node6 -->
<g id="node6" class="node">
<title>Node6</title>
<g id="a_node6"><a xlink:href="_actuator_disk_8cpp.html" target="_top" xlink:title=" ">
<polygon fill="white" stroke="black" points="787,-0.5 787,-19.5 887,-19.5 887,-0.5 787,-0.5"/>
<text text-anchor="middle" x="837" y="-7.5" font-family="Helvetica,sans-Serif" font-size="10.00">ActuatorDisk.cpp</text>
</a>
</g>
</g>
<!-- Node4&#45;&gt;Node6 -->
<g id="edge5" class="edge">
<title>Node4&#45;&gt;Node6</title>
<path fill="none" stroke="midnightblue" d="M352.6,-56C518.12,-35.96 700.7,-21.2 786.98,-14.66"/>
<polygon fill="midnightblue" stroke="midnightblue" points="351.73,-52.58 342.23,-57.27 352.58,-59.53 351.73,-52.58"/>
</g>
<!-- Node7 -->
<g id="node7" class="node">
<title>Node7</title>
<g id="a_node7"><a xlink:href="_turbine_fast_8cpp.html" target="_top" xlink:title=" ">
<polygon fill="white" stroke="black" points="605,-0.5 605,-19.5 697,-19.5 697,-0.5 605,-0.5"/>
<text text-anchor="middle" x="651" y="-7.5" font-family="Helvetica,sans-Serif" font-size="10.00">TurbineFast.cpp</text>
</a>
</g>
</g>
<!-- Node4&#45;&gt;Node7 -->
<g id="edge6" class="edge">
<title>Node4&#45;&gt;Node7</title>
<path fill="none" stroke="midnightblue" d="M352.16,-55.98C448.43,-41.4 548.11,-26.43 604.9,-17.91"/>
<polygon fill="midnightblue" stroke="midnightblue" points="351.62,-52.52 342.25,-57.48 352.67,-59.44 351.62,-52.52"/>
</g>
<!-- Node8 -->
<g id="node8" class="node">
<title>Node8</title>
<g id="a_node8"><a xlink:href="_fixed_wing_8cpp.html" target="_top" xlink:title=" ">
<polygon fill="white" stroke="black" points="445.5,-0.5 445.5,-19.5 532.5,-19.5 532.5,-0.5 445.5,-0.5"/>
<text text-anchor="middle" x="489" y="-7.5" font-family="Helvetica,sans-Serif" font-size="10.00">FixedWing.cpp</text>
</a>
</g>
</g>
<!-- Node4&#45;&gt;Node8 -->
<g id="edge7" class="edge">
<title>Node4&#45;&gt;Node8</title>
<path fill="none" stroke="midnightblue" d="M334.02,-53.7C371.01,-43.51 424.6,-28.74 458.09,-19.52"/>
<polygon fill="midnightblue" stroke="midnightblue" points="332.77,-50.41 324.06,-56.44 334.63,-57.16 332.77,-50.41"/>
</g>
<!-- Node9 -->
<g id="node9" class="node">
<title>Node9</title>
<g id="a_node9"><a xlink:href="_flat_plate_8cpp.html" target="_top" xlink:title=" ">
<polygon fill="white" stroke="black" points="311,-0.5 311,-19.5 391,-19.5 391,-0.5 311,-0.5"/>
<text text-anchor="middle" x="351" y="-7.5" font-family="Helvetica,sans-Serif" font-size="10.00">FlatPlate.cpp</text>
</a>
</g>
</g>
<!-- Node4&#45;&gt;Node9 -->
<g id="edge8" class="edge">
<title>Node4&#45;&gt;Node9</title>
<path fill="none" stroke="midnightblue" d="M309.91,-49.25C320.2,-39.67 332.97,-27.79 341.51,-19.83"/>
<polygon fill="midnightblue" stroke="midnightblue" points="307.25,-46.95 302.32,-56.32 312.02,-52.07 307.25,-46.95"/>
</g>
<!-- Node10&#45;&gt;Node4 -->
<g id="edge11" class="edge">
<title>Node10&#45;&gt;Node4</title>
<path fill="none" stroke="midnightblue" d="M367.91,-107.45C349.45,-97.48 324.9,-84.23 309.03,-75.65"/>
<polygon fill="midnightblue" stroke="midnightblue" points="366.47,-110.65 376.93,-112.32 369.8,-104.49 366.47,-110.65"/>
</g>
<!-- Node11&#45;&gt;Node4 -->
<g id="edge13" class="edge">
<title>Node11&#45;&gt;Node4</title>
<path fill="none" stroke="midnightblue" d="M151.11,-109.57C185.06,-99.38 233.99,-84.7 264.61,-75.52"/>
<polygon fill="midnightblue" stroke="midnightblue" points="150.09,-106.22 141.52,-112.44 152.11,-112.92 150.09,-106.22"/>
</g>
<!-- Node13 -->
<g id="node13" class="node">
<title>Node13</title>
<g id="a_node13"><a xlink:href="uniform__ct__ops_8_h.html" target="_top" xlink:title=" ">
<polygon fill="white" stroke="black" points="988,-56.5 988,-75.5 1090,-75.5 1090,-56.5 988,-56.5"/>
<text text-anchor="middle" x="1039" y="-63.5" font-family="Helvetica,sans-Serif" font-size="10.00">uniform_ct_ops.H</text>
</a>
</g>
</g>
<!-- Node12&#45;&gt;Node13 -->
<g id="edge15" class="edge">
<title>Node12&#45;&gt;Node13</title>
<path fill="none" stroke="midnightblue" d="M943.24,-108.37C966.65,-98.26 998.84,-84.35 1019.29,-75.52"/>
<polygon fill="midnightblue" stroke="midnightblue" points="941.6,-105.26 933.81,-112.44 944.37,-111.69 941.6,-105.26"/>
</g>
<!-- Node15 -->
<g id="node15" class="node">
<title>Node15</title>
<g id="a_node15"><a xlink:href="_joukowsky__ops_8_h.html" target="_top" xlink:title=" ">
<polygon fill="white" stroke="black" points="830.5,-56.5 830.5,-75.5 931.5,-75.5 931.5,-56.5 830.5,-56.5"/>
<text text-anchor="middle" x="881" y="-63.5" font-family="Helvetica,sans-Serif" font-size="10.00">Joukowsky_ops.H</text>
</a>
</g>
</g>
<!-- Node12&#45;&gt;Node15 -->
<g id="edge18" class="edge">
<title>Node12&#45;&gt;Node15</title>
<path fill="none" stroke="midnightblue" d="M903.17,-103.27C897.53,-94.05 890.88,-83.17 886.35,-75.75"/>
<polygon fill="midnightblue" stroke="midnightblue" points="900.35,-105.38 908.55,-112.08 906.32,-101.73 900.35,-105.38"/>
</g>
<!-- Node16 -->
<g id="node16" class="node">
<title>Node16</title>
<g id="a_node16"><a xlink:href="_joukowsky__ops_8cpp.html" target="_top" xlink:title=" ">
<polygon fill="white" stroke="black" points="905,-0.5 905,-19.5 1015,-19.5 1015,-0.5 905,-0.5"/>
<text text-anchor="middle" x="960" y="-7.5" font-family="Helvetica,sans-Serif" font-size="10.00">Joukowsky_ops.cpp</text>
</a>
</g>
</g>
<!-- Node12&#45;&gt;Node16 -->
<g id="edge22" class="edge">
<title>Node12&#45;&gt;Node16</title>
<path fill="none" stroke="midnightblue" d="M925.73,-103.82C930.93,-95.65 936.8,-85.6 941,-76 949.48,-56.61 955.43,-32.35 958.21,-19.66"/>
<polygon fill="midnightblue" stroke="midnightblue" points="922.66,-102.12 920.08,-112.4 928.5,-105.97 922.66,-102.12"/>
</g>
<!-- Node17 -->
<g id="node17" class="node">
<title>Node17</title>
<g id="a_node17"><a xlink:href="disk__ops_8cpp.html" target="_top" xlink:title=" ">
<polygon fill="white" stroke="black" points="732,-56.5 732,-75.5 812,-75.5 812,-56.5 732,-56.5"/>
<text text-anchor="middle" x="772" y="-63.5" font-family="Helvetica,sans-Serif" font-size="10.00">disk_ops.cpp</text>
</a>
</g>
</g>
<!-- Node12&#45;&gt;Node17 -->
<g id="edge21" class="edge">
<title>Node12&#45;&gt;Node17</title>
<path fill="none" stroke="midnightblue" d="M881.84,-108.77C855.17,-98.63 817.93,-84.47 794.4,-75.52"/>
<polygon fill="midnightblue" stroke="midnightblue" points="880.91,-112.16 891.5,-112.44 883.4,-105.62 880.91,-112.16"/>
</g>
<!-- Node13&#45;&gt;Node6 -->
<g id="edge16" class="edge">
<title>Node13&#45;&gt;Node6</title>
<path fill="none" stroke="midnightblue" d="M997.21,-53.83C959.07,-43.63 903.52,-28.78 868.86,-19.52"/>
<polygon fill="midnightblue" stroke="midnightblue" points="996.43,-57.24 1006.99,-56.44 998.24,-50.48 996.43,-57.24"/>
</g>
<!-- Node13&#45;&gt;Node14 -->
<g id="edge17" class="edge">
<title>Node13&#45;&gt;Node14</title>
<path fill="none" stroke="midnightblue" d="M1056.99,-49.82C1068.46,-40.15 1082.91,-27.95 1092.53,-19.83"/>
<polygon fill="midnightblue" stroke="midnightblue" points="1054.67,-47.2 1049.28,-56.32 1059.18,-52.55 1054.67,-47.2"/>
</g>
<!-- Node15&#45;&gt;Node6 -->
<g id="edge19" class="edge">
<title>Node15&#45;&gt;Node6</title>
<path fill="none" stroke="midnightblue" d="M867.27,-48.14C859.6,-38.74 850.37,-27.4 844.13,-19.75"/>
<polygon fill="midnightblue" stroke="midnightblue" points="864.7,-50.54 873.73,-56.08 870.13,-46.12 864.7,-50.54"/>
</g>
<!-- Node15&#45;&gt;Node16 -->
<g id="edge20" class="edge">
<title>Node15&#45;&gt;Node16</title>
<path fill="none" stroke="midnightblue" d="M902.03,-50.62C916.47,-40.76 935.14,-27.99 947.34,-19.65"/>
<polygon fill="midnightblue" stroke="midnightblue" points="899.97,-47.79 893.69,-56.32 903.92,-53.57 899.97,-47.79"/>
</g>
<!-- Node18&#45;&gt;Node7 -->
<g id="edge24" class="edge">
<title>Node18&#45;&gt;Node7</title>
<path fill="none" stroke="midnightblue" d="M699.77,-102.29C697,-88.92 692.29,-70.76 685,-56 678.15,-42.13 666.81,-28.24 659.12,-19.64"/>
<polygon fill="midnightblue" stroke="midnightblue" points="696.35,-103.04 701.65,-112.21 703.23,-101.74 696.35,-103.04"/>
</g>
<!-- Node19&#45;&gt;Node8 -->
<g id="edge26" class="edge">
<title>Node19&#45;&gt;Node8</title>
<path fill="none" stroke="midnightblue" d="M512.7,-47.57C506.68,-38.27 499.53,-27.25 494.67,-19.75"/>
<polygon fill="midnightblue" stroke="midnightblue" points="509.84,-49.6 518.22,-56.08 515.72,-45.79 509.84,-49.6"/>
</g>
<!-- Node20&#45;&gt;Node19 -->
<g id="edge28" class="edge">
<title>Node20&#45;&gt;Node19</title>
<path fill="none" stroke="midnightblue" d="M572.17,-105.82C560.16,-96.15 545.03,-83.95 534.96,-75.83"/>
<polygon fill="midnightblue" stroke="midnightblue" points="570.25,-108.77 580.24,-112.32 574.65,-103.32 570.25,-108.77"/>
</g>
<!-- Node20&#45;&gt;Node21 -->
<g id="edge29" class="edge">
<title>Node20&#45;&gt;Node21</title>
<path fill="none" stroke="midnightblue" d="M552.26,-109.57C517.74,-99.38 467.99,-84.7 436.86,-75.52"/>
<polygon fill="midnightblue" stroke="midnightblue" points="551.42,-112.97 562,-112.44 553.4,-106.26 551.42,-112.97"/>
</g>
<!-- Node20&#45;&gt;Node22 -->
<g id="edge31" class="edge">
<title>Node20&#45;&gt;Node22</title>
<path fill="none" stroke="midnightblue" d="M604.42,-104.14C611.91,-94.74 620.94,-83.4 627.03,-75.75"/>
<polygon fill="midnightblue" stroke="midnightblue" points="601.59,-102.08 598.1,-112.08 607.07,-106.44 601.59,-102.08"/>
</g>
<!-- Node21&#45;&gt;Node9 -->
<g id="edge30" class="edge">
<title>Node21&#45;&gt;Node9</title>
<path fill="none" stroke="midnightblue" d="M391.38,-49.25C381.27,-39.67 368.72,-27.79 360.32,-19.83"/>
<polygon fill="midnightblue" stroke="midnightblue" points="389.18,-51.99 398.84,-56.32 393.99,-46.91 389.18,-51.99"/>
</g>
<!-- Node24 -->
<g id="node24" class="node">
<title>Node24</title>
<g id="a_node24"><a xlink:href="_f_l_l_c_8cpp.html" target="_top" xlink:title=" ">
<polygon fill="white" stroke="black" points="609,-168.5 609,-187.5 669,-187.5 669,-168.5 609,-168.5"/>
<text text-anchor="middle" x="639" y="-175.5" font-family="Helvetica,sans-Serif" font-size="10.00">FLLC.cpp</text>
</a>
</g>
</g>
<!-- Node23&#45;&gt;Node24 -->
<g id="edge37" class="edge">
<title>Node23&#45;&gt;Node24</title>
<path fill="none" stroke="midnightblue" d="M615.3,-215.57C621.32,-206.27 628.47,-195.25 633.33,-187.75"/>
<polygon fill="midnightblue" stroke="midnightblue" points="612.28,-213.79 609.78,-224.08 618.16,-217.6 612.28,-213.79"/>
</g>
<!-- Node25 -->
<g id="node25" class="node">
<title>Node25</title>
<g id="a_node25"><a xlink:href="_f_l_l_c_op_8_h.html" target="_top" xlink:title=" ">
<polygon fill="white" stroke="black" points="527,-168.5 527,-187.5 591,-187.5 591,-168.5 527,-168.5"/>
<text text-anchor="middle" x="559" y="-175.5" font-family="Helvetica,sans-Serif" font-size="10.00">FLLCOp.H</text>
</a>
</g>
</g>
<!-- Node23&#45;&gt;Node25 -->
<g id="edge38" class="edge">
<title>Node23&#45;&gt;Node25</title>
<path fill="none" stroke="midnightblue" d="M589.95,-216.14C582.11,-206.74 572.67,-195.4 566.29,-187.75"/>
<polygon fill="midnightblue" stroke="midnightblue" points="587.48,-218.64 596.57,-224.08 592.86,-214.16 587.48,-218.64"/>
</g>
<!-- Node26 -->
<g id="node26" class="node">
<title>Node26</title>
<g id="a_node26"><a xlink:href="turbine__utils_8cpp.html" target="_top" xlink:title=" ">
<polygon fill="white" stroke="black" points="687,-168.5 687,-187.5 785,-187.5 785,-168.5 687,-168.5"/>
<text text-anchor="middle" x="736" y="-175.5" font-family="Helvetica,sans-Serif" font-size="10.00">turbine_utils.cpp</text>
</a>
</g>
</g>
<!-- Node23&#45;&gt;Node26 -->
<g id="edge41" class="edge">
<title>Node23&#45;&gt;Node26</title>
<path fill="none" stroke="midnightblue" d="M634.22,-220.64C658.99,-210.5 693.4,-196.43 715.18,-187.52"/>
<polygon fill="midnightblue" stroke="midnightblue" points="632.85,-217.42 624.92,-224.44 635.5,-223.9 632.85,-217.42"/>
</g>
<!-- Node25&#45;&gt;Node18 -->
<g id="edge39" class="edge">
<title>Node25&#45;&gt;Node18</title>
<path fill="none" stroke="midnightblue" d="M591.25,-164.91C618.32,-154.75 656.32,-140.51 680.29,-131.52"/>
<polygon fill="midnightblue" stroke="midnightblue" points="589.95,-161.66 581.82,-168.44 592.41,-168.21 589.95,-161.66"/>
</g>
<!-- Node25&#45;&gt;Node20 -->
<g id="edge40" class="edge">
<title>Node25&#45;&gt;Node20</title>
<path fill="none" stroke="midnightblue" d="M569.5,-159.27C574.97,-150.05 581.42,-139.17 585.81,-131.75"/>
<polygon fill="midnightblue" stroke="midnightblue" points="566.37,-157.7 564.28,-168.08 572.39,-161.26 566.37,-157.7"/>
</g>
<!-- Node27&#45;&gt;Node18 -->
<g id="edge43" class="edge">
<title>Node27&#45;&gt;Node18</title>
<path fill="none" stroke="midnightblue" d="M762.77,-219.31C783.28,-206.89 806.16,-187.59 794,-168 782.38,-149.28 760.41,-138.12 740.97,-131.59"/>
<polygon fill="midnightblue" stroke="midnightblue" points="760.89,-216.35 753.94,-224.35 764.36,-222.43 760.89,-216.35"/>
</g>
<!-- Node27&#45;&gt;Node26 -->
<g id="edge44" class="edge">
<title>Node27&#45;&gt;Node26</title>
<path fill="none" stroke="midnightblue" d="M736,-213.8C736,-204.91 736,-194.78 736,-187.75"/>
<polygon fill="midnightblue" stroke="midnightblue" points="732.5,-214.08 736,-224.08 739.5,-214.08 732.5,-214.08"/>
</g>
</g>
</svg>
        <g id="navigator" transform="translate(0 0)" fill="#404254">
                <rect fill="#f2f5e9" fill-opacity="0.5" stroke="#606060" stroke-width=".5" x="0" y="0" width="60" height="60"/>
                <use id="zoomplus" xlink:href="#zoomPlus" x="17" y="9" onmousedown="handleZoom(evt,'in')"/>
                <use id="zoomminus" xlink:href="#zoomMin" x="42" y="9" onmousedown="handleZoom(evt,'out')"/>
                <use id="reset" xlink:href="#resetDef" x="30" y="36" onmousedown="handleReset()"/>
                <g id="arrowUp" xlink:href="#dirArrow" transform="translate(30 24)" onmousedown="handlePan(0,-1)">
                  <use xlink:href="#rim" fill="#404040">
                        <set attributeName="fill" to="#808080" begin="arrowUp.mouseover" end="arrowUp.mouseout"/>
                  </use>
                  <path fill="none" stroke="white" stroke-width="1.5" d="M0,-3.0v7 M-2.5,-0.5L0,-3.0L2.5,-0.5"/>
                </g>
                <g id="arrowRight" xlink:href="#dirArrow" transform="rotate(90) translate(36 -43)" onmousedown="handlePan(1,0)">
                  <use xlink:href="#rim" fill="#404040">
                        <set attributeName="fill" to="#808080" begin="arrowRight.mouseover" end="arrowRight.mouseout"/>
                  </use>
                  <path fill="none" stroke="white" stroke-width="1.5" d="M0,-3.0v7 M-2.5,-0.5L0,-3.0L2.5,-0.5"/>
                </g>
                <g id="arrowDown" xlink:href="#dirArrow" transform="rotate(180) translate(-30 -48)" onmousedown="handlePan(0,1)">
                  <use xlink:href="#rim" fill="#404040">
                        <set attributeName="fill" to="#808080" begin="arrowDown.mouseover" end="arrowDown.mouseout"/>
                  </use>
                  <path fill="none" stroke="white" stroke-width="1.5" d="M0,-3.0v7 M-2.5,-0.5L0,-3.0L2.5,-0.5"/>
                </g>
                <g id="arrowLeft" xlink:href="#dirArrow" transform="rotate(270) translate(-36 17)" onmousedown="handlePan(-1,0)">
                  <use xlink:href="#rim" fill="#404040">
                        <set attributeName="fill" to="#808080" begin="arrowLeft.mouseover" end="arrowLeft.mouseout"/>
                  </use>
                  <path fill="none" stroke="white" stroke-width="1.5" d="M0,-3.0v7 M-2.5,-0.5L0,-3.0L2.5,-0.5"/>
                </g>
        </g>
        <svg viewBox="0 0 15 15" width="100%" height="30px" preserveAspectRatio="xMaxYMin meet">
         <g id="arrow_out" transform="scale(0.3 0.3)">
          <a xlink:href="_act_parser_8_h__dep__incl_org.svg" target="_base">
           <rect id="button" ry="5" rx="5" y="6" x="6" height="38" width="38"
                fill="#f2f5e9" fill-opacity="0.5" stroke="#606060" stroke-width="1.0"/>
           <path id="arrow"
             d="M 11.500037,31.436501 C 11.940474,20.09759 22.043105,11.32322 32.158766,21.979434 L 37.068811,17.246167 C 37.068811,17.246167 37.088388,32 37.088388,32 L 22.160133,31.978069 C 22.160133,31.978069 26.997745,27.140456 26.997745,27.140456 C 18.528582,18.264221 13.291696,25.230495 11.500037,31.436501 z"
             style="fill:#404040;"/>
          </a>
         </g>
        </svg>
</svg>
