<?xml version="1.0" encoding="UTF-8" standalone="no"?>
<!DOCTYPE svg PUBLIC "-//W3C//DTD SVG 1.1//EN"
 "http://www.w3.org/Graphics/SVG/1.1/DTD/svg11.dtd">
<!-- Generated by graphviz version 2.43.0 (0)
 -->
<!-- Title: DirectionSelector.H Pages: 1 -->
<!--zoomable 319 -->
<svg id="main" version="1.1" xmlns="http://www.w3.org/2000/svg" xmlns:xlink="http://www.w3.org/1999/xlink" xml:space="preserve" onload="init(evt)">
<style type="text/css"><![CDATA[
.edge:hover path { stroke: red; }
.edge:hover polygon { stroke: red; fill: red; }
]]></style>
<script type="text/javascript"><![CDATA[
var edges = document.getElementsByTagName('g');
if (edges && edges.length) {
  for (var i=0;i<edges.length;i++) {
    if (edges[i].id.substr(0,4)=='edge') {
      edges[i].setAttribute('class','edge');
    }
  }
}
]]></script>
        <defs>
                <circle id="rim" cx="0" cy="0" r="7"/>
                <circle id="rim2" cx="0" cy="0" r="3.5"/>
                <g id="zoomPlus">
                        <use xlink:href="#rim" fill="#404040">
                                <set attributeName="fill" to="#808080" begin="zoomplus.mouseover" end="zoomplus.mouseout"/>
                        </use>
                        <path d="M-4,0h8M0,-4v8" fill="none" stroke="white" stroke-width="1.5" pointer-events="none"/>
                </g>
                <g id="zoomMin">
                        <use xlink:href="#rim" fill="#404040">
                                <set attributeName="fill" to="#808080" begin="zoomminus.mouseover" end="zoomminus.mouseout"/>
                        </use>
                        <path d="M-4,0h8" fill="none" stroke="white" stroke-width="1.5" pointer-events="none"/>
                </g>
                <g id="dirArrow">
                        <path fill="none" stroke="white" stroke-width="1.5" d="M0,-3.0v7 M-2.5,-0.5L0,-3.0L2.5,-0.5"/>
                </g>
               <g id="resetDef">
                       <use xlink:href="#rim2" fill="#404040">
                               <set attributeName="fill" to="#808080" begin="reset.mouseover" end="reset.mouseout"/>
                       </use>
               </g>
        </defs>

<script type="text/javascript">
var viewWidth = 1199;
var viewHeight = 319;
var sectionId = 'dynsection-1';
</script>
<script xlink:href="svgpan.js"/>
<svg id="graph" class="graph">
<g id="viewport">
<title>DirectionSelector.H</title>
<polygon fill="white" stroke="transparent" points="-4,4 -4,-315 1194.5,-315 1194.5,4 -4,4"/>
<!-- Node1 -->
<g id="node1" class="node">
<title>Node1</title>
<g id="a_node1"><a xlink:title=" ">
<polygon fill="#bfbfbf" stroke="black" points="364,-291.5 364,-310.5 474,-310.5 474,-291.5 364,-291.5"/>
<text text-anchor="middle" x="419" y="-298.5" font-family="Helvetica,sans-Serif" font-size="10.00">DirectionSelector.H</text>
</a>
</g>
</g>
<!-- Node2 -->
<g id="node2" class="node">
<title>Node2</title>
<g id="a_node2"><a xlink:href="_field_plane_averaging_8_h.html" target="_top" xlink:title=" ">
<polygon fill="white" stroke="black" points="421,-235.5 421,-254.5 547,-254.5 547,-235.5 421,-235.5"/>
<text text-anchor="middle" x="484" y="-242.5" font-family="Helvetica,sans-Serif" font-size="10.00">FieldPlaneAveraging.H</text>
</a>
</g>
</g>
<!-- Node1&#45;&gt;Node2 -->
<g id="edge1" class="edge">
<title>Node1&#45;&gt;Node2</title>
<path fill="none" stroke="midnightblue" d="M437.27,-284.82C448.92,-275.15 463.6,-262.95 473.37,-254.83"/>
<polygon fill="midnightblue" stroke="midnightblue" points="434.9,-282.24 429.44,-291.32 439.37,-287.63 434.9,-282.24"/>
</g>
<!-- Node14 -->
<g id="node14" class="node">
<title>Node14</title>
<g id="a_node14"><a xlink:href="_a_b_l_stats_8cpp.html" target="_top" xlink:title=" ">
<polygon fill="white" stroke="black" points="169,-6 169,-25 249,-25 249,-6 169,-6"/>
<text text-anchor="middle" x="209" y="-13" font-family="Helvetica,sans-Serif" font-size="10.00">ABLStats.cpp</text>
</a>
</g>
</g>
<!-- Node1&#45;&gt;Node14 -->
<g id="edge37" class="edge">
<title>Node1&#45;&gt;Node14</title>
<path fill="none" stroke="midnightblue" d="M353.81,-296.37C236.06,-288.02 0,-262.26 0,-190 0,-190 0,-190 0,-132 0,-55.72 107.97,-29.42 168.7,-20.67"/>
<polygon fill="midnightblue" stroke="midnightblue" points="353.58,-299.86 363.79,-297.06 354.06,-292.88 353.58,-299.86"/>
</g>
<!-- Node18 -->
<g id="node18" class="node">
<title>Node18</title>
<g id="a_node18"><a xlink:href="_second_moment_averaging_8_h.html" target="_top" xlink:title=" ">
<polygon fill="white" stroke="black" points="266,-179.5 266,-198.5 418,-198.5 418,-179.5 266,-179.5"/>
<text text-anchor="middle" x="342" y="-186.5" font-family="Helvetica,sans-Serif" font-size="10.00">SecondMomentAveraging.H</text>
</a>
</g>
</g>
<!-- Node1&#45;&gt;Node18 -->
<g id="edge35" class="edge">
<title>Node1&#45;&gt;Node18</title>
<path fill="none" stroke="midnightblue" d="M407.07,-282.96C390.38,-259.12 360.7,-216.71 348.01,-198.59"/>
<polygon fill="midnightblue" stroke="midnightblue" points="404.36,-285.18 412.96,-291.37 410.09,-281.17 404.36,-285.18"/>
</g>
<!-- Node20 -->
<g id="node20" class="node">
<title>Node20</title>
<g id="a_node20"><a xlink:href="_third_moment_averaging_8_h.html" target="_top" xlink:title=" ">
<polygon fill="white" stroke="black" points="106.5,-179.5 106.5,-198.5 247.5,-198.5 247.5,-179.5 106.5,-179.5"/>
<text text-anchor="middle" x="177" y="-186.5" font-family="Helvetica,sans-Serif" font-size="10.00">ThirdMomentAveraging.H</text>
</a>
</g>
</g>
<!-- Node1&#45;&gt;Node20 -->
<g id="edge36" class="edge">
<title>Node1&#45;&gt;Node20</title>
<path fill="none" stroke="midnightblue" d="M390.76,-287.16C340.82,-264.47 238.23,-217.83 195.9,-198.59"/>
<polygon fill="midnightblue" stroke="midnightblue" points="389.46,-290.42 400.01,-291.37 392.36,-284.04 389.46,-290.42"/>
</g>
<!-- Node22 -->
<g id="node22" class="node">
<title>Node22</title>
<g id="a_node22"><a xlink:href="_field_plane_averaging_fine_8_h.html" target="_top" xlink:title=" ">
<polygon fill="white" stroke="black" points="603,-235.5 603,-254.5 749,-254.5 749,-235.5 603,-235.5"/>
<text text-anchor="middle" x="676" y="-242.5" font-family="Helvetica,sans-Serif" font-size="10.00">FieldPlaneAveragingFine.H</text>
</a>
</g>
</g>
<!-- Node1&#45;&gt;Node22 -->
<g id="edge30" class="edge">
<title>Node1&#45;&gt;Node22</title>
<path fill="none" stroke="midnightblue" d="M469.71,-289.35C518.28,-279.14 590.62,-263.94 635.47,-254.52"/>
<polygon fill="midnightblue" stroke="midnightblue" points="468.79,-285.96 459.72,-291.44 470.23,-292.81 468.79,-285.96"/>
</g>
<!-- Node24 -->
<g id="node24" class="node">
<title>Node24</title>
<g id="a_node24"><a xlink:href="_channel_flow_8cpp.html" target="_top" xlink:title=" ">
<polygon fill="white" stroke="black" points="767.5,-235.5 767.5,-254.5 866.5,-254.5 866.5,-235.5 767.5,-235.5"/>
<text text-anchor="middle" x="817" y="-242.5" font-family="Helvetica,sans-Serif" font-size="10.00">ChannelFlow.cpp</text>
</a>
</g>
</g>
<!-- Node1&#45;&gt;Node24 -->
<g id="edge34" class="edge">
<title>Node1&#45;&gt;Node24</title>
<path fill="none" stroke="midnightblue" d="M484.42,-291.7C552.73,-282.94 662.96,-268.56 758,-255 761.08,-254.56 764.24,-254.1 767.44,-253.63"/>
<polygon fill="midnightblue" stroke="midnightblue" points="483.71,-288.26 474.24,-293 484.6,-295.2 483.71,-288.26"/>
</g>
<!-- Node3 -->
<g id="node3" class="node">
<title>Node3</title>
<g id="a_node3"><a xlink:href="_a_b_l_wall_function_8_h.html" target="_top" xlink:title=" ">
<polygon fill="white" stroke="black" points="758.5,-179.5 758.5,-198.5 865.5,-198.5 865.5,-179.5 758.5,-179.5"/>
<text text-anchor="middle" x="812" y="-186.5" font-family="Helvetica,sans-Serif" font-size="10.00">ABLWallFunction.H</text>
</a>
</g>
</g>
<!-- Node2&#45;&gt;Node3 -->
<g id="edge2" class="edge">
<title>Node2&#45;&gt;Node3</title>
<path fill="none" stroke="midnightblue" d="M546.01,-233.79C607.99,-223.59 702.19,-208.08 760.27,-198.52"/>
<polygon fill="midnightblue" stroke="midnightblue" points="545.27,-230.37 535.97,-235.44 546.41,-237.27 545.27,-230.37"/>
</g>
<!-- Node4 -->
<g id="node4" class="node">
<title>Node4</title>
<g id="a_node4"><a xlink:href="_a_b_l_8_h.html" target="_top" xlink:title=" ">
<polygon fill="white" stroke="black" points="805,-67.5 805,-86.5 851,-86.5 851,-67.5 805,-67.5"/>
<text text-anchor="middle" x="828" y="-74.5" font-family="Helvetica,sans-Serif" font-size="10.00">ABL.H</text>
</a>
</g>
</g>
<!-- Node2&#45;&gt;Node4 -->
<g id="edge18" class="edge">
<title>Node2&#45;&gt;Node4</title>
<path fill="none" stroke="midnightblue" d="M534.72,-233.02C565.39,-225.45 604.84,-214.04 638,-199 711.02,-165.89 788.93,-108.22 817.08,-86.55"/>
<polygon fill="midnightblue" stroke="midnightblue" points="533.58,-229.69 524.68,-235.44 535.22,-236.5 533.58,-229.69"/>
</g>
<!-- Node13 -->
<g id="node13" class="node">
<title>Node13</title>
<g id="a_node13"><a xlink:href="_a_b_l_stats_8_h.html" target="_top" xlink:title=" ">
<polygon fill="white" stroke="black" points="428.5,-67.5 428.5,-86.5 499.5,-86.5 499.5,-67.5 428.5,-67.5"/>
<text text-anchor="middle" x="464" y="-74.5" font-family="Helvetica,sans-Serif" font-size="10.00">ABLStats.H</text>
</a>
</g>
</g>
<!-- Node2&#45;&gt;Node13 -->
<g id="edge29" class="edge">
<title>Node2&#45;&gt;Node13</title>
<path fill="none" stroke="midnightblue" d="M474.6,-226.24C470.83,-218.16 466.93,-208.34 465,-199 456.45,-157.65 460.71,-106.64 462.93,-86.63"/>
<polygon fill="midnightblue" stroke="midnightblue" points="471.56,-227.97 479.15,-235.37 477.82,-224.86 471.56,-227.97"/>
</g>
<!-- Node16 -->
<g id="node16" class="node">
<title>Node16</title>
<g id="a_node16"><a xlink:href="_a_b_l_mean_boussinesq_8_h.html" target="_top" xlink:title=" ">
<polygon fill="white" stroke="black" points="536,-67.5 536,-86.5 664,-86.5 664,-67.5 536,-67.5"/>
<text text-anchor="middle" x="600" y="-74.5" font-family="Helvetica,sans-Serif" font-size="10.00">ABLMeanBoussinesq.H</text>
</a>
</g>
</g>
<!-- Node2&#45;&gt;Node16 -->
<g id="edge19" class="edge">
<title>Node2&#45;&gt;Node16</title>
<path fill="none" stroke="midnightblue" d="M557.06,-236.6C580.7,-230.34 604.53,-219.08 619,-199 644.36,-163.81 617.24,-107.87 605.17,-86.59"/>
<polygon fill="midnightblue" stroke="midnightblue" points="556.25,-233.19 547.33,-238.91 557.87,-240.01 556.25,-233.19"/>
</g>
<!-- Node17 -->
<g id="node17" class="node">
<title>Node17</title>
<g id="a_node17"><a xlink:href="_field_plane_averaging_8cpp.html" target="_top" xlink:title=" ">
<polygon fill="white" stroke="black" points="474,-179.5 474,-198.5 610,-198.5 610,-179.5 474,-179.5"/>
<text text-anchor="middle" x="542" y="-186.5" font-family="Helvetica,sans-Serif" font-size="10.00">FieldPlaneAveraging.cpp</text>
</a>
</g>
</g>
<!-- Node2&#45;&gt;Node17 -->
<g id="edge22" class="edge">
<title>Node2&#45;&gt;Node17</title>
<path fill="none" stroke="midnightblue" d="M500.91,-228.25C511.2,-218.67 523.97,-206.79 532.51,-198.83"/>
<polygon fill="midnightblue" stroke="midnightblue" points="498.25,-225.95 493.32,-235.32 503.02,-231.07 498.25,-225.95"/>
</g>
<!-- Node2&#45;&gt;Node18 -->
<g id="edge23" class="edge">
<title>Node2&#45;&gt;Node18</title>
<path fill="none" stroke="midnightblue" d="M451.84,-231.77C425.17,-221.63 387.93,-207.47 364.4,-198.52"/>
<polygon fill="midnightblue" stroke="midnightblue" points="450.91,-235.16 461.5,-235.44 453.4,-228.62 450.91,-235.16"/>
</g>
<!-- Node2&#45;&gt;Node20 -->
<g id="edge26" class="edge">
<title>Node2&#45;&gt;Node20</title>
<path fill="none" stroke="midnightblue" d="M425.24,-233.66C367.22,-223.46 279.55,-208.04 225.42,-198.52"/>
<polygon fill="midnightblue" stroke="midnightblue" points="424.9,-237.16 435.35,-235.44 426.11,-230.26 424.9,-237.16"/>
</g>
<!-- Node3&#45;&gt;Node4 -->
<g id="edge3" class="edge">
<title>Node3&#45;&gt;Node4</title>
<path fill="none" stroke="midnightblue" d="M870.92,-177.67C933.44,-166.42 1023.94,-149.22 1029,-143 1077.27,-83.69 913.58,-77.87 851.18,-77.76"/>
<polygon fill="midnightblue" stroke="midnightblue" points="869.99,-174.28 860.76,-179.49 871.22,-181.17 869.99,-174.28"/>
</g>
<!-- Node11 -->
<g id="node11" class="node">
<title>Node11</title>
<g id="a_node11"><a xlink:href="_a_b_l_wall_function_8cpp.html" target="_top" xlink:title=" ">
<polygon fill="white" stroke="black" points="1073.5,-6 1073.5,-25 1190.5,-25 1190.5,-6 1073.5,-6"/>
<text text-anchor="middle" x="1132" y="-13" font-family="Helvetica,sans-Serif" font-size="10.00">ABLWallFunction.cpp</text>
</a>
</g>
</g>
<!-- Node3&#45;&gt;Node11 -->
<g id="edge17" class="edge">
<title>Node3&#45;&gt;Node11</title>
<path fill="none" stroke="midnightblue" d="M875.76,-178.38C940.37,-168.21 1032.79,-152.39 1047,-143 1092.69,-112.79 1120.06,-48.73 1128.87,-25.31"/>
<polygon fill="midnightblue" stroke="midnightblue" points="874.98,-174.96 865.64,-179.96 876.06,-181.87 874.98,-174.96"/>
</g>
<!-- Node12 -->
<g id="node12" class="node">
<title>Node12</title>
<g id="a_node12"><a xlink:href="_a_b_l_stats_base_8_h.html" target="_top" xlink:title=" ">
<polygon fill="white" stroke="black" points="780.5,-123.5 780.5,-142.5 875.5,-142.5 875.5,-123.5 780.5,-123.5"/>
<text text-anchor="middle" x="828" y="-130.5" font-family="Helvetica,sans-Serif" font-size="10.00">ABLStatsBase.H</text>
</a>
</g>
</g>
<!-- Node3&#45;&gt;Node12 -->
<g id="edge11" class="edge">
<title>Node3&#45;&gt;Node12</title>
<path fill="none" stroke="midnightblue" d="M817.51,-169.4C820.19,-160.36 823.28,-149.94 825.41,-142.75"/>
<polygon fill="midnightblue" stroke="midnightblue" points="814.13,-168.5 814.64,-179.08 820.84,-170.49 814.13,-168.5"/>
</g>
<!-- Node3&#45;&gt;Node13 -->
<g id="edge16" class="edge">
<title>Node3&#45;&gt;Node13</title>
<path fill="none" stroke="midnightblue" d="M790.5,-174.03C766.81,-159.25 727.11,-136.25 690,-123 655.43,-110.65 554.3,-92.89 499.79,-83.81"/>
<polygon fill="midnightblue" stroke="midnightblue" points="788.73,-177.05 799.05,-179.45 792.48,-171.14 788.73,-177.05"/>
</g>
<!-- Node15 -->
<g id="node15" class="node">
<title>Node15</title>
<g id="a_node15"><a xlink:href="_boussinesq_bubble_8cpp.html" target="_top" xlink:title=" ">
<polygon fill="white" stroke="black" points="894,-123.5 894,-142.5 1020,-142.5 1020,-123.5 894,-123.5"/>
<text text-anchor="middle" x="957" y="-130.5" font-family="Helvetica,sans-Serif" font-size="10.00">BoussinesqBubble.cpp</text>
</a>
</g>
</g>
<!-- Node3&#45;&gt;Node15 -->
<g id="edge15" class="edge">
<title>Node3&#45;&gt;Node15</title>
<path fill="none" stroke="midnightblue" d="M844.48,-175.91C871.74,-165.75 909.99,-151.51 934.13,-142.52"/>
<polygon fill="midnightblue" stroke="midnightblue" points="843.13,-172.67 834.98,-179.44 845.57,-179.23 843.13,-172.67"/>
</g>
<!-- Node5 -->
<g id="node5" class="node">
<title>Node5</title>
<g id="a_node5"><a xlink:href="_a_b_l_forcing_8cpp.html" target="_top" xlink:title=" ">
<polygon fill="white" stroke="black" points="687.5,-6 687.5,-25 778.5,-25 778.5,-6 687.5,-6"/>
<text text-anchor="middle" x="733" y="-13" font-family="Helvetica,sans-Serif" font-size="10.00">ABLForcing.cpp</text>
</a>
</g>
</g>
<!-- Node4&#45;&gt;Node5 -->
<g id="edge4" class="edge">
<title>Node4&#45;&gt;Node5</title>
<path fill="none" stroke="midnightblue" d="M805.79,-62.09C787.45,-50.6 762.02,-34.68 746.59,-25.01"/>
<polygon fill="midnightblue" stroke="midnightblue" points="804.06,-65.13 814.39,-67.48 807.77,-59.2 804.06,-65.13"/>
</g>
<!-- Node6 -->
<g id="node6" class="node">
<title>Node6</title>
<g id="a_node6"><a xlink:href="_a_b_l_mean_boussinesq_8cpp.html" target="_top" xlink:title=" ">
<polygon fill="white" stroke="black" points="531,-6 531,-25 669,-25 669,-6 531,-6"/>
<text text-anchor="middle" x="600" y="-13" font-family="Helvetica,sans-Serif" font-size="10.00">ABLMeanBoussinesq.cpp</text>
</a>
</g>
</g>
<!-- Node4&#45;&gt;Node6 -->
<g id="edge5" class="edge">
<title>Node4&#45;&gt;Node6</title>
<path fill="none" stroke="midnightblue" d="M795.12,-67.42C751.76,-56.1 675.93,-36.31 632.67,-25.03"/>
<polygon fill="midnightblue" stroke="midnightblue" points="794.32,-70.83 804.88,-69.97 796.09,-64.06 794.32,-70.83"/>
</g>
<!-- Node7 -->
<g id="node7" class="node">
<title>Node7</title>
<g id="a_node7"><a xlink:href="incflo_8cpp.html" target="_top" xlink:title=" ">
<polygon fill="white" stroke="black" points="796.5,-6 796.5,-25 859.5,-25 859.5,-6 796.5,-6"/>
<text text-anchor="middle" x="828" y="-13" font-family="Helvetica,sans-Serif" font-size="10.00">incflo.cpp</text>
</a>
</g>
</g>
<!-- Node4&#45;&gt;Node7 -->
<g id="edge6" class="edge">
<title>Node4&#45;&gt;Node7</title>
<path fill="none" stroke="midnightblue" d="M828,-57.32C828,-46.5 828,-33.4 828,-25.01"/>
<polygon fill="midnightblue" stroke="midnightblue" points="824.5,-57.48 828,-67.48 831.5,-57.48 824.5,-57.48"/>
</g>
<!-- Node8 -->
<g id="node8" class="node">
<title>Node8</title>
<g id="a_node8"><a xlink:href="incflo__apply__nodal__projection_8cpp.html" target="_top" xlink:title=" ">
<polygon fill="white" stroke="black" points="877.5,-0.5 877.5,-30.5 984.5,-30.5 984.5,-0.5 877.5,-0.5"/>
<text text-anchor="start" x="885.5" y="-18.5" font-family="Helvetica,sans-Serif" font-size="10.00">incflo_apply_nodal</text>
<text text-anchor="middle" x="931" y="-7.5" font-family="Helvetica,sans-Serif" font-size="10.00">_projection.cpp</text>
</a>
</g>
</g>
<!-- Node4&#45;&gt;Node8 -->
<g id="edge7" class="edge">
<title>Node4&#45;&gt;Node8</title>
<path fill="none" stroke="midnightblue" d="M851.76,-62.28C868.24,-52.75 890.13,-40.11 906.72,-30.52"/>
<polygon fill="midnightblue" stroke="midnightblue" points="849.67,-59.44 842.76,-67.48 853.17,-65.5 849.67,-59.44"/>
</g>
<!-- Node9 -->
<g id="node9" class="node">
<title>Node9</title>
<g id="a_node9"><a xlink:href="init_8cpp.html" target="_top" xlink:title=" ">
<polygon fill="white" stroke="black" points="1002.5,-6 1002.5,-25 1055.5,-25 1055.5,-6 1002.5,-6"/>
<text text-anchor="middle" x="1029" y="-13" font-family="Helvetica,sans-Serif" font-size="10.00">init.cpp</text>
</a>
</g>
</g>
<!-- Node4&#45;&gt;Node9 -->
<g id="edge8" class="edge">
<title>Node4&#45;&gt;Node9</title>
<path fill="none" stroke="midnightblue" d="M860.9,-68.4C894.67,-60.29 948.54,-46.51 994,-31 999.1,-29.26 1004.53,-27.15 1009.55,-25.08"/>
<polygon fill="midnightblue" stroke="midnightblue" points="860.02,-65.01 851.1,-70.73 861.64,-71.82 860.02,-65.01"/>
</g>
<!-- Node10 -->
<g id="node10" class="node">
<title>Node10</title>
<g id="a_node10"><a xlink:href="_a_b_l_8cpp.html" target="_top" xlink:title=" ">
<polygon fill="white" stroke="black" points="457,-6 457,-25 513,-25 513,-6 457,-6"/>
<text text-anchor="middle" x="485" y="-13" font-family="Helvetica,sans-Serif" font-size="10.00">ABL.cpp</text>
</a>
</g>
</g>
<!-- Node4&#45;&gt;Node10 -->
<g id="edge9" class="edge">
<title>Node4&#45;&gt;Node10</title>
<path fill="none" stroke="midnightblue" d="M794.83,-73.61C738.12,-68.97 619.26,-56.85 522,-31 516.13,-29.44 509.93,-27.24 504.31,-25.02"/>
<polygon fill="midnightblue" stroke="midnightblue" points="794.75,-77.11 804.99,-74.41 795.3,-70.13 794.75,-77.11"/>
</g>
<!-- Node4&#45;&gt;Node11 -->
<g id="edge10" class="edge">
<title>Node4&#45;&gt;Node11</title>
<path fill="none" stroke="midnightblue" d="M861.23,-69.97C907.13,-61.57 992.46,-45.73 1065,-31 1074.21,-29.13 1084.12,-27.03 1093.42,-25.03"/>
<polygon fill="midnightblue" stroke="midnightblue" points="860.46,-66.55 851.25,-71.79 861.72,-73.44 860.46,-66.55"/>
</g>
<!-- Node12&#45;&gt;Node4 -->
<g id="edge12" class="edge">
<title>Node12&#45;&gt;Node4</title>
<path fill="none" stroke="midnightblue" d="M828,-112.8C828,-103.91 828,-93.78 828,-86.75"/>
<polygon fill="midnightblue" stroke="midnightblue" points="824.5,-113.08 828,-123.08 831.5,-113.08 824.5,-113.08"/>
</g>
<!-- Node12&#45;&gt;Node13 -->
<g id="edge13" class="edge">
<title>Node12&#45;&gt;Node13</title>
<path fill="none" stroke="midnightblue" d="M770.51,-123.47C694.44,-112.19 562.6,-92.63 499.56,-83.28"/>
<polygon fill="midnightblue" stroke="midnightblue" points="770.01,-126.94 780.41,-124.94 771.04,-120.01 770.01,-126.94"/>
</g>
<!-- Node13&#45;&gt;Node14 -->
<g id="edge14" class="edge">
<title>Node13&#45;&gt;Node14</title>
<path fill="none" stroke="midnightblue" d="M418.5,-65.38C369.15,-53.87 291.34,-35.71 245.72,-25.07"/>
<polygon fill="midnightblue" stroke="midnightblue" points="417.74,-68.8 428.27,-67.66 419.33,-61.98 417.74,-68.8"/>
</g>
<!-- Node16&#45;&gt;Node6 -->
<g id="edge20" class="edge">
<title>Node16&#45;&gt;Node6</title>
<path fill="none" stroke="midnightblue" d="M600,-57.32C600,-46.5 600,-33.4 600,-25.01"/>
<polygon fill="midnightblue" stroke="midnightblue" points="596.5,-57.48 600,-67.48 603.5,-57.48 596.5,-57.48"/>
</g>
<!-- Node16&#45;&gt;Node10 -->
<g id="edge21" class="edge">
<title>Node16&#45;&gt;Node10</title>
<path fill="none" stroke="midnightblue" d="M574.62,-62.87C552.33,-51.33 520.56,-34.9 501.45,-25.01"/>
<polygon fill="midnightblue" stroke="midnightblue" points="573.03,-65.99 583.52,-67.48 576.25,-59.77 573.03,-65.99"/>
</g>
<!-- Node18&#45;&gt;Node13 -->
<g id="edge25" class="edge">
<title>Node18&#45;&gt;Node13</title>
<path fill="none" stroke="midnightblue" d="M364.76,-173.84C377.43,-165.52 393.18,-154.41 406,-143 426.56,-124.69 447.2,-99.56 457.42,-86.57"/>
<polygon fill="midnightblue" stroke="midnightblue" points="362.68,-171.02 356.17,-179.38 366.47,-176.91 362.68,-171.02"/>
</g>
<!-- Node19 -->
<g id="node19" class="node">
<title>Node19</title>
<g id="a_node19"><a xlink:href="_second_moment_averaging_8cpp.html" target="_top" xlink:title=" ">
<polygon fill="white" stroke="black" points="236.5,-123.5 236.5,-142.5 397.5,-142.5 397.5,-123.5 236.5,-123.5"/>
<text text-anchor="middle" x="317" y="-130.5" font-family="Helvetica,sans-Serif" font-size="10.00">SecondMomentAveraging.cpp</text>
</a>
</g>
</g>
<!-- Node18&#45;&gt;Node19 -->
<g id="edge24" class="edge">
<title>Node18&#45;&gt;Node19</title>
<path fill="none" stroke="midnightblue" d="M333.66,-169.98C329.42,-160.82 324.45,-150.09 321.05,-142.75"/>
<polygon fill="midnightblue" stroke="midnightblue" points="330.49,-171.48 337.87,-179.08 336.85,-168.54 330.49,-171.48"/>
</g>
<!-- Node20&#45;&gt;Node13 -->
<g id="edge28" class="edge">
<title>Node20&#45;&gt;Node13</title>
<path fill="none" stroke="midnightblue" d="M185.83,-170.32C194.29,-155.28 208.5,-134.38 227,-123 290.14,-84.17 379.27,-77.52 428.26,-77.12"/>
<polygon fill="midnightblue" stroke="midnightblue" points="182.72,-168.72 181.11,-179.19 188.9,-172 182.72,-168.72"/>
</g>
<!-- Node21 -->
<g id="node21" class="node">
<title>Node21</title>
<g id="a_node21"><a xlink:href="_third_moment_averaging_8cpp.html" target="_top" xlink:title=" ">
<polygon fill="white" stroke="black" points="28.5,-123.5 28.5,-142.5 179.5,-142.5 179.5,-123.5 28.5,-123.5"/>
<text text-anchor="middle" x="104" y="-130.5" font-family="Helvetica,sans-Serif" font-size="10.00">ThirdMomentAveraging.cpp</text>
</a>
</g>
</g>
<!-- Node20&#45;&gt;Node21 -->
<g id="edge27" class="edge">
<title>Node20&#45;&gt;Node21</title>
<path fill="none" stroke="midnightblue" d="M156.86,-173.1C143.72,-163.38 127.02,-151.03 115.94,-142.83"/>
<polygon fill="midnightblue" stroke="midnightblue" points="155.15,-176.19 165.27,-179.32 159.31,-170.56 155.15,-176.19"/>
</g>
<!-- Node22&#45;&gt;Node3 -->
<g id="edge31" class="edge">
<title>Node22&#45;&gt;Node3</title>
<path fill="none" stroke="midnightblue" d="M707.13,-231.64C732.66,-221.5 768.11,-207.43 790.55,-198.52"/>
<polygon fill="midnightblue" stroke="midnightblue" points="705.55,-228.5 697.55,-235.44 708.14,-235.01 705.55,-228.5"/>
</g>
<!-- Node22&#45;&gt;Node13 -->
<g id="edge33" class="edge">
<title>Node22&#45;&gt;Node13</title>
<path fill="none" stroke="midnightblue" d="M663.37,-227.19C652.5,-213.34 635.93,-193.68 619,-179 572.89,-139.03 509.84,-102.75 480.4,-86.71"/>
<polygon fill="midnightblue" stroke="midnightblue" points="660.77,-229.54 669.64,-235.33 666.32,-225.27 660.77,-229.54"/>
</g>
<!-- Node23 -->
<g id="node23" class="node">
<title>Node23</title>
<g id="a_node23"><a xlink:href="_field_plane_averaging_fine_8cpp.html" target="_top" xlink:title=" ">
<polygon fill="white" stroke="black" points="884,-179.5 884,-198.5 1040,-198.5 1040,-179.5 884,-179.5"/>
<text text-anchor="middle" x="962" y="-186.5" font-family="Helvetica,sans-Serif" font-size="10.00">FieldPlaneAveragingFine.cpp</text>
</a>
</g>
</g>
<!-- Node22&#45;&gt;Node23 -->
<g id="edge32" class="edge">
<title>Node22&#45;&gt;Node23</title>
<path fill="none" stroke="midnightblue" d="M731.41,-233.54C785.47,-223.33 866.67,-208 916.89,-198.52"/>
<polygon fill="midnightblue" stroke="midnightblue" points="730.49,-230.15 721.32,-235.44 731.79,-237.03 730.49,-230.15"/>
</g>
</g>
</svg>
        <g id="navigator" transform="translate(0 0)" fill="#404254">
                <rect fill="#f2f5e9" fill-opacity="0.5" stroke="#606060" stroke-width=".5" x="0" y="0" width="60" height="60"/>
                <use id="zoomplus" xlink:href="#zoomPlus" x="17" y="9" onmousedown="handleZoom(evt,'in')"/>
                <use id="zoomminus" xlink:href="#zoomMin" x="42" y="9" onmousedown="handleZoom(evt,'out')"/>
                <use id="reset" xlink:href="#resetDef" x="30" y="36" onmousedown="handleReset()"/>
                <g id="arrowUp" xlink:href="#dirArrow" transform="translate(30 24)" onmousedown="handlePan(0,-1)">
                  <use xlink:href="#rim" fill="#404040">
                        <set attributeName="fill" to="#808080" begin="arrowUp.mouseover" end="arrowUp.mouseout"/>
                  </use>
                  <path fill="none" stroke="white" stroke-width="1.5" d="M0,-3.0v7 M-2.5,-0.5L0,-3.0L2.5,-0.5"/>
                </g>
                <g id="arrowRight" xlink:href="#dirArrow" transform="rotate(90) translate(36 -43)" onmousedown="handlePan(1,0)">
                  <use xlink:href="#rim" fill="#404040">
                        <set attributeName="fill" to="#808080" begin="arrowRight.mouseover" end="arrowRight.mouseout"/>
                  </use>
                  <path fill="none" stroke="white" stroke-width="1.5" d="M0,-3.0v7 M-2.5,-0.5L0,-3.0L2.5,-0.5"/>
                </g>
                <g id="arrowDown" xlink:href="#dirArrow" transform="rotate(180) translate(-30 -48)" onmousedown="handlePan(0,1)">
                  <use xlink:href="#rim" fill="#404040">
                        <set attributeName="fill" to="#808080" begin="arrowDown.mouseover" end="arrowDown.mouseout"/>
                  </use>
                  <path fill="none" stroke="white" stroke-width="1.5" d="M0,-3.0v7 M-2.5,-0.5L0,-3.0L2.5,-0.5"/>
                </g>
                <g id="arrowLeft" xlink:href="#dirArrow" transform="rotate(270) translate(-36 17)" onmousedown="handlePan(-1,0)">
                  <use xlink:href="#rim" fill="#404040">
                        <set attributeName="fill" to="#808080" begin="arrowLeft.mouseover" end="arrowLeft.mouseout"/>
                  </use>
                  <path fill="none" stroke="white" stroke-width="1.5" d="M0,-3.0v7 M-2.5,-0.5L0,-3.0L2.5,-0.5"/>
                </g>
        </g>
        <svg viewBox="0 0 15 15" width="100%" height="30px" preserveAspectRatio="xMaxYMin meet">
         <g id="arrow_out" transform="scale(0.3 0.3)">
          <a xlink:href="_direction_selector_8_h__dep__incl_org.svg" target="_base">
           <rect id="button" ry="5" rx="5" y="6" x="6" height="38" width="38"
                fill="#f2f5e9" fill-opacity="0.5" stroke="#606060" stroke-width="1.0"/>
           <path id="arrow"
             d="M 11.500037,31.436501 C 11.940474,20.09759 22.043105,11.32322 32.158766,21.979434 L 37.068811,17.246167 C 37.068811,17.246167 37.088388,32 37.088388,32 L 22.160133,31.978069 C 22.160133,31.978069 26.997745,27.140456 26.997745,27.140456 C 18.528582,18.264221 13.291696,25.230495 11.500037,31.436501 z"
             style="fill:#404040;"/>
          </a>
         </g>
        </svg>
</svg>
