<?xml version="1.0" encoding="UTF-8" standalone="no"?>
<!DOCTYPE svg PUBLIC "-//W3C//DTD SVG 1.1//EN"
 "http://www.w3.org/Graphics/SVG/1.1/DTD/svg11.dtd">
<!-- Generated by graphviz version 2.43.0 (0)
 -->
<!-- Title: FieldPlaneAveragingFine.cpp Pages: 1 -->
<svg width="2839pt" height="408pt"
 viewBox="0.00 0.00 2839.00 408.00" xmlns="http://www.w3.org/2000/svg" xmlns:xlink="http://www.w3.org/1999/xlink">
<g id="graph0" class="graph" transform="scale(1 1) rotate(0) translate(4 404)">
<title>FieldPlaneAveragingFine.cpp</title>
<polygon fill="white" stroke="transparent" points="-4,4 -4,-404 2835,-404 2835,4 -4,4"/>
<!-- Node1 -->
<g id="node1" class="node">
<title>Node1</title>
<g id="a_node1"><a xlink:title=" ">
<polygon fill="#bfbfbf" stroke="black" points="2377,-380.5 2377,-399.5 2533,-399.5 2533,-380.5 2377,-380.5"/>
<text text-anchor="middle" x="2455" y="-387.5" font-family="Helvetica,sans-Serif" font-size="10.00">FieldPlaneAveragingFine.cpp</text>
</a>
</g>
</g>
<!-- Node2 -->
<g id="node2" class="node">
<title>Node2</title>
<g id="a_node2"><a xlink:href="_field_plane_averaging_fine_8_h.html" target="_top" xlink:title=" ">
<polygon fill="white" stroke="black" points="2259.5,-313.5 2259.5,-343.5 2408.5,-343.5 2408.5,-313.5 2259.5,-313.5"/>
<text text-anchor="start" x="2267.5" y="-331.5" font-family="Helvetica,sans-Serif" font-size="10.00">amr&#45;wind/utilities</text>
<text text-anchor="middle" x="2334" y="-320.5" font-family="Helvetica,sans-Serif" font-size="10.00">/FieldPlaneAveragingFine.H</text>
</a>
</g>
</g>
<!-- Node1&#45;&gt;Node2 -->
<g id="edge1" class="edge">
<title>Node1&#45;&gt;Node2</title>
<path fill="none" stroke="midnightblue" d="M2437.66,-380.48C2420.51,-372.04 2393.7,-358.86 2371.64,-348.01"/>
<polygon fill="midnightblue" stroke="midnightblue" points="2373.04,-344.79 2362.52,-343.52 2369.95,-351.08 2373.04,-344.79"/>
</g>
<!-- Node21 -->
<g id="node21" class="node">
<title>Node21</title>
<g id="a_node21"><a xlink:title=" ">
<polygon fill="white" stroke="#bfbfbf" points="2454,-56.5 2454,-75.5 2518,-75.5 2518,-56.5 2454,-56.5"/>
<text text-anchor="middle" x="2486" y="-63.5" font-family="Helvetica,sans-Serif" font-size="10.00">algorithm</text>
</a>
</g>
</g>
<!-- Node1&#45;&gt;Node21 -->
<g id="edge81" class="edge">
<title>Node1&#45;&gt;Node21</title>
<path fill="none" stroke="midnightblue" d="M2517.73,-380.45C2583.37,-367.56 2677,-336.25 2677,-262.5 2677,-262.5 2677,-262.5 2677,-193.5 2677,-153.53 2669.3,-138.06 2639,-112 2607.9,-85.25 2561.54,-74.39 2528.01,-69.99"/>
<polygon fill="midnightblue" stroke="midnightblue" points="2528.39,-66.51 2518.05,-68.82 2527.57,-73.46 2528.39,-66.51"/>
</g>
<!-- Node27 -->
<g id="node27" class="node">
<title>Node27</title>
<g id="a_node27"><a xlink:title=" ">
<polygon fill="white" stroke="#bfbfbf" points="202,-56.5 202,-75.5 314,-75.5 314,-56.5 202,-56.5"/>
<text text-anchor="middle" x="258" y="-63.5" font-family="Helvetica,sans-Serif" font-size="10.00">AMReX_iMultiFab.H</text>
</a>
</g>
</g>
<!-- Node1&#45;&gt;Node27 -->
<g id="edge79" class="edge">
<title>Node1&#45;&gt;Node27</title>
<path fill="none" stroke="midnightblue" d="M2376.74,-389.12C1959.95,-389.26 20,-383.41 20,-262.5 20,-262.5 20,-262.5 20,-193.5 20,-156.31 12.36,-137.95 39,-112 60.4,-91.16 135.23,-79.11 191.51,-72.82"/>
<polygon fill="midnightblue" stroke="midnightblue" points="192.22,-76.26 201.79,-71.71 191.47,-69.3 192.22,-76.26"/>
</g>
<!-- Node42 -->
<g id="node42" class="node">
<title>Node42</title>
<g id="a_node42"><a xlink:title=" ">
<polygon fill="white" stroke="#bfbfbf" points="2705,-319 2705,-338 2831,-338 2831,-319 2705,-319"/>
<text text-anchor="middle" x="2768" y="-326" font-family="Helvetica,sans-Serif" font-size="10.00">AMReX_MultiFabUtil.H</text>
</a>
</g>
</g>
<!-- Node1&#45;&gt;Node42 -->
<g id="edge80" class="edge">
<title>Node1&#45;&gt;Node42</title>
<path fill="none" stroke="midnightblue" d="M2499.85,-380.48C2556.09,-369.78 2652.49,-351.46 2713.09,-339.94"/>
<polygon fill="midnightblue" stroke="midnightblue" points="2714.07,-343.32 2723.24,-338.01 2712.76,-336.44 2714.07,-343.32"/>
</g>
<!-- Node3 -->
<g id="node3" class="node">
<title>Node3</title>
<g id="a_node3"><a xlink:href="_direction_selector_8_h.html" target="_top" xlink:title=" ">
<polygon fill="white" stroke="black" points="2477.5,-246.5 2477.5,-276.5 2590.5,-276.5 2590.5,-246.5 2477.5,-246.5"/>
<text text-anchor="start" x="2485.5" y="-264.5" font-family="Helvetica,sans-Serif" font-size="10.00">amr&#45;wind/utilities</text>
<text text-anchor="middle" x="2534" y="-253.5" font-family="Helvetica,sans-Serif" font-size="10.00">/DirectionSelector.H</text>
</a>
</g>
</g>
<!-- Node2&#45;&gt;Node3 -->
<g id="edge2" class="edge">
<title>Node2&#45;&gt;Node3</title>
<path fill="none" stroke="midnightblue" d="M2377.4,-313.4C2407.8,-303.52 2448.61,-290.25 2480.94,-279.74"/>
<polygon fill="midnightblue" stroke="midnightblue" points="2482.26,-283 2490.69,-276.58 2480.1,-276.34 2482.26,-283"/>
</g>
<!-- Node6 -->
<g id="node6" class="node">
<title>Node6</title>
<g id="a_node6"><a xlink:href="_c_f_d_sim_8_h.html" target="_top" xlink:title=" ">
<polygon fill="white" stroke="black" points="1387,-252 1387,-271 1503,-271 1503,-252 1387,-252"/>
<text text-anchor="middle" x="1445" y="-259" font-family="Helvetica,sans-Serif" font-size="10.00">amr&#45;wind/CFDSim.H</text>
</a>
</g>
</g>
<!-- Node2&#45;&gt;Node6 -->
<g id="edge5" class="edge">
<title>Node2&#45;&gt;Node6</title>
<path fill="none" stroke="midnightblue" d="M2259.35,-322.04C2089.73,-309.64 1677.35,-279.49 1513.64,-267.52"/>
<polygon fill="midnightblue" stroke="midnightblue" points="1513.45,-264 1503.22,-266.76 1512.94,-270.98 1513.45,-264"/>
</g>
<!-- Node8 -->
<g id="node8" class="node">
<title>Node8</title>
<g id="a_node8"><a xlink:href="_sim_time_8_h.html" target="_top" xlink:title=" ">
<polygon fill="white" stroke="black" points="2262,-185 2262,-204 2406,-204 2406,-185 2262,-185"/>
<text text-anchor="middle" x="2334" y="-192" font-family="Helvetica,sans-Serif" font-size="10.00">amr&#45;wind/core/SimTime.H</text>
</a>
</g>
</g>
<!-- Node2&#45;&gt;Node8 -->
<g id="edge78" class="edge">
<title>Node2&#45;&gt;Node8</title>
<path fill="none" stroke="midnightblue" d="M2334,-313.37C2334,-289.5 2334,-241.18 2334,-214.41"/>
<polygon fill="midnightblue" stroke="midnightblue" points="2337.5,-214.1 2334,-204.1 2330.5,-214.1 2337.5,-214.1"/>
</g>
<!-- Node19 -->
<g id="node19" class="node">
<title>Node19</title>
<g id="a_node19"><a xlink:href="_field_8_h.html" target="_top" xlink:title=" ">
<polygon fill="white" stroke="black" points="1609,-118 1609,-137 1733,-137 1733,-118 1609,-118"/>
<text text-anchor="middle" x="1671" y="-125" font-family="Helvetica,sans-Serif" font-size="10.00">amr&#45;wind/core/Field.H</text>
</a>
</g>
</g>
<!-- Node2&#45;&gt;Node19 -->
<g id="edge77" class="edge">
<title>Node2&#45;&gt;Node19</title>
<path fill="none" stroke="midnightblue" d="M2259.41,-315.16C2161.04,-297.69 1983.41,-261.98 1838,-210 1784.87,-191.01 1726.38,-159.92 1694.66,-142.14"/>
<polygon fill="midnightblue" stroke="midnightblue" points="1696.14,-138.95 1685.71,-137.07 1692.69,-145.04 1696.14,-138.95"/>
</g>
<!-- Node4 -->
<g id="node4" class="node">
<title>Node4</title>
<g id="a_node4"><a xlink:title=" ">
<polygon fill="white" stroke="#bfbfbf" points="2491,-185 2491,-204 2577,-204 2577,-185 2491,-185"/>
<text text-anchor="middle" x="2534" y="-192" font-family="Helvetica,sans-Serif" font-size="10.00">AMReX_Box.H</text>
</a>
</g>
</g>
<!-- Node3&#45;&gt;Node4 -->
<g id="edge3" class="edge">
<title>Node3&#45;&gt;Node4</title>
<path fill="none" stroke="midnightblue" d="M2534,-246.4C2534,-237.06 2534,-224.71 2534,-214.52"/>
<polygon fill="midnightblue" stroke="midnightblue" points="2537.5,-214.19 2534,-204.19 2530.5,-214.19 2537.5,-214.19"/>
</g>
<!-- Node5 -->
<g id="node5" class="node">
<title>Node5</title>
<g id="a_node5"><a xlink:title=" ">
<polygon fill="white" stroke="#bfbfbf" points="2090.5,-56.5 2090.5,-75.5 2177.5,-75.5 2177.5,-56.5 2090.5,-56.5"/>
<text text-anchor="middle" x="2134" y="-63.5" font-family="Helvetica,sans-Serif" font-size="10.00">AMReX_Gpu.H</text>
</a>
</g>
</g>
<!-- Node3&#45;&gt;Node5 -->
<g id="edge4" class="edge">
<title>Node3&#45;&gt;Node5</title>
<path fill="none" stroke="midnightblue" d="M2553.3,-246.29C2589.21,-218.21 2659.24,-154.64 2620,-112 2588.9,-78.21 2268.55,-81.6 2188.06,-75.7"/>
<polygon fill="midnightblue" stroke="midnightblue" points="2187.91,-72.17 2177.63,-74.71 2187.25,-79.14 2187.91,-72.17"/>
</g>
<!-- Node7 -->
<g id="node7" class="node">
<title>Node7</title>
<g id="a_node7"><a xlink:title=" ">
<polygon fill="white" stroke="#bfbfbf" points="48,-118 48,-137 158,-137 158,-118 48,-118"/>
<text text-anchor="middle" x="103" y="-125" font-family="Helvetica,sans-Serif" font-size="10.00">AMReX_AmrCore.H</text>
</a>
</g>
</g>
<!-- Node6&#45;&gt;Node7 -->
<g id="edge6" class="edge">
<title>Node6&#45;&gt;Node7</title>
<path fill="none" stroke="midnightblue" d="M1386.79,-259.65C1192.83,-256.54 569.68,-244.06 372,-210 283.6,-194.77 183.44,-159.39 134,-140.65"/>
<polygon fill="midnightblue" stroke="midnightblue" points="135.12,-137.33 124.53,-137.02 132.62,-143.86 135.12,-137.33"/>
</g>
<!-- Node6&#45;&gt;Node8 -->
<g id="edge7" class="edge">
<title>Node6&#45;&gt;Node8</title>
<path fill="none" stroke="midnightblue" d="M1503.33,-256.24C1657.08,-244.99 2073.79,-214.53 2251.69,-201.52"/>
<polygon fill="midnightblue" stroke="midnightblue" points="2252.06,-205 2261.78,-200.78 2251.55,-198.02 2252.06,-205"/>
</g>
<!-- Node12 -->
<g id="node12" class="node">
<title>Node12</title>
<g id="a_node12"><a xlink:href="_field_repo_8_h.html" target="_top" xlink:title=" ">
<polygon fill="white" stroke="black" points="381.5,-185 381.5,-204 530.5,-204 530.5,-185 381.5,-185"/>
<text text-anchor="middle" x="456" y="-192" font-family="Helvetica,sans-Serif" font-size="10.00">amr&#45;wind/core/FieldRepo.H</text>
</a>
</g>
</g>
<!-- Node6&#45;&gt;Node12 -->
<g id="edge11" class="edge">
<title>Node6&#45;&gt;Node12</title>
<path fill="none" stroke="midnightblue" d="M1386.83,-256.68C1219.64,-245.69 737.24,-213.98 540.78,-201.07"/>
<polygon fill="midnightblue" stroke="midnightblue" points="540.72,-197.56 530.51,-200.4 540.26,-204.55 540.72,-197.56"/>
</g>
<!-- Node31 -->
<g id="node31" class="node">
<title>Node31</title>
<g id="a_node31"><a xlink:href="_p_d_e_base_8_h.html" target="_top" xlink:title=" ">
<polygon fill="white" stroke="black" points="1847.5,-179.5 1847.5,-209.5 2002.5,-209.5 2002.5,-179.5 1847.5,-179.5"/>
<text text-anchor="start" x="1855.5" y="-197.5" font-family="Helvetica,sans-Serif" font-size="10.00">amr&#45;wind/equation_systems</text>
<text text-anchor="middle" x="1925" y="-186.5" font-family="Helvetica,sans-Serif" font-size="10.00">/PDEBase.H</text>
</a>
</g>
</g>
<!-- Node6&#45;&gt;Node31 -->
<g id="edge49" class="edge">
<title>Node6&#45;&gt;Node31</title>
<path fill="none" stroke="midnightblue" d="M1503.38,-252.59C1586.63,-241.32 1740.09,-220.54 1837.12,-207.4"/>
<polygon fill="midnightblue" stroke="midnightblue" points="1837.77,-210.85 1847.21,-206.03 1836.83,-203.91 1837.77,-210.85"/>
</g>
<!-- Node39 -->
<g id="node39" class="node">
<title>Node39</title>
<g id="a_node39"><a xlink:href="_physics_8_h.html" target="_top" xlink:title=" ">
<polygon fill="white" stroke="black" points="1215.5,-185 1215.5,-204 1352.5,-204 1352.5,-185 1215.5,-185"/>
<text text-anchor="middle" x="1284" y="-192" font-family="Helvetica,sans-Serif" font-size="10.00">amr&#45;wind/core/Physics.H</text>
</a>
</g>
</g>
<!-- Node6&#45;&gt;Node39 -->
<g id="edge66" class="edge">
<title>Node6&#45;&gt;Node39</title>
<path fill="none" stroke="midnightblue" d="M1423.62,-251.87C1395.64,-240.57 1346.41,-220.7 1314.51,-207.82"/>
<polygon fill="midnightblue" stroke="midnightblue" points="1315.79,-204.56 1305.21,-204.06 1313.17,-211.05 1315.79,-204.56"/>
</g>
<!-- Node41 -->
<g id="node41" class="node">
<title>Node41</title>
<g id="a_node41"><a xlink:href="_mesh_map_8_h.html" target="_top" xlink:title=" ">
<polygon fill="white" stroke="black" points="1371,-185 1371,-204 1519,-204 1519,-185 1371,-185"/>
<text text-anchor="middle" x="1445" y="-192" font-family="Helvetica,sans-Serif" font-size="10.00">amr&#45;wind/core/MeshMap.H</text>
</a>
</g>
</g>
<!-- Node6&#45;&gt;Node41 -->
<g id="edge71" class="edge">
<title>Node6&#45;&gt;Node41</title>
<path fill="none" stroke="midnightblue" d="M1445,-251.73C1445,-242.18 1445,-226.62 1445,-214.28"/>
<polygon fill="midnightblue" stroke="midnightblue" points="1448.5,-214.13 1445,-204.13 1441.5,-214.13 1448.5,-214.13"/>
</g>
<!-- Node9 -->
<g id="node9" class="node">
<title>Node9</title>
<g id="a_node9"><a xlink:title=" ">
<polygon fill="white" stroke="#bfbfbf" points="2519,-118 2519,-137 2611,-137 2611,-118 2519,-118"/>
<text text-anchor="middle" x="2565" y="-125" font-family="Helvetica,sans-Serif" font-size="10.00">AMReX_REAL.H</text>
</a>
</g>
</g>
<!-- Node8&#45;&gt;Node9 -->
<g id="edge8" class="edge">
<title>Node8&#45;&gt;Node9</title>
<path fill="none" stroke="midnightblue" d="M2364.68,-184.87C2405.86,-173.28 2479.13,-152.66 2524.72,-139.83"/>
<polygon fill="midnightblue" stroke="midnightblue" points="2525.89,-143.14 2534.57,-137.06 2523.99,-136.4 2525.89,-143.14"/>
</g>
<!-- Node10 -->
<g id="node10" class="node">
<title>Node10</title>
<g id="a_node10"><a xlink:title=" ">
<polygon fill="white" stroke="#bfbfbf" points="2233,-118 2233,-137 2367,-137 2367,-118 2233,-118"/>
<text text-anchor="middle" x="2300" y="-125" font-family="Helvetica,sans-Serif" font-size="10.00">AMReX_GpuQualifiers.H</text>
</a>
</g>
</g>
<!-- Node8&#45;&gt;Node10 -->
<g id="edge9" class="edge">
<title>Node8&#45;&gt;Node10</title>
<path fill="none" stroke="midnightblue" d="M2329.41,-184.73C2324.27,-174.89 2315.78,-158.66 2309.24,-146.16"/>
<polygon fill="midnightblue" stroke="midnightblue" points="2312.25,-144.37 2304.51,-137.13 2306.05,-147.61 2312.25,-144.37"/>
</g>
<!-- Node11 -->
<g id="node11" class="node">
<title>Node11</title>
<g id="a_node11"><a xlink:title=" ">
<polygon fill="white" stroke="#bfbfbf" points="2385,-118 2385,-137 2501,-137 2501,-118 2385,-118"/>
<text text-anchor="middle" x="2443" y="-125" font-family="Helvetica,sans-Serif" font-size="10.00">AMReX_Extension.H</text>
</a>
</g>
</g>
<!-- Node8&#45;&gt;Node11 -->
<g id="edge10" class="edge">
<title>Node8&#45;&gt;Node11</title>
<path fill="none" stroke="midnightblue" d="M2348.7,-184.73C2366.92,-173.87 2398.2,-155.22 2419.7,-142.39"/>
<polygon fill="midnightblue" stroke="midnightblue" points="2421.74,-145.26 2428.53,-137.13 2418.15,-139.24 2421.74,-145.26"/>
</g>
<!-- Node12&#45;&gt;Node7 -->
<g id="edge46" class="edge">
<title>Node12&#45;&gt;Node7</title>
<path fill="none" stroke="midnightblue" d="M405.38,-184.99C348.51,-175.31 253.49,-158.8 172,-143 165.77,-141.79 159.23,-140.48 152.77,-139.15"/>
<polygon fill="midnightblue" stroke="midnightblue" points="153.23,-135.67 142.73,-137.07 151.81,-142.53 153.23,-135.67"/>
</g>
<!-- Node13 -->
<g id="node13" class="node">
<title>Node13</title>
<g id="a_node13"><a xlink:title=" ">
<polygon fill="white" stroke="#bfbfbf" points="1042,-0.5 1042,-19.5 1086,-19.5 1086,-0.5 1042,-0.5"/>
<text text-anchor="middle" x="1064" y="-7.5" font-family="Helvetica,sans-Serif" font-size="10.00">string</text>
</a>
</g>
</g>
<!-- Node12&#45;&gt;Node13 -->
<g id="edge12" class="edge">
<title>Node12&#45;&gt;Node13</title>
<path fill="none" stroke="midnightblue" d="M530.59,-186.82C668.68,-173.1 957.1,-137.76 1034,-76 1048.36,-64.46 1056.15,-44.5 1060.16,-29.73"/>
<polygon fill="midnightblue" stroke="midnightblue" points="1063.64,-30.21 1062.54,-19.68 1056.83,-28.6 1063.64,-30.21"/>
</g>
<!-- Node14 -->
<g id="node14" class="node">
<title>Node14</title>
<g id="a_node14"><a xlink:title=" ">
<polygon fill="white" stroke="#bfbfbf" points="1358.5,-56.5 1358.5,-75.5 1451.5,-75.5 1451.5,-56.5 1358.5,-56.5"/>
<text text-anchor="middle" x="1405" y="-63.5" font-family="Helvetica,sans-Serif" font-size="10.00">unordered_map</text>
</a>
</g>
</g>
<!-- Node12&#45;&gt;Node14 -->
<g id="edge13" class="edge">
<title>Node12&#45;&gt;Node14</title>
<path fill="none" stroke="midnightblue" d="M530.58,-192.42C673.08,-189.55 978.61,-179.24 1077,-143 1099.11,-134.86 1098.21,-120.96 1120,-112 1212.3,-74.03 1245.19,-91.02 1348.07,-76.07"/>
<polygon fill="midnightblue" stroke="midnightblue" points="1348.89,-79.49 1358.25,-74.53 1347.84,-72.57 1348.89,-79.49"/>
</g>
<!-- Node15 -->
<g id="node15" class="node">
<title>Node15</title>
<g id="a_node15"><a xlink:href="_field_desc_types_8_h.html" target="_top" xlink:title=" ">
<polygon fill="white" stroke="black" points="618,-0.5 618,-19.5 794,-19.5 794,-0.5 618,-0.5"/>
<text text-anchor="middle" x="706" y="-7.5" font-family="Helvetica,sans-Serif" font-size="10.00">amr&#45;wind/core/FieldDescTypes.H</text>
</a>
</g>
</g>
<!-- Node12&#45;&gt;Node15 -->
<g id="edge14" class="edge">
<title>Node12&#45;&gt;Node15</title>
<path fill="none" stroke="midnightblue" d="M454.19,-185C449.62,-161.08 440.38,-92.58 475,-56 485.95,-44.43 569.24,-30.26 632.7,-20.95"/>
<polygon fill="midnightblue" stroke="midnightblue" points="633.3,-24.4 642.7,-19.5 632.3,-17.47 633.3,-24.4"/>
</g>
<!-- Node16 -->
<g id="node16" class="node">
<title>Node16</title>
<g id="a_node16"><a xlink:href="_field_utils_8_h.html" target="_top" xlink:title=" ">
<polygon fill="white" stroke="black" points="0,-56.5 0,-75.5 146,-75.5 146,-56.5 0,-56.5"/>
<text text-anchor="middle" x="73" y="-63.5" font-family="Helvetica,sans-Serif" font-size="10.00">amr&#45;wind/core/FieldUtils.H</text>
</a>
</g>
</g>
<!-- Node12&#45;&gt;Node16 -->
<g id="edge15" class="edge">
<title>Node12&#45;&gt;Node16</title>
<path fill="none" stroke="midnightblue" d="M381.41,-186.47C331.3,-179.78 264.7,-167 210,-143 188.43,-133.53 187.26,-124.02 167,-112 146.33,-99.73 121.8,-88.08 102.98,-79.71"/>
<polygon fill="midnightblue" stroke="midnightblue" points="104.28,-76.45 93.71,-75.64 101.46,-82.86 104.28,-76.45"/>
</g>
<!-- Node17 -->
<g id="node17" class="node">
<title>Node17</title>
<g id="a_node17"><a xlink:title=" ">
<polygon fill="white" stroke="#bfbfbf" points="490.5,-0.5 490.5,-19.5 599.5,-19.5 599.5,-0.5 490.5,-0.5"/>
<text text-anchor="middle" x="545" y="-7.5" font-family="Helvetica,sans-Serif" font-size="10.00">AMReX_MultiFab.H</text>
</a>
</g>
</g>
<!-- Node12&#45;&gt;Node17 -->
<g id="edge47" class="edge">
<title>Node12&#45;&gt;Node17</title>
<path fill="none" stroke="midnightblue" d="M388.62,-184.97C349.45,-177.9 300.25,-165.25 261,-143 218.31,-118.8 160.57,-92.84 193,-56 211.63,-34.83 383.64,-20.93 480.12,-14.72"/>
<polygon fill="midnightblue" stroke="midnightblue" points="480.6,-18.2 490.36,-14.07 480.16,-11.21 480.6,-18.2"/>
</g>
<!-- Node12&#45;&gt;Node19 -->
<g id="edge19" class="edge">
<title>Node12&#45;&gt;Node19</title>
<path fill="none" stroke="midnightblue" d="M530.55,-194.18C713.36,-194.99 1198.26,-191.91 1599,-143 1607.19,-142 1615.84,-140.58 1624.19,-139.02"/>
<polygon fill="midnightblue" stroke="midnightblue" points="1625.04,-142.42 1634.18,-137.05 1623.69,-135.55 1625.04,-142.42"/>
</g>
<!-- Node26 -->
<g id="node26" class="node">
<title>Node26</title>
<g id="a_node26"><a xlink:href="_int_field_8_h.html" target="_top" xlink:title=" ">
<polygon fill="white" stroke="black" points="290.5,-118 290.5,-137 427.5,-137 427.5,-118 290.5,-118"/>
<text text-anchor="middle" x="359" y="-125" font-family="Helvetica,sans-Serif" font-size="10.00">amr&#45;wind/core/IntField.H</text>
</a>
</g>
</g>
<!-- Node12&#45;&gt;Node26 -->
<g id="edge34" class="edge">
<title>Node12&#45;&gt;Node26</title>
<path fill="none" stroke="midnightblue" d="M442.92,-184.73C426.85,-173.96 399.37,-155.55 380.25,-142.74"/>
<polygon fill="midnightblue" stroke="midnightblue" points="382.13,-139.79 371.87,-137.13 378.23,-145.6 382.13,-139.79"/>
</g>
<!-- Node12&#45;&gt;Node27 -->
<g id="edge48" class="edge">
<title>Node12&#45;&gt;Node27</title>
<path fill="none" stroke="midnightblue" d="M381.42,-188.15C346.81,-181.99 307.55,-169.21 281,-143 265.78,-127.97 260.56,-103.23 258.81,-86.08"/>
<polygon fill="midnightblue" stroke="midnightblue" points="262.27,-85.36 258.07,-75.63 255.28,-85.85 262.27,-85.36"/>
</g>
<!-- Node28 -->
<g id="node28" class="node">
<title>Node28</title>
<g id="a_node28"><a xlink:href="_scratch_field_8_h.html" target="_top" xlink:title=" ">
<polygon fill="white" stroke="black" points="558,-118 558,-137 718,-137 718,-118 558,-118"/>
<text text-anchor="middle" x="638" y="-125" font-family="Helvetica,sans-Serif" font-size="10.00">amr&#45;wind/core/ScratchField.H</text>
</a>
</g>
</g>
<!-- Node12&#45;&gt;Node28 -->
<g id="edge38" class="edge">
<title>Node12&#45;&gt;Node28</title>
<path fill="none" stroke="midnightblue" d="M480.17,-184.87C512.08,-173.47 568.41,-153.35 604.44,-140.49"/>
<polygon fill="midnightblue" stroke="midnightblue" points="605.78,-143.72 614.02,-137.06 603.43,-137.13 605.78,-143.72"/>
</g>
<!-- Node16&#45;&gt;Node15 -->
<g id="edge16" class="edge">
<title>Node16&#45;&gt;Node15</title>
<path fill="none" stroke="midnightblue" d="M146.14,-59.03C247.22,-50.73 435.61,-35.13 607.84,-20.01"/>
<polygon fill="midnightblue" stroke="midnightblue" points="608.2,-23.49 617.85,-19.13 607.59,-16.52 608.2,-23.49"/>
</g>
<!-- Node16&#45;&gt;Node17 -->
<g id="edge17" class="edge">
<title>Node16&#45;&gt;Node17</title>
<path fill="none" stroke="midnightblue" d="M146.23,-56.62C237.77,-46.15 393,-28.39 480.33,-18.4"/>
<polygon fill="midnightblue" stroke="midnightblue" points="480.84,-21.86 490.38,-17.25 480.05,-14.91 480.84,-21.86"/>
</g>
<!-- Node18 -->
<g id="node18" class="node">
<title>Node18</title>
<g id="a_node18"><a xlink:title=" ">
<polygon fill="white" stroke="#bfbfbf" points="11,-0.5 11,-19.5 135,-19.5 135,-0.5 11,-0.5"/>
<text text-anchor="middle" x="73" y="-7.5" font-family="Helvetica,sans-Serif" font-size="10.00">AMReX_Interpolater.H</text>
</a>
</g>
</g>
<!-- Node16&#45;&gt;Node18 -->
<g id="edge18" class="edge">
<title>Node16&#45;&gt;Node18</title>
<path fill="none" stroke="midnightblue" d="M73,-56.08C73,-49.01 73,-38.86 73,-29.99"/>
<polygon fill="midnightblue" stroke="midnightblue" points="76.5,-29.75 73,-19.75 69.5,-29.75 76.5,-29.75"/>
</g>
<!-- Node19&#45;&gt;Node5 -->
<g id="edge26" class="edge">
<title>Node19&#45;&gt;Node5</title>
<path fill="none" stroke="midnightblue" d="M1733.44,-118.48C1825,-106.71 1994.13,-84.98 2080.38,-73.89"/>
<polygon fill="midnightblue" stroke="midnightblue" points="2081,-77.34 2090.47,-72.59 2080.11,-70.4 2081,-77.34"/>
</g>
<!-- Node19&#45;&gt;Node13 -->
<g id="edge20" class="edge">
<title>Node19&#45;&gt;Node13</title>
<path fill="none" stroke="midnightblue" d="M1722.29,-117.96C1771.96,-107.63 1835.72,-87.58 1806,-56 1781.32,-29.78 1235.7,-15.08 1096.23,-11.74"/>
<polygon fill="midnightblue" stroke="midnightblue" points="1096.26,-8.24 1086.18,-11.5 1096.09,-15.23 1096.26,-8.24"/>
</g>
<!-- Node19&#45;&gt;Node14 -->
<g id="edge22" class="edge">
<title>Node19&#45;&gt;Node14</title>
<path fill="none" stroke="midnightblue" d="M1632.89,-117.98C1585.48,-107.37 1504.52,-89.26 1452.94,-77.72"/>
<polygon fill="midnightblue" stroke="midnightblue" points="1453.56,-74.28 1443.04,-75.51 1452.04,-81.11 1453.56,-74.28"/>
</g>
<!-- Node19&#45;&gt;Node15 -->
<g id="edge28" class="edge">
<title>Node19&#45;&gt;Node15</title>
<path fill="none" stroke="midnightblue" d="M1670.82,-117.79C1669.99,-102.41 1665.82,-70.7 1646,-56 1611.16,-30.16 909.32,-22.22 866,-20 846.03,-18.98 824.67,-17.82 804.27,-16.68"/>
<polygon fill="midnightblue" stroke="midnightblue" points="804.2,-13.17 794.02,-16.11 803.81,-20.16 804.2,-13.17"/>
</g>
<!-- Node19&#45;&gt;Node17 -->
<g id="edge24" class="edge">
<title>Node19&#45;&gt;Node17</title>
<path fill="none" stroke="midnightblue" d="M1663.03,-117.93C1647.75,-102.19 1612.49,-69.07 1575,-56 1476.15,-21.55 754.04,-29.07 609.84,-19.84"/>
<polygon fill="midnightblue" stroke="midnightblue" points="610,-16.34 599.77,-19.08 609.48,-23.32 610,-16.34"/>
</g>
<!-- Node20 -->
<g id="node20" class="node">
<title>Node20</title>
<g id="a_node20"><a xlink:title=" ">
<polygon fill="white" stroke="#bfbfbf" points="1508,-56.5 1508,-75.5 1566,-75.5 1566,-56.5 1508,-56.5"/>
<text text-anchor="middle" x="1537" y="-63.5" font-family="Helvetica,sans-Serif" font-size="10.00">memory</text>
</a>
</g>
</g>
<!-- Node19&#45;&gt;Node20 -->
<g id="edge21" class="edge">
<title>Node19&#45;&gt;Node20</title>
<path fill="none" stroke="midnightblue" d="M1651.8,-117.98C1629.21,-107.95 1591.5,-91.2 1565.5,-79.65"/>
<polygon fill="midnightblue" stroke="midnightblue" points="1566.72,-76.37 1556.16,-75.51 1563.88,-82.77 1566.72,-76.37"/>
</g>
<!-- Node19&#45;&gt;Node21 -->
<g id="edge23" class="edge">
<title>Node19&#45;&gt;Node21</title>
<path fill="none" stroke="midnightblue" d="M1733.26,-121.95C1891.95,-110.37 2308.5,-79.96 2443.27,-70.12"/>
<polygon fill="midnightblue" stroke="midnightblue" points="2443.87,-73.59 2453.59,-69.37 2443.36,-66.6 2443.87,-73.59"/>
</g>
<!-- Node22 -->
<g id="node22" class="node">
<title>Node22</title>
<g id="a_node22"><a xlink:title=" ">
<polygon fill="white" stroke="#bfbfbf" points="1698.5,-56.5 1698.5,-75.5 1797.5,-75.5 1797.5,-56.5 1698.5,-56.5"/>
<text text-anchor="middle" x="1748" y="-63.5" font-family="Helvetica,sans-Serif" font-size="10.00">AMReX_BCRec.H</text>
</a>
</g>
</g>
<!-- Node19&#45;&gt;Node22 -->
<g id="edge25" class="edge">
<title>Node19&#45;&gt;Node22</title>
<path fill="none" stroke="midnightblue" d="M1682.03,-117.98C1694.27,-108.52 1714.23,-93.1 1728.99,-81.69"/>
<polygon fill="midnightblue" stroke="midnightblue" points="1731.22,-84.39 1736.99,-75.51 1726.94,-78.85 1731.22,-84.39"/>
</g>
<!-- Node23 -->
<g id="node23" class="node">
<title>Node23</title>
<g id="a_node23"><a xlink:href="incflo__enums_8_h.html" target="_top" xlink:title=" ">
<polygon fill="white" stroke="black" points="1854.5,-56.5 1854.5,-75.5 1995.5,-75.5 1995.5,-56.5 1854.5,-56.5"/>
<text text-anchor="middle" x="1925" y="-63.5" font-family="Helvetica,sans-Serif" font-size="10.00">amr&#45;wind/incflo_enums.H</text>
</a>
</g>
</g>
<!-- Node19&#45;&gt;Node23 -->
<g id="edge27" class="edge">
<title>Node19&#45;&gt;Node23</title>
<path fill="none" stroke="midnightblue" d="M1707.39,-117.98C1752.57,-107.39 1829.65,-89.34 1878.91,-77.8"/>
<polygon fill="midnightblue" stroke="midnightblue" points="1879.74,-81.2 1888.68,-75.51 1878.14,-74.38 1879.74,-81.2"/>
</g>
<!-- Node24 -->
<g id="node24" class="node">
<title>Node24</title>
<g id="a_node24"><a xlink:href="_view_field_8_h.html" target="_top" xlink:title=" ">
<polygon fill="white" stroke="black" points="850,-56.5 850,-75.5 998,-75.5 998,-56.5 850,-56.5"/>
<text text-anchor="middle" x="924" y="-63.5" font-family="Helvetica,sans-Serif" font-size="10.00">amr&#45;wind/core/ViewField.H</text>
</a>
</g>
</g>
<!-- Node19&#45;&gt;Node24 -->
<g id="edge29" class="edge">
<title>Node19&#45;&gt;Node24</title>
<path fill="none" stroke="midnightblue" d="M1633.42,-117.96C1622.38,-115.71 1610.25,-113.5 1599,-112 1541.92,-104.38 1176.15,-82.03 1008.15,-71.98"/>
<polygon fill="midnightblue" stroke="midnightblue" points="1008.3,-68.49 998.11,-71.38 1007.88,-75.47 1008.3,-68.49"/>
</g>
<!-- Node24&#45;&gt;Node13 -->
<g id="edge30" class="edge">
<title>Node24&#45;&gt;Node13</title>
<path fill="none" stroke="midnightblue" d="M946.18,-56.44C969.43,-47.48 1006.15,-33.31 1032.42,-23.18"/>
<polygon fill="midnightblue" stroke="midnightblue" points="1033.85,-26.38 1041.92,-19.52 1031.33,-19.85 1033.85,-26.38"/>
</g>
<!-- Node24&#45;&gt;Node15 -->
<g id="edge31" class="edge">
<title>Node24&#45;&gt;Node15</title>
<path fill="none" stroke="midnightblue" d="M889.46,-56.44C851.75,-47.1 791.26,-32.12 750.14,-21.93"/>
<polygon fill="midnightblue" stroke="midnightblue" points="750.93,-18.52 740.38,-19.52 749.25,-25.32 750.93,-18.52"/>
</g>
<!-- Node24&#45;&gt;Node17 -->
<g id="edge32" class="edge">
<title>Node24&#45;&gt;Node17</title>
<path fill="none" stroke="midnightblue" d="M863.95,-56.44C794.62,-46.57 681,-30.38 609.74,-20.22"/>
<polygon fill="midnightblue" stroke="midnightblue" points="609.94,-16.72 599.55,-18.77 608.95,-23.65 609.94,-16.72"/>
</g>
<!-- Node25 -->
<g id="node25" class="node">
<title>Node25</title>
<g id="a_node25"><a xlink:title=" ">
<polygon fill="white" stroke="#bfbfbf" points="875,-0.5 875,-19.5 973,-19.5 973,-0.5 875,-0.5"/>
<text text-anchor="middle" x="924" y="-7.5" font-family="Helvetica,sans-Serif" font-size="10.00">AMReX_Vector.H</text>
</a>
</g>
</g>
<!-- Node24&#45;&gt;Node25 -->
<g id="edge33" class="edge">
<title>Node24&#45;&gt;Node25</title>
<path fill="none" stroke="midnightblue" d="M924,-56.08C924,-49.01 924,-38.86 924,-29.99"/>
<polygon fill="midnightblue" stroke="midnightblue" points="927.5,-29.75 924,-19.75 920.5,-29.75 927.5,-29.75"/>
</g>
<!-- Node26&#45;&gt;Node13 -->
<g id="edge35" class="edge">
<title>Node26&#45;&gt;Node13</title>
<path fill="none" stroke="midnightblue" d="M369.34,-117.82C388.65,-102.18 432.11,-69.67 475,-56 582.62,-21.71 869.51,-30.16 982,-20 998.3,-18.53 1016.38,-16.58 1031.41,-14.87"/>
<polygon fill="midnightblue" stroke="midnightblue" points="1032.22,-18.3 1041.75,-13.68 1031.41,-11.34 1032.22,-18.3"/>
</g>
<!-- Node26&#45;&gt;Node15 -->
<g id="edge36" class="edge">
<title>Node26&#45;&gt;Node15</title>
<path fill="none" stroke="midnightblue" d="M356.82,-117.74C353.68,-102.85 349.92,-72.62 366,-56 374.56,-47.15 513.98,-30.95 611.6,-20.6"/>
<polygon fill="midnightblue" stroke="midnightblue" points="612.22,-24.05 621.8,-19.52 611.49,-17.09 612.22,-24.05"/>
</g>
<!-- Node26&#45;&gt;Node27 -->
<g id="edge37" class="edge">
<title>Node26&#45;&gt;Node27</title>
<path fill="none" stroke="midnightblue" d="M344.53,-117.98C328.03,-108.25 300.82,-92.23 281.32,-80.74"/>
<polygon fill="midnightblue" stroke="midnightblue" points="282.84,-77.57 272.44,-75.51 279.28,-83.6 282.84,-77.57"/>
</g>
<!-- Node28&#45;&gt;Node13 -->
<g id="edge39" class="edge">
<title>Node28&#45;&gt;Node13</title>
<path fill="none" stroke="midnightblue" d="M718.15,-122.07C811.33,-115.8 958.52,-102.07 1007,-76 1027.36,-65.05 1043.86,-43.74 1053.77,-28.51"/>
<polygon fill="midnightblue" stroke="midnightblue" points="1056.77,-30.3 1059.06,-19.96 1050.82,-26.62 1056.77,-30.3"/>
</g>
<!-- Node28&#45;&gt;Node15 -->
<g id="edge41" class="edge">
<title>Node28&#45;&gt;Node15</title>
<path fill="none" stroke="midnightblue" d="M639.85,-117.74C643.04,-103.87 650.48,-76.35 663,-56 669.7,-45.12 679.38,-34.69 687.86,-26.62"/>
<polygon fill="midnightblue" stroke="midnightblue" points="690.46,-28.99 695.49,-19.66 685.74,-23.82 690.46,-28.99"/>
</g>
<!-- Node28&#45;&gt;Node17 -->
<g id="edge43" class="edge">
<title>Node28&#45;&gt;Node17</title>
<path fill="none" stroke="midnightblue" d="M557.86,-121.47C526.85,-115.13 494.25,-102.11 475,-76 459.82,-55.4 488.36,-36.02 513.44,-23.87"/>
<polygon fill="midnightblue" stroke="midnightblue" points="515.16,-26.94 522.79,-19.58 512.24,-20.58 515.16,-26.94"/>
</g>
<!-- Node28&#45;&gt;Node24 -->
<g id="edge42" class="edge">
<title>Node28&#45;&gt;Node24</title>
<path fill="none" stroke="midnightblue" d="M678.98,-117.98C730.16,-107.33 817.73,-89.11 873.14,-77.58"/>
<polygon fill="midnightblue" stroke="midnightblue" points="874.02,-80.97 883.1,-75.51 872.6,-74.12 874.02,-80.97"/>
</g>
<!-- Node28&#45;&gt;Node25 -->
<g id="edge44" class="edge">
<title>Node28&#45;&gt;Node25</title>
<path fill="none" stroke="midnightblue" d="M659.5,-117.82C709.72,-97.53 834.92,-46.97 893.22,-23.43"/>
<polygon fill="midnightblue" stroke="midnightblue" points="894.68,-26.61 902.64,-19.62 892.06,-20.12 894.68,-26.61"/>
</g>
<!-- Node29 -->
<g id="node29" class="node">
<title>Node29</title>
<g id="a_node29"><a xlink:title=" ">
<polygon fill="white" stroke="#bfbfbf" points="672.5,-56.5 672.5,-75.5 717.5,-75.5 717.5,-56.5 672.5,-56.5"/>
<text text-anchor="middle" x="695" y="-63.5" font-family="Helvetica,sans-Serif" font-size="10.00">utility</text>
</a>
</g>
</g>
<!-- Node28&#45;&gt;Node29 -->
<g id="edge40" class="edge">
<title>Node28&#45;&gt;Node29</title>
<path fill="none" stroke="midnightblue" d="M646.17,-117.98C654.89,-108.87 668.9,-94.24 679.69,-82.98"/>
<polygon fill="midnightblue" stroke="midnightblue" points="682.46,-85.15 686.85,-75.51 677.4,-80.31 682.46,-85.15"/>
</g>
<!-- Node30 -->
<g id="node30" class="node">
<title>Node30</title>
<g id="a_node30"><a xlink:title=" ">
<polygon fill="white" stroke="#bfbfbf" points="484.5,-56.5 484.5,-75.5 615.5,-75.5 615.5,-56.5 484.5,-56.5"/>
<text text-anchor="middle" x="550" y="-63.5" font-family="Helvetica,sans-Serif" font-size="10.00">AMReX_PhysBCFunct.H</text>
</a>
</g>
</g>
<!-- Node28&#45;&gt;Node30 -->
<g id="edge45" class="edge">
<title>Node28&#45;&gt;Node30</title>
<path fill="none" stroke="midnightblue" d="M625.39,-117.98C611.28,-108.43 588.17,-92.81 571.25,-81.37"/>
<polygon fill="midnightblue" stroke="midnightblue" points="572.83,-78.21 562.58,-75.51 568.91,-84.01 572.83,-78.21"/>
</g>
<!-- Node31&#45;&gt;Node13 -->
<g id="edge50" class="edge">
<title>Node31&#45;&gt;Node13</title>
<path fill="none" stroke="midnightblue" d="M1956.94,-179.43C1973.57,-170.84 1993.24,-158.5 2007,-143 2034.25,-112.3 2066.35,-85.69 2038,-56 2004.76,-21.18 1261.36,-12.71 1096.28,-11.25"/>
<polygon fill="midnightblue" stroke="midnightblue" points="1096.29,-7.75 1086.26,-11.17 1096.23,-14.75 1096.29,-7.75"/>
</g>
<!-- Node31&#45;&gt;Node15 -->
<g id="edge64" class="edge">
<title>Node31&#45;&gt;Node15</title>
<path fill="none" stroke="midnightblue" d="M1943.98,-179.34C1977.63,-152.63 2040.88,-94.06 2004,-56 1959.99,-10.57 929.19,-22.78 866,-20 846.03,-19.12 824.66,-18.03 804.26,-16.91"/>
<polygon fill="midnightblue" stroke="midnightblue" points="804.19,-13.4 794.01,-16.34 803.8,-20.39 804.19,-13.4"/>
</g>
<!-- Node31&#45;&gt;Node23 -->
<g id="edge65" class="edge">
<title>Node31&#45;&gt;Node23</title>
<path fill="none" stroke="midnightblue" d="M1925,-179.48C1925,-156.72 1925,-111.7 1925,-86.06"/>
<polygon fill="midnightblue" stroke="midnightblue" points="1928.5,-85.79 1925,-75.79 1921.5,-85.79 1928.5,-85.79"/>
</g>
<!-- Node32 -->
<g id="node32" class="node">
<title>Node32</title>
<g id="a_node32"><a xlink:href="_factory_8_h.html" target="_top" xlink:title=" ">
<polygon fill="white" stroke="black" points="1301,-118 1301,-137 1435,-137 1435,-118 1301,-118"/>
<text text-anchor="middle" x="1368" y="-125" font-family="Helvetica,sans-Serif" font-size="10.00">amr&#45;wind/core/Factory.H</text>
</a>
</g>
</g>
<!-- Node31&#45;&gt;Node32 -->
<g id="edge51" class="edge">
<title>Node31&#45;&gt;Node32</title>
<path fill="none" stroke="midnightblue" d="M1847.27,-187.36C1751.96,-179.37 1585.63,-163.91 1444,-143 1435.97,-141.81 1427.5,-140.38 1419.24,-138.88"/>
<polygon fill="midnightblue" stroke="midnightblue" points="1419.78,-135.42 1409.31,-137.03 1418.5,-142.31 1419.78,-135.42"/>
</g>
<!-- Node36 -->
<g id="node36" class="node">
<title>Node36</title>
<g id="a_node36"><a xlink:href="_coll_mgr_8_h.html" target="_top" xlink:title=" ">
<polygon fill="white" stroke="black" points="1453.5,-118 1453.5,-137 1590.5,-137 1590.5,-118 1453.5,-118"/>
<text text-anchor="middle" x="1522" y="-125" font-family="Helvetica,sans-Serif" font-size="10.00">amr&#45;wind/core/CollMgr.H</text>
</a>
</g>
</g>
<!-- Node31&#45;&gt;Node36 -->
<g id="edge57" class="edge">
<title>Node31&#45;&gt;Node36</title>
<path fill="none" stroke="midnightblue" d="M1847.41,-182.1C1781.5,-172.27 1684.43,-157.4 1600,-143 1592.36,-141.7 1584.32,-140.27 1576.41,-138.83"/>
<polygon fill="midnightblue" stroke="midnightblue" points="1576.97,-135.37 1566.51,-137.01 1575.71,-142.26 1576.97,-135.37"/>
</g>
<!-- Node37 -->
<g id="node37" class="node">
<title>Node37</title>
<g id="a_node37"><a xlink:href="_p_d_e_fields_8_h.html" target="_top" xlink:title=" ">
<polygon fill="white" stroke="black" points="2059.5,-112.5 2059.5,-142.5 2214.5,-142.5 2214.5,-112.5 2059.5,-112.5"/>
<text text-anchor="start" x="2067.5" y="-130.5" font-family="Helvetica,sans-Serif" font-size="10.00">amr&#45;wind/equation_systems</text>
<text text-anchor="middle" x="2137" y="-119.5" font-family="Helvetica,sans-Serif" font-size="10.00">/PDEFields.H</text>
</a>
</g>
</g>
<!-- Node31&#45;&gt;Node37 -->
<g id="edge62" class="edge">
<title>Node31&#45;&gt;Node37</title>
<path fill="none" stroke="midnightblue" d="M1970.74,-179.48C2003.09,-169.56 2046.65,-156.2 2081.07,-145.65"/>
<polygon fill="midnightblue" stroke="midnightblue" points="2082.44,-148.89 2090.98,-142.61 2080.39,-142.2 2082.44,-148.89"/>
</g>
<!-- Node32&#45;&gt;Node14 -->
<g id="edge53" class="edge">
<title>Node32&#45;&gt;Node14</title>
<path fill="none" stroke="midnightblue" d="M1373.3,-117.98C1378.74,-109.23 1387.36,-95.37 1394.24,-84.31"/>
<polygon fill="midnightblue" stroke="midnightblue" points="1397.4,-85.85 1399.71,-75.51 1391.46,-82.15 1397.4,-85.85"/>
</g>
<!-- Node32&#45;&gt;Node20 -->
<g id="edge52" class="edge">
<title>Node32&#45;&gt;Node20</title>
<path fill="none" stroke="midnightblue" d="M1392.21,-117.98C1421.33,-107.72 1470.37,-90.46 1503.2,-78.9"/>
<polygon fill="midnightblue" stroke="midnightblue" points="1504.56,-82.13 1512.83,-75.51 1502.24,-75.53 1504.56,-82.13"/>
</g>
<!-- Node33 -->
<g id="node33" class="node">
<title>Node33</title>
<g id="a_node33"><a xlink:title=" ">
<polygon fill="white" stroke="#bfbfbf" points="1280,-56.5 1280,-75.5 1340,-75.5 1340,-56.5 1280,-56.5"/>
<text text-anchor="middle" x="1310" y="-63.5" font-family="Helvetica,sans-Serif" font-size="10.00">iostream</text>
</a>
</g>
</g>
<!-- Node32&#45;&gt;Node33 -->
<g id="edge54" class="edge">
<title>Node32&#45;&gt;Node33</title>
<path fill="none" stroke="midnightblue" d="M1359.69,-117.98C1350.82,-108.87 1336.55,-94.24 1325.58,-82.98"/>
<polygon fill="midnightblue" stroke="midnightblue" points="1327.78,-80.23 1318.29,-75.51 1322.77,-85.11 1327.78,-80.23"/>
</g>
<!-- Node34 -->
<g id="node34" class="node">
<title>Node34</title>
<g id="a_node34"><a xlink:title=" ">
<polygon fill="white" stroke="#bfbfbf" points="1092,-56.5 1092,-75.5 1182,-75.5 1182,-56.5 1092,-56.5"/>
<text text-anchor="middle" x="1137" y="-63.5" font-family="Helvetica,sans-Serif" font-size="10.00">AMReX_Print.H</text>
</a>
</g>
</g>
<!-- Node32&#45;&gt;Node34 -->
<g id="edge55" class="edge">
<title>Node32&#45;&gt;Node34</title>
<path fill="none" stroke="midnightblue" d="M1334.9,-117.98C1294.08,-107.46 1224.59,-89.56 1179.76,-78.01"/>
<polygon fill="midnightblue" stroke="midnightblue" points="1180.59,-74.61 1170.04,-75.51 1178.85,-81.39 1180.59,-74.61"/>
</g>
<!-- Node35 -->
<g id="node35" class="node">
<title>Node35</title>
<g id="a_node35"><a xlink:title=" ">
<polygon fill="white" stroke="#bfbfbf" points="1200,-56.5 1200,-75.5 1262,-75.5 1262,-56.5 1200,-56.5"/>
<text text-anchor="middle" x="1231" y="-63.5" font-family="Helvetica,sans-Serif" font-size="10.00">AMReX.H</text>
</a>
</g>
</g>
<!-- Node32&#45;&gt;Node35 -->
<g id="edge56" class="edge">
<title>Node32&#45;&gt;Node35</title>
<path fill="none" stroke="midnightblue" d="M1348.37,-117.98C1325.18,-107.9 1286.38,-91.05 1259.79,-79.5"/>
<polygon fill="midnightblue" stroke="midnightblue" points="1261.16,-76.28 1250.59,-75.51 1258.37,-82.7 1261.16,-76.28"/>
</g>
<!-- Node36&#45;&gt;Node13 -->
<g id="edge58" class="edge">
<title>Node36&#45;&gt;Node13</title>
<path fill="none" stroke="midnightblue" d="M1536.73,-117.84C1558.32,-104.11 1594.03,-76.78 1575,-56 1542.65,-20.68 1203.86,-12.94 1096.47,-11.37"/>
<polygon fill="midnightblue" stroke="midnightblue" points="1096.29,-7.87 1086.24,-11.23 1096.19,-14.87 1096.29,-7.87"/>
</g>
<!-- Node36&#45;&gt;Node14 -->
<g id="edge60" class="edge">
<title>Node36&#45;&gt;Node14</title>
<path fill="none" stroke="midnightblue" d="M1505.24,-117.98C1485.78,-108.08 1453.45,-91.64 1430.79,-80.12"/>
<polygon fill="midnightblue" stroke="midnightblue" points="1432.23,-76.92 1421.73,-75.51 1429.06,-83.16 1432.23,-76.92"/>
</g>
<!-- Node36&#45;&gt;Node20 -->
<g id="edge59" class="edge">
<title>Node36&#45;&gt;Node20</title>
<path fill="none" stroke="midnightblue" d="M1524.15,-117.98C1526.29,-109.49 1529.64,-96.2 1532.38,-85.32"/>
<polygon fill="midnightblue" stroke="midnightblue" points="1535.8,-86.06 1534.85,-75.51 1529.02,-84.35 1535.8,-86.06"/>
</g>
<!-- Node36&#45;&gt;Node25 -->
<g id="edge61" class="edge">
<title>Node36&#45;&gt;Node25</title>
<path fill="none" stroke="midnightblue" d="M1517.28,-117.64C1508.41,-102.02 1487.66,-69.93 1460,-56 1458.68,-55.33 1122.67,-27.45 983.4,-15.92"/>
<polygon fill="midnightblue" stroke="midnightblue" points="983.58,-12.42 973.32,-15.08 983,-19.39 983.58,-12.42"/>
</g>
<!-- Node38 -->
<g id="node38" class="node">
<title>Node38</title>
<g id="a_node38"><a xlink:title=" ">
<polygon fill="white" stroke="#bfbfbf" points="2196,-56.5 2196,-75.5 2244,-75.5 2244,-56.5 2196,-56.5"/>
<text text-anchor="middle" x="2220" y="-63.5" font-family="Helvetica,sans-Serif" font-size="10.00">iosfwd</text>
</a>
</g>
</g>
<!-- Node37&#45;&gt;Node38 -->
<g id="edge63" class="edge">
<title>Node37&#45;&gt;Node38</title>
<path fill="none" stroke="midnightblue" d="M2156.67,-112.4C2169.6,-103.13 2186.49,-91.03 2199.57,-81.65"/>
<polygon fill="midnightblue" stroke="midnightblue" points="2201.83,-84.33 2207.92,-75.66 2197.76,-78.64 2201.83,-84.33"/>
</g>
<!-- Node39&#45;&gt;Node17 -->
<g id="edge69" class="edge">
<title>Node39&#45;&gt;Node17</title>
<path fill="none" stroke="midnightblue" d="M1249.36,-184.95C1170.83,-165.58 973.27,-116.82 808,-76 731.16,-57.02 641.7,-34.91 589.41,-21.98"/>
<polygon fill="midnightblue" stroke="midnightblue" points="590.01,-18.52 579.46,-19.52 588.33,-25.32 590.01,-18.52"/>
</g>
<!-- Node39&#45;&gt;Node32 -->
<g id="edge67" class="edge">
<title>Node39&#45;&gt;Node32</title>
<path fill="none" stroke="midnightblue" d="M1295.33,-184.73C1309.06,-174.11 1332.4,-156.05 1348.92,-143.26"/>
<polygon fill="midnightblue" stroke="midnightblue" points="1351.08,-146.02 1356.85,-137.13 1346.8,-140.48 1351.08,-146.02"/>
</g>
<!-- Node39&#45;&gt;Node36 -->
<g id="edge68" class="edge">
<title>Node39&#45;&gt;Node36</title>
<path fill="none" stroke="midnightblue" d="M1315.6,-184.87C1358.13,-173.25 1433.85,-152.58 1480.8,-139.75"/>
<polygon fill="midnightblue" stroke="midnightblue" points="1481.92,-143.07 1490.64,-137.06 1480.07,-136.32 1481.92,-143.07"/>
</g>
<!-- Node40 -->
<g id="node40" class="node">
<title>Node40</title>
<g id="a_node40"><a xlink:title=" ">
<polygon fill="white" stroke="#bfbfbf" points="1129.5,-118 1129.5,-137 1244.5,-137 1244.5,-118 1129.5,-118"/>
<text text-anchor="middle" x="1187" y="-125" font-family="Helvetica,sans-Serif" font-size="10.00">AMReX_Geometry.H</text>
</a>
</g>
</g>
<!-- Node39&#45;&gt;Node40 -->
<g id="edge70" class="edge">
<title>Node39&#45;&gt;Node40</title>
<path fill="none" stroke="midnightblue" d="M1270.92,-184.73C1254.85,-173.96 1227.37,-155.55 1208.25,-142.74"/>
<polygon fill="midnightblue" stroke="midnightblue" points="1210.13,-139.79 1199.87,-137.13 1206.23,-145.6 1210.13,-139.79"/>
</g>
<!-- Node41&#45;&gt;Node17 -->
<g id="edge75" class="edge">
<title>Node41&#45;&gt;Node17</title>
<path fill="none" stroke="midnightblue" d="M1407.02,-184.95C1375.1,-176.85 1328.92,-162.94 1292,-143 1272.52,-132.48 1273.57,-120.2 1253,-112 1082.26,-43.93 1020.68,-114.73 841,-76 814.76,-70.34 809.93,-62.95 784,-56 725.74,-40.39 658.09,-28.19 609.66,-20.46"/>
<polygon fill="midnightblue" stroke="midnightblue" points="610.06,-16.97 599.63,-18.87 608.96,-23.89 610.06,-16.97"/>
</g>
<!-- Node41&#45;&gt;Node19 -->
<g id="edge74" class="edge">
<title>Node41&#45;&gt;Node19</title>
<path fill="none" stroke="midnightblue" d="M1475.01,-184.87C1515.31,-173.28 1586.99,-152.66 1631.59,-139.83"/>
<polygon fill="midnightblue" stroke="midnightblue" points="1632.58,-143.19 1641.22,-137.06 1630.65,-136.46 1632.58,-143.19"/>
</g>
<!-- Node41&#45;&gt;Node32 -->
<g id="edge73" class="edge">
<title>Node41&#45;&gt;Node32</title>
<path fill="none" stroke="midnightblue" d="M1434.62,-184.73C1422.15,-174.21 1401.03,-156.38 1385.91,-143.62"/>
<polygon fill="midnightblue" stroke="midnightblue" points="1388.12,-140.9 1378.22,-137.13 1383.6,-146.25 1388.12,-140.9"/>
</g>
<!-- Node41&#45;&gt;Node36 -->
<g id="edge72" class="edge">
<title>Node41&#45;&gt;Node36</title>
<path fill="none" stroke="midnightblue" d="M1455.38,-184.73C1467.85,-174.21 1488.97,-156.38 1504.09,-143.62"/>
<polygon fill="midnightblue" stroke="midnightblue" points="1506.4,-146.25 1511.78,-137.13 1501.88,-140.9 1506.4,-146.25"/>
</g>
<!-- Node41&#45;&gt;Node40 -->
<g id="edge76" class="edge">
<title>Node41&#45;&gt;Node40</title>
<path fill="none" stroke="midnightblue" d="M1411.01,-184.94C1364.7,-173.27 1281.73,-152.37 1230.81,-139.54"/>
<polygon fill="midnightblue" stroke="midnightblue" points="1231.62,-136.13 1221.07,-137.08 1229.91,-142.92 1231.62,-136.13"/>
</g>
</g>
</svg>
