<?xml version="1.0" encoding="UTF-8" standalone="no"?>
<!DOCTYPE svg PUBLIC "-//W3C//DTD SVG 1.1//EN"
 "http://www.w3.org/Graphics/SVG/1.1/DTD/svg11.dtd">
<!-- Generated by graphviz version 2.43.0 (0)
 -->
<!-- Title: MeshMap.H Pages: 1 -->
<svg width="4669pt" height="252pt"
 viewBox="0.00 0.00 4668.50 252.00" xmlns="http://www.w3.org/2000/svg" xmlns:xlink="http://www.w3.org/1999/xlink">
<g id="graph0" class="graph" transform="scale(1 1) rotate(0) translate(4 248)">
<title>MeshMap.H</title>
<polygon fill="white" stroke="transparent" points="-4,4 -4,-248 4664.5,-248 4664.5,4 -4,4"/>
<!-- Node1 -->
<g id="node1" class="node">
<title>Node1</title>
<g id="a_node1"><a xlink:title=" ">
<polygon fill="#bfbfbf" stroke="black" points="2510,-224.5 2510,-243.5 2584,-243.5 2584,-224.5 2510,-224.5"/>
<text text-anchor="middle" x="2547" y="-231.5" font-family="Helvetica,sans-Serif" font-size="10.00">MeshMap.H</text>
</a>
</g>
</g>
<!-- Node2 -->
<g id="node2" class="node">
<title>Node2</title>
<g id="a_node2"><a xlink:href="_c_f_d_sim_8_h.html" target="_top" xlink:title=" ">
<polygon fill="white" stroke="red" points="2461,-168.5 2461,-187.5 2527,-187.5 2527,-168.5 2461,-168.5"/>
<text text-anchor="middle" x="2494" y="-175.5" font-family="Helvetica,sans-Serif" font-size="10.00">CFDSim.H</text>
</a>
</g>
</g>
<!-- Node1&#45;&gt;Node2 -->
<g id="edge1" class="edge">
<title>Node1&#45;&gt;Node2</title>
<path fill="none" stroke="midnightblue" d="M2531.02,-216.72C2521.68,-207.2 2510.25,-195.56 2502.59,-187.75"/>
<polygon fill="midnightblue" stroke="midnightblue" points="2528.75,-219.4 2538.25,-224.08 2533.74,-214.49 2528.75,-219.4"/>
</g>
<!-- Node4 -->
<g id="node4" class="node">
<title>Node4</title>
<g id="a_node4"><a xlink:href="_mesh_map_8cpp.html" target="_top" xlink:title=" ">
<polygon fill="white" stroke="black" points="0,-112.5 0,-131.5 84,-131.5 84,-112.5 0,-112.5"/>
<text text-anchor="middle" x="42" y="-119.5" font-family="Helvetica,sans-Serif" font-size="10.00">MeshMap.cpp</text>
</a>
</g>
</g>
<!-- Node1&#45;&gt;Node4 -->
<g id="edge58" class="edge">
<title>Node1&#45;&gt;Node4</title>
<path fill="none" stroke="midnightblue" d="M2499.55,-233.4C2249.43,-235.02 1058.92,-236.63 93,-132 90.14,-131.69 87.2,-131.32 84.24,-130.9"/>
<polygon fill="midnightblue" stroke="midnightblue" points="2499.77,-236.9 2509.75,-233.33 2499.72,-229.9 2499.77,-236.9"/>
</g>
<!-- Node194 -->
<g id="node49" class="node">
<title>Node194</title>
<g id="a_node49"><a xlink:href="_channel_flow_map_8_h.html" target="_top" xlink:title=" ">
<polygon fill="white" stroke="red" points="2545.5,-168.5 2545.5,-187.5 2656.5,-187.5 2656.5,-168.5 2545.5,-168.5"/>
<text text-anchor="middle" x="2601" y="-175.5" font-family="Helvetica,sans-Serif" font-size="10.00">ChannelFlowMap.H</text>
</a>
</g>
</g>
<!-- Node1&#45;&gt;Node194 -->
<g id="edge59" class="edge">
<title>Node1&#45;&gt;Node194</title>
<path fill="none" stroke="midnightblue" d="M2563,-217C2572.57,-207.43 2584.36,-195.64 2592.25,-187.75"/>
<polygon fill="midnightblue" stroke="midnightblue" points="2560.51,-214.54 2555.92,-224.08 2565.46,-219.49 2560.51,-214.54"/>
</g>
<!-- Node196 -->
<g id="node50" class="node">
<title>Node196</title>
<g id="a_node50"><a xlink:href="_constant_map_8_h.html" target="_top" xlink:title=" ">
<polygon fill="white" stroke="red" points="2675,-168.5 2675,-187.5 2767,-187.5 2767,-168.5 2675,-168.5"/>
<text text-anchor="middle" x="2721" y="-175.5" font-family="Helvetica,sans-Serif" font-size="10.00">ConstantMap.H</text>
</a>
</g>
</g>
<!-- Node1&#45;&gt;Node196 -->
<g id="edge60" class="edge">
<title>Node1&#45;&gt;Node196</title>
<path fill="none" stroke="midnightblue" d="M2584.26,-221.44C2617.07,-211.26 2664.08,-196.66 2693.56,-187.52"/>
<polygon fill="midnightblue" stroke="midnightblue" points="2583.08,-218.14 2574.57,-224.44 2585.16,-224.82 2583.08,-218.14"/>
</g>
<!-- Node3 -->
<g id="node3" class="node">
<title>Node3</title>
<g id="a_node3"><a xlink:href="_c_f_d_sim_8cpp.html" target="_top" xlink:title=" ">
<polygon fill="white" stroke="black" points="102,-112.5 102,-131.5 178,-131.5 178,-112.5 102,-112.5"/>
<text text-anchor="middle" x="140" y="-119.5" font-family="Helvetica,sans-Serif" font-size="10.00">CFDSim.cpp</text>
</a>
</g>
</g>
<!-- Node2&#45;&gt;Node3 -->
<g id="edge2" class="edge">
<title>Node2&#45;&gt;Node3</title>
<path fill="none" stroke="midnightblue" d="M2450.45,-176.6C2152.51,-173.77 419.94,-156.4 187,-132 184.11,-131.7 181.13,-131.31 178.14,-130.86"/>
<polygon fill="midnightblue" stroke="midnightblue" points="2450.8,-180.1 2460.83,-176.69 2450.86,-173.1 2450.8,-180.1"/>
</g>
<!-- Node2&#45;&gt;Node4 -->
<g id="edge3" class="edge">
<title>Node2&#45;&gt;Node4</title>
<path fill="none" stroke="midnightblue" d="M2450.59,-176.59C2146.13,-173.7 336.11,-155.58 93,-132 90.14,-131.72 87.19,-131.37 84.23,-130.98"/>
<polygon fill="midnightblue" stroke="midnightblue" points="2450.75,-180.1 2460.78,-176.69 2450.81,-173.1 2450.75,-180.1"/>
</g>
<!-- Node5 -->
<g id="node5" class="node">
<title>Node5</title>
<g id="a_node5"><a xlink:href="incflo_8_h.html" target="_top" xlink:title=" ">
<polygon fill="white" stroke="red" points="196.5,-112.5 196.5,-131.5 249.5,-131.5 249.5,-112.5 196.5,-112.5"/>
<text text-anchor="middle" x="223" y="-119.5" font-family="Helvetica,sans-Serif" font-size="10.00">incflo.H</text>
</a>
</g>
</g>
<!-- Node2&#45;&gt;Node5 -->
<g id="edge4" class="edge">
<title>Node2&#45;&gt;Node5</title>
<path fill="none" stroke="midnightblue" d="M2450.38,-176.73C2157.55,-174.83 482.55,-162.71 258,-132 255.26,-131.63 252.44,-131.11 249.63,-130.52"/>
<polygon fill="midnightblue" stroke="midnightblue" points="2450.58,-180.23 2460.6,-176.8 2450.62,-173.23 2450.58,-180.23"/>
</g>
<!-- Node17 -->
<g id="node6" class="node">
<title>Node17</title>
<g id="a_node6"><a xlink:href="_p_d_e_ops_8_h.html" target="_top" xlink:title=" ">
<polygon fill="white" stroke="red" points="267.5,-112.5 267.5,-131.5 332.5,-131.5 332.5,-112.5 267.5,-112.5"/>
<text text-anchor="middle" x="300" y="-119.5" font-family="Helvetica,sans-Serif" font-size="10.00">PDEOps.H</text>
</a>
</g>
</g>
<!-- Node2&#45;&gt;Node17 -->
<g id="edge5" class="edge">
<title>Node2&#45;&gt;Node17</title>
<path fill="none" stroke="midnightblue" d="M2450.37,-176.53C2164.4,-173.37 562.98,-154.78 347,-132 342.29,-131.5 337.35,-130.78 332.51,-129.96"/>
<polygon fill="midnightblue" stroke="midnightblue" points="2450.7,-180.03 2460.74,-176.64 2450.78,-173.03 2450.7,-180.03"/>
</g>
<!-- Node34 -->
<g id="node7" class="node">
<title>Node34</title>
<g id="a_node7"><a xlink:href="_p_d_e_8_h.html" target="_top" xlink:title=" ">
<polygon fill="white" stroke="red" points="307.5,-56.5 307.5,-75.5 354.5,-75.5 354.5,-56.5 307.5,-56.5"/>
<text text-anchor="middle" x="331" y="-63.5" font-family="Helvetica,sans-Serif" font-size="10.00">PDE.H</text>
</a>
</g>
</g>
<!-- Node2&#45;&gt;Node34 -->
<g id="edge7" class="edge">
<title>Node2&#45;&gt;Node34</title>
<path fill="none" stroke="midnightblue" d="M2450.37,-176.6C2152.42,-173.78 427.76,-156.45 380,-132 356.35,-119.9 341.01,-90.51 334.53,-75.76"/>
<polygon fill="midnightblue" stroke="midnightblue" points="2450.73,-180.1 2460.76,-176.69 2450.79,-173.1 2450.73,-180.1"/>
</g>
<!-- Node56 -->
<g id="node8" class="node">
<title>Node56</title>
<g id="a_node8"><a xlink:href="_a_b_l_forcing_8cpp.html" target="_top" xlink:title=" ">
<polygon fill="white" stroke="black" points="389.5,-112.5 389.5,-131.5 480.5,-131.5 480.5,-112.5 389.5,-112.5"/>
<text text-anchor="middle" x="435" y="-119.5" font-family="Helvetica,sans-Serif" font-size="10.00">ABLForcing.cpp</text>
</a>
</g>
</g>
<!-- Node2&#45;&gt;Node56 -->
<g id="edge8" class="edge">
<title>Node2&#45;&gt;Node56</title>
<path fill="none" stroke="midnightblue" d="M2450.52,-176.77C2195.72,-175.31 893.72,-166.25 495,-132 490.38,-131.6 485.58,-131.08 480.79,-130.48"/>
<polygon fill="midnightblue" stroke="midnightblue" points="2450.83,-180.27 2460.85,-176.83 2450.87,-173.27 2450.83,-180.27"/>
</g>
<!-- Node57 -->
<g id="node9" class="node">
<title>Node57</title>
<g id="a_node9"><a xlink:href="_a_b_l_wall_function_8_h.html" target="_top" xlink:title=" ">
<polygon fill="white" stroke="red" points="584.5,-56.5 584.5,-75.5 691.5,-75.5 691.5,-56.5 584.5,-56.5"/>
<text text-anchor="middle" x="638" y="-63.5" font-family="Helvetica,sans-Serif" font-size="10.00">ABLWallFunction.H</text>
</a>
</g>
</g>
<!-- Node2&#45;&gt;Node57 -->
<g id="edge9" class="edge">
<title>Node2&#45;&gt;Node57</title>
<path fill="none" stroke="midnightblue" d="M2450.5,-176.82C2167.64,-175.54 600.05,-166.86 566,-132 545.17,-110.68 587.56,-87.77 615.71,-75.66"/>
<polygon fill="midnightblue" stroke="midnightblue" points="2450.75,-180.32 2460.77,-176.86 2450.78,-173.32 2450.75,-180.32"/>
</g>
<!-- Node61 -->
<g id="node10" class="node">
<title>Node61</title>
<g id="a_node10"><a xlink:href="_a_b_l_stats_base_8_h.html" target="_top" xlink:title=" ">
<polygon fill="white" stroke="red" points="525.5,-0.5 525.5,-19.5 620.5,-19.5 620.5,-0.5 525.5,-0.5"/>
<text text-anchor="middle" x="573" y="-7.5" font-family="Helvetica,sans-Serif" font-size="10.00">ABLStatsBase.H</text>
</a>
</g>
</g>
<!-- Node2&#45;&gt;Node61 -->
<g id="edge17" class="edge">
<title>Node2&#45;&gt;Node61</title>
<path fill="none" stroke="midnightblue" d="M2450.3,-176.82C2166.12,-175.56 591.22,-167.02 557,-132 526.64,-100.93 555.16,-42.03 567.73,-19.79"/>
<polygon fill="midnightblue" stroke="midnightblue" points="2450.6,-180.32 2460.61,-176.87 2450.63,-173.32 2450.6,-180.32"/>
</g>
<!-- Node64 -->
<g id="node11" class="node">
<title>Node64</title>
<g id="a_node11"><a xlink:href="_boussinesq_bubble_8cpp.html" target="_top" xlink:title=" ">
<polygon fill="white" stroke="black" points="639,-0.5 639,-19.5 765,-19.5 765,-0.5 639,-0.5"/>
<text text-anchor="middle" x="702" y="-7.5" font-family="Helvetica,sans-Serif" font-size="10.00">BoussinesqBubble.cpp</text>
</a>
</g>
</g>
<!-- Node2&#45;&gt;Node64 -->
<g id="edge37" class="edge">
<title>Node2&#45;&gt;Node64</title>
<path fill="none" stroke="midnightblue" d="M2450.65,-177.03C2212,-177.04 1063.51,-174.84 912,-132 901.19,-128.94 762.35,-46.83 716.55,-19.64"/>
<polygon fill="midnightblue" stroke="midnightblue" points="2450.69,-180.53 2460.69,-177.03 2450.69,-173.53 2450.69,-180.53"/>
</g>
<!-- Node65 -->
<g id="node12" class="node">
<title>Node65</title>
<g id="a_node12"><a xlink:href="_field_plane_averaging_8_h.html" target="_top" xlink:title=" ">
<polygon fill="white" stroke="red" points="575,-112.5 575,-131.5 701,-131.5 701,-112.5 575,-112.5"/>
<text text-anchor="middle" x="638" y="-119.5" font-family="Helvetica,sans-Serif" font-size="10.00">FieldPlaneAveraging.H</text>
</a>
</g>
</g>
<!-- Node2&#45;&gt;Node65 -->
<g id="edge12" class="edge">
<title>Node2&#45;&gt;Node65</title>
<path fill="none" stroke="midnightblue" d="M2450.4,-176.49C2211.96,-173.6 1063.72,-158.5 710,-132 707.11,-131.78 704.16,-131.53 701.18,-131.26"/>
<polygon fill="midnightblue" stroke="midnightblue" points="2450.7,-179.99 2460.74,-176.61 2450.78,-172.99 2450.7,-179.99"/>
</g>
<!-- Node72 -->
<g id="node13" class="node">
<title>Node72</title>
<g id="a_node13"><a xlink:href="_field_plane_averaging_fine_8_h.html" target="_top" xlink:title=" ">
<polygon fill="white" stroke="red" points="719,-112.5 719,-131.5 865,-131.5 865,-112.5 719,-112.5"/>
<text text-anchor="middle" x="792" y="-119.5" font-family="Helvetica,sans-Serif" font-size="10.00">FieldPlaneAveragingFine.H</text>
</a>
</g>
</g>
<!-- Node2&#45;&gt;Node72 -->
<g id="edge14" class="edge">
<title>Node2&#45;&gt;Node72</title>
<path fill="none" stroke="midnightblue" d="M2450.71,-176.99C2263.18,-176.69 1502.25,-172.86 879,-132 874.45,-131.7 869.78,-131.35 865.07,-130.96"/>
<polygon fill="midnightblue" stroke="midnightblue" points="2450.98,-180.49 2460.98,-177 2450.99,-173.49 2450.98,-180.49"/>
</g>
<!-- Node74 -->
<g id="node14" class="node">
<title>Node74</title>
<g id="a_node14"><a xlink:href="_a_b_l_boundary_plane_8_h.html" target="_top" xlink:title=" ">
<polygon fill="white" stroke="red" points="921.5,-112.5 921.5,-131.5 1040.5,-131.5 1040.5,-112.5 921.5,-112.5"/>
<text text-anchor="middle" x="981" y="-119.5" font-family="Helvetica,sans-Serif" font-size="10.00">ABLBoundaryPlane.H</text>
</a>
</g>
</g>
<!-- Node2&#45;&gt;Node74 -->
<g id="edge16" class="edge">
<title>Node2&#45;&gt;Node74</title>
<path fill="none" stroke="midnightblue" d="M2450.77,-177.21C2275.64,-177.71 1601.86,-176.48 1050,-132 1046.99,-131.76 1043.91,-131.48 1040.8,-131.17"/>
<polygon fill="midnightblue" stroke="midnightblue" points="2450.89,-180.71 2460.88,-177.17 2450.87,-173.71 2450.89,-180.71"/>
</g>
<!-- Node78 -->
<g id="node15" class="node">
<title>Node78</title>
<g id="a_node15"><a xlink:href="_a_b_l_modulated_power_law_8_h.html" target="_top" xlink:title=" ">
<polygon fill="white" stroke="red" points="1059,-112.5 1059,-131.5 1205,-131.5 1205,-112.5 1059,-112.5"/>
<text text-anchor="middle" x="1132" y="-119.5" font-family="Helvetica,sans-Serif" font-size="10.00">ABLModulatedPowerLaw.H</text>
</a>
</g>
</g>
<!-- Node2&#45;&gt;Node78 -->
<g id="edge18" class="edge">
<title>Node2&#45;&gt;Node78</title>
<path fill="none" stroke="midnightblue" d="M2450.74,-176.64C2288.18,-175.05 1698.49,-167.06 1214,-132 1211.14,-131.79 1208.23,-131.56 1205.29,-131.32"/>
<polygon fill="midnightblue" stroke="midnightblue" points="2450.79,-180.14 2460.82,-176.74 2450.86,-173.14 2450.79,-180.14"/>
</g>
<!-- Node59 -->
<g id="node16" class="node">
<title>Node59</title>
<g id="a_node16"><a xlink:href="_a_b_l_mean_boussinesq_8cpp.html" target="_top" xlink:title=" ">
<polygon fill="white" stroke="black" points="1223,-112.5 1223,-131.5 1361,-131.5 1361,-112.5 1223,-112.5"/>
<text text-anchor="middle" x="1292" y="-119.5" font-family="Helvetica,sans-Serif" font-size="10.00">ABLMeanBoussinesq.cpp</text>
</a>
</g>
</g>
<!-- Node2&#45;&gt;Node59 -->
<g id="edge19" class="edge">
<title>Node2&#45;&gt;Node59</title>
<path fill="none" stroke="midnightblue" d="M2450.68,-176.43C2300.77,-174.22 1790.22,-164.61 1370,-132 1367.15,-131.78 1364.24,-131.53 1361.3,-131.27"/>
<polygon fill="midnightblue" stroke="midnightblue" points="2450.8,-179.93 2460.85,-176.58 2450.9,-172.93 2450.8,-179.93"/>
</g>
<!-- Node82 -->
<g id="node17" class="node">
<title>Node82</title>
<g id="a_node17"><a xlink:href="_actuator_forcing_8cpp.html" target="_top" xlink:title=" ">
<polygon fill="white" stroke="black" points="1379.5,-112.5 1379.5,-131.5 1492.5,-131.5 1492.5,-112.5 1379.5,-112.5"/>
<text text-anchor="middle" x="1436" y="-119.5" font-family="Helvetica,sans-Serif" font-size="10.00">ActuatorForcing.cpp</text>
</a>
</g>
</g>
<!-- Node2&#45;&gt;Node82 -->
<g id="edge20" class="edge">
<title>Node2&#45;&gt;Node82</title>
<path fill="none" stroke="midnightblue" d="M2450.77,-176.43C2312.41,-174.31 1868.05,-165.19 1502,-132 1499.01,-131.73 1495.94,-131.42 1492.84,-131.08"/>
<polygon fill="midnightblue" stroke="midnightblue" points="2450.91,-179.93 2460.96,-176.58 2451.01,-172.93 2450.91,-179.93"/>
</g>
<!-- Node83 -->
<g id="node18" class="node">
<title>Node83</title>
<g id="a_node18"><a xlink:href="_body_force_8cpp.html" target="_top" xlink:title=" ">
<polygon fill="white" stroke="black" points="1511,-112.5 1511,-131.5 1599,-131.5 1599,-112.5 1511,-112.5"/>
<text text-anchor="middle" x="1555" y="-119.5" font-family="Helvetica,sans-Serif" font-size="10.00">BodyForce.cpp</text>
</a>
</g>
</g>
<!-- Node2&#45;&gt;Node83 -->
<g id="edge21" class="edge">
<title>Node2&#45;&gt;Node83</title>
<path fill="none" stroke="midnightblue" d="M2450.67,-176.6C2321.9,-175.02 1930.39,-167.44 1608,-132 1605.12,-131.68 1602.17,-131.31 1599.19,-130.9"/>
<polygon fill="midnightblue" stroke="midnightblue" points="2450.86,-180.1 2460.9,-176.72 2450.94,-173.1 2450.86,-180.1"/>
</g>
<!-- Node84 -->
<g id="node19" class="node">
<title>Node84</title>
<g id="a_node19"><a xlink:href="_boussinesq_buoyancy_8cpp.html" target="_top" xlink:title=" ">
<polygon fill="white" stroke="black" points="1617.5,-112.5 1617.5,-131.5 1756.5,-131.5 1756.5,-112.5 1617.5,-112.5"/>
<text text-anchor="middle" x="1687" y="-119.5" font-family="Helvetica,sans-Serif" font-size="10.00">BoussinesqBuoyancy.cpp</text>
</a>
</g>
</g>
<!-- Node2&#45;&gt;Node84 -->
<g id="edge22" class="edge">
<title>Node2&#45;&gt;Node84</title>
<path fill="none" stroke="midnightblue" d="M2450.58,-175.13C2337.52,-170.08 2024.71,-154.98 1765,-132 1762.28,-131.76 1759.52,-131.5 1756.72,-131.23"/>
<polygon fill="midnightblue" stroke="midnightblue" points="2450.75,-178.64 2460.89,-175.59 2451.06,-171.65 2450.75,-178.64"/>
</g>
<!-- Node85 -->
<g id="node20" class="node">
<title>Node85</title>
<g id="a_node20"><a xlink:href="_coriolis_forcing_8cpp.html" target="_top" xlink:title=" ">
<polygon fill="white" stroke="black" points="1774.5,-112.5 1774.5,-131.5 1883.5,-131.5 1883.5,-112.5 1774.5,-112.5"/>
<text text-anchor="middle" x="1829" y="-119.5" font-family="Helvetica,sans-Serif" font-size="10.00">CoriolisForcing.cpp</text>
</a>
</g>
</g>
<!-- Node2&#45;&gt;Node85 -->
<g id="edge23" class="edge">
<title>Node2&#45;&gt;Node85</title>
<path fill="none" stroke="midnightblue" d="M2450.76,-174.77C2351.72,-169.44 2100.85,-154.7 1892,-132 1889.25,-131.7 1886.44,-131.38 1883.61,-131.03"/>
<polygon fill="midnightblue" stroke="midnightblue" points="2450.8,-178.28 2460.97,-175.31 2451.17,-171.29 2450.8,-178.28"/>
</g>
<!-- Node86 -->
<g id="node21" class="node">
<title>Node86</title>
<g id="a_node21"><a xlink:href="_density_buoyancy_8cpp.html" target="_top" xlink:title=" ">
<polygon fill="white" stroke="black" points="1901.5,-112.5 1901.5,-131.5 2022.5,-131.5 2022.5,-112.5 1901.5,-112.5"/>
<text text-anchor="middle" x="1962" y="-119.5" font-family="Helvetica,sans-Serif" font-size="10.00">DensityBuoyancy.cpp</text>
</a>
</g>
</g>
<!-- Node2&#45;&gt;Node86 -->
<g id="edge24" class="edge">
<title>Node2&#45;&gt;Node86</title>
<path fill="none" stroke="midnightblue" d="M2450.65,-173.26C2368.62,-166.09 2185.13,-149.54 2031,-132 2028.24,-131.69 2025.42,-131.36 2022.57,-131.01"/>
<polygon fill="midnightblue" stroke="midnightblue" points="2450.57,-176.77 2460.84,-174.15 2451.18,-169.8 2450.57,-176.77"/>
</g>
<!-- Node87 -->
<g id="node22" class="node">
<title>Node87</title>
<g id="a_node22"><a xlink:href="_geostrophic_forcing_8cpp.html" target="_top" xlink:title=" ">
<polygon fill="white" stroke="black" points="2040.5,-112.5 2040.5,-131.5 2171.5,-131.5 2171.5,-112.5 2040.5,-112.5"/>
<text text-anchor="middle" x="2106" y="-119.5" font-family="Helvetica,sans-Serif" font-size="10.00">GeostrophicForcing.cpp</text>
</a>
</g>
</g>
<!-- Node2&#45;&gt;Node87 -->
<g id="edge25" class="edge">
<title>Node2&#45;&gt;Node87</title>
<path fill="none" stroke="midnightblue" d="M2450.83,-170.99C2381.8,-161.39 2246.34,-142.53 2167.3,-131.53"/>
<polygon fill="midnightblue" stroke="midnightblue" points="2450.53,-174.48 2460.92,-172.4 2451.5,-167.55 2450.53,-174.48"/>
</g>
<!-- Node88 -->
<g id="node23" class="node">
<title>Node88</title>
<g id="a_node23"><a xlink:href="_gravity_forcing_8cpp.html" target="_top" xlink:title=" ">
<polygon fill="white" stroke="black" points="2190,-112.5 2190,-131.5 2298,-131.5 2298,-112.5 2190,-112.5"/>
<text text-anchor="middle" x="2244" y="-119.5" font-family="Helvetica,sans-Serif" font-size="10.00">GravityForcing.cpp</text>
</a>
</g>
</g>
<!-- Node2&#45;&gt;Node88 -->
<g id="edge26" class="edge">
<title>Node2&#45;&gt;Node88</title>
<path fill="none" stroke="midnightblue" d="M2450.91,-167.69C2403.85,-157.53 2329.13,-141.39 2283.52,-131.54"/>
<polygon fill="midnightblue" stroke="midnightblue" points="2450.29,-171.14 2460.8,-169.83 2451.77,-164.3 2450.29,-171.14"/>
</g>
<!-- Node89 -->
<g id="node24" class="node">
<title>Node89</title>
<g id="a_node24"><a xlink:href="_synth_turb_forcing_8cpp.html" target="_top" xlink:title=" ">
<polygon fill="white" stroke="black" points="2316,-112.5 2316,-131.5 2436,-131.5 2436,-112.5 2316,-112.5"/>
<text text-anchor="middle" x="2376" y="-119.5" font-family="Helvetica,sans-Serif" font-size="10.00">SynthTurbForcing.cpp</text>
</a>
</g>
</g>
<!-- Node2&#45;&gt;Node89 -->
<g id="edge27" class="edge">
<title>Node2&#45;&gt;Node89</title>
<path fill="none" stroke="midnightblue" d="M2466.1,-164.23C2444.03,-154.13 2413.82,-140.31 2394.61,-131.52"/>
<polygon fill="midnightblue" stroke="midnightblue" points="2464.75,-167.46 2475.3,-168.44 2467.67,-161.1 2464.75,-167.46"/>
</g>
<!-- Node90 -->
<g id="node25" class="node">
<title>Node90</title>
<g id="a_node25"><a xlink:href="_p_d_e_base_8cpp.html" target="_top" xlink:title=" ">
<polygon fill="white" stroke="black" points="2454,-112.5 2454,-131.5 2534,-131.5 2534,-112.5 2454,-112.5"/>
<text text-anchor="middle" x="2494" y="-119.5" font-family="Helvetica,sans-Serif" font-size="10.00">PDEBase.cpp</text>
</a>
</g>
</g>
<!-- Node2&#45;&gt;Node90 -->
<g id="edge28" class="edge">
<title>Node2&#45;&gt;Node90</title>
<path fill="none" stroke="midnightblue" d="M2494,-157.8C2494,-148.91 2494,-138.78 2494,-131.75"/>
<polygon fill="midnightblue" stroke="midnightblue" points="2490.5,-158.08 2494,-168.08 2497.5,-158.08 2490.5,-158.08"/>
</g>
<!-- Node91 -->
<g id="node26" class="node">
<title>Node91</title>
<g id="a_node26"><a xlink:href="_s_d_r_src_8cpp.html" target="_top" xlink:title=" ">
<polygon fill="white" stroke="black" points="2552,-112.5 2552,-131.5 2624,-131.5 2624,-112.5 2552,-112.5"/>
<text text-anchor="middle" x="2588" y="-119.5" font-family="Helvetica,sans-Serif" font-size="10.00">SDRSrc.cpp</text>
</a>
</g>
</g>
<!-- Node2&#45;&gt;Node91 -->
<g id="edge29" class="edge">
<title>Node2&#45;&gt;Node91</title>
<path fill="none" stroke="midnightblue" d="M2518.06,-163.18C2535.36,-153.24 2558.15,-140.15 2572.93,-131.65"/>
<polygon fill="midnightblue" stroke="midnightblue" points="2516.03,-160.31 2509.1,-168.32 2519.52,-166.38 2516.03,-160.31"/>
</g>
<!-- Node92 -->
<g id="node27" class="node">
<title>Node92</title>
<g id="a_node27"><a xlink:href="_ksgs_m84_src_8cpp.html" target="_top" xlink:title=" ">
<polygon fill="white" stroke="black" points="2642,-112.5 2642,-131.5 2738,-131.5 2738,-112.5 2642,-112.5"/>
<text text-anchor="middle" x="2690" y="-119.5" font-family="Helvetica,sans-Serif" font-size="10.00">KsgsM84Src.cpp</text>
</a>
</g>
</g>
<!-- Node2&#45;&gt;Node92 -->
<g id="edge30" class="edge">
<title>Node2&#45;&gt;Node92</title>
<path fill="none" stroke="midnightblue" d="M2535.02,-165.7C2572.01,-155.51 2625.6,-140.74 2659.09,-131.52"/>
<polygon fill="midnightblue" stroke="midnightblue" points="2533.77,-162.41 2525.06,-168.44 2535.63,-169.16 2533.77,-162.41"/>
</g>
<!-- Node93 -->
<g id="node28" class="node">
<title>Node93</title>
<g id="a_node28"><a xlink:href="_kw_s_s_t_src_8cpp.html" target="_top" xlink:title=" ">
<polygon fill="white" stroke="black" points="2756.5,-112.5 2756.5,-131.5 2841.5,-131.5 2841.5,-112.5 2756.5,-112.5"/>
<text text-anchor="middle" x="2799" y="-119.5" font-family="Helvetica,sans-Serif" font-size="10.00">KwSSTSrc.cpp</text>
</a>
</g>
</g>
<!-- Node2&#45;&gt;Node93 -->
<g id="edge31" class="edge">
<title>Node2&#45;&gt;Node93</title>
<path fill="none" stroke="midnightblue" d="M2537.35,-167.8C2631.08,-149.89 2656.35,-147.58 2747,-132 2750.07,-131.47 2753.24,-130.93 2756.43,-130.38"/>
<polygon fill="midnightblue" stroke="midnightblue" points="2536.61,-164.38 2527.44,-169.7 2537.93,-171.25 2536.61,-164.38"/>
</g>
<!-- Node94 -->
<g id="node29" class="node">
<title>Node94</title>
<g id="a_node29"><a xlink:href="_i_b_ops_8_h.html" target="_top" xlink:title=" ">
<polygon fill="white" stroke="red" points="2860,-112.5 2860,-131.5 2916,-131.5 2916,-112.5 2860,-112.5"/>
<text text-anchor="middle" x="2888" y="-119.5" font-family="Helvetica,sans-Serif" font-size="10.00">IBOps.H</text>
</a>
</g>
</g>
<!-- Node2&#45;&gt;Node94 -->
<g id="edge32" class="edge">
<title>Node2&#45;&gt;Node94</title>
<path fill="none" stroke="midnightblue" d="M2537.59,-167.88C2676.41,-145.75 2714.88,-155.66 2850,-132 2853.21,-131.44 2856.54,-130.77 2859.86,-130.06"/>
<polygon fill="midnightblue" stroke="midnightblue" points="2536.73,-164.48 2527.42,-169.53 2537.85,-171.39 2536.73,-164.48"/>
</g>
<!-- Node105 -->
<g id="node30" class="node">
<title>Node105</title>
<g id="a_node30"><a xlink:href="_convecting_taylor_vortex_8_h.html" target="_top" xlink:title=" ">
<polygon fill="white" stroke="red" points="2934.5,-112.5 2934.5,-131.5 3077.5,-131.5 3077.5,-112.5 2934.5,-112.5"/>
<text text-anchor="middle" x="3006" y="-119.5" font-family="Helvetica,sans-Serif" font-size="10.00">ConvectingTaylorVortex.H</text>
</a>
</g>
</g>
<!-- Node2&#45;&gt;Node105 -->
<g id="edge33" class="edge">
<title>Node2&#45;&gt;Node105</title>
<path fill="none" stroke="midnightblue" d="M2537.3,-167.96C2709.33,-142.05 2755.47,-149.26 2925,-132 2928.1,-131.68 2931.26,-131.36 2934.45,-131.02"/>
<polygon fill="midnightblue" stroke="midnightblue" points="2536.76,-164.5 2527.4,-169.47 2537.82,-171.42 2536.76,-164.5"/>
</g>
<!-- Node106 -->
<g id="node31" class="node">
<title>Node106</title>
<g id="a_node31"><a xlink:href="_convecting_taylor_vortex_8cpp.html" target="_top" xlink:title=" ">
<polygon fill="white" stroke="black" points="2980,-56.5 2980,-75.5 3132,-75.5 3132,-56.5 2980,-56.5"/>
<text text-anchor="middle" x="3056" y="-63.5" font-family="Helvetica,sans-Serif" font-size="10.00">ConvectingTaylorVortex.cpp</text>
</a>
</g>
</g>
<!-- Node2&#45;&gt;Node106 -->
<g id="edge41" class="edge">
<title>Node2&#45;&gt;Node106</title>
<path fill="none" stroke="midnightblue" d="M2537.48,-168.33C2631.84,-160.83 3045.81,-174.91 3086,-132 3101.63,-115.31 3079.3,-89.03 3065.49,-75.57"/>
<polygon fill="midnightblue" stroke="midnightblue" points="2536.97,-164.86 2527.39,-169.39 2537.7,-171.83 2536.97,-164.86"/>
</g>
<!-- Node104 -->
<g id="node32" class="node">
<title>Node104</title>
<g id="a_node32"><a xlink:href="_i_b_8cpp.html" target="_top" xlink:title=" ">
<polygon fill="white" stroke="black" points="3134.5,-112.5 3134.5,-131.5 3181.5,-131.5 3181.5,-112.5 3134.5,-112.5"/>
<text text-anchor="middle" x="3158" y="-119.5" font-family="Helvetica,sans-Serif" font-size="10.00">IB.cpp</text>
</a>
</g>
</g>
<!-- Node2&#45;&gt;Node104 -->
<g id="edge35" class="edge">
<title>Node2&#45;&gt;Node104</title>
<path fill="none" stroke="midnightblue" d="M2537.44,-168.01C2795.42,-133.6 2866.02,-169.62 3120,-132 3124.69,-131.3 3129.66,-130.32 3134.4,-129.25"/>
<polygon fill="midnightblue" stroke="midnightblue" points="2536.83,-164.56 2527.39,-169.37 2537.77,-171.5 2536.83,-164.56"/>
</g>
<!-- Node107 -->
<g id="node33" class="node">
<title>Node107</title>
<g id="a_node33"><a xlink:href="_tioga_interface_8cpp.html" target="_top" xlink:title=" ">
<polygon fill="white" stroke="black" points="3199.5,-112.5 3199.5,-131.5 3306.5,-131.5 3306.5,-112.5 3199.5,-112.5"/>
<text text-anchor="middle" x="3253" y="-119.5" font-family="Helvetica,sans-Serif" font-size="10.00">TiogaInterface.cpp</text>
</a>
</g>
</g>
<!-- Node2&#45;&gt;Node107 -->
<g id="edge36" class="edge">
<title>Node2&#45;&gt;Node107</title>
<path fill="none" stroke="midnightblue" d="M2537.32,-168.03C2826.26,-130.08 2903.56,-160.29 3190,-132 3193.08,-131.7 3196.24,-131.35 3199.42,-130.98"/>
<polygon fill="midnightblue" stroke="midnightblue" points="2536.84,-164.57 2527.39,-169.35 2537.76,-171.51 2536.84,-164.57"/>
</g>
<!-- Node108 -->
<g id="node34" class="node">
<title>Node108</title>
<g id="a_node34"><a xlink:href="_channel_flow_8_h.html" target="_top" xlink:title=" ">
<polygon fill="white" stroke="black" points="3324.5,-112.5 3324.5,-131.5 3413.5,-131.5 3413.5,-112.5 3324.5,-112.5"/>
<text text-anchor="middle" x="3369" y="-119.5" font-family="Helvetica,sans-Serif" font-size="10.00">ChannelFlow.H</text>
</a>
</g>
</g>
<!-- Node2&#45;&gt;Node108 -->
<g id="edge38" class="edge">
<title>Node2&#45;&gt;Node108</title>
<path fill="none" stroke="midnightblue" d="M2537.38,-168.04C2881.48,-124.39 2973.62,-168.21 3315,-132 3318.02,-131.68 3321.14,-131.3 3324.27,-130.88"/>
<polygon fill="midnightblue" stroke="midnightblue" points="2536.86,-164.58 2527.38,-169.33 2537.75,-171.52 2536.86,-164.58"/>
</g>
<!-- Node109 -->
<g id="node35" class="node">
<title>Node109</title>
<g id="a_node35"><a xlink:href="_channel_flow_8cpp.html" target="_top" xlink:title=" ">
<polygon fill="white" stroke="black" points="3333.5,-56.5 3333.5,-75.5 3432.5,-75.5 3432.5,-56.5 3333.5,-56.5"/>
<text text-anchor="middle" x="3383" y="-63.5" font-family="Helvetica,sans-Serif" font-size="10.00">ChannelFlow.cpp</text>
</a>
</g>
</g>
<!-- Node2&#45;&gt;Node109 -->
<g id="edge40" class="edge">
<title>Node2&#45;&gt;Node109</title>
<path fill="none" stroke="midnightblue" d="M2537.44,-168.49C2646.43,-162.2 3389.21,-166.15 3422,-132 3438.68,-114.63 3411.58,-88.88 3394.77,-75.6"/>
<polygon fill="midnightblue" stroke="midnightblue" points="2537.06,-165.01 2527.38,-169.31 2537.63,-171.98 2537.06,-165.01"/>
</g>
<!-- Node110 -->
<g id="node36" class="node">
<title>Node110</title>
<g id="a_node36"><a xlink:href="_ekman_spiral_8_h.html" target="_top" xlink:title=" ">
<polygon fill="white" stroke="black" points="3470.5,-112.5 3470.5,-131.5 3559.5,-131.5 3559.5,-112.5 3470.5,-112.5"/>
<text text-anchor="middle" x="3515" y="-119.5" font-family="Helvetica,sans-Serif" font-size="10.00">EkmanSpiral.H</text>
</a>
</g>
</g>
<!-- Node2&#45;&gt;Node110 -->
<g id="edge42" class="edge">
<title>Node2&#45;&gt;Node110</title>
<path fill="none" stroke="midnightblue" d="M2537.34,-168.06C2943.74,-117.81 3051.93,-170.6 3456,-132 3460.64,-131.56 3465.47,-130.99 3470.29,-130.36"/>
<polygon fill="midnightblue" stroke="midnightblue" points="2536.87,-164.59 2527.38,-169.31 2537.74,-171.54 2536.87,-164.59"/>
</g>
<!-- Node111 -->
<g id="node37" class="node">
<title>Node111</title>
<g id="a_node37"><a xlink:href="_ekman_spiral_8cpp.html" target="_top" xlink:title=" ">
<polygon fill="white" stroke="black" points="3502,-56.5 3502,-75.5 3600,-75.5 3600,-56.5 3502,-56.5"/>
<text text-anchor="middle" x="3551" y="-63.5" font-family="Helvetica,sans-Serif" font-size="10.00">EkmanSpiral.cpp</text>
</a>
</g>
</g>
<!-- Node2&#45;&gt;Node111 -->
<g id="edge44" class="edge">
<title>Node2&#45;&gt;Node111</title>
<path fill="none" stroke="midnightblue" d="M2537.44,-168.49C2657.59,-161.76 3529.55,-171.82 3568,-132 3582.91,-116.56 3567.6,-89.74 3557.82,-75.87"/>
<polygon fill="midnightblue" stroke="midnightblue" points="2537.07,-165.01 2527.38,-169.29 2537.63,-171.98 2537.07,-165.01"/>
</g>
<!-- Node112 -->
<g id="node38" class="node">
<title>Node112</title>
<g id="a_node38"><a xlink:href="_free_stream_8cpp.html" target="_top" xlink:title=" ">
<polygon fill="white" stroke="black" points="3616.5,-112.5 3616.5,-131.5 3709.5,-131.5 3709.5,-112.5 3616.5,-112.5"/>
<text text-anchor="middle" x="3663" y="-119.5" font-family="Helvetica,sans-Serif" font-size="10.00">FreeStream.cpp</text>
</a>
</g>
</g>
<!-- Node2&#45;&gt;Node112 -->
<g id="edge45" class="edge">
<title>Node2&#45;&gt;Node112</title>
<path fill="none" stroke="midnightblue" d="M2537.5,-168.05C3008.26,-111.02 3133.22,-174.36 3602,-132 3606.69,-131.58 3611.57,-131.03 3616.44,-130.42"/>
<polygon fill="midnightblue" stroke="midnightblue" points="2536.88,-164.6 2527.38,-169.29 2537.73,-171.55 2536.88,-164.6"/>
</g>
<!-- Node113 -->
<g id="node39" class="node">
<title>Node113</title>
<g id="a_node39"><a xlink:href="_hybrid_r_a_n_s_l_e_s_a_b_l_8_h.html" target="_top" xlink:title=" ">
<polygon fill="white" stroke="black" points="3727.5,-112.5 3727.5,-131.5 3850.5,-131.5 3850.5,-112.5 3727.5,-112.5"/>
<text text-anchor="middle" x="3789" y="-119.5" font-family="Helvetica,sans-Serif" font-size="10.00">HybridRANSLESABL.H</text>
</a>
</g>
</g>
<!-- Node2&#45;&gt;Node113 -->
<g id="edge46" class="edge">
<title>Node2&#45;&gt;Node113</title>
<path fill="none" stroke="midnightblue" d="M2537.43,-168.06C3059.49,-105.54 3197.36,-172.83 3718,-132 3721.1,-131.76 3724.27,-131.48 3727.46,-131.17"/>
<polygon fill="midnightblue" stroke="midnightblue" points="2536.89,-164.6 2527.38,-169.28 2537.73,-171.55 2536.89,-164.6"/>
</g>
<!-- Node114 -->
<g id="node40" class="node">
<title>Node114</title>
<g id="a_node40"><a xlink:href="_hybrid_r_a_n_s_l_e_s_a_b_l_8cpp.html" target="_top" xlink:title=" ">
<polygon fill="white" stroke="black" points="3736.5,-56.5 3736.5,-75.5 3869.5,-75.5 3869.5,-56.5 3736.5,-56.5"/>
<text text-anchor="middle" x="3803" y="-63.5" font-family="Helvetica,sans-Serif" font-size="10.00">HybridRANSLESABL.cpp</text>
</a>
</g>
</g>
<!-- Node2&#45;&gt;Node114 -->
<g id="edge48" class="edge">
<title>Node2&#45;&gt;Node114</title>
<path fill="none" stroke="midnightblue" d="M2537.37,-168.48C2678.26,-160.68 3809.22,-183.15 3859,-132 3877.7,-112.79 3842.42,-88.46 3819.82,-75.7"/>
<polygon fill="midnightblue" stroke="midnightblue" points="2537.07,-164.99 2527.38,-169.27 2537.62,-171.97 2537.07,-164.99"/>
</g>
<!-- Node115 -->
<g id="node41" class="node">
<title>Node115</title>
<g id="a_node41"><a xlink:href="_m_m_s_8_h.html" target="_top" xlink:title=" ">
<polygon fill="white" stroke="black" points="3907.5,-112.5 3907.5,-131.5 3958.5,-131.5 3958.5,-112.5 3907.5,-112.5"/>
<text text-anchor="middle" x="3933" y="-119.5" font-family="Helvetica,sans-Serif" font-size="10.00">MMS.H</text>
</a>
</g>
</g>
<!-- Node2&#45;&gt;Node115 -->
<g id="edge49" class="edge">
<title>Node2&#45;&gt;Node115</title>
<path fill="none" stroke="midnightblue" d="M2537.57,-168.06C3136.87,-97.72 3297.66,-206.15 3893,-132 3897.66,-131.42 3902.58,-130.54 3907.31,-129.55"/>
<polygon fill="midnightblue" stroke="midnightblue" points="2536.9,-164.61 2527.38,-169.27 2537.72,-171.56 2536.9,-164.61"/>
</g>
<!-- Node116 -->
<g id="node42" class="node">
<title>Node116</title>
<g id="a_node42"><a xlink:href="_m_m_s_8cpp.html" target="_top" xlink:title=" ">
<polygon fill="white" stroke="black" points="3929.5,-56.5 3929.5,-75.5 3990.5,-75.5 3990.5,-56.5 3929.5,-56.5"/>
<text text-anchor="middle" x="3960" y="-63.5" font-family="Helvetica,sans-Serif" font-size="10.00">MMS.cpp</text>
</a>
</g>
</g>
<!-- Node2&#45;&gt;Node116 -->
<g id="edge51" class="edge">
<title>Node2&#45;&gt;Node116</title>
<path fill="none" stroke="midnightblue" d="M2537.67,-168.45C2687.41,-160.27 3913.05,-187.32 3967,-132 3981.74,-116.89 3971.37,-89.42 3964.59,-75.53"/>
<polygon fill="midnightblue" stroke="midnightblue" points="2537.07,-164.99 2527.38,-169.26 2537.62,-171.97 2537.07,-164.99"/>
</g>
<!-- Node117 -->
<g id="node43" class="node">
<title>Node117</title>
<g id="a_node43"><a xlink:href="_m_m_s_forcing_8cpp.html" target="_top" xlink:title=" ">
<polygon fill="white" stroke="black" points="4015,-112.5 4015,-131.5 4111,-131.5 4111,-112.5 4015,-112.5"/>
<text text-anchor="middle" x="4063" y="-119.5" font-family="Helvetica,sans-Serif" font-size="10.00">MMSForcing.cpp</text>
</a>
</g>
</g>
<!-- Node2&#45;&gt;Node117 -->
<g id="edge52" class="edge">
<title>Node2&#45;&gt;Node117</title>
<path fill="none" stroke="midnightblue" d="M2537.42,-168.08C3184.54,-92.41 3355.34,-186.6 4001,-132 4005.44,-131.62 4010.05,-131.14 4014.66,-130.59"/>
<polygon fill="midnightblue" stroke="midnightblue" points="2536.9,-164.61 2527.38,-169.26 2537.72,-171.57 2536.9,-164.61"/>
</g>
<!-- Node118 -->
<g id="node44" class="node">
<title>Node118</title>
<g id="a_node44"><a xlink:href="_dam_break_8cpp.html" target="_top" xlink:title=" ">
<polygon fill="white" stroke="black" points="4129.5,-112.5 4129.5,-131.5 4218.5,-131.5 4218.5,-112.5 4129.5,-112.5"/>
<text text-anchor="middle" x="4174" y="-119.5" font-family="Helvetica,sans-Serif" font-size="10.00">DamBreak.cpp</text>
</a>
</g>
</g>
<!-- Node2&#45;&gt;Node118 -->
<g id="edge53" class="edge">
<title>Node2&#45;&gt;Node118</title>
<path fill="none" stroke="midnightblue" d="M2537.45,-168.08C3237.13,-86.93 3422.26,-197.74 4120,-132 4123.03,-131.71 4126.14,-131.36 4129.28,-130.96"/>
<polygon fill="midnightblue" stroke="midnightblue" points="2536.9,-164.62 2527.38,-169.26 2537.71,-171.57 2536.9,-164.62"/>
</g>
<!-- Node32 -->
<g id="node45" class="node">
<title>Node32</title>
<g id="a_node45"><a xlink:href="_multi_phase_8cpp.html" target="_top" xlink:title=" ">
<polygon fill="white" stroke="black" points="4236.5,-112.5 4236.5,-131.5 4327.5,-131.5 4327.5,-112.5 4236.5,-112.5"/>
<text text-anchor="middle" x="4282" y="-119.5" font-family="Helvetica,sans-Serif" font-size="10.00">MultiPhase.cpp</text>
</a>
</g>
</g>
<!-- Node2&#45;&gt;Node32 -->
<g id="edge54" class="edge">
<title>Node2&#45;&gt;Node32</title>
<path fill="none" stroke="midnightblue" d="M2537.58,-168.07C3284.88,-81.9 3482.48,-201.69 4228,-132 4230.74,-131.74 4233.56,-131.43 4236.4,-131.07"/>
<polygon fill="midnightblue" stroke="midnightblue" points="2536.9,-164.62 2527.38,-169.25 2537.71,-171.57 2536.9,-164.62"/>
</g>
<!-- Node119 -->
<g id="node46" class="node">
<title>Node119</title>
<g id="a_node46"><a xlink:href="_rain_drop_8cpp.html" target="_top" xlink:title=" ">
<polygon fill="white" stroke="black" points="4346,-112.5 4346,-131.5 4428,-131.5 4428,-112.5 4346,-112.5"/>
<text text-anchor="middle" x="4387" y="-119.5" font-family="Helvetica,sans-Serif" font-size="10.00">RainDrop.cpp</text>
</a>
</g>
</g>
<!-- Node2&#45;&gt;Node119 -->
<g id="edge55" class="edge">
<title>Node2&#45;&gt;Node119</title>
<path fill="none" stroke="midnightblue" d="M2537.35,-168.09C3333.01,-76.82 3543.63,-210.83 4337,-132 4339.9,-131.71 4342.88,-131.35 4345.87,-130.93"/>
<polygon fill="midnightblue" stroke="midnightblue" points="2536.91,-164.62 2527.37,-169.25 2537.71,-171.58 2536.91,-164.62"/>
</g>
<!-- Node120 -->
<g id="node47" class="node">
<title>Node120</title>
<g id="a_node47"><a xlink:href="_sloshing_tank_8cpp.html" target="_top" xlink:title=" ">
<polygon fill="white" stroke="black" points="4446.5,-112.5 4446.5,-131.5 4547.5,-131.5 4547.5,-112.5 4446.5,-112.5"/>
<text text-anchor="middle" x="4497" y="-119.5" font-family="Helvetica,sans-Serif" font-size="10.00">SloshingTank.cpp</text>
</a>
</g>
</g>
<!-- Node2&#45;&gt;Node120 -->
<g id="edge56" class="edge">
<title>Node2&#45;&gt;Node120</title>
<path fill="none" stroke="midnightblue" d="M2537.53,-168.1C2972.26,-120.25 4019.26,-167.14 4437,-132 4440.04,-131.74 4443.17,-131.43 4446.32,-131.08"/>
<polygon fill="midnightblue" stroke="midnightblue" points="2536.92,-164.64 2527.37,-169.24 2537.7,-171.6 2536.92,-164.64"/>
</g>
<!-- Node121 -->
<g id="node48" class="node">
<title>Node121</title>
<g id="a_node48"><a xlink:href="_vortex_patch_8cpp.html" target="_top" xlink:title=" ">
<polygon fill="white" stroke="black" points="4565.5,-112.5 4565.5,-131.5 4660.5,-131.5 4660.5,-112.5 4565.5,-112.5"/>
<text text-anchor="middle" x="4613" y="-119.5" font-family="Helvetica,sans-Serif" font-size="10.00">VortexPatch.cpp</text>
</a>
</g>
</g>
<!-- Node2&#45;&gt;Node121 -->
<g id="edge57" class="edge">
<title>Node2&#45;&gt;Node121</title>
<path fill="none" stroke="midnightblue" d="M2537.48,-168.1C2998.72,-117.5 4112.86,-171.45 4557,-132 4559.75,-131.76 4562.56,-131.46 4565.4,-131.12"/>
<polygon fill="midnightblue" stroke="midnightblue" points="2536.92,-164.64 2527.37,-169.24 2537.7,-171.6 2536.92,-164.64"/>
</g>
<!-- Node17&#45;&gt;Node34 -->
<g id="edge6" class="edge">
<title>Node17&#45;&gt;Node34</title>
<path fill="none" stroke="midnightblue" d="M310.18,-103.27C315.47,-94.05 321.72,-83.17 325.98,-75.75"/>
<polygon fill="midnightblue" stroke="midnightblue" points="307.06,-101.67 305.12,-112.08 313.13,-105.15 307.06,-101.67"/>
</g>
<!-- Node57&#45;&gt;Node61 -->
<g id="edge10" class="edge">
<title>Node57&#45;&gt;Node61</title>
<path fill="none" stroke="midnightblue" d="M619.73,-49.82C608.08,-40.15 593.4,-27.95 583.63,-19.83"/>
<polygon fill="midnightblue" stroke="midnightblue" points="617.63,-52.63 627.56,-56.32 622.1,-47.24 617.63,-52.63"/>
</g>
<!-- Node57&#45;&gt;Node64 -->
<g id="edge11" class="edge">
<title>Node57&#45;&gt;Node64</title>
<path fill="none" stroke="midnightblue" d="M655.99,-49.82C667.46,-40.15 681.91,-27.95 691.53,-19.83"/>
<polygon fill="midnightblue" stroke="midnightblue" points="653.67,-47.2 648.28,-56.32 658.18,-52.55 653.67,-47.2"/>
</g>
<!-- Node65&#45;&gt;Node57 -->
<g id="edge13" class="edge">
<title>Node65&#45;&gt;Node57</title>
<path fill="none" stroke="midnightblue" d="M638,-101.8C638,-92.91 638,-82.78 638,-75.75"/>
<polygon fill="midnightblue" stroke="midnightblue" points="634.5,-102.08 638,-112.08 641.5,-102.08 634.5,-102.08"/>
</g>
<!-- Node72&#45;&gt;Node57 -->
<g id="edge15" class="edge">
<title>Node72&#45;&gt;Node57</title>
<path fill="none" stroke="midnightblue" d="M757.89,-109.04C728.91,-98.88 688.04,-84.55 662.29,-75.52"/>
<polygon fill="midnightblue" stroke="midnightblue" points="757,-112.44 767.6,-112.44 759.32,-105.83 757,-112.44"/>
</g>
<!-- Node105&#45;&gt;Node106 -->
<g id="edge34" class="edge">
<title>Node105&#45;&gt;Node106</title>
<path fill="none" stroke="midnightblue" d="M3021.08,-104.72C3029.89,-95.2 3040.67,-83.56 3047.9,-75.75"/>
<polygon fill="midnightblue" stroke="midnightblue" points="3018.48,-102.37 3014.26,-112.08 3023.62,-107.12 3018.48,-102.37"/>
</g>
<!-- Node108&#45;&gt;Node109 -->
<g id="edge39" class="edge">
<title>Node108&#45;&gt;Node109</title>
<path fill="none" stroke="midnightblue" d="M3373.82,-102.4C3376.17,-93.36 3378.87,-82.94 3380.73,-75.75"/>
<polygon fill="midnightblue" stroke="midnightblue" points="3370.43,-101.52 3371.31,-112.08 3377.21,-103.28 3370.43,-101.52"/>
</g>
<!-- Node110&#45;&gt;Node111 -->
<g id="edge43" class="edge">
<title>Node110&#45;&gt;Node111</title>
<path fill="none" stroke="midnightblue" d="M3526.62,-103.57C3532.82,-94.27 3540.17,-83.25 3545.17,-75.75"/>
<polygon fill="midnightblue" stroke="midnightblue" points="3523.58,-101.82 3520.94,-112.08 3529.4,-105.7 3523.58,-101.82"/>
</g>
<!-- Node113&#45;&gt;Node114 -->
<g id="edge47" class="edge">
<title>Node113&#45;&gt;Node114</title>
<path fill="none" stroke="midnightblue" d="M3793.82,-102.4C3796.17,-93.36 3798.87,-82.94 3800.73,-75.75"/>
<polygon fill="midnightblue" stroke="midnightblue" points="3790.43,-101.52 3791.31,-112.08 3797.21,-103.28 3790.43,-101.52"/>
</g>
<!-- Node115&#45;&gt;Node116 -->
<g id="edge50" class="edge">
<title>Node115&#45;&gt;Node116</title>
<path fill="none" stroke="midnightblue" d="M3942.01,-102.98C3946.59,-93.82 3951.95,-83.09 3955.62,-75.75"/>
<polygon fill="midnightblue" stroke="midnightblue" points="3938.8,-101.57 3937.46,-112.08 3945.06,-104.7 3938.8,-101.57"/>
</g>
</g>
</svg>
