<?xml version="1.0" encoding="UTF-8" standalone="no"?>
<!DOCTYPE svg PUBLIC "-//W3C//DTD SVG 1.1//EN"
 "http://www.w3.org/Graphics/SVG/1.1/DTD/svg11.dtd">
<!-- Generated by graphviz version 2.43.0 (0)
 -->
<!-- Title: MultiParser.H Pages: 1 -->
<svg width="1587pt" height="364pt"
 viewBox="0.00 0.00 1587.00 364.00" xmlns="http://www.w3.org/2000/svg" xmlns:xlink="http://www.w3.org/1999/xlink">
<g id="graph0" class="graph" transform="scale(1 1) rotate(0) translate(4 360)">
<title>MultiParser.H</title>
<polygon fill="white" stroke="transparent" points="-4,4 -4,-360 1583,-360 1583,4 -4,4"/>
<!-- Node1 -->
<g id="node1" class="node">
<title>Node1</title>
<g id="a_node1"><a xlink:title=" ">
<polygon fill="#bfbfbf" stroke="black" points="314.5,-336.5 314.5,-355.5 395.5,-355.5 395.5,-336.5 314.5,-336.5"/>
<text text-anchor="middle" x="355" y="-343.5" font-family="Helvetica,sans-Serif" font-size="10.00">MultiParser.H</text>
</a>
</g>
</g>
<!-- Node2 -->
<g id="node2" class="node">
<title>Node2</title>
<g id="a_node2"><a xlink:href="bluff__body__ops_8_h.html" target="_top" xlink:title=" ">
<polygon fill="white" stroke="black" points="208.5,-280.5 208.5,-299.5 309.5,-299.5 309.5,-280.5 208.5,-280.5"/>
<text text-anchor="middle" x="259" y="-287.5" font-family="Helvetica,sans-Serif" font-size="10.00">bluff_body_ops.H</text>
</a>
</g>
</g>
<!-- Node1&#45;&gt;Node2 -->
<g id="edge1" class="edge">
<title>Node1&#45;&gt;Node2</title>
<path fill="none" stroke="midnightblue" d="M330.43,-331.18C312.76,-321.24 289.49,-308.15 274.39,-299.65"/>
<polygon fill="midnightblue" stroke="midnightblue" points="329.14,-334.47 339.58,-336.32 332.58,-328.37 329.14,-334.47"/>
</g>
<!-- Node3 -->
<g id="node3" class="node">
<title>Node3</title>
<g id="a_node3"><a xlink:href="bluff__body__ops_8cpp.html" target="_top" xlink:title=" ">
<polygon fill="white" stroke="black" points="0,-224.5 0,-243.5 110,-243.5 110,-224.5 0,-224.5"/>
<text text-anchor="middle" x="55" y="-231.5" font-family="Helvetica,sans-Serif" font-size="10.00">bluff_body_ops.cpp</text>
</a>
</g>
</g>
<!-- Node1&#45;&gt;Node3 -->
<g id="edge9" class="edge">
<title>Node1&#45;&gt;Node3</title>
<path fill="none" stroke="midnightblue" d="M310.35,-333.94C278.86,-325.7 235.88,-313.56 199,-300 151.89,-282.67 98.55,-256.9 71.96,-243.62"/>
<polygon fill="midnightblue" stroke="midnightblue" points="309.59,-337.36 320.15,-336.48 311.35,-330.58 309.59,-337.36"/>
</g>
<!-- Node10 -->
<g id="node10" class="node">
<title>Node10</title>
<g id="a_node10"><a xlink:href="_i_b_model_8_h.html" target="_top" xlink:title=" ">
<polygon fill="white" stroke="black" points="321.5,-224.5 321.5,-243.5 388.5,-243.5 388.5,-224.5 321.5,-224.5"/>
<text text-anchor="middle" x="355" y="-231.5" font-family="Helvetica,sans-Serif" font-size="10.00">IBModel.H</text>
</a>
</g>
</g>
<!-- Node1&#45;&gt;Node10 -->
<g id="edge10" class="edge">
<title>Node1&#45;&gt;Node10</title>
<path fill="none" stroke="midnightblue" d="M355,-326.35C355,-302.25 355,-261.31 355,-243.59"/>
<polygon fill="midnightblue" stroke="midnightblue" points="351.5,-326.37 355,-336.37 358.5,-326.37 351.5,-326.37"/>
</g>
<!-- Node11 -->
<g id="node11" class="node">
<title>Node11</title>
<g id="a_node11"><a xlink:href="_i_b_8cpp.html" target="_top" xlink:title=" ">
<polygon fill="white" stroke="black" points="444.5,-168.5 444.5,-187.5 491.5,-187.5 491.5,-168.5 444.5,-168.5"/>
<text text-anchor="middle" x="468" y="-175.5" font-family="Helvetica,sans-Serif" font-size="10.00">IB.cpp</text>
</a>
</g>
</g>
<!-- Node1&#45;&gt;Node11 -->
<g id="edge15" class="edge">
<title>Node1&#45;&gt;Node11</title>
<path fill="none" stroke="midnightblue" d="M387.91,-332.54C422.5,-317.45 475,-288.4 498,-244 508.29,-224.14 489.28,-200.07 477.08,-187.53"/>
<polygon fill="midnightblue" stroke="midnightblue" points="386.53,-329.32 378.67,-336.43 389.25,-335.77 386.53,-329.32"/>
</g>
<!-- Node12 -->
<g id="node12" class="node">
<title>Node12</title>
<g id="a_node12"><a xlink:href="_act_parser_8_h.html" target="_top" xlink:title=" ">
<polygon fill="white" stroke="black" points="772,-280.5 772,-299.5 844,-299.5 844,-280.5 772,-280.5"/>
<text text-anchor="middle" x="808" y="-287.5" font-family="Helvetica,sans-Serif" font-size="10.00">ActParser.H</text>
</a>
</g>
</g>
<!-- Node1&#45;&gt;Node12 -->
<g id="edge16" class="edge">
<title>Node1&#45;&gt;Node12</title>
<path fill="none" stroke="midnightblue" d="M405.54,-338.98C497.79,-327.98 691.38,-304.9 771.78,-295.32"/>
<polygon fill="midnightblue" stroke="midnightblue" points="405.11,-335.5 395.6,-340.16 405.94,-342.45 405.11,-335.5"/>
</g>
<!-- Node2&#45;&gt;Node3 -->
<g id="edge2" class="edge">
<title>Node2&#45;&gt;Node3</title>
<path fill="none" stroke="midnightblue" d="M216.8,-277.83C178.28,-267.63 122.18,-252.78 87.17,-243.52"/>
<polygon fill="midnightblue" stroke="midnightblue" points="216.11,-281.27 226.68,-280.44 217.9,-274.5 216.11,-281.27"/>
</g>
<!-- Node4 -->
<g id="node4" class="node">
<title>Node4</title>
<g id="a_node4"><a xlink:href="box__ops_8_h.html" target="_top" xlink:title=" ">
<polygon fill="white" stroke="black" points="128,-224.5 128,-243.5 196,-243.5 196,-224.5 128,-224.5"/>
<text text-anchor="middle" x="162" y="-231.5" font-family="Helvetica,sans-Serif" font-size="10.00">box_ops.H</text>
</a>
</g>
</g>
<!-- Node2&#45;&gt;Node4 -->
<g id="edge3" class="edge">
<title>Node2&#45;&gt;Node4</title>
<path fill="none" stroke="midnightblue" d="M234.66,-275.45C216.76,-265.48 192.95,-252.23 177.55,-243.65"/>
<polygon fill="midnightblue" stroke="midnightblue" points="232.98,-278.52 243.42,-280.32 236.38,-272.4 232.98,-278.52"/>
</g>
<!-- Node6 -->
<g id="node6" class="node">
<title>Node6</title>
<g id="a_node6"><a xlink:href="cylinder__ops_8_h.html" target="_top" xlink:title=" ">
<polygon fill="white" stroke="black" points="214.5,-224.5 214.5,-243.5 303.5,-243.5 303.5,-224.5 214.5,-224.5"/>
<text text-anchor="middle" x="259" y="-231.5" font-family="Helvetica,sans-Serif" font-size="10.00">cylinder_ops.H</text>
</a>
</g>
</g>
<!-- Node2&#45;&gt;Node6 -->
<g id="edge5" class="edge">
<title>Node2&#45;&gt;Node6</title>
<path fill="none" stroke="midnightblue" d="M259,-269.8C259,-260.91 259,-250.78 259,-243.75"/>
<polygon fill="midnightblue" stroke="midnightblue" points="255.5,-270.08 259,-280.08 262.5,-270.08 255.5,-270.08"/>
</g>
<!-- Node8 -->
<g id="node8" class="node">
<title>Node8</title>
<g id="a_node8"><a xlink:href="sphere__ops_8_h.html" target="_top" xlink:title=" ">
<polygon fill="white" stroke="black" points="406.5,-224.5 406.5,-243.5 489.5,-243.5 489.5,-224.5 406.5,-224.5"/>
<text text-anchor="middle" x="448" y="-231.5" font-family="Helvetica,sans-Serif" font-size="10.00">sphere_ops.H</text>
</a>
</g>
</g>
<!-- Node2&#45;&gt;Node8 -->
<g id="edge7" class="edge">
<title>Node2&#45;&gt;Node8</title>
<path fill="none" stroke="midnightblue" d="M299.01,-277.57C334.67,-267.38 386.04,-252.7 418.19,-243.52"/>
<polygon fill="midnightblue" stroke="midnightblue" points="297.6,-274.33 288.95,-280.44 299.52,-281.06 297.6,-274.33"/>
</g>
<!-- Node5 -->
<g id="node5" class="node">
<title>Node5</title>
<g id="a_node5"><a xlink:href="_box_8cpp.html" target="_top" xlink:title=" ">
<polygon fill="white" stroke="black" points="151,-168.5 151,-187.5 207,-187.5 207,-168.5 151,-168.5"/>
<text text-anchor="middle" x="179" y="-175.5" font-family="Helvetica,sans-Serif" font-size="10.00">Box.cpp</text>
</a>
</g>
</g>
<!-- Node4&#45;&gt;Node5 -->
<g id="edge4" class="edge">
<title>Node4&#45;&gt;Node5</title>
<path fill="none" stroke="midnightblue" d="M167.86,-214.4C170.7,-205.36 173.98,-194.94 176.25,-187.75"/>
<polygon fill="midnightblue" stroke="midnightblue" points="164.47,-213.49 164.81,-224.08 171.15,-215.6 164.47,-213.49"/>
</g>
<!-- Node7 -->
<g id="node7" class="node">
<title>Node7</title>
<g id="a_node7"><a xlink:href="_cylinder_8cpp.html" target="_top" xlink:title=" ">
<polygon fill="white" stroke="black" points="231.5,-168.5 231.5,-187.5 308.5,-187.5 308.5,-168.5 231.5,-168.5"/>
<text text-anchor="middle" x="270" y="-175.5" font-family="Helvetica,sans-Serif" font-size="10.00">Cylinder.cpp</text>
</a>
</g>
</g>
<!-- Node6&#45;&gt;Node7 -->
<g id="edge6" class="edge">
<title>Node6&#45;&gt;Node7</title>
<path fill="none" stroke="midnightblue" d="M262.85,-214.1C264.68,-205.14 266.77,-194.86 268.22,-187.75"/>
<polygon fill="midnightblue" stroke="midnightblue" points="259.38,-213.59 260.82,-224.08 266.24,-214.98 259.38,-213.59"/>
</g>
<!-- Node9 -->
<g id="node9" class="node">
<title>Node9</title>
<g id="a_node9"><a xlink:href="_sphere_8cpp.html" target="_top" xlink:title=" ">
<polygon fill="white" stroke="black" points="337.5,-168.5 337.5,-187.5 408.5,-187.5 408.5,-168.5 337.5,-168.5"/>
<text text-anchor="middle" x="373" y="-175.5" font-family="Helvetica,sans-Serif" font-size="10.00">Sphere.cpp</text>
</a>
</g>
</g>
<!-- Node8&#45;&gt;Node9 -->
<g id="edge8" class="edge">
<title>Node8&#45;&gt;Node9</title>
<path fill="none" stroke="midnightblue" d="M427.69,-218.38C414.14,-208.62 396.76,-196.11 385.27,-187.83"/>
<polygon fill="midnightblue" stroke="midnightblue" points="425.79,-221.32 435.95,-224.32 429.88,-215.64 425.79,-221.32"/>
</g>
<!-- Node10&#45;&gt;Node5 -->
<g id="edge11" class="edge">
<title>Node10&#45;&gt;Node5</title>
<path fill="none" stroke="midnightblue" d="M317.31,-221.44C284.13,-211.26 236.57,-196.66 206.76,-187.52"/>
<polygon fill="midnightblue" stroke="midnightblue" points="316.53,-224.86 327.11,-224.44 318.58,-218.16 316.53,-224.86"/>
</g>
<!-- Node10&#45;&gt;Node7 -->
<g id="edge12" class="edge">
<title>Node10&#45;&gt;Node7</title>
<path fill="none" stroke="midnightblue" d="M332.81,-218.9C317.22,-209 296.87,-196.07 283.62,-187.65"/>
<polygon fill="midnightblue" stroke="midnightblue" points="331.03,-221.92 341.34,-224.32 334.78,-216.01 331.03,-221.92"/>
</g>
<!-- Node10&#45;&gt;Node9 -->
<g id="edge13" class="edge">
<title>Node10&#45;&gt;Node9</title>
<path fill="none" stroke="midnightblue" d="M361.2,-214.4C364.21,-205.36 367.69,-194.94 370.08,-187.75"/>
<polygon fill="midnightblue" stroke="midnightblue" points="357.81,-213.49 357.97,-224.08 364.46,-215.7 357.81,-213.49"/>
</g>
<!-- Node10&#45;&gt;Node11 -->
<g id="edge14" class="edge">
<title>Node10&#45;&gt;Node11</title>
<path fill="none" stroke="midnightblue" d="M382,-220.1C403.11,-210.01 431.86,-196.27 450.18,-187.52"/>
<polygon fill="midnightblue" stroke="midnightblue" points="380.42,-216.97 372.91,-224.44 383.44,-223.29 380.42,-216.97"/>
</g>
<!-- Node13 -->
<g id="node13" class="node">
<title>Node13</title>
<g id="a_node13"><a xlink:href="actuator__ops_8_h.html" target="_top" xlink:title=" ">
<polygon fill="white" stroke="black" points="974,-168.5 974,-187.5 1064,-187.5 1064,-168.5 974,-168.5"/>
<text text-anchor="middle" x="1019" y="-175.5" font-family="Helvetica,sans-Serif" font-size="10.00">actuator_ops.H</text>
</a>
</g>
</g>
<!-- Node12&#45;&gt;Node13 -->
<g id="edge17" class="edge">
<title>Node12&#45;&gt;Node13</title>
<path fill="none" stroke="midnightblue" d="M853.95,-282.14C885.6,-275.86 927.61,-264.34 960,-244 984.01,-228.92 1004.27,-201.44 1013.56,-187.54"/>
<polygon fill="midnightblue" stroke="midnightblue" points="853.25,-278.71 844.07,-284 854.54,-285.59 853.25,-278.71"/>
</g>
<!-- Node15 -->
<g id="node15" class="node">
<title>Node15</title>
<g id="a_node15"><a xlink:href="_actuator_model_8_h.html" target="_top" xlink:title=" ">
<polygon fill="white" stroke="black" points="982,-56.5 982,-75.5 1080,-75.5 1080,-56.5 982,-56.5"/>
<text text-anchor="middle" x="1031" y="-63.5" font-family="Helvetica,sans-Serif" font-size="10.00">ActuatorModel.H</text>
</a>
</g>
</g>
<!-- Node12&#45;&gt;Node15 -->
<g id="edge49" class="edge">
<title>Node12&#45;&gt;Node15</title>
<path fill="none" stroke="midnightblue" d="M854.45,-282.45C972.67,-264.73 1279.75,-211.73 1338,-132 1343.24,-124.82 1343.81,-118.73 1338,-112 1321.4,-92.79 1162.8,-77.47 1080.31,-70.73"/>
<polygon fill="midnightblue" stroke="midnightblue" points="853.65,-279.03 844.27,-283.96 854.68,-285.96 853.65,-279.03"/>
</g>
<!-- Node16 -->
<g id="node16" class="node">
<title>Node16</title>
<g id="a_node16"><a xlink:href="_actuator_8cpp.html" target="_top" xlink:title=" ">
<polygon fill="white" stroke="black" points="567.5,-0.5 567.5,-19.5 644.5,-19.5 644.5,-0.5 567.5,-0.5"/>
<text text-anchor="middle" x="606" y="-7.5" font-family="Helvetica,sans-Serif" font-size="10.00">Actuator.cpp</text>
</a>
</g>
</g>
<!-- Node12&#45;&gt;Node16 -->
<g id="edge50" class="edge">
<title>Node12&#45;&gt;Node16</title>
<path fill="none" stroke="midnightblue" d="M761.61,-288.73C688.83,-285.6 556,-267.72 556,-179 556,-179 556,-179 556,-121 556,-79.88 585.31,-37.25 599.05,-19.52"/>
<polygon fill="midnightblue" stroke="midnightblue" points="761.78,-292.24 771.89,-289.1 762.02,-285.25 761.78,-292.24"/>
</g>
<!-- Node25 -->
<g id="node25" class="node">
<title>Node25</title>
<g id="a_node25"><a xlink:href="uniform__ct__ops_8cpp.html" target="_top" xlink:title=" ">
<polygon fill="white" stroke="black" points="1467,-0.5 1467,-19.5 1579,-19.5 1579,-0.5 1467,-0.5"/>
<text text-anchor="middle" x="1523" y="-7.5" font-family="Helvetica,sans-Serif" font-size="10.00">uniform_ct_ops.cpp</text>
</a>
</g>
</g>
<!-- Node12&#45;&gt;Node25 -->
<g id="edge51" class="edge">
<title>Node12&#45;&gt;Node25</title>
<path fill="none" stroke="midnightblue" d="M854.24,-286.93C1014.73,-279.15 1538,-248.45 1538,-179 1538,-179 1538,-179 1538,-121 1538,-82.84 1529.03,-37.91 1524.96,-19.5"/>
<polygon fill="midnightblue" stroke="midnightblue" points="854.02,-283.44 844.2,-287.41 854.36,-290.43 854.02,-283.44"/>
</g>
<!-- Node31 -->
<g id="node31" class="node">
<title>Node31</title>
<g id="a_node31"><a xlink:href="wing__ops_8_h.html" target="_top" xlink:title=" ">
<polygon fill="white" stroke="black" points="767.5,-112.5 767.5,-131.5 840.5,-131.5 840.5,-112.5 767.5,-112.5"/>
<text text-anchor="middle" x="804" y="-119.5" font-family="Helvetica,sans-Serif" font-size="10.00">wing_ops.H</text>
</a>
</g>
</g>
<!-- Node12&#45;&gt;Node31 -->
<g id="edge61" class="edge">
<title>Node12&#45;&gt;Node31</title>
<path fill="none" stroke="midnightblue" d="M838.32,-276.21C883,-255.5 958.06,-212.43 927,-168 907.66,-140.32 869.37,-129.61 840.62,-125.5"/>
<polygon fill="midnightblue" stroke="midnightblue" points="836.7,-273.1 829.02,-280.4 839.58,-279.48 836.7,-273.1"/>
</g>
<!-- Node33 -->
<g id="node33" class="node">
<title>Node33</title>
<g id="a_node33"><a xlink:href="wing__ops_8cpp.html" target="_top" xlink:title=" ">
<polygon fill="white" stroke="black" points="598.5,-56.5 598.5,-75.5 681.5,-75.5 681.5,-56.5 598.5,-56.5"/>
<text text-anchor="middle" x="640" y="-63.5" font-family="Helvetica,sans-Serif" font-size="10.00">wing_ops.cpp</text>
</a>
</g>
</g>
<!-- Node12&#45;&gt;Node33 -->
<g id="edge62" class="edge">
<title>Node12&#45;&gt;Node33</title>
<path fill="none" stroke="midnightblue" d="M761.7,-287.4C727.71,-283.69 682.94,-273.1 656,-244 611.14,-195.55 630.1,-104.42 637.53,-75.82"/>
<polygon fill="midnightblue" stroke="midnightblue" points="761.6,-290.91 771.88,-288.34 762.24,-283.94 761.6,-290.91"/>
</g>
<!-- Node34 -->
<g id="node34" class="node">
<title>Node34</title>
<g id="a_node34"><a xlink:href="_f_l_l_c_8_h.html" target="_top" xlink:title=" ">
<polygon fill="white" stroke="black" points="783,-224.5 783,-243.5 833,-243.5 833,-224.5 783,-224.5"/>
<text text-anchor="middle" x="808" y="-231.5" font-family="Helvetica,sans-Serif" font-size="10.00">FLLC.H</text>
</a>
</g>
</g>
<!-- Node12&#45;&gt;Node34 -->
<g id="edge52" class="edge">
<title>Node12&#45;&gt;Node34</title>
<path fill="none" stroke="midnightblue" d="M808,-269.8C808,-260.91 808,-250.78 808,-243.75"/>
<polygon fill="midnightblue" stroke="midnightblue" points="804.5,-270.08 808,-280.08 811.5,-270.08 804.5,-270.08"/>
</g>
<!-- Node38 -->
<g id="node38" class="node">
<title>Node38</title>
<g id="a_node38"><a xlink:href="turbine__utils_8_h.html" target="_top" xlink:title=" ">
<polygon fill="white" stroke="black" points="665,-224.5 665,-243.5 753,-243.5 753,-224.5 665,-224.5"/>
<text text-anchor="middle" x="709" y="-231.5" font-family="Helvetica,sans-Serif" font-size="10.00">turbine_utils.H</text>
</a>
</g>
</g>
<!-- Node12&#45;&gt;Node38 -->
<g id="edge58" class="edge">
<title>Node12&#45;&gt;Node38</title>
<path fill="none" stroke="midnightblue" d="M783.16,-275.45C764.89,-265.48 740.58,-252.23 724.87,-243.65"/>
<polygon fill="midnightblue" stroke="midnightblue" points="781.64,-278.61 792.09,-280.32 784.99,-272.46 781.64,-278.61"/>
</g>
<!-- Node14 -->
<g id="node14" class="node">
<title>Node14</title>
<g id="a_node14"><a xlink:href="_act_src_line_op_8_h.html" target="_top" xlink:title=" ">
<polygon fill="white" stroke="black" points="973,-112.5 973,-131.5 1065,-131.5 1065,-112.5 973,-112.5"/>
<text text-anchor="middle" x="1019" y="-119.5" font-family="Helvetica,sans-Serif" font-size="10.00">ActSrcLineOp.H</text>
</a>
</g>
</g>
<!-- Node13&#45;&gt;Node14 -->
<g id="edge18" class="edge">
<title>Node13&#45;&gt;Node14</title>
<path fill="none" stroke="midnightblue" d="M1019,-157.8C1019,-148.91 1019,-138.78 1019,-131.75"/>
<polygon fill="midnightblue" stroke="midnightblue" points="1015.5,-158.08 1019,-168.08 1022.5,-158.08 1015.5,-158.08"/>
</g>
<!-- Node13&#45;&gt;Node15 -->
<g id="edge25" class="edge">
<title>Node13&#45;&gt;Node15</title>
<path fill="none" stroke="midnightblue" d="M993.56,-163.13C974.54,-150.79 953.5,-131.71 964,-112 973.29,-94.56 992.67,-82.68 1008.21,-75.53"/>
<polygon fill="midnightblue" stroke="midnightblue" points="991.95,-166.24 1002.31,-168.45 995.59,-160.26 991.95,-166.24"/>
</g>
<!-- Node21 -->
<g id="node21" class="node">
<title>Node21</title>
<g id="a_node21"><a xlink:href="_act_src_disk_op___turbine_8_h.html" target="_top" xlink:title=" ">
<polygon fill="white" stroke="black" points="1083,-112.5 1083,-131.5 1217,-131.5 1217,-112.5 1083,-112.5"/>
<text text-anchor="middle" x="1150" y="-119.5" font-family="Helvetica,sans-Serif" font-size="10.00">ActSrcDiskOp_Turbine.H</text>
</a>
</g>
</g>
<!-- Node13&#45;&gt;Node21 -->
<g id="edge26" class="edge">
<title>Node13&#45;&gt;Node21</title>
<path fill="none" stroke="midnightblue" d="M1049.32,-164.5C1073.88,-154.38 1107.82,-140.39 1129.34,-131.52"/>
<polygon fill="midnightblue" stroke="midnightblue" points="1047.67,-161.4 1039.76,-168.44 1050.34,-167.87 1047.67,-161.4"/>
</g>
<!-- Node22 -->
<g id="node22" class="node">
<title>Node22</title>
<g id="a_node22"><a xlink:href="_act_src_disk_op_8_h.html" target="_top" xlink:title=" ">
<polygon fill="white" stroke="black" points="1235.5,-112.5 1235.5,-131.5 1328.5,-131.5 1328.5,-112.5 1235.5,-112.5"/>
<text text-anchor="middle" x="1282" y="-119.5" font-family="Helvetica,sans-Serif" font-size="10.00">ActSrcDiskOp.H</text>
</a>
</g>
</g>
<!-- Node13&#45;&gt;Node22 -->
<g id="edge28" class="edge">
<title>Node13&#45;&gt;Node22</title>
<path fill="none" stroke="midnightblue" d="M1070.58,-166.41C1120.28,-156.2 1194.53,-140.96 1240.52,-131.52"/>
<polygon fill="midnightblue" stroke="midnightblue" points="1069.76,-163 1060.67,-168.44 1071.17,-169.86 1069.76,-163"/>
</g>
<!-- Node23 -->
<g id="node23" class="node">
<title>Node23</title>
<g id="a_node23"><a xlink:href="disk__ops_8_h.html" target="_top" xlink:title=" ">
<polygon fill="white" stroke="black" points="1385,-112.5 1385,-131.5 1455,-131.5 1455,-112.5 1385,-112.5"/>
<text text-anchor="middle" x="1420" y="-119.5" font-family="Helvetica,sans-Serif" font-size="10.00">disk_ops.H</text>
</a>
</g>
</g>
<!-- Node13&#45;&gt;Node23 -->
<g id="edge30" class="edge">
<title>Node13&#45;&gt;Node23</title>
<path fill="none" stroke="midnightblue" d="M1074.32,-169.55C1158.16,-158.26 1315.02,-137.14 1384.88,-127.73"/>
<polygon fill="midnightblue" stroke="midnightblue" points="1073.66,-166.11 1064.22,-170.91 1074.6,-173.04 1073.66,-166.11"/>
</g>
<!-- Node29 -->
<g id="node29" class="node">
<title>Node29</title>
<g id="a_node29"><a xlink:href="turbine__fast__ops_8_h.html" target="_top" xlink:title=" ">
<polygon fill="white" stroke="black" points="641,-112.5 641,-131.5 749,-131.5 749,-112.5 641,-112.5"/>
<text text-anchor="middle" x="695" y="-119.5" font-family="Helvetica,sans-Serif" font-size="10.00">turbine_fast_ops.H</text>
</a>
</g>
</g>
<!-- Node13&#45;&gt;Node29 -->
<g id="edge39" class="edge">
<title>Node13&#45;&gt;Node29</title>
<path fill="none" stroke="midnightblue" d="M963.74,-167.79C902.74,-157.62 805.34,-141.39 746.07,-131.51"/>
<polygon fill="midnightblue" stroke="midnightblue" points="963.51,-171.3 973.95,-169.49 964.66,-164.4 963.51,-171.3"/>
</g>
<!-- Node30 -->
<g id="node30" class="node">
<title>Node30</title>
<g id="a_node30"><a xlink:href="fixed__wing__ops_8_h.html" target="_top" xlink:title=" ">
<polygon fill="white" stroke="black" points="749.5,-56.5 749.5,-75.5 850.5,-75.5 850.5,-56.5 749.5,-56.5"/>
<text text-anchor="middle" x="800" y="-63.5" font-family="Helvetica,sans-Serif" font-size="10.00">fixed_wing_ops.H</text>
</a>
</g>
</g>
<!-- Node13&#45;&gt;Node30 -->
<g id="edge41" class="edge">
<title>Node13&#45;&gt;Node30</title>
<path fill="none" stroke="midnightblue" d="M992.88,-163.88C947.48,-141.08 855.25,-94.75 817.1,-75.59"/>
<polygon fill="midnightblue" stroke="midnightblue" points="991.31,-167.01 1001.82,-168.37 994.45,-160.75 991.31,-167.01"/>
</g>
<!-- Node13&#45;&gt;Node31 -->
<g id="edge43" class="edge">
<title>Node13&#45;&gt;Node31</title>
<path fill="none" stroke="midnightblue" d="M975.04,-165.96C934.43,-155.76 874.96,-140.82 837.91,-131.52"/>
<polygon fill="midnightblue" stroke="midnightblue" points="974.38,-169.4 984.93,-168.44 976.09,-162.61 974.38,-169.4"/>
</g>
<!-- Node32 -->
<g id="node32" class="node">
<title>Node32</title>
<g id="a_node32"><a xlink:href="flat__plate__ops_8_h.html" target="_top" xlink:title=" ">
<polygon fill="white" stroke="black" points="868.5,-56.5 868.5,-75.5 963.5,-75.5 963.5,-56.5 868.5,-56.5"/>
<text text-anchor="middle" x="916" y="-63.5" font-family="Helvetica,sans-Serif" font-size="10.00">flat_plate_ops.H</text>
</a>
</g>
</g>
<!-- Node13&#45;&gt;Node32 -->
<g id="edge48" class="edge">
<title>Node13&#45;&gt;Node32</title>
<path fill="none" stroke="midnightblue" d="M995.84,-162.83C983.72,-154.73 969.13,-143.84 958,-132 941.25,-114.18 927.09,-88.85 920.3,-75.69"/>
<polygon fill="midnightblue" stroke="midnightblue" points="994.23,-165.96 1004.53,-168.45 998.04,-160.08 994.23,-165.96"/>
</g>
<!-- Node14&#45;&gt;Node15 -->
<g id="edge19" class="edge">
<title>Node14&#45;&gt;Node15</title>
<path fill="none" stroke="midnightblue" d="M1023.2,-102.1C1025.19,-93.14 1027.48,-82.86 1029.06,-75.75"/>
<polygon fill="midnightblue" stroke="midnightblue" points="1019.73,-101.56 1020.98,-112.08 1026.57,-103.08 1019.73,-101.56"/>
</g>
<!-- Node15&#45;&gt;Node16 -->
<g id="edge20" class="edge">
<title>Node15&#45;&gt;Node16</title>
<path fill="none" stroke="midnightblue" d="M971.49,-55.97C837.23,-37.82 801.95,-36.66 672,-20 663.17,-18.87 653.68,-17.6 644.72,-16.39"/>
<polygon fill="midnightblue" stroke="midnightblue" points="971.38,-59.49 981.76,-57.37 972.32,-52.55 971.38,-59.49"/>
</g>
<!-- Node17 -->
<g id="node17" class="node">
<title>Node17</title>
<g id="a_node17"><a xlink:href="_actuator_disk_8cpp.html" target="_top" xlink:title=" ">
<polygon fill="white" stroke="black" points="1207,-0.5 1207,-19.5 1307,-19.5 1307,-0.5 1207,-0.5"/>
<text text-anchor="middle" x="1257" y="-7.5" font-family="Helvetica,sans-Serif" font-size="10.00">ActuatorDisk.cpp</text>
</a>
</g>
</g>
<!-- Node15&#45;&gt;Node17 -->
<g id="edge21" class="edge">
<title>Node15&#45;&gt;Node17</title>
<path fill="none" stroke="midnightblue" d="M1076.67,-54.09C1119.36,-43.89 1182.25,-28.86 1221.36,-19.52"/>
<polygon fill="midnightblue" stroke="midnightblue" points="1075.72,-50.72 1066.81,-56.44 1077.35,-57.52 1075.72,-50.72"/>
</g>
<!-- Node18 -->
<g id="node18" class="node">
<title>Node18</title>
<g id="a_node18"><a xlink:href="_turbine_fast_8cpp.html" target="_top" xlink:title=" ">
<polygon fill="white" stroke="black" points="681,-0.5 681,-19.5 773,-19.5 773,-0.5 681,-0.5"/>
<text text-anchor="middle" x="727" y="-7.5" font-family="Helvetica,sans-Serif" font-size="10.00">TurbineFast.cpp</text>
</a>
</g>
</g>
<!-- Node15&#45;&gt;Node18 -->
<g id="edge22" class="edge">
<title>Node15&#45;&gt;Node18</title>
<path fill="none" stroke="midnightblue" d="M972.72,-54.65C914.73,-44.35 826.9,-28.74 773.45,-19.25"/>
<polygon fill="midnightblue" stroke="midnightblue" points="972.37,-58.14 982.83,-56.44 973.6,-51.25 972.37,-58.14"/>
</g>
<!-- Node19 -->
<g id="node19" class="node">
<title>Node19</title>
<g id="a_node19"><a xlink:href="_fixed_wing_8cpp.html" target="_top" xlink:title=" ">
<polygon fill="white" stroke="black" points="801.5,-0.5 801.5,-19.5 888.5,-19.5 888.5,-0.5 801.5,-0.5"/>
<text text-anchor="middle" x="845" y="-7.5" font-family="Helvetica,sans-Serif" font-size="10.00">FixedWing.cpp</text>
</a>
</g>
</g>
<!-- Node15&#45;&gt;Node19 -->
<g id="edge23" class="edge">
<title>Node15&#45;&gt;Node19</title>
<path fill="none" stroke="midnightblue" d="M991.62,-53.57C956.53,-43.38 905.98,-28.7 874.33,-19.52"/>
<polygon fill="midnightblue" stroke="midnightblue" points="990.95,-57.02 1001.53,-56.44 992.9,-50.29 990.95,-57.02"/>
</g>
<!-- Node20 -->
<g id="node20" class="node">
<title>Node20</title>
<g id="a_node20"><a xlink:href="_flat_plate_8cpp.html" target="_top" xlink:title=" ">
<polygon fill="white" stroke="black" points="971,-0.5 971,-19.5 1051,-19.5 1051,-0.5 971,-0.5"/>
<text text-anchor="middle" x="1011" y="-7.5" font-family="Helvetica,sans-Serif" font-size="10.00">FlatPlate.cpp</text>
</a>
</g>
</g>
<!-- Node15&#45;&gt;Node20 -->
<g id="edge24" class="edge">
<title>Node15&#45;&gt;Node20</title>
<path fill="none" stroke="midnightblue" d="M1024.22,-46.69C1020.85,-37.59 1016.93,-27.01 1014.24,-19.75"/>
<polygon fill="midnightblue" stroke="midnightblue" points="1020.94,-47.92 1027.7,-56.08 1027.51,-45.49 1020.94,-47.92"/>
</g>
<!-- Node21&#45;&gt;Node15 -->
<g id="edge27" class="edge">
<title>Node21&#45;&gt;Node15</title>
<path fill="none" stroke="midnightblue" d="M1121.86,-108.23C1099.6,-98.13 1069.14,-84.31 1049.77,-75.52"/>
<polygon fill="midnightblue" stroke="midnightblue" points="1120.59,-111.5 1131.14,-112.44 1123.48,-105.12 1120.59,-111.5"/>
</g>
<!-- Node22&#45;&gt;Node15 -->
<g id="edge29" class="edge">
<title>Node22&#45;&gt;Node15</title>
<path fill="none" stroke="midnightblue" d="M1232.18,-110.28C1184.75,-100.08 1114.3,-84.92 1070.59,-75.52"/>
<polygon fill="midnightblue" stroke="midnightblue" points="1231.72,-113.76 1242.23,-112.44 1233.19,-106.92 1231.72,-113.76"/>
</g>
<!-- Node24 -->
<g id="node24" class="node">
<title>Node24</title>
<g id="a_node24"><a xlink:href="uniform__ct__ops_8_h.html" target="_top" xlink:title=" ">
<polygon fill="white" stroke="black" points="1408,-56.5 1408,-75.5 1510,-75.5 1510,-56.5 1408,-56.5"/>
<text text-anchor="middle" x="1459" y="-63.5" font-family="Helvetica,sans-Serif" font-size="10.00">uniform_ct_ops.H</text>
</a>
</g>
</g>
<!-- Node23&#45;&gt;Node24 -->
<g id="edge31" class="edge">
<title>Node23&#45;&gt;Node24</title>
<path fill="none" stroke="midnightblue" d="M1432.38,-103.86C1439.14,-94.5 1447.21,-83.33 1452.68,-75.75"/>
<polygon fill="midnightblue" stroke="midnightblue" points="1429.46,-101.93 1426.44,-112.08 1435.13,-106.03 1429.46,-101.93"/>
</g>
<!-- Node26 -->
<g id="node26" class="node">
<title>Node26</title>
<g id="a_node26"><a xlink:href="_joukowsky__ops_8_h.html" target="_top" xlink:title=" ">
<polygon fill="white" stroke="black" points="1250.5,-56.5 1250.5,-75.5 1351.5,-75.5 1351.5,-56.5 1250.5,-56.5"/>
<text text-anchor="middle" x="1301" y="-63.5" font-family="Helvetica,sans-Serif" font-size="10.00">Joukowsky_ops.H</text>
</a>
</g>
</g>
<!-- Node23&#45;&gt;Node26 -->
<g id="edge34" class="edge">
<title>Node23&#45;&gt;Node26</title>
<path fill="none" stroke="midnightblue" d="M1391.86,-108.23C1369.6,-98.13 1339.14,-84.31 1319.77,-75.52"/>
<polygon fill="midnightblue" stroke="midnightblue" points="1390.59,-111.5 1401.14,-112.44 1393.48,-105.12 1390.59,-111.5"/>
</g>
<!-- Node27 -->
<g id="node27" class="node">
<title>Node27</title>
<g id="a_node27"><a xlink:href="_joukowsky__ops_8cpp.html" target="_top" xlink:title=" ">
<polygon fill="white" stroke="black" points="1325,-0.5 1325,-19.5 1435,-19.5 1435,-0.5 1325,-0.5"/>
<text text-anchor="middle" x="1380" y="-7.5" font-family="Helvetica,sans-Serif" font-size="10.00">Joukowsky_ops.cpp</text>
</a>
</g>
</g>
<!-- Node23&#45;&gt;Node27 -->
<g id="edge38" class="edge">
<title>Node23&#45;&gt;Node27</title>
<path fill="none" stroke="midnightblue" d="M1410.83,-102.99C1406.89,-94.86 1402.42,-85.08 1399,-76 1391.53,-56.2 1385.17,-32.11 1382.06,-19.55"/>
<polygon fill="midnightblue" stroke="midnightblue" points="1407.82,-104.81 1415.41,-112.21 1414.09,-101.69 1407.82,-104.81"/>
</g>
<!-- Node28 -->
<g id="node28" class="node">
<title>Node28</title>
<g id="a_node28"><a xlink:href="disk__ops_8cpp.html" target="_top" xlink:title=" ">
<polygon fill="white" stroke="black" points="1152,-56.5 1152,-75.5 1232,-75.5 1232,-56.5 1152,-56.5"/>
<text text-anchor="middle" x="1192" y="-63.5" font-family="Helvetica,sans-Serif" font-size="10.00">disk_ops.cpp</text>
</a>
</g>
</g>
<!-- Node23&#45;&gt;Node28 -->
<g id="edge37" class="edge">
<title>Node23&#45;&gt;Node28</title>
<path fill="none" stroke="midnightblue" d="M1374.94,-110.33C1331.84,-100.12 1267.68,-84.92 1227.92,-75.51"/>
<polygon fill="midnightblue" stroke="midnightblue" points="1374.34,-113.78 1384.87,-112.68 1375.95,-106.97 1374.34,-113.78"/>
</g>
<!-- Node24&#45;&gt;Node17 -->
<g id="edge32" class="edge">
<title>Node24&#45;&gt;Node17</title>
<path fill="none" stroke="midnightblue" d="M1417.21,-53.83C1379.07,-43.63 1323.52,-28.78 1288.86,-19.52"/>
<polygon fill="midnightblue" stroke="midnightblue" points="1416.43,-57.24 1426.99,-56.44 1418.24,-50.48 1416.43,-57.24"/>
</g>
<!-- Node24&#45;&gt;Node25 -->
<g id="edge33" class="edge">
<title>Node24&#45;&gt;Node25</title>
<path fill="none" stroke="midnightblue" d="M1476.99,-49.82C1488.46,-40.15 1502.91,-27.95 1512.53,-19.83"/>
<polygon fill="midnightblue" stroke="midnightblue" points="1474.67,-47.2 1469.28,-56.32 1479.18,-52.55 1474.67,-47.2"/>
</g>
<!-- Node26&#45;&gt;Node17 -->
<g id="edge35" class="edge">
<title>Node26&#45;&gt;Node17</title>
<path fill="none" stroke="midnightblue" d="M1287.27,-48.14C1279.6,-38.74 1270.37,-27.4 1264.13,-19.75"/>
<polygon fill="midnightblue" stroke="midnightblue" points="1284.7,-50.54 1293.73,-56.08 1290.13,-46.12 1284.7,-50.54"/>
</g>
<!-- Node26&#45;&gt;Node27 -->
<g id="edge36" class="edge">
<title>Node26&#45;&gt;Node27</title>
<path fill="none" stroke="midnightblue" d="M1322.03,-50.62C1336.47,-40.76 1355.14,-27.99 1367.34,-19.65"/>
<polygon fill="midnightblue" stroke="midnightblue" points="1319.97,-47.79 1313.69,-56.32 1323.92,-53.57 1319.97,-47.79"/>
</g>
<!-- Node29&#45;&gt;Node18 -->
<g id="edge40" class="edge">
<title>Node29&#45;&gt;Node18</title>
<path fill="none" stroke="midnightblue" d="M700.33,-102.67C707.33,-78.62 719.32,-37.39 724.5,-19.59"/>
<polygon fill="midnightblue" stroke="midnightblue" points="696.94,-101.79 697.51,-112.37 703.67,-103.74 696.94,-101.79"/>
</g>
<!-- Node30&#45;&gt;Node19 -->
<g id="edge42" class="edge">
<title>Node30&#45;&gt;Node19</title>
<path fill="none" stroke="midnightblue" d="M814.05,-48.14C821.89,-38.74 831.33,-27.4 837.71,-19.75"/>
<polygon fill="midnightblue" stroke="midnightblue" points="811.14,-46.16 807.43,-56.08 816.52,-50.64 811.14,-46.16"/>
</g>
<!-- Node31&#45;&gt;Node30 -->
<g id="edge44" class="edge">
<title>Node31&#45;&gt;Node30</title>
<path fill="none" stroke="midnightblue" d="M802.6,-102.1C801.94,-93.14 801.17,-82.86 800.65,-75.75"/>
<polygon fill="midnightblue" stroke="midnightblue" points="799.11,-102.37 803.34,-112.08 806.09,-101.85 799.11,-102.37"/>
</g>
<!-- Node31&#45;&gt;Node32 -->
<g id="edge45" class="edge">
<title>Node31&#45;&gt;Node32</title>
<path fill="none" stroke="midnightblue" d="M831.25,-107.86C852.02,-97.85 880.02,-84.35 898.05,-75.65"/>
<polygon fill="midnightblue" stroke="midnightblue" points="829.48,-104.83 821.99,-112.32 832.52,-111.13 829.48,-104.83"/>
</g>
<!-- Node31&#45;&gt;Node33 -->
<g id="edge47" class="edge">
<title>Node31&#45;&gt;Node33</title>
<path fill="none" stroke="midnightblue" d="M768.48,-109.3C737.58,-99.13 693.53,-84.62 665.86,-75.52"/>
<polygon fill="midnightblue" stroke="midnightblue" points="767.42,-112.64 778.01,-112.44 769.61,-105.99 767.42,-112.64"/>
</g>
<!-- Node32&#45;&gt;Node20 -->
<g id="edge46" class="edge">
<title>Node32&#45;&gt;Node20</title>
<path fill="none" stroke="midnightblue" d="M940.32,-51.18C957.8,-41.24 980.83,-28.15 995.77,-19.65"/>
<polygon fill="midnightblue" stroke="midnightblue" points="938.23,-48.34 931.26,-56.32 941.69,-54.43 938.23,-48.34"/>
</g>
<!-- Node35 -->
<g id="node35" class="node">
<title>Node35</title>
<g id="a_node35"><a xlink:href="_f_l_l_c_8cpp.html" target="_top" xlink:title=" ">
<polygon fill="white" stroke="black" points="858,-168.5 858,-187.5 918,-187.5 918,-168.5 858,-168.5"/>
<text text-anchor="middle" x="888" y="-175.5" font-family="Helvetica,sans-Serif" font-size="10.00">FLLC.cpp</text>
</a>
</g>
</g>
<!-- Node34&#45;&gt;Node35 -->
<g id="edge53" class="edge">
<title>Node34&#45;&gt;Node35</title>
<path fill="none" stroke="midnightblue" d="M829.3,-218.62C843.92,-208.76 862.83,-195.99 875.18,-187.65"/>
<polygon fill="midnightblue" stroke="midnightblue" points="827.18,-215.83 820.85,-224.32 831.1,-221.63 827.18,-215.83"/>
</g>
<!-- Node36 -->
<g id="node36" class="node">
<title>Node36</title>
<g id="a_node36"><a xlink:href="_f_l_l_c_op_8_h.html" target="_top" xlink:title=" ">
<polygon fill="white" stroke="black" points="776,-168.5 776,-187.5 840,-187.5 840,-168.5 776,-168.5"/>
<text text-anchor="middle" x="808" y="-175.5" font-family="Helvetica,sans-Serif" font-size="10.00">FLLCOp.H</text>
</a>
</g>
</g>
<!-- Node34&#45;&gt;Node36 -->
<g id="edge54" class="edge">
<title>Node34&#45;&gt;Node36</title>
<path fill="none" stroke="midnightblue" d="M808,-213.8C808,-204.91 808,-194.78 808,-187.75"/>
<polygon fill="midnightblue" stroke="midnightblue" points="804.5,-214.08 808,-224.08 811.5,-214.08 804.5,-214.08"/>
</g>
<!-- Node37 -->
<g id="node37" class="node">
<title>Node37</title>
<g id="a_node37"><a xlink:href="turbine__utils_8cpp.html" target="_top" xlink:title=" ">
<polygon fill="white" stroke="black" points="660,-168.5 660,-187.5 758,-187.5 758,-168.5 660,-168.5"/>
<text text-anchor="middle" x="709" y="-175.5" font-family="Helvetica,sans-Serif" font-size="10.00">turbine_utils.cpp</text>
</a>
</g>
</g>
<!-- Node34&#45;&gt;Node37 -->
<g id="edge57" class="edge">
<title>Node34&#45;&gt;Node37</title>
<path fill="none" stroke="midnightblue" d="M783.16,-219.45C764.89,-209.48 740.58,-196.23 724.87,-187.65"/>
<polygon fill="midnightblue" stroke="midnightblue" points="781.64,-222.61 792.09,-224.32 784.99,-216.46 781.64,-222.61"/>
</g>
<!-- Node36&#45;&gt;Node29 -->
<g id="edge55" class="edge">
<title>Node36&#45;&gt;Node29</title>
<path fill="none" stroke="midnightblue" d="M781,-164.1C759.89,-154.01 731.14,-140.27 712.82,-131.52"/>
<polygon fill="midnightblue" stroke="midnightblue" points="779.56,-167.29 790.09,-168.44 782.58,-160.97 779.56,-167.29"/>
</g>
<!-- Node36&#45;&gt;Node31 -->
<g id="edge56" class="edge">
<title>Node36&#45;&gt;Node31</title>
<path fill="none" stroke="midnightblue" d="M806.6,-158.1C805.94,-149.14 805.17,-138.86 804.65,-131.75"/>
<polygon fill="midnightblue" stroke="midnightblue" points="803.11,-158.37 807.34,-168.08 810.09,-157.85 803.11,-158.37"/>
</g>
<!-- Node38&#45;&gt;Node29 -->
<g id="edge59" class="edge">
<title>Node38&#45;&gt;Node29</title>
<path fill="none" stroke="midnightblue" d="M681.87,-219.32C670.1,-211.82 657.52,-201.32 651,-188 640.39,-166.34 665.49,-143.56 681.98,-131.56"/>
<polygon fill="midnightblue" stroke="midnightblue" points="680.22,-222.41 690.61,-224.47 683.77,-216.38 680.22,-222.41"/>
</g>
<!-- Node38&#45;&gt;Node37 -->
<g id="edge60" class="edge">
<title>Node38&#45;&gt;Node37</title>
<path fill="none" stroke="midnightblue" d="M709,-213.8C709,-204.91 709,-194.78 709,-187.75"/>
<polygon fill="midnightblue" stroke="midnightblue" points="705.5,-214.08 709,-224.08 712.5,-214.08 705.5,-214.08"/>
</g>
</g>
</svg>
