<?xml version="1.0" encoding="UTF-8" standalone="no"?>
<!DOCTYPE svg PUBLIC "-//W3C//DTD SVG 1.1//EN"
 "http://www.w3.org/Graphics/SVG/1.1/DTD/svg11.dtd">
<!-- Generated by graphviz version 2.43.0 (0)
 -->
<!-- Title: PDEBase.H Pages: 1 -->
<!--zoomable 252 -->
<svg id="main" version="1.1" xmlns="http://www.w3.org/2000/svg" xmlns:xlink="http://www.w3.org/1999/xlink" xml:space="preserve" onload="init(evt)">
<style type="text/css"><![CDATA[
.edge:hover path { stroke: red; }
.edge:hover polygon { stroke: red; fill: red; }
]]></style>
<script type="text/javascript"><![CDATA[
var edges = document.getElementsByTagName('g');
if (edges && edges.length) {
  for (var i=0;i<edges.length;i++) {
    if (edges[i].id.substr(0,4)=='edge') {
      edges[i].setAttribute('class','edge');
    }
  }
}
]]></script>
        <defs>
                <circle id="rim" cx="0" cy="0" r="7"/>
                <circle id="rim2" cx="0" cy="0" r="3.5"/>
                <g id="zoomPlus">
                        <use xlink:href="#rim" fill="#404040">
                                <set attributeName="fill" to="#808080" begin="zoomplus.mouseover" end="zoomplus.mouseout"/>
                        </use>
                        <path d="M-4,0h8M0,-4v8" fill="none" stroke="white" stroke-width="1.5" pointer-events="none"/>
                </g>
                <g id="zoomMin">
                        <use xlink:href="#rim" fill="#404040">
                                <set attributeName="fill" to="#808080" begin="zoomminus.mouseover" end="zoomminus.mouseout"/>
                        </use>
                        <path d="M-4,0h8" fill="none" stroke="white" stroke-width="1.5" pointer-events="none"/>
                </g>
                <g id="dirArrow">
                        <path fill="none" stroke="white" stroke-width="1.5" d="M0,-3.0v7 M-2.5,-0.5L0,-3.0L2.5,-0.5"/>
                </g>
               <g id="resetDef">
                       <use xlink:href="#rim2" fill="#404040">
                               <set attributeName="fill" to="#808080" begin="reset.mouseover" end="reset.mouseout"/>
                       </use>
               </g>
        </defs>

<script type="text/javascript">
var viewWidth = 4704;
var viewHeight = 252;
var sectionId = 'dynsection-1';
</script>
<script xlink:href="svgpan.js"/>
<svg id="graph" class="graph">
<g id="viewport">
<title>PDEBase.H</title>
<polygon fill="white" stroke="transparent" points="-4,4 -4,-248 4699.5,-248 4699.5,4 -4,4"/>
<!-- Node1 -->
<g id="node1" class="node">
<title>Node1</title>
<g id="a_node1"><a xlink:title=" ">
<polygon fill="#bfbfbf" stroke="black" points="4288,-224.5 4288,-243.5 4359,-243.5 4359,-224.5 4288,-224.5"/>
<text text-anchor="middle" x="4323.5" y="-231.5" font-family="Helvetica,sans-Serif" font-size="10.00">PDEBase.H</text>
</a>
</g>
</g>
<!-- Node2 -->
<g id="node2" class="node">
<title>Node2</title>
<g id="a_node2"><a xlink:href="_c_f_d_sim_8_h.html" target="_top" xlink:title=" ">
<polygon fill="white" stroke="red" points="2585.5,-168.5 2585.5,-187.5 2651.5,-187.5 2651.5,-168.5 2585.5,-168.5"/>
<text text-anchor="middle" x="2618.5" y="-175.5" font-family="Helvetica,sans-Serif" font-size="10.00">CFDSim.H</text>
</a>
</g>
</g>
<!-- Node1&#45;&gt;Node2 -->
<g id="edge1" class="edge">
<title>Node1&#45;&gt;Node2</title>
<path fill="none" stroke="midnightblue" d="M4277.85,-231.55C4031.56,-223.75 2864.47,-186.79 2651.8,-180.05"/>
<polygon fill="midnightblue" stroke="midnightblue" points="4277.78,-235.05 4287.89,-231.87 4278,-228.06 4277.78,-235.05"/>
</g>
<!-- Node7 -->
<g id="node6" class="node">
<title>Node7</title>
<g id="a_node6"><a xlink:href="incflo_8cpp.html" target="_top" xlink:title=" ">
<polygon fill="white" stroke="black" points="0,-56.5 0,-75.5 63,-75.5 63,-56.5 0,-56.5"/>
<text text-anchor="middle" x="31.5" y="-63.5" font-family="Helvetica,sans-Serif" font-size="10.00">incflo.cpp</text>
</a>
</g>
</g>
<!-- Node1&#45;&gt;Node7 -->
<g id="edge58" class="edge">
<title>Node1&#45;&gt;Node7</title>
<path fill="none" stroke="midnightblue" d="M4277.85,-232.96C3909.93,-232.58 1422.89,-228.54 673.5,-188 413.58,-173.94 323.19,-248.67 90.5,-132 64.89,-119.16 45.07,-90.12 36.36,-75.6"/>
<polygon fill="midnightblue" stroke="midnightblue" points="4277.87,-236.46 4287.87,-232.97 4277.88,-229.46 4277.87,-236.46"/>
</g>
<!-- Node8 -->
<g id="node7" class="node">
<title>Node8</title>
<g id="a_node7"><a xlink:href="incflo__advance_8cpp.html" target="_top" xlink:title=" ">
<polygon fill="white" stroke="black" points="81.5,-56.5 81.5,-75.5 191.5,-75.5 191.5,-56.5 81.5,-56.5"/>
<text text-anchor="middle" x="136.5" y="-63.5" font-family="Helvetica,sans-Serif" font-size="10.00">incflo_advance.cpp</text>
</a>
</g>
</g>
<!-- Node1&#45;&gt;Node8 -->
<g id="edge59" class="edge">
<title>Node1&#45;&gt;Node8</title>
<path fill="none" stroke="midnightblue" d="M4277.77,-232.65C3841.58,-229.27 427.32,-200.61 225.5,-132 191.44,-120.42 159.41,-90.79 144.79,-75.87"/>
<polygon fill="midnightblue" stroke="midnightblue" points="4277.78,-236.16 4287.81,-232.73 4277.84,-229.16 4277.78,-236.16"/>
</g>
<!-- Node34 -->
<g id="node9" class="node">
<title>Node34</title>
<g id="a_node9"><a xlink:href="_p_d_e_8_h.html" target="_top" xlink:title=" ">
<polygon fill="white" stroke="red" points="3953,-56.5 3953,-75.5 4000,-75.5 4000,-56.5 3953,-56.5"/>
<text text-anchor="middle" x="3976.5" y="-63.5" font-family="Helvetica,sans-Serif" font-size="10.00">PDE.H</text>
</a>
</g>
</g>
<!-- Node1&#45;&gt;Node34 -->
<g id="edge56" class="edge">
<title>Node1&#45;&gt;Node34</title>
<path fill="none" stroke="midnightblue" d="M4333.76,-215.55C4350.5,-185.98 4380.49,-127.7 4366.5,-112 4341.98,-84.49 4080.6,-71.35 4000.02,-67.93"/>
<polygon fill="midnightblue" stroke="midnightblue" points="4330.64,-213.96 4328.67,-224.38 4336.7,-217.46 4330.64,-213.96"/>
</g>
<!-- Node90 -->
<g id="node27" class="node">
<title>Node90</title>
<g id="a_node27"><a xlink:href="_p_d_e_base_8cpp.html" target="_top" xlink:title=" ">
<polygon fill="white" stroke="black" points="4152.5,-112.5 4152.5,-131.5 4232.5,-131.5 4232.5,-112.5 4152.5,-112.5"/>
<text text-anchor="middle" x="4192.5" y="-119.5" font-family="Helvetica,sans-Serif" font-size="10.00">PDEBase.cpp</text>
</a>
</g>
</g>
<!-- Node1&#45;&gt;Node90 -->
<g id="edge57" class="edge">
<title>Node1&#45;&gt;Node90</title>
<path fill="none" stroke="midnightblue" d="M4305.42,-217.82C4277.52,-194.39 4224.88,-150.19 4202.73,-131.59"/>
<polygon fill="midnightblue" stroke="midnightblue" points="4303.31,-220.62 4313.22,-224.37 4307.81,-215.26 4303.31,-220.62"/>
</g>
<!-- Node107 -->
<g id="node35" class="node">
<title>Node107</title>
<g id="a_node35"><a xlink:href="_tioga_interface_8cpp.html" target="_top" xlink:title=" ">
<polygon fill="white" stroke="black" points="4251,-112.5 4251,-131.5 4358,-131.5 4358,-112.5 4251,-112.5"/>
<text text-anchor="middle" x="4304.5" y="-119.5" font-family="Helvetica,sans-Serif" font-size="10.00">TiogaInterface.cpp</text>
</a>
</g>
</g>
<!-- Node1&#45;&gt;Node107 -->
<g id="edge60" class="edge">
<title>Node1&#45;&gt;Node107</title>
<path fill="none" stroke="midnightblue" d="M4320.28,-214.35C4316.12,-190.25 4309.04,-149.31 4305.98,-131.59"/>
<polygon fill="midnightblue" stroke="midnightblue" points="4316.86,-215.11 4322.01,-224.37 4323.76,-213.92 4316.86,-215.11"/>
</g>
<!-- Node50 -->
<g id="node47" class="node">
<title>Node50</title>
<g id="a_node47"><a xlink:href="_one_eq_ksgs_8cpp.html" target="_top" xlink:title=" ">
<polygon fill="white" stroke="black" points="4370.5,-168.5 4370.5,-187.5 4462.5,-187.5 4462.5,-168.5 4370.5,-168.5"/>
<text text-anchor="middle" x="4416.5" y="-175.5" font-family="Helvetica,sans-Serif" font-size="10.00">OneEqKsgs.cpp</text>
</a>
</g>
</g>
<!-- Node1&#45;&gt;Node50 -->
<g id="edge61" class="edge">
<title>Node1&#45;&gt;Node50</title>
<path fill="none" stroke="midnightblue" d="M4347.31,-219.18C4364.42,-209.24 4386.97,-196.15 4401.6,-187.65"/>
<polygon fill="midnightblue" stroke="midnightblue" points="4345.33,-216.28 4338.44,-224.32 4348.85,-222.33 4345.33,-216.28"/>
</g>
<!-- Node44 -->
<g id="node48" class="node">
<title>Node44</title>
<g id="a_node48"><a xlink:href="_k_omega_s_s_t_i_8_h.html" target="_top" xlink:title=" ">
<polygon fill="white" stroke="black" points="4519,-168.5 4519,-187.5 4608,-187.5 4608,-168.5 4519,-168.5"/>
<text text-anchor="middle" x="4563.5" y="-175.5" font-family="Helvetica,sans-Serif" font-size="10.00">KOmegaSSTI.H</text>
</a>
</g>
</g>
<!-- Node1&#45;&gt;Node44 -->
<g id="edge62" class="edge">
<title>Node1&#45;&gt;Node44</title>
<path fill="none" stroke="midnightblue" d="M4369.04,-222.75C4414.39,-212.55 4483.21,-197.07 4525.65,-187.52"/>
<polygon fill="midnightblue" stroke="midnightblue" points="4368.16,-219.36 4359.17,-224.97 4369.7,-226.19 4368.16,-219.36"/>
</g>
<!-- Node45 -->
<g id="node49" class="node">
<title>Node45</title>
<g id="a_node49"><a xlink:href="_k_omega_s_s_t_8cpp.html" target="_top" xlink:title=" ">
<polygon fill="white" stroke="black" points="4448,-112.5 4448,-131.5 4543,-131.5 4543,-112.5 4448,-112.5"/>
<text text-anchor="middle" x="4495.5" y="-119.5" font-family="Helvetica,sans-Serif" font-size="10.00">KOmegaSST.cpp</text>
</a>
</g>
</g>
<!-- Node1&#45;&gt;Node45 -->
<g id="edge65" class="edge">
<title>Node1&#45;&gt;Node45</title>
<path fill="none" stroke="midnightblue" d="M4369.13,-229.71C4401.45,-225.1 4443.82,-214.1 4471.5,-188 4487.6,-172.81 4492.96,-145.88 4494.69,-131.93"/>
<polygon fill="midnightblue" stroke="midnightblue" points="4368.5,-226.26 4359.02,-230.99 4369.38,-233.21 4368.5,-226.26"/>
</g>
<!-- Node46 -->
<g id="node50" class="node">
<title>Node46</title>
<g id="a_node50"><a xlink:href="_k_omega_s_s_t_i_d_d_e_s_8cpp.html" target="_top" xlink:title=" ">
<polygon fill="white" stroke="black" points="4569.5,-112.5 4569.5,-131.5 4695.5,-131.5 4695.5,-112.5 4569.5,-112.5"/>
<text text-anchor="middle" x="4632.5" y="-119.5" font-family="Helvetica,sans-Serif" font-size="10.00">KOmegaSSTIDDES.cpp</text>
</a>
</g>
</g>
<!-- Node1&#45;&gt;Node46 -->
<g id="edge66" class="edge">
<title>Node1&#45;&gt;Node46</title>
<path fill="none" stroke="midnightblue" d="M4369.41,-232.08C4442.9,-229.63 4582.28,-220.68 4617.5,-188 4633.29,-173.35 4634.05,-145.67 4633.29,-131.64"/>
<polygon fill="midnightblue" stroke="midnightblue" points="4368.96,-228.59 4359.07,-232.39 4369.17,-235.59 4368.96,-228.59"/>
</g>
<!-- Node3 -->
<g id="node3" class="node">
<title>Node3</title>
<g id="a_node3"><a xlink:href="_c_f_d_sim_8cpp.html" target="_top" xlink:title=" ">
<polygon fill="white" stroke="black" points="3686.5,-112.5 3686.5,-131.5 3762.5,-131.5 3762.5,-112.5 3686.5,-112.5"/>
<text text-anchor="middle" x="3724.5" y="-119.5" font-family="Helvetica,sans-Serif" font-size="10.00">CFDSim.cpp</text>
</a>
</g>
</g>
<!-- Node2&#45;&gt;Node3 -->
<g id="edge2" class="edge">
<title>Node2&#45;&gt;Node3</title>
<path fill="none" stroke="midnightblue" d="M2661.75,-177.37C2806.12,-178.13 3284.47,-176.86 3676.5,-132 3679.7,-131.63 3683.01,-131.18 3686.32,-130.67"/>
<polygon fill="midnightblue" stroke="midnightblue" points="2661.56,-173.87 2651.54,-177.31 2661.52,-180.87 2661.56,-173.87"/>
</g>
<!-- Node4 -->
<g id="node4" class="node">
<title>Node4</title>
<g id="a_node4"><a xlink:href="_mesh_map_8cpp.html" target="_top" xlink:title=" ">
<polygon fill="white" stroke="black" points="3780.5,-112.5 3780.5,-131.5 3864.5,-131.5 3864.5,-112.5 3780.5,-112.5"/>
<text text-anchor="middle" x="3822.5" y="-119.5" font-family="Helvetica,sans-Serif" font-size="10.00">MeshMap.cpp</text>
</a>
</g>
</g>
<!-- Node2&#45;&gt;Node4 -->
<g id="edge3" class="edge">
<title>Node2&#45;&gt;Node4</title>
<path fill="none" stroke="midnightblue" d="M2661.98,-177.42C2814.71,-178.46 3340.65,-178.21 3771.5,-132 3774.36,-131.69 3777.3,-131.32 3780.26,-130.91"/>
<polygon fill="midnightblue" stroke="midnightblue" points="2661.66,-173.92 2651.64,-177.35 2661.61,-180.92 2661.66,-173.92"/>
</g>
<!-- Node5 -->
<g id="node5" class="node">
<title>Node5</title>
<g id="a_node5"><a xlink:href="incflo_8_h.html" target="_top" xlink:title=" ">
<polygon fill="white" stroke="red" points="100,-112.5 100,-131.5 153,-131.5 153,-112.5 100,-112.5"/>
<text text-anchor="middle" x="126.5" y="-119.5" font-family="Helvetica,sans-Serif" font-size="10.00">incflo.H</text>
</a>
</g>
</g>
<!-- Node2&#45;&gt;Node5 -->
<g id="edge4" class="edge">
<title>Node2&#45;&gt;Node5</title>
<path fill="none" stroke="midnightblue" d="M2574.92,-176.75C2290.27,-175.05 692.32,-164.2 205.5,-132 188.01,-130.84 168.43,-128.62 153.14,-126.67"/>
<polygon fill="midnightblue" stroke="midnightblue" points="2575.23,-180.25 2585.25,-176.81 2575.27,-173.25 2575.23,-180.25"/>
</g>
<!-- Node17 -->
<g id="node8" class="node">
<title>Node17</title>
<g id="a_node8"><a xlink:href="_p_d_e_ops_8_h.html" target="_top" xlink:title=" ">
<polygon fill="white" stroke="red" points="3883,-112.5 3883,-131.5 3948,-131.5 3948,-112.5 3883,-112.5"/>
<text text-anchor="middle" x="3915.5" y="-119.5" font-family="Helvetica,sans-Serif" font-size="10.00">PDEOps.H</text>
</a>
</g>
</g>
<!-- Node2&#45;&gt;Node17 -->
<g id="edge7" class="edge">
<title>Node2&#45;&gt;Node17</title>
<path fill="none" stroke="midnightblue" d="M2661.97,-176.46C2854.51,-173.93 3631.56,-162.02 3873.5,-132 3876.46,-131.63 3879.52,-131.16 3882.58,-130.62"/>
<polygon fill="midnightblue" stroke="midnightblue" points="2661.64,-172.97 2651.69,-176.6 2661.73,-179.97 2661.64,-172.97"/>
</g>
<!-- Node2&#45;&gt;Node34 -->
<g id="edge9" class="edge">
<title>Node2&#45;&gt;Node34</title>
<path fill="none" stroke="midnightblue" d="M2661.84,-176.95C2885.82,-176.49 3903.94,-172.2 3956.5,-132 3973.94,-118.66 3976.6,-90.39 3976.74,-75.93"/>
<polygon fill="midnightblue" stroke="midnightblue" points="2661.77,-173.45 2651.78,-176.96 2661.78,-180.45 2661.77,-173.45"/>
</g>
<!-- Node56 -->
<g id="node10" class="node">
<title>Node56</title>
<g id="a_node10"><a xlink:href="_a_b_l_forcing_8cpp.html" target="_top" xlink:title=" ">
<polygon fill="white" stroke="black" points="4005,-112.5 4005,-131.5 4096,-131.5 4096,-112.5 4005,-112.5"/>
<text text-anchor="middle" x="4050.5" y="-119.5" font-family="Helvetica,sans-Serif" font-size="10.00">ABLForcing.cpp</text>
</a>
</g>
</g>
<!-- Node2&#45;&gt;Node56 -->
<g id="edge10" class="edge">
<title>Node2&#45;&gt;Node56</title>
<path fill="none" stroke="midnightblue" d="M2661.53,-177.4C2830.99,-178.61 3468.6,-179.54 3990.5,-132 3995.12,-131.58 3999.92,-131.04 4004.7,-130.43"/>
<polygon fill="midnightblue" stroke="midnightblue" points="2661.53,-173.9 2651.5,-177.33 2661.48,-180.9 2661.53,-173.9"/>
</g>
<!-- Node57 -->
<g id="node11" class="node">
<title>Node57</title>
<g id="a_node11"><a xlink:href="_a_b_l_wall_function_8_h.html" target="_top" xlink:title=" ">
<polygon fill="white" stroke="red" points="368,-56.5 368,-75.5 475,-75.5 475,-56.5 368,-56.5"/>
<text text-anchor="middle" x="421.5" y="-63.5" font-family="Helvetica,sans-Serif" font-size="10.00">ABLWallFunction.H</text>
</a>
</g>
</g>
<!-- Node2&#45;&gt;Node57 -->
<g id="edge11" class="edge">
<title>Node2&#45;&gt;Node57</title>
<path fill="none" stroke="midnightblue" d="M2575.33,-176.81C2273.07,-175.41 484.48,-165.68 440.5,-132 423.14,-118.7 420.98,-90.42 421.09,-75.94"/>
<polygon fill="midnightblue" stroke="midnightblue" points="2575.44,-180.31 2585.45,-176.86 2575.47,-173.31 2575.44,-180.31"/>
</g>
<!-- Node61 -->
<g id="node12" class="node">
<title>Node61</title>
<g id="a_node12"><a xlink:href="_a_b_l_stats_base_8_h.html" target="_top" xlink:title=" ">
<polygon fill="white" stroke="red" points="456,-0.5 456,-19.5 551,-19.5 551,-0.5 456,-0.5"/>
<text text-anchor="middle" x="503.5" y="-7.5" font-family="Helvetica,sans-Serif" font-size="10.00">ABLStatsBase.H</text>
</a>
</g>
</g>
<!-- Node2&#45;&gt;Node61 -->
<g id="edge19" class="edge">
<title>Node2&#45;&gt;Node61</title>
<path fill="none" stroke="midnightblue" d="M2661.87,-176.51C2904,-173.68 4078.71,-158.58 4104.5,-132 4110.69,-125.62 4108.93,-119.71 4104.5,-112 4079.9,-69.17 4056.1,-69.2 4008.5,-56 3834.13,-7.66 957.55,-10.3 551.1,-10.92"/>
<polygon fill="midnightblue" stroke="midnightblue" points="2661.65,-173.01 2651.7,-176.63 2661.74,-180.01 2661.65,-173.01"/>
</g>
<!-- Node64 -->
<g id="node13" class="node">
<title>Node64</title>
<g id="a_node13"><a xlink:href="_boussinesq_bubble_8cpp.html" target="_top" xlink:title=" ">
<polygon fill="white" stroke="black" points="275.5,-0.5 275.5,-19.5 401.5,-19.5 401.5,-0.5 275.5,-0.5"/>
<text text-anchor="middle" x="338.5" y="-7.5" font-family="Helvetica,sans-Serif" font-size="10.00">BoussinesqBubble.cpp</text>
</a>
</g>
</g>
<!-- Node2&#45;&gt;Node64 -->
<g id="edge39" class="edge">
<title>Node2&#45;&gt;Node64</title>
<path fill="none" stroke="midnightblue" d="M2575.28,-177.02C2256.51,-177.03 281.07,-175.38 238.5,-132 199.94,-92.71 284.5,-40.09 321.88,-19.64"/>
<polygon fill="midnightblue" stroke="midnightblue" points="2575.49,-180.52 2585.49,-177.01 2575.49,-173.52 2575.49,-180.52"/>
</g>
<!-- Node65 -->
<g id="node14" class="node">
<title>Node65</title>
<g id="a_node14"><a xlink:href="_field_plane_averaging_8_h.html" target="_top" xlink:title=" ">
<polygon fill="white" stroke="red" points="449.5,-112.5 449.5,-131.5 575.5,-131.5 575.5,-112.5 449.5,-112.5"/>
<text text-anchor="middle" x="512.5" y="-119.5" font-family="Helvetica,sans-Serif" font-size="10.00">FieldPlaneAveraging.H</text>
</a>
</g>
</g>
<!-- Node2&#45;&gt;Node65 -->
<g id="edge14" class="edge">
<title>Node2&#45;&gt;Node65</title>
<path fill="none" stroke="midnightblue" d="M2575.07,-176.64C2317.81,-174.45 991.01,-161.83 584.5,-132 581.61,-131.79 578.66,-131.54 575.68,-131.27"/>
<polygon fill="midnightblue" stroke="midnightblue" points="2575.12,-180.15 2585.15,-176.73 2575.18,-173.15 2575.12,-180.15"/>
</g>
<!-- Node72 -->
<g id="node15" class="node">
<title>Node72</title>
<g id="a_node15"><a xlink:href="_field_plane_averaging_fine_8_h.html" target="_top" xlink:title=" ">
<polygon fill="white" stroke="red" points="247.5,-112.5 247.5,-131.5 393.5,-131.5 393.5,-112.5 247.5,-112.5"/>
<text text-anchor="middle" x="320.5" y="-119.5" font-family="Helvetica,sans-Serif" font-size="10.00">FieldPlaneAveragingFine.H</text>
</a>
</g>
</g>
<!-- Node2&#45;&gt;Node72 -->
<g id="edge16" class="edge">
<title>Node2&#45;&gt;Node72</title>
<path fill="none" stroke="midnightblue" d="M2575.22,-176.61C2305.49,-174.1 851.83,-159.46 407.5,-132 402.95,-131.72 398.28,-131.38 393.57,-131"/>
<polygon fill="midnightblue" stroke="midnightblue" points="2575.36,-180.11 2585.4,-176.7 2575.43,-173.11 2575.36,-180.11"/>
</g>
<!-- Node74 -->
<g id="node16" class="node">
<title>Node74</title>
<g id="a_node16"><a xlink:href="_a_b_l_boundary_plane_8_h.html" target="_top" xlink:title=" ">
<polygon fill="white" stroke="red" points="594,-112.5 594,-131.5 713,-131.5 713,-112.5 594,-112.5"/>
<text text-anchor="middle" x="653.5" y="-119.5" font-family="Helvetica,sans-Serif" font-size="10.00">ABLBoundaryPlane.H</text>
</a>
</g>
</g>
<!-- Node2&#45;&gt;Node74 -->
<g id="edge18" class="edge">
<title>Node2&#45;&gt;Node74</title>
<path fill="none" stroke="midnightblue" d="M2574.95,-176.59C2327.84,-174.2 1099.76,-161 722.5,-132 719.49,-131.77 716.41,-131.5 713.3,-131.19"/>
<polygon fill="midnightblue" stroke="midnightblue" points="2575.28,-180.1 2585.31,-176.69 2575.35,-173.1 2575.28,-180.1"/>
</g>
<!-- Node78 -->
<g id="node17" class="node">
<title>Node78</title>
<g id="a_node17"><a xlink:href="_a_b_l_modulated_power_law_8_h.html" target="_top" xlink:title=" ">
<polygon fill="white" stroke="red" points="731.5,-112.5 731.5,-131.5 877.5,-131.5 877.5,-112.5 731.5,-112.5"/>
<text text-anchor="middle" x="804.5" y="-119.5" font-family="Helvetica,sans-Serif" font-size="10.00">ABLModulatedPowerLaw.H</text>
</a>
</g>
</g>
<!-- Node2&#45;&gt;Node78 -->
<g id="edge20" class="edge">
<title>Node2&#45;&gt;Node78</title>
<path fill="none" stroke="midnightblue" d="M2575.28,-177.2C2379.75,-177.84 1558.38,-177.52 886.5,-132 883.64,-131.81 880.73,-131.59 877.79,-131.35"/>
<polygon fill="midnightblue" stroke="midnightblue" points="2575.44,-180.7 2585.43,-177.17 2575.42,-173.7 2575.44,-180.7"/>
</g>
<!-- Node59 -->
<g id="node18" class="node">
<title>Node59</title>
<g id="a_node18"><a xlink:href="_a_b_l_mean_boussinesq_8cpp.html" target="_top" xlink:title=" ">
<polygon fill="white" stroke="black" points="895.5,-112.5 895.5,-131.5 1033.5,-131.5 1033.5,-112.5 895.5,-112.5"/>
<text text-anchor="middle" x="964.5" y="-119.5" font-family="Helvetica,sans-Serif" font-size="10.00">ABLMeanBoussinesq.cpp</text>
</a>
</g>
</g>
<!-- Node2&#45;&gt;Node59 -->
<g id="edge21" class="edge">
<title>Node2&#45;&gt;Node59</title>
<path fill="none" stroke="midnightblue" d="M2575.33,-177.13C2390.73,-177.41 1649.45,-175.6 1042.5,-132 1039.64,-131.79 1036.73,-131.56 1033.79,-131.31"/>
<polygon fill="midnightblue" stroke="midnightblue" points="2575.46,-180.63 2585.45,-177.11 2575.44,-173.63 2575.46,-180.63"/>
</g>
<!-- Node82 -->
<g id="node19" class="node">
<title>Node82</title>
<g id="a_node19"><a xlink:href="_actuator_forcing_8cpp.html" target="_top" xlink:title=" ">
<polygon fill="white" stroke="black" points="1052,-112.5 1052,-131.5 1165,-131.5 1165,-112.5 1052,-112.5"/>
<text text-anchor="middle" x="1108.5" y="-119.5" font-family="Helvetica,sans-Serif" font-size="10.00">ActuatorForcing.cpp</text>
</a>
</g>
</g>
<!-- Node2&#45;&gt;Node82 -->
<g id="edge22" class="edge">
<title>Node2&#45;&gt;Node82</title>
<path fill="none" stroke="midnightblue" d="M2575.27,-177.3C2400.1,-178.15 1726.23,-178.09 1174.5,-132 1171.5,-131.75 1168.44,-131.46 1165.34,-131.13"/>
<polygon fill="midnightblue" stroke="midnightblue" points="2575.39,-180.8 2585.37,-177.24 2575.35,-173.8 2575.39,-180.8"/>
</g>
<!-- Node83 -->
<g id="node20" class="node">
<title>Node83</title>
<g id="a_node20"><a xlink:href="_body_force_8cpp.html" target="_top" xlink:title=" ">
<polygon fill="white" stroke="black" points="1183.5,-112.5 1183.5,-131.5 1271.5,-131.5 1271.5,-112.5 1183.5,-112.5"/>
<text text-anchor="middle" x="1227.5" y="-119.5" font-family="Helvetica,sans-Serif" font-size="10.00">BodyForce.cpp</text>
</a>
</g>
</g>
<!-- Node2&#45;&gt;Node83 -->
<g id="edge23" class="edge">
<title>Node2&#45;&gt;Node83</title>
<path fill="none" stroke="midnightblue" d="M2575.11,-176.33C2375.06,-173.11 1540.33,-158.31 1280.5,-132 1277.62,-131.71 1274.66,-131.36 1271.69,-130.96"/>
<polygon fill="midnightblue" stroke="midnightblue" points="2575.18,-179.83 2585.24,-176.49 2575.29,-172.83 2575.18,-179.83"/>
</g>
<!-- Node84 -->
<g id="node21" class="node">
<title>Node84</title>
<g id="a_node21"><a xlink:href="_boussinesq_buoyancy_8cpp.html" target="_top" xlink:title=" ">
<polygon fill="white" stroke="black" points="1290,-112.5 1290,-131.5 1429,-131.5 1429,-112.5 1290,-112.5"/>
<text text-anchor="middle" x="1359.5" y="-119.5" font-family="Helvetica,sans-Serif" font-size="10.00">BoussinesqBuoyancy.cpp</text>
</a>
</g>
</g>
<!-- Node2&#45;&gt;Node84 -->
<g id="edge24" class="edge">
<title>Node2&#45;&gt;Node84</title>
<path fill="none" stroke="midnightblue" d="M2575.04,-176.55C2420.19,-174.68 1880.97,-165.98 1437.5,-132 1434.78,-131.79 1432.01,-131.56 1429.22,-131.31"/>
<polygon fill="midnightblue" stroke="midnightblue" points="2575.06,-180.05 2585.1,-176.67 2575.14,-173.05 2575.06,-180.05"/>
</g>
<!-- Node85 -->
<g id="node22" class="node">
<title>Node85</title>
<g id="a_node22"><a xlink:href="_coriolis_forcing_8cpp.html" target="_top" xlink:title=" ">
<polygon fill="white" stroke="black" points="1447,-112.5 1447,-131.5 1556,-131.5 1556,-112.5 1447,-112.5"/>
<text text-anchor="middle" x="1501.5" y="-119.5" font-family="Helvetica,sans-Serif" font-size="10.00">CoriolisForcing.cpp</text>
</a>
</g>
</g>
<!-- Node2&#45;&gt;Node85 -->
<g id="edge25" class="edge">
<title>Node2&#45;&gt;Node85</title>
<path fill="none" stroke="midnightblue" d="M2574.99,-176.69C2430.79,-175.32 1955.48,-168.18 1564.5,-132 1561.75,-131.75 1558.94,-131.45 1556.1,-131.14"/>
<polygon fill="midnightblue" stroke="midnightblue" points="2575.16,-180.19 2585.19,-176.78 2575.22,-173.19 2575.16,-180.19"/>
</g>
<!-- Node86 -->
<g id="node23" class="node">
<title>Node86</title>
<g id="a_node23"><a xlink:href="_density_buoyancy_8cpp.html" target="_top" xlink:title=" ">
<polygon fill="white" stroke="black" points="1574,-112.5 1574,-131.5 1695,-131.5 1695,-112.5 1574,-112.5"/>
<text text-anchor="middle" x="1634.5" y="-119.5" font-family="Helvetica,sans-Serif" font-size="10.00">DensityBuoyancy.cpp</text>
</a>
</g>
</g>
<!-- Node2&#45;&gt;Node86 -->
<g id="edge26" class="edge">
<title>Node2&#45;&gt;Node86</title>
<path fill="none" stroke="midnightblue" d="M2575.13,-176.11C2443.67,-173.14 2038.19,-162.01 1703.5,-132 1700.73,-131.75 1697.91,-131.48 1695.05,-131.18"/>
<polygon fill="midnightblue" stroke="midnightblue" points="2575.12,-179.61 2585.2,-176.33 2575.28,-172.61 2575.12,-179.61"/>
</g>
<!-- Node87 -->
<g id="node24" class="node">
<title>Node87</title>
<g id="a_node24"><a xlink:href="_geostrophic_forcing_8cpp.html" target="_top" xlink:title=" ">
<polygon fill="white" stroke="black" points="1713,-112.5 1713,-131.5 1844,-131.5 1844,-112.5 1713,-112.5"/>
<text text-anchor="middle" x="1778.5" y="-119.5" font-family="Helvetica,sans-Serif" font-size="10.00">GeostrophicForcing.cpp</text>
</a>
</g>
</g>
<!-- Node2&#45;&gt;Node87 -->
<g id="edge27" class="edge">
<title>Node2&#45;&gt;Node87</title>
<path fill="none" stroke="midnightblue" d="M2574.95,-175.36C2458.02,-170.77 2127.53,-156.48 1853.5,-132 1850.5,-131.73 1847.43,-131.44 1844.33,-131.13"/>
<polygon fill="midnightblue" stroke="midnightblue" points="2575.14,-178.87 2585.27,-175.77 2575.41,-171.88 2575.14,-178.87"/>
</g>
<!-- Node88 -->
<g id="node25" class="node">
<title>Node88</title>
<g id="a_node25"><a xlink:href="_gravity_forcing_8cpp.html" target="_top" xlink:title=" ">
<polygon fill="white" stroke="black" points="1862.5,-112.5 1862.5,-131.5 1970.5,-131.5 1970.5,-112.5 1862.5,-112.5"/>
<text text-anchor="middle" x="1916.5" y="-119.5" font-family="Helvetica,sans-Serif" font-size="10.00">GravityForcing.cpp</text>
</a>
</g>
</g>
<!-- Node2&#45;&gt;Node88 -->
<g id="edge28" class="edge">
<title>Node2&#45;&gt;Node88</title>
<path fill="none" stroke="midnightblue" d="M2575.11,-175.02C2471.76,-170.06 2202.95,-155.8 1979.5,-132 1976.64,-131.7 1973.72,-131.36 1970.77,-131"/>
<polygon fill="midnightblue" stroke="midnightblue" points="2575.01,-178.52 2585.16,-175.5 2575.34,-171.53 2575.01,-178.52"/>
</g>
<!-- Node89 -->
<g id="node26" class="node">
<title>Node89</title>
<g id="a_node26"><a xlink:href="_synth_turb_forcing_8cpp.html" target="_top" xlink:title=" ">
<polygon fill="white" stroke="black" points="1988.5,-112.5 1988.5,-131.5 2108.5,-131.5 2108.5,-112.5 1988.5,-112.5"/>
<text text-anchor="middle" x="2048.5" y="-119.5" font-family="Helvetica,sans-Serif" font-size="10.00">SynthTurbForcing.cpp</text>
</a>
</g>
</g>
<!-- Node2&#45;&gt;Node89 -->
<g id="edge29" class="edge">
<title>Node2&#45;&gt;Node89</title>
<path fill="none" stroke="midnightblue" d="M2575.32,-173.71C2488.5,-166.96 2286.62,-150.62 2117.5,-132 2114.62,-131.68 2111.67,-131.35 2108.69,-131"/>
<polygon fill="midnightblue" stroke="midnightblue" points="2575.09,-177.2 2585.33,-174.48 2575.63,-170.22 2575.09,-177.2"/>
</g>
<!-- Node2&#45;&gt;Node90 -->
<g id="edge30" class="edge">
<title>Node2&#45;&gt;Node90</title>
<path fill="none" stroke="midnightblue" d="M2661.73,-176.51C2877.62,-173.96 3840.56,-161.1 4138.5,-132 4143.04,-131.56 4147.78,-130.96 4152.48,-130.29"/>
<polygon fill="midnightblue" stroke="midnightblue" points="2661.68,-173.01 2651.73,-176.63 2661.77,-180.01 2661.68,-173.01"/>
</g>
<!-- Node91 -->
<g id="node28" class="node">
<title>Node91</title>
<g id="a_node28"><a xlink:href="_s_d_r_src_8cpp.html" target="_top" xlink:title=" ">
<polygon fill="white" stroke="black" points="2126.5,-112.5 2126.5,-131.5 2198.5,-131.5 2198.5,-112.5 2126.5,-112.5"/>
<text text-anchor="middle" x="2162.5" y="-119.5" font-family="Helvetica,sans-Serif" font-size="10.00">SDRSrc.cpp</text>
</a>
</g>
</g>
<!-- Node2&#45;&gt;Node91 -->
<g id="edge31" class="edge">
<title>Node2&#45;&gt;Node91</title>
<path fill="none" stroke="midnightblue" d="M2575.32,-173.54C2500.26,-167.23 2340.97,-152.61 2207.5,-132 2204.67,-131.56 2201.74,-131.07 2198.8,-130.55"/>
<polygon fill="midnightblue" stroke="midnightblue" points="2575.08,-177.03 2585.34,-174.37 2575.66,-170.05 2575.08,-177.03"/>
</g>
<!-- Node92 -->
<g id="node29" class="node">
<title>Node92</title>
<g id="a_node29"><a xlink:href="_ksgs_m84_src_8cpp.html" target="_top" xlink:title=" ">
<polygon fill="white" stroke="black" points="2216.5,-112.5 2216.5,-131.5 2312.5,-131.5 2312.5,-112.5 2216.5,-112.5"/>
<text text-anchor="middle" x="2264.5" y="-119.5" font-family="Helvetica,sans-Serif" font-size="10.00">KsgsM84Src.cpp</text>
</a>
</g>
</g>
<!-- Node2&#45;&gt;Node92 -->
<g id="edge32" class="edge">
<title>Node2&#45;&gt;Node92</title>
<path fill="none" stroke="midnightblue" d="M2574.84,-170.47C2516.92,-161.79 2411.5,-145.92 2321.5,-132 2318.63,-131.56 2315.68,-131.1 2312.7,-130.63"/>
<polygon fill="midnightblue" stroke="midnightblue" points="2574.68,-173.99 2585.08,-172.01 2575.71,-167.06 2574.68,-173.99"/>
</g>
<!-- Node93 -->
<g id="node30" class="node">
<title>Node93</title>
<g id="a_node30"><a xlink:href="_kw_s_s_t_src_8cpp.html" target="_top" xlink:title=" ">
<polygon fill="white" stroke="black" points="2331,-112.5 2331,-131.5 2416,-131.5 2416,-112.5 2331,-112.5"/>
<text text-anchor="middle" x="2373.5" y="-119.5" font-family="Helvetica,sans-Serif" font-size="10.00">KwSSTSrc.cpp</text>
</a>
</g>
</g>
<!-- Node2&#45;&gt;Node93 -->
<g id="edge33" class="edge">
<title>Node2&#45;&gt;Node93</title>
<path fill="none" stroke="midnightblue" d="M2575.48,-167.52C2529.4,-157.36 2456.93,-141.39 2412.47,-131.59"/>
<polygon fill="midnightblue" stroke="midnightblue" points="2574.94,-170.98 2585.46,-169.72 2576.45,-164.15 2574.94,-170.98"/>
</g>
<!-- Node94 -->
<g id="node31" class="node">
<title>Node94</title>
<g id="a_node31"><a xlink:href="_i_b_ops_8_h.html" target="_top" xlink:title=" ">
<polygon fill="white" stroke="red" points="2434.5,-112.5 2434.5,-131.5 2490.5,-131.5 2490.5,-112.5 2434.5,-112.5"/>
<text text-anchor="middle" x="2462.5" y="-119.5" font-family="Helvetica,sans-Serif" font-size="10.00">IBOps.H</text>
</a>
</g>
</g>
<!-- Node2&#45;&gt;Node94 -->
<g id="edge34" class="edge">
<title>Node2&#45;&gt;Node94</title>
<path fill="none" stroke="midnightblue" d="M2584.33,-165.17C2554.96,-155 2513.3,-140.59 2487.1,-131.52"/>
<polygon fill="midnightblue" stroke="midnightblue" points="2583.19,-168.48 2593.78,-168.44 2585.48,-161.86 2583.19,-168.48"/>
</g>
<!-- Node105 -->
<g id="node32" class="node">
<title>Node105</title>
<g id="a_node32"><a xlink:href="_convecting_taylor_vortex_8_h.html" target="_top" xlink:title=" ">
<polygon fill="white" stroke="red" points="2547,-112.5 2547,-131.5 2690,-131.5 2690,-112.5 2547,-112.5"/>
<text text-anchor="middle" x="2618.5" y="-119.5" font-family="Helvetica,sans-Serif" font-size="10.00">ConvectingTaylorVortex.H</text>
</a>
</g>
</g>
<!-- Node2&#45;&gt;Node105 -->
<g id="edge35" class="edge">
<title>Node2&#45;&gt;Node105</title>
<path fill="none" stroke="midnightblue" d="M2618.5,-157.8C2618.5,-148.91 2618.5,-138.78 2618.5,-131.75"/>
<polygon fill="midnightblue" stroke="midnightblue" points="2615,-158.08 2618.5,-168.08 2622,-158.08 2615,-158.08"/>
</g>
<!-- Node106 -->
<g id="node33" class="node">
<title>Node106</title>
<g id="a_node33"><a xlink:href="_convecting_taylor_vortex_8cpp.html" target="_top" xlink:title=" ">
<polygon fill="white" stroke="black" points="2492.5,-56.5 2492.5,-75.5 2644.5,-75.5 2644.5,-56.5 2492.5,-56.5"/>
<text text-anchor="middle" x="2568.5" y="-63.5" font-family="Helvetica,sans-Serif" font-size="10.00">ConvectingTaylorVortex.cpp</text>
</a>
</g>
</g>
<!-- Node2&#45;&gt;Node106 -->
<g id="edge43" class="edge">
<title>Node2&#45;&gt;Node106</title>
<path fill="none" stroke="midnightblue" d="M2577.98,-164.54C2562.49,-157.57 2546.42,-147.16 2537.5,-132 2526.09,-112.6 2546.05,-88.35 2558.91,-75.66"/>
<polygon fill="midnightblue" stroke="midnightblue" points="2576.9,-167.88 2587.48,-168.44 2579.56,-161.4 2576.9,-167.88"/>
</g>
<!-- Node104 -->
<g id="node34" class="node">
<title>Node104</title>
<g id="a_node34"><a xlink:href="_i_b_8cpp.html" target="_top" xlink:title=" ">
<polygon fill="white" stroke="black" points="2708,-112.5 2708,-131.5 2755,-131.5 2755,-112.5 2708,-112.5"/>
<text text-anchor="middle" x="2731.5" y="-119.5" font-family="Helvetica,sans-Serif" font-size="10.00">IB.cpp</text>
</a>
</g>
</g>
<!-- Node2&#45;&gt;Node104 -->
<g id="edge37" class="edge">
<title>Node2&#45;&gt;Node104</title>
<path fill="none" stroke="midnightblue" d="M2645.5,-164.1C2666.61,-154.01 2695.36,-140.27 2713.68,-131.52"/>
<polygon fill="midnightblue" stroke="midnightblue" points="2643.92,-160.97 2636.41,-168.44 2646.94,-167.29 2643.92,-160.97"/>
</g>
<!-- Node2&#45;&gt;Node107 -->
<g id="edge38" class="edge">
<title>Node2&#45;&gt;Node107</title>
<path fill="none" stroke="midnightblue" d="M2661.72,-176.47C2886.26,-173.62 3921.65,-159.19 4241.5,-132 4244.58,-131.74 4247.74,-131.43 4250.93,-131.08"/>
<polygon fill="midnightblue" stroke="midnightblue" points="2661.6,-172.97 2651.64,-176.6 2661.69,-179.97 2661.6,-172.97"/>
</g>
<!-- Node108 -->
<g id="node36" class="node">
<title>Node108</title>
<g id="a_node36"><a xlink:href="_channel_flow_8_h.html" target="_top" xlink:title=" ">
<polygon fill="white" stroke="black" points="2812,-112.5 2812,-131.5 2901,-131.5 2901,-112.5 2812,-112.5"/>
<text text-anchor="middle" x="2856.5" y="-119.5" font-family="Helvetica,sans-Serif" font-size="10.00">ChannelFlow.H</text>
</a>
</g>
</g>
<!-- Node2&#45;&gt;Node108 -->
<g id="edge40" class="edge">
<title>Node2&#45;&gt;Node108</title>
<path fill="none" stroke="midnightblue" d="M2661.62,-167.22C2706.55,-157.02 2776.25,-141.21 2818.99,-131.51"/>
<polygon fill="midnightblue" stroke="midnightblue" points="2660.57,-163.87 2651.59,-169.49 2662.12,-170.69 2660.57,-163.87"/>
</g>
<!-- Node109 -->
<g id="node37" class="node">
<title>Node109</title>
<g id="a_node37"><a xlink:href="_channel_flow_8cpp.html" target="_top" xlink:title=" ">
<polygon fill="white" stroke="black" points="2748,-56.5 2748,-75.5 2847,-75.5 2847,-56.5 2748,-56.5"/>
<text text-anchor="middle" x="2797.5" y="-63.5" font-family="Helvetica,sans-Serif" font-size="10.00">ChannelFlow.cpp</text>
</a>
</g>
</g>
<!-- Node2&#45;&gt;Node109 -->
<g id="edge42" class="edge">
<title>Node2&#45;&gt;Node109</title>
<path fill="none" stroke="midnightblue" d="M2661.78,-172.48C2693.05,-167.25 2734.67,-156.03 2763.5,-132 2781.7,-116.83 2791.4,-89.39 2795.35,-75.52"/>
<polygon fill="midnightblue" stroke="midnightblue" points="2660.97,-169.06 2651.61,-174.03 2662.03,-175.98 2660.97,-169.06"/>
</g>
<!-- Node110 -->
<g id="node38" class="node">
<title>Node110</title>
<g id="a_node38"><a xlink:href="_ekman_spiral_8_h.html" target="_top" xlink:title=" ">
<polygon fill="white" stroke="black" points="2958,-112.5 2958,-131.5 3047,-131.5 3047,-112.5 2958,-112.5"/>
<text text-anchor="middle" x="3002.5" y="-119.5" font-family="Helvetica,sans-Serif" font-size="10.00">EkmanSpiral.H</text>
</a>
</g>
</g>
<!-- Node2&#45;&gt;Node110 -->
<g id="edge44" class="edge">
<title>Node2&#45;&gt;Node110</title>
<path fill="none" stroke="midnightblue" d="M2661.99,-171.17C2724.35,-162.77 2842.79,-146.65 2943.5,-132 2948.11,-131.33 2952.93,-130.62 2957.73,-129.9"/>
<polygon fill="midnightblue" stroke="midnightblue" points="2661.18,-167.75 2651.74,-172.55 2662.12,-174.69 2661.18,-167.75"/>
</g>
<!-- Node111 -->
<g id="node39" class="node">
<title>Node111</title>
<g id="a_node39"><a xlink:href="_ekman_spiral_8cpp.html" target="_top" xlink:title=" ">
<polygon fill="white" stroke="black" points="2916.5,-56.5 2916.5,-75.5 3014.5,-75.5 3014.5,-56.5 2916.5,-56.5"/>
<text text-anchor="middle" x="2965.5" y="-63.5" font-family="Helvetica,sans-Serif" font-size="10.00">EkmanSpiral.cpp</text>
</a>
</g>
</g>
<!-- Node2&#45;&gt;Node111 -->
<g id="edge46" class="edge">
<title>Node2&#45;&gt;Node111</title>
<path fill="none" stroke="midnightblue" d="M2662.06,-173.96C2732.52,-168.43 2867.83,-155.12 2909.5,-132 2933.73,-118.56 2952.31,-90.34 2960.66,-75.91"/>
<polygon fill="midnightblue" stroke="midnightblue" points="2661.45,-170.49 2651.74,-174.75 2661.98,-177.47 2661.45,-170.49"/>
</g>
<!-- Node112 -->
<g id="node40" class="node">
<title>Node112</title>
<g id="a_node40"><a xlink:href="_free_stream_8cpp.html" target="_top" xlink:title=" ">
<polygon fill="white" stroke="black" points="3065,-112.5 3065,-131.5 3158,-131.5 3158,-112.5 3065,-112.5"/>
<text text-anchor="middle" x="3111.5" y="-119.5" font-family="Helvetica,sans-Serif" font-size="10.00">FreeStream.cpp</text>
</a>
</g>
</g>
<!-- Node2&#45;&gt;Node112 -->
<g id="edge47" class="edge">
<title>Node2&#45;&gt;Node112</title>
<path fill="none" stroke="midnightblue" d="M2661.75,-173.37C2740.32,-166.58 2911.67,-150.95 3055.5,-132 3058.53,-131.6 3061.64,-131.17 3064.78,-130.71"/>
<polygon fill="midnightblue" stroke="midnightblue" points="2661.41,-169.88 2651.74,-174.23 2662,-176.86 2661.41,-169.88"/>
</g>
<!-- Node113 -->
<g id="node41" class="node">
<title>Node113</title>
<g id="a_node41"><a xlink:href="_hybrid_r_a_n_s_l_e_s_a_b_l_8_h.html" target="_top" xlink:title=" ">
<polygon fill="white" stroke="black" points="3215,-112.5 3215,-131.5 3338,-131.5 3338,-112.5 3215,-112.5"/>
<text text-anchor="middle" x="3276.5" y="-119.5" font-family="Helvetica,sans-Serif" font-size="10.00">HybridRANSLESABL.H</text>
</a>
</g>
</g>
<!-- Node2&#45;&gt;Node113 -->
<g id="edge48" class="edge">
<title>Node2&#45;&gt;Node113</title>
<path fill="none" stroke="midnightblue" d="M2661.95,-174.25C2758.76,-167.98 2999.5,-151.66 3200.5,-132 3205.13,-131.55 3209.91,-131.05 3214.72,-130.53"/>
<polygon fill="midnightblue" stroke="midnightblue" points="2661.43,-170.77 2651.68,-174.91 2661.88,-177.76 2661.43,-170.77"/>
</g>
<!-- Node114 -->
<g id="node42" class="node">
<title>Node114</title>
<g id="a_node42"><a xlink:href="_hybrid_r_a_n_s_l_e_s_a_b_l_8cpp.html" target="_top" xlink:title=" ">
<polygon fill="white" stroke="black" points="3152,-56.5 3152,-75.5 3285,-75.5 3285,-56.5 3152,-56.5"/>
<text text-anchor="middle" x="3218.5" y="-63.5" font-family="Helvetica,sans-Serif" font-size="10.00">HybridRANSLESABL.cpp</text>
</a>
</g>
</g>
<!-- Node2&#45;&gt;Node114 -->
<g id="edge50" class="edge">
<title>Node2&#45;&gt;Node114</title>
<path fill="none" stroke="midnightblue" d="M2661.56,-175.42C2783.01,-170.69 3122.33,-155.5 3166.5,-132 3190.48,-119.24 3207.29,-90.17 3214.52,-75.62"/>
<polygon fill="midnightblue" stroke="midnightblue" points="2661.37,-171.92 2651.51,-175.81 2661.64,-178.92 2661.37,-171.92"/>
</g>
<!-- Node115 -->
<g id="node43" class="node">
<title>Node115</title>
<g id="a_node43"><a xlink:href="_m_m_s_8_h.html" target="_top" xlink:title=" ">
<polygon fill="white" stroke="black" points="3395,-112.5 3395,-131.5 3446,-131.5 3446,-112.5 3395,-112.5"/>
<text text-anchor="middle" x="3420.5" y="-119.5" font-family="Helvetica,sans-Serif" font-size="10.00">MMS.H</text>
</a>
</g>
</g>
<!-- Node2&#45;&gt;Node115 -->
<g id="edge51" class="edge">
<title>Node2&#45;&gt;Node115</title>
<path fill="none" stroke="midnightblue" d="M2662.06,-176.89C2778.96,-176.08 3109.14,-170.28 3380.5,-132 3385.15,-131.34 3390.06,-130.43 3394.79,-129.43"/>
<polygon fill="midnightblue" stroke="midnightblue" points="2661.72,-173.4 2651.74,-176.96 2661.76,-180.4 2661.72,-173.4"/>
</g>
<!-- Node116 -->
<g id="node44" class="node">
<title>Node116</title>
<g id="a_node44"><a xlink:href="_m_m_s_8cpp.html" target="_top" xlink:title=" ">
<polygon fill="white" stroke="black" points="3363,-56.5 3363,-75.5 3424,-75.5 3424,-56.5 3363,-56.5"/>
<text text-anchor="middle" x="3393.5" y="-63.5" font-family="Helvetica,sans-Serif" font-size="10.00">MMS.cpp</text>
</a>
</g>
</g>
<!-- Node2&#45;&gt;Node116 -->
<g id="edge53" class="edge">
<title>Node2&#45;&gt;Node116</title>
<path fill="none" stroke="midnightblue" d="M2661.75,-176.46C2809.22,-174.35 3286.58,-164.99 3346.5,-132 3369.43,-119.37 3384.03,-90.24 3390.17,-75.65"/>
<polygon fill="midnightblue" stroke="midnightblue" points="2661.66,-172.97 2651.71,-176.6 2661.76,-179.96 2661.66,-172.97"/>
</g>
<!-- Node117 -->
<g id="node45" class="node">
<title>Node117</title>
<g id="a_node45"><a xlink:href="_m_m_s_forcing_8cpp.html" target="_top" xlink:title=" ">
<polygon fill="white" stroke="black" points="3464.5,-112.5 3464.5,-131.5 3560.5,-131.5 3560.5,-112.5 3464.5,-112.5"/>
<text text-anchor="middle" x="3512.5" y="-119.5" font-family="Helvetica,sans-Serif" font-size="10.00">MMSForcing.cpp</text>
</a>
</g>
</g>
<!-- Node2&#45;&gt;Node117 -->
<g id="edge54" class="edge">
<title>Node2&#45;&gt;Node117</title>
<path fill="none" stroke="midnightblue" d="M2661.86,-176.2C2785.81,-173.57 3152.13,-163.52 3454.5,-132 3457.74,-131.66 3461.08,-131.27 3464.44,-130.84"/>
<polygon fill="midnightblue" stroke="midnightblue" points="2661.58,-172.7 2651.65,-176.41 2661.72,-179.7 2661.58,-172.7"/>
</g>
<!-- Node118 -->
<g id="node46" class="node">
<title>Node118</title>
<g id="a_node46"><a xlink:href="_dam_break_8cpp.html" target="_top" xlink:title=" ">
<polygon fill="white" stroke="black" points="3579,-112.5 3579,-131.5 3668,-131.5 3668,-112.5 3579,-112.5"/>
<text text-anchor="middle" x="3623.5" y="-119.5" font-family="Helvetica,sans-Serif" font-size="10.00">DamBreak.cpp</text>
</a>
</g>
</g>
<!-- Node2&#45;&gt;Node118 -->
<g id="edge55" class="edge">
<title>Node2&#45;&gt;Node118</title>
<path fill="none" stroke="midnightblue" d="M2662.23,-176.76C2797.5,-175.63 3221.05,-169.15 3569.5,-132 3572.52,-131.68 3575.64,-131.3 3578.77,-130.87"/>
<polygon fill="midnightblue" stroke="midnightblue" points="2661.85,-173.26 2651.88,-176.84 2661.91,-180.26 2661.85,-173.26"/>
</g>
<!-- Node5&#45;&gt;Node7 -->
<g id="edge5" class="edge">
<title>Node5&#45;&gt;Node7</title>
<path fill="none" stroke="midnightblue" d="M102.18,-107.18C84.7,-97.24 61.67,-84.15 46.73,-75.65"/>
<polygon fill="midnightblue" stroke="midnightblue" points="100.81,-110.43 111.24,-112.32 104.27,-104.34 100.81,-110.43"/>
</g>
<!-- Node5&#45;&gt;Node8 -->
<g id="edge6" class="edge">
<title>Node5&#45;&gt;Node8</title>
<path fill="none" stroke="midnightblue" d="M130,-102.1C131.66,-93.14 133.56,-82.86 134.88,-75.75"/>
<polygon fill="midnightblue" stroke="midnightblue" points="126.53,-101.61 128.15,-112.08 133.41,-102.89 126.53,-101.61"/>
</g>
<!-- Node17&#45;&gt;Node34 -->
<g id="edge8" class="edge">
<title>Node17&#45;&gt;Node34</title>
<path fill="none" stroke="midnightblue" d="M3932.97,-105.54C3943.84,-95.91 3957.44,-83.87 3966.52,-75.83"/>
<polygon fill="midnightblue" stroke="midnightblue" points="3930.47,-103.07 3925.3,-112.32 3935.11,-108.32 3930.47,-103.07"/>
</g>
<!-- Node57&#45;&gt;Node61 -->
<g id="edge12" class="edge">
<title>Node57&#45;&gt;Node61</title>
<path fill="none" stroke="midnightblue" d="M443.33,-50.62C458.31,-40.76 477.7,-27.99 490.36,-19.65"/>
<polygon fill="midnightblue" stroke="midnightblue" points="441.1,-47.9 434.67,-56.32 444.95,-53.75 441.1,-47.9"/>
</g>
<!-- Node57&#45;&gt;Node64 -->
<g id="edge13" class="edge">
<title>Node57&#45;&gt;Node64</title>
<path fill="none" stroke="midnightblue" d="M399.4,-50.62C384.24,-40.76 364.62,-27.99 351.8,-19.65"/>
<polygon fill="midnightblue" stroke="midnightblue" points="397.87,-53.8 408.16,-56.32 401.69,-47.94 397.87,-53.8"/>
</g>
<!-- Node65&#45;&gt;Node57 -->
<g id="edge15" class="edge">
<title>Node65&#45;&gt;Node57</title>
<path fill="none" stroke="midnightblue" d="M489.21,-107.18C472.46,-97.24 450.4,-84.15 436.08,-75.65"/>
<polygon fill="midnightblue" stroke="midnightblue" points="487.49,-110.23 497.88,-112.32 491.07,-104.21 487.49,-110.23"/>
</g>
<!-- Node72&#45;&gt;Node57 -->
<g id="edge17" class="edge">
<title>Node72&#45;&gt;Node57</title>
<path fill="none" stroke="midnightblue" d="M345.58,-107.59C364.26,-97.61 389.2,-84.27 405.31,-75.65"/>
<polygon fill="midnightblue" stroke="midnightblue" points="343.9,-104.52 336.73,-112.32 347.2,-110.7 343.9,-104.52"/>
</g>
<!-- Node105&#45;&gt;Node106 -->
<g id="edge36" class="edge">
<title>Node105&#45;&gt;Node106</title>
<path fill="none" stroke="midnightblue" d="M2603.42,-104.72C2594.61,-95.2 2583.83,-83.56 2576.6,-75.75"/>
<polygon fill="midnightblue" stroke="midnightblue" points="2600.88,-107.12 2610.24,-112.08 2606.02,-102.37 2600.88,-107.12"/>
</g>
<!-- Node108&#45;&gt;Node109 -->
<g id="edge41" class="edge">
<title>Node108&#45;&gt;Node109</title>
<path fill="none" stroke="midnightblue" d="M2839.61,-105.54C2829.09,-95.91 2815.93,-83.87 2807.15,-75.83"/>
<polygon fill="midnightblue" stroke="midnightblue" points="2837.28,-108.15 2847.02,-112.32 2842.01,-102.99 2837.28,-108.15"/>
</g>
<!-- Node110&#45;&gt;Node111 -->
<g id="edge45" class="edge">
<title>Node110&#45;&gt;Node111</title>
<path fill="none" stroke="midnightblue" d="M2990.55,-103.57C2984.19,-94.27 2976.63,-83.25 2971.5,-75.75"/>
<polygon fill="midnightblue" stroke="midnightblue" points="2987.85,-105.81 2996.39,-112.08 2993.63,-101.86 2987.85,-105.81"/>
</g>
<!-- Node113&#45;&gt;Node114 -->
<g id="edge49" class="edge">
<title>Node113&#45;&gt;Node114</title>
<path fill="none" stroke="midnightblue" d="M3259.59,-105.25C3249.3,-95.67 3236.53,-83.79 3227.99,-75.83"/>
<polygon fill="midnightblue" stroke="midnightblue" points="3257.48,-108.07 3267.18,-112.32 3262.25,-102.95 3257.48,-108.07"/>
</g>
<!-- Node115&#45;&gt;Node116 -->
<g id="edge52" class="edge">
<title>Node115&#45;&gt;Node116</title>
<path fill="none" stroke="midnightblue" d="M3411.49,-102.98C3406.91,-93.82 3401.55,-83.09 3397.88,-75.75"/>
<polygon fill="midnightblue" stroke="midnightblue" points="3408.44,-104.7 3416.04,-112.08 3414.7,-101.57 3408.44,-104.7"/>
</g>
<!-- Node44&#45;&gt;Node45 -->
<g id="edge63" class="edge">
<title>Node44&#45;&gt;Node45</title>
<path fill="none" stroke="midnightblue" d="M4544.74,-162.1C4532.5,-152.38 4516.94,-140.03 4506.62,-131.83"/>
<polygon fill="midnightblue" stroke="midnightblue" points="4542.57,-164.85 4552.57,-168.32 4546.92,-159.36 4542.57,-164.85"/>
</g>
<!-- Node44&#45;&gt;Node46 -->
<g id="edge64" class="edge">
<title>Node44&#45;&gt;Node46</title>
<path fill="none" stroke="midnightblue" d="M4582.54,-162.1C4594.96,-152.38 4610.74,-140.03 4621.21,-131.83"/>
<polygon fill="midnightblue" stroke="midnightblue" points="4580.3,-159.4 4574.59,-168.32 4584.62,-164.92 4580.3,-159.4"/>
</g>
</g>
</svg>
        <g id="navigator" transform="translate(0 0)" fill="#404254">
                <rect fill="#f2f5e9" fill-opacity="0.5" stroke="#606060" stroke-width=".5" x="0" y="0" width="60" height="60"/>
                <use id="zoomplus" xlink:href="#zoomPlus" x="17" y="9" onmousedown="handleZoom(evt,'in')"/>
                <use id="zoomminus" xlink:href="#zoomMin" x="42" y="9" onmousedown="handleZoom(evt,'out')"/>
                <use id="reset" xlink:href="#resetDef" x="30" y="36" onmousedown="handleReset()"/>
                <g id="arrowUp" xlink:href="#dirArrow" transform="translate(30 24)" onmousedown="handlePan(0,-1)">
                  <use xlink:href="#rim" fill="#404040">
                        <set attributeName="fill" to="#808080" begin="arrowUp.mouseover" end="arrowUp.mouseout"/>
                  </use>
                  <path fill="none" stroke="white" stroke-width="1.5" d="M0,-3.0v7 M-2.5,-0.5L0,-3.0L2.5,-0.5"/>
                </g>
                <g id="arrowRight" xlink:href="#dirArrow" transform="rotate(90) translate(36 -43)" onmousedown="handlePan(1,0)">
                  <use xlink:href="#rim" fill="#404040">
                        <set attributeName="fill" to="#808080" begin="arrowRight.mouseover" end="arrowRight.mouseout"/>
                  </use>
                  <path fill="none" stroke="white" stroke-width="1.5" d="M0,-3.0v7 M-2.5,-0.5L0,-3.0L2.5,-0.5"/>
                </g>
                <g id="arrowDown" xlink:href="#dirArrow" transform="rotate(180) translate(-30 -48)" onmousedown="handlePan(0,1)">
                  <use xlink:href="#rim" fill="#404040">
                        <set attributeName="fill" to="#808080" begin="arrowDown.mouseover" end="arrowDown.mouseout"/>
                  </use>
                  <path fill="none" stroke="white" stroke-width="1.5" d="M0,-3.0v7 M-2.5,-0.5L0,-3.0L2.5,-0.5"/>
                </g>
                <g id="arrowLeft" xlink:href="#dirArrow" transform="rotate(270) translate(-36 17)" onmousedown="handlePan(-1,0)">
                  <use xlink:href="#rim" fill="#404040">
                        <set attributeName="fill" to="#808080" begin="arrowLeft.mouseover" end="arrowLeft.mouseout"/>
                  </use>
                  <path fill="none" stroke="white" stroke-width="1.5" d="M0,-3.0v7 M-2.5,-0.5L0,-3.0L2.5,-0.5"/>
                </g>
        </g>
        <svg viewBox="0 0 15 15" width="100%" height="30px" preserveAspectRatio="xMaxYMin meet">
         <g id="arrow_out" transform="scale(0.3 0.3)">
          <a xlink:href="_p_d_e_base_8_h__dep__incl_org.svg" target="_base">
           <rect id="button" ry="5" rx="5" y="6" x="6" height="38" width="38"
                fill="#f2f5e9" fill-opacity="0.5" stroke="#606060" stroke-width="1.0"/>
           <path id="arrow"
             d="M 11.500037,31.436501 C 11.940474,20.09759 22.043105,11.32322 32.158766,21.979434 L 37.068811,17.246167 C 37.068811,17.246167 37.088388,32 37.088388,32 L 22.160133,31.978069 C 22.160133,31.978069 26.997745,27.140456 26.997745,27.140456 C 18.528582,18.264221 13.291696,25.230495 11.500037,31.436501 z"
             style="fill:#404040;"/>
          </a>
         </g>
        </svg>
</svg>
