<?xml version="1.0" encoding="UTF-8" standalone="no"?>
<!DOCTYPE svg PUBLIC "-//W3C//DTD SVG 1.1//EN"
 "http://www.w3.org/Graphics/SVG/1.1/DTD/svg11.dtd">
<!-- Generated by graphviz version 2.43.0 (0)
 -->
<!-- Title: SimTime.H Pages: 1 -->
<svg width="3940pt" height="364pt"
 viewBox="0.00 0.00 3939.50 364.00" xmlns="http://www.w3.org/2000/svg" xmlns:xlink="http://www.w3.org/1999/xlink">
<g id="graph0" class="graph" transform="scale(1 1) rotate(0) translate(4 360)">
<title>SimTime.H</title>
<polygon fill="white" stroke="transparent" points="-4,4 -4,-360 3935.5,-360 3935.5,4 -4,4"/>
<!-- Node1 -->
<g id="node1" class="node">
<title>Node1</title>
<g id="a_node1"><a xlink:title=" ">
<polygon fill="#bfbfbf" stroke="black" points="3040.5,-336.5 3040.5,-355.5 3111.5,-355.5 3111.5,-336.5 3040.5,-336.5"/>
<text text-anchor="middle" x="3076" y="-343.5" font-family="Helvetica,sans-Serif" font-size="10.00">SimTime.H</text>
</a>
</g>
</g>
<!-- Node2 -->
<g id="node2" class="node">
<title>Node2</title>
<g id="a_node2"><a xlink:href="_field_fill_patch_ops_8_h.html" target="_top" xlink:title=" ">
<polygon fill="white" stroke="black" points="174,-280.5 174,-299.5 284,-299.5 284,-280.5 174,-280.5"/>
<text text-anchor="middle" x="229" y="-287.5" font-family="Helvetica,sans-Serif" font-size="10.00">FieldFillPatchOps.H</text>
</a>
</g>
</g>
<!-- Node1&#45;&gt;Node2 -->
<g id="edge1" class="edge">
<title>Node1&#45;&gt;Node2</title>
<path fill="none" stroke="midnightblue" d="M3030,-344.13C2696.17,-337.8 648.18,-298.95 284.27,-292.05"/>
<polygon fill="midnightblue" stroke="midnightblue" points="3030.2,-347.63 3040.26,-344.32 3030.33,-340.63 3030.2,-347.63"/>
</g>
<!-- Node3 -->
<g id="node3" class="node">
<title>Node3</title>
<g id="a_node3"><a xlink:href="velocity__bcs_8_h.html" target="_top" xlink:title=" ">
<polygon fill="white" stroke="black" points="0,-224.5 0,-243.5 88,-243.5 88,-224.5 0,-224.5"/>
<text text-anchor="middle" x="44" y="-231.5" font-family="Helvetica,sans-Serif" font-size="10.00">velocity_bcs.H</text>
</a>
</g>
</g>
<!-- Node1&#45;&gt;Node3 -->
<g id="edge11" class="edge">
<title>Node1&#45;&gt;Node3</title>
<path fill="none" stroke="midnightblue" d="M3030.27,-345.01C2669.28,-345.04 289.04,-343.55 145,-300 107.28,-288.59 70.2,-258.6 53.38,-243.68"/>
<polygon fill="midnightblue" stroke="midnightblue" points="3030.36,-348.51 3040.36,-345.01 3030.36,-341.51 3030.36,-348.51"/>
</g>
<!-- Node6 -->
<g id="node5" class="node">
<title>Node6</title>
<g id="a_node5"><a xlink:href="_field_8cpp.html" target="_top" xlink:title=" ">
<polygon fill="white" stroke="black" points="106,-224.5 106,-243.5 166,-243.5 166,-224.5 106,-224.5"/>
<text text-anchor="middle" x="136" y="-231.5" font-family="Helvetica,sans-Serif" font-size="10.00">Field.cpp</text>
</a>
</g>
</g>
<!-- Node1&#45;&gt;Node6 -->
<g id="edge61" class="edge">
<title>Node1&#45;&gt;Node6</title>
<path fill="none" stroke="midnightblue" d="M3030.05,-344.97C2663.61,-344.68 227.42,-341.19 165,-300 145.61,-287.2 139.06,-258.15 136.95,-243.61"/>
<polygon fill="midnightblue" stroke="midnightblue" points="3030.28,-348.47 3040.29,-344.98 3030.29,-341.47 3030.28,-348.47"/>
</g>
<!-- Node7 -->
<g id="node6" class="node">
<title>Node7</title>
<g id="a_node6"><a xlink:href="_p_d_e_helpers_8_h.html" target="_top" xlink:title=" ">
<polygon fill="white" stroke="red" points="871,-224.5 871,-243.5 955,-243.5 955,-224.5 871,-224.5"/>
<text text-anchor="middle" x="913" y="-231.5" font-family="Helvetica,sans-Serif" font-size="10.00">PDEHelpers.H</text>
</a>
</g>
</g>
<!-- Node1&#45;&gt;Node7 -->
<g id="edge64" class="edge">
<title>Node1&#45;&gt;Node7</title>
<path fill="none" stroke="midnightblue" d="M3030.25,-344.42C2805.82,-341.25 1799.07,-323.08 979,-244 971.29,-243.26 963.09,-242.29 955.19,-241.26"/>
<polygon fill="midnightblue" stroke="midnightblue" points="3030.29,-347.92 3040.34,-344.56 3030.39,-340.92 3030.29,-347.92"/>
</g>
<!-- Node53 -->
<g id="node12" class="node">
<title>Node53</title>
<g id="a_node12"><a xlink:href="_c_f_d_sim_8_h.html" target="_top" xlink:title=" ">
<polygon fill="white" stroke="red" points="1974,-280.5 1974,-299.5 2040,-299.5 2040,-280.5 1974,-280.5"/>
<text text-anchor="middle" x="2007" y="-287.5" font-family="Helvetica,sans-Serif" font-size="10.00">CFDSim.H</text>
</a>
</g>
</g>
<!-- Node1&#45;&gt;Node53 -->
<g id="edge12" class="edge">
<title>Node1&#45;&gt;Node53</title>
<path fill="none" stroke="midnightblue" d="M3030.27,-342.69C2850.55,-333.61 2195.06,-300.5 2040.03,-292.67"/>
<polygon fill="midnightblue" stroke="midnightblue" points="3030.27,-346.19 3040.43,-343.2 3030.62,-339.2 3030.27,-346.19"/>
</g>
<!-- Node56 -->
<g id="node15" class="node">
<title>Node56</title>
<g id="a_node15"><a xlink:href="incflo_8_h.html" target="_top" xlink:title=" ">
<polygon fill="white" stroke="red" points="260.5,-224.5 260.5,-243.5 313.5,-243.5 313.5,-224.5 260.5,-224.5"/>
<text text-anchor="middle" x="287" y="-231.5" font-family="Helvetica,sans-Serif" font-size="10.00">incflo.H</text>
</a>
</g>
</g>
<!-- Node1&#45;&gt;Node56 -->
<g id="edge63" class="edge">
<title>Node1&#45;&gt;Node56</title>
<path fill="none" stroke="midnightblue" d="M3030.09,-344.87C2811.03,-344.07 1850.28,-338.44 1064,-300 733.68,-283.85 648.3,-297.83 322,-244 319.28,-243.55 316.45,-242.99 313.65,-242.37"/>
<polygon fill="midnightblue" stroke="midnightblue" points="3030.23,-348.37 3040.25,-344.91 3030.26,-341.37 3030.23,-348.37"/>
</g>
<!-- Node70 -->
<g id="node18" class="node">
<title>Node70</title>
<g id="a_node18"><a xlink:href="_a_b_l_8_h.html" target="_top" xlink:title=" ">
<polygon fill="white" stroke="red" points="2832,-56.5 2832,-75.5 2878,-75.5 2878,-56.5 2832,-56.5"/>
<text text-anchor="middle" x="2855" y="-63.5" font-family="Helvetica,sans-Serif" font-size="10.00">ABL.H</text>
</a>
</g>
</g>
<!-- Node1&#45;&gt;Node70 -->
<g id="edge69" class="edge">
<title>Node1&#45;&gt;Node70</title>
<path fill="none" stroke="midnightblue" d="M3121.69,-343.76C3277.31,-338.72 3772.9,-315.37 3697,-224 3588.44,-93.32 3002.86,-70.84 2878.3,-67.52"/>
<polygon fill="midnightblue" stroke="midnightblue" points="3121.4,-340.27 3111.51,-344.08 3121.62,-347.27 3121.4,-340.27"/>
</g>
<!-- Node76 -->
<g id="node22" class="node">
<title>Node76</title>
<g id="a_node22"><a xlink:href="_field_plane_averaging_8_h.html" target="_top" xlink:title=" ">
<polygon fill="white" stroke="red" points="3167,-224.5 3167,-243.5 3293,-243.5 3293,-224.5 3167,-224.5"/>
<text text-anchor="middle" x="3230" y="-231.5" font-family="Helvetica,sans-Serif" font-size="10.00">FieldPlaneAveraging.H</text>
</a>
</g>
</g>
<!-- Node1&#45;&gt;Node76 -->
<g id="edge67" class="edge">
<title>Node1&#45;&gt;Node76</title>
<path fill="none" stroke="midnightblue" d="M3096.42,-330.42C3128.99,-307.15 3191.71,-262.35 3217.97,-243.59"/>
<polygon fill="midnightblue" stroke="midnightblue" points="3094.19,-327.71 3088.08,-336.37 3098.26,-333.4 3094.19,-327.71"/>
</g>
<!-- Node83 -->
<g id="node23" class="node">
<title>Node83</title>
<g id="a_node23"><a xlink:href="_field_plane_averaging_fine_8_h.html" target="_top" xlink:title=" ">
<polygon fill="white" stroke="red" points="3003,-224.5 3003,-243.5 3149,-243.5 3149,-224.5 3003,-224.5"/>
<text text-anchor="middle" x="3076" y="-231.5" font-family="Helvetica,sans-Serif" font-size="10.00">FieldPlaneAveragingFine.H</text>
</a>
</g>
</g>
<!-- Node1&#45;&gt;Node83 -->
<g id="edge68" class="edge">
<title>Node1&#45;&gt;Node83</title>
<path fill="none" stroke="midnightblue" d="M3076,-326.35C3076,-302.25 3076,-261.31 3076,-243.59"/>
<polygon fill="midnightblue" stroke="midnightblue" points="3072.5,-326.37 3076,-336.37 3079.5,-326.37 3072.5,-326.37"/>
</g>
<!-- Node21 -->
<g id="node43" class="node">
<title>Node21</title>
<g id="a_node43"><a xlink:href="_multi_phase_8cpp.html" target="_top" xlink:title=" ">
<polygon fill="white" stroke="black" points="3498.5,-224.5 3498.5,-243.5 3589.5,-243.5 3589.5,-224.5 3498.5,-224.5"/>
<text text-anchor="middle" x="3544" y="-231.5" font-family="Helvetica,sans-Serif" font-size="10.00">MultiPhase.cpp</text>
</a>
</g>
</g>
<!-- Node1&#45;&gt;Node21 -->
<g id="edge76" class="edge">
<title>Node1&#45;&gt;Node21</title>
<path fill="none" stroke="midnightblue" d="M3121.96,-343.27C3186.92,-339.82 3308.75,-329.65 3408,-300 3454.89,-285.99 3505.84,-257.77 3529.91,-243.57"/>
<polygon fill="midnightblue" stroke="midnightblue" points="3121.46,-339.79 3111.65,-343.79 3121.81,-346.78 3121.46,-339.79"/>
</g>
<!-- Node197 -->
<g id="node44" class="node">
<title>Node197</title>
<g id="a_node44"><a xlink:href="_fast_iface_8cpp.html" target="_top" xlink:title=" ">
<polygon fill="white" stroke="black" points="3608,-224.5 3608,-243.5 3688,-243.5 3688,-224.5 3608,-224.5"/>
<text text-anchor="middle" x="3648" y="-231.5" font-family="Helvetica,sans-Serif" font-size="10.00">FastIface.cpp</text>
</a>
</g>
</g>
<!-- Node1&#45;&gt;Node197 -->
<g id="edge78" class="edge">
<title>Node1&#45;&gt;Node197</title>
<path fill="none" stroke="midnightblue" d="M3122,-342.27C3192.59,-337.44 3331.58,-325.41 3447,-300 3513.8,-285.29 3589.95,-257.52 3626.37,-243.52"/>
<polygon fill="midnightblue" stroke="midnightblue" points="3121.42,-338.8 3111.68,-342.96 3121.89,-345.79 3121.42,-338.8"/>
</g>
<!-- Node198 -->
<g id="node45" class="node">
<title>Node198</title>
<g id="a_node45"><a xlink:href="_sim_time_8cpp.html" target="_top" xlink:title=" ">
<polygon fill="white" stroke="black" points="3782,-280.5 3782,-299.5 3862,-299.5 3862,-280.5 3782,-280.5"/>
<text text-anchor="middle" x="3822" y="-287.5" font-family="Helvetica,sans-Serif" font-size="10.00">SimTime.cpp</text>
</a>
</g>
</g>
<!-- Node1&#45;&gt;Node198 -->
<g id="edge62" class="edge">
<title>Node1&#45;&gt;Node198</title>
<path fill="none" stroke="midnightblue" d="M3121.96,-343.6C3233.18,-339.88 3525.56,-328.01 3768,-300 3772.53,-299.48 3777.26,-298.83 3781.96,-298.13"/>
<polygon fill="midnightblue" stroke="midnightblue" points="3121.65,-340.11 3111.77,-343.94 3121.88,-347.11 3121.65,-340.11"/>
</g>
<!-- Node199 -->
<g id="node46" class="node">
<title>Node199</title>
<g id="a_node46"><a xlink:href="_a_b_l_forcing_8_h.html" target="_top" xlink:title=" ">
<polygon fill="white" stroke="red" points="3531.5,-56.5 3531.5,-75.5 3612.5,-75.5 3612.5,-56.5 3531.5,-56.5"/>
<text text-anchor="middle" x="3572" y="-63.5" font-family="Helvetica,sans-Serif" font-size="10.00">ABLForcing.H</text>
</a>
</g>
</g>
<!-- Node1&#45;&gt;Node199 -->
<g id="edge65" class="edge">
<title>Node1&#45;&gt;Node199</title>
<path fill="none" stroke="midnightblue" d="M3121.61,-343.97C3238.27,-340.94 3545.18,-330.23 3642,-300 3696.94,-282.85 3754,-292.55 3754,-235 3754,-235 3754,-235 3754,-177 3754,-111.47 3666.5,-83.93 3612.84,-73.2"/>
<polygon fill="midnightblue" stroke="midnightblue" points="3121.48,-340.48 3111.57,-344.23 3121.66,-347.47 3121.48,-340.48"/>
</g>
<!-- Node200 -->
<g id="node47" class="node">
<title>Node200</title>
<g id="a_node47"><a xlink:href="_actuator_forcing_8_h.html" target="_top" xlink:title=" ">
<polygon fill="white" stroke="black" points="1073,-280.5 1073,-299.5 1177,-299.5 1177,-280.5 1073,-280.5"/>
<text text-anchor="middle" x="1125" y="-287.5" font-family="Helvetica,sans-Serif" font-size="10.00">ActuatorForcing.H</text>
</a>
</g>
</g>
<!-- Node1&#45;&gt;Node200 -->
<g id="edge70" class="edge">
<title>Node1&#45;&gt;Node200</title>
<path fill="none" stroke="midnightblue" d="M3030.26,-344.48C2825.37,-342 1971.29,-330.3 1271,-300 1239.79,-298.65 1204.87,-296.52 1177.01,-294.67"/>
<polygon fill="midnightblue" stroke="midnightblue" points="3030.32,-347.98 3040.36,-344.6 3030.4,-340.98 3030.32,-347.98"/>
</g>
<!-- Node201 -->
<g id="node48" class="node">
<title>Node201</title>
<g id="a_node48"><a xlink:href="_body_force_8_h.html" target="_top" xlink:title=" ">
<polygon fill="white" stroke="black" points="1280,-280.5 1280,-299.5 1358,-299.5 1358,-280.5 1280,-280.5"/>
<text text-anchor="middle" x="1319" y="-287.5" font-family="Helvetica,sans-Serif" font-size="10.00">BodyForce.H</text>
</a>
</g>
</g>
<!-- Node1&#45;&gt;Node201 -->
<g id="edge72" class="edge">
<title>Node1&#45;&gt;Node201</title>
<path fill="none" stroke="midnightblue" d="M3030.14,-344.87C2835.04,-344.1 2054.72,-338.61 1415,-300 1396.29,-298.87 1375.57,-297.01 1358.19,-295.27"/>
<polygon fill="midnightblue" stroke="midnightblue" points="3030.3,-348.37 3040.31,-344.91 3030.33,-341.37 3030.3,-348.37"/>
</g>
<!-- Node202 -->
<g id="node49" class="node">
<title>Node202</title>
<g id="a_node49"><a xlink:href="_geostrophic_forcing_8_h.html" target="_top" xlink:title=" ">
<polygon fill="white" stroke="black" points="3277.5,-280.5 3277.5,-299.5 3398.5,-299.5 3398.5,-280.5 3277.5,-280.5"/>
<text text-anchor="middle" x="3338" y="-287.5" font-family="Helvetica,sans-Serif" font-size="10.00">GeostrophicForcing.H</text>
</a>
</g>
</g>
<!-- Node1&#45;&gt;Node202 -->
<g id="edge74" class="edge">
<title>Node1&#45;&gt;Node202</title>
<path fill="none" stroke="midnightblue" d="M3121.67,-335.59C3170.96,-325.43 3248.78,-309.39 3296.42,-299.57"/>
<polygon fill="midnightblue" stroke="midnightblue" points="3120.69,-332.21 3111.61,-337.66 3122.11,-339.07 3120.69,-332.21"/>
</g>
<!-- Node203 -->
<g id="node50" class="node">
<title>Node203</title>
<g id="a_node50"><a xlink:href="_n_w_b_8_h.html" target="_top" xlink:title=" ">
<polygon fill="white" stroke="red" points="3880.5,-280.5 3880.5,-299.5 3931.5,-299.5 3931.5,-280.5 3880.5,-280.5"/>
<text text-anchor="middle" x="3906" y="-287.5" font-family="Helvetica,sans-Serif" font-size="10.00">NWB.H</text>
</a>
</g>
</g>
<!-- Node1&#45;&gt;Node203 -->
<g id="edge77" class="edge">
<title>Node1&#45;&gt;Node203</title>
<path fill="none" stroke="midnightblue" d="M3121.64,-345.52C3243.88,-346.23 3588.61,-343.87 3871,-300 3873.98,-299.54 3877.07,-298.93 3880.12,-298.25"/>
<polygon fill="midnightblue" stroke="midnightblue" points="3121.55,-342.02 3111.52,-345.45 3121.5,-349.02 3121.55,-342.02"/>
</g>
<!-- Node2&#45;&gt;Node3 -->
<g id="edge2" class="edge">
<title>Node2&#45;&gt;Node3</title>
<path fill="none" stroke="midnightblue" d="M189.83,-277.57C154.93,-267.38 104.65,-252.7 73.18,-243.52"/>
<polygon fill="midnightblue" stroke="midnightblue" points="189.11,-281 199.69,-280.44 191.07,-274.28 189.11,-281"/>
</g>
<!-- Node2&#45;&gt;Node6 -->
<g id="edge4" class="edge">
<title>Node2&#45;&gt;Node6</title>
<path fill="none" stroke="midnightblue" d="M205.19,-275.18C188.08,-265.24 165.53,-252.15 150.9,-243.65"/>
<polygon fill="midnightblue" stroke="midnightblue" points="203.65,-278.33 214.06,-280.32 207.17,-272.28 203.65,-278.33"/>
</g>
<!-- Node2&#45;&gt;Node7 -->
<g id="edge5" class="edge">
<title>Node2&#45;&gt;Node7</title>
<path fill="none" stroke="midnightblue" d="M294.28,-286.59C409.32,-281.85 655.56,-269.48 862,-244 864.86,-243.65 867.79,-243.24 870.75,-242.8"/>
<polygon fill="midnightblue" stroke="midnightblue" points="294.07,-283.1 284.22,-287 294.36,-290.09 294.07,-283.1"/>
</g>
<!-- Node47 -->
<g id="node10" class="node">
<title>Node47</title>
<g id="a_node10"><a xlink:href="_a_b_l_fill_inflow_8_h.html" target="_top" xlink:title=" ">
<polygon fill="white" stroke="red" points="367.5,-168.5 367.5,-187.5 456.5,-187.5 456.5,-168.5 367.5,-168.5"/>
<text text-anchor="middle" x="412" y="-175.5" font-family="Helvetica,sans-Serif" font-size="10.00">ABLFillInflow.H</text>
</a>
</g>
</g>
<!-- Node2&#45;&gt;Node47 -->
<g id="edge9" class="edge">
<title>Node2&#45;&gt;Node47</title>
<path fill="none" stroke="midnightblue" d="M219.16,-271.15C212.79,-256.93 207.46,-237.27 218,-224 236.28,-200.99 315.83,-188.7 367.22,-183.03"/>
<polygon fill="midnightblue" stroke="midnightblue" points="216.17,-273 223.77,-280.38 222.43,-269.87 216.17,-273"/>
</g>
<!-- Node50 -->
<g id="node11" class="node">
<title>Node50</title>
<g id="a_node11"><a xlink:href="_a_b_l_fill_m_p_l_8_h.html" target="_top" xlink:title=" ">
<polygon fill="white" stroke="red" points="716,-168.5 716,-187.5 796,-187.5 796,-168.5 716,-168.5"/>
<text text-anchor="middle" x="756" y="-175.5" font-family="Helvetica,sans-Serif" font-size="10.00">ABLFillMPL.H</text>
</a>
</g>
</g>
<!-- Node2&#45;&gt;Node50 -->
<g id="edge10" class="edge">
<title>Node2&#45;&gt;Node50</title>
<path fill="none" stroke="midnightblue" d="M230.04,-269.94C231.94,-254.98 237.12,-234.92 251,-224 287.23,-195.49 602.37,-183.51 715.65,-180.09"/>
<polygon fill="midnightblue" stroke="midnightblue" points="226.53,-269.88 229.13,-280.15 233.5,-270.5 226.53,-269.88"/>
</g>
<!-- Node4 -->
<g id="node4" class="node">
<title>Node4</title>
<g id="a_node4"><a xlink:href="icns__bcop_8_h.html" target="_top" xlink:title=" ">
<polygon fill="white" stroke="red" points="6.5,-168.5 6.5,-187.5 81.5,-187.5 81.5,-168.5 6.5,-168.5"/>
<text text-anchor="middle" x="44" y="-175.5" font-family="Helvetica,sans-Serif" font-size="10.00">icns_bcop.H</text>
</a>
</g>
</g>
<!-- Node3&#45;&gt;Node4 -->
<g id="edge3" class="edge">
<title>Node3&#45;&gt;Node4</title>
<path fill="none" stroke="midnightblue" d="M44,-213.8C44,-204.91 44,-194.78 44,-187.75"/>
<polygon fill="midnightblue" stroke="midnightblue" points="40.5,-214.08 44,-224.08 47.5,-214.08 40.5,-214.08"/>
</g>
<!-- Node8 -->
<g id="node7" class="node">
<title>Node8</title>
<g id="a_node7"><a xlink:href="_p_d_e_ops_8_h.html" target="_top" xlink:title=" ">
<polygon fill="white" stroke="red" points="1875.5,-168.5 1875.5,-187.5 1940.5,-187.5 1940.5,-168.5 1875.5,-168.5"/>
<text text-anchor="middle" x="1908" y="-175.5" font-family="Helvetica,sans-Serif" font-size="10.00">PDEOps.H</text>
</a>
</g>
</g>
<!-- Node7&#45;&gt;Node8 -->
<g id="edge6" class="edge">
<title>Node7&#45;&gt;Node8</title>
<path fill="none" stroke="midnightblue" d="M965.24,-229.07C988.17,-227.41 1015.42,-225.51 1040,-224 1365.7,-204.02 1760.52,-185.68 1875.27,-180.47"/>
<polygon fill="midnightblue" stroke="midnightblue" points="964.75,-225.6 955.03,-229.82 965.26,-232.58 964.75,-225.6"/>
</g>
<!-- Node45 -->
<g id="node9" class="node">
<title>Node45</title>
<g id="a_node9"><a xlink:href="_p_d_e_base_8cpp.html" target="_top" xlink:title=" ">
<polygon fill="white" stroke="black" points="913,-168.5 913,-187.5 993,-187.5 993,-168.5 913,-168.5"/>
<text text-anchor="middle" x="953" y="-175.5" font-family="Helvetica,sans-Serif" font-size="10.00">PDEBase.cpp</text>
</a>
</g>
</g>
<!-- Node7&#45;&gt;Node45 -->
<g id="edge8" class="edge">
<title>Node7&#45;&gt;Node45</title>
<path fill="none" stroke="midnightblue" d="M925.7,-215.86C932.63,-206.5 940.91,-195.33 946.52,-187.75"/>
<polygon fill="midnightblue" stroke="midnightblue" points="922.75,-213.96 919.61,-224.08 928.37,-218.13 922.75,-213.96"/>
</g>
<!-- Node23 -->
<g id="node8" class="node">
<title>Node23</title>
<g id="a_node8"><a xlink:href="_p_d_e_8_h.html" target="_top" xlink:title=" ">
<polygon fill="white" stroke="red" points="1915.5,-112.5 1915.5,-131.5 1962.5,-131.5 1962.5,-112.5 1915.5,-112.5"/>
<text text-anchor="middle" x="1939" y="-119.5" font-family="Helvetica,sans-Serif" font-size="10.00">PDE.H</text>
</a>
</g>
</g>
<!-- Node8&#45;&gt;Node23 -->
<g id="edge7" class="edge">
<title>Node8&#45;&gt;Node23</title>
<path fill="none" stroke="midnightblue" d="M1918.18,-159.27C1923.47,-150.05 1929.72,-139.17 1933.98,-131.75"/>
<polygon fill="midnightblue" stroke="midnightblue" points="1915.06,-157.67 1913.12,-168.08 1921.13,-161.15 1915.06,-157.67"/>
</g>
<!-- Node53&#45;&gt;Node8 -->
<g id="edge16" class="edge">
<title>Node53&#45;&gt;Node8</title>
<path fill="none" stroke="midnightblue" d="M1987.62,-274.04C1977.4,-265.72 1964.96,-254.87 1955,-244 1938.07,-225.52 1921.71,-200.89 1913.49,-187.9"/>
<polygon fill="midnightblue" stroke="midnightblue" points="1985.57,-276.88 1995.58,-280.38 1989.94,-271.41 1985.57,-276.88"/>
</g>
<!-- Node53&#45;&gt;Node23 -->
<g id="edge17" class="edge">
<title>Node53&#45;&gt;Node23</title>
<path fill="none" stroke="midnightblue" d="M1999.38,-270.39C1984.71,-234.59 1953.07,-157.34 1942.51,-131.57"/>
<polygon fill="midnightblue" stroke="midnightblue" points="1996.31,-272.15 2003.34,-280.08 2002.79,-269.49 1996.31,-272.15"/>
</g>
<!-- Node53&#45;&gt;Node45 -->
<g id="edge47" class="edge">
<title>Node53&#45;&gt;Node45</title>
<path fill="none" stroke="midnightblue" d="M1963.71,-288.03C1777.28,-283.71 1050.39,-265.57 1007,-244 982.3,-231.72 964.76,-202.42 957.18,-187.72"/>
<polygon fill="midnightblue" stroke="midnightblue" points="1963.87,-291.53 1973.95,-288.26 1964.03,-284.53 1963.87,-291.53"/>
</g>
<!-- Node54 -->
<g id="node13" class="node">
<title>Node54</title>
<g id="a_node13"><a xlink:href="_c_f_d_sim_8cpp.html" target="_top" xlink:title=" ">
<polygon fill="white" stroke="black" points="2143,-224.5 2143,-243.5 2219,-243.5 2219,-224.5 2143,-224.5"/>
<text text-anchor="middle" x="2181" y="-231.5" font-family="Helvetica,sans-Serif" font-size="10.00">CFDSim.cpp</text>
</a>
</g>
</g>
<!-- Node53&#45;&gt;Node54 -->
<g id="edge13" class="edge">
<title>Node53&#45;&gt;Node54</title>
<path fill="none" stroke="midnightblue" d="M2044.26,-277.44C2077.07,-267.26 2124.08,-252.66 2153.56,-243.52"/>
<polygon fill="midnightblue" stroke="midnightblue" points="2043.08,-274.14 2034.57,-280.44 2045.16,-280.82 2043.08,-274.14"/>
</g>
<!-- Node55 -->
<g id="node14" class="node">
<title>Node55</title>
<g id="a_node14"><a xlink:href="_mesh_map_8cpp.html" target="_top" xlink:title=" ">
<polygon fill="white" stroke="black" points="2237,-224.5 2237,-243.5 2321,-243.5 2321,-224.5 2237,-224.5"/>
<text text-anchor="middle" x="2279" y="-231.5" font-family="Helvetica,sans-Serif" font-size="10.00">MeshMap.cpp</text>
</a>
</g>
</g>
<!-- Node53&#45;&gt;Node55 -->
<g id="edge14" class="edge">
<title>Node53&#45;&gt;Node55</title>
<path fill="none" stroke="midnightblue" d="M2050.16,-280.43C2101.33,-270.27 2186.05,-253.45 2236.8,-243.38"/>
<polygon fill="midnightblue" stroke="midnightblue" points="2049.21,-277.05 2040.08,-282.43 2050.57,-283.92 2049.21,-277.05"/>
</g>
<!-- Node53&#45;&gt;Node56 -->
<g id="edge15" class="edge">
<title>Node53&#45;&gt;Node56</title>
<path fill="none" stroke="midnightblue" d="M1963.77,-288.43C1716.71,-285.08 488.69,-267.35 322,-244 319.27,-243.62 316.44,-243.1 313.63,-242.51"/>
<polygon fill="midnightblue" stroke="midnightblue" points="1963.76,-291.93 1973.8,-288.56 1963.85,-284.93 1963.76,-291.93"/>
</g>
<!-- Node68 -->
<g id="node16" class="node">
<title>Node68</title>
<g id="a_node16"><a xlink:href="_a_b_l_forcing_8cpp.html" target="_top" xlink:title=" ">
<polygon fill="white" stroke="black" points="3275.5,-0.5 3275.5,-19.5 3366.5,-19.5 3366.5,-0.5 3275.5,-0.5"/>
<text text-anchor="middle" x="3321" y="-7.5" font-family="Helvetica,sans-Serif" font-size="10.00">ABLForcing.cpp</text>
</a>
</g>
</g>
<!-- Node53&#45;&gt;Node68 -->
<g id="edge18" class="edge">
<title>Node53&#45;&gt;Node68</title>
<path fill="none" stroke="midnightblue" d="M2050.34,-288.91C2269.96,-288.27 3251.53,-283.21 3302,-244 3325.77,-225.53 3321,-209.1 3321,-179 3321,-179 3321,-179 3321,-121 3321,-83.19 3321,-38.06 3321,-19.56"/>
<polygon fill="midnightblue" stroke="midnightblue" points="2050.16,-285.41 2040.17,-288.94 2050.18,-292.41 2050.16,-285.41"/>
</g>
<!-- Node69 -->
<g id="node17" class="node">
<title>Node69</title>
<g id="a_node17"><a xlink:href="_a_b_l_wall_function_8_h.html" target="_top" xlink:title=" ">
<polygon fill="white" stroke="red" points="2839.5,-168.5 2839.5,-187.5 2946.5,-187.5 2946.5,-168.5 2839.5,-168.5"/>
<text text-anchor="middle" x="2893" y="-175.5" font-family="Helvetica,sans-Serif" font-size="10.00">ABLWallFunction.H</text>
</a>
</g>
</g>
<!-- Node53&#45;&gt;Node69 -->
<g id="edge19" class="edge">
<title>Node53&#45;&gt;Node69</title>
<path fill="none" stroke="midnightblue" d="M2050.5,-288.37C2209.53,-285.81 2753.8,-274.85 2825,-244 2853.17,-231.79 2876.64,-202.46 2887.12,-187.74"/>
<polygon fill="midnightblue" stroke="midnightblue" points="2050.1,-284.87 2040.16,-288.53 2050.21,-291.87 2050.1,-284.87"/>
</g>
<!-- Node71 -->
<g id="node19" class="node">
<title>Node71</title>
<g id="a_node19"><a xlink:href="_a_b_l_mean_boussinesq_8cpp.html" target="_top" xlink:title=" ">
<polygon fill="white" stroke="black" points="1744,-0.5 1744,-19.5 1882,-19.5 1882,-0.5 1744,-0.5"/>
<text text-anchor="middle" x="1813" y="-7.5" font-family="Helvetica,sans-Serif" font-size="10.00">ABLMeanBoussinesq.cpp</text>
</a>
</g>
</g>
<!-- Node53&#45;&gt;Node71 -->
<g id="edge38" class="edge">
<title>Node53&#45;&gt;Node71</title>
<path fill="none" stroke="midnightblue" d="M1963.55,-287.79C1777.43,-282.5 1056.17,-260.94 1040,-244 937.11,-136.21 1538.38,-46.74 1745.09,-19.52"/>
<polygon fill="midnightblue" stroke="midnightblue" points="1963.68,-291.29 1973.77,-288.08 1963.88,-284.3 1963.68,-291.29"/>
</g>
<!-- Node73 -->
<g id="node20" class="node">
<title>Node73</title>
<g id="a_node20"><a xlink:href="_a_b_l_stats_base_8_h.html" target="_top" xlink:title=" ">
<polygon fill="white" stroke="red" points="2769.5,-112.5 2769.5,-131.5 2864.5,-131.5 2864.5,-112.5 2769.5,-112.5"/>
<text text-anchor="middle" x="2817" y="-119.5" font-family="Helvetica,sans-Serif" font-size="10.00">ABLStatsBase.H</text>
</a>
</g>
</g>
<!-- Node53&#45;&gt;Node73 -->
<g id="edge34" class="edge">
<title>Node53&#45;&gt;Node73</title>
<path fill="none" stroke="midnightblue" d="M2050.83,-287.95C2211.97,-283.92 2763.78,-268.36 2792,-244 2825.45,-215.12 2821.25,-154.37 2818.34,-131.74"/>
<polygon fill="midnightblue" stroke="midnightblue" points="2050.26,-284.47 2040.35,-288.21 2050.43,-291.46 2050.26,-284.47"/>
</g>
<!-- Node75 -->
<g id="node21" class="node">
<title>Node75</title>
<g id="a_node21"><a xlink:href="_boussinesq_bubble_8cpp.html" target="_top" xlink:title=" ">
<polygon fill="white" stroke="black" points="2318,-112.5 2318,-131.5 2444,-131.5 2444,-112.5 2318,-112.5"/>
<text text-anchor="middle" x="2381" y="-119.5" font-family="Helvetica,sans-Serif" font-size="10.00">BoussinesqBubble.cpp</text>
</a>
</g>
</g>
<!-- Node53&#45;&gt;Node75 -->
<g id="edge55" class="edge">
<title>Node53&#45;&gt;Node75</title>
<path fill="none" stroke="midnightblue" d="M2008.54,-270.16C2010.63,-255.93 2015.52,-236.73 2027,-224 2066.92,-179.75 2236.56,-146.37 2325.72,-131.51"/>
<polygon fill="midnightblue" stroke="midnightblue" points="2005.04,-269.97 2007.4,-280.3 2012,-270.75 2005.04,-269.97"/>
</g>
<!-- Node53&#45;&gt;Node76 -->
<g id="edge26" class="edge">
<title>Node53&#45;&gt;Node76</title>
<path fill="none" stroke="midnightblue" d="M2050.33,-288.64C2202.56,-287.08 2726.87,-279.31 3158,-244 3160.89,-243.76 3163.84,-243.5 3166.82,-243.21"/>
<polygon fill="midnightblue" stroke="midnightblue" points="2049.99,-285.14 2040.02,-288.74 2050.06,-292.14 2049.99,-285.14"/>
</g>
<!-- Node53&#45;&gt;Node83 -->
<g id="edge29" class="edge">
<title>Node53&#45;&gt;Node83</title>
<path fill="none" stroke="midnightblue" d="M2050.45,-288.01C2188.55,-284.64 2629.81,-272.26 2994,-244 2996.86,-243.78 2999.77,-243.54 3002.7,-243.28"/>
<polygon fill="midnightblue" stroke="midnightblue" points="2050.19,-284.51 2040.28,-288.25 2050.36,-291.51 2050.19,-284.51"/>
</g>
<!-- Node85 -->
<g id="node24" class="node">
<title>Node85</title>
<g id="a_node24"><a xlink:href="_a_b_l_boundary_plane_8_h.html" target="_top" xlink:title=" ">
<polygon fill="white" stroke="red" points="569.5,-224.5 569.5,-243.5 688.5,-243.5 688.5,-224.5 569.5,-224.5"/>
<text text-anchor="middle" x="629" y="-231.5" font-family="Helvetica,sans-Serif" font-size="10.00">ABLBoundaryPlane.H</text>
</a>
</g>
</g>
<!-- Node53&#45;&gt;Node85 -->
<g id="edge31" class="edge">
<title>Node53&#45;&gt;Node85</title>
<path fill="none" stroke="midnightblue" d="M1963.29,-289.01C1797.76,-288.72 1193.63,-284.75 698,-244 694.99,-243.75 691.91,-243.47 688.8,-243.15"/>
<polygon fill="midnightblue" stroke="midnightblue" points="1963.55,-292.51 1973.56,-289.02 1963.56,-285.51 1963.55,-292.51"/>
</g>
<!-- Node86 -->
<g id="node25" class="node">
<title>Node86</title>
<g id="a_node25"><a xlink:href="_a_b_l_modulated_power_law_8_h.html" target="_top" xlink:title=" ">
<polygon fill="white" stroke="red" points="707,-224.5 707,-243.5 853,-243.5 853,-224.5 707,-224.5"/>
<text text-anchor="middle" x="780" y="-231.5" font-family="Helvetica,sans-Serif" font-size="10.00">ABLModulatedPowerLaw.H</text>
</a>
</g>
</g>
<!-- Node53&#45;&gt;Node86 -->
<g id="edge35" class="edge">
<title>Node53&#45;&gt;Node86</title>
<path fill="none" stroke="midnightblue" d="M1963.4,-288.39C1811.37,-286.01 1290.65,-275.91 862,-244 859.14,-243.79 856.23,-243.55 853.29,-243.3"/>
<polygon fill="midnightblue" stroke="midnightblue" points="1963.65,-291.89 1973.7,-288.54 1963.75,-284.89 1963.65,-291.89"/>
</g>
<!-- Node87 -->
<g id="node26" class="node">
<title>Node87</title>
<g id="a_node26"><a xlink:href="_actuator_forcing_8cpp.html" target="_top" xlink:title=" ">
<polygon fill="white" stroke="black" points="331.5,-224.5 331.5,-243.5 444.5,-243.5 444.5,-224.5 331.5,-224.5"/>
<text text-anchor="middle" x="388" y="-231.5" font-family="Helvetica,sans-Serif" font-size="10.00">ActuatorForcing.cpp</text>
</a>
</g>
</g>
<!-- Node53&#45;&gt;Node87 -->
<g id="edge39" class="edge">
<title>Node53&#45;&gt;Node87</title>
<path fill="none" stroke="midnightblue" d="M1963.57,-288.37C1744.48,-285.08 759.15,-269.15 454,-244 451,-243.75 447.93,-243.46 444.84,-243.14"/>
<polygon fill="midnightblue" stroke="midnightblue" points="1963.66,-291.87 1973.71,-288.52 1963.76,-284.87 1963.66,-291.87"/>
</g>
<!-- Node88 -->
<g id="node27" class="node">
<title>Node88</title>
<g id="a_node27"><a xlink:href="_body_force_8cpp.html" target="_top" xlink:title=" ">
<polygon fill="white" stroke="black" points="463,-224.5 463,-243.5 551,-243.5 551,-224.5 463,-224.5"/>
<text text-anchor="middle" x="507" y="-231.5" font-family="Helvetica,sans-Serif" font-size="10.00">BodyForce.cpp</text>
</a>
</g>
</g>
<!-- Node53&#45;&gt;Node88 -->
<g id="edge40" class="edge">
<title>Node53&#45;&gt;Node88</title>
<path fill="none" stroke="midnightblue" d="M1963.54,-288.45C1753.53,-285.69 842.53,-272.25 560,-244 557.12,-243.71 554.16,-243.36 551.19,-242.97"/>
<polygon fill="midnightblue" stroke="midnightblue" points="1963.8,-291.96 1973.85,-288.59 1963.89,-284.96 1963.8,-291.96"/>
</g>
<!-- Node89 -->
<g id="node28" class="node">
<title>Node89</title>
<g id="a_node28"><a xlink:href="_boussinesq_buoyancy_8cpp.html" target="_top" xlink:title=" ">
<polygon fill="white" stroke="black" points="2377.5,-224.5 2377.5,-243.5 2516.5,-243.5 2516.5,-224.5 2377.5,-224.5"/>
<text text-anchor="middle" x="2447" y="-231.5" font-family="Helvetica,sans-Serif" font-size="10.00">BoussinesqBuoyancy.cpp</text>
</a>
</g>
</g>
<!-- Node53&#45;&gt;Node89 -->
<g id="edge41" class="edge">
<title>Node53&#45;&gt;Node89</title>
<path fill="none" stroke="midnightblue" d="M2050.28,-283.69C2126.65,-274.32 2285.91,-254.77 2377.72,-243.5"/>
<polygon fill="midnightblue" stroke="midnightblue" points="2049.57,-280.25 2040.07,-284.94 2050.42,-287.2 2049.57,-280.25"/>
</g>
<!-- Node90 -->
<g id="node29" class="node">
<title>Node90</title>
<g id="a_node29"><a xlink:href="_coriolis_forcing_8cpp.html" target="_top" xlink:title=" ">
<polygon fill="white" stroke="black" points="2534.5,-224.5 2534.5,-243.5 2643.5,-243.5 2643.5,-224.5 2534.5,-224.5"/>
<text text-anchor="middle" x="2589" y="-231.5" font-family="Helvetica,sans-Serif" font-size="10.00">CoriolisForcing.cpp</text>
</a>
</g>
</g>
<!-- Node53&#45;&gt;Node90 -->
<g id="edge42" class="edge">
<title>Node53&#45;&gt;Node90</title>
<path fill="none" stroke="midnightblue" d="M2050.16,-286.07C2139.24,-279.84 2349.9,-264.2 2526,-244 2528.74,-243.69 2531.55,-243.35 2534.39,-242.99"/>
<polygon fill="midnightblue" stroke="midnightblue" points="2049.89,-282.58 2040.16,-286.77 2050.37,-289.56 2049.89,-282.58"/>
</g>
<!-- Node91 -->
<g id="node30" class="node">
<title>Node91</title>
<g id="a_node30"><a xlink:href="_density_buoyancy_8cpp.html" target="_top" xlink:title=" ">
<polygon fill="white" stroke="black" points="2661.5,-224.5 2661.5,-243.5 2782.5,-243.5 2782.5,-224.5 2661.5,-224.5"/>
<text text-anchor="middle" x="2722" y="-231.5" font-family="Helvetica,sans-Serif" font-size="10.00">DensityBuoyancy.cpp</text>
</a>
</g>
</g>
<!-- Node53&#45;&gt;Node91 -->
<g id="edge43" class="edge">
<title>Node53&#45;&gt;Node91</title>
<path fill="none" stroke="midnightblue" d="M2050.1,-286.9C2153.99,-281.63 2426.42,-266.65 2653,-244 2655.76,-243.72 2658.59,-243.42 2661.44,-243.11"/>
<polygon fill="midnightblue" stroke="midnightblue" points="2049.81,-283.41 2040,-287.4 2050.16,-290.4 2049.81,-283.41"/>
</g>
<!-- Node92 -->
<g id="node31" class="node">
<title>Node92</title>
<g id="a_node31"><a xlink:href="_geostrophic_forcing_8cpp.html" target="_top" xlink:title=" ">
<polygon fill="white" stroke="black" points="3349.5,-224.5 3349.5,-243.5 3480.5,-243.5 3480.5,-224.5 3349.5,-224.5"/>
<text text-anchor="middle" x="3415" y="-231.5" font-family="Helvetica,sans-Serif" font-size="10.00">GeostrophicForcing.cpp</text>
</a>
</g>
</g>
<!-- Node53&#45;&gt;Node92 -->
<g id="edge44" class="edge">
<title>Node53&#45;&gt;Node92</title>
<path fill="none" stroke="midnightblue" d="M2050.48,-288.76C2217.12,-287.58 2830.99,-280.83 3335,-244 3339.6,-243.66 3344.34,-243.26 3349.12,-242.82"/>
<polygon fill="midnightblue" stroke="midnightblue" points="2050.13,-285.26 2040.16,-288.83 2050.18,-292.26 2050.13,-285.26"/>
</g>
<!-- Node93 -->
<g id="node32" class="node">
<title>Node93</title>
<g id="a_node32"><a xlink:href="_gravity_forcing_8cpp.html" target="_top" xlink:title=" ">
<polygon fill="white" stroke="black" points="2877,-224.5 2877,-243.5 2985,-243.5 2985,-224.5 2877,-224.5"/>
<text text-anchor="middle" x="2931" y="-231.5" font-family="Helvetica,sans-Serif" font-size="10.00">GravityForcing.cpp</text>
</a>
</g>
</g>
<!-- Node53&#45;&gt;Node93 -->
<g id="edge45" class="edge">
<title>Node53&#45;&gt;Node93</title>
<path fill="none" stroke="midnightblue" d="M2050.49,-287.93C2176.44,-284.56 2552.34,-272.68 2863,-244 2867.51,-243.58 2872.17,-243.09 2876.85,-242.56"/>
<polygon fill="midnightblue" stroke="midnightblue" points="2050.02,-284.44 2040.12,-288.2 2050.21,-291.44 2050.02,-284.44"/>
</g>
<!-- Node94 -->
<g id="node33" class="node">
<title>Node94</title>
<g id="a_node33"><a xlink:href="_synth_turb_forcing_8cpp.html" target="_top" xlink:title=" ">
<polygon fill="white" stroke="black" points="1049,-224.5 1049,-243.5 1169,-243.5 1169,-224.5 1049,-224.5"/>
<text text-anchor="middle" x="1109" y="-231.5" font-family="Helvetica,sans-Serif" font-size="10.00">SynthTurbForcing.cpp</text>
</a>
</g>
</g>
<!-- Node53&#45;&gt;Node94 -->
<g id="edge46" class="edge">
<title>Node53&#45;&gt;Node94</title>
<path fill="none" stroke="midnightblue" d="M1963.61,-287.8C1840.38,-284.14 1477.84,-271.65 1178,-244 1175.11,-243.73 1172.16,-243.44 1169.18,-243.12"/>
<polygon fill="midnightblue" stroke="midnightblue" points="1963.67,-291.3 1973.76,-288.1 1963.87,-284.31 1963.67,-291.3"/>
</g>
<!-- Node95 -->
<g id="node34" class="node">
<title>Node95</title>
<g id="a_node34"><a xlink:href="_s_d_r_src_8cpp.html" target="_top" xlink:title=" ">
<polygon fill="white" stroke="black" points="1187,-224.5 1187,-243.5 1259,-243.5 1259,-224.5 1187,-224.5"/>
<text text-anchor="middle" x="1223" y="-231.5" font-family="Helvetica,sans-Serif" font-size="10.00">SDRSrc.cpp</text>
</a>
</g>
</g>
<!-- Node53&#45;&gt;Node95 -->
<g id="edge48" class="edge">
<title>Node53&#45;&gt;Node95</title>
<path fill="none" stroke="midnightblue" d="M1963.6,-288.42C1849.3,-286.46 1530.67,-278.1 1268,-244 1265.16,-243.63 1262.22,-243.19 1259.28,-242.7"/>
<polygon fill="midnightblue" stroke="midnightblue" points="1963.65,-291.93 1973.7,-288.59 1963.76,-284.93 1963.65,-291.93"/>
</g>
<!-- Node96 -->
<g id="node35" class="node">
<title>Node96</title>
<g id="a_node35"><a xlink:href="_ksgs_m84_src_8cpp.html" target="_top" xlink:title=" ">
<polygon fill="white" stroke="black" points="1277,-224.5 1277,-243.5 1373,-243.5 1373,-224.5 1277,-224.5"/>
<text text-anchor="middle" x="1325" y="-231.5" font-family="Helvetica,sans-Serif" font-size="10.00">KsgsM84Src.cpp</text>
</a>
</g>
</g>
<!-- Node53&#45;&gt;Node96 -->
<g id="edge49" class="edge">
<title>Node53&#45;&gt;Node96</title>
<path fill="none" stroke="midnightblue" d="M1963.57,-287.1C1861.86,-282.37 1600.33,-268.66 1383,-244 1379.76,-243.63 1376.42,-243.22 1373.07,-242.77"/>
<polygon fill="midnightblue" stroke="midnightblue" points="1963.61,-290.6 1973.76,-287.56 1963.94,-283.61 1963.61,-290.6"/>
</g>
<!-- Node97 -->
<g id="node36" class="node">
<title>Node97</title>
<g id="a_node36"><a xlink:href="_kw_s_s_t_src_8cpp.html" target="_top" xlink:title=" ">
<polygon fill="white" stroke="black" points="1391.5,-224.5 1391.5,-243.5 1476.5,-243.5 1476.5,-224.5 1391.5,-224.5"/>
<text text-anchor="middle" x="1434" y="-231.5" font-family="Helvetica,sans-Serif" font-size="10.00">KwSSTSrc.cpp</text>
</a>
</g>
</g>
<!-- Node53&#45;&gt;Node97 -->
<g id="edge50" class="edge">
<title>Node53&#45;&gt;Node97</title>
<path fill="none" stroke="midnightblue" d="M1963.95,-286.53C1874.62,-281.12 1662.68,-266.88 1486,-244 1482.91,-243.6 1479.72,-243.15 1476.52,-242.66"/>
<polygon fill="midnightblue" stroke="midnightblue" points="1963.79,-290.02 1973.98,-287.13 1964.21,-283.04 1963.79,-290.02"/>
</g>
<!-- Node98 -->
<g id="node37" class="node">
<title>Node98</title>
<g id="a_node37"><a xlink:href="_i_b_ops_8_h.html" target="_top" xlink:title=" ">
<polygon fill="white" stroke="red" points="1495,-224.5 1495,-243.5 1551,-243.5 1551,-224.5 1495,-224.5"/>
<text text-anchor="middle" x="1523" y="-231.5" font-family="Helvetica,sans-Serif" font-size="10.00">IBOps.H</text>
</a>
</g>
</g>
<!-- Node53&#45;&gt;Node98 -->
<g id="edge51" class="edge">
<title>Node53&#45;&gt;Node98</title>
<path fill="none" stroke="midnightblue" d="M1963.6,-286.53C1883.57,-281.55 1707.53,-268.63 1561,-244 1557.79,-243.46 1554.45,-242.81 1551.14,-242.1"/>
<polygon fill="midnightblue" stroke="midnightblue" points="1963.59,-290.04 1973.79,-287.15 1964.02,-283.05 1963.59,-290.04"/>
</g>
<!-- Node109 -->
<g id="node38" class="node">
<title>Node109</title>
<g id="a_node38"><a xlink:href="_convecting_taylor_vortex_8_h.html" target="_top" xlink:title=" ">
<polygon fill="white" stroke="red" points="1569.5,-224.5 1569.5,-243.5 1712.5,-243.5 1712.5,-224.5 1569.5,-224.5"/>
<text text-anchor="middle" x="1641" y="-231.5" font-family="Helvetica,sans-Serif" font-size="10.00">ConvectingTaylorVortex.H</text>
</a>
</g>
</g>
<!-- Node53&#45;&gt;Node109 -->
<g id="edge52" class="edge">
<title>Node53&#45;&gt;Node109</title>
<path fill="none" stroke="midnightblue" d="M1963.84,-282.63C1897.99,-272.92 1772.36,-254.38 1698.74,-243.52"/>
<polygon fill="midnightblue" stroke="midnightblue" points="1963.47,-286.12 1973.87,-284.11 1964.49,-279.19 1963.47,-286.12"/>
</g>
<!-- Node108 -->
<g id="node39" class="node">
<title>Node108</title>
<g id="a_node39"><a xlink:href="_i_b_8cpp.html" target="_top" xlink:title=" ">
<polygon fill="white" stroke="black" points="1730.5,-224.5 1730.5,-243.5 1777.5,-243.5 1777.5,-224.5 1730.5,-224.5"/>
<text text-anchor="middle" x="1754" y="-231.5" font-family="Helvetica,sans-Serif" font-size="10.00">IB.cpp</text>
</a>
</g>
</g>
<!-- Node53&#45;&gt;Node108 -->
<g id="edge53" class="edge">
<title>Node53&#45;&gt;Node108</title>
<path fill="none" stroke="midnightblue" d="M1963.79,-281.02C1919.3,-272.59 1848.04,-258.55 1787,-244 1784,-243.28 1780.85,-242.49 1777.75,-241.67"/>
<polygon fill="midnightblue" stroke="midnightblue" points="1963.21,-284.47 1973.68,-282.88 1964.5,-277.59 1963.21,-284.47"/>
</g>
<!-- Node111 -->
<g id="node40" class="node">
<title>Node111</title>
<g id="a_node40"><a xlink:href="_tioga_interface_8cpp.html" target="_top" xlink:title=" ">
<polygon fill="white" stroke="black" points="1795.5,-224.5 1795.5,-243.5 1902.5,-243.5 1902.5,-224.5 1795.5,-224.5"/>
<text text-anchor="middle" x="1849" y="-231.5" font-family="Helvetica,sans-Serif" font-size="10.00">TiogaInterface.cpp</text>
</a>
</g>
</g>
<!-- Node53&#45;&gt;Node111 -->
<g id="edge54" class="edge">
<title>Node53&#45;&gt;Node111</title>
<path fill="none" stroke="midnightblue" d="M1972.39,-277.17C1942.64,-267 1900.45,-252.59 1873.92,-243.52"/>
<polygon fill="midnightblue" stroke="midnightblue" points="1971.37,-280.52 1981.96,-280.44 1973.63,-273.9 1971.37,-280.52"/>
</g>
<!-- Node112 -->
<g id="node41" class="node">
<title>Node112</title>
<g id="a_node41"><a xlink:href="_channel_flow_8_h.html" target="_top" xlink:title=" ">
<polygon fill="white" stroke="black" points="2035.5,-224.5 2035.5,-243.5 2124.5,-243.5 2124.5,-224.5 2035.5,-224.5"/>
<text text-anchor="middle" x="2080" y="-231.5" font-family="Helvetica,sans-Serif" font-size="10.00">ChannelFlow.H</text>
</a>
</g>
</g>
<!-- Node53&#45;&gt;Node112 -->
<g id="edge56" class="edge">
<title>Node53&#45;&gt;Node112</title>
<path fill="none" stroke="midnightblue" d="M2027.14,-274.1C2040.28,-264.38 2056.98,-252.03 2068.06,-243.83"/>
<polygon fill="midnightblue" stroke="midnightblue" points="2024.69,-271.56 2018.73,-280.32 2028.85,-277.19 2024.69,-271.56"/>
</g>
<!-- Node113 -->
<g id="node42" class="node">
<title>Node113</title>
<g id="a_node42"><a xlink:href="_channel_flow_8cpp.html" target="_top" xlink:title=" ">
<polygon fill="white" stroke="black" points="2167.5,-168.5 2167.5,-187.5 2266.5,-187.5 2266.5,-168.5 2167.5,-168.5"/>
<text text-anchor="middle" x="2217" y="-175.5" font-family="Helvetica,sans-Serif" font-size="10.00">ChannelFlow.cpp</text>
</a>
</g>
</g>
<!-- Node53&#45;&gt;Node113 -->
<g id="edge58" class="edge">
<title>Node53&#45;&gt;Node113</title>
<path fill="none" stroke="midnightblue" d="M2050.33,-289.66C2129.85,-289.83 2294.25,-285.08 2330,-244 2354.14,-216.26 2302.11,-197.55 2260.87,-187.58"/>
<polygon fill="midnightblue" stroke="midnightblue" points="2050.17,-286.15 2040.15,-289.6 2050.13,-293.15 2050.17,-286.15"/>
</g>
<!-- Node53&#45;&gt;Node21 -->
<g id="edge59" class="edge">
<title>Node53&#45;&gt;Node21</title>
<path fill="none" stroke="midnightblue" d="M2050.18,-288.48C2262.78,-285.78 3199.77,-272.46 3490,-244 3492.74,-243.73 3495.56,-243.41 3498.39,-243.05"/>
<polygon fill="midnightblue" stroke="midnightblue" points="2049.99,-284.98 2040.04,-288.6 2050.08,-291.98 2049.99,-284.98"/>
</g>
<!-- Node53&#45;&gt;Node197 -->
<g id="edge60" class="edge">
<title>Node53&#45;&gt;Node197</title>
<path fill="none" stroke="midnightblue" d="M2050.46,-288.67C2272.98,-286.87 3286.35,-276.93 3599,-244 3601.92,-243.69 3604.94,-243.31 3607.96,-242.87"/>
<polygon fill="midnightblue" stroke="midnightblue" points="2050.14,-285.18 2040.17,-288.76 2050.2,-292.18 2050.14,-285.18"/>
</g>
<!-- Node69&#45;&gt;Node70 -->
<g id="edge20" class="edge">
<title>Node69&#45;&gt;Node70</title>
<path fill="none" stroke="midnightblue" d="M2888.28,-158.78C2884.73,-145.65 2879.54,-127.58 2874,-112 2869.39,-99.06 2863.01,-84.47 2858.94,-75.51"/>
<polygon fill="midnightblue" stroke="midnightblue" points="2884.9,-159.71 2890.85,-168.49 2891.67,-157.92 2884.9,-159.71"/>
</g>
<!-- Node69&#45;&gt;Node73 -->
<g id="edge23" class="edge">
<title>Node69&#45;&gt;Node73</title>
<path fill="none" stroke="midnightblue" d="M2872.42,-162.38C2858.69,-152.62 2841.07,-140.11 2829.43,-131.83"/>
<polygon fill="midnightblue" stroke="midnightblue" points="2870.61,-165.38 2880.79,-168.32 2874.66,-159.68 2870.61,-165.38"/>
</g>
<!-- Node69&#45;&gt;Node75 -->
<g id="edge25" class="edge">
<title>Node69&#45;&gt;Node75</title>
<path fill="none" stroke="midnightblue" d="M2829.04,-170.25C2730.36,-159.85 2542.14,-139.99 2444.02,-129.65"/>
<polygon fill="midnightblue" stroke="midnightblue" points="2828.86,-173.75 2839.17,-171.32 2829.6,-166.79 2828.86,-173.75"/>
</g>
<!-- Node70&#45;&gt;Node68 -->
<g id="edge21" class="edge">
<title>Node70&#45;&gt;Node68</title>
<path fill="none" stroke="midnightblue" d="M2888.1,-61.16C2969.91,-51.68 3181.81,-27.13 3275.41,-16.28"/>
<polygon fill="midnightblue" stroke="midnightblue" points="2887.64,-57.69 2878.11,-62.32 2888.45,-64.65 2887.64,-57.69"/>
</g>
<!-- Node70&#45;&gt;Node71 -->
<g id="edge22" class="edge">
<title>Node70&#45;&gt;Node71</title>
<path fill="none" stroke="midnightblue" d="M2821.6,-63.27C2674.77,-55.66 2084.99,-25.1 1882.03,-14.58"/>
<polygon fill="midnightblue" stroke="midnightblue" points="2821.61,-66.77 2831.78,-63.8 2821.97,-59.78 2821.61,-66.77"/>
</g>
<!-- Node73&#45;&gt;Node70 -->
<g id="edge24" class="edge">
<title>Node73&#45;&gt;Node70</title>
<path fill="none" stroke="midnightblue" d="M2829.06,-103.86C2835.64,-94.5 2843.51,-83.33 2848.84,-75.75"/>
<polygon fill="midnightblue" stroke="midnightblue" points="2826.17,-101.89 2823.27,-112.08 2831.89,-105.92 2826.17,-101.89"/>
</g>
<!-- Node76&#45;&gt;Node69 -->
<g id="edge27" class="edge">
<title>Node76&#45;&gt;Node69</title>
<path fill="none" stroke="midnightblue" d="M3166.68,-222.85C3103.01,-212.65 3005.94,-197.1 2946.15,-187.52"/>
<polygon fill="midnightblue" stroke="midnightblue" points="3166.17,-226.32 3176.6,-224.44 3167.28,-219.41 3166.17,-226.32"/>
</g>
<!-- Node76&#45;&gt;Node70 -->
<g id="edge28" class="edge">
<title>Node76&#45;&gt;Node70</title>
<path fill="none" stroke="midnightblue" d="M3201.1,-220.21C3127.83,-187.77 2936.23,-102.96 2874.48,-75.62"/>
<polygon fill="midnightblue" stroke="midnightblue" points="3200.07,-223.58 3210.63,-224.42 3202.9,-217.18 3200.07,-223.58"/>
</g>
<!-- Node83&#45;&gt;Node69 -->
<g id="edge30" class="edge">
<title>Node83&#45;&gt;Node69</title>
<path fill="none" stroke="midnightblue" d="M3037.26,-221.57C3002.74,-211.38 2952.99,-196.7 2921.86,-187.52"/>
<polygon fill="midnightblue" stroke="midnightblue" points="3036.42,-224.97 3047,-224.44 3038.4,-218.26 3036.42,-224.97"/>
</g>
<!-- Node85&#45;&gt;Node47 -->
<g id="edge33" class="edge">
<title>Node85&#45;&gt;Node47</title>
<path fill="none" stroke="midnightblue" d="M584.89,-222.02C543.9,-211.82 483.7,-196.84 446.22,-187.52"/>
<polygon fill="midnightblue" stroke="midnightblue" points="584.07,-225.43 594.62,-224.44 585.76,-218.63 584.07,-225.43"/>
</g>
<!-- Node85&#45;&gt;Node70 -->
<g id="edge32" class="edge">
<title>Node85&#45;&gt;Node70</title>
<path fill="none" stroke="midnightblue" d="M676.81,-222.04C712.4,-213.58 762.04,-201.13 805,-188 830.27,-180.27 835.61,-175.34 861,-168 970.81,-136.27 998.56,-125.98 1112,-112 1466.88,-68.25 2651.19,-66.92 2831.81,-66.98"/>
<polygon fill="midnightblue" stroke="midnightblue" points="675.63,-218.73 666.7,-224.43 677.24,-225.54 675.63,-218.73"/>
</g>
<!-- Node86&#45;&gt;Node50 -->
<g id="edge37" class="edge">
<title>Node86&#45;&gt;Node50</title>
<path fill="none" stroke="midnightblue" d="M771.86,-214.69C767.82,-205.59 763.12,-195.01 759.89,-187.75"/>
<polygon fill="midnightblue" stroke="midnightblue" points="768.78,-216.37 776.04,-224.08 775.17,-213.52 768.78,-216.37"/>
</g>
<!-- Node86&#45;&gt;Node70 -->
<g id="edge36" class="edge">
<title>Node86&#45;&gt;Node70</title>
<path fill="none" stroke="midnightblue" d="M804.4,-219.5C837.45,-201.31 893.55,-170.88 904,-168 1292.25,-60.84 2639.32,-65.58 2831.99,-66.83"/>
<polygon fill="midnightblue" stroke="midnightblue" points="802.42,-216.59 795.35,-224.48 805.8,-222.72 802.42,-216.59"/>
</g>
<!-- Node112&#45;&gt;Node113 -->
<g id="edge57" class="edge">
<title>Node112&#45;&gt;Node113</title>
<path fill="none" stroke="midnightblue" d="M2111.02,-220.77C2136.76,-210.63 2172.69,-196.47 2195.39,-187.52"/>
<polygon fill="midnightblue" stroke="midnightblue" points="2109.73,-217.52 2101.71,-224.44 2112.29,-224.03 2109.73,-217.52"/>
</g>
<!-- Node199&#45;&gt;Node68 -->
<g id="edge66" class="edge">
<title>Node199&#45;&gt;Node68</title>
<path fill="none" stroke="midnightblue" d="M3522.18,-54.28C3474.75,-44.08 3404.3,-28.92 3360.59,-19.52"/>
<polygon fill="midnightblue" stroke="midnightblue" points="3521.72,-57.76 3532.23,-56.44 3523.19,-50.92 3521.72,-57.76"/>
</g>
<!-- Node200&#45;&gt;Node87 -->
<g id="edge71" class="edge">
<title>Node200&#45;&gt;Node87</title>
<path fill="none" stroke="midnightblue" d="M1062.7,-286.25C944.04,-280.7 677.48,-266.7 454,-244 451.01,-243.7 447.94,-243.36 444.85,-243"/>
<polygon fill="midnightblue" stroke="midnightblue" points="1062.54,-289.75 1072.7,-286.72 1062.87,-282.76 1062.54,-289.75"/>
</g>
<!-- Node201&#45;&gt;Node88 -->
<g id="edge73" class="edge">
<title>Node201&#45;&gt;Node88</title>
<path fill="none" stroke="midnightblue" d="M1269.72,-285.55C1244.66,-283.82 1213.71,-281.73 1186,-280 907.86,-262.59 836.91,-275.38 560,-244 557.13,-243.67 554.17,-243.3 551.19,-242.88"/>
<polygon fill="midnightblue" stroke="midnightblue" points="1269.51,-289.04 1279.72,-286.24 1269.99,-282.06 1269.51,-289.04"/>
</g>
<!-- Node202&#45;&gt;Node92 -->
<g id="edge75" class="edge">
<title>Node202&#45;&gt;Node92</title>
<path fill="none" stroke="midnightblue" d="M3358.9,-274.34C3372.91,-264.52 3390.88,-251.91 3402.66,-243.65"/>
<polygon fill="midnightblue" stroke="midnightblue" points="3356.55,-271.72 3350.37,-280.32 3360.57,-277.45 3356.55,-271.72"/>
</g>
</g>
</svg>
