<?xml version="1.0" encoding="UTF-8" standalone="no"?>
<!DOCTYPE svg PUBLIC "-//W3C//DTD SVG 1.1//EN"
 "http://www.w3.org/Graphics/SVG/1.1/DTD/svg11.dtd">
<!-- Generated by graphviz version 2.43.0 (0)
 -->
<!-- Title: actuator_types.H Pages: 1 -->
<svg width="1585pt" height="420pt"
 viewBox="0.00 0.00 1585.33 420.00" xmlns="http://www.w3.org/2000/svg" xmlns:xlink="http://www.w3.org/1999/xlink">
<g id="graph0" class="graph" transform="scale(1 1) rotate(0) translate(4 416)">
<title>actuator_types.H</title>
<polygon fill="white" stroke="transparent" points="-4,4 -4,-416 1581.33,-416 1581.33,4 -4,4"/>
<!-- Node1 -->
<g id="node1" class="node">
<title>Node1</title>
<g id="a_node1"><a xlink:title=" ">
<polygon fill="#bfbfbf" stroke="black" points="814.33,-392.5 814.33,-411.5 914.33,-411.5 914.33,-392.5 814.33,-392.5"/>
<text text-anchor="middle" x="864.33" y="-399.5" font-family="Helvetica,sans-Serif" font-size="10.00">actuator_types.H</text>
</a>
</g>
</g>
<!-- Node2 -->
<g id="node2" class="node">
<title>Node2</title>
<g id="a_node2"><a xlink:href="_act_src_line_op_8_h.html" target="_top" xlink:title=" ">
<polygon fill="white" stroke="black" points="450.33,-112.5 450.33,-131.5 542.33,-131.5 542.33,-112.5 450.33,-112.5"/>
<text text-anchor="middle" x="496.33" y="-119.5" font-family="Helvetica,sans-Serif" font-size="10.00">ActSrcLineOp.H</text>
</a>
</g>
</g>
<!-- Node1&#45;&gt;Node2 -->
<g id="edge1" class="edge">
<title>Node1&#45;&gt;Node2</title>
<path fill="none" stroke="midnightblue" d="M803.96,-393.62C707.98,-380.19 531.33,-347.76 531.33,-291 531.33,-291 531.33,-291 531.33,-233 531.33,-193.52 510.6,-149.66 501.05,-131.54"/>
<polygon fill="midnightblue" stroke="midnightblue" points="803.73,-397.13 814.11,-395.02 804.68,-390.19 803.73,-397.13"/>
</g>
<!-- Node3 -->
<g id="node3" class="node">
<title>Node3</title>
<g id="a_node3"><a xlink:href="_actuator_model_8_h.html" target="_top" xlink:title=" ">
<polygon fill="white" stroke="black" points="521.33,-56.5 521.33,-75.5 619.33,-75.5 619.33,-56.5 521.33,-56.5"/>
<text text-anchor="middle" x="570.33" y="-63.5" font-family="Helvetica,sans-Serif" font-size="10.00">ActuatorModel.H</text>
</a>
</g>
</g>
<!-- Node1&#45;&gt;Node3 -->
<g id="edge34" class="edge">
<title>Node1&#45;&gt;Node3</title>
<path fill="none" stroke="midnightblue" d="M803.84,-398.53C682.8,-391.93 422.33,-368.7 422.33,-291 422.33,-291 422.33,-291 422.33,-177 422.33,-146.9 420.6,-133.82 441.33,-112 462.16,-90.07 494.24,-78.83 521.19,-73.06"/>
<polygon fill="midnightblue" stroke="midnightblue" points="803.89,-402.04 814.06,-399.06 804.25,-395.05 803.89,-402.04"/>
</g>
<!-- Node9 -->
<g id="node9" class="node">
<title>Node9</title>
<g id="a_node9"><a xlink:href="actuator__ops_8_h.html" target="_top" xlink:title=" ">
<polygon fill="white" stroke="black" points="594.33,-168.5 594.33,-187.5 684.33,-187.5 684.33,-168.5 594.33,-168.5"/>
<text text-anchor="middle" x="639.33" y="-175.5" font-family="Helvetica,sans-Serif" font-size="10.00">actuator_ops.H</text>
</a>
</g>
</g>
<!-- Node1&#45;&gt;Node9 -->
<g id="edge8" class="edge">
<title>Node1&#45;&gt;Node9</title>
<path fill="none" stroke="midnightblue" d="M848.21,-385.1C804.11,-341.59 682.46,-221.55 648.33,-187.88"/>
<polygon fill="midnightblue" stroke="midnightblue" points="845.93,-387.77 855.51,-392.3 850.85,-382.78 845.93,-387.77"/>
</g>
<!-- Node20 -->
<g id="node20" class="node">
<title>Node20</title>
<g id="a_node20"><a xlink:href="wing__ops_8_h.html" target="_top" xlink:title=" ">
<polygon fill="white" stroke="black" points="1106.83,-112.5 1106.83,-131.5 1179.83,-131.5 1179.83,-112.5 1106.83,-112.5"/>
<text text-anchor="middle" x="1143.33" y="-119.5" font-family="Helvetica,sans-Serif" font-size="10.00">wing_ops.H</text>
</a>
</g>
</g>
<!-- Node1&#45;&gt;Node20 -->
<g id="edge80" class="edge">
<title>Node1&#45;&gt;Node20</title>
<path fill="none" stroke="midnightblue" d="M924.56,-390.73C1009.53,-374.5 1154.33,-339.7 1154.33,-291 1154.33,-291 1154.33,-291 1154.33,-233 1154.33,-195 1147.75,-149.98 1144.77,-131.53"/>
<polygon fill="midnightblue" stroke="midnightblue" points="923.69,-387.33 914.51,-392.61 924.99,-394.21 923.69,-387.33"/>
</g>
<!-- Node23 -->
<g id="node23" class="node">
<title>Node23</title>
<g id="a_node23"><a xlink:href="turbine__types_8_h.html" target="_top" xlink:title=" ">
<polygon fill="white" stroke="black" points="737.33,-224.5 737.33,-243.5 831.33,-243.5 831.33,-224.5 737.33,-224.5"/>
<text text-anchor="middle" x="784.33" y="-231.5" font-family="Helvetica,sans-Serif" font-size="10.00">turbine_types.H</text>
</a>
</g>
</g>
<!-- Node1&#45;&gt;Node23 -->
<g id="edge35" class="edge">
<title>Node1&#45;&gt;Node23</title>
<path fill="none" stroke="midnightblue" d="M855.58,-382.86C838.43,-347.25 800.93,-269.45 788.46,-243.57"/>
<polygon fill="midnightblue" stroke="midnightblue" points="852.53,-384.59 860.03,-392.08 858.84,-381.55 852.53,-384.59"/>
</g>
<!-- Node27 -->
<g id="node27" class="node">
<title>Node27</title>
<g id="a_node27"><a xlink:href="disk__types_8_h.html" target="_top" xlink:title=" ">
<polygon fill="white" stroke="black" points="259.33,-336.5 259.33,-355.5 339.33,-355.5 339.33,-336.5 259.33,-336.5"/>
<text text-anchor="middle" x="299.33" y="-343.5" font-family="Helvetica,sans-Serif" font-size="10.00">disk_types.H</text>
</a>
</g>
</g>
<!-- Node1&#45;&gt;Node27 -->
<g id="edge43" class="edge">
<title>Node1&#45;&gt;Node27</title>
<path fill="none" stroke="midnightblue" d="M804.08,-395.24C688.32,-384.18 437.6,-360.22 339.67,-350.86"/>
<polygon fill="midnightblue" stroke="midnightblue" points="803.9,-398.74 814.19,-396.21 804.57,-391.77 803.9,-398.74"/>
</g>
<!-- Node32 -->
<g id="node32" class="node">
<title>Node32</title>
<g id="a_node32"><a xlink:href="actuator__utils_8cpp.html" target="_top" xlink:title=" ">
<polygon fill="white" stroke="black" points="892.33,-336.5 892.33,-355.5 996.33,-355.5 996.33,-336.5 892.33,-336.5"/>
<text text-anchor="middle" x="944.33" y="-343.5" font-family="Helvetica,sans-Serif" font-size="10.00">actuator_utils.cpp</text>
</a>
</g>
</g>
<!-- Node1&#45;&gt;Node32 -->
<g id="edge57" class="edge">
<title>Node1&#45;&gt;Node32</title>
<path fill="none" stroke="midnightblue" d="M885.63,-386.62C900.24,-376.76 919.16,-363.99 931.51,-355.65"/>
<polygon fill="midnightblue" stroke="midnightblue" points="883.51,-383.83 877.18,-392.32 887.43,-389.63 883.51,-383.83"/>
</g>
<!-- Node33 -->
<g id="node33" class="node">
<title>Node33</title>
<g id="a_node33"><a xlink:href="_airfoil_table_8_h.html" target="_top" xlink:title=" ">
<polygon fill="white" stroke="black" points="1294.33,-168.5 1294.33,-187.5 1376.33,-187.5 1376.33,-168.5 1294.33,-168.5"/>
<text text-anchor="middle" x="1335.33" y="-175.5" font-family="Helvetica,sans-Serif" font-size="10.00">AirfoilTable.H</text>
</a>
</g>
</g>
<!-- Node1&#45;&gt;Node33 -->
<g id="edge58" class="edge">
<title>Node1&#45;&gt;Node33</title>
<path fill="none" stroke="midnightblue" d="M924.47,-397.93C1005.86,-392.89 1146,-380.84 1190.33,-356 1265.18,-314.05 1316.95,-216.88 1331.3,-187.54"/>
<polygon fill="midnightblue" stroke="midnightblue" points="924.14,-394.44 914.36,-398.54 924.56,-401.43 924.14,-394.44"/>
</g>
<!-- Node38 -->
<g id="node38" class="node">
<title>Node38</title>
<g id="a_node38"><a xlink:href="_f_l_l_c_8_h.html" target="_top" xlink:title=" ">
<polygon fill="white" stroke="black" points="1030.33,-224.5 1030.33,-243.5 1080.33,-243.5 1080.33,-224.5 1030.33,-224.5"/>
<text text-anchor="middle" x="1055.33" y="-231.5" font-family="Helvetica,sans-Serif" font-size="10.00">FLLC.H</text>
</a>
</g>
</g>
<!-- Node1&#45;&gt;Node38 -->
<g id="edge69" class="edge">
<title>Node1&#45;&gt;Node38</title>
<path fill="none" stroke="midnightblue" d="M924.56,-393.56C952.03,-387.45 983.27,-376.3 1005.33,-356 1039.61,-324.45 1051.05,-265.84 1054.25,-243.74"/>
<polygon fill="midnightblue" stroke="midnightblue" points="923.73,-390.16 914.63,-395.6 925.13,-397.02 923.73,-390.16"/>
</g>
<!-- Node40 -->
<g id="node40" class="node">
<title>Node40</title>
<g id="a_node40"><a xlink:href="_f_l_l_c_op_8_h.html" target="_top" xlink:title=" ">
<polygon fill="white" stroke="black" points="946.33,-168.5 946.33,-187.5 1010.33,-187.5 1010.33,-168.5 946.33,-168.5"/>
<text text-anchor="middle" x="978.33" y="-175.5" font-family="Helvetica,sans-Serif" font-size="10.00">FLLCOp.H</text>
</a>
</g>
</g>
<!-- Node1&#45;&gt;Node40 -->
<g id="edge75" class="edge">
<title>Node1&#45;&gt;Node40</title>
<path fill="none" stroke="midnightblue" d="M868.37,-382.52C871.6,-369.26 876.67,-351.13 883.33,-336 909.75,-275.92 955.16,-210.87 971.9,-187.75"/>
<polygon fill="midnightblue" stroke="midnightblue" points="864.94,-381.81 866.11,-392.34 871.76,-383.38 864.94,-381.81"/>
</g>
<!-- Node41 -->
<g id="node41" class="node">
<title>Node41</title>
<g id="a_node41"><a xlink:href="_actuator_wing_8_h.html" target="_top" xlink:title=" ">
<polygon fill="white" stroke="black" points="1182.83,-168.5 1182.83,-187.5 1275.83,-187.5 1275.83,-168.5 1182.83,-168.5"/>
<text text-anchor="middle" x="1229.33" y="-175.5" font-family="Helvetica,sans-Serif" font-size="10.00">ActuatorWing.H</text>
</a>
</g>
</g>
<!-- Node1&#45;&gt;Node41 -->
<g id="edge76" class="edge">
<title>Node1&#45;&gt;Node41</title>
<path fill="none" stroke="midnightblue" d="M924.76,-399.33C1002.63,-395.97 1132.28,-385.93 1168.33,-356 1222.09,-311.36 1228.58,-216.86 1229.27,-187.73"/>
<polygon fill="midnightblue" stroke="midnightblue" points="924.45,-395.84 914.6,-399.74 924.74,-402.83 924.45,-395.84"/>
</g>
<!-- Node2&#45;&gt;Node3 -->
<g id="edge2" class="edge">
<title>Node2&#45;&gt;Node3</title>
<path fill="none" stroke="midnightblue" d="M516.36,-106.38C529.74,-96.62 546.89,-84.11 558.22,-75.83"/>
<polygon fill="midnightblue" stroke="midnightblue" points="514.23,-103.6 508.22,-112.32 518.36,-109.26 514.23,-103.6"/>
</g>
<!-- Node4 -->
<g id="node4" class="node">
<title>Node4</title>
<g id="a_node4"><a xlink:href="_actuator_8cpp.html" target="_top" xlink:title=" ">
<polygon fill="white" stroke="black" points="531.83,-0.5 531.83,-19.5 608.83,-19.5 608.83,-0.5 531.83,-0.5"/>
<text text-anchor="middle" x="570.33" y="-7.5" font-family="Helvetica,sans-Serif" font-size="10.00">Actuator.cpp</text>
</a>
</g>
</g>
<!-- Node3&#45;&gt;Node4 -->
<g id="edge3" class="edge">
<title>Node3&#45;&gt;Node4</title>
<path fill="none" stroke="midnightblue" d="M570.33,-45.8C570.33,-36.91 570.33,-26.78 570.33,-19.75"/>
<polygon fill="midnightblue" stroke="midnightblue" points="566.83,-46.08 570.33,-56.08 573.83,-46.08 566.83,-46.08"/>
</g>
<!-- Node5 -->
<g id="node5" class="node">
<title>Node5</title>
<g id="a_node5"><a xlink:href="_actuator_disk_8cpp.html" target="_top" xlink:title=" ">
<polygon fill="white" stroke="black" points="25.33,-0.5 25.33,-19.5 125.33,-19.5 125.33,-0.5 25.33,-0.5"/>
<text text-anchor="middle" x="75.33" y="-7.5" font-family="Helvetica,sans-Serif" font-size="10.00">ActuatorDisk.cpp</text>
</a>
</g>
</g>
<!-- Node3&#45;&gt;Node5 -->
<g id="edge4" class="edge">
<title>Node3&#45;&gt;Node5</title>
<path fill="none" stroke="midnightblue" d="M511.2,-59.11C429.23,-50.85 276.42,-35.15 146.33,-20 139.54,-19.21 132.39,-18.34 125.35,-17.47"/>
<polygon fill="midnightblue" stroke="midnightblue" points="511.03,-62.61 521.33,-60.13 511.73,-55.64 511.03,-62.61"/>
</g>
<!-- Node6 -->
<g id="node6" class="node">
<title>Node6</title>
<g id="a_node6"><a xlink:href="_turbine_fast_8cpp.html" target="_top" xlink:title=" ">
<polygon fill="white" stroke="black" points="790.33,-0.5 790.33,-19.5 882.33,-19.5 882.33,-0.5 790.33,-0.5"/>
<text text-anchor="middle" x="836.33" y="-7.5" font-family="Helvetica,sans-Serif" font-size="10.00">TurbineFast.cpp</text>
</a>
</g>
</g>
<!-- Node3&#45;&gt;Node6 -->
<g id="edge5" class="edge">
<title>Node3&#45;&gt;Node6</title>
<path fill="none" stroke="midnightblue" d="M622.5,-54.41C672.77,-44.2 747.86,-28.96 794.38,-19.52"/>
<polygon fill="midnightblue" stroke="midnightblue" points="621.58,-51.02 612.48,-56.44 622.97,-57.88 621.58,-51.02"/>
</g>
<!-- Node7 -->
<g id="node7" class="node">
<title>Node7</title>
<g id="a_node7"><a xlink:href="_fixed_wing_8cpp.html" target="_top" xlink:title=" ">
<polygon fill="white" stroke="black" points="909.83,-0.5 909.83,-19.5 996.83,-19.5 996.83,-0.5 909.83,-0.5"/>
<text text-anchor="middle" x="953.33" y="-7.5" font-family="Helvetica,sans-Serif" font-size="10.00">FixedWing.cpp</text>
</a>
</g>
</g>
<!-- Node3&#45;&gt;Node7 -->
<g id="edge6" class="edge">
<title>Node3&#45;&gt;Node7</title>
<path fill="none" stroke="midnightblue" d="M629.53,-56.79C693.95,-47.83 799.98,-33.03 891.33,-20 897.25,-19.16 903.49,-18.26 909.64,-17.37"/>
<polygon fill="midnightblue" stroke="midnightblue" points="628.98,-53.33 619.56,-58.17 629.94,-60.26 628.98,-53.33"/>
</g>
<!-- Node8 -->
<g id="node8" class="node">
<title>Node8</title>
<g id="a_node8"><a xlink:href="_flat_plate_8cpp.html" target="_top" xlink:title=" ">
<polygon fill="white" stroke="black" points="1029.33,-0.5 1029.33,-19.5 1109.33,-19.5 1109.33,-0.5 1029.33,-0.5"/>
<text text-anchor="middle" x="1069.33" y="-7.5" font-family="Helvetica,sans-Serif" font-size="10.00">FlatPlate.cpp</text>
</a>
</g>
</g>
<!-- Node3&#45;&gt;Node8 -->
<g id="edge7" class="edge">
<title>Node3&#45;&gt;Node8</title>
<path fill="none" stroke="midnightblue" d="M629.55,-59.63C713.49,-51.84 871.83,-36.54 1006.33,-20 1013.68,-19.1 1021.49,-18.05 1029.03,-17"/>
<polygon fill="midnightblue" stroke="midnightblue" points="629.07,-56.16 619.44,-60.56 629.72,-63.13 629.07,-56.16"/>
</g>
<!-- Node9&#45;&gt;Node2 -->
<g id="edge9" class="edge">
<title>Node9&#45;&gt;Node2</title>
<path fill="none" stroke="midnightblue" d="M607.3,-164.91C580.42,-154.75 542.69,-140.51 518.88,-131.52"/>
<polygon fill="midnightblue" stroke="midnightblue" points="606.08,-168.19 616.67,-168.44 608.55,-161.64 606.08,-168.19"/>
</g>
<!-- Node9&#45;&gt;Node3 -->
<g id="edge10" class="edge">
<title>Node9&#45;&gt;Node3</title>
<path fill="none" stroke="midnightblue" d="M617.69,-161.95C607.78,-154.06 596.63,-143.62 589.33,-132 577.94,-113.88 573.14,-88.67 571.32,-75.61"/>
<polygon fill="midnightblue" stroke="midnightblue" points="615.87,-164.96 625.95,-168.19 620.08,-159.38 615.87,-164.96"/>
</g>
<!-- Node10 -->
<g id="node10" class="node">
<title>Node10</title>
<g id="a_node10"><a xlink:href="_act_src_disk_op___turbine_8_h.html" target="_top" xlink:title=" ">
<polygon fill="white" stroke="black" points="598.33,-112.5 598.33,-131.5 732.33,-131.5 732.33,-112.5 598.33,-112.5"/>
<text text-anchor="middle" x="665.33" y="-119.5" font-family="Helvetica,sans-Serif" font-size="10.00">ActSrcDiskOp_Turbine.H</text>
</a>
</g>
</g>
<!-- Node9&#45;&gt;Node10 -->
<g id="edge11" class="edge">
<title>Node9&#45;&gt;Node10</title>
<path fill="none" stroke="midnightblue" d="M648,-158.98C652.42,-149.82 657.58,-139.09 661.11,-131.75"/>
<polygon fill="midnightblue" stroke="midnightblue" points="644.81,-157.55 643.62,-168.08 651.11,-160.59 644.81,-157.55"/>
</g>
<!-- Node11 -->
<g id="node11" class="node">
<title>Node11</title>
<g id="a_node11"><a xlink:href="_act_src_disk_op_8_h.html" target="_top" xlink:title=" ">
<polygon fill="white" stroke="black" points="300.83,-112.5 300.83,-131.5 393.83,-131.5 393.83,-112.5 300.83,-112.5"/>
<text text-anchor="middle" x="347.33" y="-119.5" font-family="Helvetica,sans-Serif" font-size="10.00">ActSrcDiskOp.H</text>
</a>
</g>
</g>
<!-- Node9&#45;&gt;Node11 -->
<g id="edge13" class="edge">
<title>Node9&#45;&gt;Node11</title>
<path fill="none" stroke="midnightblue" d="M584.09,-166.78C529.03,-156.6 445.42,-141.14 393.7,-131.58"/>
<polygon fill="midnightblue" stroke="midnightblue" points="583.55,-170.24 594.02,-168.62 584.83,-163.36 583.55,-170.24"/>
</g>
<!-- Node12 -->
<g id="node12" class="node">
<title>Node12</title>
<g id="a_node12"><a xlink:href="disk__ops_8_h.html" target="_top" xlink:title=" ">
<polygon fill="white" stroke="black" points="212.33,-112.5 212.33,-131.5 282.33,-131.5 282.33,-112.5 212.33,-112.5"/>
<text text-anchor="middle" x="247.33" y="-119.5" font-family="Helvetica,sans-Serif" font-size="10.00">disk_ops.H</text>
</a>
</g>
</g>
<!-- Node9&#45;&gt;Node12 -->
<g id="edge15" class="edge">
<title>Node9&#45;&gt;Node12</title>
<path fill="none" stroke="midnightblue" d="M583.95,-171.1C515.13,-163.49 394.21,-149.15 291.33,-132 288.41,-131.51 285.38,-130.97 282.35,-130.4"/>
<polygon fill="midnightblue" stroke="midnightblue" points="583.8,-174.61 594.13,-172.22 584.57,-167.65 583.8,-174.61"/>
</g>
<!-- Node18 -->
<g id="node18" class="node">
<title>Node18</title>
<g id="a_node18"><a xlink:href="turbine__fast__ops_8_h.html" target="_top" xlink:title=" ">
<polygon fill="white" stroke="black" points="864.33,-112.5 864.33,-131.5 972.33,-131.5 972.33,-112.5 864.33,-112.5"/>
<text text-anchor="middle" x="918.33" y="-119.5" font-family="Helvetica,sans-Serif" font-size="10.00">turbine_fast_ops.H</text>
</a>
</g>
</g>
<!-- Node9&#45;&gt;Node18 -->
<g id="edge24" class="edge">
<title>Node9&#45;&gt;Node18</title>
<path fill="none" stroke="midnightblue" d="M693.39,-166.54C746.12,-156.33 825.33,-141 874.33,-131.52"/>
<polygon fill="midnightblue" stroke="midnightblue" points="692.69,-163.11 683.54,-168.44 694.02,-169.98 692.69,-163.11"/>
</g>
<!-- Node19 -->
<g id="node19" class="node">
<title>Node19</title>
<g id="a_node19"><a xlink:href="fixed__wing__ops_8_h.html" target="_top" xlink:title=" ">
<polygon fill="white" stroke="black" points="902.83,-56.5 902.83,-75.5 1003.83,-75.5 1003.83,-56.5 902.83,-56.5"/>
<text text-anchor="middle" x="953.33" y="-63.5" font-family="Helvetica,sans-Serif" font-size="10.00">fixed_wing_ops.H</text>
</a>
</g>
</g>
<!-- Node9&#45;&gt;Node19 -->
<g id="edge26" class="edge">
<title>Node9&#45;&gt;Node19</title>
<path fill="none" stroke="midnightblue" d="M668.32,-164.39C688.77,-155.45 716.78,-143.12 741.33,-132 760.53,-123.3 764.51,-119.18 784.33,-112 827.57,-96.32 878.82,-83.44 913.46,-75.54"/>
<polygon fill="midnightblue" stroke="midnightblue" points="666.7,-161.28 658.93,-168.49 669.5,-167.7 666.7,-161.28"/>
</g>
<!-- Node9&#45;&gt;Node20 -->
<g id="edge28" class="edge">
<title>Node9&#45;&gt;Node20</title>
<path fill="none" stroke="midnightblue" d="M694.83,-171.56C816.24,-159.67 1094.86,-132.36 1097.33,-132 1100.39,-131.55 1103.55,-131.04 1106.72,-130.49"/>
<polygon fill="midnightblue" stroke="midnightblue" points="694.24,-168.11 684.63,-172.56 694.92,-175.07 694.24,-168.11"/>
</g>
<!-- Node21 -->
<g id="node21" class="node">
<title>Node21</title>
<g id="a_node21"><a xlink:href="flat__plate__ops_8_h.html" target="_top" xlink:title=" ">
<polygon fill="white" stroke="black" points="1021.83,-56.5 1021.83,-75.5 1116.83,-75.5 1116.83,-56.5 1021.83,-56.5"/>
<text text-anchor="middle" x="1069.33" y="-63.5" font-family="Helvetica,sans-Serif" font-size="10.00">flat_plate_ops.H</text>
</a>
</g>
</g>
<!-- Node9&#45;&gt;Node21 -->
<g id="edge33" class="edge">
<title>Node9&#45;&gt;Node21</title>
<path fill="none" stroke="midnightblue" d="M674.68,-165.35C717.24,-151.56 791.04,-128.4 855.33,-112 912.72,-97.36 979.63,-83.85 1023.15,-75.53"/>
<polygon fill="midnightblue" stroke="midnightblue" points="673.49,-162.06 665.06,-168.48 675.66,-168.71 673.49,-162.06"/>
</g>
<!-- Node10&#45;&gt;Node3 -->
<g id="edge12" class="edge">
<title>Node10&#45;&gt;Node3</title>
<path fill="none" stroke="midnightblue" d="M641.01,-107.18C623.53,-97.24 600.5,-84.15 585.55,-75.65"/>
<polygon fill="midnightblue" stroke="midnightblue" points="639.64,-110.43 650.06,-112.32 643.1,-104.34 639.64,-110.43"/>
</g>
<!-- Node11&#45;&gt;Node3 -->
<g id="edge14" class="edge">
<title>Node11&#45;&gt;Node3</title>
<path fill="none" stroke="midnightblue" d="M392.39,-110.09C434.52,-99.89 496.57,-84.86 535.16,-75.52"/>
<polygon fill="midnightblue" stroke="midnightblue" points="391.56,-106.69 382.66,-112.44 393.21,-113.49 391.56,-106.69"/>
</g>
<!-- Node13 -->
<g id="node13" class="node">
<title>Node13</title>
<g id="a_node13"><a xlink:href="uniform__ct__ops_8_h.html" target="_top" xlink:title=" ">
<polygon fill="white" stroke="black" points="210.33,-56.5 210.33,-75.5 312.33,-75.5 312.33,-56.5 210.33,-56.5"/>
<text text-anchor="middle" x="261.33" y="-63.5" font-family="Helvetica,sans-Serif" font-size="10.00">uniform_ct_ops.H</text>
</a>
</g>
</g>
<!-- Node12&#45;&gt;Node13 -->
<g id="edge16" class="edge">
<title>Node12&#45;&gt;Node13</title>
<path fill="none" stroke="midnightblue" d="M252.15,-102.4C254.49,-93.36 257.2,-82.94 259.06,-75.75"/>
<polygon fill="midnightblue" stroke="midnightblue" points="248.76,-101.52 249.64,-112.08 255.54,-103.28 248.76,-101.52"/>
</g>
<!-- Node15 -->
<g id="node15" class="node">
<title>Node15</title>
<g id="a_node15"><a xlink:href="_joukowsky__ops_8_h.html" target="_top" xlink:title=" ">
<polygon fill="white" stroke="black" points="90.83,-56.5 90.83,-75.5 191.83,-75.5 191.83,-56.5 90.83,-56.5"/>
<text text-anchor="middle" x="141.33" y="-63.5" font-family="Helvetica,sans-Serif" font-size="10.00">Joukowsky_ops.H</text>
</a>
</g>
</g>
<!-- Node12&#45;&gt;Node15 -->
<g id="edge19" class="edge">
<title>Node12&#45;&gt;Node15</title>
<path fill="none" stroke="midnightblue" d="M221.27,-107.73C201.64,-97.73 175.3,-84.31 158.32,-75.65"/>
<polygon fill="midnightblue" stroke="midnightblue" points="219.8,-110.9 230.3,-112.32 222.98,-104.67 219.8,-110.9"/>
</g>
<!-- Node16 -->
<g id="node16" class="node">
<title>Node16</title>
<g id="a_node16"><a xlink:href="_joukowsky__ops_8cpp.html" target="_top" xlink:title=" ">
<polygon fill="white" stroke="black" points="285.33,-0.5 285.33,-19.5 395.33,-19.5 395.33,-0.5 285.33,-0.5"/>
<text text-anchor="middle" x="340.33" y="-7.5" font-family="Helvetica,sans-Serif" font-size="10.00">Joukowsky_ops.cpp</text>
</a>
</g>
</g>
<!-- Node12&#45;&gt;Node16 -->
<g id="edge23" class="edge">
<title>Node12&#45;&gt;Node16</title>
<path fill="none" stroke="midnightblue" d="M279.5,-108.01C294.16,-100.61 310.59,-89.99 321.33,-76 334.35,-59.02 338.46,-33.33 339.75,-19.9"/>
<polygon fill="midnightblue" stroke="midnightblue" points="277.75,-104.97 270.2,-112.41 280.74,-111.3 277.75,-104.97"/>
</g>
<!-- Node17 -->
<g id="node17" class="node">
<title>Node17</title>
<g id="a_node17"><a xlink:href="disk__ops_8cpp.html" target="_top" xlink:title=" ">
<polygon fill="white" stroke="black" points="368.33,-56.5 368.33,-75.5 448.33,-75.5 448.33,-56.5 368.33,-56.5"/>
<text text-anchor="middle" x="408.33" y="-63.5" font-family="Helvetica,sans-Serif" font-size="10.00">disk_ops.cpp</text>
</a>
</g>
</g>
<!-- Node12&#45;&gt;Node17 -->
<g id="edge22" class="edge">
<title>Node12&#45;&gt;Node17</title>
<path fill="none" stroke="midnightblue" d="M282.59,-109.17C312.91,-99 355.9,-84.59 382.94,-75.52"/>
<polygon fill="midnightblue" stroke="midnightblue" points="281.21,-105.95 272.84,-112.44 283.43,-112.58 281.21,-105.95"/>
</g>
<!-- Node13&#45;&gt;Node5 -->
<g id="edge17" class="edge">
<title>Node13&#45;&gt;Node5</title>
<path fill="none" stroke="midnightblue" d="M221.95,-53.57C186.86,-43.38 136.31,-28.7 104.66,-19.52"/>
<polygon fill="midnightblue" stroke="midnightblue" points="221.28,-57.02 231.86,-56.44 223.23,-50.29 221.28,-57.02"/>
</g>
<!-- Node14 -->
<g id="node14" class="node">
<title>Node14</title>
<g id="a_node14"><a xlink:href="uniform__ct__ops_8cpp.html" target="_top" xlink:title=" ">
<polygon fill="white" stroke="black" points="155.33,-0.5 155.33,-19.5 267.33,-19.5 267.33,-0.5 155.33,-0.5"/>
<text text-anchor="middle" x="211.33" y="-7.5" font-family="Helvetica,sans-Serif" font-size="10.00">uniform_ct_ops.cpp</text>
</a>
</g>
</g>
<!-- Node13&#45;&gt;Node14 -->
<g id="edge18" class="edge">
<title>Node13&#45;&gt;Node14</title>
<path fill="none" stroke="midnightblue" d="M246.25,-48.72C237.44,-39.2 226.66,-27.56 219.43,-19.75"/>
<polygon fill="midnightblue" stroke="midnightblue" points="243.71,-51.12 253.07,-56.08 248.85,-46.37 243.71,-51.12"/>
</g>
<!-- Node15&#45;&gt;Node5 -->
<g id="edge20" class="edge">
<title>Node15&#45;&gt;Node5</title>
<path fill="none" stroke="midnightblue" d="M122.77,-49.82C110.95,-40.15 96.04,-27.95 86.13,-19.83"/>
<polygon fill="midnightblue" stroke="midnightblue" points="120.77,-52.7 130.72,-56.32 125.2,-47.28 120.77,-52.7"/>
</g>
<!-- Node15&#45;&gt;Node16 -->
<g id="edge21" class="edge">
<title>Node15&#45;&gt;Node16</title>
<path fill="none" stroke="midnightblue" d="M182.98,-53.7C220.53,-43.51 274.94,-28.74 308.94,-19.52"/>
<polygon fill="midnightblue" stroke="midnightblue" points="181.59,-50.45 172.86,-56.44 183.43,-57.2 181.59,-50.45"/>
</g>
<!-- Node18&#45;&gt;Node6 -->
<g id="edge25" class="edge">
<title>Node18&#45;&gt;Node6</title>
<path fill="none" stroke="midnightblue" d="M905.86,-104.27C888.13,-80.49 856.3,-37.79 842.73,-19.59"/>
<polygon fill="midnightblue" stroke="midnightblue" points="903.11,-106.44 911.89,-112.37 908.72,-102.26 903.11,-106.44"/>
</g>
<!-- Node19&#45;&gt;Node7 -->
<g id="edge27" class="edge">
<title>Node19&#45;&gt;Node7</title>
<path fill="none" stroke="midnightblue" d="M953.33,-45.8C953.33,-36.91 953.33,-26.78 953.33,-19.75"/>
<polygon fill="midnightblue" stroke="midnightblue" points="949.83,-46.08 953.33,-56.08 956.83,-46.08 949.83,-46.08"/>
</g>
<!-- Node20&#45;&gt;Node19 -->
<g id="edge29" class="edge">
<title>Node20&#45;&gt;Node19</title>
<path fill="none" stroke="midnightblue" d="M1103.56,-109.7C1067.7,-99.51 1015.76,-84.74 983.29,-75.52"/>
<polygon fill="midnightblue" stroke="midnightblue" points="1102.65,-113.08 1113.22,-112.44 1104.56,-106.34 1102.65,-113.08"/>
</g>
<!-- Node20&#45;&gt;Node21 -->
<g id="edge30" class="edge">
<title>Node20&#45;&gt;Node21</title>
<path fill="none" stroke="midnightblue" d="M1123.29,-106.38C1109.92,-96.62 1092.77,-84.11 1081.43,-75.83"/>
<polygon fill="midnightblue" stroke="midnightblue" points="1121.3,-109.26 1131.44,-112.32 1125.42,-103.6 1121.3,-109.26"/>
</g>
<!-- Node22 -->
<g id="node22" class="node">
<title>Node22</title>
<g id="a_node22"><a xlink:href="wing__ops_8cpp.html" target="_top" xlink:title=" ">
<polygon fill="white" stroke="black" points="1134.83,-56.5 1134.83,-75.5 1217.83,-75.5 1217.83,-56.5 1134.83,-56.5"/>
<text text-anchor="middle" x="1176.33" y="-63.5" font-family="Helvetica,sans-Serif" font-size="10.00">wing_ops.cpp</text>
</a>
</g>
</g>
<!-- Node20&#45;&gt;Node22 -->
<g id="edge32" class="edge">
<title>Node20&#45;&gt;Node22</title>
<path fill="none" stroke="midnightblue" d="M1154.16,-103.27C1159.8,-94.05 1166.45,-83.17 1170.98,-75.75"/>
<polygon fill="midnightblue" stroke="midnightblue" points="1151.01,-101.73 1148.78,-112.08 1156.98,-105.38 1151.01,-101.73"/>
</g>
<!-- Node21&#45;&gt;Node8 -->
<g id="edge31" class="edge">
<title>Node21&#45;&gt;Node8</title>
<path fill="none" stroke="midnightblue" d="M1069.33,-45.8C1069.33,-36.91 1069.33,-26.78 1069.33,-19.75"/>
<polygon fill="midnightblue" stroke="midnightblue" points="1065.83,-46.08 1069.33,-56.08 1072.83,-46.08 1065.83,-46.08"/>
</g>
<!-- Node23&#45;&gt;Node10 -->
<g id="edge36" class="edge">
<title>Node23&#45;&gt;Node10</title>
<path fill="none" stroke="midnightblue" d="M765.64,-217.71C755.36,-209.15 742.46,-198.18 731.33,-188 709.97,-168.46 686.02,-144.26 673.68,-131.62"/>
<polygon fill="midnightblue" stroke="midnightblue" points="763.63,-220.59 773.57,-224.26 768.09,-215.19 763.63,-220.59"/>
</g>
<!-- Node24 -->
<g id="node24" class="node">
<title>Node24</title>
<g id="a_node24"><a xlink:href="_turbine_fast_8_h.html" target="_top" xlink:title=" ">
<polygon fill="white" stroke="black" points="740.33,-168.5 740.33,-187.5 822.33,-187.5 822.33,-168.5 740.33,-168.5"/>
<text text-anchor="middle" x="781.33" y="-175.5" font-family="Helvetica,sans-Serif" font-size="10.00">TurbineFast.H</text>
</a>
</g>
</g>
<!-- Node23&#45;&gt;Node24 -->
<g id="edge37" class="edge">
<title>Node23&#45;&gt;Node24</title>
<path fill="none" stroke="midnightblue" d="M783.26,-213.8C782.77,-204.91 782.2,-194.78 781.81,-187.75"/>
<polygon fill="midnightblue" stroke="midnightblue" points="779.78,-214.29 783.83,-224.08 786.77,-213.9 779.78,-214.29"/>
</g>
<!-- Node25 -->
<g id="node25" class="node">
<title>Node25</title>
<g id="a_node25"><a xlink:href="turbine__utils_8_h.html" target="_top" xlink:title=" ">
<polygon fill="white" stroke="black" points="840.33,-168.5 840.33,-187.5 928.33,-187.5 928.33,-168.5 840.33,-168.5"/>
<text text-anchor="middle" x="884.33" y="-175.5" font-family="Helvetica,sans-Serif" font-size="10.00">turbine_utils.H</text>
</a>
</g>
</g>
<!-- Node23&#45;&gt;Node25 -->
<g id="edge40" class="edge">
<title>Node23&#45;&gt;Node25</title>
<path fill="none" stroke="midnightblue" d="M809.42,-219.45C827.88,-209.48 852.42,-196.23 868.3,-187.65"/>
<polygon fill="midnightblue" stroke="midnightblue" points="807.53,-216.49 800.4,-224.32 810.86,-222.65 807.53,-216.49"/>
</g>
<!-- Node24&#45;&gt;Node6 -->
<g id="edge39" class="edge">
<title>Node24&#45;&gt;Node6</title>
<path fill="none" stroke="midnightblue" d="M787.49,-158.39C799.36,-122.59 824.95,-45.34 833.49,-19.57"/>
<polygon fill="midnightblue" stroke="midnightblue" points="784.11,-157.48 784.29,-168.08 790.75,-159.68 784.11,-157.48"/>
</g>
<!-- Node24&#45;&gt;Node18 -->
<g id="edge38" class="edge">
<title>Node24&#45;&gt;Node18</title>
<path fill="none" stroke="midnightblue" d="M812.35,-164.77C838.09,-154.63 874.01,-140.47 896.72,-131.52"/>
<polygon fill="midnightblue" stroke="midnightblue" points="811.06,-161.52 803.04,-168.44 813.62,-168.03 811.06,-161.52"/>
</g>
<!-- Node25&#45;&gt;Node18 -->
<g id="edge41" class="edge">
<title>Node25&#45;&gt;Node18</title>
<path fill="none" stroke="midnightblue" d="M895.31,-159.57C901.16,-150.27 908.1,-139.25 912.82,-131.75"/>
<polygon fill="midnightblue" stroke="midnightblue" points="892.31,-157.76 889.94,-168.08 898.23,-161.49 892.31,-157.76"/>
</g>
<!-- Node26 -->
<g id="node26" class="node">
<title>Node26</title>
<g id="a_node26"><a xlink:href="turbine__utils_8cpp.html" target="_top" xlink:title=" ">
<polygon fill="white" stroke="black" points="990.33,-112.5 990.33,-131.5 1088.33,-131.5 1088.33,-112.5 990.33,-112.5"/>
<text text-anchor="middle" x="1039.33" y="-119.5" font-family="Helvetica,sans-Serif" font-size="10.00">turbine_utils.cpp</text>
</a>
</g>
</g>
<!-- Node25&#45;&gt;Node26 -->
<g id="edge42" class="edge">
<title>Node25&#45;&gt;Node26</title>
<path fill="none" stroke="midnightblue" d="M918.66,-165.04C947.82,-154.88 988.97,-140.55 1014.88,-131.52"/>
<polygon fill="midnightblue" stroke="midnightblue" points="917.18,-161.85 908.89,-168.44 919.48,-168.46 917.18,-161.85"/>
</g>
<!-- Node27&#45;&gt;Node11 -->
<g id="edge44" class="edge">
<title>Node27&#45;&gt;Node11</title>
<path fill="none" stroke="midnightblue" d="M303.37,-326.3C313.24,-280.64 338.28,-164.85 345.41,-131.88"/>
<polygon fill="midnightblue" stroke="midnightblue" points="299.9,-325.78 301.21,-336.3 306.74,-327.26 299.9,-325.78"/>
</g>
<!-- Node28 -->
<g id="node28" class="node">
<title>Node28</title>
<g id="a_node28"><a xlink:href="_actuator_disk_8_h.html" target="_top" xlink:title=" ">
<polygon fill="white" stroke="black" points="205.33,-280.5 205.33,-299.5 295.33,-299.5 295.33,-280.5 205.33,-280.5"/>
<text text-anchor="middle" x="250.33" y="-287.5" font-family="Helvetica,sans-Serif" font-size="10.00">ActuatorDisk.H</text>
</a>
</g>
</g>
<!-- Node27&#45;&gt;Node28 -->
<g id="edge45" class="edge">
<title>Node27&#45;&gt;Node28</title>
<path fill="none" stroke="midnightblue" d="M284.29,-328.43C275.71,-318.97 265.28,-307.48 258.27,-299.75"/>
<polygon fill="midnightblue" stroke="midnightblue" points="281.93,-331.03 291.24,-336.08 287.11,-326.33 281.93,-331.03"/>
</g>
<!-- Node31 -->
<g id="node31" class="node">
<title>Node31</title>
<g id="a_node31"><a xlink:href="_joukowsky_8_h.html" target="_top" xlink:title=" ">
<polygon fill="white" stroke="black" points="51.83,-224.5 51.83,-243.5 128.83,-243.5 128.83,-224.5 51.83,-224.5"/>
<text text-anchor="middle" x="90.33" y="-231.5" font-family="Helvetica,sans-Serif" font-size="10.00">Joukowsky.H</text>
</a>
</g>
</g>
<!-- Node27&#45;&gt;Node31 -->
<g id="edge56" class="edge">
<title>Node27&#45;&gt;Node31</title>
<path fill="none" stroke="midnightblue" d="M267.95,-332.61C247.27,-324.13 219.78,-312.24 196.33,-300 161.5,-281.82 122.62,-256.64 103.05,-243.6"/>
<polygon fill="midnightblue" stroke="midnightblue" points="266.63,-335.86 277.22,-336.38 269.27,-329.37 266.63,-335.86"/>
</g>
<!-- Node28&#45;&gt;Node12 -->
<g id="edge55" class="edge">
<title>Node28&#45;&gt;Node12</title>
<path fill="none" stroke="midnightblue" d="M263.15,-272.1C279.4,-248.5 303.69,-204.44 289.33,-168 283.37,-152.89 269.68,-139.86 259.54,-131.76"/>
<polygon fill="midnightblue" stroke="midnightblue" points="260.21,-270.2 257.21,-280.36 265.89,-274.29 260.21,-270.2"/>
</g>
<!-- Node29 -->
<g id="node29" class="node">
<title>Node29</title>
<g id="a_node29"><a xlink:href="_uniform_ct_8_h.html" target="_top" xlink:title=" ">
<polygon fill="white" stroke="black" points="161.83,-224.5 161.83,-243.5 238.83,-243.5 238.83,-224.5 161.83,-224.5"/>
<text text-anchor="middle" x="200.33" y="-231.5" font-family="Helvetica,sans-Serif" font-size="10.00">UniformCt.H</text>
</a>
</g>
</g>
<!-- Node28&#45;&gt;Node29 -->
<g id="edge46" class="edge">
<title>Node28&#45;&gt;Node29</title>
<path fill="none" stroke="midnightblue" d="M235.25,-272.72C226.44,-263.2 215.66,-251.56 208.43,-243.75"/>
<polygon fill="midnightblue" stroke="midnightblue" points="232.71,-275.12 242.07,-280.08 237.85,-270.37 232.71,-275.12"/>
</g>
<!-- Node28&#45;&gt;Node31 -->
<g id="edge52" class="edge">
<title>Node28&#45;&gt;Node31</title>
<path fill="none" stroke="midnightblue" d="M215.28,-277.17C185.15,-267 142.43,-252.59 115.56,-243.52"/>
<polygon fill="midnightblue" stroke="midnightblue" points="214.38,-280.56 224.98,-280.44 216.62,-273.93 214.38,-280.56"/>
</g>
<!-- Node29&#45;&gt;Node5 -->
<g id="edge50" class="edge">
<title>Node29&#45;&gt;Node5</title>
<path fill="none" stroke="midnightblue" d="M180.77,-218.09C149.68,-192.92 90.55,-138.57 71.33,-76 65.35,-56.55 69.76,-32.31 72.9,-19.64"/>
<polygon fill="midnightblue" stroke="midnightblue" points="178.72,-220.94 188.73,-224.4 183.07,-215.45 178.72,-220.94"/>
</g>
<!-- Node29&#45;&gt;Node13 -->
<g id="edge51" class="edge">
<title>Node29&#45;&gt;Node13</title>
<path fill="none" stroke="midnightblue" d="M185.83,-216.4C179.78,-208.39 173.45,-198.3 170.33,-188 167.75,-179.49 167.99,-176.58 170.33,-168 177.93,-140.13 184.24,-133.69 203.33,-112 216.3,-97.27 234.65,-83.97 247.22,-75.72"/>
<polygon fill="midnightblue" stroke="midnightblue" points="183.11,-218.6 192.11,-224.18 188.56,-214.2 183.11,-218.6"/>
</g>
<!-- Node30 -->
<g id="node30" class="node">
<title>Node30</title>
<g id="a_node30"><a xlink:href="disk__spreading_8_h.html" target="_top" xlink:title=" ">
<polygon fill="white" stroke="black" points="179.83,-168.5 179.83,-187.5 280.83,-187.5 280.83,-168.5 179.83,-168.5"/>
<text text-anchor="middle" x="230.33" y="-175.5" font-family="Helvetica,sans-Serif" font-size="10.00">disk_spreading.H</text>
</a>
</g>
</g>
<!-- Node29&#45;&gt;Node30 -->
<g id="edge47" class="edge">
<title>Node29&#45;&gt;Node30</title>
<path fill="none" stroke="midnightblue" d="M210.18,-215.27C215.3,-206.05 221.34,-195.17 225.47,-187.75"/>
<polygon fill="midnightblue" stroke="midnightblue" points="207.08,-213.64 205.28,-224.08 213.2,-217.04 207.08,-213.64"/>
</g>
<!-- Node30&#45;&gt;Node5 -->
<g id="edge49" class="edge">
<title>Node30&#45;&gt;Node5</title>
<path fill="none" stroke="midnightblue" d="M196.87,-164.49C161.56,-149.36 107.48,-120.27 81.33,-76 70.84,-58.24 72.23,-32.88 73.91,-19.7"/>
<polygon fill="midnightblue" stroke="midnightblue" points="195.72,-167.8 206.29,-168.39 198.39,-161.33 195.72,-167.8"/>
</g>
<!-- Node30&#45;&gt;Node11 -->
<g id="edge48" class="edge">
<title>Node30&#45;&gt;Node11</title>
<path fill="none" stroke="midnightblue" d="M257.99,-164.23C279.88,-154.13 309.83,-140.31 328.88,-131.52"/>
<polygon fill="midnightblue" stroke="midnightblue" points="256.48,-161.08 248.87,-168.44 259.41,-167.43 256.48,-161.08"/>
</g>
<!-- Node31&#45;&gt;Node5 -->
<g id="edge53" class="edge">
<title>Node31&#45;&gt;Node5</title>
<path fill="none" stroke="midnightblue" d="M72.23,-217.41C52.64,-199.22 22.55,-167.12 10.33,-132 -0.78,-100.1 -5.35,-85.92 10.33,-56 19.37,-38.74 38.38,-26.78 53.52,-19.55"/>
<polygon fill="midnightblue" stroke="midnightblue" points="70.13,-220.23 79.9,-224.33 74.82,-215.03 70.13,-220.23"/>
</g>
<!-- Node31&#45;&gt;Node15 -->
<g id="edge54" class="edge">
<title>Node31&#45;&gt;Node15</title>
<path fill="none" stroke="midnightblue" d="M96.04,-214.39C107.05,-178.59 130.78,-101.34 138.7,-75.57"/>
<polygon fill="midnightblue" stroke="midnightblue" points="92.66,-213.49 93.07,-224.08 99.35,-215.54 92.66,-213.49"/>
</g>
<!-- Node33&#45;&gt;Node20 -->
<g id="edge65" class="edge">
<title>Node33&#45;&gt;Node20</title>
<path fill="none" stroke="midnightblue" d="M1295.15,-165.7C1258.91,-155.51 1206.41,-140.74 1173.61,-131.52"/>
<polygon fill="midnightblue" stroke="midnightblue" points="1294.33,-169.11 1304.91,-168.44 1296.23,-162.37 1294.33,-169.11"/>
</g>
<!-- Node34 -->
<g id="node34" class="node">
<title>Node34</title>
<g id="a_node34"><a xlink:href="_airfoil_table_8cpp.html" target="_top" xlink:title=" ">
<polygon fill="white" stroke="black" points="1485.33,-112.5 1485.33,-131.5 1577.33,-131.5 1577.33,-112.5 1485.33,-112.5"/>
<text text-anchor="middle" x="1531.33" y="-119.5" font-family="Helvetica,sans-Serif" font-size="10.00">AirfoilTable.cpp</text>
</a>
</g>
</g>
<!-- Node33&#45;&gt;Node34 -->
<g id="edge59" class="edge">
<title>Node33&#45;&gt;Node34</title>
<path fill="none" stroke="midnightblue" d="M1376.35,-165.7C1413.34,-155.51 1466.93,-140.74 1500.42,-131.52"/>
<polygon fill="midnightblue" stroke="midnightblue" points="1375.1,-162.41 1366.39,-168.44 1376.96,-169.16 1375.1,-162.41"/>
</g>
<!-- Node35 -->
<g id="node35" class="node">
<title>Node35</title>
<g id="a_node35"><a xlink:href="_airfoil_table_i_8_h.html" target="_top" xlink:title=" ">
<polygon fill="white" stroke="black" points="1381.83,-112.5 1381.83,-131.5 1466.83,-131.5 1466.83,-112.5 1381.83,-112.5"/>
<text text-anchor="middle" x="1424.33" y="-119.5" font-family="Helvetica,sans-Serif" font-size="10.00">AirfoilTableI.H</text>
</a>
</g>
</g>
<!-- Node33&#45;&gt;Node35 -->
<g id="edge60" class="edge">
<title>Node33&#45;&gt;Node35</title>
<path fill="none" stroke="midnightblue" d="M1352.98,-162.62C1368.05,-152.76 1389.4,-139.99 1404.95,-131.65"/>
<polygon fill="midnightblue" stroke="midnightblue" points="1350.85,-159.83 1344.51,-168.32 1354.76,-165.64 1350.85,-159.83"/>
</g>
<!-- Node36 -->
<g id="node36" class="node">
<title>Node36</title>
<g id="a_node36"><a xlink:href="_fixed_wing_8_h.html" target="_top" xlink:title=" ">
<polygon fill="white" stroke="black" points="1197.83,-112.5 1197.83,-131.5 1274.83,-131.5 1274.83,-112.5 1197.83,-112.5"/>
<text text-anchor="middle" x="1236.33" y="-119.5" font-family="Helvetica,sans-Serif" font-size="10.00">FixedWing.H</text>
</a>
</g>
</g>
<!-- Node33&#45;&gt;Node36 -->
<g id="edge62" class="edge">
<title>Node33&#45;&gt;Node36</title>
<path fill="none" stroke="midnightblue" d="M1310.49,-163.45C1292.21,-153.48 1267.91,-140.23 1252.19,-131.65"/>
<polygon fill="midnightblue" stroke="midnightblue" points="1308.97,-166.61 1319.42,-168.32 1312.32,-160.46 1308.97,-166.61"/>
</g>
<!-- Node37 -->
<g id="node37" class="node">
<title>Node37</title>
<g id="a_node37"><a xlink:href="_flat_plate_8_h.html" target="_top" xlink:title=" ">
<polygon fill="white" stroke="black" points="1292.83,-112.5 1292.83,-131.5 1363.83,-131.5 1363.83,-112.5 1292.83,-112.5"/>
<text text-anchor="middle" x="1328.33" y="-119.5" font-family="Helvetica,sans-Serif" font-size="10.00">FlatPlate.H</text>
</a>
</g>
</g>
<!-- Node33&#45;&gt;Node37 -->
<g id="edge66" class="edge">
<title>Node33&#45;&gt;Node37</title>
<path fill="none" stroke="midnightblue" d="M1332.88,-158.1C1331.72,-149.14 1330.38,-138.86 1329.46,-131.75"/>
<polygon fill="midnightblue" stroke="midnightblue" points="1329.42,-158.62 1334.17,-168.08 1336.36,-157.72 1329.42,-158.62"/>
</g>
<!-- Node35&#45;&gt;Node33 -->
<g id="edge61" class="edge">
<title>Node35&#45;&gt;Node33</title>
<path fill="none" stroke="midnightblue" d="M1406.72,-137.35C1391.65,-147.21 1370.3,-159.98 1354.74,-168.32"/>
<polygon fill="midnightblue" stroke="midnightblue" points="1408.84,-140.14 1415.17,-131.65 1404.93,-134.34 1408.84,-140.14"/>
</g>
<!-- Node36&#45;&gt;Node7 -->
<g id="edge64" class="edge">
<title>Node36&#45;&gt;Node7</title>
<path fill="none" stroke="midnightblue" d="M1239.19,-102.13C1240.25,-87.58 1239,-67.97 1227.33,-56 1223.32,-51.89 1073.16,-28.92 996.87,-17.48"/>
<polygon fill="midnightblue" stroke="midnightblue" points="1235.66,-102.15 1238,-112.48 1242.62,-102.95 1235.66,-102.15"/>
</g>
<!-- Node36&#45;&gt;Node19 -->
<g id="edge63" class="edge">
<title>Node36&#45;&gt;Node19</title>
<path fill="none" stroke="midnightblue" d="M1187.5,-111.65C1115.88,-97.97 1043.47,-84.17 998.13,-75.53"/>
<polygon fill="midnightblue" stroke="midnightblue" points="1187.12,-115.14 1197.6,-113.58 1188.43,-108.27 1187.12,-115.14"/>
</g>
<!-- Node37&#45;&gt;Node8 -->
<g id="edge68" class="edge">
<title>Node37&#45;&gt;Node8</title>
<path fill="none" stroke="midnightblue" d="M1315.43,-104.41C1302.94,-89.49 1282.65,-68.11 1260.33,-56 1212.42,-30.01 1149.79,-18.93 1109.55,-14.27"/>
<polygon fill="midnightblue" stroke="midnightblue" points="1312.83,-106.76 1321.84,-112.33 1318.27,-102.35 1312.83,-106.76"/>
</g>
<!-- Node37&#45;&gt;Node21 -->
<g id="edge67" class="edge">
<title>Node37&#45;&gt;Node21</title>
<path fill="none" stroke="midnightblue" d="M1282.61,-111.47C1233.8,-101.29 1157.14,-85.31 1110.25,-75.53"/>
<polygon fill="midnightblue" stroke="midnightblue" points="1282.08,-114.93 1292.59,-113.55 1283.51,-108.08 1282.08,-114.93"/>
</g>
<!-- Node38&#45;&gt;Node26 -->
<g id="edge74" class="edge">
<title>Node38&#45;&gt;Node26</title>
<path fill="none" stroke="midnightblue" d="M1075.72,-217.94C1090.39,-205.14 1106.15,-186.02 1097.33,-168 1089.14,-151.29 1071.43,-139 1057.72,-131.53"/>
<polygon fill="midnightblue" stroke="midnightblue" points="1073.39,-215.32 1067.85,-224.35 1077.81,-220.75 1073.39,-215.32"/>
</g>
<!-- Node39 -->
<g id="node39" class="node">
<title>Node39</title>
<g id="a_node39"><a xlink:href="_f_l_l_c_8cpp.html" target="_top" xlink:title=" ">
<polygon fill="white" stroke="black" points="1028.33,-168.5 1028.33,-187.5 1088.33,-187.5 1088.33,-168.5 1028.33,-168.5"/>
<text text-anchor="middle" x="1058.33" y="-175.5" font-family="Helvetica,sans-Serif" font-size="10.00">FLLC.cpp</text>
</a>
</g>
</g>
<!-- Node38&#45;&gt;Node39 -->
<g id="edge70" class="edge">
<title>Node38&#45;&gt;Node39</title>
<path fill="none" stroke="midnightblue" d="M1056.39,-213.8C1056.89,-204.91 1057.45,-194.78 1057.84,-187.75"/>
<polygon fill="midnightblue" stroke="midnightblue" points="1052.88,-213.9 1055.82,-224.08 1059.87,-214.29 1052.88,-213.9"/>
</g>
<!-- Node38&#45;&gt;Node40 -->
<g id="edge71" class="edge">
<title>Node38&#45;&gt;Node40</title>
<path fill="none" stroke="midnightblue" d="M1034.43,-218.34C1020.42,-208.52 1002.45,-195.91 990.67,-187.65"/>
<polygon fill="midnightblue" stroke="midnightblue" points="1032.76,-221.45 1042.96,-224.32 1036.78,-215.72 1032.76,-221.45"/>
</g>
<!-- Node40&#45;&gt;Node18 -->
<g id="edge72" class="edge">
<title>Node40&#45;&gt;Node18</title>
<path fill="none" stroke="midnightblue" d="M961.15,-161.54C950.45,-151.91 937.07,-139.87 928.14,-131.83"/>
<polygon fill="midnightblue" stroke="midnightblue" points="958.91,-164.24 968.69,-168.32 963.6,-159.03 958.91,-164.24"/>
</g>
<!-- Node40&#45;&gt;Node20 -->
<g id="edge73" class="edge">
<title>Node40&#45;&gt;Node20</title>
<path fill="none" stroke="midnightblue" d="M1014.06,-165.3C1045.16,-155.13 1089.48,-140.62 1117.31,-131.52"/>
<polygon fill="midnightblue" stroke="midnightblue" points="1012.89,-162.01 1004.47,-168.44 1015.07,-168.66 1012.89,-162.01"/>
</g>
<!-- Node41&#45;&gt;Node20 -->
<g id="edge78" class="edge">
<title>Node41&#45;&gt;Node20</title>
<path fill="none" stroke="midnightblue" d="M1206.87,-162.9C1191.1,-153 1170.51,-140.07 1157.11,-131.65"/>
<polygon fill="midnightblue" stroke="midnightblue" points="1205.18,-165.97 1215.51,-168.32 1208.9,-160.04 1205.18,-165.97"/>
</g>
<!-- Node41&#45;&gt;Node36 -->
<g id="edge77" class="edge">
<title>Node41&#45;&gt;Node36</title>
<path fill="none" stroke="midnightblue" d="M1231.78,-158.1C1232.94,-149.14 1234.27,-138.86 1235.19,-131.75"/>
<polygon fill="midnightblue" stroke="midnightblue" points="1228.3,-157.72 1230.48,-168.08 1235.24,-158.62 1228.3,-157.72"/>
</g>
<!-- Node41&#45;&gt;Node37 -->
<g id="edge79" class="edge">
<title>Node41&#45;&gt;Node37</title>
<path fill="none" stroke="midnightblue" d="M1254.17,-163.45C1272.44,-153.48 1296.74,-140.23 1312.46,-131.65"/>
<polygon fill="midnightblue" stroke="midnightblue" points="1252.34,-160.46 1245.23,-168.32 1255.69,-166.61 1252.34,-160.46"/>
</g>
</g>
</svg>
