<?xml version="1.0" encoding="UTF-8" standalone="no"?>
<!DOCTYPE svg PUBLIC "-//W3C//DTD SVG 1.1//EN"
 "http://www.w3.org/Graphics/SVG/1.1/DTD/svg11.dtd">
<!-- Generated by graphviz version 2.43.0 (0)
 -->
<!-- Title: amr_wind::VelPlaneAveragingFine Pages: 1 -->
<svg width="816pt" height="564pt"
 viewBox="0.00 0.00 816.00 564.00" xmlns="http://www.w3.org/2000/svg" xmlns:xlink="http://www.w3.org/1999/xlink">
<g id="graph0" class="graph" transform="scale(1 1) rotate(0) translate(4 560)">
<title>amr_wind::VelPlaneAveragingFine</title>
<polygon fill="white" stroke="transparent" points="-4,4 -4,-560 812,-560 812,4 -4,4"/>
<!-- Node1 -->
<g id="node1" class="node">
<title>Node1</title>
<g id="a_node1"><a xlink:title="Specific application of FieldPlaneAveraging to the velocity field.">
<polygon fill="#bfbfbf" stroke="black" points="562,-0.5 562,-19.5 744,-19.5 744,-0.5 562,-0.5"/>
<text text-anchor="middle" x="653" y="-7.5" font-family="Helvetica,sans-Serif" font-size="10.00">amr_wind::VelPlaneAveragingFine</text>
</a>
</g>
</g>
<!-- Node2 -->
<g id="node2" class="node">
<title>Node2</title>
<g id="a_node2"><a xlink:href="classamr__wind_1_1_f_plane_averaging_fine.html" target="_top" xlink:title=" ">
<polygon fill="white" stroke="black" points="585,-57.5 585,-76.5 721,-76.5 721,-57.5 585,-57.5"/>
<text text-anchor="middle" x="653" y="-64.5" font-family="Helvetica,sans-Serif" font-size="10.00">FieldPlaneAveragingFine</text>
</a>
</g>
</g>
<!-- Node2&#45;&gt;Node1 -->
<g id="edge1" class="edge">
<title>Node2&#45;&gt;Node1</title>
<path fill="none" stroke="midnightblue" d="M653,-47.12C653,-37.82 653,-27.06 653,-19.71"/>
<polygon fill="midnightblue" stroke="midnightblue" points="649.5,-47.41 653,-57.41 656.5,-47.41 649.5,-47.41"/>
</g>
<!-- Node3 -->
<g id="node3" class="node">
<title>Node3</title>
<g id="a_node3"><a xlink:href="classamr__wind_1_1_field.html" target="_top" xlink:title="Computational field.">
<polygon fill="white" stroke="black" points="465,-130 465,-149 559,-149 559,-130 465,-130"/>
<text text-anchor="middle" x="512" y="-137" font-family="Helvetica,sans-Serif" font-size="10.00">amr_wind::Field</text>
</a>
</g>
</g>
<!-- Node3&#45;&gt;Node2 -->
<g id="edge2" class="edge">
<title>Node3&#45;&gt;Node2</title>
<path fill="none" stroke="#9a32cd" stroke-dasharray="5,2" d="M538,-125.5C566.55,-111.23 611.55,-88.73 635.93,-76.53"/>
<polygon fill="#9a32cd" stroke="#9a32cd" points="536.39,-122.39 529.01,-130 539.52,-128.65 536.39,-122.39"/>
<text text-anchor="middle" x="616" y="-98" font-family="Helvetica,sans-Serif" font-size="10.00"> m_field</text>
</g>
<!-- Node4 -->
<g id="node4" class="node">
<title>Node4</title>
<g id="a_node4"><a xlink:title=" ">
<polygon fill="white" stroke="#bfbfbf" points="222,-202.5 222,-232.5 342,-232.5 342,-202.5 222,-202.5"/>
<text text-anchor="start" x="230" y="-220.5" font-family="Helvetica,sans-Serif" font-size="10.00">std::shared_ptr&lt; amr</text>
<text text-anchor="middle" x="282" y="-209.5" font-family="Helvetica,sans-Serif" font-size="10.00">_wind::FieldInfo &gt;</text>
</a>
</g>
</g>
<!-- Node4&#45;&gt;Node3 -->
<g id="edge3" class="edge">
<title>Node4&#45;&gt;Node3</title>
<path fill="none" stroke="#9a32cd" stroke-dasharray="5,2" d="M334.24,-199.24C381.65,-183.57 449.58,-161.13 486.21,-149.02"/>
<polygon fill="#9a32cd" stroke="#9a32cd" points="332.85,-196.01 324.45,-202.47 335.05,-202.66 332.85,-196.01"/>
<text text-anchor="middle" x="429.5" y="-176" font-family="Helvetica,sans-Serif" font-size="10.00"> m_info</text>
</g>
<!-- Node5 -->
<g id="node5" class="node">
<title>Node5</title>
<g id="a_node5"><a xlink:href="structamr__wind_1_1_field_info.html" target="_top" xlink:title="Information common to a field that has multiple states.">
<polygon fill="white" stroke="black" points="140.5,-297 140.5,-316 253.5,-316 253.5,-297 140.5,-297"/>
<text text-anchor="middle" x="197" y="-304" font-family="Helvetica,sans-Serif" font-size="10.00">amr_wind::FieldInfo</text>
</a>
</g>
</g>
<!-- Node5&#45;&gt;Node4 -->
<g id="edge4" class="edge">
<title>Node5&#45;&gt;Node4</title>
<path fill="none" stroke="#9a32cd" stroke-dasharray="5,2" d="M212.51,-289.62C228.45,-273.31 253.02,-248.16 268.28,-232.55"/>
<polygon fill="#9a32cd" stroke="#9a32cd" points="209.95,-287.24 205.46,-296.84 214.95,-292.13 209.95,-287.24"/>
<text text-anchor="middle" x="258.5" y="-259.5" font-family="Helvetica,sans-Serif" font-size="10.00"> ptr</text>
</g>
<!-- Node6 -->
<g id="node6" class="node">
<title>Node6</title>
<g id="a_node6"><a xlink:title=" ">
<polygon fill="white" stroke="#bfbfbf" points="85.5,-369.5 85.5,-399.5 254.5,-399.5 254.5,-369.5 85.5,-369.5"/>
<text text-anchor="start" x="93.5" y="-387.5" font-family="Helvetica,sans-Serif" font-size="10.00">std::unique_ptr&lt; amr</text>
<text text-anchor="middle" x="170" y="-376.5" font-family="Helvetica,sans-Serif" font-size="10.00">_wind::FieldFillPatchOpsBase &gt;</text>
</a>
</g>
</g>
<!-- Node6&#45;&gt;Node5 -->
<g id="edge5" class="edge">
<title>Node6&#45;&gt;Node5</title>
<path fill="none" stroke="#9a32cd" stroke-dasharray="5,2" d="M178.06,-359.83C180.28,-353.39 182.71,-346.42 185,-340 187.91,-331.84 191.34,-322.58 193.79,-316.04"/>
<polygon fill="#9a32cd" stroke="#9a32cd" points="174.72,-358.77 174.79,-369.37 181.34,-361.04 174.72,-358.77"/>
<text text-anchor="middle" x="222.5" y="-343" font-family="Helvetica,sans-Serif" font-size="10.00"> m_fillpatch_op</text>
</g>
<!-- Node7 -->
<g id="node7" class="node">
<title>Node7</title>
<g id="a_node7"><a xlink:href="classamr__wind_1_1_field_fill_patch_ops_base.html" target="_top" xlink:title="Abstract interface for classes that handle fill patch and physical boundary condition operations for ...">
<polygon fill="white" stroke="black" points="142,-458.5 142,-488.5 276,-488.5 276,-458.5 142,-458.5"/>
<text text-anchor="start" x="150" y="-476.5" font-family="Helvetica,sans-Serif" font-size="10.00">amr_wind::FieldFillPatch</text>
<text text-anchor="middle" x="209" y="-465.5" font-family="Helvetica,sans-Serif" font-size="10.00">OpsBase</text>
</a>
</g>
</g>
<!-- Node7&#45;&gt;Node6 -->
<g id="edge6" class="edge">
<title>Node7&#45;&gt;Node6</title>
<path fill="none" stroke="#9a32cd" stroke-dasharray="5,2" d="M200.12,-449.04C196.29,-439.34 191.64,-428.04 187,-418 184.17,-411.87 180.77,-405.25 177.75,-399.59"/>
<polygon fill="#9a32cd" stroke="#9a32cd" points="196.89,-450.39 203.77,-458.45 203.41,-447.86 196.89,-450.39"/>
<text text-anchor="middle" x="204.5" y="-426.5" font-family="Helvetica,sans-Serif" font-size="10.00"> ptr</text>
</g>
<!-- Node8 -->
<g id="node8" class="node">
<title>Node8</title>
<g id="a_node8"><a xlink:title="STL class.">
<polygon fill="white" stroke="#bfbfbf" points="0,-464 0,-483 118,-483 118,-464 0,-464"/>
<text text-anchor="middle" x="59" y="-471" font-family="Helvetica,sans-Serif" font-size="10.00">std::unique_ptr&lt; T &gt;</text>
</a>
</g>
</g>
<!-- Node8&#45;&gt;Node6 -->
<g id="edge7" class="edge">
<title>Node8&#45;&gt;Node6</title>
<path fill="none" stroke="orange" stroke-dasharray="5,2" d="M49.71,-454.66C45.12,-443.12 42.07,-428.37 50,-418 55.71,-410.54 71.39,-404.4 89.62,-399.54"/>
<polygon fill="orange" stroke="orange" points="46.55,-456.16 53.91,-463.79 52.91,-453.24 46.55,-456.16"/>
<text text-anchor="start" x="50" y="-432" font-family="Helvetica,sans-Serif" font-size="10.00"> &lt; amr_wind::FieldFillPatch</text>
<text text-anchor="middle" x="116.5" y="-421" font-family="Helvetica,sans-Serif" font-size="10.00">OpsBase &gt;</text>
</g>
<!-- Node9 -->
<g id="node9" class="node">
<title>Node9</title>
<g id="a_node9"><a xlink:title=" ">
<polygon fill="white" stroke="#bfbfbf" points="289.5,-536.5 289.5,-555.5 318.5,-555.5 318.5,-536.5 289.5,-536.5"/>
<text text-anchor="middle" x="304" y="-543.5" font-family="Helvetica,sans-Serif" font-size="10.00">T</text>
</a>
</g>
</g>
<!-- Node9&#45;&gt;Node8 -->
<g id="edge8" class="edge">
<title>Node9&#45;&gt;Node8</title>
<path fill="none" stroke="#9a32cd" stroke-dasharray="5,2" d="M279.58,-537.97C234.37,-524.96 137.81,-497.18 88.82,-483.08"/>
<polygon fill="#9a32cd" stroke="#9a32cd" points="278.83,-541.4 289.41,-540.8 280.77,-534.67 278.83,-541.4"/>
<text text-anchor="middle" x="212.5" y="-510" font-family="Helvetica,sans-Serif" font-size="10.00"> ptr</text>
</g>
<!-- Node12 -->
<g id="node12" class="node">
<title>Node12</title>
<g id="a_node12"><a xlink:title="STL class.">
<polygon fill="white" stroke="#bfbfbf" points="238,-419.5 238,-438.5 356,-438.5 356,-419.5 238,-419.5"/>
<text text-anchor="middle" x="297" y="-426.5" font-family="Helvetica,sans-Serif" font-size="10.00">std::shared_ptr&lt; T &gt;</text>
</a>
</g>
</g>
<!-- Node9&#45;&gt;Node12 -->
<g id="edge12" class="edge">
<title>Node9&#45;&gt;Node12</title>
<path fill="none" stroke="#9a32cd" stroke-dasharray="5,2" d="M302.86,-526.25C301.33,-501.06 298.66,-457.32 297.53,-438.74"/>
<polygon fill="#9a32cd" stroke="#9a32cd" points="299.37,-526.59 303.47,-536.36 306.36,-526.16 299.37,-526.59"/>
<text text-anchor="middle" x="311.5" y="-510" font-family="Helvetica,sans-Serif" font-size="10.00"> ptr</text>
</g>
<!-- Node15 -->
<g id="node15" class="node">
<title>Node15</title>
<g id="a_node15"><a xlink:title="STL class.">
<polygon fill="white" stroke="#bfbfbf" points="544,-369.5 544,-399.5 658,-399.5 658,-369.5 544,-369.5"/>
<text text-anchor="start" x="552" y="-387.5" font-family="Helvetica,sans-Serif" font-size="10.00">std::unordered_map</text>
<text text-anchor="middle" x="601" y="-376.5" font-family="Helvetica,sans-Serif" font-size="10.00">&lt; K, T &gt;</text>
</a>
</g>
</g>
<!-- Node9&#45;&gt;Node15 -->
<g id="edge19" class="edge">
<title>Node9&#45;&gt;Node15</title>
<path fill="none" stroke="#9a32cd" stroke-dasharray="5,2" d="M328.69,-542.91C369.31,-538.5 451.52,-525.46 510,-489 529.39,-476.91 570.5,-425.25 590.13,-399.79"/>
<polygon fill="#9a32cd" stroke="#9a32cd" points="328.23,-539.44 318.62,-543.91 328.92,-546.4 328.23,-539.44"/>
<text text-anchor="middle" x="567.5" y="-471" font-family="Helvetica,sans-Serif" font-size="10.00"> elements</text>
</g>
<!-- Node10 -->
<g id="node10" class="node">
<title>Node10</title>
<g id="a_node10"><a xlink:title="STL class.">
<polygon fill="white" stroke="#bfbfbf" points="431.5,-375 431.5,-394 496.5,-394 496.5,-375 431.5,-375"/>
<text text-anchor="middle" x="464" y="-382" font-family="Helvetica,sans-Serif" font-size="10.00">std::string</text>
</a>
</g>
</g>
<!-- Node10&#45;&gt;Node3 -->
<g id="edge13" class="edge">
<title>Node10&#45;&gt;Node3</title>
<path fill="none" stroke="#9a32cd" stroke-dasharray="5,2" d="M484.66,-368.41C489.91,-363.48 494.93,-357.56 498,-351 531.49,-279.33 518.43,-178.74 513.53,-149.06"/>
<polygon fill="#9a32cd" stroke="#9a32cd" points="482.37,-365.76 476.99,-374.88 486.89,-371.1 482.37,-365.76"/>
<text text-anchor="middle" x="543" y="-259.5" font-family="Helvetica,sans-Serif" font-size="10.00"> m_name</text>
</g>
<!-- Node10&#45;&gt;Node5 -->
<g id="edge9" class="edge">
<title>Node10&#45;&gt;Node5</title>
<path fill="none" stroke="#9a32cd" stroke-dasharray="5,2" d="M447.66,-368.06C436.5,-358.43 420.91,-346.64 405,-340 356.42,-319.74 296.68,-311.99 253.71,-309.09"/>
<polygon fill="#9a32cd" stroke="#9a32cd" points="445.48,-370.81 455.26,-374.89 450.16,-365.6 445.48,-370.81"/>
<text text-anchor="middle" x="460" y="-343" font-family="Helvetica,sans-Serif" font-size="10.00"> m_basename</text>
</g>
<!-- Node14 -->
<g id="node14" class="node">
<title>Node14</title>
<g id="a_node14"><a xlink:title=" ">
<polygon fill="white" stroke="#bfbfbf" points="540,-291.5 540,-321.5 662,-321.5 662,-291.5 540,-291.5"/>
<text text-anchor="start" x="548" y="-309.5" font-family="Helvetica,sans-Serif" font-size="10.00">std::unordered_map</text>
<text text-anchor="middle" x="601" y="-298.5" font-family="Helvetica,sans-Serif" font-size="10.00">&lt; std::string, size_t &gt;</text>
</a>
</g>
</g>
<!-- Node10&#45;&gt;Node14 -->
<g id="edge16" class="edge">
<title>Node10&#45;&gt;Node14</title>
<path fill="none" stroke="#9a32cd" stroke-dasharray="5,2" d="M490.13,-370.12C501.24,-364.35 514.31,-357.45 526,-351 543.26,-341.47 562.5,-330.31 577.17,-321.67"/>
<polygon fill="#9a32cd" stroke="#9a32cd" points="488.22,-367.16 480.95,-374.87 491.44,-373.38 488.22,-367.16"/>
<text text-anchor="middle" x="558" y="-343" font-family="Helvetica,sans-Serif" font-size="10.00"> keys</text>
</g>
<!-- Node11 -->
<g id="node11" class="node">
<title>Node11</title>
<g id="a_node11"><a xlink:title="STL class.">
<polygon fill="white" stroke="#bfbfbf" points="397,-458.5 397,-488.5 501,-488.5 501,-458.5 397,-458.5"/>
<text text-anchor="start" x="405" y="-476.5" font-family="Helvetica,sans-Serif" font-size="10.00">std::basic_string&lt;</text>
<text text-anchor="middle" x="449" y="-465.5" font-family="Helvetica,sans-Serif" font-size="10.00"> char &gt;</text>
</a>
</g>
</g>
<!-- Node11&#45;&gt;Node10 -->
<g id="edge10" class="edge">
<title>Node11&#45;&gt;Node10</title>
<path fill="none" stroke="midnightblue" d="M453.21,-448.06C456.31,-430.13 460.33,-406.8 462.48,-394.31"/>
<polygon fill="midnightblue" stroke="midnightblue" points="449.73,-447.68 451.48,-458.13 456.63,-448.87 449.73,-447.68"/>
</g>
<!-- Node12&#45;&gt;Node4 -->
<g id="edge11" class="edge">
<title>Node12&#45;&gt;Node4</title>
<path fill="none" stroke="orange" stroke-dasharray="5,2" d="M291.34,-409.25C286.98,-393.79 281.33,-371.19 279,-351 274.07,-308.26 277.94,-257.26 280.39,-232.87"/>
<polygon fill="orange" stroke="orange" points="288.06,-410.49 294.22,-419.11 294.78,-408.53 288.06,-410.49"/>
<text text-anchor="middle" x="340" y="-343" font-family="Helvetica,sans-Serif" font-size="10.00"> &lt; amr_wind::FieldInfo &gt;</text>
</g>
<!-- Node13 -->
<g id="node13" class="node">
<title>Node13</title>
<g id="a_node13"><a xlink:href="classamr__wind_1_1_field_repo.html" target="_top" xlink:title="Field Repository.">
<polygon fill="white" stroke="black" points="541.5,-208 541.5,-227 660.5,-227 660.5,-208 541.5,-208"/>
<text text-anchor="middle" x="601" y="-215" font-family="Helvetica,sans-Serif" font-size="10.00">amr_wind::FieldRepo</text>
</a>
</g>
</g>
<!-- Node13&#45;&gt;Node3 -->
<g id="edge14" class="edge">
<title>Node13&#45;&gt;Node3</title>
<path fill="none" stroke="#9a32cd" stroke-dasharray="5,2" d="M583.12,-201.23C564.78,-185.57 536.91,-161.77 522.09,-149.12"/>
<polygon fill="#9a32cd" stroke="#9a32cd" points="580.91,-203.95 590.79,-207.78 585.46,-198.63 580.91,-203.95"/>
<text text-anchor="middle" x="582" y="-176" font-family="Helvetica,sans-Serif" font-size="10.00"> m_repo</text>
</g>
<!-- Node14&#45;&gt;Node13 -->
<g id="edge15" class="edge">
<title>Node14&#45;&gt;Node13</title>
<path fill="none" stroke="#9a32cd" stroke-dasharray="5,2" d="M601,-281.06C601,-263.13 601,-239.8 601,-227.31"/>
<polygon fill="#9a32cd" stroke="#9a32cd" points="597.5,-281.13 601,-291.13 604.5,-281.13 597.5,-281.13"/>
<text text-anchor="middle" x="637.5" y="-265" font-family="Helvetica,sans-Serif" font-size="10.00"> m_fid_map</text>
<text text-anchor="middle" x="637.5" y="-254" font-family="Helvetica,sans-Serif" font-size="10.00">m_int_fid_map</text>
</g>
<!-- Node15&#45;&gt;Node14 -->
<g id="edge17" class="edge">
<title>Node15&#45;&gt;Node14</title>
<path fill="none" stroke="orange" stroke-dasharray="5,2" d="M601,-359.09C601,-346.76 601,-332.22 601,-321.73"/>
<polygon fill="orange" stroke="orange" points="597.5,-359.2 601,-369.2 604.5,-359.21 597.5,-359.2"/>
<text text-anchor="middle" x="655.5" y="-343" font-family="Helvetica,sans-Serif" font-size="10.00"> &lt; std::string, size_t &gt;</text>
</g>
<!-- Node16 -->
<g id="node16" class="node">
<title>Node16</title>
<g id="a_node16"><a xlink:title=" ">
<polygon fill="white" stroke="#bfbfbf" points="604.5,-464 604.5,-483 633.5,-483 633.5,-464 604.5,-464"/>
<text text-anchor="middle" x="619" y="-471" font-family="Helvetica,sans-Serif" font-size="10.00">K</text>
</a>
</g>
</g>
<!-- Node16&#45;&gt;Node15 -->
<g id="edge18" class="edge">
<title>Node16&#45;&gt;Node15</title>
<path fill="none" stroke="#9a32cd" stroke-dasharray="5,2" d="M615.15,-453.88C611.78,-437.59 606.96,-414.31 603.91,-399.55"/>
<polygon fill="#9a32cd" stroke="#9a32cd" points="611.75,-454.76 617.21,-463.84 618.61,-453.34 611.75,-454.76"/>
<text text-anchor="middle" x="626" y="-426.5" font-family="Helvetica,sans-Serif" font-size="10.00"> keys</text>
</g>
<!-- Node17 -->
<g id="node17" class="node">
<title>Node17</title>
<g id="a_node17"><a xlink:href="classamr__wind_1_1_sim_time.html" target="_top" xlink:title="Time manager for simulations.">
<polygon fill="white" stroke="black" points="694,-208 694,-227 808,-227 808,-208 694,-208"/>
<text text-anchor="middle" x="751" y="-215" font-family="Helvetica,sans-Serif" font-size="10.00">amr_wind::SimTime</text>
</a>
</g>
</g>
<!-- Node17&#45;&gt;Node2 -->
<g id="edge20" class="edge">
<title>Node17&#45;&gt;Node2</title>
<path fill="none" stroke="#9a32cd" stroke-dasharray="5,2" d="M752.54,-197.69C753.26,-177.91 751.75,-146.58 738,-124 723.85,-100.76 695.96,-85.21 675.99,-76.52"/>
<polygon fill="#9a32cd" stroke="#9a32cd" points="749.04,-197.66 751.94,-207.85 756.03,-198.07 749.04,-197.66"/>
<text text-anchor="middle" x="769.5" y="-137" font-family="Helvetica,sans-Serif" font-size="10.00"> m_time</text>
</g>
<!-- Node18 -->
<g id="node18" class="node">
<title>Node18</title>
<g id="a_node18"><a xlink:href="classamr__wind_1_1_f_plane_averaging_fine.html" target="_top" xlink:title="Output average of a field on planes normal to a given direction.">
<polygon fill="white" stroke="black" points="577,-124.5 577,-154.5 729,-154.5 729,-124.5 577,-124.5"/>
<text text-anchor="start" x="585" y="-142.5" font-family="Helvetica,sans-Serif" font-size="10.00">amr_wind::FPlaneAveraging</text>
<text text-anchor="middle" x="653" y="-131.5" font-family="Helvetica,sans-Serif" font-size="10.00">Fine&lt; FType &gt;</text>
</a>
</g>
</g>
<!-- Node17&#45;&gt;Node18 -->
<g id="edge22" class="edge">
<title>Node17&#45;&gt;Node18</title>
<path fill="none" stroke="#9a32cd" stroke-dasharray="5,2" d="M731.38,-201.28C713.78,-187.64 688.18,-167.78 671.08,-154.52"/>
<polygon fill="#9a32cd" stroke="#9a32cd" points="729.71,-204.42 739.76,-207.78 734,-198.89 729.71,-204.42"/>
<text text-anchor="middle" x="728.5" y="-176" font-family="Helvetica,sans-Serif" font-size="10.00"> m_time</text>
</g>
<!-- Node18&#45;&gt;Node2 -->
<g id="edge21" class="edge">
<title>Node18&#45;&gt;Node2</title>
<path fill="none" stroke="orange" stroke-dasharray="5,2" d="M653,-114.09C653,-101.21 653,-86.2 653,-76.89"/>
<polygon fill="orange" stroke="orange" points="649.5,-114.23 653,-124.23 656.5,-114.23 649.5,-114.23"/>
<text text-anchor="middle" x="677.5" y="-98" font-family="Helvetica,sans-Serif" font-size="10.00"> &lt; Field &gt;</text>
</g>
</g>
</svg>
