<?xml version="1.0" encoding="UTF-8" standalone="no"?>
<!DOCTYPE svg PUBLIC "-//W3C//DTD SVG 1.1//EN"
 "http://www.w3.org/Graphics/SVG/1.1/DTD/svg11.dtd">
<!-- Generated by graphviz version 2.43.0 (0)
 -->
<!-- Title: amr_wind::FieldFillPatchOpsBase Pages: 1 -->
<svg width="745pt" height="130pt"
 viewBox="0.00 0.00 745.00 129.50" xmlns="http://www.w3.org/2000/svg" xmlns:xlink="http://www.w3.org/1999/xlink">
<g id="graph0" class="graph" transform="scale(1 1) rotate(0) translate(4 125.5)">
<title>amr_wind::FieldFillPatchOpsBase</title>
<polygon fill="white" stroke="transparent" points="-4,4 -4,-125.5 741,-125.5 741,4 -4,4"/>
<!-- Node1 -->
<g id="node1" class="node">
<title>Node1</title>
<g id="a_node1"><a xlink:title="Abstract interface for classes that handle fill patch and physical boundary condition operations for ...">
<polygon fill="#bfbfbf" stroke="black" points="0,-42 0,-72 134,-72 134,-42 0,-42"/>
<text text-anchor="start" x="8" y="-60" font-family="Helvetica,sans-Serif" font-size="10.00">amr_wind::FieldFillPatch</text>
<text text-anchor="middle" x="67" y="-49" font-family="Helvetica,sans-Serif" font-size="10.00">OpsBase</text>
</a>
</g>
</g>
<!-- Node2 -->
<g id="node2" class="node">
<title>Node2</title>
<g id="a_node2"><a xlink:href="classamr__wind_1_1_field_fill_const_scalar.html" target="_top" xlink:title="Implementation that just fills a constant value on newly created grids.">
<polygon fill="white" stroke="black" points="171,-91 171,-121 307,-121 307,-91 171,-91"/>
<text text-anchor="start" x="179" y="-109" font-family="Helvetica,sans-Serif" font-size="10.00">amr_wind::FieldFillConst</text>
<text text-anchor="middle" x="239" y="-98" font-family="Helvetica,sans-Serif" font-size="10.00">Scalar</text>
</a>
</g>
</g>
<!-- Node1&#45;&gt;Node2 -->
<g id="edge1" class="edge">
<title>Node1&#45;&gt;Node2</title>
<path fill="none" stroke="midnightblue" d="M130.08,-74.89C148.37,-80.16 168.18,-85.88 185.78,-90.95"/>
<polygon fill="midnightblue" stroke="midnightblue" points="130.97,-71.51 120.39,-72.1 129.03,-78.23 130.97,-71.51"/>
</g>
<!-- Node3 -->
<g id="node3" class="node">
<title>Node3</title>
<g id="a_node3"><a xlink:href="classamr__wind_1_1_field_fill_patch_ops.html" target="_top" xlink:title="Concrete implementation of filling patches and boundary conditions on multi&#45;level AMR meshes.">
<polygon fill="white" stroke="black" points="172,-42 172,-72 306,-72 306,-42 172,-42"/>
<text text-anchor="start" x="180" y="-60" font-family="Helvetica,sans-Serif" font-size="10.00">amr_wind::FieldFillPatch</text>
<text text-anchor="middle" x="239" y="-49" font-family="Helvetica,sans-Serif" font-size="10.00">Ops&lt; BCOpCreator &gt;</text>
</a>
</g>
</g>
<!-- Node1&#45;&gt;Node3 -->
<g id="edge2" class="edge">
<title>Node1&#45;&gt;Node3</title>
<path fill="none" stroke="midnightblue" d="M144.49,-57C153.66,-57 162.96,-57 171.97,-57"/>
<polygon fill="midnightblue" stroke="midnightblue" points="144.21,-53.5 134.21,-57 144.21,-60.5 144.21,-53.5"/>
</g>
<!-- Node4 -->
<g id="node4" class="node">
<title>Node4</title>
<g id="a_node4"><a xlink:href="classamr__wind_1_1_field_fill_patch_ops.html" target="_top" xlink:title=" ">
<polygon fill="white" stroke="black" points="433,-14 433,-44 567,-44 567,-14 433,-14"/>
<text text-anchor="start" x="441" y="-32" font-family="Helvetica,sans-Serif" font-size="10.00">amr_wind::FieldFillPatch</text>
<text text-anchor="middle" x="500" y="-21" font-family="Helvetica,sans-Serif" font-size="10.00">Ops&lt; FieldBCNoOp &gt;</text>
</a>
</g>
</g>
<!-- Node1&#45;&gt;Node4 -->
<g id="edge6" class="edge">
<title>Node1&#45;&gt;Node4</title>
<path fill="none" stroke="midnightblue" d="M132.65,-39.69C145.28,-36.94 158.49,-34.52 171,-33 261.17,-22.08 366.31,-23.21 432.76,-25.62"/>
<polygon fill="midnightblue" stroke="midnightblue" points="131.65,-36.33 122.66,-41.94 133.19,-43.15 131.65,-36.33"/>
</g>
<!-- Node3&#45;&gt;Node4 -->
<g id="edge3" class="edge">
<title>Node3&#45;&gt;Node4</title>
<path fill="none" stroke="orange" stroke-dasharray="5,2" d="M316.25,-48.76C353.18,-44.76 397.11,-40.02 432.64,-36.17"/>
<polygon fill="orange" stroke="orange" points="315.59,-45.31 306.03,-49.86 316.35,-52.27 315.59,-45.31"/>
<text text-anchor="middle" x="370" y="-50" font-family="Helvetica,sans-Serif" font-size="10.00"> &lt; FieldBCNoOp &gt;</text>
</g>
<!-- Node5 -->
<g id="node5" class="node">
<title>Node5</title>
<g id="a_node5"><a xlink:href="classamr__wind_1_1_a_b_l_fill_inflow.html" target="_top" xlink:title="Operations to perform inflow of data from boundary planes.">
<polygon fill="white" stroke="black" points="604,-38.5 604,-57.5 737,-57.5 737,-38.5 604,-38.5"/>
<text text-anchor="middle" x="670.5" y="-45.5" font-family="Helvetica,sans-Serif" font-size="10.00">amr_wind::ABLFillInflow</text>
</a>
</g>
</g>
<!-- Node4&#45;&gt;Node5 -->
<g id="edge4" class="edge">
<title>Node4&#45;&gt;Node5</title>
<path fill="none" stroke="midnightblue" d="M577.12,-37.58C586.04,-38.59 595.09,-39.61 603.85,-40.6"/>
<polygon fill="midnightblue" stroke="midnightblue" points="577.44,-34.1 567.11,-36.45 576.66,-41.05 577.44,-34.1"/>
</g>
<!-- Node6 -->
<g id="node6" class="node">
<title>Node6</title>
<g id="a_node6"><a xlink:href="classamr__wind_1_1_a_b_l_fill_m_p_l.html" target="_top" xlink:title="Operations to perform inflow of data from boundary planes.">
<polygon fill="white" stroke="black" points="608.5,-0.5 608.5,-19.5 732.5,-19.5 732.5,-0.5 608.5,-0.5"/>
<text text-anchor="middle" x="670.5" y="-7.5" font-family="Helvetica,sans-Serif" font-size="10.00">amr_wind::ABLFillMPL</text>
</a>
</g>
</g>
<!-- Node4&#45;&gt;Node6 -->
<g id="edge5" class="edge">
<title>Node4&#45;&gt;Node6</title>
<path fill="none" stroke="midnightblue" d="M577.05,-20.42C587.5,-19.25 598.12,-18.05 608.25,-16.91"/>
<polygon fill="midnightblue" stroke="midnightblue" points="576.66,-16.95 567.11,-21.55 577.44,-23.9 576.66,-16.95"/>
</g>
</g>
</svg>
