<?xml version="1.0" encoding="UTF-8" standalone="no"?>
<!DOCTYPE svg PUBLIC "-//W3C//DTD SVG 1.1//EN"
 "http://www.w3.org/Graphics/SVG/1.1/DTD/svg11.dtd">
<!-- Generated by graphviz version 2.43.0 (0)
 -->
<!-- Title: overset Pages: 1 -->
<svg width="179pt" height="295pt"
 viewBox="0.00 0.00 179.00 295.00" xmlns="http://www.w3.org/2000/svg" xmlns:xlink="http://www.w3.org/1999/xlink">
<g id="graph0" class="graph" transform="scale(1 1) rotate(0) translate(4 291)">
<title>overset</title>
<polygon fill="white" stroke="transparent" points="-4,4 -4,-291 175,-291 175,4 -4,4"/>
<g id="clust1" class="cluster">
<title>clusterdir_d85575251dd712327fe3cf057fa568b4</title>
<g id="a_clust1"><a xlink:href="dir_d85575251dd712327fe3cf057fa568b4.html" target="_top" xlink:title="amr&#45;wind">
<polygon fill="#ddddee" stroke="black" points="93,-208 93,-279 163,-279 163,-208 93,-208"/>
<text text-anchor="middle" x="128" y="-267" font-family="Helvetica,sans-Serif" font-size="10.00">amr&#45;wind</text>
</a>
</g>
</g>
<!-- dir_629222d9fcf2f4ceefae477297f2ec84 -->
<g id="node1" class="node">
<title>dir_629222d9fcf2f4ceefae477297f2ec84</title>
<g id="a_node1"><a xlink:href="dir_629222d9fcf2f4ceefae477297f2ec84.html" target="_top" xlink:title="overset">
<polygon fill="#eeeeff" stroke="black" points="155,-252 101,-252 101,-216 155,-216 155,-252"/>
<text text-anchor="middle" x="128" y="-231.5" font-family="Helvetica,sans-Serif" font-size="10.00">overset</text>
</a>
</g>
</g>
<!-- dir_e4cd57caa88bf1f4e1bf9521bc47c3c0 -->
<g id="node2" class="node">
<title>dir_e4cd57caa88bf1f4e1bf9521bc47c3c0</title>
<g id="a_node2"><a xlink:href="dir_e4cd57caa88bf1f4e1bf9521bc47c3c0.html" target="_top" xlink:title="utilities">
<polygon fill="white" stroke="red" points="155,-180 101,-180 101,-144 155,-144 155,-180"/>
<text text-anchor="middle" x="128" y="-159.5" font-family="Helvetica,sans-Serif" font-size="10.00">utilities</text>
</a>
</g>
</g>
<!-- dir_629222d9fcf2f4ceefae477297f2ec84&#45;&gt;dir_e4cd57caa88bf1f4e1bf9521bc47c3c0 -->
<g id="edge1" class="edge">
<title>dir_629222d9fcf2f4ceefae477297f2ec84&#45;&gt;dir_e4cd57caa88bf1f4e1bf9521bc47c3c0</title>
<path fill="none" stroke="black" d="M128,-215.7C128,-207.98 128,-198.71 128,-190.11"/>
<polygon fill="black" stroke="black" points="131.5,-190.1 128,-180.1 124.5,-190.1 131.5,-190.1"/>
<g id="a_edge1&#45;headlabel"><a xlink:href="dir_000043_000010.html" target="_top" xlink:title="1">
<text text-anchor="middle" x="134.34" y="-191.2" font-family="Helvetica,sans-Serif" font-size="10.00">1</text>
</a>
</g>
</g>
<!-- dir_4bb30ed846ea1df1fc4d16874a455d91 -->
<g id="node3" class="node">
<title>dir_4bb30ed846ea1df1fc4d16874a455d91</title>
<g id="a_node3"><a xlink:href="dir_4bb30ed846ea1df1fc4d16874a455d91.html" target="_top" xlink:title="equation_systems">
<polygon fill="white" stroke="red" points="106,-108 0,-108 0,-72 106,-72 106,-108"/>
<text text-anchor="middle" x="53" y="-87.5" font-family="Helvetica,sans-Serif" font-size="10.00">equation_systems</text>
</a>
</g>
</g>
<!-- dir_629222d9fcf2f4ceefae477297f2ec84&#45;&gt;dir_4bb30ed846ea1df1fc4d16874a455d91 -->
<g id="edge2" class="edge">
<title>dir_629222d9fcf2f4ceefae477297f2ec84&#45;&gt;dir_4bb30ed846ea1df1fc4d16874a455d91</title>
<path fill="none" stroke="black" d="M115.16,-215.85C107.89,-205.71 98.89,-192.46 92,-180 80.78,-159.69 70.36,-135.52 63.12,-117.49"/>
<polygon fill="black" stroke="black" points="66.36,-116.19 59.44,-108.17 59.85,-118.76 66.36,-116.19"/>
<g id="a_edge2&#45;headlabel"><a xlink:href="dir_000043_000002.html" target="_top" xlink:title="1">
<text text-anchor="middle" x="70.33" y="-115.99" font-family="Helvetica,sans-Serif" font-size="10.00">1</text>
</a>
</g>
</g>
<!-- dir_3d3615e9a999cab4f3407307569d6ced -->
<g id="node4" class="node">
<title>dir_3d3615e9a999cab4f3407307569d6ced</title>
<g id="a_node4"><a xlink:href="dir_3d3615e9a999cab4f3407307569d6ced.html" target="_top" xlink:title="core">
<polygon fill="white" stroke="red" points="170,-36 116,-36 116,0 170,0 170,-36"/>
<text text-anchor="middle" x="143" y="-15.5" font-family="Helvetica,sans-Serif" font-size="10.00">core</text>
</a>
</g>
</g>
<!-- dir_629222d9fcf2f4ceefae477297f2ec84&#45;&gt;dir_3d3615e9a999cab4f3407307569d6ced -->
<g id="edge3" class="edge">
<title>dir_629222d9fcf2f4ceefae477297f2ec84&#45;&gt;dir_3d3615e9a999cab4f3407307569d6ced</title>
<path fill="none" stroke="black" d="M143.61,-215.77C151.37,-206.03 159.95,-193.18 164,-180 178.06,-134.29 164.26,-78.46 153.36,-46"/>
<polygon fill="black" stroke="black" points="156.57,-44.6 149.95,-36.32 149.97,-46.92 156.57,-44.6"/>
<g id="a_edge3&#45;headlabel"><a xlink:href="dir_000043_000018.html" target="_top" xlink:title="3">
<text text-anchor="middle" x="160.44" y="-44.55" font-family="Helvetica,sans-Serif" font-size="10.00">3</text>
</a>
</g>
</g>
<!-- dir_e4cd57caa88bf1f4e1bf9521bc47c3c0&#45;&gt;dir_4bb30ed846ea1df1fc4d16874a455d91 -->
<g id="edge4" class="edge">
<title>dir_e4cd57caa88bf1f4e1bf9521bc47c3c0&#45;&gt;dir_4bb30ed846ea1df1fc4d16874a455d91</title>
<path fill="none" stroke="black" d="M103.54,-143.7C93.49,-135.14 82.08,-124.66 72.58,-115.3"/>
<polygon fill="black" stroke="black" points="74.96,-112.74 65.43,-108.1 69.99,-117.67 74.96,-112.74"/>
<g id="a_edge4&#45;headlabel"><a xlink:href="dir_000010_000002.html" target="_top" xlink:title="1">
<text text-anchor="middle" x="79.51" y="-110.79" font-family="Helvetica,sans-Serif" font-size="10.00">1</text>
</a>
</g>
</g>
<!-- dir_e4cd57caa88bf1f4e1bf9521bc47c3c0&#45;&gt;dir_3d3615e9a999cab4f3407307569d6ced -->
<g id="edge5" class="edge">
<title>dir_e4cd57caa88bf1f4e1bf9521bc47c3c0&#45;&gt;dir_3d3615e9a999cab4f3407307569d6ced</title>
<path fill="none" stroke="black" d="M125.22,-143.87C125.22,-119.56 129.67,-74.82 134.71,-46.01"/>
<polygon fill="black" stroke="black" points="138.15,-46.67 136.59,-36.19 131.28,-45.35 138.15,-46.67"/>
<g id="a_edge5&#45;headlabel"><a xlink:href="dir_000010_000018.html" target="_top" xlink:title="23">
<text text-anchor="middle" x="140.27" y="-48.23" font-family="Helvetica,sans-Serif" font-size="10.00">23</text>
</a>
</g>
</g>
<!-- dir_4bb30ed846ea1df1fc4d16874a455d91&#45;&gt;dir_e4cd57caa88bf1f4e1bf9521bc47c3c0 -->
<g id="edge7" class="edge">
<title>dir_4bb30ed846ea1df1fc4d16874a455d91&#45;&gt;dir_e4cd57caa88bf1f4e1bf9521bc47c3c0</title>
<path fill="none" stroke="black" d="M77.22,-108.1C87.26,-116.64 98.67,-127.11 108.2,-136.48"/>
<polygon fill="black" stroke="black" points="105.84,-139.07 115.38,-143.7 110.81,-134.14 105.84,-139.07"/>
<g id="a_edge7&#45;headlabel"><a xlink:href="dir_000002_000010.html" target="_top" xlink:title="12">
<text text-anchor="middle" x="101.3" y="-136.02" font-family="Helvetica,sans-Serif" font-size="10.00">12</text>
</a>
</g>
</g>
<!-- dir_4bb30ed846ea1df1fc4d16874a455d91&#45;&gt;dir_3d3615e9a999cab4f3407307569d6ced -->
<g id="edge8" class="edge">
<title>dir_4bb30ed846ea1df1fc4d16874a455d91&#45;&gt;dir_3d3615e9a999cab4f3407307569d6ced</title>
<path fill="none" stroke="black" d="M75.25,-71.7C86.58,-62.88 100.53,-52.03 112.82,-42.47"/>
<polygon fill="black" stroke="black" points="115.26,-45.01 121.01,-36.1 110.97,-39.48 115.26,-45.01"/>
<g id="a_edge8&#45;headlabel"><a xlink:href="dir_000002_000018.html" target="_top" xlink:title="54">
<text text-anchor="middle" x="114.17" y="-46.95" font-family="Helvetica,sans-Serif" font-size="10.00">54</text>
</a>
</g>
</g>
<!-- dir_3d3615e9a999cab4f3407307569d6ced&#45;&gt;dir_e4cd57caa88bf1f4e1bf9521bc47c3c0 -->
<g id="edge6" class="edge">
<title>dir_3d3615e9a999cab4f3407307569d6ced&#45;&gt;dir_e4cd57caa88bf1f4e1bf9521bc47c3c0</title>
<path fill="none" stroke="black" d="M145.78,-36.19C145.77,-60.42 141.36,-104.89 136.34,-133.68"/>
<polygon fill="black" stroke="black" points="132.83,-133.39 134.39,-143.87 139.71,-134.71 132.83,-133.39"/>
<g id="a_edge6&#45;headlabel"><a xlink:href="dir_000018_000010.html" target="_top" xlink:title="1">
<text text-anchor="middle" x="130.72" y="-126.83" font-family="Helvetica,sans-Serif" font-size="10.00">1</text>
</a>
</g>
</g>
</g>
</svg>
