<?xml version="1.0" encoding="UTF-8" standalone="no"?>
<!DOCTYPE svg PUBLIC "-//W3C//DTD SVG 1.1//EN"
 "http://www.w3.org/Graphics/SVG/1.1/DTD/svg11.dtd">
<!-- Generated by graphviz version 2.43.0 (0)
 -->
<!-- Title: physics Pages: 1 -->
<!--zoomable 447 -->
<svg id="main" version="1.1" xmlns="http://www.w3.org/2000/svg" xmlns:xlink="http://www.w3.org/1999/xlink" xml:space="preserve" onload="init(evt)">
<style type="text/css"><![CDATA[
.edge:hover path { stroke: red; }
.edge:hover polygon { stroke: red; fill: red; }
]]></style>
<script type="text/javascript"><![CDATA[
var edges = document.getElementsByTagName('g');
if (edges && edges.length) {
  for (var i=0;i<edges.length;i++) {
    if (edges[i].id.substr(0,4)=='edge') {
      edges[i].setAttribute('class','edge');
    }
  }
}
]]></script>
        <defs>
                <circle id="rim" cx="0" cy="0" r="7"/>
                <circle id="rim2" cx="0" cy="0" r="3.5"/>
                <g id="zoomPlus">
                        <use xlink:href="#rim" fill="#404040">
                                <set attributeName="fill" to="#808080" begin="zoomplus.mouseover" end="zoomplus.mouseout"/>
                        </use>
                        <path d="M-4,0h8M0,-4v8" fill="none" stroke="white" stroke-width="1.5" pointer-events="none"/>
                </g>
                <g id="zoomMin">
                        <use xlink:href="#rim" fill="#404040">
                                <set attributeName="fill" to="#808080" begin="zoomminus.mouseover" end="zoomminus.mouseout"/>
                        </use>
                        <path d="M-4,0h8" fill="none" stroke="white" stroke-width="1.5" pointer-events="none"/>
                </g>
                <g id="dirArrow">
                        <path fill="none" stroke="white" stroke-width="1.5" d="M0,-3.0v7 M-2.5,-0.5L0,-3.0L2.5,-0.5"/>
                </g>
               <g id="resetDef">
                       <use xlink:href="#rim2" fill="#404040">
                               <set attributeName="fill" to="#808080" begin="reset.mouseover" end="reset.mouseout"/>
                       </use>
               </g>
        </defs>

<script type="text/javascript">
var viewWidth = 526;
var viewHeight = 447;
var sectionId = 'dynsection-0';
</script>
<script xlink:href="svgpan.js"/>
<svg id="graph" class="graph">
<g id="viewport">
<title>physics</title>
<polygon fill="white" stroke="transparent" points="-4,4 -4,-443 522,-443 522,4 -4,4"/>
<g id="clust1" class="cluster">
<title>clusterdir_d85575251dd712327fe3cf057fa568b4</title>
<g id="a_clust1"><a xlink:href="dir_d85575251dd712327fe3cf057fa568b4.html" target="_top" xlink:title="amr&#45;wind">
<polygon fill="#ddddee" stroke="black" points="34,-272 34,-431 282,-431 282,-272 34,-272"/>
<text text-anchor="middle" x="158" y="-419" font-family="Helvetica,sans-Serif" font-size="10.00">amr&#45;wind</text>
</a>
</g>
</g>
<g id="clust2" class="cluster">
<title>clusterdir_f2c65bfcbdc19ebacbfc0bbbfb0d01b6</title>
<g id="a_clust2"><a xlink:href="dir_f2c65bfcbdc19ebacbfc0bbbfb0d01b6.html" target="_top">
<polygon fill="#eeeeff" stroke="black" points="42,-280 42,-404 274,-404 274,-280 42,-280"/>
</a>
</g>
</g>
<!-- dir_f2c65bfcbdc19ebacbfc0bbbfb0d01b6 -->
<g id="node1" class="node">
<title>dir_f2c65bfcbdc19ebacbfc0bbbfb0d01b6</title>
<text text-anchor="middle" x="239" y="-375.5" font-family="Helvetica,sans-Serif" font-size="10.00">physics</text>
</g>
<!-- dir_112afea7a726e6a1d518c2be02377acb -->
<g id="node4" class="node">
<title>dir_112afea7a726e6a1d518c2be02377acb</title>
<g id="a_node4"><a xlink:href="dir_112afea7a726e6a1d518c2be02377acb.html" target="_top" xlink:title="udfs">
<polygon fill="white" stroke="black" points="120,-324 66,-324 66,-288 120,-288 120,-324"/>
<text text-anchor="middle" x="93" y="-303.5" font-family="Helvetica,sans-Serif" font-size="10.00">udfs</text>
</a>
</g>
</g>
<!-- dir_f2c65bfcbdc19ebacbfc0bbbfb0d01b6&#45;&gt;dir_112afea7a726e6a1d518c2be02377acb -->
<g id="edge8" class="edge">
<title>dir_f2c65bfcbdc19ebacbfc0bbbfb0d01b6&#45;&gt;dir_112afea7a726e6a1d518c2be02377acb</title>
<path fill="none" stroke="black" d="M211.88,-364C188.67,-352.87 155.06,-336.75 129.49,-324.5"/>
<polygon fill="black" stroke="black" points="131,-321.34 120.47,-320.17 127.97,-327.65 131,-321.34"/>
<g id="a_edge8&#45;headlabel"><a xlink:href="dir_000015_000036.html" target="_top" xlink:title="2">
<text text-anchor="middle" x="135.47" y="-317.83" font-family="Helvetica,sans-Serif" font-size="10.00">2</text>
</a>
</g>
</g>
<!-- dir_9ff815a534beac751fa88e427dbab695 -->
<g id="node5" class="node">
<title>dir_9ff815a534beac751fa88e427dbab695</title>
<g id="a_node5"><a xlink:href="dir_9ff815a534beac751fa88e427dbab695.html" target="_top" xlink:title="turbulence">
<polygon fill="white" stroke="red" points="401,-396 333,-396 333,-360 401,-360 401,-396"/>
<text text-anchor="middle" x="367" y="-375.5" font-family="Helvetica,sans-Serif" font-size="10.00">turbulence</text>
</a>
</g>
</g>
<!-- dir_f2c65bfcbdc19ebacbfc0bbbfb0d01b6&#45;&gt;dir_9ff815a534beac751fa88e427dbab695 -->
<g id="edge7" class="edge">
<title>dir_f2c65bfcbdc19ebacbfc0bbbfb0d01b6&#45;&gt;dir_9ff815a534beac751fa88e427dbab695</title>
<path fill="none" stroke="black" d="M266.5,-378C285.25,-378 303.99,-378 322.74,-378"/>
<polygon fill="black" stroke="black" points="322.85,-381.5 332.85,-378 322.85,-374.5 322.85,-381.5"/>
<g id="a_edge7&#45;headlabel"><a xlink:href="dir_000015_000031.html" target="_top" xlink:title="1">
<text text-anchor="middle" x="319.25" y="-381.84" font-family="Helvetica,sans-Serif" font-size="10.00">1</text>
</a>
</g>
</g>
<!-- dir_0c368f76a33d967d5b838b5681461de6 -->
<g id="node6" class="node">
<title>dir_0c368f76a33d967d5b838b5681461de6</title>
<g id="a_node6"><a xlink:href="dir_0c368f76a33d967d5b838b5681461de6.html" target="_top" xlink:title="wind_energy">
<polygon fill="white" stroke="red" points="297.5,-180 218.5,-180 218.5,-144 297.5,-144 297.5,-180"/>
<text text-anchor="middle" x="258" y="-159.5" font-family="Helvetica,sans-Serif" font-size="10.00">wind_energy</text>
</a>
</g>
</g>
<!-- dir_f2c65bfcbdc19ebacbfc0bbbfb0d01b6&#45;&gt;dir_0c368f76a33d967d5b838b5681461de6 -->
<g id="edge9" class="edge">
<title>dir_f2c65bfcbdc19ebacbfc0bbbfb0d01b6&#45;&gt;dir_0c368f76a33d967d5b838b5681461de6</title>
<path fill="none" stroke="black" d="M248.69,-359.89C261.36,-336.44 282.9,-292.57 291,-252 294.13,-236.31 295.4,-231.38 291,-216 288.29,-206.51 283.33,-197.06 278.07,-188.83"/>
<polygon fill="black" stroke="black" points="280.86,-186.72 272.33,-180.43 275.08,-190.67 280.86,-186.72"/>
<g id="a_edge9&#45;headlabel"><a xlink:href="dir_000015_000001.html" target="_top" xlink:title="1">
<text text-anchor="middle" x="285.23" y="-185.58" font-family="Helvetica,sans-Serif" font-size="10.00">1</text>
</a>
</g>
</g>
<!-- dir_e4cd57caa88bf1f4e1bf9521bc47c3c0 -->
<g id="node7" class="node">
<title>dir_e4cd57caa88bf1f4e1bf9521bc47c3c0</title>
<g id="a_node7"><a xlink:href="dir_e4cd57caa88bf1f4e1bf9521bc47c3c0.html" target="_top" xlink:title="utilities">
<polygon fill="white" stroke="red" points="438,-324 384,-324 384,-288 438,-288 438,-324"/>
<text text-anchor="middle" x="411" y="-303.5" font-family="Helvetica,sans-Serif" font-size="10.00">utilities</text>
</a>
</g>
</g>
<!-- dir_f2c65bfcbdc19ebacbfc0bbbfb0d01b6&#45;&gt;dir_e4cd57caa88bf1f4e1bf9521bc47c3c0 -->
<g id="edge10" class="edge">
<title>dir_f2c65bfcbdc19ebacbfc0bbbfb0d01b6&#45;&gt;dir_e4cd57caa88bf1f4e1bf9521bc47c3c0</title>
<path fill="none" stroke="black" d="M266.12,-366.11C292.64,-355.44 334.13,-338.69 370,-324 371.38,-323.43 372.79,-322.86 374.21,-322.27"/>
<polygon fill="black" stroke="black" points="375.76,-325.42 383.67,-318.37 373.09,-318.95 375.76,-325.42"/>
<g id="a_edge10&#45;headlabel"><a xlink:href="dir_000015_000010.html" target="_top" xlink:title="11">
<text text-anchor="middle" x="373.52" y="-326.92" font-family="Helvetica,sans-Serif" font-size="10.00">11</text>
</a>
</g>
</g>
<!-- dir_cc5375afd167f33c2803dc418e7dff36 -->
<g id="node2" class="node">
<title>dir_cc5375afd167f33c2803dc418e7dff36</title>
<g id="a_node2"><a xlink:href="dir_cc5375afd167f33c2803dc418e7dff36.html" target="_top" xlink:title="mms">
<polygon fill="white" stroke="black" points="104,-396 50,-396 50,-360 104,-360 104,-396"/>
<text text-anchor="middle" x="77" y="-375.5" font-family="Helvetica,sans-Serif" font-size="10.00">mms</text>
</a>
</g>
</g>
<!-- dir_4bb30ed846ea1df1fc4d16874a455d91 -->
<g id="node9" class="node">
<title>dir_4bb30ed846ea1df1fc4d16874a455d91</title>
<g id="a_node9"><a xlink:href="dir_4bb30ed846ea1df1fc4d16874a455d91.html" target="_top" xlink:title="equation_systems">
<polygon fill="white" stroke="red" points="282,-252 176,-252 176,-216 282,-216 282,-252"/>
<text text-anchor="middle" x="229" y="-231.5" font-family="Helvetica,sans-Serif" font-size="10.00">equation_systems</text>
</a>
</g>
</g>
<!-- dir_cc5375afd167f33c2803dc418e7dff36&#45;&gt;dir_4bb30ed846ea1df1fc4d16874a455d91 -->
<g id="edge5" class="edge">
<title>dir_cc5375afd167f33c2803dc418e7dff36&#45;&gt;dir_4bb30ed846ea1df1fc4d16874a455d91</title>
<path fill="none" stroke="black" d="M95.33,-359.87C122.27,-334.71 172.64,-287.65 203.27,-259.04"/>
<polygon fill="black" stroke="black" points="205.68,-261.57 210.6,-252.19 200.9,-256.46 205.68,-261.57"/>
<g id="a_edge5&#45;headlabel"><a xlink:href="dir_000039_000002.html" target="_top" xlink:title="1">
<text text-anchor="middle" x="204.99" y="-263.6" font-family="Helvetica,sans-Serif" font-size="10.00">1</text>
</a>
</g>
</g>
<!-- dir_3d3615e9a999cab4f3407307569d6ced -->
<g id="node10" class="node">
<title>dir_3d3615e9a999cab4f3407307569d6ced</title>
<g id="a_node10"><a xlink:href="dir_3d3615e9a999cab4f3407307569d6ced.html" target="_top" xlink:title="core">
<polygon fill="white" stroke="red" points="257,-36 203,-36 203,0 257,0 257,-36"/>
<text text-anchor="middle" x="230" y="-15.5" font-family="Helvetica,sans-Serif" font-size="10.00">core</text>
</a>
</g>
</g>
<!-- dir_cc5375afd167f33c2803dc418e7dff36&#45;&gt;dir_3d3615e9a999cab4f3407307569d6ced -->
<g id="edge6" class="edge">
<title>dir_cc5375afd167f33c2803dc418e7dff36&#45;&gt;dir_3d3615e9a999cab4f3407307569d6ced</title>
<path fill="none" stroke="black" d="M60.29,-359.81C37.65,-334.62 0,-285.2 0,-235 0,-235 0,-235 0,-161 0,-114.73 17.42,-100.33 54,-72 94.82,-40.39 154.34,-27.56 192.62,-22.41"/>
<polygon fill="black" stroke="black" points="193.33,-25.85 202.82,-21.15 192.47,-18.9 193.33,-25.85"/>
<g id="a_edge6&#45;headlabel"><a xlink:href="dir_000039_000018.html" target="_top" xlink:title="3">
<text text-anchor="middle" x="190.11" y="-26.6" font-family="Helvetica,sans-Serif" font-size="10.00">3</text>
</a>
</g>
</g>
<!-- dir_e037da66ad872c58acfc861df6f5c212 -->
<g id="node3" class="node">
<title>dir_e037da66ad872c58acfc861df6f5c212</title>
<g id="a_node3"><a xlink:href="dir_e037da66ad872c58acfc861df6f5c212.html" target="_top" xlink:title="multiphase">
<polygon fill="white" stroke="red" points="193.5,-396 122.5,-396 122.5,-360 193.5,-360 193.5,-396"/>
<text text-anchor="middle" x="158" y="-375.5" font-family="Helvetica,sans-Serif" font-size="10.00">multiphase</text>
</a>
</g>
</g>
<!-- dir_e037da66ad872c58acfc861df6f5c212&#45;&gt;dir_e4cd57caa88bf1f4e1bf9521bc47c3c0 -->
<g id="edge13" class="edge">
<title>dir_e037da66ad872c58acfc861df6f5c212&#45;&gt;dir_e4cd57caa88bf1f4e1bf9521bc47c3c0</title>
<path fill="none" stroke="black" d="M193.52,-360.15C193.68,-360.1 193.84,-360.05 194,-360 256.02,-340.45 330.14,-322.93 373.89,-313.75"/>
<polygon fill="black" stroke="black" points="374.72,-317.15 383.81,-311.71 373.31,-310.3 374.72,-317.15"/>
<g id="a_edge13&#45;headlabel"><a xlink:href="dir_000021_000010.html" target="_top" xlink:title="1">
<text text-anchor="middle" x="371.77" y="-318.16" font-family="Helvetica,sans-Serif" font-size="10.00">1</text>
</a>
</g>
</g>
<!-- dir_7f7a014517bfe31ea45620a6a947e37b -->
<g id="node8" class="node">
<title>dir_7f7a014517bfe31ea45620a6a947e37b</title>
<g id="a_node8"><a xlink:href="dir_7f7a014517bfe31ea45620a6a947e37b.html" target="_top" xlink:title="fvm">
<polygon fill="none" stroke="black" points="312,-108 258,-108 258,-72 312,-72 312,-108"/>
<text text-anchor="middle" x="285" y="-87.5" font-family="Helvetica,sans-Serif" font-size="10.00">fvm</text>
</a>
</g>
</g>
<!-- dir_e037da66ad872c58acfc861df6f5c212&#45;&gt;dir_7f7a014517bfe31ea45620a6a947e37b -->
<g id="edge14" class="edge">
<title>dir_e037da66ad872c58acfc861df6f5c212&#45;&gt;dir_7f7a014517bfe31ea45620a6a947e37b</title>
<path fill="none" stroke="black" d="M156.31,-359.61C153.96,-329.56 151.59,-266.32 167,-216 177.91,-180.36 184.68,-171.35 210,-144 221.37,-131.72 236.04,-120.59 249.37,-111.74"/>
<polygon fill="black" stroke="black" points="251.38,-114.62 257.9,-106.27 247.59,-108.73 251.38,-114.62"/>
<g id="a_edge14&#45;headlabel"><a xlink:href="dir_000021_000020.html" target="_top" xlink:title="4">
<text text-anchor="middle" x="249.89" y="-116.45" font-family="Helvetica,sans-Serif" font-size="10.00">4</text>
</a>
</g>
</g>
<!-- dir_e037da66ad872c58acfc861df6f5c212&#45;&gt;dir_4bb30ed846ea1df1fc4d16874a455d91 -->
<g id="edge15" class="edge">
<title>dir_e037da66ad872c58acfc861df6f5c212&#45;&gt;dir_4bb30ed846ea1df1fc4d16874a455d91</title>
<path fill="none" stroke="black" d="M174.08,-359.96C182.72,-350.08 193,-337.03 200,-324 210.54,-304.37 218.1,-280.24 222.86,-262.06"/>
<polygon fill="black" stroke="black" points="226.32,-262.67 225.34,-252.12 219.52,-260.98 226.32,-262.67"/>
<g id="a_edge15&#45;headlabel"><a xlink:href="dir_000021_000002.html" target="_top" xlink:title="2">
<text text-anchor="middle" x="228.2" y="-264.35" font-family="Helvetica,sans-Serif" font-size="10.00">2</text>
</a>
</g>
</g>
<!-- dir_e037da66ad872c58acfc861df6f5c212&#45;&gt;dir_3d3615e9a999cab4f3407307569d6ced -->
<g id="edge16" class="edge">
<title>dir_e037da66ad872c58acfc861df6f5c212&#45;&gt;dir_3d3615e9a999cab4f3407307569d6ced</title>
<path fill="none" stroke="black" d="M122.39,-362.2C96.93,-350.92 65.68,-335.44 57,-324 32.56,-291.77 38,-275.45 38,-235 38,-235 38,-235 38,-161 38,-84.7 137.24,-44.71 193.02,-28.26"/>
<polygon fill="black" stroke="black" points="194.23,-31.56 202.9,-25.46 192.32,-24.82 194.23,-31.56"/>
<g id="a_edge16&#45;headlabel"><a xlink:href="dir_000021_000018.html" target="_top" xlink:title="19">
<text text-anchor="middle" x="191.55" y="-32.77" font-family="Helvetica,sans-Serif" font-size="10.00">19</text>
</a>
</g>
</g>
<!-- dir_112afea7a726e6a1d518c2be02377acb&#45;&gt;dir_4bb30ed846ea1df1fc4d16874a455d91 -->
<g id="edge11" class="edge">
<title>dir_112afea7a726e6a1d518c2be02377acb&#45;&gt;dir_4bb30ed846ea1df1fc4d16874a455d91</title>
<path fill="none" stroke="black" d="M120.19,-291C139.19,-281.23 164.92,-267.98 186.59,-256.83"/>
<polygon fill="black" stroke="black" points="188.31,-259.88 195.59,-252.19 185.1,-253.66 188.31,-259.88"/>
<g id="a_edge11&#45;headlabel"><a xlink:href="dir_000036_000002.html" target="_top" xlink:title="1">
<text text-anchor="middle" x="186.41" y="-261.55" font-family="Helvetica,sans-Serif" font-size="10.00">1</text>
</a>
</g>
</g>
<!-- dir_112afea7a726e6a1d518c2be02377acb&#45;&gt;dir_3d3615e9a999cab4f3407307569d6ced -->
<g id="edge12" class="edge">
<title>dir_112afea7a726e6a1d518c2be02377acb&#45;&gt;dir_3d3615e9a999cab4f3407307569d6ced</title>
<path fill="none" stroke="black" d="M101.16,-287.97C124.14,-239.99 189.52,-103.5 217.29,-45.54"/>
<polygon fill="black" stroke="black" points="220.55,-46.84 221.71,-36.31 214.23,-43.81 220.55,-46.84"/>
<g id="a_edge12&#45;headlabel"><a xlink:href="dir_000036_000018.html" target="_top" xlink:title="8">
<text text-anchor="middle" x="221.55" y="-48.81" font-family="Helvetica,sans-Serif" font-size="10.00">8</text>
</a>
</g>
</g>
<!-- dir_9ff815a534beac751fa88e427dbab695&#45;&gt;dir_e4cd57caa88bf1f4e1bf9521bc47c3c0 -->
<g id="edge1" class="edge">
<title>dir_9ff815a534beac751fa88e427dbab695&#45;&gt;dir_e4cd57caa88bf1f4e1bf9521bc47c3c0</title>
<path fill="none" stroke="black" d="M377.88,-359.7C382.99,-351.56 389.2,-341.69 394.84,-332.7"/>
<polygon fill="black" stroke="black" points="397.89,-334.43 400.25,-324.1 391.96,-330.71 397.89,-334.43"/>
<g id="a_edge1&#45;headlabel"><a xlink:href="dir_000031_000010.html" target="_top" xlink:title="1">
<text text-anchor="middle" x="398.38" y="-336.49" font-family="Helvetica,sans-Serif" font-size="10.00">1</text>
</a>
</g>
</g>
<!-- dir_9ff815a534beac751fa88e427dbab695&#45;&gt;dir_7f7a014517bfe31ea45620a6a947e37b -->
<g id="edge2" class="edge">
<title>dir_9ff815a534beac751fa88e427dbab695&#45;&gt;dir_7f7a014517bfe31ea45620a6a947e37b</title>
<path fill="none" stroke="black" d="M401.08,-363.77C418.15,-355.2 437.23,-342.2 447,-324 457.93,-303.64 454.83,-293.74 447,-272 422.31,-203.48 357.2,-145.03 317.44,-114.25"/>
<polygon fill="black" stroke="black" points="319.45,-111.38 309.37,-108.11 315.21,-116.95 319.45,-111.38"/>
<g id="a_edge2&#45;headlabel"><a xlink:href="dir_000031_000020.html" target="_top" xlink:title="8">
<text text-anchor="middle" x="324.03" y="-108.79" font-family="Helvetica,sans-Serif" font-size="10.00">8</text>
</a>
</g>
</g>
<!-- dir_9ff815a534beac751fa88e427dbab695&#45;&gt;dir_4bb30ed846ea1df1fc4d16874a455d91 -->
<g id="edge4" class="edge">
<title>dir_9ff815a534beac751fa88e427dbab695&#45;&gt;dir_4bb30ed846ea1df1fc4d16874a455d91</title>
<path fill="none" stroke="black" d="M347.92,-359.62C328.78,-337.93 298.87,-300.23 269,-272 264.12,-267.39 258.67,-262.8 253.37,-258.51"/>
<polygon fill="black" stroke="black" points="255.26,-255.54 245.26,-252.06 250.9,-261.02 255.26,-255.54"/>
<g id="a_edge4&#45;headlabel"><a xlink:href="dir_000031_000002.html" target="_top" xlink:title="11">
<text text-anchor="middle" x="259.84" y="-253.06" font-family="Helvetica,sans-Serif" font-size="10.00">11</text>
</a>
</g>
</g>
<!-- dir_9ff815a534beac751fa88e427dbab695&#45;&gt;dir_3d3615e9a999cab4f3407307569d6ced -->
<g id="edge3" class="edge">
<title>dir_9ff815a534beac751fa88e427dbab695&#45;&gt;dir_3d3615e9a999cab4f3407307569d6ced</title>
<path fill="none" stroke="black" d="M401.26,-362.98C445.82,-342.19 518,-298.7 518,-235 518,-235 518,-235 518,-161 518,-50.52 345.41,-25.99 267.44,-20.55"/>
<polygon fill="black" stroke="black" points="267.29,-17.04 257.09,-19.9 266.86,-24.02 267.29,-17.04"/>
<g id="a_edge3&#45;headlabel"><a xlink:href="dir_000031_000018.html" target="_top" xlink:title="5">
<text text-anchor="middle" x="271.06" y="-11.93" font-family="Helvetica,sans-Serif" font-size="10.00">5</text>
</a>
</g>
</g>
<!-- dir_0c368f76a33d967d5b838b5681461de6&#45;&gt;dir_e4cd57caa88bf1f4e1bf9521bc47c3c0 -->
<g id="edge17" class="edge">
<title>dir_0c368f76a33d967d5b838b5681461de6&#45;&gt;dir_e4cd57caa88bf1f4e1bf9521bc47c3c0</title>
<path fill="none" stroke="black" d="M280.55,-180.02C293.57,-190.11 310.07,-203.36 324,-216 346.83,-236.7 371.22,-261.96 388.35,-280.28"/>
<polygon fill="black" stroke="black" points="385.85,-282.73 395.23,-287.67 390.98,-277.96 385.85,-282.73"/>
<g id="a_edge17&#45;headlabel"><a xlink:href="dir_000001_000010.html" target="_top" xlink:title="39">
<text text-anchor="middle" x="381.33" y="-279.53" font-family="Helvetica,sans-Serif" font-size="10.00">39</text>
</a>
</g>
</g>
<!-- dir_0c368f76a33d967d5b838b5681461de6&#45;&gt;dir_7f7a014517bfe31ea45620a6a947e37b -->
<g id="edge18" class="edge">
<title>dir_0c368f76a33d967d5b838b5681461de6&#45;&gt;dir_7f7a014517bfe31ea45620a6a947e37b</title>
<path fill="none" stroke="black" d="M264.67,-143.7C267.71,-135.81 271.38,-126.3 274.76,-117.55"/>
<polygon fill="black" stroke="black" points="278.07,-118.69 278.4,-108.1 271.54,-116.17 278.07,-118.69"/>
<g id="a_edge18&#45;headlabel"><a xlink:href="dir_000001_000020.html" target="_top" xlink:title="1">
<text text-anchor="middle" x="279.42" y="-120.57" font-family="Helvetica,sans-Serif" font-size="10.00">1</text>
</a>
</g>
</g>
<!-- dir_0c368f76a33d967d5b838b5681461de6&#45;&gt;dir_4bb30ed846ea1df1fc4d16874a455d91 -->
<g id="edge19" class="edge">
<title>dir_0c368f76a33d967d5b838b5681461de6&#45;&gt;dir_4bb30ed846ea1df1fc4d16874a455d91</title>
<path fill="none" stroke="black" d="M256.81,-180.1C254.35,-188.04 250.59,-197.67 246.54,-206.51"/>
<polygon fill="black" stroke="black" points="243.3,-205.17 242.08,-215.7 249.6,-208.23 243.3,-205.17"/>
<g id="a_edge19&#45;headlabel"><a xlink:href="dir_000001_000002.html" target="_top" xlink:title="4">
<text text-anchor="middle" x="242.32" y="-198.2" font-family="Helvetica,sans-Serif" font-size="10.00">4</text>
</a>
</g>
</g>
<!-- dir_0c368f76a33d967d5b838b5681461de6&#45;&gt;dir_3d3615e9a999cab4f3407307569d6ced -->
<g id="edge20" class="edge">
<title>dir_0c368f76a33d967d5b838b5681461de6&#45;&gt;dir_3d3615e9a999cab4f3407307569d6ced</title>
<path fill="none" stroke="black" d="M254.62,-143.87C249.83,-119.56 241.01,-74.82 235.33,-46.01"/>
<polygon fill="black" stroke="black" points="238.76,-45.32 233.39,-36.19 231.89,-46.68 238.76,-45.32"/>
<g id="a_edge20&#45;headlabel"><a xlink:href="dir_000001_000018.html" target="_top" xlink:title="32">
<text text-anchor="middle" x="242.24" y="-45.8" font-family="Helvetica,sans-Serif" font-size="10.00">32</text>
</a>
</g>
</g>
<!-- dir_e4cd57caa88bf1f4e1bf9521bc47c3c0&#45;&gt;dir_e037da66ad872c58acfc861df6f5c212 -->
<g id="edge21" class="edge">
<title>dir_e4cd57caa88bf1f4e1bf9521bc47c3c0&#45;&gt;dir_e037da66ad872c58acfc861df6f5c212</title>
<path fill="none" stroke="black" d="M383.85,-314.31C345.16,-323.63 272.78,-340.84 212,-360 209.15,-360.9 206.21,-361.88 203.24,-362.9"/>
<polygon fill="black" stroke="black" points="202,-359.63 193.74,-366.26 204.33,-366.23 202,-359.63"/>
<g id="a_edge21&#45;headlabel"><a xlink:href="dir_000010_000021.html" target="_top" xlink:title="1">
<text text-anchor="middle" x="204.45" y="-353.25" font-family="Helvetica,sans-Serif" font-size="10.00">1</text>
</a>
</g>
</g>
<!-- dir_e4cd57caa88bf1f4e1bf9521bc47c3c0&#45;&gt;dir_7f7a014517bfe31ea45620a6a947e37b -->
<g id="edge22" class="edge">
<title>dir_e4cd57caa88bf1f4e1bf9521bc47c3c0&#45;&gt;dir_7f7a014517bfe31ea45620a6a947e37b</title>
<path fill="none" stroke="black" d="M400.9,-287.85C378.88,-250.44 326.4,-161.32 300.3,-116.98"/>
<polygon fill="black" stroke="black" points="303.24,-115.07 295.15,-108.23 297.2,-118.63 303.24,-115.07"/>
<g id="a_edge22&#45;headlabel"><a xlink:href="dir_000010_000020.html" target="_top" xlink:title="2">
<text text-anchor="middle" x="307.51" y="-114.23" font-family="Helvetica,sans-Serif" font-size="10.00">2</text>
</a>
</g>
</g>
<!-- dir_e4cd57caa88bf1f4e1bf9521bc47c3c0&#45;&gt;dir_4bb30ed846ea1df1fc4d16874a455d91 -->
<g id="edge23" class="edge">
<title>dir_e4cd57caa88bf1f4e1bf9521bc47c3c0&#45;&gt;dir_4bb30ed846ea1df1fc4d16874a455d91</title>
<path fill="none" stroke="black" d="M383.65,-296.31C366.08,-289.48 343.23,-279.85 323,-272 308.82,-266.5 293.45,-260.82 279.28,-255.61"/>
<polygon fill="black" stroke="black" points="280.28,-252.25 269.69,-252.09 277.87,-258.82 280.28,-252.25"/>
<g id="a_edge23&#45;headlabel"><a xlink:href="dir_000010_000002.html" target="_top" xlink:title="1">
<text text-anchor="middle" x="284.64" y="-248.33" font-family="Helvetica,sans-Serif" font-size="10.00">1</text>
</a>
</g>
</g>
<!-- dir_e4cd57caa88bf1f4e1bf9521bc47c3c0&#45;&gt;dir_3d3615e9a999cab4f3407307569d6ced -->
<g id="edge24" class="edge">
<title>dir_e4cd57caa88bf1f4e1bf9521bc47c3c0&#45;&gt;dir_3d3615e9a999cab4f3407307569d6ced</title>
<path fill="none" stroke="black" d="M404.08,-287.98C392.79,-246.4 370.32,-138.22 312,-72 299.37,-57.66 281.89,-46.2 266.24,-37.65"/>
<polygon fill="black" stroke="black" points="267.76,-34.5 257.28,-32.96 264.51,-40.7 267.76,-34.5"/>
<g id="a_edge24&#45;headlabel"><a xlink:href="dir_000010_000018.html" target="_top" xlink:title="23">
<text text-anchor="middle" x="272.27" y="-31.16" font-family="Helvetica,sans-Serif" font-size="10.00">23</text>
</a>
</g>
</g>
<!-- dir_7f7a014517bfe31ea45620a6a947e37b&#45;&gt;dir_3d3615e9a999cab4f3407307569d6ced -->
<g id="edge25" class="edge">
<title>dir_7f7a014517bfe31ea45620a6a947e37b&#45;&gt;dir_3d3615e9a999cab4f3407307569d6ced</title>
<path fill="none" stroke="black" d="M271.4,-71.7C264.88,-63.39 256.93,-53.28 249.75,-44.14"/>
<polygon fill="black" stroke="black" points="252.37,-41.81 243.44,-36.1 246.87,-46.13 252.37,-41.81"/>
<g id="a_edge25&#45;headlabel"><a xlink:href="dir_000020_000018.html" target="_top" xlink:title="1">
<text text-anchor="middle" x="256.82" y="-40.38" font-family="Helvetica,sans-Serif" font-size="10.00">1</text>
</a>
</g>
</g>
<!-- dir_4bb30ed846ea1df1fc4d16874a455d91&#45;&gt;dir_e037da66ad872c58acfc861df6f5c212 -->
<g id="edge28" class="edge">
<title>dir_4bb30ed846ea1df1fc4d16874a455d91&#45;&gt;dir_e037da66ad872c58acfc861df6f5c212</title>
<path fill="none" stroke="black" d="M231.98,-252.14C234.38,-270.88 235.68,-301.29 224,-324 217.95,-335.75 208.01,-345.79 197.65,-353.87"/>
<polygon fill="black" stroke="black" points="195.35,-351.21 189.32,-359.92 199.47,-356.87 195.35,-351.21"/>
<g id="a_edge28&#45;headlabel"><a xlink:href="dir_000002_000021.html" target="_top" xlink:title="2">
<text text-anchor="middle" x="196.59" y="-344.3" font-family="Helvetica,sans-Serif" font-size="10.00">2</text>
</a>
</g>
</g>
<!-- dir_4bb30ed846ea1df1fc4d16874a455d91&#45;&gt;dir_9ff815a534beac751fa88e427dbab695 -->
<g id="edge27" class="edge">
<title>dir_4bb30ed846ea1df1fc4d16874a455d91&#45;&gt;dir_9ff815a534beac751fa88e427dbab695</title>
<path fill="none" stroke="black" d="M262.31,-252.06C270.81,-258.01 279.56,-264.97 287,-272 313.25,-296.81 339.54,-328.94 354.81,-351.08"/>
<polygon fill="black" stroke="black" points="352.02,-353.22 360.46,-359.62 357.86,-349.35 352.02,-353.22"/>
<g id="a_edge27&#45;headlabel"><a xlink:href="dir_000002_000031.html" target="_top" xlink:title="4">
<text text-anchor="middle" x="347.67" y="-349.29" font-family="Helvetica,sans-Serif" font-size="10.00">4</text>
</a>
</g>
</g>
<!-- dir_4bb30ed846ea1df1fc4d16874a455d91&#45;&gt;dir_0c368f76a33d967d5b838b5681461de6 -->
<g id="edge29" class="edge">
<title>dir_4bb30ed846ea1df1fc4d16874a455d91&#45;&gt;dir_0c368f76a33d967d5b838b5681461de6</title>
<path fill="none" stroke="black" d="M230.25,-215.7C232.73,-207.73 236.51,-198.1 240.56,-189.26"/>
<polygon fill="black" stroke="black" points="243.79,-190.63 245.02,-180.1 237.49,-187.56 243.79,-190.63"/>
<g id="a_edge29&#45;headlabel"><a xlink:href="dir_000002_000001.html" target="_top" xlink:title="3">
<text text-anchor="middle" x="244.77" y="-192.6" font-family="Helvetica,sans-Serif" font-size="10.00">3</text>
</a>
</g>
</g>
<!-- dir_4bb30ed846ea1df1fc4d16874a455d91&#45;&gt;dir_e4cd57caa88bf1f4e1bf9521bc47c3c0 -->
<g id="edge30" class="edge">
<title>dir_4bb30ed846ea1df1fc4d16874a455d91&#45;&gt;dir_e4cd57caa88bf1f4e1bf9521bc47c3c0</title>
<path fill="none" stroke="black" d="M282.14,-250.53C300.94,-256.97 322.05,-264.64 341,-272 351.93,-276.24 363.62,-281 374.3,-285.56"/>
<polygon fill="black" stroke="black" points="373.22,-288.9 383.78,-289.66 376,-282.48 373.22,-288.9"/>
<g id="a_edge30&#45;headlabel"><a xlink:href="dir_000002_000010.html" target="_top" xlink:title="12">
<text text-anchor="middle" x="368.79" y="-287.58" font-family="Helvetica,sans-Serif" font-size="10.00">12</text>
</a>
</g>
</g>
<!-- dir_4bb30ed846ea1df1fc4d16874a455d91&#45;&gt;dir_3d3615e9a999cab4f3407307569d6ced -->
<g id="edge31" class="edge">
<title>dir_4bb30ed846ea1df1fc4d16874a455d91&#45;&gt;dir_3d3615e9a999cab4f3407307569d6ced</title>
<path fill="none" stroke="black" d="M221.11,-215.75C216.89,-205.58 212.14,-192.33 210,-180 201.85,-133.13 213.16,-78.02 221.8,-45.95"/>
<polygon fill="black" stroke="black" points="225.26,-46.58 224.6,-36 218.52,-44.68 225.26,-46.58"/>
<g id="a_edge31&#45;headlabel"><a xlink:href="dir_000002_000018.html" target="_top" xlink:title="54">
<text text-anchor="middle" x="227.02" y="-48.3" font-family="Helvetica,sans-Serif" font-size="10.00">54</text>
</a>
</g>
</g>
<!-- dir_3d3615e9a999cab4f3407307569d6ced&#45;&gt;dir_e4cd57caa88bf1f4e1bf9521bc47c3c0 -->
<g id="edge26" class="edge">
<title>dir_3d3615e9a999cab4f3407307569d6ced&#45;&gt;dir_e4cd57caa88bf1f4e1bf9521bc47c3c0</title>
<path fill="none" stroke="black" d="M257.02,-26.35C279.57,-34.64 310.55,-49.91 330,-72 384.11,-133.44 407.36,-230.98 412.23,-277.96"/>
<polygon fill="black" stroke="black" points="408.74,-278.29 413.04,-287.98 415.72,-277.73 408.74,-278.29"/>
<g id="a_edge26&#45;headlabel"><a xlink:href="dir_000018_000010.html" target="_top" xlink:title="1">
<text text-anchor="middle" x="405.62" y="-272.44" font-family="Helvetica,sans-Serif" font-size="10.00">1</text>
</a>
</g>
</g>
</g>
</svg>
        <g id="navigator" transform="translate(0 0)" fill="#404254">
                <rect fill="#f2f5e9" fill-opacity="0.5" stroke="#606060" stroke-width=".5" x="0" y="0" width="60" height="60"/>
                <use id="zoomplus" xlink:href="#zoomPlus" x="17" y="9" onmousedown="handleZoom(evt,'in')"/>
                <use id="zoomminus" xlink:href="#zoomMin" x="42" y="9" onmousedown="handleZoom(evt,'out')"/>
                <use id="reset" xlink:href="#resetDef" x="30" y="36" onmousedown="handleReset()"/>
                <g id="arrowUp" xlink:href="#dirArrow" transform="translate(30 24)" onmousedown="handlePan(0,-1)">
                  <use xlink:href="#rim" fill="#404040">
                        <set attributeName="fill" to="#808080" begin="arrowUp.mouseover" end="arrowUp.mouseout"/>
                  </use>
                  <path fill="none" stroke="white" stroke-width="1.5" d="M0,-3.0v7 M-2.5,-0.5L0,-3.0L2.5,-0.5"/>
                </g>
                <g id="arrowRight" xlink:href="#dirArrow" transform="rotate(90) translate(36 -43)" onmousedown="handlePan(1,0)">
                  <use xlink:href="#rim" fill="#404040">
                        <set attributeName="fill" to="#808080" begin="arrowRight.mouseover" end="arrowRight.mouseout"/>
                  </use>
                  <path fill="none" stroke="white" stroke-width="1.5" d="M0,-3.0v7 M-2.5,-0.5L0,-3.0L2.5,-0.5"/>
                </g>
                <g id="arrowDown" xlink:href="#dirArrow" transform="rotate(180) translate(-30 -48)" onmousedown="handlePan(0,1)">
                  <use xlink:href="#rim" fill="#404040">
                        <set attributeName="fill" to="#808080" begin="arrowDown.mouseover" end="arrowDown.mouseout"/>
                  </use>
                  <path fill="none" stroke="white" stroke-width="1.5" d="M0,-3.0v7 M-2.5,-0.5L0,-3.0L2.5,-0.5"/>
                </g>
                <g id="arrowLeft" xlink:href="#dirArrow" transform="rotate(270) translate(-36 17)" onmousedown="handlePan(-1,0)">
                  <use xlink:href="#rim" fill="#404040">
                        <set attributeName="fill" to="#808080" begin="arrowLeft.mouseover" end="arrowLeft.mouseout"/>
                  </use>
                  <path fill="none" stroke="white" stroke-width="1.5" d="M0,-3.0v7 M-2.5,-0.5L0,-3.0L2.5,-0.5"/>
                </g>
        </g>
        <svg viewBox="0 0 15 15" width="100%" height="30px" preserveAspectRatio="xMaxYMin meet">
         <g id="arrow_out" transform="scale(0.3 0.3)">
          <a xlink:href="dir_f2c65bfcbdc19ebacbfc0bbbfb0d01b6_dep_org.svg" target="_base">
           <rect id="button" ry="5" rx="5" y="6" x="6" height="38" width="38"
                fill="#f2f5e9" fill-opacity="0.5" stroke="#606060" stroke-width="1.0"/>
           <path id="arrow"
             d="M 11.500037,31.436501 C 11.940474,20.09759 22.043105,11.32322 32.158766,21.979434 L 37.068811,17.246167 C 37.068811,17.246167 37.088388,32 37.088388,32 L 22.160133,31.978069 C 22.160133,31.978069 26.997745,27.140456 26.997745,27.140456 C 18.528582,18.264221 13.291696,25.230495 11.500037,31.436501 z"
             style="fill:#404040;"/>
          </a>
         </g>
        </svg>
</svg>
