<?xml version="1.0" encoding="UTF-8" standalone="no"?>
<!DOCTYPE svg PUBLIC "-//W3C//DTD SVG 1.1//EN"
 "http://www.w3.org/Graphics/SVG/1.1/DTD/svg11.dtd">
<!-- Generated by graphviz version 2.43.0 (0)
 -->
<!-- Title: utilities Pages: 1 -->
<!--zoomable 251 -->
<svg id="main" version="1.1" xmlns="http://www.w3.org/2000/svg" xmlns:xlink="http://www.w3.org/1999/xlink" xml:space="preserve" onload="init(evt)">
<style type="text/css"><![CDATA[
.edge:hover path { stroke: red; }
.edge:hover polygon { stroke: red; fill: red; }
]]></style>
<script type="text/javascript"><![CDATA[
var edges = document.getElementsByTagName('g');
if (edges && edges.length) {
  for (var i=0;i<edges.length;i++) {
    if (edges[i].id.substr(0,4)=='edge') {
      edges[i].setAttribute('class','edge');
    }
  }
}
]]></script>
        <defs>
                <circle id="rim" cx="0" cy="0" r="7"/>
                <circle id="rim2" cx="0" cy="0" r="3.5"/>
                <g id="zoomPlus">
                        <use xlink:href="#rim" fill="#404040">
                                <set attributeName="fill" to="#808080" begin="zoomplus.mouseover" end="zoomplus.mouseout"/>
                        </use>
                        <path d="M-4,0h8M0,-4v8" fill="none" stroke="white" stroke-width="1.5" pointer-events="none"/>
                </g>
                <g id="zoomMin">
                        <use xlink:href="#rim" fill="#404040">
                                <set attributeName="fill" to="#808080" begin="zoomminus.mouseover" end="zoomminus.mouseout"/>
                        </use>
                        <path d="M-4,0h8" fill="none" stroke="white" stroke-width="1.5" pointer-events="none"/>
                </g>
                <g id="dirArrow">
                        <path fill="none" stroke="white" stroke-width="1.5" d="M0,-3.0v7 M-2.5,-0.5L0,-3.0L2.5,-0.5"/>
                </g>
               <g id="resetDef">
                       <use xlink:href="#rim2" fill="#404040">
                               <set attributeName="fill" to="#808080" begin="reset.mouseover" end="reset.mouseout"/>
                       </use>
               </g>
        </defs>

<script type="text/javascript">
var viewWidth = 532;
var viewHeight = 251;
var sectionId = 'dynsection-0';
</script>
<script xlink:href="svgpan.js"/>
<svg id="graph" class="graph">
<g id="viewport">
<title>utilities</title>
<polygon fill="white" stroke="transparent" points="-4,4 -4,-247.05 527.7,-247.05 527.7,4 -4,4"/>
<g id="clust1" class="cluster">
<title>clusterdir_d85575251dd712327fe3cf057fa568b4</title>
<g id="a_clust1"><a xlink:href="dir_d85575251dd712327fe3cf057fa568b4.html" target="_top" xlink:title="amr&#45;wind">
<polygon fill="#ddddee" stroke="black" points="8,-56 8,-215 318,-215 318,-56 8,-56"/>
<text text-anchor="middle" x="163" y="-203" font-family="Helvetica,sans-Serif" font-size="10.00">amr&#45;wind</text>
</a>
</g>
</g>
<g id="clust2" class="cluster">
<title>clusterdir_e4cd57caa88bf1f4e1bf9521bc47c3c0</title>
<g id="a_clust2"><a xlink:href="dir_e4cd57caa88bf1f4e1bf9521bc47c3c0.html" target="_top">
<polygon fill="#eeeeff" stroke="black" points="16,-64 16,-188 310,-188 310,-64 16,-64"/>
</a>
</g>
</g>
<!-- dir_e4cd57caa88bf1f4e1bf9521bc47c3c0 -->
<g id="node1" class="node">
<title>dir_e4cd57caa88bf1f4e1bf9521bc47c3c0</title>
<text text-anchor="middle" x="275" y="-159.5" font-family="Helvetica,sans-Serif" font-size="10.00">utilities</text>
</g>
<!-- dir_a925f5bb87732fc4d72dcc12cc6db92b -->
<g id="node3" class="node">
<title>dir_a925f5bb87732fc4d72dcc12cc6db92b</title>
<g id="a_node3"><a xlink:href="dir_a925f5bb87732fc4d72dcc12cc6db92b.html" target="_top" xlink:title="averaging">
<polygon fill="white" stroke="black" points="301.5,-108 236.5,-108 236.5,-72 301.5,-72 301.5,-108"/>
<text text-anchor="middle" x="269" y="-87.5" font-family="Helvetica,sans-Serif" font-size="10.00">averaging</text>
</a>
</g>
</g>
<!-- dir_e4cd57caa88bf1f4e1bf9521bc47c3c0&#45;&gt;dir_a925f5bb87732fc4d72dcc12cc6db92b -->
<g id="edge13" class="edge">
<title>dir_e4cd57caa88bf1f4e1bf9521bc47c3c0&#45;&gt;dir_a925f5bb87732fc4d72dcc12cc6db92b</title>
<path fill="none" stroke="black" d="M273.52,-143.7C272.86,-135.98 272.06,-126.71 271.32,-118.11"/>
<polygon fill="black" stroke="black" points="274.81,-117.77 270.47,-108.1 267.83,-118.37 274.81,-117.77"/>
<g id="a_edge13&#45;headlabel"><a xlink:href="dir_000010_000044.html" target="_top" xlink:title="1">
<text text-anchor="middle" x="277.94" y="-118.61" font-family="Helvetica,sans-Serif" font-size="10.00">1</text>
</a>
</g>
</g>
<!-- dir_cabce38f77158481c263d4f5d6890a8c -->
<g id="node2" class="node">
<title>dir_cabce38f77158481c263d4f5d6890a8c</title>
<g id="a_node2"><a xlink:href="dir_cabce38f77158481c263d4f5d6890a8c.html" target="_top" xlink:title="ascent">
<polygon fill="white" stroke="black" points="230,-180 176,-180 176,-144 230,-144 230,-180"/>
<text text-anchor="middle" x="203" y="-159.5" font-family="Helvetica,sans-Serif" font-size="10.00">ascent</text>
</a>
</g>
</g>
<!-- dir_3d3615e9a999cab4f3407307569d6ced -->
<g id="node10" class="node">
<title>dir_3d3615e9a999cab4f3407307569d6ced</title>
<g id="a_node10"><a xlink:href="dir_3d3615e9a999cab4f3407307569d6ced.html" target="_top" xlink:title="core">
<polygon fill="white" stroke="red" points="338,-36 284,-36 284,0 338,0 338,-36"/>
<text text-anchor="middle" x="311" y="-15.5" font-family="Helvetica,sans-Serif" font-size="10.00">core</text>
</a>
</g>
</g>
<!-- dir_a925f5bb87732fc4d72dcc12cc6db92b&#45;&gt;dir_3d3615e9a999cab4f3407307569d6ced -->
<g id="edge12" class="edge">
<title>dir_a925f5bb87732fc4d72dcc12cc6db92b&#45;&gt;dir_3d3615e9a999cab4f3407307569d6ced</title>
<path fill="none" stroke="black" d="M279.38,-71.7C284.26,-63.56 290.19,-53.69 295.58,-44.7"/>
<polygon fill="black" stroke="black" points="298.59,-46.48 300.74,-36.1 292.59,-42.88 298.59,-46.48"/>
<g id="a_edge12&#45;headlabel"><a xlink:href="dir_000044_000018.html" target="_top" xlink:title="5">
<text text-anchor="middle" x="299.18" y="-48.52" font-family="Helvetica,sans-Serif" font-size="10.00">5</text>
</a>
</g>
</g>
<!-- dir_e4878a39f7a1ff4e13f4c83bf1db7931 -->
<g id="node4" class="node">
<title>dir_e4878a39f7a1ff4e13f4c83bf1db7931</title>
<g id="a_node4"><a xlink:href="dir_e4878a39f7a1ff4e13f4c83bf1db7931.html" target="_top" xlink:title="ncutils">
<polygon fill="white" stroke="black" points="214,-108 160,-108 160,-72 214,-72 214,-108"/>
<text text-anchor="middle" x="187" y="-87.5" font-family="Helvetica,sans-Serif" font-size="10.00">ncutils</text>
</a>
</g>
</g>
<!-- dir_0ad5cc9f0732862bd2f85bb38c1084f0 -->
<g id="node5" class="node">
<title>dir_0ad5cc9f0732862bd2f85bb38c1084f0</title>
<g id="a_node5"><a xlink:href="dir_0ad5cc9f0732862bd2f85bb38c1084f0.html" target="_top" xlink:title="sampling">
<polygon fill="white" stroke="black" points="158,-180 96,-180 96,-144 158,-144 158,-180"/>
<text text-anchor="middle" x="127" y="-159.5" font-family="Helvetica,sans-Serif" font-size="10.00">sampling</text>
</a>
</g>
</g>
<!-- dir_0ad5cc9f0732862bd2f85bb38c1084f0&#45;&gt;dir_e4878a39f7a1ff4e13f4c83bf1db7931 -->
<g id="edge8" class="edge">
<title>dir_0ad5cc9f0732862bd2f85bb38c1084f0&#45;&gt;dir_e4878a39f7a1ff4e13f4c83bf1db7931</title>
<path fill="none" stroke="black" d="M141.83,-143.7C149.02,-135.3 157.8,-125.07 165.69,-115.86"/>
<polygon fill="black" stroke="black" points="168.49,-117.97 172.34,-108.1 163.17,-113.42 168.49,-117.97"/>
<g id="a_edge8&#45;headlabel"><a xlink:href="dir_000024_000040.html" target="_top" xlink:title="7">
<text text-anchor="middle" x="168.31" y="-120.05" font-family="Helvetica,sans-Serif" font-size="10.00">7</text>
</a>
</g>
</g>
<!-- dir_f2c65bfcbdc19ebacbfc0bbbfb0d01b6 -->
<g id="node7" class="node">
<title>dir_f2c65bfcbdc19ebacbfc0bbbfb0d01b6</title>
<g id="a_node7"><a xlink:href="dir_f2c65bfcbdc19ebacbfc0bbbfb0d01b6.html" target="_top" xlink:title="physics">
<polygon fill="white" stroke="red" points="380,-180 326,-180 326,-144 380,-144 380,-180"/>
<text text-anchor="middle" x="353" y="-159.5" font-family="Helvetica,sans-Serif" font-size="10.00">physics</text>
</a>
</g>
</g>
<!-- dir_0ad5cc9f0732862bd2f85bb38c1084f0&#45;&gt;dir_f2c65bfcbdc19ebacbfc0bbbfb0d01b6 -->
<g id="edge7" class="edge">
<title>dir_0ad5cc9f0732862bd2f85bb38c1084f0&#45;&gt;dir_f2c65bfcbdc19ebacbfc0bbbfb0d01b6</title>
<path fill="none" stroke="black" d="M133.69,-180.09C141.12,-197.22 154.91,-221.93 176,-233 201.38,-246.32 279.68,-246.44 305,-233 322.3,-223.81 334.51,-205.29 342.28,-189.47"/>
<polygon fill="black" stroke="black" points="345.59,-190.63 346.55,-180.08 339.22,-187.73 345.59,-190.63"/>
<g id="a_edge7&#45;headlabel"><a xlink:href="dir_000024_000015.html" target="_top" xlink:title="1">
<text text-anchor="middle" x="346.69" y="-192.58" font-family="Helvetica,sans-Serif" font-size="10.00">1</text>
</a>
</g>
</g>
<!-- dir_7f7a014517bfe31ea45620a6a947e37b -->
<g id="node8" class="node">
<title>dir_7f7a014517bfe31ea45620a6a947e37b</title>
<g id="a_node8"><a xlink:href="dir_7f7a014517bfe31ea45620a6a947e37b.html" target="_top" xlink:title="fvm">
<polygon fill="none" stroke="black" points="380,-108 326,-108 326,-72 380,-72 380,-108"/>
<text text-anchor="middle" x="353" y="-87.5" font-family="Helvetica,sans-Serif" font-size="10.00">fvm</text>
</a>
</g>
</g>
<!-- dir_0ad5cc9f0732862bd2f85bb38c1084f0&#45;&gt;dir_7f7a014517bfe31ea45620a6a947e37b -->
<g id="edge9" class="edge">
<title>dir_0ad5cc9f0732862bd2f85bb38c1084f0&#45;&gt;dir_7f7a014517bfe31ea45620a6a947e37b</title>
<path fill="none" stroke="black" d="M158.26,-147.15C161.19,-146.02 164.14,-144.95 167,-144 230.83,-122.78 250.27,-129.52 314,-108 314.86,-107.71 315.72,-107.41 316.59,-107.1"/>
<polygon fill="black" stroke="black" points="317.88,-110.35 325.96,-103.49 315.37,-103.82 317.88,-110.35"/>
<g id="a_edge9&#45;headlabel"><a xlink:href="dir_000024_000020.html" target="_top" xlink:title="1">
<text text-anchor="middle" x="315.55" y="-111.79" font-family="Helvetica,sans-Serif" font-size="10.00">1</text>
</a>
</g>
</g>
<!-- dir_4bb30ed846ea1df1fc4d16874a455d91 -->
<g id="node9" class="node">
<title>dir_4bb30ed846ea1df1fc4d16874a455d91</title>
<g id="a_node9"><a xlink:href="dir_4bb30ed846ea1df1fc4d16874a455d91.html" target="_top" xlink:title="equation_systems">
<polygon fill="white" stroke="red" points="504,-108 398,-108 398,-72 504,-72 504,-108"/>
<text text-anchor="middle" x="451" y="-87.5" font-family="Helvetica,sans-Serif" font-size="10.00">equation_systems</text>
</a>
</g>
</g>
<!-- dir_0ad5cc9f0732862bd2f85bb38c1084f0&#45;&gt;dir_4bb30ed846ea1df1fc4d16874a455d91 -->
<g id="edge10" class="edge">
<title>dir_0ad5cc9f0732862bd2f85bb38c1084f0&#45;&gt;dir_4bb30ed846ea1df1fc4d16874a455d91</title>
<path fill="none" stroke="black" d="M158.18,-146.91C161.13,-145.83 164.1,-144.84 167,-144 259.93,-117.14 289.43,-128.45 387.92,-108.08"/>
<polygon fill="black" stroke="black" points="388.94,-111.44 397.99,-105.93 387.48,-104.59 388.94,-111.44"/>
<g id="a_edge10&#45;headlabel"><a xlink:href="dir_000024_000002.html" target="_top" xlink:title="1">
<text text-anchor="middle" x="386.01" y="-112.46" font-family="Helvetica,sans-Serif" font-size="10.00">1</text>
</a>
</g>
</g>
<!-- dir_0ad5cc9f0732862bd2f85bb38c1084f0&#45;&gt;dir_3d3615e9a999cab4f3407307569d6ced -->
<g id="edge11" class="edge">
<title>dir_0ad5cc9f0732862bd2f85bb38c1084f0&#45;&gt;dir_3d3615e9a999cab4f3407307569d6ced</title>
<path fill="none" stroke="black" d="M125.77,-143.87C125.1,-120.66 127.63,-79.43 151,-56 167.98,-38.97 232.07,-28.32 273.8,-23.03"/>
<polygon fill="black" stroke="black" points="274.38,-26.49 283.88,-21.8 273.53,-19.54 274.38,-26.49"/>
<g id="a_edge11&#45;headlabel"><a xlink:href="dir_000024_000018.html" target="_top" xlink:title="4">
<text text-anchor="middle" x="271.16" y="-27.24" font-family="Helvetica,sans-Serif" font-size="10.00">4</text>
</a>
</g>
</g>
<!-- dir_840c4e0daa8df97bd9a0df29e85df46b -->
<g id="node6" class="node">
<title>dir_840c4e0daa8df97bd9a0df29e85df46b</title>
<g id="a_node6"><a xlink:href="dir_840c4e0daa8df97bd9a0df29e85df46b.html" target="_top" xlink:title="tagging">
<polygon fill="white" stroke="black" points="78,-180 24,-180 24,-144 78,-144 78,-180"/>
<text text-anchor="middle" x="51" y="-159.5" font-family="Helvetica,sans-Serif" font-size="10.00">tagging</text>
</a>
</g>
</g>
<!-- dir_840c4e0daa8df97bd9a0df29e85df46b&#45;&gt;dir_3d3615e9a999cab4f3407307569d6ced -->
<g id="edge1" class="edge">
<title>dir_840c4e0daa8df97bd9a0df29e85df46b&#45;&gt;dir_3d3615e9a999cab4f3407307569d6ced</title>
<path fill="none" stroke="black" d="M57.83,-143.72C68.16,-119.94 90.13,-77.63 123,-56 168.66,-25.95 233.16,-19.23 273.5,-18.28"/>
<polygon fill="black" stroke="black" points="273.75,-21.77 283.71,-18.14 273.66,-14.77 273.75,-21.77"/>
<g id="a_edge1&#45;headlabel"><a xlink:href="dir_000016_000018.html" target="_top" xlink:title="3">
<text text-anchor="middle" x="270.19" y="-22.16" font-family="Helvetica,sans-Serif" font-size="10.00">3</text>
</a>
</g>
</g>
<!-- dir_f2c65bfcbdc19ebacbfc0bbbfb0d01b6&#45;&gt;dir_e4cd57caa88bf1f4e1bf9521bc47c3c0 -->
<g id="edge2" class="edge">
<title>dir_f2c65bfcbdc19ebacbfc0bbbfb0d01b6&#45;&gt;dir_e4cd57caa88bf1f4e1bf9521bc47c3c0</title>
<path fill="none" stroke="black" d="M325.97,-162C321.37,-162 316.78,-162 312.18,-162"/>
<polygon fill="black" stroke="black" points="312.12,-158.5 302.12,-162 312.12,-165.5 312.12,-158.5"/>
<g id="a_edge2&#45;headlabel"><a xlink:href="dir_000015_000010.html" target="_top" xlink:title="11">
<text text-anchor="middle" x="315.71" y="-153.16" font-family="Helvetica,sans-Serif" font-size="10.00">11</text>
</a>
</g>
</g>
<!-- dir_f2c65bfcbdc19ebacbfc0bbbfb0d01b6&#45;&gt;dir_e4878a39f7a1ff4e13f4c83bf1db7931 -->
<g id="edge3" class="edge">
<title>dir_f2c65bfcbdc19ebacbfc0bbbfb0d01b6&#45;&gt;dir_e4878a39f7a1ff4e13f4c83bf1db7931</title>
<path fill="none" stroke="black" d="M325.75,-149.06C321.81,-147.35 317.8,-145.62 314,-144 297.07,-136.78 254.52,-119.05 223.32,-106.08"/>
<polygon fill="black" stroke="black" points="224.62,-102.83 214.04,-102.23 221.93,-109.3 224.62,-102.83"/>
<g id="a_edge3&#45;headlabel"><a xlink:href="dir_000015_000040.html" target="_top" xlink:title="1">
<text text-anchor="middle" x="229.03" y="-99.09" font-family="Helvetica,sans-Serif" font-size="10.00">1</text>
</a>
</g>
</g>
<!-- dir_f2c65bfcbdc19ebacbfc0bbbfb0d01b6&#45;&gt;dir_7f7a014517bfe31ea45620a6a947e37b -->
<g id="edge4" class="edge">
<title>dir_f2c65bfcbdc19ebacbfc0bbbfb0d01b6&#45;&gt;dir_7f7a014517bfe31ea45620a6a947e37b</title>
<path fill="none" stroke="black" d="M353,-143.7C353,-135.98 353,-126.71 353,-118.11"/>
<polygon fill="black" stroke="black" points="356.5,-118.1 353,-108.1 349.5,-118.1 356.5,-118.1"/>
<g id="a_edge4&#45;headlabel"><a xlink:href="dir_000015_000020.html" target="_top" xlink:title="4">
<text text-anchor="middle" x="359.34" y="-119.2" font-family="Helvetica,sans-Serif" font-size="10.00">4</text>
</a>
</g>
</g>
<!-- dir_f2c65bfcbdc19ebacbfc0bbbfb0d01b6&#45;&gt;dir_4bb30ed846ea1df1fc4d16874a455d91 -->
<g id="edge5" class="edge">
<title>dir_f2c65bfcbdc19ebacbfc0bbbfb0d01b6&#45;&gt;dir_4bb30ed846ea1df1fc4d16874a455d91</title>
<path fill="none" stroke="black" d="M371.31,-143.7C382.96,-134.71 398.34,-123.61 412.53,-113.92"/>
<polygon fill="black" stroke="black" points="414.82,-116.6 421.16,-108.1 410.91,-110.79 414.82,-116.6"/>
<g id="a_edge5&#45;headlabel"><a xlink:href="dir_000015_000002.html" target="_top" xlink:title="4">
<text text-anchor="middle" x="413.43" y="-118.46" font-family="Helvetica,sans-Serif" font-size="10.00">4</text>
</a>
</g>
</g>
<!-- dir_f2c65bfcbdc19ebacbfc0bbbfb0d01b6&#45;&gt;dir_3d3615e9a999cab4f3407307569d6ced -->
<g id="edge6" class="edge">
<title>dir_f2c65bfcbdc19ebacbfc0bbbfb0d01b6&#45;&gt;dir_3d3615e9a999cab4f3407307569d6ced</title>
<path fill="none" stroke="black" d="M380.02,-161C417.06,-159.35 482.5,-150.23 513,-108 526.53,-89.26 527.8,-73.75 513,-56 492.45,-31.34 400.84,-23.06 348.33,-20.33"/>
<polygon fill="black" stroke="black" points="348.22,-16.82 338.06,-19.83 347.89,-23.81 348.22,-16.82"/>
<g id="a_edge6&#45;headlabel"><a xlink:href="dir_000015_000018.html" target="_top" xlink:title="52">
<text text-anchor="middle" x="351.95" y="-11.65" font-family="Helvetica,sans-Serif" font-size="10.00">52</text>
</a>
</g>
</g>
<!-- dir_7f7a014517bfe31ea45620a6a947e37b&#45;&gt;dir_3d3615e9a999cab4f3407307569d6ced -->
<g id="edge14" class="edge">
<title>dir_7f7a014517bfe31ea45620a6a947e37b&#45;&gt;dir_3d3615e9a999cab4f3407307569d6ced</title>
<path fill="none" stroke="black" d="M342.62,-71.7C337.74,-63.56 331.81,-53.69 326.42,-44.7"/>
<polygon fill="black" stroke="black" points="329.41,-42.88 321.26,-36.1 323.41,-46.48 329.41,-42.88"/>
<g id="a_edge14&#45;headlabel"><a xlink:href="dir_000020_000018.html" target="_top" xlink:title="1">
<text text-anchor="middle" x="333.69" y="-42" font-family="Helvetica,sans-Serif" font-size="10.00">1</text>
</a>
</g>
</g>
<!-- dir_4bb30ed846ea1df1fc4d16874a455d91&#45;&gt;dir_e4cd57caa88bf1f4e1bf9521bc47c3c0 -->
<g id="edge16" class="edge">
<title>dir_4bb30ed846ea1df1fc4d16874a455d91&#45;&gt;dir_e4cd57caa88bf1f4e1bf9521bc47c3c0</title>
<path fill="none" stroke="black" d="M407.51,-108.1C381.28,-118.44 347.2,-131.92 317,-144 315.19,-144.72 313.34,-145.47 311.47,-146.22"/>
<polygon fill="black" stroke="black" points="310.07,-143.01 302.1,-149.99 312.68,-149.5 310.07,-143.01"/>
<g id="a_edge16&#45;headlabel"><a xlink:href="dir_000002_000010.html" target="_top" xlink:title="12">
<text text-anchor="middle" x="312.34" y="-136.53" font-family="Helvetica,sans-Serif" font-size="10.00">12</text>
</a>
</g>
</g>
<!-- dir_4bb30ed846ea1df1fc4d16874a455d91&#45;&gt;dir_f2c65bfcbdc19ebacbfc0bbbfb0d01b6 -->
<g id="edge15" class="edge">
<title>dir_4bb30ed846ea1df1fc4d16874a455d91&#45;&gt;dir_f2c65bfcbdc19ebacbfc0bbbfb0d01b6</title>
<path fill="none" stroke="black" d="M433.03,-108.04C420.61,-117.64 403.84,-129.7 388.81,-139.89"/>
<polygon fill="black" stroke="black" points="386.58,-137.17 380.21,-145.64 390.46,-142.99 386.58,-137.17"/>
<g id="a_edge15&#45;headlabel"><a xlink:href="dir_000002_000015.html" target="_top" xlink:title="2">
<text text-anchor="middle" x="387.99" y="-130.31" font-family="Helvetica,sans-Serif" font-size="10.00">2</text>
</a>
</g>
</g>
<!-- dir_4bb30ed846ea1df1fc4d16874a455d91&#45;&gt;dir_3d3615e9a999cab4f3407307569d6ced -->
<g id="edge17" class="edge">
<title>dir_4bb30ed846ea1df1fc4d16874a455d91&#45;&gt;dir_3d3615e9a999cab4f3407307569d6ced</title>
<path fill="none" stroke="black" d="M419.61,-71.93C409.85,-66.72 399.02,-61.04 389,-56 375.53,-49.23 360.61,-42.06 347.45,-35.86"/>
<polygon fill="black" stroke="black" points="348.76,-32.61 338.22,-31.54 345.79,-38.95 348.76,-32.61"/>
<g id="a_edge17&#45;headlabel"><a xlink:href="dir_000002_000018.html" target="_top" xlink:title="54">
<text text-anchor="middle" x="353.22" y="-29.07" font-family="Helvetica,sans-Serif" font-size="10.00">54</text>
</a>
</g>
</g>
</g>
</svg>
        <g id="navigator" transform="translate(0 0)" fill="#404254">
                <rect fill="#f2f5e9" fill-opacity="0.5" stroke="#606060" stroke-width=".5" x="0" y="0" width="60" height="60"/>
                <use id="zoomplus" xlink:href="#zoomPlus" x="17" y="9" onmousedown="handleZoom(evt,'in')"/>
                <use id="zoomminus" xlink:href="#zoomMin" x="42" y="9" onmousedown="handleZoom(evt,'out')"/>
                <use id="reset" xlink:href="#resetDef" x="30" y="36" onmousedown="handleReset()"/>
                <g id="arrowUp" xlink:href="#dirArrow" transform="translate(30 24)" onmousedown="handlePan(0,-1)">
                  <use xlink:href="#rim" fill="#404040">
                        <set attributeName="fill" to="#808080" begin="arrowUp.mouseover" end="arrowUp.mouseout"/>
                  </use>
                  <path fill="none" stroke="white" stroke-width="1.5" d="M0,-3.0v7 M-2.5,-0.5L0,-3.0L2.5,-0.5"/>
                </g>
                <g id="arrowRight" xlink:href="#dirArrow" transform="rotate(90) translate(36 -43)" onmousedown="handlePan(1,0)">
                  <use xlink:href="#rim" fill="#404040">
                        <set attributeName="fill" to="#808080" begin="arrowRight.mouseover" end="arrowRight.mouseout"/>
                  </use>
                  <path fill="none" stroke="white" stroke-width="1.5" d="M0,-3.0v7 M-2.5,-0.5L0,-3.0L2.5,-0.5"/>
                </g>
                <g id="arrowDown" xlink:href="#dirArrow" transform="rotate(180) translate(-30 -48)" onmousedown="handlePan(0,1)">
                  <use xlink:href="#rim" fill="#404040">
                        <set attributeName="fill" to="#808080" begin="arrowDown.mouseover" end="arrowDown.mouseout"/>
                  </use>
                  <path fill="none" stroke="white" stroke-width="1.5" d="M0,-3.0v7 M-2.5,-0.5L0,-3.0L2.5,-0.5"/>
                </g>
                <g id="arrowLeft" xlink:href="#dirArrow" transform="rotate(270) translate(-36 17)" onmousedown="handlePan(-1,0)">
                  <use xlink:href="#rim" fill="#404040">
                        <set attributeName="fill" to="#808080" begin="arrowLeft.mouseover" end="arrowLeft.mouseout"/>
                  </use>
                  <path fill="none" stroke="white" stroke-width="1.5" d="M0,-3.0v7 M-2.5,-0.5L0,-3.0L2.5,-0.5"/>
                </g>
        </g>
        <svg viewBox="0 0 15 15" width="100%" height="30px" preserveAspectRatio="xMaxYMin meet">
         <g id="arrow_out" transform="scale(0.3 0.3)">
          <a xlink:href="dir_e4cd57caa88bf1f4e1bf9521bc47c3c0_dep_org.svg" target="_base">
           <rect id="button" ry="5" rx="5" y="6" x="6" height="38" width="38"
                fill="#f2f5e9" fill-opacity="0.5" stroke="#606060" stroke-width="1.0"/>
           <path id="arrow"
             d="M 11.500037,31.436501 C 11.940474,20.09759 22.043105,11.32322 32.158766,21.979434 L 37.068811,17.246167 C 37.068811,17.246167 37.088388,32 37.088388,32 L 22.160133,31.978069 C 22.160133,31.978069 26.997745,27.140456 26.997745,27.140456 C 18.528582,18.264221 13.291696,25.230495 11.500037,31.436501 z"
             style="fill:#404040;"/>
          </a>
         </g>
        </svg>
</svg>
