<?xml version="1.0" encoding="UTF-8" standalone="no"?>
<!DOCTYPE svg PUBLIC "-//W3C//DTD SVG 1.1//EN"
 "http://www.w3.org/Graphics/SVG/1.1/DTD/svg11.dtd">
<!-- Generated by graphviz version 2.43.0 (0)
 -->
<!-- Title: turbulence Pages: 1 -->
<svg width="370pt" height="251pt"
 viewBox="0.00 0.00 370.00 250.93" xmlns="http://www.w3.org/2000/svg" xmlns:xlink="http://www.w3.org/1999/xlink">
<g id="graph0" class="graph" transform="scale(1 1) rotate(0) translate(4 246.93)">
<title>turbulence</title>
<polygon fill="white" stroke="transparent" points="-4,4 -4,-246.93 366,-246.93 366,4 -4,4"/>
<g id="clust1" class="cluster">
<title>clusterdir_d85575251dd712327fe3cf057fa568b4</title>
<g id="a_clust1"><a xlink:href="dir_d85575251dd712327fe3cf057fa568b4.html" target="_top" xlink:title="amr&#45;wind">
<polygon fill="#ddddee" stroke="black" points="62,-128 62,-215 306,-215 306,-128 62,-128"/>
<text text-anchor="middle" x="184" y="-203" font-family="Helvetica,sans-Serif" font-size="10.00">amr&#45;wind</text>
</a>
</g>
</g>
<g id="clust2" class="cluster">
<title>clusterdir_9ff815a534beac751fa88e427dbab695</title>
<g id="a_clust2"><a xlink:href="dir_9ff815a534beac751fa88e427dbab695.html" target="_top">
<polygon fill="#eeeeff" stroke="black" points="70,-136 70,-188 298,-188 298,-136 70,-136"/>
</a>
</g>
</g>
<!-- dir_9ff815a534beac751fa88e427dbab695 -->
<g id="node1" class="node">
<title>dir_9ff815a534beac751fa88e427dbab695</title>
<text text-anchor="middle" x="256" y="-159.5" font-family="Helvetica,sans-Serif" font-size="10.00">turbulence</text>
</g>
<!-- dir_e4cd57caa88bf1f4e1bf9521bc47c3c0 -->
<g id="node4" class="node">
<title>dir_e4cd57caa88bf1f4e1bf9521bc47c3c0</title>
<g id="a_node4"><a xlink:href="dir_e4cd57caa88bf1f4e1bf9521bc47c3c0.html" target="_top" xlink:title="utilities">
<polygon fill="white" stroke="red" points="54,-180 0,-180 0,-144 54,-144 54,-180"/>
<text text-anchor="middle" x="27" y="-159.5" font-family="Helvetica,sans-Serif" font-size="10.00">utilities</text>
</a>
</g>
</g>
<!-- dir_9ff815a534beac751fa88e427dbab695&#45;&gt;dir_e4cd57caa88bf1f4e1bf9521bc47c3c0 -->
<g id="edge1" class="edge">
<title>dir_9ff815a534beac751fa88e427dbab695&#45;&gt;dir_e4cd57caa88bf1f4e1bf9521bc47c3c0</title>
<path fill="none" stroke="black" d="M248.59,-180.12C240.48,-197.28 225.67,-222.01 204,-233 178.43,-245.97 100.32,-246.44 75,-233 57.7,-223.81 45.49,-205.29 37.72,-189.47"/>
<polygon fill="black" stroke="black" points="40.78,-187.73 33.45,-180.08 34.41,-190.63 40.78,-187.73"/>
<g id="a_edge1&#45;headlabel"><a xlink:href="dir_000031_000010.html" target="_top" xlink:title="1">
<text text-anchor="middle" x="44.85" y="-187.33" font-family="Helvetica,sans-Serif" font-size="10.00">1</text>
</a>
</g>
</g>
<!-- dir_7b7e55eaa727ae9c717abfc097345a8f -->
<g id="node8" class="node">
<title>dir_7b7e55eaa727ae9c717abfc097345a8f</title>
<g id="a_node8"><a xlink:href="dir_7b7e55eaa727ae9c717abfc097345a8f.html" target="_top" xlink:title="transport_models">
<polygon fill="none" stroke="black" points="362,-108 260,-108 260,-72 362,-72 362,-108"/>
<text text-anchor="middle" x="311" y="-87.5" font-family="Helvetica,sans-Serif" font-size="10.00">transport_models</text>
</a>
</g>
</g>
<!-- dir_9ff815a534beac751fa88e427dbab695&#45;&gt;dir_7b7e55eaa727ae9c717abfc097345a8f -->
<g id="edge2" class="edge">
<title>dir_9ff815a534beac751fa88e427dbab695&#45;&gt;dir_7b7e55eaa727ae9c717abfc097345a8f</title>
<path fill="none" stroke="black" d="M269.6,-143.7C276.12,-135.39 284.07,-125.28 291.25,-116.14"/>
<polygon fill="black" stroke="black" points="294.13,-118.13 297.56,-108.1 288.63,-113.81 294.13,-118.13"/>
<g id="a_edge2&#45;headlabel"><a xlink:href="dir_000031_000019.html" target="_top" xlink:title="2">
<text text-anchor="middle" x="294.15" y="-120.21" font-family="Helvetica,sans-Serif" font-size="10.00">2</text>
</a>
</g>
</g>
<!-- dir_d4759c65d88ac8462151b54b86eeee49 -->
<g id="node2" class="node">
<title>dir_d4759c65d88ac8462151b54b86eeee49</title>
<g id="a_node2"><a xlink:href="dir_d4759c65d88ac8462151b54b86eeee49.html" target="_top" xlink:title="LES">
<polygon fill="white" stroke="black" points="204,-180 150,-180 150,-144 204,-144 204,-180"/>
<text text-anchor="middle" x="177" y="-159.5" font-family="Helvetica,sans-Serif" font-size="10.00">LES</text>
</a>
</g>
</g>
<!-- dir_7f7a014517bfe31ea45620a6a947e37b -->
<g id="node5" class="node">
<title>dir_7f7a014517bfe31ea45620a6a947e37b</title>
<g id="a_node5"><a xlink:href="dir_7f7a014517bfe31ea45620a6a947e37b.html" target="_top" xlink:title="fvm">
<polygon fill="none" stroke="black" points="80,-108 26,-108 26,-72 80,-72 80,-108"/>
<text text-anchor="middle" x="53" y="-87.5" font-family="Helvetica,sans-Serif" font-size="10.00">fvm</text>
</a>
</g>
</g>
<!-- dir_d4759c65d88ac8462151b54b86eeee49&#45;&gt;dir_7f7a014517bfe31ea45620a6a947e37b -->
<g id="edge8" class="edge">
<title>dir_d4759c65d88ac8462151b54b86eeee49&#45;&gt;dir_7f7a014517bfe31ea45620a6a947e37b</title>
<path fill="none" stroke="black" d="M160.86,-143.81C154.99,-138.24 148.06,-132.38 141,-128 122.17,-116.34 113.64,-117.33 89.33,-107.85"/>
<polygon fill="black" stroke="black" points="90.61,-104.59 80.03,-104.03 87.95,-111.07 90.61,-104.59"/>
<g id="a_edge8&#45;headlabel"><a xlink:href="dir_000042_000020.html" target="_top" xlink:title="3">
<text text-anchor="middle" x="95.01" y="-100.84" font-family="Helvetica,sans-Serif" font-size="10.00">3</text>
</a>
</g>
</g>
<!-- dir_3d3615e9a999cab4f3407307569d6ced -->
<g id="node6" class="node">
<title>dir_3d3615e9a999cab4f3407307569d6ced</title>
<g id="a_node6"><a xlink:href="dir_3d3615e9a999cab4f3407307569d6ced.html" target="_top" xlink:title="core">
<polygon fill="white" stroke="red" points="129,-36 75,-36 75,0 129,0 129,-36"/>
<text text-anchor="middle" x="102" y="-15.5" font-family="Helvetica,sans-Serif" font-size="10.00">core</text>
</a>
</g>
</g>
<!-- dir_d4759c65d88ac8462151b54b86eeee49&#45;&gt;dir_3d3615e9a999cab4f3407307569d6ced -->
<g id="edge9" class="edge">
<title>dir_d4759c65d88ac8462151b54b86eeee49&#45;&gt;dir_3d3615e9a999cab4f3407307569d6ced</title>
<path fill="none" stroke="black" d="M193.26,-143.74C208.71,-125.14 227.58,-95.12 213,-72 196.91,-46.49 164.78,-32.99 139.21,-26.02"/>
<polygon fill="black" stroke="black" points="139.98,-22.61 129.43,-23.58 138.29,-29.4 139.98,-22.61"/>
<g id="a_edge9&#45;headlabel"><a xlink:href="dir_000042_000018.html" target="_top" xlink:title="1">
<text text-anchor="middle" x="144.16" y="-18.22" font-family="Helvetica,sans-Serif" font-size="10.00">1</text>
</a>
</g>
</g>
<!-- dir_4bb30ed846ea1df1fc4d16874a455d91 -->
<g id="node7" class="node">
<title>dir_4bb30ed846ea1df1fc4d16874a455d91</title>
<g id="a_node7"><a xlink:href="dir_4bb30ed846ea1df1fc4d16874a455d91.html" target="_top" xlink:title="equation_systems">
<polygon fill="white" stroke="red" points="204,-108 98,-108 98,-72 204,-72 204,-108"/>
<text text-anchor="middle" x="151" y="-87.5" font-family="Helvetica,sans-Serif" font-size="10.00">equation_systems</text>
</a>
</g>
</g>
<!-- dir_d4759c65d88ac8462151b54b86eeee49&#45;&gt;dir_4bb30ed846ea1df1fc4d16874a455d91 -->
<g id="edge10" class="edge">
<title>dir_d4759c65d88ac8462151b54b86eeee49&#45;&gt;dir_4bb30ed846ea1df1fc4d16874a455d91</title>
<path fill="none" stroke="black" d="M170.57,-143.7C167.64,-135.81 164.11,-126.3 160.86,-117.55"/>
<polygon fill="black" stroke="black" points="164.12,-116.26 157.35,-108.1 157.55,-118.7 164.12,-116.26"/>
<g id="a_edge10&#45;headlabel"><a xlink:href="dir_000042_000002.html" target="_top" xlink:title="2">
<text text-anchor="middle" x="168.03" y="-116.14" font-family="Helvetica,sans-Serif" font-size="10.00">2</text>
</a>
</g>
</g>
<!-- dir_a436074bb53309d43601d2a8b8d27ca7 -->
<g id="node3" class="node">
<title>dir_a436074bb53309d43601d2a8b8d27ca7</title>
<g id="a_node3"><a xlink:href="dir_a436074bb53309d43601d2a8b8d27ca7.html" target="_top" xlink:title="RANS">
<polygon fill="white" stroke="black" points="132,-180 78,-180 78,-144 132,-144 132,-180"/>
<text text-anchor="middle" x="105" y="-159.5" font-family="Helvetica,sans-Serif" font-size="10.00">RANS</text>
</a>
</g>
</g>
<!-- dir_a436074bb53309d43601d2a8b8d27ca7&#45;&gt;dir_7f7a014517bfe31ea45620a6a947e37b -->
<g id="edge3" class="edge">
<title>dir_a436074bb53309d43601d2a8b8d27ca7&#45;&gt;dir_7f7a014517bfe31ea45620a6a947e37b</title>
<path fill="none" stroke="black" d="M92.15,-143.7C85.97,-135.39 78.46,-125.28 71.68,-116.14"/>
<polygon fill="black" stroke="black" points="74.48,-114.04 65.71,-108.1 68.86,-118.22 74.48,-114.04"/>
<g id="a_edge3&#45;headlabel"><a xlink:href="dir_000032_000020.html" target="_top" xlink:title="5">
<text text-anchor="middle" x="78.9" y="-112.74" font-family="Helvetica,sans-Serif" font-size="10.00">5</text>
</a>
</g>
</g>
<!-- dir_a436074bb53309d43601d2a8b8d27ca7&#45;&gt;dir_4bb30ed846ea1df1fc4d16874a455d91 -->
<g id="edge4" class="edge">
<title>dir_a436074bb53309d43601d2a8b8d27ca7&#45;&gt;dir_4bb30ed846ea1df1fc4d16874a455d91</title>
<path fill="none" stroke="black" d="M116.37,-143.7C121.72,-135.56 128.2,-125.69 134.11,-116.7"/>
<polygon fill="black" stroke="black" points="137.19,-118.38 139.76,-108.1 131.34,-114.54 137.19,-118.38"/>
<g id="a_edge4&#45;headlabel"><a xlink:href="dir_000032_000002.html" target="_top" xlink:title="9">
<text text-anchor="middle" x="137.59" y="-120.45" font-family="Helvetica,sans-Serif" font-size="10.00">9</text>
</a>
</g>
</g>
<!-- dir_e4cd57caa88bf1f4e1bf9521bc47c3c0&#45;&gt;dir_7f7a014517bfe31ea45620a6a947e37b -->
<g id="edge5" class="edge">
<title>dir_e4cd57caa88bf1f4e1bf9521bc47c3c0&#45;&gt;dir_7f7a014517bfe31ea45620a6a947e37b</title>
<path fill="none" stroke="black" d="M33.43,-143.7C36.36,-135.81 39.89,-126.3 43.14,-117.55"/>
<polygon fill="black" stroke="black" points="46.45,-118.7 46.65,-108.1 39.88,-116.26 46.45,-118.7"/>
<g id="a_edge5&#45;headlabel"><a xlink:href="dir_000010_000020.html" target="_top" xlink:title="2">
<text text-anchor="middle" x="47.86" y="-120.56" font-family="Helvetica,sans-Serif" font-size="10.00">2</text>
</a>
</g>
</g>
<!-- dir_e4cd57caa88bf1f4e1bf9521bc47c3c0&#45;&gt;dir_3d3615e9a999cab4f3407307569d6ced -->
<g id="edge7" class="edge">
<title>dir_e4cd57caa88bf1f4e1bf9521bc47c3c0&#45;&gt;dir_3d3615e9a999cab4f3407307569d6ced</title>
<path fill="none" stroke="black" d="M12.8,-143.76C3.3,-124.92 -4.45,-94.43 8,-72 19.85,-50.64 44.3,-36.76 65.43,-28.59"/>
<polygon fill="black" stroke="black" points="66.6,-31.88 74.85,-25.23 64.25,-25.29 66.6,-31.88"/>
<g id="a_edge7&#45;headlabel"><a xlink:href="dir_000010_000018.html" target="_top" xlink:title="23">
<text text-anchor="middle" x="64.17" y="-33.27" font-family="Helvetica,sans-Serif" font-size="10.00">23</text>
</a>
</g>
</g>
<!-- dir_e4cd57caa88bf1f4e1bf9521bc47c3c0&#45;&gt;dir_4bb30ed846ea1df1fc4d16874a455d91 -->
<g id="edge6" class="edge">
<title>dir_e4cd57caa88bf1f4e1bf9521bc47c3c0&#45;&gt;dir_4bb30ed846ea1df1fc4d16874a455d91</title>
<path fill="none" stroke="black" d="M36.66,-143.71C42.48,-138.26 49.77,-132.5 57,-128 66.72,-121.95 77.61,-116.41 88.45,-111.55"/>
<polygon fill="black" stroke="black" points="90.14,-114.64 97.94,-107.47 87.37,-108.21 90.14,-114.64"/>
<g id="a_edge6&#45;headlabel"><a xlink:href="dir_000010_000002.html" target="_top" xlink:title="1">
<text text-anchor="middle" x="87.96" y="-116.17" font-family="Helvetica,sans-Serif" font-size="10.00">1</text>
</a>
</g>
</g>
<!-- dir_7f7a014517bfe31ea45620a6a947e37b&#45;&gt;dir_3d3615e9a999cab4f3407307569d6ced -->
<g id="edge11" class="edge">
<title>dir_7f7a014517bfe31ea45620a6a947e37b&#45;&gt;dir_3d3615e9a999cab4f3407307569d6ced</title>
<path fill="none" stroke="black" d="M65.11,-71.7C70.87,-63.47 77.86,-53.48 84.21,-44.42"/>
<polygon fill="black" stroke="black" points="87.16,-46.3 90.03,-36.1 81.42,-42.29 87.16,-46.3"/>
<g id="a_edge11&#45;headlabel"><a xlink:href="dir_000020_000018.html" target="_top" xlink:title="1">
<text text-anchor="middle" x="87.42" y="-48.38" font-family="Helvetica,sans-Serif" font-size="10.00">1</text>
</a>
</g>
</g>
<!-- dir_3d3615e9a999cab4f3407307569d6ced&#45;&gt;dir_e4cd57caa88bf1f4e1bf9521bc47c3c0 -->
<g id="edge15" class="edge">
<title>dir_3d3615e9a999cab4f3407307569d6ced&#45;&gt;dir_e4cd57caa88bf1f4e1bf9521bc47c3c0</title>
<path fill="none" stroke="black" d="M74.66,-31.3C57.39,-39.7 36.63,-52.84 26,-72 15.55,-90.84 19.34,-115.36 23.59,-133.89"/>
<polygon fill="black" stroke="black" points="20.23,-134.86 25.98,-143.76 27.03,-133.22 20.23,-134.86"/>
<g id="a_edge15&#45;headlabel"><a xlink:href="dir_000018_000010.html" target="_top" xlink:title="1">
<text text-anchor="middle" x="16.62" y="-129.54" font-family="Helvetica,sans-Serif" font-size="10.00">1</text>
</a>
</g>
</g>
<!-- dir_4bb30ed846ea1df1fc4d16874a455d91&#45;&gt;dir_9ff815a534beac751fa88e427dbab695 -->
<g id="edge12" class="edge">
<title>dir_4bb30ed846ea1df1fc4d16874a455d91&#45;&gt;dir_9ff815a534beac751fa88e427dbab695</title>
<path fill="none" stroke="black" d="M181.08,-108C191.37,-114.06 202.84,-121.1 213,-128 217.37,-130.96 221.88,-134.21 226.27,-137.48"/>
<polygon fill="black" stroke="black" points="224.41,-140.45 234.49,-143.71 228.64,-134.88 224.41,-140.45"/>
<g id="a_edge12&#45;headlabel"><a xlink:href="dir_000002_000031.html" target="_top" xlink:title="4">
<text text-anchor="middle" x="219.83" y="-138.04" font-family="Helvetica,sans-Serif" font-size="10.00">4</text>
</a>
</g>
</g>
<!-- dir_4bb30ed846ea1df1fc4d16874a455d91&#45;&gt;dir_e4cd57caa88bf1f4e1bf9521bc47c3c0 -->
<g id="edge13" class="edge">
<title>dir_4bb30ed846ea1df1fc4d16874a455d91&#45;&gt;dir_e4cd57caa88bf1f4e1bf9521bc47c3c0</title>
<path fill="none" stroke="black" d="M113.83,-108.04C101.14,-113.66 87.16,-120.43 75,-128 70.59,-130.74 66.17,-133.95 61.85,-137.28"/>
<polygon fill="black" stroke="black" points="59.38,-134.76 53.71,-143.71 63.73,-140.25 59.38,-134.76"/>
<g id="a_edge13&#45;headlabel"><a xlink:href="dir_000002_000010.html" target="_top" xlink:title="12">
<text text-anchor="middle" x="60.44" y="-127.8" font-family="Helvetica,sans-Serif" font-size="10.00">12</text>
</a>
</g>
</g>
<!-- dir_4bb30ed846ea1df1fc4d16874a455d91&#45;&gt;dir_3d3615e9a999cab4f3407307569d6ced -->
<g id="edge14" class="edge">
<title>dir_4bb30ed846ea1df1fc4d16874a455d91&#45;&gt;dir_3d3615e9a999cab4f3407307569d6ced</title>
<path fill="none" stroke="black" d="M138.89,-71.7C133.13,-63.47 126.14,-53.48 119.79,-44.42"/>
<polygon fill="black" stroke="black" points="122.58,-42.29 113.97,-36.1 116.84,-46.3 122.58,-42.29"/>
<g id="a_edge14&#45;headlabel"><a xlink:href="dir_000002_000018.html" target="_top" xlink:title="54">
<text text-anchor="middle" x="126.96" y="-41.11" font-family="Helvetica,sans-Serif" font-size="10.00">54</text>
</a>
</g>
</g>
<!-- dir_7b7e55eaa727ae9c717abfc097345a8f&#45;&gt;dir_3d3615e9a999cab4f3407307569d6ced -->
<g id="edge16" class="edge">
<title>dir_7b7e55eaa727ae9c717abfc097345a8f&#45;&gt;dir_3d3615e9a999cab4f3407307569d6ced</title>
<path fill="none" stroke="black" d="M260.14,-71.97C222.69,-59.42 172.63,-42.66 138.95,-31.38"/>
<polygon fill="black" stroke="black" points="139.65,-27.92 129.06,-28.06 137.43,-34.56 139.65,-27.92"/>
<g id="a_edge16&#45;headlabel"><a xlink:href="dir_000019_000018.html" target="_top" xlink:title="2">
<text text-anchor="middle" x="143.96" y="-23.87" font-family="Helvetica,sans-Serif" font-size="10.00">2</text>
</a>
</g>
</g>
</g>
</svg>
