<?xml version="1.0" encoding="UTF-8" standalone="no"?>
<!DOCTYPE svg PUBLIC "-//W3C//DTD SVG 1.1//EN"
 "http://www.w3.org/Graphics/SVG/1.1/DTD/svg11.dtd">
<!-- Generated by graphviz version 2.43.0 (0)
 -->
<!-- Title: amr&#45;wind Pages: 1 -->
<svg width="942pt" height="652pt"
 viewBox="0.00 0.00 942.00 652.00" xmlns="http://www.w3.org/2000/svg" xmlns:xlink="http://www.w3.org/1999/xlink">
<g id="graph0" class="graph" transform="scale(1 1) rotate(0) translate(4 648)">
<title>amr&#45;wind</title>
<polygon fill="white" stroke="transparent" points="-4,4 -4,-648 938,-648 938,4 -4,4"/>
<g id="clust1" class="cluster">
<title>clusterdir_d85575251dd712327fe3cf057fa568b4</title>
<g id="a_clust1"><a xlink:href="dir_d85575251dd712327fe3cf057fa568b4.html" target="_top">
<polygon fill="#eeeeff" stroke="black" points="8,-8 8,-636 926,-636 926,-8 8,-8"/>
</a>
</g>
</g>
<!-- dir_d85575251dd712327fe3cf057fa568b4 -->
<g id="node1" class="node">
<title>dir_d85575251dd712327fe3cf057fa568b4</title>
<text text-anchor="middle" x="521" y="-607.5" font-family="Helvetica,sans-Serif" font-size="10.00">amr&#45;wind</text>
</g>
<!-- dir_4bb30ed846ea1df1fc4d16874a455d91 -->
<g id="node7" class="node">
<title>dir_4bb30ed846ea1df1fc4d16874a455d91</title>
<g id="a_node7"><a xlink:href="dir_4bb30ed846ea1df1fc4d16874a455d91.html" target="_top" xlink:title="equation_systems">
<polygon fill="white" stroke="red" points="574,-484 468,-484 468,-448 574,-448 574,-484"/>
<text text-anchor="middle" x="521" y="-463.5" font-family="Helvetica,sans-Serif" font-size="10.00">equation_systems</text>
</a>
</g>
</g>
<!-- dir_d85575251dd712327fe3cf057fa568b4&#45;&gt;dir_4bb30ed846ea1df1fc4d16874a455d91 -->
<g id="edge11" class="edge">
<title>dir_d85575251dd712327fe3cf057fa568b4&#45;&gt;dir_4bb30ed846ea1df1fc4d16874a455d91</title>
<path fill="none" stroke="black" d="M521,-591.87C521,-567.67 521,-523.21 521,-494.39"/>
<polygon fill="black" stroke="black" points="524.5,-494.19 521,-484.19 517.5,-494.19 524.5,-494.19"/>
<g id="a_edge11&#45;headlabel"><a xlink:href="dir_000000_000002.html" target="_top" xlink:title="26">
<text text-anchor="middle" x="527.34" y="-495.28" font-family="Helvetica,sans-Serif" font-size="10.00">26</text>
</a>
</g>
</g>
<!-- dir_629222d9fcf2f4ceefae477297f2ec84 -->
<g id="node11" class="node">
<title>dir_629222d9fcf2f4ceefae477297f2ec84</title>
<g id="a_node11"><a xlink:href="dir_629222d9fcf2f4ceefae477297f2ec84.html" target="_top" xlink:title="overset">
<polygon fill="white" stroke="black" points="607,-556 553,-556 553,-520 607,-520 607,-556"/>
<text text-anchor="middle" x="580" y="-535.5" font-family="Helvetica,sans-Serif" font-size="10.00">overset</text>
</a>
</g>
</g>
<!-- dir_d85575251dd712327fe3cf057fa568b4&#45;&gt;dir_629222d9fcf2f4ceefae477297f2ec84 -->
<g id="edge10" class="edge">
<title>dir_d85575251dd712327fe3cf057fa568b4&#45;&gt;dir_629222d9fcf2f4ceefae477297f2ec84</title>
<path fill="none" stroke="black" d="M535.58,-591.7C542.66,-583.3 551.28,-573.07 559.05,-563.86"/>
<polygon fill="black" stroke="black" points="561.81,-566.01 565.58,-556.1 556.46,-561.49 561.81,-566.01"/>
<g id="a_edge10&#45;headlabel"><a xlink:href="dir_000000_000043.html" target="_top" xlink:title="2">
<text text-anchor="middle" x="561.67" y="-568.08" font-family="Helvetica,sans-Serif" font-size="10.00">2</text>
</a>
</g>
</g>
<!-- dir_9ff815a534beac751fa88e427dbab695 -->
<g id="node16" class="node">
<title>dir_9ff815a534beac751fa88e427dbab695</title>
<g id="a_node16"><a xlink:href="dir_9ff815a534beac751fa88e427dbab695.html" target="_top" xlink:title="turbulence">
<polygon fill="white" stroke="red" points="264,-124 196,-124 196,-88 264,-88 264,-124"/>
<text text-anchor="middle" x="230" y="-103.5" font-family="Helvetica,sans-Serif" font-size="10.00">turbulence</text>
</a>
</g>
</g>
<!-- dir_d85575251dd712327fe3cf057fa568b4&#45;&gt;dir_9ff815a534beac751fa88e427dbab695 -->
<g id="edge9" class="edge">
<title>dir_d85575251dd712327fe3cf057fa568b4&#45;&gt;dir_9ff815a534beac751fa88e427dbab695</title>
<path fill="none" stroke="black" d="M489.47,-606.98C379.13,-599.08 17,-565.63 17,-467 17,-467 17,-467 17,-393 17,-283.37 13.25,-229.54 98,-160 123.59,-139 158.57,-125.46 186.09,-117.33"/>
<polygon fill="black" stroke="black" points="187.19,-120.66 195.86,-114.57 185.29,-113.92 187.19,-120.66"/>
<g id="a_edge9&#45;headlabel"><a xlink:href="dir_000000_000031.html" target="_top" xlink:title="8">
<text text-anchor="middle" x="184.5" y="-121.86" font-family="Helvetica,sans-Serif" font-size="10.00">8</text>
</a>
</g>
</g>
<!-- dir_ebb19deee3cd40f4ac122fef25c04ca8 -->
<g id="node2" class="node">
<title>dir_ebb19deee3cd40f4ac122fef25c04ca8</title>
<g id="a_node2"><a xlink:href="dir_ebb19deee3cd40f4ac122fef25c04ca8.html" target="_top" xlink:title="boundary_conditions">
<polygon fill="white" stroke="black" points="330,-412 212,-412 212,-376 330,-376 330,-412"/>
<text text-anchor="middle" x="271" y="-391.5" font-family="Helvetica,sans-Serif" font-size="10.00">boundary_conditions</text>
</a>
</g>
</g>
<!-- dir_3d3615e9a999cab4f3407307569d6ced -->
<g id="node4" class="node">
<title>dir_3d3615e9a999cab4f3407307569d6ced</title>
<g id="a_node4"><a xlink:href="dir_3d3615e9a999cab4f3407307569d6ced.html" target="_top" xlink:title="core">
<polygon fill="white" stroke="red" points="555,-340 501,-340 501,-304 555,-304 555,-340"/>
<text text-anchor="middle" x="528" y="-319.5" font-family="Helvetica,sans-Serif" font-size="10.00">core</text>
</a>
</g>
</g>
<!-- dir_ebb19deee3cd40f4ac122fef25c04ca8&#45;&gt;dir_3d3615e9a999cab4f3407307569d6ced -->
<g id="edge30" class="edge">
<title>dir_ebb19deee3cd40f4ac122fef25c04ca8&#45;&gt;dir_3d3615e9a999cab4f3407307569d6ced</title>
<path fill="none" stroke="black" d="M327.65,-375.97C377.49,-361.99 448.46,-342.77 491.26,-331.74"/>
<polygon fill="black" stroke="black" points="492.16,-335.12 500.98,-329.25 490.43,-328.34 492.16,-335.12"/>
<g id="a_edge30&#45;headlabel"><a xlink:href="dir_000012_000018.html" target="_top" xlink:title="8">
<text text-anchor="middle" x="489.38" y="-336.27" font-family="Helvetica,sans-Serif" font-size="10.00">8</text>
</a>
</g>
</g>
<!-- dir_f2c65bfcbdc19ebacbfc0bbbfb0d01b6 -->
<g id="node12" class="node">
<title>dir_f2c65bfcbdc19ebacbfc0bbbfb0d01b6</title>
<g id="a_node12"><a xlink:href="dir_f2c65bfcbdc19ebacbfc0bbbfb0d01b6.html" target="_top" xlink:title="physics">
<polygon fill="white" stroke="red" points="393,-196 339,-196 339,-160 393,-160 393,-196"/>
<text text-anchor="middle" x="366" y="-175.5" font-family="Helvetica,sans-Serif" font-size="10.00">physics</text>
</a>
</g>
</g>
<!-- dir_ebb19deee3cd40f4ac122fef25c04ca8&#45;&gt;dir_f2c65bfcbdc19ebacbfc0bbbfb0d01b6 -->
<g id="edge29" class="edge">
<title>dir_ebb19deee3cd40f4ac122fef25c04ca8&#45;&gt;dir_f2c65bfcbdc19ebacbfc0bbbfb0d01b6</title>
<path fill="none" stroke="black" d="M278.61,-375.85C295.15,-338.6 334.45,-250.07 354.22,-205.54"/>
<polygon fill="black" stroke="black" points="357.49,-206.79 358.35,-196.23 351.09,-203.95 357.49,-206.79"/>
<g id="a_edge29&#45;headlabel"><a xlink:href="dir_000012_000015.html" target="_top" xlink:title="2">
<text text-anchor="middle" x="358.63" y="-208.73" font-family="Helvetica,sans-Serif" font-size="10.00">2</text>
</a>
</g>
</g>
<!-- dir_35ffb1505af3943bdf99903da87524fe -->
<g id="node3" class="node">
<title>dir_35ffb1505af3943bdf99903da87524fe</title>
<g id="a_node3"><a xlink:href="dir_35ffb1505af3943bdf99903da87524fe.html" target="_top" xlink:title="convection">
<polygon fill="white" stroke="black" points="682,-412 612,-412 612,-376 682,-376 682,-412"/>
<text text-anchor="middle" x="647" y="-391.5" font-family="Helvetica,sans-Serif" font-size="10.00">convection</text>
</a>
</g>
</g>
<!-- dir_35ffb1505af3943bdf99903da87524fe&#45;&gt;dir_3d3615e9a999cab4f3407307569d6ced -->
<g id="edge23" class="edge">
<title>dir_35ffb1505af3943bdf99903da87524fe&#45;&gt;dir_3d3615e9a999cab4f3407307569d6ced</title>
<path fill="none" stroke="black" d="M617.89,-375.88C601.6,-366.29 581.16,-354.27 563.88,-344.11"/>
<polygon fill="black" stroke="black" points="565.57,-341.04 555.18,-338.99 562.02,-347.07 565.57,-341.04"/>
<g id="a_edge23&#45;headlabel"><a xlink:href="dir_000027_000018.html" target="_top" xlink:title="2">
<text text-anchor="middle" x="570.11" y="-337.92" font-family="Helvetica,sans-Serif" font-size="10.00">2</text>
</a>
</g>
</g>
<!-- dir_e4cd57caa88bf1f4e1bf9521bc47c3c0 -->
<g id="node17" class="node">
<title>dir_e4cd57caa88bf1f4e1bf9521bc47c3c0</title>
<g id="a_node17"><a xlink:href="dir_e4cd57caa88bf1f4e1bf9521bc47c3c0.html" target="_top" xlink:title="utilities">
<polygon fill="white" stroke="red" points="661,-268 607,-268 607,-232 661,-232 661,-268"/>
<text text-anchor="middle" x="634" y="-247.5" font-family="Helvetica,sans-Serif" font-size="10.00">utilities</text>
</a>
</g>
</g>
<!-- dir_35ffb1505af3943bdf99903da87524fe&#45;&gt;dir_e4cd57caa88bf1f4e1bf9521bc47c3c0 -->
<g id="edge22" class="edge">
<title>dir_35ffb1505af3943bdf99903da87524fe&#45;&gt;dir_e4cd57caa88bf1f4e1bf9521bc47c3c0</title>
<path fill="none" stroke="black" d="M645.43,-375.87C643.22,-351.67 639.15,-307.21 636.51,-278.39"/>
<polygon fill="black" stroke="black" points="639.97,-277.83 635.57,-268.19 633,-278.47 639.97,-277.83"/>
<g id="a_edge22&#45;headlabel"><a xlink:href="dir_000027_000010.html" target="_top" xlink:title="1">
<text text-anchor="middle" x="643.13" y="-278.65" font-family="Helvetica,sans-Serif" font-size="10.00">1</text>
</a>
</g>
</g>
<!-- dir_3d3615e9a999cab4f3407307569d6ced&#45;&gt;dir_ebb19deee3cd40f4ac122fef25c04ca8 -->
<g id="edge54" class="edge">
<title>dir_3d3615e9a999cab4f3407307569d6ced&#45;&gt;dir_ebb19deee3cd40f4ac122fef25c04ca8</title>
<path fill="none" stroke="black" d="M500.97,-331.62C462.97,-342.6 392.76,-361.84 339.84,-375.86"/>
<polygon fill="black" stroke="black" points="338.94,-372.47 330.17,-378.41 340.73,-379.24 338.94,-372.47"/>
<g id="a_edge54&#45;headlabel"><a xlink:href="dir_000018_000012.html" target="_top" xlink:title="1">
<text text-anchor="middle" x="341.69" y="-366.31" font-family="Helvetica,sans-Serif" font-size="10.00">1</text>
</a>
</g>
</g>
<!-- dir_3d3615e9a999cab4f3407307569d6ced&#45;&gt;dir_e4cd57caa88bf1f4e1bf9521bc47c3c0 -->
<g id="edge55" class="edge">
<title>dir_3d3615e9a999cab4f3407307569d6ced&#45;&gt;dir_e4cd57caa88bf1f4e1bf9521bc47c3c0</title>
<path fill="none" stroke="black" d="M548.03,-303.88C562.09,-293.9 581.11,-281.29 597.75,-270.88"/>
<polygon fill="black" stroke="black" points="600.02,-273.58 606.69,-265.35 596.35,-267.63 600.02,-273.58"/>
<g id="a_edge55&#45;headlabel"><a xlink:href="dir_000018_000010.html" target="_top" xlink:title="1">
<text text-anchor="middle" x="598.46" y="-275.39" font-family="Helvetica,sans-Serif" font-size="10.00">1</text>
</a>
</g>
</g>
<!-- dir_63a0b6c750cdf58b4c6ba486311e48e1 -->
<g id="node5" class="node">
<title>dir_63a0b6c750cdf58b4c6ba486311e48e1</title>
<g id="a_node5"><a xlink:href="dir_63a0b6c750cdf58b4c6ba486311e48e1.html" target="_top" xlink:title="derive">
<polygon fill="white" stroke="black" points="574,-412 520,-412 520,-376 574,-376 574,-412"/>
<text text-anchor="middle" x="547" y="-391.5" font-family="Helvetica,sans-Serif" font-size="10.00">derive</text>
</a>
</g>
</g>
<!-- dir_63a0b6c750cdf58b4c6ba486311e48e1&#45;&gt;dir_3d3615e9a999cab4f3407307569d6ced -->
<g id="edge35" class="edge">
<title>dir_63a0b6c750cdf58b4c6ba486311e48e1&#45;&gt;dir_3d3615e9a999cab4f3407307569d6ced</title>
<path fill="none" stroke="black" d="M542.3,-375.7C540.19,-367.9 537.64,-358.51 535.28,-349.83"/>
<polygon fill="black" stroke="black" points="538.64,-348.84 532.64,-340.1 531.88,-350.67 538.64,-348.84"/>
<g id="a_edge35&#45;headlabel"><a xlink:href="dir_000026_000018.html" target="_top" xlink:title="1">
<text text-anchor="middle" x="542.32" y="-349.06" font-family="Helvetica,sans-Serif" font-size="10.00">1</text>
</a>
</g>
</g>
<!-- dir_a816a247b59c90f95e41afe29b966a18 -->
<g id="node6" class="node">
<title>dir_a816a247b59c90f95e41afe29b966a18</title>
<g id="a_node6"><a xlink:href="dir_a816a247b59c90f95e41afe29b966a18.html" target="_top" xlink:title="diffusion">
<polygon fill="white" stroke="black" points="803.5,-52 744.5,-52 744.5,-16 803.5,-16 803.5,-52"/>
<text text-anchor="middle" x="774" y="-31.5" font-family="Helvetica,sans-Serif" font-size="10.00">diffusion</text>
</a>
</g>
</g>
<!-- dir_a816a247b59c90f95e41afe29b966a18&#45;&gt;dir_3d3615e9a999cab4f3407307569d6ced -->
<g id="edge45" class="edge">
<title>dir_a816a247b59c90f95e41afe29b966a18&#45;&gt;dir_3d3615e9a999cab4f3407307569d6ced</title>
<path fill="none" stroke="black" d="M758.4,-52.15C748.99,-62.51 736.78,-75.99 726,-88 668.81,-151.74 652.94,-166.32 598,-232 580.44,-252.99 561.28,-277.47 547.45,-295.44"/>
<polygon fill="black" stroke="black" points="544.43,-293.63 541.12,-303.69 549.98,-297.89 544.43,-293.63"/>
<g id="a_edge45&#45;headlabel"><a xlink:href="dir_000023_000018.html" target="_top" xlink:title="1">
<text text-anchor="middle" x="544.36" y="-286.55" font-family="Helvetica,sans-Serif" font-size="10.00">1</text>
</a>
</g>
</g>
<!-- dir_4bb30ed846ea1df1fc4d16874a455d91&#45;&gt;dir_ebb19deee3cd40f4ac122fef25c04ca8 -->
<g id="edge50" class="edge">
<title>dir_4bb30ed846ea1df1fc4d16874a455d91&#45;&gt;dir_ebb19deee3cd40f4ac122fef25c04ca8</title>
<path fill="none" stroke="black" d="M467.98,-450.15C430.64,-439.7 380.3,-425.6 339.86,-414.28"/>
<polygon fill="black" stroke="black" points="340.64,-410.87 330.07,-411.54 338.75,-417.61 340.64,-410.87"/>
<g id="a_edge50&#45;headlabel"><a xlink:href="dir_000002_000012.html" target="_top" xlink:title="2">
<text text-anchor="middle" x="344.87" y="-406.6" font-family="Helvetica,sans-Serif" font-size="10.00">2</text>
</a>
</g>
</g>
<!-- dir_4bb30ed846ea1df1fc4d16874a455d91&#45;&gt;dir_35ffb1505af3943bdf99903da87524fe -->
<g id="edge48" class="edge">
<title>dir_4bb30ed846ea1df1fc4d16874a455d91&#45;&gt;dir_35ffb1505af3943bdf99903da87524fe</title>
<path fill="none" stroke="black" d="M551.82,-447.88C568.45,-438.64 589.16,-427.13 607.02,-417.21"/>
<polygon fill="black" stroke="black" points="609.02,-420.11 616.06,-412.19 605.62,-413.99 609.02,-420.11"/>
<g id="a_edge48&#45;headlabel"><a xlink:href="dir_000002_000027.html" target="_top" xlink:title="2">
<text text-anchor="middle" x="607.25" y="-421.83" font-family="Helvetica,sans-Serif" font-size="10.00">2</text>
</a>
</g>
</g>
<!-- dir_4bb30ed846ea1df1fc4d16874a455d91&#45;&gt;dir_3d3615e9a999cab4f3407307569d6ced -->
<g id="edge53" class="edge">
<title>dir_4bb30ed846ea1df1fc4d16874a455d91&#45;&gt;dir_3d3615e9a999cab4f3407307569d6ced</title>
<path fill="none" stroke="black" d="M467.83,-456.44C409.43,-444.67 327.9,-419.79 360,-376 389.88,-335.24 451.18,-325.02 490.89,-322.89"/>
<polygon fill="black" stroke="black" points="491.12,-326.39 500.98,-322.5 490.85,-319.39 491.12,-326.39"/>
<g id="a_edge53&#45;headlabel"><a xlink:href="dir_000002_000018.html" target="_top" xlink:title="54">
<text text-anchor="middle" x="487.64" y="-326.86" font-family="Helvetica,sans-Serif" font-size="10.00">54</text>
</a>
</g>
</g>
<!-- dir_4bb30ed846ea1df1fc4d16874a455d91&#45;&gt;dir_a816a247b59c90f95e41afe29b966a18 -->
<g id="edge52" class="edge">
<title>dir_4bb30ed846ea1df1fc4d16874a455d91&#45;&gt;dir_a816a247b59c90f95e41afe29b966a18</title>
<path fill="none" stroke="black" d="M574.28,-464.85C667.15,-463.45 853.16,-455.15 899,-412 928.38,-384.34 917,-363.36 917,-323 917,-323 917,-323 917,-177 917,-118 854.95,-75.12 812.6,-52.71"/>
<polygon fill="black" stroke="black" points="814.13,-49.56 803.63,-48.12 810.93,-55.79 814.13,-49.56"/>
<g id="a_edge52&#45;headlabel"><a xlink:href="dir_000002_000023.html" target="_top" xlink:title="1">
<text text-anchor="middle" x="818.62" y="-46.18" font-family="Helvetica,sans-Serif" font-size="10.00">1</text>
</a>
</g>
</g>
<!-- dir_4bb30ed846ea1df1fc4d16874a455d91&#45;&gt;dir_f2c65bfcbdc19ebacbfc0bbbfb0d01b6 -->
<g id="edge47" class="edge">
<title>dir_4bb30ed846ea1df1fc4d16874a455d91&#45;&gt;dir_f2c65bfcbdc19ebacbfc0bbbfb0d01b6</title>
<path fill="none" stroke="black" d="M467.57,-462.89C351.6,-457.56 85.55,-441.84 59,-412 -33.12,-308.48 229.07,-217.32 329.12,-188.47"/>
<polygon fill="black" stroke="black" points="330.16,-191.81 338.83,-185.72 328.26,-185.08 330.16,-191.81"/>
<g id="a_edge47&#45;headlabel"><a xlink:href="dir_000002_000015.html" target="_top" xlink:title="2">
<text text-anchor="middle" x="327.48" y="-193.02" font-family="Helvetica,sans-Serif" font-size="10.00">2</text>
</a>
</g>
</g>
<!-- dir_4bb30ed846ea1df1fc4d16874a455d91&#45;&gt;dir_9ff815a534beac751fa88e427dbab695 -->
<g id="edge46" class="edge">
<title>dir_4bb30ed846ea1df1fc4d16874a455d91&#45;&gt;dir_9ff815a534beac751fa88e427dbab695</title>
<path fill="none" stroke="black" d="M467.79,-463.19C347.66,-458.38 64.17,-443.49 36,-412 9.03,-381.86 40.62,-265.69 63,-232 94.17,-185.06 148.67,-147.7 187.04,-126.45"/>
<polygon fill="black" stroke="black" points="188.8,-129.48 195.94,-121.65 185.48,-123.32 188.8,-129.48"/>
<g id="a_edge46&#45;headlabel"><a xlink:href="dir_000002_000031.html" target="_top" xlink:title="4">
<text text-anchor="middle" x="186.98" y="-131.19" font-family="Helvetica,sans-Serif" font-size="10.00">4</text>
</a>
</g>
</g>
<!-- dir_4bb30ed846ea1df1fc4d16874a455d91&#45;&gt;dir_e4cd57caa88bf1f4e1bf9521bc47c3c0 -->
<g id="edge51" class="edge">
<title>dir_4bb30ed846ea1df1fc4d16874a455d91&#45;&gt;dir_e4cd57caa88bf1f4e1bf9521bc47c3c0</title>
<path fill="none" stroke="black" d="M574.02,-460.35C635.65,-453.97 731.52,-439.94 754,-412 793.64,-362.75 717.28,-304.87 669,-273.68"/>
<polygon fill="black" stroke="black" points="670.66,-270.59 660.35,-268.17 666.9,-276.5 670.66,-270.59"/>
<g id="a_edge51&#45;headlabel"><a xlink:href="dir_000002_000010.html" target="_top" xlink:title="12">
<text text-anchor="middle" x="675.22" y="-267.62" font-family="Helvetica,sans-Serif" font-size="10.00">12</text>
</a>
</g>
</g>
<!-- dir_0c368f76a33d967d5b838b5681461de6 -->
<g id="node18" class="node">
<title>dir_0c368f76a33d967d5b838b5681461de6</title>
<g id="a_node18"><a xlink:href="dir_0c368f76a33d967d5b838b5681461de6.html" target="_top" xlink:title="wind_energy">
<polygon fill="white" stroke="red" points="813.5,-124 734.5,-124 734.5,-88 813.5,-88 813.5,-124"/>
<text text-anchor="middle" x="774" y="-103.5" font-family="Helvetica,sans-Serif" font-size="10.00">wind_energy</text>
</a>
</g>
</g>
<!-- dir_4bb30ed846ea1df1fc4d16874a455d91&#45;&gt;dir_0c368f76a33d967d5b838b5681461de6 -->
<g id="edge49" class="edge">
<title>dir_4bb30ed846ea1df1fc4d16874a455d91&#45;&gt;dir_0c368f76a33d967d5b838b5681461de6</title>
<path fill="none" stroke="black" d="M574.34,-464.88C663.48,-463.36 836.63,-454.72 878,-412 905.69,-383.41 888,-362.8 888,-323 888,-323 888,-323 888,-249 888,-196.83 839.99,-154.42 806.15,-129.94"/>
<polygon fill="black" stroke="black" points="808.08,-127.02 797.89,-124.11 804.04,-132.73 808.08,-127.02"/>
<g id="a_edge49&#45;headlabel"><a xlink:href="dir_000002_000001.html" target="_top" xlink:title="3">
<text text-anchor="middle" x="812.65" y="-124.27" font-family="Helvetica,sans-Serif" font-size="10.00">3</text>
</a>
</g>
</g>
<!-- dir_7f7a014517bfe31ea45620a6a947e37b -->
<g id="node8" class="node">
<title>dir_7f7a014517bfe31ea45620a6a947e37b</title>
<g id="a_node8"><a xlink:href="dir_7f7a014517bfe31ea45620a6a947e37b.html" target="_top" xlink:title="fvm">
<polygon fill="white" stroke="black" points="545,-52 491,-52 491,-16 545,-16 545,-52"/>
<text text-anchor="middle" x="518" y="-31.5" font-family="Helvetica,sans-Serif" font-size="10.00">fvm</text>
</a>
</g>
</g>
<!-- dir_7f7a014517bfe31ea45620a6a947e37b&#45;&gt;dir_3d3615e9a999cab4f3407307569d6ced -->
<g id="edge44" class="edge">
<title>dir_7f7a014517bfe31ea45620a6a947e37b&#45;&gt;dir_3d3615e9a999cab4f3407307569d6ced</title>
<path fill="none" stroke="black" d="M518.61,-52.31C520.28,-100.31 525.01,-235.44 527.05,-293.7"/>
<polygon fill="black" stroke="black" points="523.56,-294.09 527.4,-303.97 530.55,-293.85 523.56,-294.09"/>
<g id="a_edge44&#45;headlabel"><a xlink:href="dir_000020_000018.html" target="_top" xlink:title="1">
<text text-anchor="middle" x="520.59" y="-288.1" font-family="Helvetica,sans-Serif" font-size="10.00">1</text>
</a>
</g>
</g>
<!-- dir_fd923bd2d0167375463be7322a394e28 -->
<g id="node9" class="node">
<title>dir_fd923bd2d0167375463be7322a394e28</title>
<g id="a_node9"><a xlink:href="dir_fd923bd2d0167375463be7322a394e28.html" target="_top" xlink:title="immersed_boundary">
<polygon fill="white" stroke="red" points="193.5,-412 76.5,-412 76.5,-376 193.5,-376 193.5,-412"/>
<text text-anchor="middle" x="135" y="-391.5" font-family="Helvetica,sans-Serif" font-size="10.00">immersed_boundary</text>
</a>
</g>
</g>
<!-- dir_fd923bd2d0167375463be7322a394e28&#45;&gt;dir_3d3615e9a999cab4f3407307569d6ced -->
<g id="edge34" class="edge">
<title>dir_fd923bd2d0167375463be7322a394e28&#45;&gt;dir_3d3615e9a999cab4f3407307569d6ced</title>
<path fill="none" stroke="black" d="M193.53,-378.04C196.73,-377.32 199.9,-376.64 203,-376 306.53,-354.66 430.05,-336.5 490.67,-328.05"/>
<polygon fill="black" stroke="black" points="491.47,-331.48 500.9,-326.64 490.51,-324.54 491.47,-331.48"/>
<g id="a_edge34&#45;headlabel"><a xlink:href="dir_000013_000018.html" target="_top" xlink:title="12">
<text text-anchor="middle" x="488.3" y="-332.28" font-family="Helvetica,sans-Serif" font-size="10.00">12</text>
</a>
</g>
</g>
<!-- dir_fd923bd2d0167375463be7322a394e28&#45;&gt;dir_7f7a014517bfe31ea45620a6a947e37b -->
<g id="edge33" class="edge">
<title>dir_fd923bd2d0167375463be7322a394e28&#45;&gt;dir_7f7a014517bfe31ea45620a6a947e37b</title>
<path fill="none" stroke="black" d="M143.87,-375.85C153.77,-357.35 170.82,-327.41 189,-304 274.99,-193.23 302.15,-165.54 419,-88 438.96,-74.75 462.57,-62.01 481.73,-52.34"/>
<polygon fill="black" stroke="black" points="483.35,-55.44 490.74,-47.85 480.23,-49.18 483.35,-55.44"/>
<g id="a_edge33&#45;headlabel"><a xlink:href="dir_000013_000020.html" target="_top" xlink:title="2">
<text text-anchor="middle" x="481.4" y="-57.09" font-family="Helvetica,sans-Serif" font-size="10.00">2</text>
</a>
</g>
</g>
<!-- dir_fd923bd2d0167375463be7322a394e28&#45;&gt;dir_f2c65bfcbdc19ebacbfc0bbbfb0d01b6 -->
<g id="edge31" class="edge">
<title>dir_fd923bd2d0167375463be7322a394e28&#45;&gt;dir_f2c65bfcbdc19ebacbfc0bbbfb0d01b6</title>
<path fill="none" stroke="black" d="M153.51,-375.85C194.49,-337.89 292.92,-246.7 340.03,-203.06"/>
<polygon fill="black" stroke="black" points="342.44,-205.6 347.4,-196.23 337.68,-200.46 342.44,-205.6"/>
<g id="a_edge31&#45;headlabel"><a xlink:href="dir_000013_000015.html" target="_top" xlink:title="1">
<text text-anchor="middle" x="341.73" y="-207.62" font-family="Helvetica,sans-Serif" font-size="10.00">1</text>
</a>
</g>
</g>
<!-- dir_fd923bd2d0167375463be7322a394e28&#45;&gt;dir_e4cd57caa88bf1f4e1bf9521bc47c3c0 -->
<g id="edge32" class="edge">
<title>dir_fd923bd2d0167375463be7322a394e28&#45;&gt;dir_e4cd57caa88bf1f4e1bf9521bc47c3c0</title>
<path fill="none" stroke="black" d="M193.71,-376.29C297.69,-346.7 511.32,-285.91 597.13,-261.49"/>
<polygon fill="black" stroke="black" points="598.28,-264.8 606.94,-258.7 596.37,-258.07 598.28,-264.8"/>
<g id="a_edge32&#45;headlabel"><a xlink:href="dir_000013_000010.html" target="_top" xlink:title="2">
<text text-anchor="middle" x="595.6" y="-266.02" font-family="Helvetica,sans-Serif" font-size="10.00">2</text>
</a>
</g>
</g>
<!-- dir_c5b669aafe9c7ecc061565e8ddd9edfa -->
<g id="node10" class="node">
<title>dir_c5b669aafe9c7ecc061565e8ddd9edfa</title>
<g id="a_node10"><a xlink:href="dir_c5b669aafe9c7ecc061565e8ddd9edfa.html" target="_top" xlink:title="mesh_mapping_models">
<polygon fill="white" stroke="black" points="501.5,-412 368.5,-412 368.5,-376 501.5,-376 501.5,-412"/>
<text text-anchor="middle" x="435" y="-391.5" font-family="Helvetica,sans-Serif" font-size="10.00">mesh_mapping_models</text>
</a>
</g>
</g>
<!-- dir_c5b669aafe9c7ecc061565e8ddd9edfa&#45;&gt;dir_3d3615e9a999cab4f3407307569d6ced -->
<g id="edge21" class="edge">
<title>dir_c5b669aafe9c7ecc061565e8ddd9edfa&#45;&gt;dir_3d3615e9a999cab4f3407307569d6ced</title>
<path fill="none" stroke="black" d="M457.99,-375.7C469.81,-366.8 484.39,-355.82 497.18,-346.2"/>
<polygon fill="black" stroke="black" points="499.39,-348.91 505.28,-340.1 495.18,-343.32 499.39,-348.91"/>
<g id="a_edge21&#45;headlabel"><a xlink:href="dir_000017_000018.html" target="_top" xlink:title="2">
<text text-anchor="middle" x="498.23" y="-350.84" font-family="Helvetica,sans-Serif" font-size="10.00">2</text>
</a>
</g>
</g>
<!-- dir_629222d9fcf2f4ceefae477297f2ec84&#45;&gt;dir_3d3615e9a999cab4f3407307569d6ced -->
<g id="edge20" class="edge">
<title>dir_629222d9fcf2f4ceefae477297f2ec84&#45;&gt;dir_3d3615e9a999cab4f3407307569d6ced</title>
<path fill="none" stroke="black" d="M584.76,-519.68C592.18,-489.21 603.67,-424.63 583,-376 578.27,-364.86 569.92,-354.93 561.13,-346.76"/>
<polygon fill="black" stroke="black" points="563.23,-343.95 553.38,-340.05 558.65,-349.24 563.23,-343.95"/>
<g id="a_edge20&#45;headlabel"><a xlink:href="dir_000043_000018.html" target="_top" xlink:title="3">
<text text-anchor="middle" x="567.81" y="-341.65" font-family="Helvetica,sans-Serif" font-size="10.00">3</text>
</a>
</g>
</g>
<!-- dir_629222d9fcf2f4ceefae477297f2ec84&#45;&gt;dir_4bb30ed846ea1df1fc4d16874a455d91 -->
<g id="edge19" class="edge">
<title>dir_629222d9fcf2f4ceefae477297f2ec84&#45;&gt;dir_4bb30ed846ea1df1fc4d16874a455d91</title>
<path fill="none" stroke="black" d="M565.42,-519.7C558.34,-511.3 549.72,-501.07 541.95,-491.86"/>
<polygon fill="black" stroke="black" points="544.54,-489.49 535.42,-484.1 539.19,-494.01 544.54,-489.49"/>
<g id="a_edge19&#45;headlabel"><a xlink:href="dir_000043_000002.html" target="_top" xlink:title="1">
<text text-anchor="middle" x="549.03" y="-487.91" font-family="Helvetica,sans-Serif" font-size="10.00">1</text>
</a>
</g>
</g>
<!-- dir_629222d9fcf2f4ceefae477297f2ec84&#45;&gt;dir_e4cd57caa88bf1f4e1bf9521bc47c3c0 -->
<g id="edge18" class="edge">
<title>dir_629222d9fcf2f4ceefae477297f2ec84&#45;&gt;dir_e4cd57caa88bf1f4e1bf9521bc47c3c0</title>
<path fill="none" stroke="black" d="M607.09,-528.83C651.26,-513.86 737.43,-477.41 773,-412 796.86,-368.13 776.42,-340.18 742,-304 722.6,-283.61 693.7,-270 670.68,-261.68"/>
<polygon fill="black" stroke="black" points="671.81,-258.37 661.21,-258.44 669.54,-264.99 671.81,-258.37"/>
<g id="a_edge18&#45;headlabel"><a xlink:href="dir_000043_000010.html" target="_top" xlink:title="1">
<text text-anchor="middle" x="676.13" y="-254.35" font-family="Helvetica,sans-Serif" font-size="10.00">1</text>
</a>
</g>
</g>
<!-- dir_f2c65bfcbdc19ebacbfc0bbbfb0d01b6&#45;&gt;dir_3d3615e9a999cab4f3407307569d6ced -->
<g id="edge17" class="edge">
<title>dir_f2c65bfcbdc19ebacbfc0bbbfb0d01b6&#45;&gt;dir_3d3615e9a999cab4f3407307569d6ced</title>
<path fill="none" stroke="black" d="M385.61,-196.19C414.35,-221.39 468.04,-268.45 500.65,-297.03"/>
<polygon fill="black" stroke="black" points="498.63,-299.91 508.46,-303.87 503.25,-294.65 498.63,-299.91"/>
<g id="a_edge17&#45;headlabel"><a xlink:href="dir_000015_000018.html" target="_top" xlink:title="52">
<text text-anchor="middle" x="494.06" y="-297.18" font-family="Helvetica,sans-Serif" font-size="10.00">52</text>
</a>
</g>
</g>
<!-- dir_f2c65bfcbdc19ebacbfc0bbbfb0d01b6&#45;&gt;dir_4bb30ed846ea1df1fc4d16874a455d91 -->
<g id="edge16" class="edge">
<title>dir_f2c65bfcbdc19ebacbfc0bbbfb0d01b6&#45;&gt;dir_4bb30ed846ea1df1fc4d16874a455d91</title>
<path fill="none" stroke="black" d="M338.93,-187.87C250.8,-216.03 -15.77,-307.74 77,-412 102.07,-440.17 340.68,-455.76 457.43,-461.9"/>
<polygon fill="black" stroke="black" points="457.49,-465.41 467.65,-462.43 457.85,-458.42 457.49,-465.41"/>
<g id="a_edge16&#45;headlabel"><a xlink:href="dir_000015_000002.html" target="_top" xlink:title="4">
<text text-anchor="middle" x="453.75" y="-465.56" font-family="Helvetica,sans-Serif" font-size="10.00">4</text>
</a>
</g>
</g>
<!-- dir_f2c65bfcbdc19ebacbfc0bbbfb0d01b6&#45;&gt;dir_7f7a014517bfe31ea45620a6a947e37b -->
<g id="edge15" class="edge">
<title>dir_f2c65bfcbdc19ebacbfc0bbbfb0d01b6&#45;&gt;dir_7f7a014517bfe31ea45620a6a947e37b</title>
<path fill="none" stroke="black" d="M384.33,-159.87C411.27,-134.71 461.64,-87.65 492.27,-59.04"/>
<polygon fill="black" stroke="black" points="494.68,-61.57 499.6,-52.19 489.9,-56.46 494.68,-61.57"/>
<g id="a_edge15&#45;headlabel"><a xlink:href="dir_000015_000020.html" target="_top" xlink:title="4">
<text text-anchor="middle" x="493.99" y="-63.6" font-family="Helvetica,sans-Serif" font-size="10.00">4</text>
</a>
</g>
</g>
<!-- dir_f2c65bfcbdc19ebacbfc0bbbfb0d01b6&#45;&gt;dir_9ff815a534beac751fa88e427dbab695 -->
<g id="edge12" class="edge">
<title>dir_f2c65bfcbdc19ebacbfc0bbbfb0d01b6&#45;&gt;dir_9ff815a534beac751fa88e427dbab695</title>
<path fill="none" stroke="black" d="M338.81,-163C319.81,-153.23 294.08,-139.98 272.41,-128.83"/>
<polygon fill="black" stroke="black" points="273.9,-125.66 263.41,-124.19 270.69,-131.88 273.9,-125.66"/>
<g id="a_edge12&#45;headlabel"><a xlink:href="dir_000015_000031.html" target="_top" xlink:title="1">
<text text-anchor="middle" x="278.39" y="-122.28" font-family="Helvetica,sans-Serif" font-size="10.00">1</text>
</a>
</g>
</g>
<!-- dir_f2c65bfcbdc19ebacbfc0bbbfb0d01b6&#45;&gt;dir_e4cd57caa88bf1f4e1bf9521bc47c3c0 -->
<g id="edge14" class="edge">
<title>dir_f2c65bfcbdc19ebacbfc0bbbfb0d01b6&#45;&gt;dir_e4cd57caa88bf1f4e1bf9521bc47c3c0</title>
<path fill="none" stroke="black" d="M393.15,-185.05C441.6,-196.85 542.47,-223.1 597.12,-238.04"/>
<polygon fill="black" stroke="black" points="596.19,-241.42 606.76,-240.7 598.05,-234.67 596.19,-241.42"/>
<g id="a_edge14&#45;headlabel"><a xlink:href="dir_000015_000010.html" target="_top" xlink:title="11">
<text text-anchor="middle" x="591.97" y="-240.7" font-family="Helvetica,sans-Serif" font-size="10.00">11</text>
</a>
</g>
</g>
<!-- dir_f2c65bfcbdc19ebacbfc0bbbfb0d01b6&#45;&gt;dir_0c368f76a33d967d5b838b5681461de6 -->
<g id="edge13" class="edge">
<title>dir_f2c65bfcbdc19ebacbfc0bbbfb0d01b6&#45;&gt;dir_0c368f76a33d967d5b838b5681461de6</title>
<path fill="none" stroke="black" d="M393.09,-172.35C460.71,-160.75 637.74,-130.38 724.56,-115.48"/>
<polygon fill="black" stroke="black" points="725.17,-118.93 734.43,-113.79 723.98,-112.03 725.17,-118.93"/>
<g id="a_edge13&#45;headlabel"><a xlink:href="dir_000015_000001.html" target="_top" xlink:title="1">
<text text-anchor="middle" x="722.1" y="-119.84" font-family="Helvetica,sans-Serif" font-size="10.00">1</text>
</a>
</g>
</g>
<!-- dir_d599e6111b2fbf4fd47cd3a4f2a09da4 -->
<g id="node13" class="node">
<title>dir_d599e6111b2fbf4fd47cd3a4f2a09da4</title>
<g id="a_node13"><a xlink:href="dir_d599e6111b2fbf4fd47cd3a4f2a09da4.html" target="_top" xlink:title="projection">
<polygon fill="white" stroke="black" points="877.5,-412 812.5,-412 812.5,-376 877.5,-376 877.5,-412"/>
<text text-anchor="middle" x="845" y="-391.5" font-family="Helvetica,sans-Serif" font-size="10.00">projection</text>
</a>
</g>
</g>
<!-- dir_d599e6111b2fbf4fd47cd3a4f2a09da4&#45;&gt;dir_3d3615e9a999cab4f3407307569d6ced -->
<g id="edge8" class="edge">
<title>dir_d599e6111b2fbf4fd47cd3a4f2a09da4&#45;&gt;dir_3d3615e9a999cab4f3407307569d6ced</title>
<path fill="none" stroke="black" d="M812.27,-385.77C752.78,-372.64 627.32,-344.93 564.89,-331.15"/>
<polygon fill="black" stroke="black" points="565.6,-327.72 555.08,-328.98 564.09,-334.55 565.6,-327.72"/>
<g id="a_edge8&#45;headlabel"><a xlink:href="dir_000029_000018.html" target="_top" xlink:title="2">
<text text-anchor="middle" x="569.72" y="-323.22" font-family="Helvetica,sans-Serif" font-size="10.00">2</text>
</a>
</g>
</g>
<!-- dir_d599e6111b2fbf4fd47cd3a4f2a09da4&#45;&gt;dir_e4cd57caa88bf1f4e1bf9521bc47c3c0 -->
<g id="edge7" class="edge">
<title>dir_d599e6111b2fbf4fd47cd3a4f2a09da4&#45;&gt;dir_e4cd57caa88bf1f4e1bf9521bc47c3c0</title>
<path fill="none" stroke="black" d="M840.24,-375.73C833.85,-355.7 820.61,-323 798,-304 761.61,-273.43 707.25,-260.39 671.23,-254.9"/>
<polygon fill="black" stroke="black" points="671.52,-251.4 661.13,-253.48 670.54,-258.34 671.52,-251.4"/>
<g id="a_edge7&#45;headlabel"><a xlink:href="dir_000029_000010.html" target="_top" xlink:title="1">
<text text-anchor="middle" x="675.47" y="-246.59" font-family="Helvetica,sans-Serif" font-size="10.00">1</text>
</a>
</g>
</g>
<!-- dir_d599e6111b2fbf4fd47cd3a4f2a09da4&#45;&gt;dir_0c368f76a33d967d5b838b5681461de6 -->
<g id="edge6" class="edge">
<title>dir_d599e6111b2fbf4fd47cd3a4f2a09da4&#45;&gt;dir_0c368f76a33d967d5b838b5681461de6</title>
<path fill="none" stroke="black" d="M840.77,-375.97C828.91,-328.19 795.26,-192.62 780.77,-134.27"/>
<polygon fill="black" stroke="black" points="784.1,-133.17 778.3,-124.31 777.31,-134.86 784.1,-133.17"/>
<g id="a_edge6&#45;headlabel"><a xlink:href="dir_000029_000001.html" target="_top" xlink:title="1">
<text text-anchor="middle" x="787.72" y="-133.47" font-family="Helvetica,sans-Serif" font-size="10.00">1</text>
</a>
</g>
</g>
<!-- dir_073a3c37bc9e3eb3e412aa8cf4eda4c3 -->
<g id="node14" class="node">
<title>dir_073a3c37bc9e3eb3e412aa8cf4eda4c3</title>
<g id="a_node14"><a xlink:href="dir_073a3c37bc9e3eb3e412aa8cf4eda4c3.html" target="_top" xlink:title="setup">
<polygon fill="white" stroke="black" points="754,-412 700,-412 700,-376 754,-376 754,-412"/>
<text text-anchor="middle" x="727" y="-391.5" font-family="Helvetica,sans-Serif" font-size="10.00">setup</text>
</a>
</g>
</g>
<!-- dir_073a3c37bc9e3eb3e412aa8cf4eda4c3&#45;&gt;dir_3d3615e9a999cab4f3407307569d6ced -->
<g id="edge43" class="edge">
<title>dir_073a3c37bc9e3eb3e412aa8cf4eda4c3&#45;&gt;dir_3d3615e9a999cab4f3407307569d6ced</title>
<path fill="none" stroke="black" d="M699.64,-379.64C696.75,-378.36 693.83,-377.12 691,-376 648.51,-359.14 598.33,-343.43 564.98,-333.56"/>
<polygon fill="black" stroke="black" points="565.78,-330.15 555.2,-330.69 563.81,-336.87 565.78,-330.15"/>
<g id="a_edge43&#45;headlabel"><a xlink:href="dir_000030_000018.html" target="_top" xlink:title="1">
<text text-anchor="middle" x="570.03" y="-325.94" font-family="Helvetica,sans-Serif" font-size="10.00">1</text>
</a>
</g>
</g>
<!-- dir_073a3c37bc9e3eb3e412aa8cf4eda4c3&#45;&gt;dir_f2c65bfcbdc19ebacbfc0bbbfb0d01b6 -->
<g id="edge40" class="edge">
<title>dir_073a3c37bc9e3eb3e412aa8cf4eda4c3&#45;&gt;dir_f2c65bfcbdc19ebacbfc0bbbfb0d01b6</title>
<path fill="none" stroke="black" d="M699.87,-376.92C635.71,-338.88 474.63,-243.4 402.24,-200.48"/>
<polygon fill="black" stroke="black" points="403.84,-197.36 393.45,-195.27 400.27,-203.38 403.84,-197.36"/>
<g id="a_edge40&#45;headlabel"><a xlink:href="dir_000030_000015.html" target="_top" xlink:title="1">
<text text-anchor="middle" x="408.38" y="-194.25" font-family="Helvetica,sans-Serif" font-size="10.00">1</text>
</a>
</g>
</g>
<!-- dir_073a3c37bc9e3eb3e412aa8cf4eda4c3&#45;&gt;dir_e4cd57caa88bf1f4e1bf9521bc47c3c0 -->
<g id="edge42" class="edge">
<title>dir_073a3c37bc9e3eb3e412aa8cf4eda4c3&#45;&gt;dir_e4cd57caa88bf1f4e1bf9521bc47c3c0</title>
<path fill="none" stroke="black" d="M715.78,-375.87C699.65,-351.24 669.78,-305.64 650.95,-276.88"/>
<polygon fill="black" stroke="black" points="653.66,-274.64 645.26,-268.19 647.81,-278.47 653.66,-274.64"/>
<g id="a_edge42&#45;headlabel"><a xlink:href="dir_000030_000010.html" target="_top" xlink:title="2">
<text text-anchor="middle" x="658.01" y="-273.59" font-family="Helvetica,sans-Serif" font-size="10.00">2</text>
</a>
</g>
</g>
<!-- dir_073a3c37bc9e3eb3e412aa8cf4eda4c3&#45;&gt;dir_0c368f76a33d967d5b838b5681461de6 -->
<g id="edge41" class="edge">
<title>dir_073a3c37bc9e3eb3e412aa8cf4eda4c3&#45;&gt;dir_0c368f76a33d967d5b838b5681461de6</title>
<path fill="none" stroke="black" d="M729.8,-375.97C737.65,-328.19 759.93,-192.62 769.52,-134.27"/>
<polygon fill="black" stroke="black" points="772.99,-134.74 771.16,-124.31 766.08,-133.61 772.99,-134.74"/>
<g id="a_edge41&#45;headlabel"><a xlink:href="dir_000030_000001.html" target="_top" xlink:title="1">
<text text-anchor="middle" x="775.21" y="-136.25" font-family="Helvetica,sans-Serif" font-size="10.00">1</text>
</a>
</g>
</g>
<!-- dir_7b7e55eaa727ae9c717abfc097345a8f -->
<g id="node15" class="node">
<title>dir_7b7e55eaa727ae9c717abfc097345a8f</title>
<g id="a_node15"><a xlink:href="dir_7b7e55eaa727ae9c717abfc097345a8f.html" target="_top" xlink:title="transport_models">
<polygon fill="white" stroke="black" points="281,-52 179,-52 179,-16 281,-16 281,-52"/>
<text text-anchor="middle" x="230" y="-31.5" font-family="Helvetica,sans-Serif" font-size="10.00">transport_models</text>
</a>
</g>
</g>
<!-- dir_7b7e55eaa727ae9c717abfc097345a8f&#45;&gt;dir_3d3615e9a999cab4f3407307569d6ced -->
<g id="edge57" class="edge">
<title>dir_7b7e55eaa727ae9c717abfc097345a8f&#45;&gt;dir_3d3615e9a999cab4f3407307569d6ced</title>
<path fill="none" stroke="black" d="M210.96,-52.16C201.82,-61.7 191.83,-74.38 187,-88 181.65,-103.08 180.01,-109.61 187,-124 245.69,-244.86 415.2,-296.25 490.82,-313.61"/>
<polygon fill="black" stroke="black" points="490.32,-317.08 500.84,-315.84 491.84,-310.25 490.32,-317.08"/>
<g id="a_edge57&#45;headlabel"><a xlink:href="dir_000019_000018.html" target="_top" xlink:title="2">
<text text-anchor="middle" x="486.2" y="-316.58" font-family="Helvetica,sans-Serif" font-size="10.00">2</text>
</a>
</g>
</g>
<!-- dir_7b7e55eaa727ae9c717abfc097345a8f&#45;&gt;dir_f2c65bfcbdc19ebacbfc0bbbfb0d01b6 -->
<g id="edge56" class="edge">
<title>dir_7b7e55eaa727ae9c717abfc097345a8f&#45;&gt;dir_f2c65bfcbdc19ebacbfc0bbbfb0d01b6</title>
<path fill="none" stroke="black" d="M246.46,-52.19C270.39,-77.17 314.9,-123.65 342.34,-152.3"/>
<polygon fill="black" stroke="black" points="340.15,-155.07 349.6,-159.87 345.21,-150.23 340.15,-155.07"/>
<g id="a_edge56&#45;headlabel"><a xlink:href="dir_000019_000015.html" target="_top" xlink:title="1">
<text text-anchor="middle" x="335.61" y="-151.94" font-family="Helvetica,sans-Serif" font-size="10.00">1</text>
</a>
</g>
</g>
<!-- dir_9ff815a534beac751fa88e427dbab695&#45;&gt;dir_3d3615e9a999cab4f3407307569d6ced -->
<g id="edge3" class="edge">
<title>dir_9ff815a534beac751fa88e427dbab695&#45;&gt;dir_3d3615e9a999cab4f3407307569d6ced</title>
<path fill="none" stroke="black" d="M247.13,-124.02C279.4,-155.43 352.34,-223.39 423,-268 445.01,-281.9 471.14,-295.09 491.82,-304.84"/>
<polygon fill="black" stroke="black" points="490.36,-308.03 500.91,-309.07 493.32,-301.68 490.36,-308.03"/>
<g id="a_edge3&#45;headlabel"><a xlink:href="dir_000031_000018.html" target="_top" xlink:title="5">
<text text-anchor="middle" x="485.91" y="-306.59" font-family="Helvetica,sans-Serif" font-size="10.00">5</text>
</a>
</g>
</g>
<!-- dir_9ff815a534beac751fa88e427dbab695&#45;&gt;dir_4bb30ed846ea1df1fc4d16874a455d91 -->
<g id="edge4" class="edge">
<title>dir_9ff815a534beac751fa88e427dbab695&#45;&gt;dir_4bb30ed846ea1df1fc4d16874a455d91</title>
<path fill="none" stroke="black" d="M204.21,-124.18C170.71,-144.97 113.31,-183.34 81,-232 58.62,-265.69 27.03,-381.86 54,-412 80.67,-441.8 336.1,-456.74 457.56,-462.33"/>
<polygon fill="black" stroke="black" points="457.69,-465.84 467.83,-462.79 458,-458.85 457.69,-465.84"/>
<g id="a_edge4&#45;headlabel"><a xlink:href="dir_000031_000002.html" target="_top" xlink:title="11">
<text text-anchor="middle" x="453.97" y="-466.01" font-family="Helvetica,sans-Serif" font-size="10.00">11</text>
</a>
</g>
</g>
<!-- dir_9ff815a534beac751fa88e427dbab695&#45;&gt;dir_7f7a014517bfe31ea45620a6a947e37b -->
<g id="edge2" class="edge">
<title>dir_9ff815a534beac751fa88e427dbab695&#45;&gt;dir_7f7a014517bfe31ea45620a6a947e37b</title>
<path fill="none" stroke="black" d="M264.18,-92.32C268.8,-90.77 273.5,-89.29 278,-88 348.75,-67.74 433.09,-50.73 480.61,-41.78"/>
<polygon fill="black" stroke="black" points="481.55,-45.16 490.73,-39.89 480.26,-38.28 481.55,-45.16"/>
<g id="a_edge2&#45;headlabel"><a xlink:href="dir_000031_000020.html" target="_top" xlink:title="8">
<text text-anchor="middle" x="478.53" y="-46.11" font-family="Helvetica,sans-Serif" font-size="10.00">8</text>
</a>
</g>
</g>
<!-- dir_9ff815a534beac751fa88e427dbab695&#45;&gt;dir_7b7e55eaa727ae9c717abfc097345a8f -->
<g id="edge5" class="edge">
<title>dir_9ff815a534beac751fa88e427dbab695&#45;&gt;dir_7b7e55eaa727ae9c717abfc097345a8f</title>
<path fill="none" stroke="black" d="M230,-87.7C230,-79.98 230,-70.71 230,-62.11"/>
<polygon fill="black" stroke="black" points="233.5,-62.1 230,-52.1 226.5,-62.1 233.5,-62.1"/>
<g id="a_edge5&#45;headlabel"><a xlink:href="dir_000031_000019.html" target="_top" xlink:title="2">
<text text-anchor="middle" x="236.34" y="-63.2" font-family="Helvetica,sans-Serif" font-size="10.00">2</text>
</a>
</g>
</g>
<!-- dir_9ff815a534beac751fa88e427dbab695&#45;&gt;dir_e4cd57caa88bf1f4e1bf9521bc47c3c0 -->
<g id="edge1" class="edge">
<title>dir_9ff815a534beac751fa88e427dbab695&#45;&gt;dir_e4cd57caa88bf1f4e1bf9521bc47c3c0</title>
<path fill="none" stroke="black" d="M264.16,-116.79C299.03,-126.95 354.6,-143.63 402,-160 471.71,-184.08 551.78,-215.69 597.28,-234.03"/>
<polygon fill="black" stroke="black" points="596.14,-237.35 606.72,-237.85 598.76,-230.86 596.14,-237.35"/>
<g id="a_edge1&#45;headlabel"><a xlink:href="dir_000031_000010.html" target="_top" xlink:title="1">
<text text-anchor="middle" x="591.74" y="-236.13" font-family="Helvetica,sans-Serif" font-size="10.00">1</text>
</a>
</g>
</g>
<!-- dir_e4cd57caa88bf1f4e1bf9521bc47c3c0&#45;&gt;dir_3d3615e9a999cab4f3407307569d6ced -->
<g id="edge39" class="edge">
<title>dir_e4cd57caa88bf1f4e1bf9521bc47c3c0&#45;&gt;dir_3d3615e9a999cab4f3407307569d6ced</title>
<path fill="none" stroke="black" d="M614.1,-268.03C599.9,-278.11 580.58,-290.92 563.79,-301.41"/>
<polygon fill="black" stroke="black" points="561.95,-298.44 555.28,-306.67 565.63,-304.39 561.95,-298.44"/>
<g id="a_edge39&#45;headlabel"><a xlink:href="dir_000010_000018.html" target="_top" xlink:title="23">
<text text-anchor="middle" x="563.52" y="-291.63" font-family="Helvetica,sans-Serif" font-size="10.00">23</text>
</a>
</g>
</g>
<!-- dir_e4cd57caa88bf1f4e1bf9521bc47c3c0&#45;&gt;dir_4bb30ed846ea1df1fc4d16874a455d91 -->
<g id="edge38" class="edge">
<title>dir_e4cd57caa88bf1f4e1bf9521bc47c3c0&#45;&gt;dir_4bb30ed846ea1df1fc4d16874a455d91</title>
<path fill="none" stroke="black" d="M661.36,-262.93C713.43,-289.65 816.8,-356.33 772,-412 749.21,-440.33 650.97,-454.35 584.28,-460.62"/>
<polygon fill="black" stroke="black" points="583.92,-457.13 574.28,-461.52 584.55,-464.11 583.92,-457.13"/>
<g id="a_edge38&#45;headlabel"><a xlink:href="dir_000010_000002.html" target="_top" xlink:title="1">
<text text-anchor="middle" x="587.25" y="-451.48" font-family="Helvetica,sans-Serif" font-size="10.00">1</text>
</a>
</g>
</g>
<!-- dir_e4cd57caa88bf1f4e1bf9521bc47c3c0&#45;&gt;dir_7f7a014517bfe31ea45620a6a947e37b -->
<g id="edge37" class="edge">
<title>dir_e4cd57caa88bf1f4e1bf9521bc47c3c0&#45;&gt;dir_7f7a014517bfe31ea45620a6a947e37b</title>
<path fill="none" stroke="black" d="M624.7,-231.85C604.47,-194.52 556.32,-105.69 532.23,-61.26"/>
<polygon fill="black" stroke="black" points="535.18,-59.36 527.34,-52.23 529.03,-62.69 535.18,-59.36"/>
<g id="a_edge37&#45;headlabel"><a xlink:href="dir_000010_000020.html" target="_top" xlink:title="2">
<text text-anchor="middle" x="539.39" y="-58.66" font-family="Helvetica,sans-Serif" font-size="10.00">2</text>
</a>
</g>
</g>
<!-- dir_e4cd57caa88bf1f4e1bf9521bc47c3c0&#45;&gt;dir_f2c65bfcbdc19ebacbfc0bbbfb0d01b6 -->
<g id="edge36" class="edge">
<title>dir_e4cd57caa88bf1f4e1bf9521bc47c3c0&#45;&gt;dir_f2c65bfcbdc19ebacbfc0bbbfb0d01b6</title>
<path fill="none" stroke="black" d="M606.92,-242.97C558.57,-231.19 457.84,-204.98 403.12,-190.02"/>
<polygon fill="black" stroke="black" points="403.71,-186.55 393.14,-187.28 401.85,-193.3 403.71,-186.55"/>
<g id="a_edge36&#45;headlabel"><a xlink:href="dir_000010_000015.html" target="_top" xlink:title="1">
<text text-anchor="middle" x="407.93" y="-182.27" font-family="Helvetica,sans-Serif" font-size="10.00">1</text>
</a>
</g>
</g>
<!-- dir_0c368f76a33d967d5b838b5681461de6&#45;&gt;dir_3d3615e9a999cab4f3407307569d6ced -->
<g id="edge28" class="edge">
<title>dir_0c368f76a33d967d5b838b5681461de6&#45;&gt;dir_3d3615e9a999cab4f3407307569d6ced</title>
<path fill="none" stroke="black" d="M741.56,-124.07C723.8,-133.87 701.67,-146.81 683,-160 642.56,-188.57 632.37,-196.36 598,-232 578.68,-252.03 559.32,-277.13 545.87,-295.56"/>
<polygon fill="black" stroke="black" points="542.96,-293.61 539.95,-303.77 548.64,-297.71 542.96,-293.61"/>
<g id="a_edge28&#45;headlabel"><a xlink:href="dir_000001_000018.html" target="_top" xlink:title="32">
<text text-anchor="middle" x="542.76" y="-286.54" font-family="Helvetica,sans-Serif" font-size="10.00">32</text>
</a>
</g>
</g>
<!-- dir_0c368f76a33d967d5b838b5681461de6&#45;&gt;dir_a816a247b59c90f95e41afe29b966a18 -->
<g id="edge26" class="edge">
<title>dir_0c368f76a33d967d5b838b5681461de6&#45;&gt;dir_a816a247b59c90f95e41afe29b966a18</title>
<path fill="none" stroke="black" d="M774,-87.7C774,-79.98 774,-70.71 774,-62.11"/>
<polygon fill="black" stroke="black" points="777.5,-62.1 774,-52.1 770.5,-62.1 777.5,-62.1"/>
<g id="a_edge26&#45;headlabel"><a xlink:href="dir_000001_000023.html" target="_top" xlink:title="1">
<text text-anchor="middle" x="780.34" y="-63.2" font-family="Helvetica,sans-Serif" font-size="10.00">1</text>
</a>
</g>
</g>
<!-- dir_0c368f76a33d967d5b838b5681461de6&#45;&gt;dir_4bb30ed846ea1df1fc4d16874a455d91 -->
<g id="edge27" class="edge">
<title>dir_0c368f76a33d967d5b838b5681461de6&#45;&gt;dir_4bb30ed846ea1df1fc4d16874a455d91</title>
<path fill="none" stroke="black" d="M810.29,-124.11C849.5,-147.3 906,-192.41 906,-249 906,-323 906,-323 906,-323 906,-362.8 923.69,-383.41 896,-412 854.46,-454.88 680.12,-463.43 584.4,-464.9"/>
<polygon fill="black" stroke="black" points="584.21,-461.4 574.26,-465.03 584.31,-468.4 584.21,-461.4"/>
<g id="a_edge27&#45;headlabel"><a xlink:href="dir_000001_000002.html" target="_top" xlink:title="4">
<text text-anchor="middle" x="587.77" y="-456.01" font-family="Helvetica,sans-Serif" font-size="10.00">4</text>
</a>
</g>
</g>
<!-- dir_0c368f76a33d967d5b838b5681461de6&#45;&gt;dir_7f7a014517bfe31ea45620a6a947e37b -->
<g id="edge25" class="edge">
<title>dir_0c368f76a33d967d5b838b5681461de6&#45;&gt;dir_7f7a014517bfe31ea45620a6a947e37b</title>
<path fill="none" stroke="black" d="M734.28,-94.14C685.35,-80.76 602.85,-58.2 555.13,-45.15"/>
<polygon fill="black" stroke="black" points="555.79,-41.7 545.22,-42.44 553.94,-48.46 555.79,-41.7"/>
<g id="a_edge25&#45;headlabel"><a xlink:href="dir_000001_000020.html" target="_top" xlink:title="1">
<text text-anchor="middle" x="560" y="-37.41" font-family="Helvetica,sans-Serif" font-size="10.00">1</text>
</a>
</g>
</g>
<!-- dir_0c368f76a33d967d5b838b5681461de6&#45;&gt;dir_e4cd57caa88bf1f4e1bf9521bc47c3c0 -->
<g id="edge24" class="edge">
<title>dir_0c368f76a33d967d5b838b5681461de6&#45;&gt;dir_e4cd57caa88bf1f4e1bf9521bc47c3c0</title>
<path fill="none" stroke="black" d="M757.05,-124.19C732.32,-149.28 686.21,-196.05 657.99,-224.66"/>
<polygon fill="black" stroke="black" points="655.42,-222.29 650.89,-231.87 660.4,-227.21 655.42,-222.29"/>
<g id="a_edge24&#45;headlabel"><a xlink:href="dir_000001_000010.html" target="_top" xlink:title="39">
<text text-anchor="middle" x="655.92" y="-215.24" font-family="Helvetica,sans-Serif" font-size="10.00">39</text>
</a>
</g>
</g>
</g>
</svg>
