<?xml version="1.0" encoding="UTF-8" standalone="no"?>
<!DOCTYPE svg PUBLIC "-//W3C//DTD SVG 1.1//EN"
 "http://www.w3.org/Graphics/SVG/1.1/DTD/svg11.dtd">
<!-- Generated by graphviz version 2.43.0 (0)
 -->
<!-- Title: multiphase Pages: 1 -->
<svg width="220pt" height="375pt"
 viewBox="0.00 0.00 220.00 375.00" xmlns="http://www.w3.org/2000/svg" xmlns:xlink="http://www.w3.org/1999/xlink">
<g id="graph0" class="graph" transform="scale(1 1) rotate(0) translate(4 371)">
<title>multiphase</title>
<polygon fill="white" stroke="transparent" points="-4,4 -4,-371 216,-371 216,4 -4,4"/>
<g id="clust1" class="cluster">
<title>clusterdir_f2c65bfcbdc19ebacbfc0bbbfb0d01b6</title>
<g id="a_clust1"><a xlink:href="dir_f2c65bfcbdc19ebacbfc0bbbfb0d01b6.html" target="_top" xlink:title="physics">
<polygon fill="#ddddee" stroke="black" points="8,-272 8,-359 204,-359 204,-272 8,-272"/>
<text text-anchor="middle" x="106" y="-347" font-family="Helvetica,sans-Serif" font-size="10.00">physics</text>
</a>
</g>
</g>
<g id="clust2" class="cluster">
<title>clusterdir_e037da66ad872c58acfc861df6f5c212</title>
<g id="a_clust2"><a xlink:href="dir_e037da66ad872c58acfc861df6f5c212.html" target="_top">
<polygon fill="#eeeeff" stroke="black" points="16,-280 16,-332 196,-332 196,-280 16,-280"/>
</a>
</g>
</g>
<!-- dir_e037da66ad872c58acfc861df6f5c212 -->
<g id="node1" class="node">
<title>dir_e037da66ad872c58acfc861df6f5c212</title>
<text text-anchor="middle" x="60" y="-303.5" font-family="Helvetica,sans-Serif" font-size="10.00">multiphase</text>
</g>
<!-- dir_7f7a014517bfe31ea45620a6a947e37b -->
<g id="node4" class="node">
<title>dir_7f7a014517bfe31ea45620a6a947e37b</title>
<g id="a_node4"><a xlink:href="dir_7f7a014517bfe31ea45620a6a947e37b.html" target="_top" xlink:title="fvm">
<polygon fill="none" stroke="black" points="85,-252 31,-252 31,-216 85,-216 85,-252"/>
<text text-anchor="middle" x="58" y="-231.5" font-family="Helvetica,sans-Serif" font-size="10.00">fvm</text>
</a>
</g>
</g>
<!-- dir_e037da66ad872c58acfc861df6f5c212&#45;&gt;dir_7f7a014517bfe31ea45620a6a947e37b -->
<g id="edge1" class="edge">
<title>dir_e037da66ad872c58acfc861df6f5c212&#45;&gt;dir_7f7a014517bfe31ea45620a6a947e37b</title>
<path fill="none" stroke="black" d="M59.51,-287.7C59.29,-279.98 59.02,-270.71 58.77,-262.11"/>
<polygon fill="black" stroke="black" points="62.27,-262 58.49,-252.1 55.28,-262.2 62.27,-262"/>
<g id="a_edge1&#45;headlabel"><a xlink:href="dir_000021_000020.html" target="_top" xlink:title="4">
<text text-anchor="middle" x="65.21" y="-263.01" font-family="Helvetica,sans-Serif" font-size="10.00">4</text>
</a>
</g>
</g>
<!-- dir_4bb30ed846ea1df1fc4d16874a455d91 -->
<g id="node5" class="node">
<title>dir_4bb30ed846ea1df1fc4d16874a455d91</title>
<g id="a_node5"><a xlink:href="dir_4bb30ed846ea1df1fc4d16874a455d91.html" target="_top" xlink:title="equation_systems">
<polygon fill="white" stroke="red" points="138,-36 32,-36 32,0 138,0 138,-36"/>
<text text-anchor="middle" x="85" y="-15.5" font-family="Helvetica,sans-Serif" font-size="10.00">equation_systems</text>
</a>
</g>
</g>
<!-- dir_e037da66ad872c58acfc861df6f5c212&#45;&gt;dir_4bb30ed846ea1df1fc4d16874a455d91 -->
<g id="edge2" class="edge">
<title>dir_e037da66ad872c58acfc861df6f5c212&#45;&gt;dir_4bb30ed846ea1df1fc4d16874a455d91</title>
<path fill="none" stroke="black" d="M43.54,-287.92C35.35,-278.22 26.3,-265.37 22,-252 17.1,-236.77 20.52,-231.93 22,-216 28.03,-151.16 24.18,-132.2 49,-72 52.96,-62.38 58.84,-52.72 64.69,-44.33"/>
<polygon fill="black" stroke="black" points="67.63,-46.24 70.71,-36.1 61.98,-42.1 67.63,-46.24"/>
<g id="a_edge2&#45;headlabel"><a xlink:href="dir_000021_000002.html" target="_top" xlink:title="2">
<text text-anchor="middle" x="67.8" y="-48.31" font-family="Helvetica,sans-Serif" font-size="10.00">2</text>
</a>
</g>
</g>
<!-- dir_3d3615e9a999cab4f3407307569d6ced -->
<g id="node6" class="node">
<title>dir_3d3615e9a999cab4f3407307569d6ced</title>
<g id="a_node6"><a xlink:href="dir_3d3615e9a999cab4f3407307569d6ced.html" target="_top" xlink:title="core">
<polygon fill="white" stroke="red" points="140,-180 86,-180 86,-144 140,-144 140,-180"/>
<text text-anchor="middle" x="113" y="-159.5" font-family="Helvetica,sans-Serif" font-size="10.00">core</text>
</a>
</g>
</g>
<!-- dir_e037da66ad872c58acfc861df6f5c212&#45;&gt;dir_3d3615e9a999cab4f3407307569d6ced -->
<g id="edge3" class="edge">
<title>dir_e037da66ad872c58acfc861df6f5c212&#45;&gt;dir_3d3615e9a999cab4f3407307569d6ced</title>
<path fill="none" stroke="black" d="M73.34,-287.73C80.44,-277.78 88.76,-264.74 94,-252 102.15,-232.18 107,-208.39 109.76,-190.39"/>
<polygon fill="black" stroke="black" points="113.25,-190.66 111.18,-180.27 106.32,-189.69 113.25,-190.66"/>
<g id="a_edge3&#45;headlabel"><a xlink:href="dir_000021_000018.html" target="_top" xlink:title="19">
<text text-anchor="middle" x="115.56" y="-192.12" font-family="Helvetica,sans-Serif" font-size="10.00">19</text>
</a>
</g>
</g>
<!-- dir_395d4653ff6806a93ed466b9a19f08b6 -->
<g id="node2" class="node">
<title>dir_395d4653ff6806a93ed466b9a19f08b6</title>
<g id="a_node2"><a xlink:href="dir_395d4653ff6806a93ed466b9a19f08b6.html" target="_top" xlink:title="wave_basin">
<polygon fill="white" stroke="black" points="188,-324 114,-324 114,-288 188,-288 188,-324"/>
<text text-anchor="middle" x="151" y="-303.5" font-family="Helvetica,sans-Serif" font-size="10.00">wave_basin</text>
</a>
</g>
</g>
<!-- dir_e4cd57caa88bf1f4e1bf9521bc47c3c0 -->
<g id="node3" class="node">
<title>dir_e4cd57caa88bf1f4e1bf9521bc47c3c0</title>
<g id="a_node3"><a xlink:href="dir_e4cd57caa88bf1f4e1bf9521bc47c3c0.html" target="_top" xlink:title="utilities">
<polygon fill="white" stroke="red" points="112,-108 58,-108 58,-72 112,-72 112,-108"/>
<text text-anchor="middle" x="85" y="-87.5" font-family="Helvetica,sans-Serif" font-size="10.00">utilities</text>
</a>
</g>
</g>
<!-- dir_395d4653ff6806a93ed466b9a19f08b6&#45;&gt;dir_e4cd57caa88bf1f4e1bf9521bc47c3c0 -->
<g id="edge8" class="edge">
<title>dir_395d4653ff6806a93ed466b9a19f08b6&#45;&gt;dir_e4cd57caa88bf1f4e1bf9521bc47c3c0</title>
<path fill="none" stroke="black" d="M155.24,-287.97C161.91,-257.4 171.9,-191.92 149,-144 142.74,-130.91 131.52,-119.92 120.21,-111.41"/>
<polygon fill="black" stroke="black" points="122.21,-108.54 112.02,-105.65 118.18,-114.26 122.21,-108.54"/>
<g id="a_edge8&#45;headlabel"><a xlink:href="dir_000041_000010.html" target="_top" xlink:title="1">
<text text-anchor="middle" x="126.78" y="-105.78" font-family="Helvetica,sans-Serif" font-size="10.00">1</text>
</a>
</g>
</g>
<!-- dir_395d4653ff6806a93ed466b9a19f08b6&#45;&gt;dir_3d3615e9a999cab4f3407307569d6ced -->
<g id="edge9" class="edge">
<title>dir_395d4653ff6806a93ed466b9a19f08b6&#45;&gt;dir_3d3615e9a999cab4f3407307569d6ced</title>
<path fill="none" stroke="black" d="M146.42,-287.87C139.91,-263.56 127.94,-218.82 120.23,-190.01"/>
<polygon fill="black" stroke="black" points="123.57,-188.94 117.6,-180.19 116.8,-190.75 123.57,-188.94"/>
<g id="a_edge9&#45;headlabel"><a xlink:href="dir_000041_000018.html" target="_top" xlink:title="2">
<text text-anchor="middle" x="127.24" y="-189.18" font-family="Helvetica,sans-Serif" font-size="10.00">2</text>
</a>
</g>
</g>
<!-- dir_e4cd57caa88bf1f4e1bf9521bc47c3c0&#45;&gt;dir_7f7a014517bfe31ea45620a6a947e37b -->
<g id="edge4" class="edge">
<title>dir_e4cd57caa88bf1f4e1bf9521bc47c3c0&#45;&gt;dir_7f7a014517bfe31ea45620a6a947e37b</title>
<path fill="none" stroke="black" d="M81.73,-108.19C77.12,-132.42 68.67,-176.89 63.19,-205.68"/>
<polygon fill="black" stroke="black" points="59.69,-205.39 61.26,-215.87 66.56,-206.7 59.69,-205.39"/>
<g id="a_edge4&#45;headlabel"><a xlink:href="dir_000010_000020.html" target="_top" xlink:title="2">
<text text-anchor="middle" x="57.57" y="-198.83" font-family="Helvetica,sans-Serif" font-size="10.00">2</text>
</a>
</g>
</g>
<!-- dir_e4cd57caa88bf1f4e1bf9521bc47c3c0&#45;&gt;dir_4bb30ed846ea1df1fc4d16874a455d91 -->
<g id="edge5" class="edge">
<title>dir_e4cd57caa88bf1f4e1bf9521bc47c3c0&#45;&gt;dir_4bb30ed846ea1df1fc4d16874a455d91</title>
<path fill="none" stroke="black" d="M79.08,-71.7C78.29,-63.98 78.06,-54.71 78.4,-46.11"/>
<polygon fill="black" stroke="black" points="81.9,-46.32 79.1,-36.1 74.92,-45.84 81.9,-46.32"/>
<g id="a_edge5&#45;headlabel"><a xlink:href="dir_000010_000002.html" target="_top" xlink:title="1">
<text text-anchor="middle" x="84.48" y="-47.61" font-family="Helvetica,sans-Serif" font-size="10.00">1</text>
</a>
</g>
</g>
<!-- dir_e4cd57caa88bf1f4e1bf9521bc47c3c0&#45;&gt;dir_3d3615e9a999cab4f3407307569d6ced -->
<g id="edge6" class="edge">
<title>dir_e4cd57caa88bf1f4e1bf9521bc47c3c0&#45;&gt;dir_3d3615e9a999cab4f3407307569d6ced</title>
<path fill="none" stroke="black" d="M97.74,-108.1C101.66,-115.88 105.64,-125.26 108.77,-133.95"/>
<polygon fill="black" stroke="black" points="105.53,-135.3 111.99,-143.7 112.18,-133.1 105.53,-135.3"/>
<g id="a_edge6&#45;headlabel"><a xlink:href="dir_000010_000018.html" target="_top" xlink:title="23">
<text text-anchor="middle" x="101.71" y="-130.28" font-family="Helvetica,sans-Serif" font-size="10.00">23</text>
</a>
</g>
</g>
<!-- dir_7f7a014517bfe31ea45620a6a947e37b&#45;&gt;dir_3d3615e9a999cab4f3407307569d6ced -->
<g id="edge7" class="edge">
<title>dir_7f7a014517bfe31ea45620a6a947e37b&#45;&gt;dir_3d3615e9a999cab4f3407307569d6ced</title>
<path fill="none" stroke="black" d="M71.6,-215.7C78.12,-207.39 86.07,-197.28 93.25,-188.14"/>
<polygon fill="black" stroke="black" points="96.13,-190.13 99.56,-180.1 90.63,-185.81 96.13,-190.13"/>
<g id="a_edge7&#45;headlabel"><a xlink:href="dir_000020_000018.html" target="_top" xlink:title="1">
<text text-anchor="middle" x="96.15" y="-192.21" font-family="Helvetica,sans-Serif" font-size="10.00">1</text>
</a>
</g>
</g>
<!-- dir_4bb30ed846ea1df1fc4d16874a455d91&#45;&gt;dir_e4cd57caa88bf1f4e1bf9521bc47c3c0 -->
<g id="edge11" class="edge">
<title>dir_4bb30ed846ea1df1fc4d16874a455d91&#45;&gt;dir_e4cd57caa88bf1f4e1bf9521bc47c3c0</title>
<path fill="none" stroke="black" d="M90.9,-36.1C91.7,-43.79 91.94,-53.05 91.6,-61.67"/>
<polygon fill="black" stroke="black" points="88.11,-61.48 90.92,-71.7 95.09,-61.96 88.11,-61.48"/>
<g id="a_edge11&#45;headlabel"><a xlink:href="dir_000002_000010.html" target="_top" xlink:title="12">
<text text-anchor="middle" x="85.52" y="-55.2" font-family="Helvetica,sans-Serif" font-size="10.00">12</text>
</a>
</g>
</g>
<!-- dir_4bb30ed846ea1df1fc4d16874a455d91&#45;&gt;dir_3d3615e9a999cab4f3407307569d6ced -->
<g id="edge12" class="edge">
<title>dir_4bb30ed846ea1df1fc4d16874a455d91&#45;&gt;dir_3d3615e9a999cab4f3407307569d6ced</title>
<path fill="none" stroke="black" d="M100.61,-36.23C108.37,-45.97 116.95,-58.82 121,-72 127.21,-92.2 124.55,-116.11 120.69,-134.06"/>
<polygon fill="black" stroke="black" points="117.27,-133.33 118.34,-143.87 124.08,-134.96 117.27,-133.33"/>
<g id="a_edge12&#45;headlabel"><a xlink:href="dir_000002_000018.html" target="_top" xlink:title="54">
<text text-anchor="middle" x="115.34" y="-126.67" font-family="Helvetica,sans-Serif" font-size="10.00">54</text>
</a>
</g>
</g>
<!-- dir_3d3615e9a999cab4f3407307569d6ced&#45;&gt;dir_e4cd57caa88bf1f4e1bf9521bc47c3c0 -->
<g id="edge10" class="edge">
<title>dir_3d3615e9a999cab4f3407307569d6ced&#45;&gt;dir_e4cd57caa88bf1f4e1bf9521bc47c3c0</title>
<path fill="none" stroke="black" d="M100.16,-143.7C96.24,-135.9 92.26,-126.51 89.15,-117.83"/>
<polygon fill="black" stroke="black" points="92.4,-116.51 85.95,-108.1 85.75,-118.7 92.4,-116.51"/>
<g id="a_edge10&#45;headlabel"><a xlink:href="dir_000018_000010.html" target="_top" xlink:title="1">
<text text-anchor="middle" x="96.22" y="-116.54" font-family="Helvetica,sans-Serif" font-size="10.00">1</text>
</a>
</g>
</g>
</g>
</svg>
