<?xml version="1.0" encoding="UTF-8" standalone="no"?>
<!DOCTYPE svg PUBLIC "-//W3C//DTD SVG 1.1//EN"
 "http://www.w3.org/Graphics/SVG/1.1/DTD/svg11.dtd">
<!-- Generated by graphviz version 2.43.0 (0)
 -->
<!-- Title: sampling Pages: 1 -->
<svg width="313pt" height="295pt"
 viewBox="0.00 0.00 313.06 295.00" xmlns="http://www.w3.org/2000/svg" xmlns:xlink="http://www.w3.org/1999/xlink">
<g id="graph0" class="graph" transform="scale(1 1) rotate(0) translate(4 291)">
<title>sampling</title>
<polygon fill="white" stroke="transparent" points="-4,4 -4,-291 309.06,-291 309.06,4 -4,4"/>
<g id="clust1" class="cluster">
<title>clusterdir_e4cd57caa88bf1f4e1bf9521bc47c3c0</title>
<g id="a_clust1"><a xlink:href="dir_e4cd57caa88bf1f4e1bf9521bc47c3c0.html" target="_top" xlink:title="utilities">
<polygon fill="#ddddee" stroke="black" points="179,-208 179,-279 257,-279 257,-208 179,-208"/>
<text text-anchor="middle" x="218" y="-267" font-family="Helvetica,sans-Serif" font-size="10.00">utilities</text>
</a>
</g>
</g>
<!-- dir_0ad5cc9f0732862bd2f85bb38c1084f0 -->
<g id="node1" class="node">
<title>dir_0ad5cc9f0732862bd2f85bb38c1084f0</title>
<g id="a_node1"><a xlink:href="dir_0ad5cc9f0732862bd2f85bb38c1084f0.html" target="_top" xlink:title="sampling">
<polygon fill="#eeeeff" stroke="black" points="249,-252 187,-252 187,-216 249,-216 249,-252"/>
<text text-anchor="middle" x="218" y="-231.5" font-family="Helvetica,sans-Serif" font-size="10.00">sampling</text>
</a>
</g>
</g>
<!-- dir_f2c65bfcbdc19ebacbfc0bbbfb0d01b6 -->
<g id="node2" class="node">
<title>dir_f2c65bfcbdc19ebacbfc0bbbfb0d01b6</title>
<g id="a_node2"><a xlink:href="dir_f2c65bfcbdc19ebacbfc0bbbfb0d01b6.html" target="_top" xlink:title="physics">
<polygon fill="white" stroke="red" points="190,-180 136,-180 136,-144 190,-144 190,-180"/>
<text text-anchor="middle" x="163" y="-159.5" font-family="Helvetica,sans-Serif" font-size="10.00">physics</text>
</a>
</g>
</g>
<!-- dir_0ad5cc9f0732862bd2f85bb38c1084f0&#45;&gt;dir_f2c65bfcbdc19ebacbfc0bbbfb0d01b6 -->
<g id="edge5" class="edge">
<title>dir_0ad5cc9f0732862bd2f85bb38c1084f0&#45;&gt;dir_f2c65bfcbdc19ebacbfc0bbbfb0d01b6</title>
<path fill="none" stroke="black" d="M204.4,-215.7C197.88,-207.39 189.93,-197.28 182.75,-188.14"/>
<polygon fill="black" stroke="black" points="185.37,-185.81 176.44,-180.1 179.87,-190.13 185.37,-185.81"/>
<g id="a_edge5&#45;headlabel"><a xlink:href="dir_000024_000015.html" target="_top" xlink:title="1">
<text text-anchor="middle" x="189.82" y="-184.38" font-family="Helvetica,sans-Serif" font-size="10.00">1</text>
</a>
</g>
</g>
<!-- dir_e4878a39f7a1ff4e13f4c83bf1db7931 -->
<g id="node3" class="node">
<title>dir_e4878a39f7a1ff4e13f4c83bf1db7931</title>
<g id="a_node3"><a xlink:href="dir_e4878a39f7a1ff4e13f4c83bf1db7931.html" target="_top" xlink:title="ncutils">
<polygon fill="none" stroke="black" points="54,-108 0,-108 0,-72 54,-72 54,-108"/>
<text text-anchor="middle" x="27" y="-87.5" font-family="Helvetica,sans-Serif" font-size="10.00">ncutils</text>
</a>
</g>
</g>
<!-- dir_0ad5cc9f0732862bd2f85bb38c1084f0&#45;&gt;dir_e4878a39f7a1ff4e13f4c83bf1db7931 -->
<g id="edge6" class="edge">
<title>dir_0ad5cc9f0732862bd2f85bb38c1084f0&#45;&gt;dir_e4878a39f7a1ff4e13f4c83bf1db7931</title>
<path fill="none" stroke="black" d="M186.71,-216.8C168.7,-206.99 145.95,-193.74 127,-180 99.59,-160.13 71,-134.06 51.44,-115.27"/>
<polygon fill="black" stroke="black" points="53.77,-112.66 44.16,-108.21 48.9,-117.68 53.77,-112.66"/>
<g id="a_edge6&#45;headlabel"><a xlink:href="dir_000024_000040.html" target="_top" xlink:title="7">
<text text-anchor="middle" x="58.33" y="-110.62" font-family="Helvetica,sans-Serif" font-size="10.00">7</text>
</a>
</g>
</g>
<!-- dir_7f7a014517bfe31ea45620a6a947e37b -->
<g id="node4" class="node">
<title>dir_7f7a014517bfe31ea45620a6a947e37b</title>
<g id="a_node4"><a xlink:href="dir_7f7a014517bfe31ea45620a6a947e37b.html" target="_top" xlink:title="fvm">
<polygon fill="none" stroke="black" points="288,-108 234,-108 234,-72 288,-72 288,-108"/>
<text text-anchor="middle" x="261" y="-87.5" font-family="Helvetica,sans-Serif" font-size="10.00">fvm</text>
</a>
</g>
</g>
<!-- dir_0ad5cc9f0732862bd2f85bb38c1084f0&#45;&gt;dir_7f7a014517bfe31ea45620a6a947e37b -->
<g id="edge7" class="edge">
<title>dir_0ad5cc9f0732862bd2f85bb38c1084f0&#45;&gt;dir_7f7a014517bfe31ea45620a6a947e37b</title>
<path fill="none" stroke="black" d="M223.19,-215.87C230.55,-191.56 244.1,-146.82 252.82,-118.01"/>
<polygon fill="black" stroke="black" points="256.25,-118.77 255.79,-108.19 249.55,-116.75 256.25,-118.77"/>
<g id="a_edge7&#45;headlabel"><a xlink:href="dir_000024_000020.html" target="_top" xlink:title="1">
<text text-anchor="middle" x="257.92" y="-120.54" font-family="Helvetica,sans-Serif" font-size="10.00">1</text>
</a>
</g>
</g>
<!-- dir_4bb30ed846ea1df1fc4d16874a455d91 -->
<g id="node5" class="node">
<title>dir_4bb30ed846ea1df1fc4d16874a455d91</title>
<g id="a_node5"><a xlink:href="dir_4bb30ed846ea1df1fc4d16874a455d91.html" target="_top" xlink:title="equation_systems">
<polygon fill="white" stroke="red" points="216,-108 110,-108 110,-72 216,-72 216,-108"/>
<text text-anchor="middle" x="163" y="-87.5" font-family="Helvetica,sans-Serif" font-size="10.00">equation_systems</text>
</a>
</g>
</g>
<!-- dir_0ad5cc9f0732862bd2f85bb38c1084f0&#45;&gt;dir_4bb30ed846ea1df1fc4d16874a455d91 -->
<g id="edge8" class="edge">
<title>dir_0ad5cc9f0732862bd2f85bb38c1084f0&#45;&gt;dir_4bb30ed846ea1df1fc4d16874a455d91</title>
<path fill="none" stroke="black" d="M216.3,-215.67C214.05,-197.29 209.11,-167.69 199,-144 194.92,-134.43 189.01,-124.78 183.16,-116.39"/>
<polygon fill="black" stroke="black" points="185.88,-114.17 177.16,-108.15 180.22,-118.29 185.88,-114.17"/>
<g id="a_edge8&#45;headlabel"><a xlink:href="dir_000024_000002.html" target="_top" xlink:title="1">
<text text-anchor="middle" x="190.29" y="-112.91" font-family="Helvetica,sans-Serif" font-size="10.00">1</text>
</a>
</g>
</g>
<!-- dir_3d3615e9a999cab4f3407307569d6ced -->
<g id="node6" class="node">
<title>dir_3d3615e9a999cab4f3407307569d6ced</title>
<g id="a_node6"><a xlink:href="dir_3d3615e9a999cab4f3407307569d6ced.html" target="_top" xlink:title="core">
<polygon fill="white" stroke="red" points="239,-36 185,-36 185,0 239,0 239,-36"/>
<text text-anchor="middle" x="212" y="-15.5" font-family="Helvetica,sans-Serif" font-size="10.00">core</text>
</a>
</g>
</g>
<!-- dir_0ad5cc9f0732862bd2f85bb38c1084f0&#45;&gt;dir_3d3615e9a999cab4f3407307569d6ced -->
<g id="edge9" class="edge">
<title>dir_0ad5cc9f0732862bd2f85bb38c1084f0&#45;&gt;dir_3d3615e9a999cab4f3407307569d6ced</title>
<path fill="none" stroke="black" d="M237.77,-215.79C269.48,-186.02 325.4,-123.18 297,-72 286.58,-53.22 266.44,-40.23 248.38,-31.81"/>
<polygon fill="black" stroke="black" points="249.75,-28.59 239.18,-27.82 246.96,-35.01 249.75,-28.59"/>
<g id="a_edge9&#45;headlabel"><a xlink:href="dir_000024_000018.html" target="_top" xlink:title="4">
<text text-anchor="middle" x="254.18" y="-24.92" font-family="Helvetica,sans-Serif" font-size="10.00">4</text>
</a>
</g>
</g>
<!-- dir_f2c65bfcbdc19ebacbfc0bbbfb0d01b6&#45;&gt;dir_e4878a39f7a1ff4e13f4c83bf1db7931 -->
<g id="edge1" class="edge">
<title>dir_f2c65bfcbdc19ebacbfc0bbbfb0d01b6&#45;&gt;dir_e4878a39f7a1ff4e13f4c83bf1db7931</title>
<path fill="none" stroke="black" d="M135.81,-147C114.96,-136.27 85.99,-121.36 63.19,-109.62"/>
<polygon fill="black" stroke="black" points="64.64,-106.44 54.15,-104.97 61.44,-112.66 64.64,-106.44"/>
<g id="a_edge1&#45;headlabel"><a xlink:href="dir_000015_000040.html" target="_top" xlink:title="1">
<text text-anchor="middle" x="69.14" y="-103.06" font-family="Helvetica,sans-Serif" font-size="10.00">1</text>
</a>
</g>
</g>
<!-- dir_f2c65bfcbdc19ebacbfc0bbbfb0d01b6&#45;&gt;dir_7f7a014517bfe31ea45620a6a947e37b -->
<g id="edge2" class="edge">
<title>dir_f2c65bfcbdc19ebacbfc0bbbfb0d01b6&#45;&gt;dir_7f7a014517bfe31ea45620a6a947e37b</title>
<path fill="none" stroke="black" d="M186.97,-143.88C199.55,-134.89 215.13,-123.76 228.75,-114.03"/>
<polygon fill="black" stroke="black" points="230.83,-116.85 236.93,-108.19 226.76,-111.15 230.83,-116.85"/>
<g id="a_edge2&#45;headlabel"><a xlink:href="dir_000015_000020.html" target="_top" xlink:title="4">
<text text-anchor="middle" x="229.56" y="-118.75" font-family="Helvetica,sans-Serif" font-size="10.00">4</text>
</a>
</g>
</g>
<!-- dir_f2c65bfcbdc19ebacbfc0bbbfb0d01b6&#45;&gt;dir_4bb30ed846ea1df1fc4d16874a455d91 -->
<g id="edge3" class="edge">
<title>dir_f2c65bfcbdc19ebacbfc0bbbfb0d01b6&#45;&gt;dir_4bb30ed846ea1df1fc4d16874a455d91</title>
<path fill="none" stroke="black" d="M157.08,-143.7C156.29,-135.98 156.06,-126.71 156.4,-118.11"/>
<polygon fill="black" stroke="black" points="159.9,-118.32 157.1,-108.1 152.92,-117.84 159.9,-118.32"/>
<g id="a_edge3&#45;headlabel"><a xlink:href="dir_000015_000002.html" target="_top" xlink:title="4">
<text text-anchor="middle" x="162.48" y="-119.61" font-family="Helvetica,sans-Serif" font-size="10.00">4</text>
</a>
</g>
</g>
<!-- dir_f2c65bfcbdc19ebacbfc0bbbfb0d01b6&#45;&gt;dir_3d3615e9a999cab4f3407307569d6ced -->
<g id="edge4" class="edge">
<title>dir_f2c65bfcbdc19ebacbfc0bbbfb0d01b6&#45;&gt;dir_3d3615e9a999cab4f3407307569d6ced</title>
<path fill="none" stroke="black" d="M135.76,-145.54C122.65,-136.46 108.23,-123.69 101,-108 94.3,-93.47 92.46,-85.53 101,-72 117.09,-46.49 149.22,-32.99 174.79,-26.02"/>
<polygon fill="black" stroke="black" points="175.71,-29.4 184.57,-23.58 174.02,-22.61 175.71,-29.4"/>
<g id="a_edge4&#45;headlabel"><a xlink:href="dir_000015_000018.html" target="_top" xlink:title="52">
<text text-anchor="middle" x="172.92" y="-30.52" font-family="Helvetica,sans-Serif" font-size="10.00">52</text>
</a>
</g>
</g>
<!-- dir_7f7a014517bfe31ea45620a6a947e37b&#45;&gt;dir_3d3615e9a999cab4f3407307569d6ced -->
<g id="edge10" class="edge">
<title>dir_7f7a014517bfe31ea45620a6a947e37b&#45;&gt;dir_3d3615e9a999cab4f3407307569d6ced</title>
<path fill="none" stroke="black" d="M248.89,-71.7C243.13,-63.47 236.14,-53.48 229.79,-44.42"/>
<polygon fill="black" stroke="black" points="232.58,-42.29 223.97,-36.1 226.84,-46.3 232.58,-42.29"/>
<g id="a_edge10&#45;headlabel"><a xlink:href="dir_000020_000018.html" target="_top" xlink:title="1">
<text text-anchor="middle" x="236.96" y="-41.11" font-family="Helvetica,sans-Serif" font-size="10.00">1</text>
</a>
</g>
</g>
<!-- dir_4bb30ed846ea1df1fc4d16874a455d91&#45;&gt;dir_f2c65bfcbdc19ebacbfc0bbbfb0d01b6 -->
<g id="edge11" class="edge">
<title>dir_4bb30ed846ea1df1fc4d16874a455d91&#45;&gt;dir_f2c65bfcbdc19ebacbfc0bbbfb0d01b6</title>
<path fill="none" stroke="black" d="M168.9,-108.1C169.7,-115.79 169.94,-125.05 169.6,-133.67"/>
<polygon fill="black" stroke="black" points="166.11,-133.48 168.92,-143.7 173.09,-133.96 166.11,-133.48"/>
<g id="a_edge11&#45;headlabel"><a xlink:href="dir_000002_000015.html" target="_top" xlink:title="2">
<text text-anchor="middle" x="163.52" y="-127.2" font-family="Helvetica,sans-Serif" font-size="10.00">2</text>
</a>
</g>
</g>
<!-- dir_4bb30ed846ea1df1fc4d16874a455d91&#45;&gt;dir_3d3615e9a999cab4f3407307569d6ced -->
<g id="edge12" class="edge">
<title>dir_4bb30ed846ea1df1fc4d16874a455d91&#45;&gt;dir_3d3615e9a999cab4f3407307569d6ced</title>
<path fill="none" stroke="black" d="M175.11,-71.7C180.87,-63.47 187.86,-53.48 194.21,-44.42"/>
<polygon fill="black" stroke="black" points="197.16,-46.3 200.03,-36.1 191.42,-42.29 197.16,-46.3"/>
<g id="a_edge12&#45;headlabel"><a xlink:href="dir_000002_000018.html" target="_top" xlink:title="54">
<text text-anchor="middle" x="197.42" y="-48.38" font-family="Helvetica,sans-Serif" font-size="10.00">54</text>
</a>
</g>
</g>
</g>
</svg>
