<?xml version="1.0" encoding="UTF-8" standalone="no"?>
<!DOCTYPE svg PUBLIC "-//W3C//DTD SVG 1.1//EN"
 "http://www.w3.org/Graphics/SVG/1.1/DTD/svg11.dtd">
<!-- Generated by graphviz version 2.43.0 (0)
 -->
<!-- Title: wind_energy Pages: 1 -->
<svg width="277pt" height="394pt"
 viewBox="0.00 0.00 277.00 394.23" xmlns="http://www.w3.org/2000/svg" xmlns:xlink="http://www.w3.org/1999/xlink">
<g id="graph0" class="graph" transform="scale(1 1) rotate(0) translate(4 390.23)">
<title>wind_energy</title>
<polygon fill="white" stroke="transparent" points="-4,4 -4,-390.23 273,-390.23 273,4 -4,4"/>
<g id="clust1" class="cluster">
<title>clusterdir_d85575251dd712327fe3cf057fa568b4</title>
<g id="a_clust1"><a xlink:href="dir_d85575251dd712327fe3cf057fa568b4.html" target="_top" xlink:title="amr&#45;wind">
<polygon fill="#ddddee" stroke="black" points="75,-272 75,-359 261,-359 261,-272 75,-272"/>
<text text-anchor="middle" x="168" y="-347" font-family="Helvetica,sans-Serif" font-size="10.00">amr&#45;wind</text>
</a>
</g>
</g>
<g id="clust2" class="cluster">
<title>clusterdir_0c368f76a33d967d5b838b5681461de6</title>
<g id="a_clust2"><a xlink:href="dir_0c368f76a33d967d5b838b5681461de6.html" target="_top">
<polygon fill="#eeeeff" stroke="black" points="83,-280 83,-332 253,-332 253,-280 83,-280"/>
</a>
</g>
</g>
<!-- dir_0c368f76a33d967d5b838b5681461de6 -->
<g id="node1" class="node">
<title>dir_0c368f76a33d967d5b838b5681461de6</title>
<text text-anchor="middle" x="206" y="-303.5" font-family="Helvetica,sans-Serif" font-size="10.00">wind_energy</text>
</g>
<!-- dir_7f7a014517bfe31ea45620a6a947e37b -->
<g id="node4" class="node">
<title>dir_7f7a014517bfe31ea45620a6a947e37b</title>
<g id="a_node4"><a xlink:href="dir_7f7a014517bfe31ea45620a6a947e37b.html" target="_top" xlink:title="fvm">
<polygon fill="none" stroke="black" points="67,-324 13,-324 13,-288 67,-288 67,-324"/>
<text text-anchor="middle" x="40" y="-303.5" font-family="Helvetica,sans-Serif" font-size="10.00">fvm</text>
</a>
</g>
</g>
<!-- dir_0c368f76a33d967d5b838b5681461de6&#45;&gt;dir_7f7a014517bfe31ea45620a6a947e37b -->
<g id="edge1" class="edge">
<title>dir_0c368f76a33d967d5b838b5681461de6&#45;&gt;dir_7f7a014517bfe31ea45620a6a947e37b</title>
<path fill="none" stroke="black" d="M197.41,-324.17C188.16,-341.38 171.66,-366.13 149,-377 124.55,-388.72 111.94,-389.72 88,-377 70.7,-367.81 58.49,-349.29 50.72,-333.47"/>
<polygon fill="black" stroke="black" points="53.78,-331.73 46.45,-324.08 47.41,-334.63 53.78,-331.73"/>
<g id="a_edge1&#45;headlabel"><a xlink:href="dir_000001_000020.html" target="_top" xlink:title="1">
<text text-anchor="middle" x="57.85" y="-331.33" font-family="Helvetica,sans-Serif" font-size="10.00">1</text>
</a>
</g>
</g>
<!-- dir_a816a247b59c90f95e41afe29b966a18 -->
<g id="node5" class="node">
<title>dir_a816a247b59c90f95e41afe29b966a18</title>
<g id="a_node5"><a xlink:href="dir_a816a247b59c90f95e41afe29b966a18.html" target="_top" xlink:title="diffusion">
<polygon fill="none" stroke="black" points="132.5,-36 73.5,-36 73.5,0 132.5,0 132.5,-36"/>
<text text-anchor="middle" x="103" y="-15.5" font-family="Helvetica,sans-Serif" font-size="10.00">diffusion</text>
</a>
</g>
</g>
<!-- dir_0c368f76a33d967d5b838b5681461de6&#45;&gt;dir_a816a247b59c90f95e41afe29b966a18 -->
<g id="edge2" class="edge">
<title>dir_0c368f76a33d967d5b838b5681461de6&#45;&gt;dir_a816a247b59c90f95e41afe29b966a18</title>
<path fill="none" stroke="black" d="M207.2,-287.93C209.24,-247.17 209.46,-142.29 165,-72 157.89,-60.76 147.66,-50.64 137.55,-42.32"/>
<polygon fill="black" stroke="black" points="139.56,-39.45 129.52,-36.05 135.25,-44.97 139.56,-39.45"/>
<g id="a_edge2&#45;headlabel"><a xlink:href="dir_000001_000023.html" target="_top" xlink:title="1">
<text text-anchor="middle" x="144.14" y="-36.93" font-family="Helvetica,sans-Serif" font-size="10.00">1</text>
</a>
</g>
</g>
<!-- dir_4bb30ed846ea1df1fc4d16874a455d91 -->
<g id="node6" class="node">
<title>dir_4bb30ed846ea1df1fc4d16874a455d91</title>
<g id="a_node6"><a xlink:href="dir_4bb30ed846ea1df1fc4d16874a455d91.html" target="_top" xlink:title="equation_systems">
<polygon fill="white" stroke="red" points="156,-108 50,-108 50,-72 156,-72 156,-108"/>
<text text-anchor="middle" x="103" y="-87.5" font-family="Helvetica,sans-Serif" font-size="10.00">equation_systems</text>
</a>
</g>
</g>
<!-- dir_0c368f76a33d967d5b838b5681461de6&#45;&gt;dir_4bb30ed846ea1df1fc4d16874a455d91 -->
<g id="edge3" class="edge">
<title>dir_0c368f76a33d967d5b838b5681461de6&#45;&gt;dir_4bb30ed846ea1df1fc4d16874a455d91</title>
<path fill="none" stroke="black" d="M203.3,-287.93C197.89,-257.3 183.7,-191.74 155,-144 148.68,-133.49 139.88,-123.47 131.31,-115.03"/>
<polygon fill="black" stroke="black" points="133.58,-112.37 123.91,-108.05 128.78,-117.46 133.58,-112.37"/>
<g id="a_edge3&#45;headlabel"><a xlink:href="dir_000001_000002.html" target="_top" xlink:title="4">
<text text-anchor="middle" x="138.15" y="-110.27" font-family="Helvetica,sans-Serif" font-size="10.00">4</text>
</a>
</g>
</g>
<!-- dir_7ecfdf414f04b0541a95d392dbc1e5c0 -->
<g id="node2" class="node">
<title>dir_7ecfdf414f04b0541a95d392dbc1e5c0</title>
<g id="a_node2"><a xlink:href="dir_7ecfdf414f04b0541a95d392dbc1e5c0.html" target="_top" xlink:title="actuator">
<polygon fill="white" stroke="red" points="148.5,-324 91.5,-324 91.5,-288 148.5,-288 148.5,-324"/>
<text text-anchor="middle" x="120" y="-303.5" font-family="Helvetica,sans-Serif" font-size="10.00">actuator</text>
</a>
</g>
</g>
<!-- dir_e4cd57caa88bf1f4e1bf9521bc47c3c0 -->
<g id="node3" class="node">
<title>dir_e4cd57caa88bf1f4e1bf9521bc47c3c0</title>
<g id="a_node3"><a xlink:href="dir_e4cd57caa88bf1f4e1bf9521bc47c3c0.html" target="_top" xlink:title="utilities">
<polygon fill="white" stroke="red" points="130,-180 76,-180 76,-144 130,-144 130,-180"/>
<text text-anchor="middle" x="103" y="-159.5" font-family="Helvetica,sans-Serif" font-size="10.00">utilities</text>
</a>
</g>
</g>
<!-- dir_7ecfdf414f04b0541a95d392dbc1e5c0&#45;&gt;dir_e4cd57caa88bf1f4e1bf9521bc47c3c0 -->
<g id="edge7" class="edge">
<title>dir_7ecfdf414f04b0541a95d392dbc1e5c0&#45;&gt;dir_e4cd57caa88bf1f4e1bf9521bc47c3c0</title>
<path fill="none" stroke="black" d="M117.95,-287.87C115.05,-263.67 109.73,-219.21 106.28,-190.39"/>
<polygon fill="black" stroke="black" points="109.72,-189.7 105.06,-180.19 102.77,-190.53 109.72,-189.7"/>
<g id="a_edge7&#45;headlabel"><a xlink:href="dir_000005_000010.html" target="_top" xlink:title="17">
<text text-anchor="middle" x="112.97" y="-190.43" font-family="Helvetica,sans-Serif" font-size="10.00">17</text>
</a>
</g>
</g>
<!-- dir_3d3615e9a999cab4f3407307569d6ced -->
<g id="node7" class="node">
<title>dir_3d3615e9a999cab4f3407307569d6ced</title>
<g id="a_node7"><a xlink:href="dir_3d3615e9a999cab4f3407307569d6ced.html" target="_top" xlink:title="core">
<polygon fill="white" stroke="red" points="54,-252 0,-252 0,-216 54,-216 54,-252"/>
<text text-anchor="middle" x="27" y="-231.5" font-family="Helvetica,sans-Serif" font-size="10.00">core</text>
</a>
</g>
</g>
<!-- dir_7ecfdf414f04b0541a95d392dbc1e5c0&#45;&gt;dir_3d3615e9a999cab4f3407307569d6ced -->
<g id="edge8" class="edge">
<title>dir_7ecfdf414f04b0541a95d392dbc1e5c0&#45;&gt;dir_3d3615e9a999cab4f3407307569d6ced</title>
<path fill="none" stroke="black" d="M97.01,-287.7C85.19,-278.8 70.61,-267.82 57.82,-258.2"/>
<polygon fill="black" stroke="black" points="59.82,-255.32 49.72,-252.1 55.61,-260.91 59.82,-255.32"/>
<g id="a_edge8&#45;headlabel"><a xlink:href="dir_000005_000018.html" target="_top" xlink:title="20">
<text text-anchor="middle" x="64.4" y="-252.71" font-family="Helvetica,sans-Serif" font-size="10.00">20</text>
</a>
</g>
</g>
<!-- dir_e4cd57caa88bf1f4e1bf9521bc47c3c0&#45;&gt;dir_7f7a014517bfe31ea45620a6a947e37b -->
<g id="edge4" class="edge">
<title>dir_e4cd57caa88bf1f4e1bf9521bc47c3c0&#45;&gt;dir_7f7a014517bfe31ea45620a6a947e37b</title>
<path fill="none" stroke="black" d="M95.37,-180.19C84.53,-204.64 64.55,-249.67 51.79,-278.44"/>
<polygon fill="black" stroke="black" points="48.46,-277.31 47.6,-287.87 54.85,-280.15 48.46,-277.31"/>
<g id="a_edge4&#45;headlabel"><a xlink:href="dir_000010_000020.html" target="_top" xlink:title="2">
<text text-anchor="middle" x="47.32" y="-270.37" font-family="Helvetica,sans-Serif" font-size="10.00">2</text>
</a>
</g>
</g>
<!-- dir_e4cd57caa88bf1f4e1bf9521bc47c3c0&#45;&gt;dir_4bb30ed846ea1df1fc4d16874a455d91 -->
<g id="edge5" class="edge">
<title>dir_e4cd57caa88bf1f4e1bf9521bc47c3c0&#45;&gt;dir_4bb30ed846ea1df1fc4d16874a455d91</title>
<path fill="none" stroke="black" d="M97.08,-143.7C96.29,-135.98 96.06,-126.71 96.4,-118.11"/>
<polygon fill="black" stroke="black" points="99.9,-118.32 97.1,-108.1 92.92,-117.84 99.9,-118.32"/>
<g id="a_edge5&#45;headlabel"><a xlink:href="dir_000010_000002.html" target="_top" xlink:title="1">
<text text-anchor="middle" x="102.48" y="-119.61" font-family="Helvetica,sans-Serif" font-size="10.00">1</text>
</a>
</g>
</g>
<!-- dir_e4cd57caa88bf1f4e1bf9521bc47c3c0&#45;&gt;dir_3d3615e9a999cab4f3407307569d6ced -->
<g id="edge6" class="edge">
<title>dir_e4cd57caa88bf1f4e1bf9521bc47c3c0&#45;&gt;dir_3d3615e9a999cab4f3407307569d6ced</title>
<path fill="none" stroke="black" d="M90.32,-180.1C81.79,-188.8 70.33,-199.52 59.46,-209.03"/>
<polygon fill="black" stroke="black" points="57.01,-206.53 51.7,-215.7 61.57,-211.84 57.01,-206.53"/>
<g id="a_edge6&#45;headlabel"><a xlink:href="dir_000010_000018.html" target="_top" xlink:title="23">
<text text-anchor="middle" x="57.89" y="-199.53" font-family="Helvetica,sans-Serif" font-size="10.00">23</text>
</a>
</g>
</g>
<!-- dir_7f7a014517bfe31ea45620a6a947e37b&#45;&gt;dir_3d3615e9a999cab4f3407307569d6ced -->
<g id="edge9" class="edge">
<title>dir_7f7a014517bfe31ea45620a6a947e37b&#45;&gt;dir_3d3615e9a999cab4f3407307569d6ced</title>
<path fill="none" stroke="black" d="M36.79,-287.7C35.35,-279.98 33.63,-270.71 32.04,-262.11"/>
<polygon fill="black" stroke="black" points="35.44,-261.3 30.18,-252.1 28.56,-262.58 35.44,-261.3"/>
<g id="a_edge9&#45;headlabel"><a xlink:href="dir_000020_000018.html" target="_top" xlink:title="1">
<text text-anchor="middle" x="38.89" y="-261.81" font-family="Helvetica,sans-Serif" font-size="10.00">1</text>
</a>
</g>
</g>
<!-- dir_a816a247b59c90f95e41afe29b966a18&#45;&gt;dir_3d3615e9a999cab4f3407307569d6ced -->
<g id="edge10" class="edge">
<title>dir_a816a247b59c90f95e41afe29b966a18&#45;&gt;dir_3d3615e9a999cab4f3407307569d6ced</title>
<path fill="none" stroke="black" d="M74.4,-36.11C61.95,-45.14 48.51,-57.39 41,-72 19,-114.77 20.19,-172.47 23.37,-205.91"/>
<polygon fill="black" stroke="black" points="19.89,-206.3 24.45,-215.87 26.85,-205.55 19.89,-206.3"/>
<g id="a_edge10&#45;headlabel"><a xlink:href="dir_000023_000018.html" target="_top" xlink:title="1">
<text text-anchor="middle" x="16.68" y="-200.53" font-family="Helvetica,sans-Serif" font-size="10.00">1</text>
</a>
</g>
</g>
<!-- dir_4bb30ed846ea1df1fc4d16874a455d91&#45;&gt;dir_7ecfdf414f04b0541a95d392dbc1e5c0 -->
<g id="edge13" class="edge">
<title>dir_4bb30ed846ea1df1fc4d16874a455d91&#45;&gt;dir_7ecfdf414f04b0541a95d392dbc1e5c0</title>
<path fill="none" stroke="black" d="M118.61,-108.23C126.37,-117.97 134.95,-130.82 139,-144 153.03,-189.64 140.13,-245.49 129.82,-277.98"/>
<polygon fill="black" stroke="black" points="126.43,-277.07 126.6,-287.66 133.08,-279.27 126.43,-277.07"/>
<g id="a_edge13&#45;headlabel"><a xlink:href="dir_000002_000005.html" target="_top" xlink:title="1">
<text text-anchor="middle" x="124.87" y="-270.26" font-family="Helvetica,sans-Serif" font-size="10.00">1</text>
</a>
</g>
</g>
<!-- dir_4bb30ed846ea1df1fc4d16874a455d91&#45;&gt;dir_e4cd57caa88bf1f4e1bf9521bc47c3c0 -->
<g id="edge12" class="edge">
<title>dir_4bb30ed846ea1df1fc4d16874a455d91&#45;&gt;dir_e4cd57caa88bf1f4e1bf9521bc47c3c0</title>
<path fill="none" stroke="black" d="M108.9,-108.1C109.7,-115.79 109.94,-125.05 109.6,-133.67"/>
<polygon fill="black" stroke="black" points="106.11,-133.48 108.92,-143.7 113.09,-133.96 106.11,-133.48"/>
<g id="a_edge12&#45;headlabel"><a xlink:href="dir_000002_000010.html" target="_top" xlink:title="12">
<text text-anchor="middle" x="103.52" y="-127.2" font-family="Helvetica,sans-Serif" font-size="10.00">12</text>
</a>
</g>
</g>
<!-- dir_4bb30ed846ea1df1fc4d16874a455d91&#45;&gt;dir_a816a247b59c90f95e41afe29b966a18 -->
<g id="edge14" class="edge">
<title>dir_4bb30ed846ea1df1fc4d16874a455d91&#45;&gt;dir_a816a247b59c90f95e41afe29b966a18</title>
<path fill="none" stroke="black" d="M103,-71.7C103,-63.98 103,-54.71 103,-46.11"/>
<polygon fill="black" stroke="black" points="106.5,-46.1 103,-36.1 99.5,-46.1 106.5,-46.1"/>
<g id="a_edge14&#45;headlabel"><a xlink:href="dir_000002_000023.html" target="_top" xlink:title="1">
<text text-anchor="middle" x="109.34" y="-47.2" font-family="Helvetica,sans-Serif" font-size="10.00">1</text>
</a>
</g>
</g>
<!-- dir_4bb30ed846ea1df1fc4d16874a455d91&#45;&gt;dir_3d3615e9a999cab4f3407307569d6ced -->
<g id="edge15" class="edge">
<title>dir_4bb30ed846ea1df1fc4d16874a455d91&#45;&gt;dir_3d3615e9a999cab4f3407307569d6ced</title>
<path fill="none" stroke="black" d="M90.21,-108.18C82.94,-118.32 73.94,-131.57 67,-144 55.64,-164.34 44.94,-188.51 37.47,-206.53"/>
<polygon fill="black" stroke="black" points="34.21,-205.26 33.67,-215.84 40.69,-207.9 34.21,-205.26"/>
<g id="a_edge15&#45;headlabel"><a xlink:href="dir_000002_000018.html" target="_top" xlink:title="54">
<text text-anchor="middle" x="32.94" y="-198.36" font-family="Helvetica,sans-Serif" font-size="10.00">54</text>
</a>
</g>
</g>
<!-- dir_3d3615e9a999cab4f3407307569d6ced&#45;&gt;dir_e4cd57caa88bf1f4e1bf9521bc47c3c0 -->
<g id="edge11" class="edge">
<title>dir_3d3615e9a999cab4f3407307569d6ced&#45;&gt;dir_e4cd57caa88bf1f4e1bf9521bc47c3c0</title>
<path fill="none" stroke="black" d="M39.87,-215.7C48.45,-206.97 59.92,-196.24 70.78,-186.75"/>
<polygon fill="black" stroke="black" points="73.22,-189.27 78.53,-180.1 68.66,-183.96 73.22,-189.27"/>
<g id="a_edge11&#45;headlabel"><a xlink:href="dir_000018_000010.html" target="_top" xlink:title="1">
<text text-anchor="middle" x="72.34" y="-191.27" font-family="Helvetica,sans-Serif" font-size="10.00">1</text>
</a>
</g>
</g>
</g>
</svg>
