<?xml version="1.0" encoding="UTF-8" standalone="no"?>
<!DOCTYPE svg PUBLIC "-//W3C//DTD SVG 1.1//EN"
 "http://www.w3.org/Graphics/SVG/1.1/DTD/svg11.dtd">
<!-- Generated by graphviz version 2.43.0 (0)
 -->
<!-- Title: incflo_godunov_advection.cpp Pages: 1 -->
<svg width="1798pt" height="341pt"
 viewBox="0.00 0.00 1798.29 341.00" xmlns="http://www.w3.org/2000/svg" xmlns:xlink="http://www.w3.org/1999/xlink">
<g id="graph0" class="graph" transform="scale(1 1) rotate(0) translate(4 337)">
<title>incflo_godunov_advection.cpp</title>
<polygon fill="white" stroke="transparent" points="-4,4 -4,-337 1794.29,-337 1794.29,4 -4,4"/>
<!-- Node1 -->
<g id="node1" class="node">
<title>Node1</title>
<g id="a_node1"><a xlink:title=" ">
<polygon fill="#bfbfbf" stroke="black" points="246,-313.5 246,-332.5 410,-332.5 410,-313.5 246,-313.5"/>
<text text-anchor="middle" x="328" y="-320.5" font-family="Helvetica,sans-Serif" font-size="10.00">incflo_godunov_advection.cpp</text>
</a>
</g>
</g>
<!-- Node2 -->
<g id="node2" class="node">
<title>Node2</title>
<g id="a_node2"><a xlink:href="incflo__godunov__ppm_8_h.html" target="_top" xlink:title=" ">
<polygon fill="white" stroke="black" points="291.5,-118 291.5,-148 422.5,-148 422.5,-118 291.5,-118"/>
<text text-anchor="start" x="299.5" y="-136" font-family="Helvetica,sans-Serif" font-size="10.00">amr&#45;wind/convection</text>
<text text-anchor="middle" x="357" y="-125" font-family="Helvetica,sans-Serif" font-size="10.00">/incflo_godunov_ppm.H</text>
</a>
</g>
</g>
<!-- Node1&#45;&gt;Node2 -->
<g id="edge1" class="edge">
<title>Node1&#45;&gt;Node2</title>
<path fill="none" stroke="midnightblue" d="M329.32,-313.43C333.53,-286.14 346.73,-200.55 353.27,-158.21"/>
<polygon fill="midnightblue" stroke="midnightblue" points="356.74,-158.62 354.81,-148.2 349.83,-157.55 356.74,-158.62"/>
</g>
<!-- Node5 -->
<g id="node5" class="node">
<title>Node5</title>
<g id="a_node5"><a xlink:href="incflo__godunov__ppm__nolim_8_h.html" target="_top" xlink:title=" ">
<polygon fill="white" stroke="black" points="0,-112.5 0,-153.5 120,-153.5 120,-112.5 0,-112.5"/>
<text text-anchor="start" x="8" y="-141.5" font-family="Helvetica,sans-Serif" font-size="10.00">amr&#45;wind/convection</text>
<text text-anchor="start" x="8" y="-130.5" font-family="Helvetica,sans-Serif" font-size="10.00">/incflo_godunov_ppm</text>
<text text-anchor="middle" x="60" y="-119.5" font-family="Helvetica,sans-Serif" font-size="10.00">_nolim.H</text>
</a>
</g>
</g>
<!-- Node1&#45;&gt;Node5 -->
<g id="edge4" class="edge">
<title>Node1&#45;&gt;Node5</title>
<path fill="none" stroke="midnightblue" d="M315.79,-313.43C277.26,-286.4 157.19,-202.18 96.26,-159.44"/>
<polygon fill="midnightblue" stroke="midnightblue" points="98.26,-156.57 88.07,-153.69 94.24,-162.3 98.26,-156.57"/>
</g>
<!-- Node6 -->
<g id="node6" class="node">
<title>Node6</title>
<g id="a_node6"><a xlink:href="incflo__godunov__weno_8_h.html" target="_top" xlink:title=" ">
<polygon fill="white" stroke="black" points="138.5,-118 138.5,-148 273.5,-148 273.5,-118 138.5,-118"/>
<text text-anchor="start" x="146.5" y="-136" font-family="Helvetica,sans-Serif" font-size="10.00">amr&#45;wind/convection</text>
<text text-anchor="middle" x="206" y="-125" font-family="Helvetica,sans-Serif" font-size="10.00">/incflo_godunov_weno.H</text>
</a>
</g>
</g>
<!-- Node1&#45;&gt;Node6 -->
<g id="edge7" class="edge">
<title>Node1&#45;&gt;Node6</title>
<path fill="none" stroke="midnightblue" d="M322.44,-313.43C304.51,-285.79 247.77,-198.36 220.68,-156.61"/>
<polygon fill="midnightblue" stroke="midnightblue" points="223.6,-154.69 215.22,-148.2 217.73,-158.5 223.6,-154.69"/>
</g>
<!-- Node7 -->
<g id="node7" class="node">
<title>Node7</title>
<g id="a_node7"><a xlink:href="_godunov_8_h.html" target="_top" xlink:title=" ">
<polygon fill="white" stroke="black" points="356.5,-246.5 356.5,-276.5 475.5,-276.5 475.5,-246.5 356.5,-246.5"/>
<text text-anchor="start" x="364.5" y="-264.5" font-family="Helvetica,sans-Serif" font-size="10.00">amr&#45;wind/convection</text>
<text text-anchor="middle" x="416" y="-253.5" font-family="Helvetica,sans-Serif" font-size="10.00">/Godunov.H</text>
</a>
</g>
</g>
<!-- Node1&#45;&gt;Node7 -->
<g id="edge10" class="edge">
<title>Node1&#45;&gt;Node7</title>
<path fill="none" stroke="midnightblue" d="M340.61,-313.48C352.64,-305.34 371.2,-292.79 386.9,-282.18"/>
<polygon fill="midnightblue" stroke="midnightblue" points="388.94,-285.02 395.26,-276.52 385.02,-279.22 388.94,-285.02"/>
</g>
<!-- Node27 -->
<g id="node27" class="node">
<title>Node27</title>
<g id="a_node27"><a xlink:title=" ">
<polygon fill="white" stroke="#bfbfbf" points="493.5,-252 493.5,-271 608.5,-271 608.5,-252 493.5,-252"/>
<text text-anchor="middle" x="551" y="-259" font-family="Helvetica,sans-Serif" font-size="10.00">AMReX_Geometry.H</text>
</a>
</g>
</g>
<!-- Node1&#45;&gt;Node27 -->
<g id="edge49" class="edge">
<title>Node1&#45;&gt;Node27</title>
<path fill="none" stroke="midnightblue" d="M359.95,-313.48C399.2,-303 465.88,-285.21 509.17,-273.66"/>
<polygon fill="midnightblue" stroke="midnightblue" points="510.35,-276.97 519.11,-271.01 508.54,-270.21 510.35,-276.97"/>
</g>
<!-- Node3 -->
<g id="node3" class="node">
<title>Node3</title>
<g id="a_node3"><a xlink:title=" ">
<polygon fill="white" stroke="#bfbfbf" points="51.5,-56.5 51.5,-75.5 138.5,-75.5 138.5,-56.5 51.5,-56.5"/>
<text text-anchor="middle" x="95" y="-63.5" font-family="Helvetica,sans-Serif" font-size="10.00">AMReX_Gpu.H</text>
</a>
</g>
</g>
<!-- Node2&#45;&gt;Node3 -->
<g id="edge2" class="edge">
<title>Node2&#45;&gt;Node3</title>
<path fill="none" stroke="midnightblue" d="M305,-117.96C297.29,-115.93 289.45,-113.89 282,-112 234.37,-99.92 179.7,-86.86 141.83,-77.93"/>
<polygon fill="midnightblue" stroke="midnightblue" points="142.15,-74.41 131.61,-75.53 140.55,-81.23 142.15,-74.41"/>
</g>
<!-- Node4 -->
<g id="node4" class="node">
<title>Node4</title>
<g id="a_node4"><a xlink:title=" ">
<polygon fill="white" stroke="#bfbfbf" points="156.5,-56.5 156.5,-75.5 255.5,-75.5 255.5,-56.5 156.5,-56.5"/>
<text text-anchor="middle" x="206" y="-63.5" font-family="Helvetica,sans-Serif" font-size="10.00">AMReX_BCRec.H</text>
</a>
</g>
</g>
<!-- Node2&#45;&gt;Node4 -->
<g id="edge3" class="edge">
<title>Node2&#45;&gt;Node4</title>
<path fill="none" stroke="midnightblue" d="M324.24,-117.9C297.74,-106.49 260.78,-90.58 235.27,-79.6"/>
<polygon fill="midnightblue" stroke="midnightblue" points="236.33,-76.25 225.76,-75.51 233.56,-82.68 236.33,-76.25"/>
</g>
<!-- Node5&#45;&gt;Node3 -->
<g id="edge5" class="edge">
<title>Node5&#45;&gt;Node3</title>
<path fill="none" stroke="midnightblue" d="M70.5,-112.5C75.3,-103.59 80.94,-93.11 85.6,-84.46"/>
<polygon fill="midnightblue" stroke="midnightblue" points="88.68,-86.12 90.34,-75.65 82.52,-82.8 88.68,-86.12"/>
</g>
<!-- Node5&#45;&gt;Node4 -->
<g id="edge6" class="edge">
<title>Node5&#45;&gt;Node4</title>
<path fill="none" stroke="midnightblue" d="M103.8,-112.5C127.59,-101.91 156.32,-89.12 177.26,-79.8"/>
<polygon fill="midnightblue" stroke="midnightblue" points="178.85,-82.92 186.57,-75.65 176.01,-76.52 178.85,-82.92"/>
</g>
<!-- Node6&#45;&gt;Node3 -->
<g id="edge8" class="edge">
<title>Node6&#45;&gt;Node3</title>
<path fill="none" stroke="midnightblue" d="M181.91,-117.9C163.04,-106.84 136.94,-91.56 118.28,-80.63"/>
<polygon fill="midnightblue" stroke="midnightblue" points="119.93,-77.54 109.53,-75.51 116.39,-83.58 119.93,-77.54"/>
</g>
<!-- Node6&#45;&gt;Node4 -->
<g id="edge9" class="edge">
<title>Node6&#45;&gt;Node4</title>
<path fill="none" stroke="midnightblue" d="M206,-117.9C206,-108.56 206,-96.21 206,-86.02"/>
<polygon fill="midnightblue" stroke="midnightblue" points="209.5,-85.69 206,-75.69 202.5,-85.69 209.5,-85.69"/>
</g>
<!-- Node8 -->
<g id="node8" class="node">
<title>Node8</title>
<g id="a_node8"><a xlink:href="_field_repo_8_h.html" target="_top" xlink:title=" ">
<polygon fill="white" stroke="black" points="926.5,-190.5 926.5,-209.5 1075.5,-209.5 1075.5,-190.5 926.5,-190.5"/>
<text text-anchor="middle" x="1001" y="-197.5" font-family="Helvetica,sans-Serif" font-size="10.00">amr&#45;wind/core/FieldRepo.H</text>
</a>
</g>
</g>
<!-- Node7&#45;&gt;Node8 -->
<g id="edge11" class="edge">
<title>Node7&#45;&gt;Node8</title>
<path fill="none" stroke="midnightblue" d="M475.63,-247.35C478.45,-246.86 481.25,-246.41 484,-246 635.34,-223.37 813.43,-210.96 916.17,-205.17"/>
<polygon fill="midnightblue" stroke="midnightblue" points="916.39,-208.66 926.18,-204.61 916,-201.67 916.39,-208.66"/>
</g>
<!-- Node9 -->
<g id="node9" class="node">
<title>Node9</title>
<g id="a_node9"><a xlink:title=" ">
<polygon fill="white" stroke="#bfbfbf" points="844,-0.5 844,-19.5 888,-19.5 888,-0.5 844,-0.5"/>
<text text-anchor="middle" x="866" y="-7.5" font-family="Helvetica,sans-Serif" font-size="10.00">string</text>
</a>
</g>
</g>
<!-- Node8&#45;&gt;Node9 -->
<g id="edge12" class="edge">
<title>Node8&#45;&gt;Node9</title>
<path fill="none" stroke="midnightblue" d="M926.06,-194.38C885.65,-189.05 836.36,-177.77 798,-154 760.12,-130.53 749.85,-118.02 735,-76 719.84,-33.1 790.11,-18.41 833.63,-13.46"/>
<polygon fill="midnightblue" stroke="midnightblue" points="834.19,-16.92 843.78,-12.42 833.48,-9.95 834.19,-16.92"/>
</g>
<!-- Node10 -->
<g id="node10" class="node">
<title>Node10</title>
<g id="a_node10"><a xlink:title=" ">
<polygon fill="white" stroke="#bfbfbf" points="744.5,-56.5 744.5,-75.5 837.5,-75.5 837.5,-56.5 744.5,-56.5"/>
<text text-anchor="middle" x="791" y="-63.5" font-family="Helvetica,sans-Serif" font-size="10.00">unordered_map</text>
</a>
</g>
</g>
<!-- Node8&#45;&gt;Node10 -->
<g id="edge13" class="edge">
<title>Node8&#45;&gt;Node10</title>
<path fill="none" stroke="midnightblue" d="M926.31,-194.65C892.6,-189.22 854.31,-177.75 827,-154 806.7,-136.34 797.62,-105.42 793.73,-85.6"/>
<polygon fill="midnightblue" stroke="midnightblue" points="797.16,-84.9 792.02,-75.63 790.26,-86.08 797.16,-84.9"/>
</g>
<!-- Node11 -->
<g id="node11" class="node">
<title>Node11</title>
<g id="a_node11"><a xlink:href="_field_desc_types_8_h.html" target="_top" xlink:title=" ">
<polygon fill="white" stroke="black" points="1022,-0.5 1022,-19.5 1198,-19.5 1198,-0.5 1022,-0.5"/>
<text text-anchor="middle" x="1110" y="-7.5" font-family="Helvetica,sans-Serif" font-size="10.00">amr&#45;wind/core/FieldDescTypes.H</text>
</a>
</g>
</g>
<!-- Node8&#45;&gt;Node11 -->
<g id="edge14" class="edge">
<title>Node8&#45;&gt;Node11</title>
<path fill="none" stroke="midnightblue" d="M1005.97,-190.43C1022.71,-161.56 1077.28,-67.44 1099.97,-28.31"/>
<polygon fill="midnightblue" stroke="midnightblue" points="1103.02,-30.02 1105,-19.62 1096.96,-26.51 1103.02,-30.02"/>
</g>
<!-- Node12 -->
<g id="node12" class="node">
<title>Node12</title>
<g id="a_node12"><a xlink:href="_field_utils_8_h.html" target="_top" xlink:title=" ">
<polygon fill="white" stroke="black" points="1631,-56.5 1631,-75.5 1777,-75.5 1777,-56.5 1631,-56.5"/>
<text text-anchor="middle" x="1704" y="-63.5" font-family="Helvetica,sans-Serif" font-size="10.00">amr&#45;wind/core/FieldUtils.H</text>
</a>
</g>
</g>
<!-- Node8&#45;&gt;Node12 -->
<g id="edge15" class="edge">
<title>Node8&#45;&gt;Node12</title>
<path fill="none" stroke="midnightblue" d="M1075.59,-196.16C1163.19,-191.72 1312.48,-180.67 1438,-154 1525.59,-135.39 1624.93,-98.48 1673.71,-79.27"/>
<polygon fill="midnightblue" stroke="midnightblue" points="1675.04,-82.51 1683.05,-75.56 1672.46,-76 1675.04,-82.51"/>
</g>
<!-- Node13 -->
<g id="node13" class="node">
<title>Node13</title>
<g id="a_node13"><a xlink:title=" ">
<polygon fill="white" stroke="#bfbfbf" points="1332.5,-0.5 1332.5,-19.5 1441.5,-19.5 1441.5,-0.5 1332.5,-0.5"/>
<text text-anchor="middle" x="1387" y="-7.5" font-family="Helvetica,sans-Serif" font-size="10.00">AMReX_MultiFab.H</text>
</a>
</g>
</g>
<!-- Node8&#45;&gt;Node13 -->
<g id="edge47" class="edge">
<title>Node8&#45;&gt;Node13</title>
<path fill="none" stroke="midnightblue" d="M1075.59,-199.81C1255.02,-199.91 1702.1,-188.64 1786,-76 1791.31,-68.87 1791.92,-62.63 1786,-56 1764.15,-31.55 1558.83,-18.73 1451.57,-13.65"/>
<polygon fill="midnightblue" stroke="midnightblue" points="1451.66,-10.15 1441.51,-13.19 1451.34,-17.15 1451.66,-10.15"/>
</g>
<!-- Node15 -->
<g id="node15" class="node">
<title>Node15</title>
<g id="a_node15"><a xlink:href="_field_8_h.html" target="_top" xlink:title=" ">
<polygon fill="white" stroke="black" points="526,-123.5 526,-142.5 650,-142.5 650,-123.5 526,-123.5"/>
<text text-anchor="middle" x="588" y="-130.5" font-family="Helvetica,sans-Serif" font-size="10.00">amr&#45;wind/core/Field.H</text>
</a>
</g>
</g>
<!-- Node8&#45;&gt;Node15 -->
<g id="edge19" class="edge">
<title>Node8&#45;&gt;Node15</title>
<path fill="none" stroke="midnightblue" d="M926.27,-191.72C857.69,-184.41 753.47,-171.67 664,-154 651.89,-151.61 638.84,-148.41 627.04,-145.27"/>
<polygon fill="midnightblue" stroke="midnightblue" points="627.6,-141.8 617.04,-142.55 625.77,-148.55 627.6,-141.8"/>
</g>
<!-- Node21 -->
<g id="node21" class="node">
<title>Node21</title>
<g id="a_node21"><a xlink:href="_int_field_8_h.html" target="_top" xlink:title=" ">
<polygon fill="white" stroke="black" points="835.5,-123.5 835.5,-142.5 972.5,-142.5 972.5,-123.5 835.5,-123.5"/>
<text text-anchor="middle" x="904" y="-130.5" font-family="Helvetica,sans-Serif" font-size="10.00">amr&#45;wind/core/IntField.H</text>
</a>
</g>
</g>
<!-- Node8&#45;&gt;Node21 -->
<g id="edge34" class="edge">
<title>Node8&#45;&gt;Node21</title>
<path fill="none" stroke="midnightblue" d="M987.92,-190.23C971.85,-179.46 944.37,-161.05 925.25,-148.24"/>
<polygon fill="midnightblue" stroke="midnightblue" points="927.13,-145.29 916.87,-142.63 923.23,-151.1 927.13,-145.29"/>
</g>
<!-- Node22 -->
<g id="node22" class="node">
<title>Node22</title>
<g id="a_node22"><a xlink:title=" ">
<polygon fill="white" stroke="#bfbfbf" points="932,-56.5 932,-75.5 1044,-75.5 1044,-56.5 932,-56.5"/>
<text text-anchor="middle" x="988" y="-63.5" font-family="Helvetica,sans-Serif" font-size="10.00">AMReX_iMultiFab.H</text>
</a>
</g>
</g>
<!-- Node8&#45;&gt;Node22 -->
<g id="edge48" class="edge">
<title>Node8&#45;&gt;Node22</title>
<path fill="none" stroke="midnightblue" d="M1000.15,-190.34C998.06,-169.17 992.67,-114.45 989.83,-85.53"/>
<polygon fill="midnightblue" stroke="midnightblue" points="993.3,-85.13 988.84,-75.52 986.34,-85.82 993.3,-85.13"/>
</g>
<!-- Node23 -->
<g id="node23" class="node">
<title>Node23</title>
<g id="a_node23"><a xlink:href="_scratch_field_8_h.html" target="_top" xlink:title=" ">
<polygon fill="white" stroke="black" points="1269,-123.5 1269,-142.5 1429,-142.5 1429,-123.5 1269,-123.5"/>
<text text-anchor="middle" x="1349" y="-130.5" font-family="Helvetica,sans-Serif" font-size="10.00">amr&#45;wind/core/ScratchField.H</text>
</a>
</g>
</g>
<!-- Node8&#45;&gt;Node23 -->
<g id="edge38" class="edge">
<title>Node8&#45;&gt;Node23</title>
<path fill="none" stroke="midnightblue" d="M1053.09,-190.47C1104.89,-181.84 1186.6,-167.83 1257,-154 1271.45,-151.16 1287.13,-147.84 1301.38,-144.73"/>
<polygon fill="midnightblue" stroke="midnightblue" points="1302.46,-148.08 1311.47,-142.51 1300.95,-141.24 1302.46,-148.08"/>
</g>
<!-- Node26 -->
<g id="node26" class="node">
<title>Node26</title>
<g id="a_node26"><a xlink:title=" ">
<polygon fill="white" stroke="#bfbfbf" points="1138,-123.5 1138,-142.5 1248,-142.5 1248,-123.5 1138,-123.5"/>
<text text-anchor="middle" x="1193" y="-130.5" font-family="Helvetica,sans-Serif" font-size="10.00">AMReX_AmrCore.H</text>
</a>
</g>
</g>
<!-- Node8&#45;&gt;Node26 -->
<g id="edge46" class="edge">
<title>Node8&#45;&gt;Node26</title>
<path fill="none" stroke="midnightblue" d="M1026.5,-190.37C1060.3,-178.92 1120.1,-158.68 1158.08,-145.82"/>
<polygon fill="midnightblue" stroke="midnightblue" points="1159.35,-149.09 1167.7,-142.56 1157.11,-142.46 1159.35,-149.09"/>
</g>
<!-- Node12&#45;&gt;Node11 -->
<g id="edge16" class="edge">
<title>Node12&#45;&gt;Node11</title>
<path fill="none" stroke="midnightblue" d="M1630.73,-58.42C1535.87,-49.88 1365.09,-34.48 1208.33,-20.12"/>
<polygon fill="midnightblue" stroke="midnightblue" points="1208.31,-16.6 1198.03,-19.18 1207.67,-23.57 1208.31,-16.6"/>
</g>
<!-- Node12&#45;&gt;Node13 -->
<g id="edge17" class="edge">
<title>Node12&#45;&gt;Node13</title>
<path fill="none" stroke="midnightblue" d="M1653.77,-56.44C1597.66,-46.89 1506.87,-31.42 1447.05,-21.23"/>
<polygon fill="midnightblue" stroke="midnightblue" points="1447.44,-17.75 1436.99,-19.52 1446.26,-24.65 1447.44,-17.75"/>
</g>
<!-- Node14 -->
<g id="node14" class="node">
<title>Node14</title>
<g id="a_node14"><a xlink:title=" ">
<polygon fill="white" stroke="#bfbfbf" points="1642,-0.5 1642,-19.5 1766,-19.5 1766,-0.5 1642,-0.5"/>
<text text-anchor="middle" x="1704" y="-7.5" font-family="Helvetica,sans-Serif" font-size="10.00">AMReX_Interpolater.H</text>
</a>
</g>
</g>
<!-- Node12&#45;&gt;Node14 -->
<g id="edge18" class="edge">
<title>Node12&#45;&gt;Node14</title>
<path fill="none" stroke="midnightblue" d="M1704,-56.08C1704,-49.01 1704,-38.86 1704,-29.99"/>
<polygon fill="midnightblue" stroke="midnightblue" points="1707.5,-29.75 1704,-19.75 1700.5,-29.75 1707.5,-29.75"/>
</g>
<!-- Node15&#45;&gt;Node3 -->
<g id="edge26" class="edge">
<title>Node15&#45;&gt;Node3</title>
<path fill="none" stroke="midnightblue" d="M525.73,-124.06C496.91,-120.39 462.21,-115.97 431,-112 307.99,-96.37 274.51,-94.92 148.69,-76.2"/>
<polygon fill="midnightblue" stroke="midnightblue" points="149.08,-72.72 138.67,-74.71 148.04,-79.65 149.08,-72.72"/>
</g>
<!-- Node15&#45;&gt;Node4 -->
<g id="edge25" class="edge">
<title>Node15&#45;&gt;Node4</title>
<path fill="none" stroke="midnightblue" d="M537.67,-123.44C467.53,-111.5 340.59,-89.9 265.74,-77.17"/>
<polygon fill="midnightblue" stroke="midnightblue" points="265.98,-73.66 255.53,-75.43 264.81,-80.56 265.98,-73.66"/>
</g>
<!-- Node15&#45;&gt;Node9 -->
<g id="edge20" class="edge">
<title>Node15&#45;&gt;Node9</title>
<path fill="none" stroke="midnightblue" d="M589.7,-123.32C593.32,-107.28 603.39,-73.06 626,-56 658.34,-31.61 776.14,-18.56 833.79,-13.51"/>
<polygon fill="midnightblue" stroke="midnightblue" points="834.15,-16.99 843.82,-12.66 833.56,-10.01 834.15,-16.99"/>
</g>
<!-- Node15&#45;&gt;Node10 -->
<g id="edge22" class="edge">
<title>Node15&#45;&gt;Node10</title>
<path fill="none" stroke="midnightblue" d="M614.96,-123.37C650.85,-111.88 714.46,-91.51 754.59,-78.66"/>
<polygon fill="midnightblue" stroke="midnightblue" points="755.8,-81.95 764.25,-75.56 753.66,-75.28 755.8,-81.95"/>
</g>
<!-- Node15&#45;&gt;Node11 -->
<g id="edge28" class="edge">
<title>Node15&#45;&gt;Node11</title>
<path fill="none" stroke="midnightblue" d="M597.48,-123.31C615.97,-106.92 658.86,-71.7 702,-56 757.01,-35.99 909.43,-23.13 1011.59,-16.48"/>
<polygon fill="midnightblue" stroke="midnightblue" points="1011.87,-19.97 1021.62,-15.84 1011.42,-12.99 1011.87,-19.97"/>
</g>
<!-- Node15&#45;&gt;Node13 -->
<g id="edge24" class="edge">
<title>Node15&#45;&gt;Node13</title>
<path fill="none" stroke="midnightblue" d="M604.46,-123.46C642.65,-103.65 734.12,-56.24 735,-56 984.19,12.74 1060.56,-44.75 1322.04,-19.99"/>
<polygon fill="midnightblue" stroke="midnightblue" points="1322.61,-23.45 1332.22,-18.99 1321.93,-16.48 1322.61,-23.45"/>
</g>
<!-- Node16 -->
<g id="node16" class="node">
<title>Node16</title>
<g id="a_node16"><a xlink:title=" ">
<polygon fill="white" stroke="#bfbfbf" points="274,-56.5 274,-75.5 332,-75.5 332,-56.5 274,-56.5"/>
<text text-anchor="middle" x="303" y="-63.5" font-family="Helvetica,sans-Serif" font-size="10.00">memory</text>
</a>
</g>
</g>
<!-- Node15&#45;&gt;Node16 -->
<g id="edge21" class="edge">
<title>Node15&#45;&gt;Node16</title>
<path fill="none" stroke="midnightblue" d="M549.89,-123.48C503.34,-113.04 421.92,-94.71 342.25,-76.27"/>
<polygon fill="midnightblue" stroke="midnightblue" points="342.57,-72.76 332.04,-73.91 340.99,-79.57 342.57,-72.76"/>
</g>
<!-- Node17 -->
<g id="node17" class="node">
<title>Node17</title>
<g id="a_node17"><a xlink:title=" ">
<polygon fill="white" stroke="#bfbfbf" points="350,-56.5 350,-75.5 414,-75.5 414,-56.5 350,-56.5"/>
<text text-anchor="middle" x="382" y="-63.5" font-family="Helvetica,sans-Serif" font-size="10.00">algorithm</text>
</a>
</g>
</g>
<!-- Node15&#45;&gt;Node17 -->
<g id="edge23" class="edge">
<title>Node15&#45;&gt;Node17</title>
<path fill="none" stroke="midnightblue" d="M560.64,-123.37C524.14,-111.85 459.4,-91.42 418.69,-78.58"/>
<polygon fill="midnightblue" stroke="midnightblue" points="419.73,-75.24 409.14,-75.56 417.62,-81.91 419.73,-75.24"/>
</g>
<!-- Node18 -->
<g id="node18" class="node">
<title>Node18</title>
<g id="a_node18"><a xlink:href="incflo__enums_8_h.html" target="_top" xlink:title=" ">
<polygon fill="white" stroke="black" points="432.5,-56.5 432.5,-75.5 573.5,-75.5 573.5,-56.5 432.5,-56.5"/>
<text text-anchor="middle" x="503" y="-63.5" font-family="Helvetica,sans-Serif" font-size="10.00">amr&#45;wind/incflo_enums.H</text>
</a>
</g>
</g>
<!-- Node15&#45;&gt;Node18 -->
<g id="edge27" class="edge">
<title>Node15&#45;&gt;Node18</title>
<path fill="none" stroke="midnightblue" d="M576.54,-123.23C562.64,-112.61 539.02,-94.55 522.31,-81.76"/>
<polygon fill="midnightblue" stroke="midnightblue" points="524.35,-78.92 514.28,-75.63 520.1,-84.48 524.35,-78.92"/>
</g>
<!-- Node19 -->
<g id="node19" class="node">
<title>Node19</title>
<g id="a_node19"><a xlink:href="_view_field_8_h.html" target="_top" xlink:title=" ">
<polygon fill="white" stroke="black" points="1138,-56.5 1138,-75.5 1286,-75.5 1286,-56.5 1138,-56.5"/>
<text text-anchor="middle" x="1212" y="-63.5" font-family="Helvetica,sans-Serif" font-size="10.00">amr&#45;wind/core/ViewField.H</text>
</a>
</g>
</g>
<!-- Node15&#45;&gt;Node19 -->
<g id="edge29" class="edge">
<title>Node15&#45;&gt;Node19</title>
<path fill="none" stroke="midnightblue" d="M650.11,-125.53C762.67,-113.81 1000.43,-89.04 1127.59,-75.79"/>
<polygon fill="midnightblue" stroke="midnightblue" points="1128.09,-79.26 1137.67,-74.74 1127.36,-72.3 1128.09,-79.26"/>
</g>
<!-- Node19&#45;&gt;Node9 -->
<g id="edge30" class="edge">
<title>Node19&#45;&gt;Node9</title>
<path fill="none" stroke="midnightblue" d="M1157.18,-56.44C1084.19,-45.05 957.46,-25.27 898.24,-16.03"/>
<polygon fill="midnightblue" stroke="midnightblue" points="898.75,-12.57 888.33,-14.48 897.67,-19.48 898.75,-12.57"/>
</g>
<!-- Node19&#45;&gt;Node11 -->
<g id="edge31" class="edge">
<title>Node19&#45;&gt;Node11</title>
<path fill="none" stroke="midnightblue" d="M1195.61,-56.32C1179.33,-47.7 1154.13,-34.36 1135.28,-24.39"/>
<polygon fill="midnightblue" stroke="midnightblue" points="1136.82,-21.24 1126.35,-19.65 1133.55,-27.43 1136.82,-21.24"/>
</g>
<!-- Node19&#45;&gt;Node13 -->
<g id="edge32" class="edge">
<title>Node19&#45;&gt;Node13</title>
<path fill="none" stroke="midnightblue" d="M1239.73,-56.44C1269.43,-47.28 1316.72,-32.69 1349.67,-22.52"/>
<polygon fill="midnightblue" stroke="midnightblue" points="1350.88,-25.81 1359.4,-19.52 1348.81,-19.12 1350.88,-25.81"/>
</g>
<!-- Node20 -->
<g id="node20" class="node">
<title>Node20</title>
<g id="a_node20"><a xlink:title=" ">
<polygon fill="white" stroke="#bfbfbf" points="1216,-0.5 1216,-19.5 1314,-19.5 1314,-0.5 1216,-0.5"/>
<text text-anchor="middle" x="1265" y="-7.5" font-family="Helvetica,sans-Serif" font-size="10.00">AMReX_Vector.H</text>
</a>
</g>
</g>
<!-- Node19&#45;&gt;Node20 -->
<g id="edge33" class="edge">
<title>Node19&#45;&gt;Node20</title>
<path fill="none" stroke="midnightblue" d="M1220.75,-56.08C1228.47,-48.22 1239.9,-36.57 1249.22,-27.08"/>
<polygon fill="midnightblue" stroke="midnightblue" points="1251.9,-29.34 1256.41,-19.75 1246.91,-24.44 1251.9,-29.34"/>
</g>
<!-- Node21&#45;&gt;Node9 -->
<g id="edge35" class="edge">
<title>Node21&#45;&gt;Node9</title>
<path fill="none" stroke="midnightblue" d="M901.27,-123.3C895.1,-103.68 880.02,-55.64 871.71,-29.19"/>
<polygon fill="midnightblue" stroke="midnightblue" points="875.04,-28.12 868.71,-19.62 868.37,-30.21 875.04,-28.12"/>
</g>
<!-- Node21&#45;&gt;Node11 -->
<g id="edge36" class="edge">
<title>Node21&#45;&gt;Node11</title>
<path fill="none" stroke="midnightblue" d="M903.48,-123.33C903.05,-107.59 904.55,-74.29 923,-56 938.93,-40.21 989.64,-28.6 1034.23,-21.13"/>
<polygon fill="midnightblue" stroke="midnightblue" points="1034.92,-24.57 1044.23,-19.51 1033.8,-17.66 1034.92,-24.57"/>
</g>
<!-- Node21&#45;&gt;Node22 -->
<g id="edge37" class="edge">
<title>Node21&#45;&gt;Node22</title>
<path fill="none" stroke="midnightblue" d="M915.33,-123.23C929.06,-112.61 952.4,-94.55 968.92,-81.76"/>
<polygon fill="midnightblue" stroke="midnightblue" points="971.08,-84.52 976.85,-75.63 966.8,-78.98 971.08,-84.52"/>
</g>
<!-- Node23&#45;&gt;Node9 -->
<g id="edge39" class="edge">
<title>Node23&#45;&gt;Node9</title>
<path fill="none" stroke="midnightblue" d="M1315.06,-123.45C1271.83,-112.54 1194.82,-93.04 1129,-76 1095.19,-67.25 1086.87,-64.53 1053,-56 998.69,-42.32 935.27,-27.25 897.99,-18.48"/>
<polygon fill="midnightblue" stroke="midnightblue" points="898.74,-15.06 888.2,-16.18 897.14,-21.88 898.74,-15.06"/>
</g>
<!-- Node23&#45;&gt;Node11 -->
<g id="edge41" class="edge">
<title>Node23&#45;&gt;Node11</title>
<path fill="none" stroke="midnightblue" d="M1345.39,-123.4C1338.24,-107.47 1320.72,-73.44 1295,-56 1269.44,-38.67 1237.89,-27.99 1208.13,-21.42"/>
<polygon fill="midnightblue" stroke="midnightblue" points="1208.62,-17.95 1198.12,-19.35 1207.2,-24.81 1208.62,-17.95"/>
</g>
<!-- Node23&#45;&gt;Node13 -->
<g id="edge43" class="edge">
<title>Node23&#45;&gt;Node13</title>
<path fill="none" stroke="midnightblue" d="M1351.61,-123.08C1355.8,-108.86 1364.32,-80.17 1372,-56 1374.81,-47.16 1378.05,-37.39 1380.8,-29.21"/>
<polygon fill="midnightblue" stroke="midnightblue" points="1384.16,-30.2 1384.05,-19.6 1377.53,-27.95 1384.16,-30.2"/>
</g>
<!-- Node23&#45;&gt;Node19 -->
<g id="edge42" class="edge">
<title>Node23&#45;&gt;Node19</title>
<path fill="none" stroke="midnightblue" d="M1330.81,-123.37C1307.47,-112.3 1266.77,-92.99 1239.61,-80.1"/>
<polygon fill="midnightblue" stroke="midnightblue" points="1240.8,-76.79 1230.27,-75.67 1237.8,-83.12 1240.8,-76.79"/>
</g>
<!-- Node23&#45;&gt;Node20 -->
<g id="edge44" class="edge">
<title>Node23&#45;&gt;Node20</title>
<path fill="none" stroke="midnightblue" d="M1429.23,-130.53C1514.63,-126.17 1631.46,-110.48 1584,-56 1547.48,-14.08 1396.82,-27 1324.35,-19.78"/>
<polygon fill="midnightblue" stroke="midnightblue" points="1324.6,-16.29 1314.25,-18.56 1323.76,-23.24 1324.6,-16.29"/>
</g>
<!-- Node24 -->
<g id="node24" class="node">
<title>Node24</title>
<g id="a_node24"><a xlink:title=" ">
<polygon fill="white" stroke="#bfbfbf" points="1380.5,-56.5 1380.5,-75.5 1425.5,-75.5 1425.5,-56.5 1380.5,-56.5"/>
<text text-anchor="middle" x="1403" y="-63.5" font-family="Helvetica,sans-Serif" font-size="10.00">utility</text>
</a>
</g>
</g>
<!-- Node23&#45;&gt;Node24 -->
<g id="edge40" class="edge">
<title>Node23&#45;&gt;Node24</title>
<path fill="none" stroke="midnightblue" d="M1356.28,-123.23C1364.7,-113.1 1378.75,-96.19 1389.25,-83.56"/>
<polygon fill="midnightblue" stroke="midnightblue" points="1392.13,-85.56 1395.83,-75.63 1386.75,-81.08 1392.13,-85.56"/>
</g>
<!-- Node25 -->
<g id="node25" class="node">
<title>Node25</title>
<g id="a_node25"><a xlink:title=" ">
<polygon fill="white" stroke="#bfbfbf" points="1443.5,-56.5 1443.5,-75.5 1574.5,-75.5 1574.5,-56.5 1443.5,-56.5"/>
<text text-anchor="middle" x="1509" y="-63.5" font-family="Helvetica,sans-Serif" font-size="10.00">AMReX_PhysBCFunct.H</text>
</a>
</g>
</g>
<!-- Node23&#45;&gt;Node25 -->
<g id="edge45" class="edge">
<title>Node23&#45;&gt;Node25</title>
<path fill="none" stroke="midnightblue" d="M1370.25,-123.37C1397.94,-112.12 1446.56,-92.37 1478.27,-79.49"/>
<polygon fill="midnightblue" stroke="midnightblue" points="1479.97,-82.57 1487.92,-75.56 1477.34,-76.08 1479.97,-82.57"/>
</g>
</g>
</svg>
