<?xml version="1.0" encoding="UTF-8" standalone="no"?>
<!DOCTYPE svg PUBLIC "-//W3C//DTD SVG 1.1//EN"
 "http://www.w3.org/Graphics/SVG/1.1/DTD/svg11.dtd">
<!-- Generated by graphviz version 2.43.0 (0)
 -->
<!-- Title: incflo_godunov_predict.cpp Pages: 1 -->
<svg width="1747pt" height="330pt"
 viewBox="0.00 0.00 1746.78 330.00" xmlns="http://www.w3.org/2000/svg" xmlns:xlink="http://www.w3.org/1999/xlink">
<g id="graph0" class="graph" transform="scale(1 1) rotate(0) translate(4 326)">
<title>incflo_godunov_predict.cpp</title>
<polygon fill="white" stroke="transparent" points="-4,4 -4,-326 1742.78,-326 1742.78,4 -4,4"/>
<!-- Node1 -->
<g id="node1" class="node">
<title>Node1</title>
<g id="a_node1"><a xlink:title=" ">
<polygon fill="#bfbfbf" stroke="black" points="64,-302.5 64,-321.5 213,-321.5 213,-302.5 64,-302.5"/>
<text text-anchor="middle" x="138.5" y="-309.5" font-family="Helvetica,sans-Serif" font-size="10.00">incflo_godunov_predict.cpp</text>
</a>
</g>
</g>
<!-- Node2 -->
<g id="node2" class="node">
<title>Node2</title>
<g id="a_node2"><a xlink:href="incflo__godunov__ppm_8_h.html" target="_top" xlink:title=" ">
<polygon fill="white" stroke="black" points="73,-112.5 73,-142.5 204,-142.5 204,-112.5 73,-112.5"/>
<text text-anchor="start" x="81" y="-130.5" font-family="Helvetica,sans-Serif" font-size="10.00">amr&#45;wind/convection</text>
<text text-anchor="middle" x="138.5" y="-119.5" font-family="Helvetica,sans-Serif" font-size="10.00">/incflo_godunov_ppm.H</text>
</a>
</g>
</g>
<!-- Node1&#45;&gt;Node2 -->
<g id="edge1" class="edge">
<title>Node1&#45;&gt;Node2</title>
<path fill="none" stroke="midnightblue" d="M138.5,-302.2C138.5,-275.39 138.5,-194.09 138.5,-152.93"/>
<polygon fill="midnightblue" stroke="midnightblue" points="142,-152.69 138.5,-142.69 135,-152.69 142,-152.69"/>
</g>
<!-- Node4 -->
<g id="node4" class="node">
<title>Node4</title>
<g id="a_node4"><a xlink:title=" ">
<polygon fill="white" stroke="#bfbfbf" points="0,-56.5 0,-75.5 99,-75.5 99,-56.5 0,-56.5"/>
<text text-anchor="middle" x="49.5" y="-63.5" font-family="Helvetica,sans-Serif" font-size="10.00">AMReX_BCRec.H</text>
</a>
</g>
</g>
<!-- Node1&#45;&gt;Node4 -->
<g id="edge4" class="edge">
<title>Node1&#45;&gt;Node4</title>
<path fill="none" stroke="midnightblue" d="M133.66,-302.19C120.4,-277.7 83.2,-206.45 63.5,-143 57.55,-123.82 53.77,-101.09 51.66,-85.52"/>
<polygon fill="midnightblue" stroke="midnightblue" points="55.13,-85.08 50.41,-75.59 48.19,-85.95 55.13,-85.08"/>
</g>
<!-- Node5 -->
<g id="node5" class="node">
<title>Node5</title>
<g id="a_node5"><a xlink:href="_godunov_8_h.html" target="_top" xlink:title=" ">
<polygon fill="white" stroke="black" points="490,-235.5 490,-265.5 609,-265.5 609,-235.5 490,-235.5"/>
<text text-anchor="start" x="498" y="-253.5" font-family="Helvetica,sans-Serif" font-size="10.00">amr&#45;wind/convection</text>
<text text-anchor="middle" x="549.5" y="-242.5" font-family="Helvetica,sans-Serif" font-size="10.00">/Godunov.H</text>
</a>
</g>
</g>
<!-- Node1&#45;&gt;Node5 -->
<g id="edge5" class="edge">
<title>Node1&#45;&gt;Node5</title>
<path fill="none" stroke="midnightblue" d="M197.39,-302.48C271.99,-291.67 400.4,-273.09 479.81,-261.59"/>
<polygon fill="midnightblue" stroke="midnightblue" points="480.33,-265.05 489.72,-260.15 479.32,-258.12 480.33,-265.05"/>
</g>
<!-- Node3 -->
<g id="node3" class="node">
<title>Node3</title>
<g id="a_node3"><a xlink:title=" ">
<polygon fill="white" stroke="#bfbfbf" points="117,-56.5 117,-75.5 204,-75.5 204,-56.5 117,-56.5"/>
<text text-anchor="middle" x="160.5" y="-63.5" font-family="Helvetica,sans-Serif" font-size="10.00">AMReX_Gpu.H</text>
</a>
</g>
</g>
<!-- Node2&#45;&gt;Node3 -->
<g id="edge2" class="edge">
<title>Node2&#45;&gt;Node3</title>
<path fill="none" stroke="midnightblue" d="M143.71,-112.4C146.71,-104.29 150.51,-94.01 153.74,-85.28"/>
<polygon fill="midnightblue" stroke="midnightblue" points="157.11,-86.25 157.3,-75.66 150.55,-83.82 157.11,-86.25"/>
</g>
<!-- Node2&#45;&gt;Node4 -->
<g id="edge3" class="edge">
<title>Node2&#45;&gt;Node4</title>
<path fill="none" stroke="midnightblue" d="M117.41,-112.4C103.41,-103.04 85.09,-90.79 71.01,-81.38"/>
<polygon fill="midnightblue" stroke="midnightblue" points="72.71,-78.31 62.45,-75.66 68.82,-84.13 72.71,-78.31"/>
</g>
<!-- Node6 -->
<g id="node6" class="node">
<title>Node6</title>
<g id="a_node6"><a xlink:href="_field_repo_8_h.html" target="_top" xlink:title=" ">
<polygon fill="white" stroke="black" points="799,-179.5 799,-198.5 948,-198.5 948,-179.5 799,-179.5"/>
<text text-anchor="middle" x="873.5" y="-186.5" font-family="Helvetica,sans-Serif" font-size="10.00">amr&#45;wind/core/FieldRepo.H</text>
</a>
</g>
</g>
<!-- Node5&#45;&gt;Node6 -->
<g id="edge6" class="edge">
<title>Node5&#45;&gt;Node6</title>
<path fill="none" stroke="midnightblue" d="M609.3,-238.52C668.64,-227.62 758.89,-211.05 817.04,-200.37"/>
<polygon fill="midnightblue" stroke="midnightblue" points="817.95,-203.76 827.15,-198.51 816.68,-196.88 817.95,-203.76"/>
</g>
<!-- Node7 -->
<g id="node7" class="node">
<title>Node7</title>
<g id="a_node7"><a xlink:title=" ">
<polygon fill="white" stroke="#bfbfbf" points="792.5,-0.5 792.5,-19.5 836.5,-19.5 836.5,-0.5 792.5,-0.5"/>
<text text-anchor="middle" x="814.5" y="-7.5" font-family="Helvetica,sans-Serif" font-size="10.00">string</text>
</a>
</g>
</g>
<!-- Node6&#45;&gt;Node7 -->
<g id="edge7" class="edge">
<title>Node6&#45;&gt;Node7</title>
<path fill="none" stroke="midnightblue" d="M798.97,-186.39C652.13,-181.37 334.49,-160.74 275.5,-76 270.42,-68.7 269.48,-62.54 275.5,-56 309.88,-18.63 670.94,-12.28 782.11,-11.21"/>
<polygon fill="midnightblue" stroke="midnightblue" points="782.39,-14.71 792.36,-11.12 782.33,-7.71 782.39,-14.71"/>
</g>
<!-- Node8 -->
<g id="node8" class="node">
<title>Node8</title>
<g id="a_node8"><a xlink:title=" ">
<polygon fill="white" stroke="#bfbfbf" points="655,-56.5 655,-75.5 748,-75.5 748,-56.5 655,-56.5"/>
<text text-anchor="middle" x="701.5" y="-63.5" font-family="Helvetica,sans-Serif" font-size="10.00">unordered_map</text>
</a>
</g>
</g>
<!-- Node6&#45;&gt;Node8 -->
<g id="edge8" class="edge">
<title>Node6&#45;&gt;Node8</title>
<path fill="none" stroke="midnightblue" d="M840.17,-179.36C816.86,-172.21 785.85,-160.38 762.5,-143 740.94,-126.96 722.65,-101.57 711.88,-84.6"/>
<polygon fill="midnightblue" stroke="midnightblue" points="714.64,-82.42 706.43,-75.72 708.68,-86.08 714.64,-82.42"/>
</g>
<!-- Node9 -->
<g id="node9" class="node">
<title>Node9</title>
<g id="a_node9"><a xlink:href="_field_desc_types_8_h.html" target="_top" xlink:title=" ">
<polygon fill="white" stroke="black" points="1358.5,-0.5 1358.5,-19.5 1534.5,-19.5 1534.5,-0.5 1358.5,-0.5"/>
<text text-anchor="middle" x="1446.5" y="-7.5" font-family="Helvetica,sans-Serif" font-size="10.00">amr&#45;wind/core/FieldDescTypes.H</text>
</a>
</g>
</g>
<!-- Node6&#45;&gt;Node9 -->
<g id="edge9" class="edge">
<title>Node6&#45;&gt;Node9</title>
<path fill="none" stroke="midnightblue" d="M948.15,-184.1C1148.38,-172.84 1685.54,-137.15 1734.5,-76 1740.06,-69.06 1740.28,-62.75 1734.5,-56 1722.02,-41.41 1623.12,-28.31 1544.66,-20.05"/>
<polygon fill="midnightblue" stroke="midnightblue" points="1545.02,-16.57 1534.71,-19.02 1544.29,-23.53 1545.02,-16.57"/>
</g>
<!-- Node10 -->
<g id="node10" class="node">
<title>Node10</title>
<g id="a_node10"><a xlink:href="_field_utils_8_h.html" target="_top" xlink:title=" ">
<polygon fill="white" stroke="black" points="1579.5,-56.5 1579.5,-75.5 1725.5,-75.5 1725.5,-56.5 1579.5,-56.5"/>
<text text-anchor="middle" x="1652.5" y="-63.5" font-family="Helvetica,sans-Serif" font-size="10.00">amr&#45;wind/core/FieldUtils.H</text>
</a>
</g>
</g>
<!-- Node6&#45;&gt;Node10 -->
<g id="edge10" class="edge">
<title>Node6&#45;&gt;Node10</title>
<path fill="none" stroke="midnightblue" d="M948.07,-184.53C1042.52,-179.32 1210.01,-167.37 1351.5,-143 1447.7,-126.43 1558.45,-95.26 1615,-78.45"/>
<polygon fill="midnightblue" stroke="midnightblue" points="1616.01,-81.8 1624.59,-75.58 1614.01,-75.09 1616.01,-81.8"/>
</g>
<!-- Node11 -->
<g id="node11" class="node">
<title>Node11</title>
<g id="a_node11"><a xlink:title=" ">
<polygon fill="white" stroke="#bfbfbf" points="1030,-0.5 1030,-19.5 1139,-19.5 1139,-0.5 1030,-0.5"/>
<text text-anchor="middle" x="1084.5" y="-7.5" font-family="Helvetica,sans-Serif" font-size="10.00">AMReX_MultiFab.H</text>
</a>
</g>
</g>
<!-- Node6&#45;&gt;Node11 -->
<g id="edge42" class="edge">
<title>Node6&#45;&gt;Node11</title>
<path fill="none" stroke="midnightblue" d="M844.38,-179.44C826.86,-172.62 805.98,-161.14 795.5,-143 774.4,-106.46 798.11,-78.98 833.5,-56 863.54,-36.49 955.92,-23.66 1019.8,-16.87"/>
<polygon fill="midnightblue" stroke="midnightblue" points="1020.22,-20.34 1029.8,-15.83 1019.49,-13.38 1020.22,-20.34"/>
</g>
<!-- Node13 -->
<g id="node13" class="node">
<title>Node13</title>
<g id="a_node13"><a xlink:href="_field_8_h.html" target="_top" xlink:title=" ">
<polygon fill="white" stroke="black" points="465.5,-118 465.5,-137 589.5,-137 589.5,-118 465.5,-118"/>
<text text-anchor="middle" x="527.5" y="-125" font-family="Helvetica,sans-Serif" font-size="10.00">amr&#45;wind/core/Field.H</text>
</a>
</g>
</g>
<!-- Node6&#45;&gt;Node13 -->
<g id="edge14" class="edge">
<title>Node6&#45;&gt;Node13</title>
<path fill="none" stroke="midnightblue" d="M823.93,-179.48C761.36,-168.72 653.86,-150.23 586.95,-138.72"/>
<polygon fill="midnightblue" stroke="midnightblue" points="587.43,-135.25 576.98,-137.01 586.24,-142.15 587.43,-135.25"/>
</g>
<!-- Node19 -->
<g id="node19" class="node">
<title>Node19</title>
<g id="a_node19"><a xlink:href="_int_field_8_h.html" target="_top" xlink:title=" ">
<polygon fill="white" stroke="black" points="805,-118 805,-137 942,-137 942,-118 805,-118"/>
<text text-anchor="middle" x="873.5" y="-125" font-family="Helvetica,sans-Serif" font-size="10.00">amr&#45;wind/core/IntField.H</text>
</a>
</g>
</g>
<!-- Node6&#45;&gt;Node19 -->
<g id="edge29" class="edge">
<title>Node6&#45;&gt;Node19</title>
<path fill="none" stroke="midnightblue" d="M873.5,-179.48C873.5,-171.08 873.5,-157.98 873.5,-147.16"/>
<polygon fill="midnightblue" stroke="midnightblue" points="877,-147.01 873.5,-137.01 870,-147.01 877,-147.01"/>
</g>
<!-- Node20 -->
<g id="node20" class="node">
<title>Node20</title>
<g id="a_node20"><a xlink:title=" ">
<polygon fill="white" stroke="#bfbfbf" points="842.5,-56.5 842.5,-75.5 954.5,-75.5 954.5,-56.5 842.5,-56.5"/>
<text text-anchor="middle" x="898.5" y="-63.5" font-family="Helvetica,sans-Serif" font-size="10.00">AMReX_iMultiFab.H</text>
</a>
</g>
</g>
<!-- Node6&#45;&gt;Node20 -->
<g id="edge43" class="edge">
<title>Node6&#45;&gt;Node20</title>
<path fill="none" stroke="midnightblue" d="M948.07,-181.45C1000.08,-175.16 1063,-163.49 1079.5,-143 1088.14,-132.27 1087.99,-122.85 1079.5,-112 1071.69,-102.01 1005.62,-87.39 955.54,-77.55"/>
<polygon fill="midnightblue" stroke="midnightblue" points="955.93,-74.06 945.44,-75.59 954.59,-80.93 955.93,-74.06"/>
</g>
<!-- Node21 -->
<g id="node21" class="node">
<title>Node21</title>
<g id="a_node21"><a xlink:href="_scratch_field_8_h.html" target="_top" xlink:title=" ">
<polygon fill="white" stroke="black" points="1182.5,-118 1182.5,-137 1342.5,-137 1342.5,-118 1182.5,-118"/>
<text text-anchor="middle" x="1262.5" y="-125" font-family="Helvetica,sans-Serif" font-size="10.00">amr&#45;wind/core/ScratchField.H</text>
</a>
</g>
</g>
<!-- Node6&#45;&gt;Node21 -->
<g id="edge33" class="edge">
<title>Node6&#45;&gt;Node21</title>
<path fill="none" stroke="midnightblue" d="M929.23,-179.48C999.86,-168.67 1121.42,-150.08 1196.58,-138.58"/>
<polygon fill="midnightblue" stroke="midnightblue" points="1197.51,-141.98 1206.87,-137.01 1196.45,-135.06 1197.51,-141.98"/>
</g>
<!-- Node24 -->
<g id="node24" class="node">
<title>Node24</title>
<g id="a_node24"><a xlink:title=" ">
<polygon fill="white" stroke="#bfbfbf" points="960.5,-118 960.5,-137 1070.5,-137 1070.5,-118 960.5,-118"/>
<text text-anchor="middle" x="1015.5" y="-125" font-family="Helvetica,sans-Serif" font-size="10.00">AMReX_AmrCore.H</text>
</a>
</g>
</g>
<!-- Node6&#45;&gt;Node24 -->
<g id="edge41" class="edge">
<title>Node6&#45;&gt;Node24</title>
<path fill="none" stroke="midnightblue" d="M893.85,-179.48C917.89,-169.4 958.1,-152.55 985.66,-141"/>
<polygon fill="midnightblue" stroke="midnightblue" points="987.32,-144.1 995.19,-137.01 984.62,-137.65 987.32,-144.1"/>
</g>
<!-- Node10&#45;&gt;Node9 -->
<g id="edge11" class="edge">
<title>Node10&#45;&gt;Node9</title>
<path fill="none" stroke="midnightblue" d="M1619.86,-56.44C1584.45,-47.16 1527.79,-32.31 1488.95,-22.13"/>
<polygon fill="midnightblue" stroke="midnightblue" points="1489.55,-18.67 1478.99,-19.52 1487.77,-25.44 1489.55,-18.67"/>
</g>
<!-- Node10&#45;&gt;Node11 -->
<g id="edge12" class="edge">
<title>Node10&#45;&gt;Node11</title>
<path fill="none" stroke="midnightblue" d="M1579.41,-58.05C1467.51,-47.41 1255.55,-27.26 1149.02,-17.13"/>
<polygon fill="midnightblue" stroke="midnightblue" points="1149.34,-13.65 1139.05,-16.19 1148.68,-20.62 1149.34,-13.65"/>
</g>
<!-- Node12 -->
<g id="node12" class="node">
<title>Node12</title>
<g id="a_node12"><a xlink:title=" ">
<polygon fill="white" stroke="#bfbfbf" points="1590.5,-0.5 1590.5,-19.5 1714.5,-19.5 1714.5,-0.5 1590.5,-0.5"/>
<text text-anchor="middle" x="1652.5" y="-7.5" font-family="Helvetica,sans-Serif" font-size="10.00">AMReX_Interpolater.H</text>
</a>
</g>
</g>
<!-- Node10&#45;&gt;Node12 -->
<g id="edge13" class="edge">
<title>Node10&#45;&gt;Node12</title>
<path fill="none" stroke="midnightblue" d="M1652.5,-56.08C1652.5,-49.01 1652.5,-38.86 1652.5,-29.99"/>
<polygon fill="midnightblue" stroke="midnightblue" points="1656,-29.75 1652.5,-19.75 1649,-29.75 1656,-29.75"/>
</g>
<!-- Node13&#45;&gt;Node3 -->
<g id="edge21" class="edge">
<title>Node13&#45;&gt;Node3</title>
<path fill="none" stroke="midnightblue" d="M474.92,-117.98C405.49,-106.72 283.9,-87.01 214.01,-75.68"/>
<polygon fill="midnightblue" stroke="midnightblue" points="214.52,-72.21 204.09,-74.07 213.4,-79.12 214.52,-72.21"/>
</g>
<!-- Node13&#45;&gt;Node4 -->
<g id="edge20" class="edge">
<title>Node13&#45;&gt;Node4</title>
<path fill="none" stroke="midnightblue" d="M465.15,-119.68C385.06,-110.77 241.5,-94.28 109.08,-76.18"/>
<polygon fill="midnightblue" stroke="midnightblue" points="109.54,-72.71 99.16,-74.82 108.59,-79.65 109.54,-72.71"/>
</g>
<!-- Node13&#45;&gt;Node7 -->
<g id="edge15" class="edge">
<title>Node13&#45;&gt;Node7</title>
<path fill="none" stroke="midnightblue" d="M465.32,-126.7C378.35,-124.97 236.61,-113.62 289.5,-56 322.88,-19.64 673.09,-12.6 782.22,-11.29"/>
<polygon fill="midnightblue" stroke="midnightblue" points="782.34,-14.79 792.3,-11.18 782.26,-7.79 782.34,-14.79"/>
</g>
<!-- Node13&#45;&gt;Node8 -->
<g id="edge17" class="edge">
<title>Node13&#45;&gt;Node8</title>
<path fill="none" stroke="midnightblue" d="M552.43,-117.98C582.54,-107.68 633.33,-90.31 667.14,-78.75"/>
<polygon fill="midnightblue" stroke="midnightblue" points="668.29,-82.06 676.62,-75.51 666.02,-75.43 668.29,-82.06"/>
</g>
<!-- Node13&#45;&gt;Node9 -->
<g id="edge23" class="edge">
<title>Node13&#45;&gt;Node9</title>
<path fill="none" stroke="midnightblue" d="M589.57,-123.24C739.57,-115.13 1113.43,-93.43 1167.5,-76 1183.82,-70.74 1184.47,-62.09 1200.5,-56 1247.58,-38.12 1302.5,-27.21 1348.49,-20.62"/>
<polygon fill="midnightblue" stroke="midnightblue" points="1349.03,-24.07 1358.46,-19.23 1348.07,-17.14 1349.03,-24.07"/>
</g>
<!-- Node13&#45;&gt;Node11 -->
<g id="edge19" class="edge">
<title>Node13&#45;&gt;Node11</title>
<path fill="none" stroke="midnightblue" d="M541.2,-117.86C569.83,-99.86 634.29,-59.72 645.5,-56 713.23,-33.53 914.87,-19.93 1019.65,-14.19"/>
<polygon fill="midnightblue" stroke="midnightblue" points="1019.99,-17.68 1029.79,-13.65 1019.61,-10.69 1019.99,-17.68"/>
</g>
<!-- Node14 -->
<g id="node14" class="node">
<title>Node14</title>
<g id="a_node14"><a xlink:title=" ">
<polygon fill="white" stroke="#bfbfbf" points="298.5,-56.5 298.5,-75.5 356.5,-75.5 356.5,-56.5 298.5,-56.5"/>
<text text-anchor="middle" x="327.5" y="-63.5" font-family="Helvetica,sans-Serif" font-size="10.00">memory</text>
</a>
</g>
</g>
<!-- Node13&#45;&gt;Node14 -->
<g id="edge16" class="edge">
<title>Node13&#45;&gt;Node14</title>
<path fill="none" stroke="midnightblue" d="M498.84,-117.98C463.94,-107.59 404.85,-90.01 366,-78.45"/>
<polygon fill="midnightblue" stroke="midnightblue" points="366.68,-75.01 356.1,-75.51 364.69,-81.72 366.68,-75.01"/>
</g>
<!-- Node15 -->
<g id="node15" class="node">
<title>Node15</title>
<g id="a_node15"><a xlink:title=" ">
<polygon fill="white" stroke="#bfbfbf" points="374.5,-56.5 374.5,-75.5 438.5,-75.5 438.5,-56.5 374.5,-56.5"/>
<text text-anchor="middle" x="406.5" y="-63.5" font-family="Helvetica,sans-Serif" font-size="10.00">algorithm</text>
</a>
</g>
</g>
<!-- Node13&#45;&gt;Node15 -->
<g id="edge18" class="edge">
<title>Node13&#45;&gt;Node15</title>
<path fill="none" stroke="midnightblue" d="M510.16,-117.98C489.95,-108.03 456.31,-91.49 432.86,-79.96"/>
<polygon fill="midnightblue" stroke="midnightblue" points="434.32,-76.78 423.8,-75.51 431.23,-83.06 434.32,-76.78"/>
</g>
<!-- Node16 -->
<g id="node16" class="node">
<title>Node16</title>
<g id="a_node16"><a xlink:href="incflo__enums_8_h.html" target="_top" xlink:title=" ">
<polygon fill="white" stroke="black" points="457,-56.5 457,-75.5 598,-75.5 598,-56.5 457,-56.5"/>
<text text-anchor="middle" x="527.5" y="-63.5" font-family="Helvetica,sans-Serif" font-size="10.00">amr&#45;wind/incflo_enums.H</text>
</a>
</g>
</g>
<!-- Node13&#45;&gt;Node16 -->
<g id="edge22" class="edge">
<title>Node13&#45;&gt;Node16</title>
<path fill="none" stroke="midnightblue" d="M527.5,-117.98C527.5,-109.58 527.5,-96.48 527.5,-85.66"/>
<polygon fill="midnightblue" stroke="midnightblue" points="531,-85.51 527.5,-75.51 524,-85.51 531,-85.51"/>
</g>
<!-- Node17 -->
<g id="node17" class="node">
<title>Node17</title>
<g id="a_node17"><a xlink:href="_view_field_8_h.html" target="_top" xlink:title=" ">
<polygon fill="white" stroke="black" points="1010.5,-56.5 1010.5,-75.5 1158.5,-75.5 1158.5,-56.5 1010.5,-56.5"/>
<text text-anchor="middle" x="1084.5" y="-63.5" font-family="Helvetica,sans-Serif" font-size="10.00">amr&#45;wind/core/ViewField.H</text>
</a>
</g>
</g>
<!-- Node13&#45;&gt;Node17 -->
<g id="edge24" class="edge">
<title>Node13&#45;&gt;Node17</title>
<path fill="none" stroke="midnightblue" d="M589.51,-119.88C689.7,-109.17 887.34,-88.06 1000.22,-76"/>
<polygon fill="midnightblue" stroke="midnightblue" points="1000.63,-79.48 1010.2,-74.94 999.89,-72.52 1000.63,-79.48"/>
</g>
<!-- Node17&#45;&gt;Node7 -->
<g id="edge25" class="edge">
<title>Node17&#45;&gt;Node7</title>
<path fill="none" stroke="midnightblue" d="M1041.72,-56.44C987.55,-45.61 895.45,-27.19 846.8,-17.46"/>
<polygon fill="midnightblue" stroke="midnightblue" points="847.32,-14 836.83,-15.47 845.95,-20.86 847.32,-14"/>
</g>
<!-- Node17&#45;&gt;Node9 -->
<g id="edge26" class="edge">
<title>Node17&#45;&gt;Node9</title>
<path fill="none" stroke="midnightblue" d="M1141.86,-56.44C1206.33,-46.83 1310.9,-31.23 1379.19,-21.04"/>
<polygon fill="midnightblue" stroke="midnightblue" points="1380.03,-24.45 1389.41,-19.52 1379,-17.53 1380.03,-24.45"/>
</g>
<!-- Node17&#45;&gt;Node11 -->
<g id="edge27" class="edge">
<title>Node17&#45;&gt;Node11</title>
<path fill="none" stroke="midnightblue" d="M1084.5,-56.08C1084.5,-49.01 1084.5,-38.86 1084.5,-29.99"/>
<polygon fill="midnightblue" stroke="midnightblue" points="1088,-29.75 1084.5,-19.75 1081,-29.75 1088,-29.75"/>
</g>
<!-- Node18 -->
<g id="node18" class="node">
<title>Node18</title>
<g id="a_node18"><a xlink:title=" ">
<polygon fill="white" stroke="#bfbfbf" points="1204.5,-0.5 1204.5,-19.5 1302.5,-19.5 1302.5,-0.5 1204.5,-0.5"/>
<text text-anchor="middle" x="1253.5" y="-7.5" font-family="Helvetica,sans-Serif" font-size="10.00">AMReX_Vector.H</text>
</a>
</g>
</g>
<!-- Node17&#45;&gt;Node18 -->
<g id="edge28" class="edge">
<title>Node17&#45;&gt;Node18</title>
<path fill="none" stroke="midnightblue" d="M1111.28,-56.44C1139.83,-47.32 1185.23,-32.81 1217.04,-22.65"/>
<polygon fill="midnightblue" stroke="midnightblue" points="1218.39,-25.89 1226.85,-19.52 1216.26,-19.23 1218.39,-25.89"/>
</g>
<!-- Node19&#45;&gt;Node7 -->
<g id="edge30" class="edge">
<title>Node19&#45;&gt;Node7</title>
<path fill="none" stroke="midnightblue" d="M864.98,-117.93C855.97,-108.44 841.92,-92.29 833.5,-76 825.91,-61.31 820.92,-43.15 817.97,-29.76"/>
<polygon fill="midnightblue" stroke="midnightblue" points="821.37,-28.92 815.96,-19.81 814.51,-30.31 821.37,-28.92"/>
</g>
<!-- Node19&#45;&gt;Node9 -->
<g id="edge31" class="edge">
<title>Node19&#45;&gt;Node9</title>
<path fill="none" stroke="midnightblue" d="M917.58,-117.99C928.64,-115.94 940.49,-113.82 951.5,-112 1061.82,-93.78 1090.93,-98.32 1200.5,-76 1275.06,-60.81 1360.65,-36.64 1408.68,-22.44"/>
<polygon fill="midnightblue" stroke="midnightblue" points="1409.75,-25.78 1418.34,-19.57 1407.76,-19.07 1409.75,-25.78"/>
</g>
<!-- Node19&#45;&gt;Node20 -->
<g id="edge32" class="edge">
<title>Node19&#45;&gt;Node20</title>
<path fill="none" stroke="midnightblue" d="M877.08,-117.98C880.68,-109.4 886.35,-95.93 890.94,-84.98"/>
<polygon fill="midnightblue" stroke="midnightblue" points="894.28,-86.08 894.92,-75.51 887.82,-83.37 894.28,-86.08"/>
</g>
<!-- Node21&#45;&gt;Node7 -->
<g id="edge34" class="edge">
<title>Node21&#45;&gt;Node7</title>
<path fill="none" stroke="midnightblue" d="M1187.85,-117.98C1134.81,-110.51 1062.46,-97.41 1001.5,-76 983.49,-69.67 981.16,-63.24 963.5,-56 924.19,-39.89 876.96,-26.6 846.37,-18.73"/>
<polygon fill="midnightblue" stroke="midnightblue" points="847.22,-15.34 836.67,-16.28 845.51,-22.12 847.22,-15.34"/>
</g>
<!-- Node21&#45;&gt;Node9 -->
<g id="edge36" class="edge">
<title>Node21&#45;&gt;Node9</title>
<path fill="none" stroke="midnightblue" d="M1342.69,-122.53C1413.37,-117.15 1508.7,-104.66 1532.5,-76 1550.95,-53.78 1515.91,-34.73 1485.17,-23.11"/>
<polygon fill="midnightblue" stroke="midnightblue" points="1486,-19.69 1475.41,-19.6 1483.63,-26.27 1486,-19.69"/>
</g>
<!-- Node21&#45;&gt;Node11 -->
<g id="edge38" class="edge">
<title>Node21&#45;&gt;Node11</title>
<path fill="none" stroke="midnightblue" d="M1252.02,-117.95C1234.88,-104.15 1199.54,-76.43 1167.5,-56 1149.25,-44.36 1127.73,-32.75 1111.19,-24.24"/>
<polygon fill="midnightblue" stroke="midnightblue" points="1112.58,-21.02 1102.08,-19.61 1109.41,-27.26 1112.58,-21.02"/>
</g>
<!-- Node21&#45;&gt;Node17 -->
<g id="edge37" class="edge">
<title>Node21&#45;&gt;Node17</title>
<path fill="none" stroke="midnightblue" d="M1237,-117.98C1206.2,-107.68 1154.23,-90.31 1119.65,-78.75"/>
<polygon fill="midnightblue" stroke="midnightblue" points="1120.55,-75.36 1109.96,-75.51 1118.33,-82 1120.55,-75.36"/>
</g>
<!-- Node21&#45;&gt;Node18 -->
<g id="edge39" class="edge">
<title>Node21&#45;&gt;Node18</title>
<path fill="none" stroke="midnightblue" d="M1261.82,-117.82C1260.38,-99.26 1256.95,-55.34 1254.98,-29.97"/>
<polygon fill="midnightblue" stroke="midnightblue" points="1258.45,-29.48 1254.18,-19.78 1251.47,-30.02 1258.45,-29.48"/>
</g>
<!-- Node22 -->
<g id="node22" class="node">
<title>Node22</title>
<g id="a_node22"><a xlink:title=" ">
<polygon fill="white" stroke="#bfbfbf" points="1329,-56.5 1329,-75.5 1374,-75.5 1374,-56.5 1329,-56.5"/>
<text text-anchor="middle" x="1351.5" y="-63.5" font-family="Helvetica,sans-Serif" font-size="10.00">utility</text>
</a>
</g>
</g>
<!-- Node21&#45;&gt;Node22 -->
<g id="edge35" class="edge">
<title>Node21&#45;&gt;Node22</title>
<path fill="none" stroke="midnightblue" d="M1275.25,-117.98C1289.53,-108.43 1312.9,-92.81 1330.01,-81.37"/>
<polygon fill="midnightblue" stroke="midnightblue" points="1332.4,-83.98 1338.77,-75.51 1328.51,-78.16 1332.4,-83.98"/>
</g>
<!-- Node23 -->
<g id="node23" class="node">
<title>Node23</title>
<g id="a_node23"><a xlink:title=" ">
<polygon fill="white" stroke="#bfbfbf" points="1392,-56.5 1392,-75.5 1523,-75.5 1523,-56.5 1392,-56.5"/>
<text text-anchor="middle" x="1457.5" y="-63.5" font-family="Helvetica,sans-Serif" font-size="10.00">AMReX_PhysBCFunct.H</text>
</a>
</g>
</g>
<!-- Node21&#45;&gt;Node23 -->
<g id="edge40" class="edge">
<title>Node21&#45;&gt;Node23</title>
<path fill="none" stroke="midnightblue" d="M1290.44,-117.98C1324.47,-107.59 1382.08,-90.01 1419.96,-78.45"/>
<polygon fill="midnightblue" stroke="midnightblue" points="1421.07,-81.78 1429.61,-75.51 1419.03,-75.08 1421.07,-81.78"/>
</g>
</g>
</svg>
