<?xml version="1.0" encoding="UTF-8" standalone="no"?>
<!DOCTYPE svg PUBLIC "-//W3C//DTD SVG 1.1//EN"
 "http://www.w3.org/Graphics/SVG/1.1/DTD/svg11.dtd">
<!-- Generated by graphviz version 2.43.0 (0)
 -->
<!-- Title: Graphical Class Hierarchy Pages: 1 -->
<svg width="483pt" height="151pt"
 viewBox="0.00 0.00 483.00 150.50" xmlns="http://www.w3.org/2000/svg" xmlns:xlink="http://www.w3.org/1999/xlink">
<g id="graph0" class="graph" transform="scale(1 1) rotate(0) translate(4 146.5)">
<title>Graphical Class Hierarchy</title>
<polygon fill="white" stroke="transparent" points="-4,4 -4,-146.5 479,-146.5 479,4 -4,4"/>
<!-- Node0 -->
<g id="node1" class="node">
<title>Node0</title>
<g id="a_node1"><a xlink:href="classamr__wind_1_1_field_fill_patch_ops_base.html" target="_top" xlink:title="Abstract interface for classes that handle fill patch and physical boundary condition operations for ...">
<polygon fill="white" stroke="black" points="0,-63 0,-93 134,-93 134,-63 0,-63"/>
<text text-anchor="start" x="8" y="-81" font-family="Helvetica,sans-Serif" font-size="10.00">amr_wind::FieldFillPatch</text>
<text text-anchor="middle" x="67" y="-70" font-family="Helvetica,sans-Serif" font-size="10.00">OpsBase</text>
</a>
</g>
</g>
<!-- Node1 -->
<g id="node2" class="node">
<title>Node1</title>
<g id="a_node2"><a xlink:href="classamr__wind_1_1_field_fill_const_scalar.html" target="_top" xlink:title="Implementation that just fills a constant value on newly created grids.">
<polygon fill="white" stroke="black" points="170,-112 170,-142 306,-142 306,-112 170,-112"/>
<text text-anchor="start" x="178" y="-130" font-family="Helvetica,sans-Serif" font-size="10.00">amr_wind::FieldFillConst</text>
<text text-anchor="middle" x="238" y="-119" font-family="Helvetica,sans-Serif" font-size="10.00">Scalar</text>
</a>
</g>
</g>
<!-- Node0&#45;&gt;Node1 -->
<g id="edge1" class="edge">
<title>Node0&#45;&gt;Node1</title>
<path fill="none" stroke="midnightblue" d="M129.72,-95.89C147.89,-101.16 167.59,-106.88 185.09,-111.95"/>
<polygon fill="midnightblue" stroke="midnightblue" points="130.66,-92.52 120.08,-93.1 128.71,-99.25 130.66,-92.52"/>
</g>
<!-- Node2 -->
<g id="node3" class="node">
<title>Node2</title>
<g id="a_node3"><a xlink:href="classamr__wind_1_1_field_fill_patch_ops.html" target="_top" xlink:title="Concrete implementation of filling patches and boundary conditions on multi&#45;level AMR meshes.">
<polygon fill="white" stroke="black" points="171,-63 171,-93 305,-93 305,-63 171,-63"/>
<text text-anchor="start" x="179" y="-81" font-family="Helvetica,sans-Serif" font-size="10.00">amr_wind::FieldFillPatch</text>
<text text-anchor="middle" x="238" y="-70" font-family="Helvetica,sans-Serif" font-size="10.00">Ops&lt; BCOpCreator &gt;</text>
</a>
</g>
</g>
<!-- Node0&#45;&gt;Node2 -->
<g id="edge2" class="edge">
<title>Node0&#45;&gt;Node2</title>
<path fill="none" stroke="midnightblue" d="M144.55,-78C153.34,-78 162.25,-78 170.88,-78"/>
<polygon fill="midnightblue" stroke="midnightblue" points="144.31,-74.5 134.31,-78 144.31,-81.5 144.31,-74.5"/>
</g>
<!-- Node3 -->
<g id="node4" class="node">
<title>Node3</title>
<g id="a_node4"><a xlink:href="classamr__wind_1_1_field_fill_patch_ops.html" target="_top" xlink:title=" ">
<polygon fill="white" stroke="black" points="171,-14 171,-44 305,-44 305,-14 171,-14"/>
<text text-anchor="start" x="179" y="-32" font-family="Helvetica,sans-Serif" font-size="10.00">amr_wind::FieldFillPatch</text>
<text text-anchor="middle" x="238" y="-21" font-family="Helvetica,sans-Serif" font-size="10.00">Ops&lt; FieldBCNoOp &gt;</text>
</a>
</g>
</g>
<!-- Node0&#45;&gt;Node3 -->
<g id="edge3" class="edge">
<title>Node0&#45;&gt;Node3</title>
<path fill="none" stroke="midnightblue" d="M129.72,-60.11C147.89,-54.84 167.59,-49.12 185.09,-44.05"/>
<polygon fill="midnightblue" stroke="midnightblue" points="128.71,-56.75 120.08,-62.9 130.66,-63.48 128.71,-56.75"/>
</g>
<!-- Node4 -->
<g id="node5" class="node">
<title>Node4</title>
<g id="a_node5"><a xlink:href="classamr__wind_1_1_a_b_l_fill_inflow.html" target="_top" xlink:title="Operations to perform inflow of data from boundary planes.">
<polygon fill="white" stroke="black" points="342,-38.5 342,-57.5 475,-57.5 475,-38.5 342,-38.5"/>
<text text-anchor="middle" x="408.5" y="-45.5" font-family="Helvetica,sans-Serif" font-size="10.00">amr_wind::ABLFillInflow</text>
</a>
</g>
</g>
<!-- Node3&#45;&gt;Node4 -->
<g id="edge4" class="edge">
<title>Node3&#45;&gt;Node4</title>
<path fill="none" stroke="midnightblue" d="M315.12,-37.58C324.04,-38.59 333.09,-39.61 341.85,-40.6"/>
<polygon fill="midnightblue" stroke="midnightblue" points="315.44,-34.1 305.11,-36.45 314.66,-41.05 315.44,-34.1"/>
</g>
<!-- Node5 -->
<g id="node6" class="node">
<title>Node5</title>
<g id="a_node6"><a xlink:href="classamr__wind_1_1_a_b_l_fill_m_p_l.html" target="_top" xlink:title="Operations to perform inflow of data from boundary planes.">
<polygon fill="white" stroke="black" points="346.5,-0.5 346.5,-19.5 470.5,-19.5 470.5,-0.5 346.5,-0.5"/>
<text text-anchor="middle" x="408.5" y="-7.5" font-family="Helvetica,sans-Serif" font-size="10.00">amr_wind::ABLFillMPL</text>
</a>
</g>
</g>
<!-- Node3&#45;&gt;Node5 -->
<g id="edge5" class="edge">
<title>Node3&#45;&gt;Node5</title>
<path fill="none" stroke="midnightblue" d="M315.05,-20.42C325.5,-19.25 336.12,-18.05 346.25,-16.91"/>
<polygon fill="midnightblue" stroke="midnightblue" points="314.66,-16.95 305.11,-21.55 315.44,-23.9 314.66,-16.95"/>
</g>
</g>
</svg>
