<?xml version="1.0" encoding="UTF-8" standalone="no"?>
<!DOCTYPE svg PUBLIC "-//W3C//DTD SVG 1.1//EN"
 "http://www.w3.org/Graphics/SVG/1.1/DTD/svg11.dtd">
<!-- Generated by graphviz version 2.43.0 (0)
 -->
<!-- Title: nc_interface.H Pages: 1 -->
<!--zoomable 319 -->
<svg id="main" version="1.1" xmlns="http://www.w3.org/2000/svg" xmlns:xlink="http://www.w3.org/1999/xlink" xml:space="preserve" onload="init(evt)">
<style type="text/css"><![CDATA[
.edge:hover path { stroke: red; }
.edge:hover polygon { stroke: red; fill: red; }
]]></style>
<script type="text/javascript"><![CDATA[
var edges = document.getElementsByTagName('g');
if (edges && edges.length) {
  for (var i=0;i<edges.length;i++) {
    if (edges[i].id.substr(0,4)=='edge') {
      edges[i].setAttribute('class','edge');
    }
  }
}
]]></script>
        <defs>
                <circle id="rim" cx="0" cy="0" r="7"/>
                <circle id="rim2" cx="0" cy="0" r="3.5"/>
                <g id="zoomPlus">
                        <use xlink:href="#rim" fill="#404040">
                                <set attributeName="fill" to="#808080" begin="zoomplus.mouseover" end="zoomplus.mouseout"/>
                        </use>
                        <path d="M-4,0h8M0,-4v8" fill="none" stroke="white" stroke-width="1.5" pointer-events="none"/>
                </g>
                <g id="zoomMin">
                        <use xlink:href="#rim" fill="#404040">
                                <set attributeName="fill" to="#808080" begin="zoomminus.mouseover" end="zoomminus.mouseout"/>
                        </use>
                        <path d="M-4,0h8" fill="none" stroke="white" stroke-width="1.5" pointer-events="none"/>
                </g>
                <g id="dirArrow">
                        <path fill="none" stroke="white" stroke-width="1.5" d="M0,-3.0v7 M-2.5,-0.5L0,-3.0L2.5,-0.5"/>
                </g>
               <g id="resetDef">
                       <use xlink:href="#rim2" fill="#404040">
                               <set attributeName="fill" to="#808080" begin="reset.mouseover" end="reset.mouseout"/>
                       </use>
               </g>
        </defs>

<script type="text/javascript">
var viewWidth = 3022;
var viewHeight = 319;
var sectionId = 'dynsection-1';
</script>
<script xlink:href="svgpan.js"/>
<svg id="graph" class="graph">
<g id="viewport">
<title>nc_interface.H</title>
<polygon fill="white" stroke="transparent" points="-4,4 -4,-315 3018,-315 3018,4 -4,4"/>
<!-- Node1 -->
<g id="node1" class="node">
<title>Node1</title>
<g id="a_node1"><a xlink:title=" ">
<polygon fill="#bfbfbf" stroke="black" points="1807,-291.5 1807,-310.5 1894,-310.5 1894,-291.5 1807,-291.5"/>
<text text-anchor="middle" x="1850.5" y="-298.5" font-family="Helvetica,sans-Serif" font-size="10.00">nc_interface.H</text>
</a>
</g>
</g>
<!-- Node2 -->
<g id="node2" class="node">
<title>Node2</title>
<g id="a_node2"><a xlink:href="_a_b_l_boundary_plane_8_h.html" target="_top" xlink:title=" ">
<polygon fill="white" stroke="black" points="759,-235.5 759,-254.5 878,-254.5 878,-235.5 759,-235.5"/>
<text text-anchor="middle" x="818.5" y="-242.5" font-family="Helvetica,sans-Serif" font-size="10.00">ABLBoundaryPlane.H</text>
</a>
</g>
</g>
<!-- Node1&#45;&gt;Node2 -->
<g id="edge1" class="edge">
<title>Node1&#45;&gt;Node2</title>
<path fill="none" stroke="midnightblue" d="M1796.51,-297.74C1655.94,-291.77 1267.06,-274.67 943.5,-255 922.22,-253.71 898.91,-252.08 878.25,-250.57"/>
<polygon fill="midnightblue" stroke="midnightblue" points="1796.45,-301.24 1806.59,-298.17 1796.75,-294.25 1796.45,-301.24"/>
</g>
<!-- Node11 -->
<g id="node11" class="node">
<title>Node11</title>
<g id="a_node11"><a xlink:href="_a_b_l_boundary_plane_8cpp.html" target="_top" xlink:title=" ">
<polygon fill="white" stroke="black" points="869,-118 869,-137 998,-137 998,-118 869,-118"/>
<text text-anchor="middle" x="933.5" y="-125" font-family="Helvetica,sans-Serif" font-size="10.00">ABLBoundaryPlane.cpp</text>
</a>
</g>
</g>
<!-- Node1&#45;&gt;Node11 -->
<g id="edge41" class="edge">
<title>Node1&#45;&gt;Node11</title>
<path fill="none" stroke="midnightblue" d="M1796.86,-299.21C1629.41,-296.42 1123.44,-285.54 1056.5,-255 998.25,-228.43 953.13,-160.93 938.53,-137.04"/>
<polygon fill="midnightblue" stroke="midnightblue" points="1796.87,-302.71 1806.93,-299.37 1796.99,-295.71 1796.87,-302.71"/>
</g>
<!-- Node14 -->
<g id="node14" class="node">
<title>Node14</title>
<g id="a_node14"><a xlink:href="bluff__body__ops_8cpp.html" target="_top" xlink:title=" ">
<polygon fill="white" stroke="black" points="1065.5,-235.5 1065.5,-254.5 1175.5,-254.5 1175.5,-235.5 1065.5,-235.5"/>
<text text-anchor="middle" x="1120.5" y="-242.5" font-family="Helvetica,sans-Serif" font-size="10.00">bluff_body_ops.cpp</text>
</a>
</g>
</g>
<!-- Node1&#45;&gt;Node14 -->
<g id="edge15" class="edge">
<title>Node1&#45;&gt;Node14</title>
<path fill="none" stroke="midnightblue" d="M1796.61,-297.68C1683.16,-292.51 1411.41,-278.59 1184.5,-255 1181.6,-254.7 1178.63,-254.37 1175.63,-254.01"/>
<polygon fill="midnightblue" stroke="midnightblue" points="1796.62,-301.19 1806.77,-298.14 1796.94,-294.19 1796.62,-301.19"/>
</g>
<!-- Node15 -->
<g id="node15" class="node">
<title>Node15</title>
<g id="a_node15"><a xlink:href="_synthetic_turbulence_8cpp.html" target="_top" xlink:title=" ">
<polygon fill="white" stroke="black" points="1194,-235.5 1194,-254.5 1329,-254.5 1329,-235.5 1194,-235.5"/>
<text text-anchor="middle" x="1261.5" y="-242.5" font-family="Helvetica,sans-Serif" font-size="10.00">SyntheticTurbulence.cpp</text>
</a>
</g>
</g>
<!-- Node1&#45;&gt;Node15 -->
<g id="edge16" class="edge">
<title>Node1&#45;&gt;Node15</title>
<path fill="none" stroke="midnightblue" d="M1796.82,-295.83C1703.4,-288.46 1504.87,-272.25 1337.5,-255 1334.72,-254.71 1331.89,-254.41 1329.03,-254.11"/>
<polygon fill="midnightblue" stroke="midnightblue" points="1796.64,-299.33 1806.88,-296.62 1797.19,-292.35 1796.64,-299.33"/>
</g>
<!-- Node16 -->
<g id="node16" class="node">
<title>Node16</title>
<g id="a_node16"><a xlink:href="_i_o_manager_8cpp.html" target="_top" xlink:title=" ">
<polygon fill="white" stroke="black" points="1347,-235.5 1347,-254.5 1436,-254.5 1436,-235.5 1347,-235.5"/>
<text text-anchor="middle" x="1391.5" y="-242.5" font-family="Helvetica,sans-Serif" font-size="10.00">IOManager.cpp</text>
</a>
</g>
</g>
<!-- Node1&#45;&gt;Node16 -->
<g id="edge17" class="edge">
<title>Node1&#45;&gt;Node16</title>
<path fill="none" stroke="midnightblue" d="M1796.79,-295.04C1718.96,-287.64 1570.36,-272.65 1444.5,-255 1441.73,-254.61 1438.88,-254.19 1436,-253.75"/>
<polygon fill="midnightblue" stroke="midnightblue" points="1796.55,-298.54 1806.84,-296 1797.21,-291.57 1796.55,-298.54"/>
</g>
<!-- Node17 -->
<g id="node17" class="node">
<title>Node17</title>
<g id="a_node17"><a xlink:href="nc__interface_8cpp.html" target="_top" xlink:title=" ">
<polygon fill="white" stroke="black" points="1454,-235.5 1454,-254.5 1551,-254.5 1551,-235.5 1454,-235.5"/>
<text text-anchor="middle" x="1502.5" y="-242.5" font-family="Helvetica,sans-Serif" font-size="10.00">nc_interface.cpp</text>
</a>
</g>
</g>
<!-- Node1&#45;&gt;Node17 -->
<g id="edge18" class="edge">
<title>Node1&#45;&gt;Node17</title>
<path fill="none" stroke="midnightblue" d="M1796.82,-291.67C1729.69,-281.25 1615.72,-263.57 1551.07,-253.54"/>
<polygon fill="midnightblue" stroke="midnightblue" points="1796.36,-295.14 1806.78,-293.22 1797.43,-288.22 1796.36,-295.14"/>
</g>
<!-- Node18 -->
<g id="node18" class="node">
<title>Node18</title>
<g id="a_node18"><a xlink:href="_sampler_base_8_h.html" target="_top" xlink:title=" ">
<polygon fill="white" stroke="black" points="1569.5,-235.5 1569.5,-254.5 1661.5,-254.5 1661.5,-235.5 1569.5,-235.5"/>
<text text-anchor="middle" x="1615.5" y="-242.5" font-family="Helvetica,sans-Serif" font-size="10.00">SamplerBase.H</text>
</a>
</g>
</g>
<!-- Node1&#45;&gt;Node18 -->
<g id="edge19" class="edge">
<title>Node1&#45;&gt;Node18</title>
<path fill="none" stroke="midnightblue" d="M1803.29,-289.15C1758.89,-278.95 1693.31,-263.88 1652.56,-254.52"/>
<polygon fill="midnightblue" stroke="midnightblue" points="1802.73,-292.62 1813.26,-291.44 1804.3,-285.79 1802.73,-292.62"/>
</g>
<!-- Node30 -->
<g id="node30" class="node">
<title>Node30</title>
<g id="a_node30"><a xlink:href="_sampling_8cpp.html" target="_top" xlink:title=" ">
<polygon fill="white" stroke="black" points="1525,-118 1525,-137 1608,-137 1608,-118 1525,-118"/>
<text text-anchor="middle" x="1566.5" y="-125" font-family="Helvetica,sans-Serif" font-size="10.00">Sampling.cpp</text>
</a>
</g>
</g>
<!-- Node1&#45;&gt;Node30 -->
<g id="edge39" class="edge">
<title>Node1&#45;&gt;Node30</title>
<path fill="none" stroke="midnightblue" d="M1802.16,-288.62C1778.72,-281.52 1751.06,-270.7 1729.5,-255 1694.71,-229.67 1702.99,-206.03 1669.5,-179 1645.79,-159.86 1613.63,-145.56 1591.59,-137.15"/>
<polygon fill="midnightblue" stroke="midnightblue" points="1801.33,-292.02 1811.91,-291.43 1803.27,-285.3 1801.33,-292.02"/>
</g>
<!-- Node33 -->
<g id="node33" class="node">
<title>Node33</title>
<g id="a_node33"><a xlink:href="_a_b_l_stats_8cpp.html" target="_top" xlink:title=" ">
<polygon fill="white" stroke="black" points="1667.5,-118 1667.5,-137 1747.5,-137 1747.5,-118 1667.5,-118"/>
<text text-anchor="middle" x="1707.5" y="-125" font-family="Helvetica,sans-Serif" font-size="10.00">ABLStats.cpp</text>
</a>
</g>
</g>
<!-- Node1&#45;&gt;Node33 -->
<g id="edge43" class="edge">
<title>Node1&#45;&gt;Node33</title>
<path fill="none" stroke="midnightblue" d="M1801.2,-288.34C1781.82,-281.51 1760.82,-270.98 1746.5,-255 1714.9,-219.74 1708.9,-159.32 1707.77,-137.06"/>
<polygon fill="midnightblue" stroke="midnightblue" points="1800.26,-291.71 1810.85,-291.49 1802.43,-285.06 1800.26,-291.71"/>
</g>
<!-- Node34 -->
<g id="node34" class="node">
<title>Node34</title>
<g id="a_node34"><a xlink:href="_enstrophy_8cpp.html" target="_top" xlink:title=" ">
<polygon fill="white" stroke="black" points="1755.5,-235.5 1755.5,-254.5 1839.5,-254.5 1839.5,-235.5 1755.5,-235.5"/>
<text text-anchor="middle" x="1797.5" y="-242.5" font-family="Helvetica,sans-Serif" font-size="10.00">Enstrophy.cpp</text>
</a>
</g>
</g>
<!-- Node1&#45;&gt;Node34 -->
<g id="edge35" class="edge">
<title>Node1&#45;&gt;Node34</title>
<path fill="none" stroke="midnightblue" d="M1834.52,-283.72C1825.18,-274.2 1813.75,-262.56 1806.09,-254.75"/>
<polygon fill="midnightblue" stroke="midnightblue" points="1832.25,-286.4 1841.75,-291.08 1837.24,-281.49 1832.25,-286.4"/>
</g>
<!-- Node35 -->
<g id="node35" class="node">
<title>Node35</title>
<g id="a_node35"><a xlink:href="_field_norms_8cpp.html" target="_top" xlink:title=" ">
<polygon fill="white" stroke="black" points="1857.5,-235.5 1857.5,-254.5 1949.5,-254.5 1949.5,-235.5 1857.5,-235.5"/>
<text text-anchor="middle" x="1903.5" y="-242.5" font-family="Helvetica,sans-Serif" font-size="10.00">FieldNorms.cpp</text>
</a>
</g>
</g>
<!-- Node1&#45;&gt;Node35 -->
<g id="edge36" class="edge">
<title>Node1&#45;&gt;Node35</title>
<path fill="none" stroke="midnightblue" d="M1866.48,-283.72C1875.82,-274.2 1887.25,-262.56 1894.91,-254.75"/>
<polygon fill="midnightblue" stroke="midnightblue" points="1863.76,-281.49 1859.25,-291.08 1868.75,-286.4 1863.76,-281.49"/>
</g>
<!-- Node36 -->
<g id="node36" class="node">
<title>Node36</title>
<g id="a_node36"><a xlink:href="_free_surface_8cpp.html" target="_top" xlink:title=" ">
<polygon fill="white" stroke="black" points="1968,-235.5 1968,-254.5 2063,-254.5 2063,-235.5 1968,-235.5"/>
<text text-anchor="middle" x="2015.5" y="-242.5" font-family="Helvetica,sans-Serif" font-size="10.00">FreeSurface.cpp</text>
</a>
</g>
</g>
<!-- Node1&#45;&gt;Node36 -->
<g id="edge37" class="edge">
<title>Node1&#45;&gt;Node36</title>
<path fill="none" stroke="midnightblue" d="M1886.24,-288.3C1917.33,-278.13 1961.65,-263.62 1989.48,-254.52"/>
<polygon fill="midnightblue" stroke="midnightblue" points="1885.06,-285.01 1876.64,-291.44 1887.24,-291.66 1885.06,-285.01"/>
</g>
<!-- Node37 -->
<g id="node37" class="node">
<title>Node37</title>
<g id="a_node37"><a xlink:href="_kinetic_energy_8cpp.html" target="_top" xlink:title=" ">
<polygon fill="white" stroke="black" points="2081,-235.5 2081,-254.5 2184,-254.5 2184,-235.5 2081,-235.5"/>
<text text-anchor="middle" x="2132.5" y="-242.5" font-family="Helvetica,sans-Serif" font-size="10.00">KineticEnergy.cpp</text>
</a>
</g>
</g>
<!-- Node1&#45;&gt;Node37 -->
<g id="edge38" class="edge">
<title>Node1&#45;&gt;Node37</title>
<path fill="none" stroke="midnightblue" d="M1904.18,-289.72C1957.36,-279.54 2037.87,-264.12 2087.71,-254.58"/>
<polygon fill="midnightblue" stroke="midnightblue" points="1903.42,-286.3 1894.25,-291.62 1904.73,-293.18 1903.42,-286.3"/>
</g>
<!-- Node38 -->
<g id="node38" class="node">
<title>Node38</title>
<g id="a_node38"><a xlink:href="_wave_energy_8cpp.html" target="_top" xlink:title=" ">
<polygon fill="white" stroke="black" points="2202.5,-235.5 2202.5,-254.5 2298.5,-254.5 2298.5,-235.5 2202.5,-235.5"/>
<text text-anchor="middle" x="2250.5" y="-242.5" font-family="Helvetica,sans-Serif" font-size="10.00">WaveEnergy.cpp</text>
</a>
</g>
</g>
<!-- Node1&#45;&gt;Node38 -->
<g id="edge40" class="edge">
<title>Node1&#45;&gt;Node38</title>
<path fill="none" stroke="midnightblue" d="M1904.12,-293.41C1971.68,-285 2091.31,-269.77 2193.5,-255 2196.38,-254.58 2199.33,-254.15 2202.31,-253.7"/>
<polygon fill="midnightblue" stroke="midnightblue" points="1903.63,-289.94 1894.14,-294.65 1904.49,-296.89 1903.63,-289.94"/>
</g>
<!-- Node39 -->
<g id="node39" class="node">
<title>Node39</title>
<g id="a_node39"><a xlink:href="_a_b_l_modulated_power_law_8cpp.html" target="_top" xlink:title=" ">
<polygon fill="white" stroke="black" points="2316.5,-235.5 2316.5,-254.5 2472.5,-254.5 2472.5,-235.5 2316.5,-235.5"/>
<text text-anchor="middle" x="2394.5" y="-242.5" font-family="Helvetica,sans-Serif" font-size="10.00">ABLModulatedPowerLaw.cpp</text>
</a>
</g>
</g>
<!-- Node1&#45;&gt;Node39 -->
<g id="edge42" class="edge">
<title>Node1&#45;&gt;Node39</title>
<path fill="none" stroke="midnightblue" d="M1904.29,-294.79C1989.73,-286.5 2161.72,-269.72 2307.5,-255 2310.37,-254.71 2313.29,-254.41 2316.25,-254.11"/>
<polygon fill="midnightblue" stroke="midnightblue" points="1903.92,-291.31 1894.3,-295.76 1904.6,-298.28 1903.92,-291.31"/>
</g>
<!-- Node40 -->
<g id="node40" class="node">
<title>Node40</title>
<g id="a_node40"><a xlink:href="disk__ops_8cpp.html" target="_top" xlink:title=" ">
<polygon fill="white" stroke="black" points="2490.5,-235.5 2490.5,-254.5 2570.5,-254.5 2570.5,-235.5 2490.5,-235.5"/>
<text text-anchor="middle" x="2530.5" y="-242.5" font-family="Helvetica,sans-Serif" font-size="10.00">disk_ops.cpp</text>
</a>
</g>
</g>
<!-- Node1&#45;&gt;Node40 -->
<g id="edge44" class="edge">
<title>Node1&#45;&gt;Node40</title>
<path fill="none" stroke="midnightblue" d="M1904.38,-298.17C2013.61,-294 2268.83,-282.03 2481.5,-255 2484.42,-254.63 2487.42,-254.2 2490.44,-253.73"/>
<polygon fill="midnightblue" stroke="midnightblue" points="1904.13,-294.67 1894.27,-298.54 1904.39,-301.67 1904.13,-294.67"/>
</g>
<!-- Node41 -->
<g id="node41" class="node">
<title>Node41</title>
<g id="a_node41"><a xlink:href="_joukowsky__ops_8cpp.html" target="_top" xlink:title=" ">
<polygon fill="white" stroke="black" points="2588.5,-235.5 2588.5,-254.5 2698.5,-254.5 2698.5,-235.5 2588.5,-235.5"/>
<text text-anchor="middle" x="2643.5" y="-242.5" font-family="Helvetica,sans-Serif" font-size="10.00">Joukowsky_ops.cpp</text>
</a>
</g>
</g>
<!-- Node1&#45;&gt;Node41 -->
<g id="edge45" class="edge">
<title>Node1&#45;&gt;Node41</title>
<path fill="none" stroke="midnightblue" d="M1904.25,-298.12C2025.13,-293.58 2327.58,-280.45 2579.5,-255 2582.4,-254.71 2585.38,-254.38 2588.38,-254.03"/>
<polygon fill="midnightblue" stroke="midnightblue" points="1904.01,-294.63 1894.15,-298.5 1904.27,-301.62 1904.01,-294.63"/>
</g>
<!-- Node42 -->
<g id="node42" class="node">
<title>Node42</title>
<g id="a_node42"><a xlink:href="_fast_iface_8cpp.html" target="_top" xlink:title=" ">
<polygon fill="white" stroke="black" points="2716.5,-235.5 2716.5,-254.5 2796.5,-254.5 2796.5,-235.5 2716.5,-235.5"/>
<text text-anchor="middle" x="2756.5" y="-242.5" font-family="Helvetica,sans-Serif" font-size="10.00">FastIface.cpp</text>
</a>
</g>
</g>
<!-- Node1&#45;&gt;Node42 -->
<g id="edge46" class="edge">
<title>Node1&#45;&gt;Node42</title>
<path fill="none" stroke="midnightblue" d="M1904.49,-299.58C2040.02,-298.01 2405.37,-290.53 2707.5,-255 2710.42,-254.66 2713.43,-254.25 2716.45,-253.79"/>
<polygon fill="midnightblue" stroke="midnightblue" points="1904.33,-296.08 1894.37,-299.69 1904.41,-303.08 1904.33,-296.08"/>
</g>
<!-- Node43 -->
<g id="node43" class="node">
<title>Node43</title>
<g id="a_node43"><a xlink:href="turbine__utils_8cpp.html" target="_top" xlink:title=" ">
<polygon fill="white" stroke="black" points="2814.5,-235.5 2814.5,-254.5 2912.5,-254.5 2912.5,-235.5 2814.5,-235.5"/>
<text text-anchor="middle" x="2863.5" y="-242.5" font-family="Helvetica,sans-Serif" font-size="10.00">turbine_utils.cpp</text>
</a>
</g>
</g>
<!-- Node1&#45;&gt;Node43 -->
<g id="edge47" class="edge">
<title>Node1&#45;&gt;Node43</title>
<path fill="none" stroke="midnightblue" d="M1904.43,-299.48C2050.11,-297.62 2463.6,-289.48 2805.5,-255 2808.44,-254.7 2811.46,-254.36 2814.5,-253.98"/>
<polygon fill="midnightblue" stroke="midnightblue" points="1904.37,-295.98 1894.41,-299.6 1904.45,-302.98 1904.37,-295.98"/>
</g>
<!-- Node44 -->
<g id="node44" class="node">
<title>Node44</title>
<g id="a_node44"><a xlink:href="wing__ops_8cpp.html" target="_top" xlink:title=" ">
<polygon fill="white" stroke="black" points="2931,-235.5 2931,-254.5 3014,-254.5 3014,-235.5 2931,-235.5"/>
<text text-anchor="middle" x="2972.5" y="-242.5" font-family="Helvetica,sans-Serif" font-size="10.00">wing_ops.cpp</text>
</a>
</g>
</g>
<!-- Node1&#45;&gt;Node44 -->
<g id="edge48" class="edge">
<title>Node1&#45;&gt;Node44</title>
<path fill="none" stroke="midnightblue" d="M1904.34,-300.26C2061.52,-300.46 2533.11,-297.24 2921.5,-255 2924.54,-254.67 2927.67,-254.27 2930.82,-253.82"/>
<polygon fill="midnightblue" stroke="midnightblue" points="1904.02,-296.76 1894.01,-300.24 1904.01,-303.76 1904.02,-296.76"/>
</g>
<!-- Node3 -->
<g id="node3" class="node">
<title>Node3</title>
<g id="a_node3"><a xlink:href="_a_b_l_8_h.html" target="_top" xlink:title=" ">
<polygon fill="white" stroke="black" points="461.5,-179.5 461.5,-198.5 507.5,-198.5 507.5,-179.5 461.5,-179.5"/>
<text text-anchor="middle" x="484.5" y="-186.5" font-family="Helvetica,sans-Serif" font-size="10.00">ABL.H</text>
</a>
</g>
</g>
<!-- Node2&#45;&gt;Node3 -->
<g id="edge2" class="edge">
<title>Node2&#45;&gt;Node3</title>
<path fill="none" stroke="midnightblue" d="M755.28,-233.78C680.01,-221.61 558.15,-201.91 507.61,-193.74"/>
<polygon fill="midnightblue" stroke="midnightblue" points="755.15,-237.3 765.58,-235.44 756.26,-230.39 755.15,-237.3"/>
</g>
<!-- Node9 -->
<g id="node9" class="node">
<title>Node9</title>
<g id="a_node9"><a xlink:href="_a_b_l_8cpp.html" target="_top" xlink:title=" ">
<polygon fill="white" stroke="black" points="678.5,-118 678.5,-137 734.5,-137 734.5,-118 678.5,-118"/>
<text text-anchor="middle" x="706.5" y="-125" font-family="Helvetica,sans-Serif" font-size="10.00">ABL.cpp</text>
</a>
</g>
</g>
<!-- Node2&#45;&gt;Node9 -->
<g id="edge10" class="edge">
<title>Node2&#45;&gt;Node9</title>
<path fill="none" stroke="midnightblue" d="M798.6,-228.89C788.05,-220.53 775.12,-209.69 764.5,-199 743.94,-178.31 722.97,-150.94 712.8,-137.18"/>
<polygon fill="midnightblue" stroke="midnightblue" points="796.75,-231.89 806.79,-235.28 801.06,-226.37 796.75,-231.89"/>
</g>
<!-- Node2&#45;&gt;Node11 -->
<g id="edge11" class="edge">
<title>Node2&#45;&gt;Node11</title>
<path fill="none" stroke="midnightblue" d="M837.48,-229.02C847.85,-220.55 860.74,-209.58 871.5,-199 892.89,-177.98 915.56,-150.75 926.62,-137.1"/>
<polygon fill="midnightblue" stroke="midnightblue" points="835.05,-226.48 829.46,-235.47 839.44,-231.93 835.05,-226.48"/>
</g>
<!-- Node12 -->
<g id="node12" class="node">
<title>Node12</title>
<g id="a_node12"><a xlink:href="_a_b_l_fill_inflow_8_h.html" target="_top" xlink:title=" ">
<polygon fill="white" stroke="black" points="774,-179.5 774,-198.5 863,-198.5 863,-179.5 774,-179.5"/>
<text text-anchor="middle" x="818.5" y="-186.5" font-family="Helvetica,sans-Serif" font-size="10.00">ABLFillInflow.H</text>
</a>
</g>
</g>
<!-- Node2&#45;&gt;Node12 -->
<g id="edge12" class="edge">
<title>Node2&#45;&gt;Node12</title>
<path fill="none" stroke="midnightblue" d="M818.5,-224.8C818.5,-215.91 818.5,-205.78 818.5,-198.75"/>
<polygon fill="midnightblue" stroke="midnightblue" points="815,-225.08 818.5,-235.08 822,-225.08 815,-225.08"/>
</g>
<!-- Node4 -->
<g id="node4" class="node">
<title>Node4</title>
<g id="a_node4"><a xlink:href="_a_b_l_forcing_8cpp.html" target="_top" xlink:title=" ">
<polygon fill="white" stroke="black" points="135,-118 135,-137 226,-137 226,-118 135,-118"/>
<text text-anchor="middle" x="180.5" y="-125" font-family="Helvetica,sans-Serif" font-size="10.00">ABLForcing.cpp</text>
</a>
</g>
</g>
<!-- Node3&#45;&gt;Node4 -->
<g id="edge3" class="edge">
<title>Node3&#45;&gt;Node4</title>
<path fill="none" stroke="midnightblue" d="M451.28,-182.85C403.38,-175.24 312.25,-160.03 235.5,-143 227.59,-141.25 219.11,-139.13 211.23,-137.06"/>
<polygon fill="midnightblue" stroke="midnightblue" points="450.95,-186.35 461.38,-184.45 452.05,-179.43 450.95,-186.35"/>
</g>
<!-- Node5 -->
<g id="node5" class="node">
<title>Node5</title>
<g id="a_node5"><a xlink:href="_a_b_l_mean_boussinesq_8cpp.html" target="_top" xlink:title=" ">
<polygon fill="white" stroke="black" points="244.5,-118 244.5,-137 382.5,-137 382.5,-118 244.5,-118"/>
<text text-anchor="middle" x="313.5" y="-125" font-family="Helvetica,sans-Serif" font-size="10.00">ABLMeanBoussinesq.cpp</text>
</a>
</g>
</g>
<!-- Node3&#45;&gt;Node5 -->
<g id="edge4" class="edge">
<title>Node3&#45;&gt;Node5</title>
<path fill="none" stroke="midnightblue" d="M451.75,-176.6C418.58,-165.06 368.04,-147.48 338.13,-137.07"/>
<polygon fill="midnightblue" stroke="midnightblue" points="450.84,-179.99 461.44,-179.98 453.14,-173.38 450.84,-179.99"/>
</g>
<!-- Node6 -->
<g id="node6" class="node">
<title>Node6</title>
<g id="a_node6"><a xlink:href="incflo_8cpp.html" target="_top" xlink:title=" ">
<polygon fill="white" stroke="black" points="401,-118 401,-137 464,-137 464,-118 401,-118"/>
<text text-anchor="middle" x="432.5" y="-125" font-family="Helvetica,sans-Serif" font-size="10.00">incflo.cpp</text>
</a>
</g>
</g>
<!-- Node3&#45;&gt;Node6 -->
<g id="edge5" class="edge">
<title>Node3&#45;&gt;Node6</title>
<path fill="none" stroke="midnightblue" d="M470.23,-171.67C460.42,-160.45 447.81,-146.02 439.94,-137.01"/>
<polygon fill="midnightblue" stroke="midnightblue" points="467.83,-174.25 477.05,-179.48 473.1,-169.64 467.83,-174.25"/>
</g>
<!-- Node7 -->
<g id="node7" class="node">
<title>Node7</title>
<g id="a_node7"><a xlink:href="incflo__apply__nodal__projection_8cpp.html" target="_top" xlink:title=" ">
<polygon fill="white" stroke="black" points="482,-112.5 482,-142.5 589,-142.5 589,-112.5 482,-112.5"/>
<text text-anchor="start" x="490" y="-130.5" font-family="Helvetica,sans-Serif" font-size="10.00">incflo_apply_nodal</text>
<text text-anchor="middle" x="535.5" y="-119.5" font-family="Helvetica,sans-Serif" font-size="10.00">_projection.cpp</text>
</a>
</g>
</g>
<!-- Node3&#45;&gt;Node7 -->
<g id="edge6" class="edge">
<title>Node3&#45;&gt;Node7</title>
<path fill="none" stroke="midnightblue" d="M498.38,-171.81C506.23,-162.65 515.95,-151.3 523.48,-142.52"/>
<polygon fill="midnightblue" stroke="midnightblue" points="495.66,-169.6 491.81,-179.48 500.97,-174.16 495.66,-169.6"/>
</g>
<!-- Node8 -->
<g id="node8" class="node">
<title>Node8</title>
<g id="a_node8"><a xlink:href="init_8cpp.html" target="_top" xlink:title=" ">
<polygon fill="white" stroke="black" points="607,-118 607,-137 660,-137 660,-118 607,-118"/>
<text text-anchor="middle" x="633.5" y="-125" font-family="Helvetica,sans-Serif" font-size="10.00">init.cpp</text>
</a>
</g>
</g>
<!-- Node3&#45;&gt;Node8 -->
<g id="edge7" class="edge">
<title>Node3&#45;&gt;Node8</title>
<path fill="none" stroke="midnightblue" d="M515.63,-175.64C538.34,-166.62 569.84,-154.08 597.5,-143 602.25,-141.1 607.36,-139.04 612.19,-137.1"/>
<polygon fill="midnightblue" stroke="midnightblue" points="514.17,-172.45 506.17,-179.4 516.76,-178.96 514.17,-172.45"/>
</g>
<!-- Node3&#45;&gt;Node9 -->
<g id="edge8" class="edge">
<title>Node3&#45;&gt;Node9</title>
<path fill="none" stroke="midnightblue" d="M517.95,-181.13C555.09,-173.21 616.64,-159.17 668.5,-143 674.03,-141.28 679.91,-139.17 685.36,-137.1"/>
<polygon fill="midnightblue" stroke="midnightblue" points="516.76,-177.81 507.7,-183.3 518.21,-184.66 516.76,-177.81"/>
</g>
<!-- Node10 -->
<g id="node10" class="node">
<title>Node10</title>
<g id="a_node10"><a xlink:href="_a_b_l_wall_function_8cpp.html" target="_top" xlink:title=" ">
<polygon fill="white" stroke="black" points="0,-118 0,-137 117,-137 117,-118 0,-118"/>
<text text-anchor="middle" x="58.5" y="-125" font-family="Helvetica,sans-Serif" font-size="10.00">ABLWallFunction.cpp</text>
</a>
</g>
</g>
<!-- Node3&#45;&gt;Node10 -->
<g id="edge9" class="edge">
<title>Node3&#45;&gt;Node10</title>
<path fill="none" stroke="midnightblue" d="M451.07,-184.81C387.43,-178.51 244.62,-163.31 125.5,-143 115.65,-141.32 105.04,-139.18 95.25,-137.07"/>
<polygon fill="midnightblue" stroke="midnightblue" points="451,-188.32 461.3,-185.81 451.69,-181.35 451,-188.32"/>
</g>
<!-- Node12&#45;&gt;Node11 -->
<g id="edge13" class="edge">
<title>Node12&#45;&gt;Node11</title>
<path fill="none" stroke="midnightblue" d="M843.88,-174.87C866.17,-163.33 897.94,-146.9 917.05,-137.01"/>
<polygon fill="midnightblue" stroke="midnightblue" points="842.25,-171.77 834.98,-179.48 845.47,-177.99 842.25,-171.77"/>
</g>
<!-- Node13 -->
<g id="node13" class="node">
<title>Node13</title>
<g id="a_node13"><a xlink:href="_a_b_l_fill_inflow_8cpp.html" target="_top" xlink:title=" ">
<polygon fill="white" stroke="black" points="752.5,-118 752.5,-137 850.5,-137 850.5,-118 752.5,-118"/>
<text text-anchor="middle" x="801.5" y="-125" font-family="Helvetica,sans-Serif" font-size="10.00">ABLFillInflow.cpp</text>
</a>
</g>
</g>
<!-- Node12&#45;&gt;Node13 -->
<g id="edge14" class="edge">
<title>Node12&#45;&gt;Node13</title>
<path fill="none" stroke="midnightblue" d="M813.26,-169.66C810.15,-158.77 806.35,-145.49 803.93,-137.01"/>
<polygon fill="midnightblue" stroke="midnightblue" points="809.95,-170.82 816.06,-179.48 816.68,-168.9 809.95,-170.82"/>
</g>
<!-- Node19 -->
<g id="node19" class="node">
<title>Node19</title>
<g id="a_node19"><a xlink:href="_line_sampler_8_h.html" target="_top" xlink:title=" ">
<polygon fill="white" stroke="black" points="1134,-179.5 1134,-198.5 1221,-198.5 1221,-179.5 1134,-179.5"/>
<text text-anchor="middle" x="1177.5" y="-186.5" font-family="Helvetica,sans-Serif" font-size="10.00">LineSampler.H</text>
</a>
</g>
</g>
<!-- Node18&#45;&gt;Node19 -->
<g id="edge20" class="edge">
<title>Node18&#45;&gt;Node19</title>
<path fill="none" stroke="midnightblue" d="M1559.04,-235.01C1411.54,-215.47 1372.31,-219.13 1229.5,-199 1226.78,-198.62 1223.98,-198.2 1221.16,-197.76"/>
<polygon fill="midnightblue" stroke="midnightblue" points="1559.01,-238.54 1569.38,-236.4 1559.94,-231.6 1559.01,-238.54"/>
</g>
<!-- Node25 -->
<g id="node25" class="node">
<title>Node25</title>
<g id="a_node25"><a xlink:href="_plane_sampler_8_h.html" target="_top" xlink:title=" ">
<polygon fill="white" stroke="black" points="1386.5,-179.5 1386.5,-198.5 1480.5,-198.5 1480.5,-179.5 1386.5,-179.5"/>
<text text-anchor="middle" x="1433.5" y="-186.5" font-family="Helvetica,sans-Serif" font-size="10.00">PlaneSampler.H</text>
</a>
</g>
</g>
<!-- Node18&#45;&gt;Node25 -->
<g id="edge26" class="edge">
<title>Node18&#45;&gt;Node25</title>
<path fill="none" stroke="midnightblue" d="M1576.97,-232.57C1542.64,-222.38 1493.17,-207.7 1462.2,-198.52"/>
<polygon fill="midnightblue" stroke="midnightblue" points="1576.08,-235.95 1586.66,-235.44 1578.07,-229.24 1576.08,-235.95"/>
</g>
<!-- Node27 -->
<g id="node27" class="node">
<title>Node27</title>
<g id="a_node27"><a xlink:href="_probe_sampler_8_h.html" target="_top" xlink:title=" ">
<polygon fill="white" stroke="black" points="1021,-179.5 1021,-198.5 1116,-198.5 1116,-179.5 1021,-179.5"/>
<text text-anchor="middle" x="1068.5" y="-186.5" font-family="Helvetica,sans-Serif" font-size="10.00">ProbeSampler.H</text>
</a>
</g>
</g>
<!-- Node18&#45;&gt;Node27 -->
<g id="edge28" class="edge">
<title>Node18&#45;&gt;Node27</title>
<path fill="none" stroke="midnightblue" d="M1559.44,-235.1C1365.23,-211.94 1313.88,-222.02 1124.5,-199 1121.76,-198.67 1118.95,-198.3 1116.12,-197.91"/>
<polygon fill="midnightblue" stroke="midnightblue" points="1559.05,-238.58 1569.39,-236.3 1559.89,-231.63 1559.05,-238.58"/>
</g>
<!-- Node29 -->
<g id="node29" class="node">
<title>Node29</title>
<g id="a_node29"><a xlink:href="_sampling_8_h.html" target="_top" xlink:title=" ">
<polygon fill="white" stroke="black" points="1499,-179.5 1499,-198.5 1572,-198.5 1572,-179.5 1499,-179.5"/>
<text text-anchor="middle" x="1535.5" y="-186.5" font-family="Helvetica,sans-Serif" font-size="10.00">Sampling.H</text>
</a>
</g>
</g>
<!-- Node18&#45;&gt;Node29 -->
<g id="edge30" class="edge">
<title>Node18&#45;&gt;Node29</title>
<path fill="none" stroke="midnightblue" d="M1594.2,-229.62C1579.58,-219.76 1560.67,-206.99 1548.32,-198.65"/>
<polygon fill="midnightblue" stroke="midnightblue" points="1592.4,-232.63 1602.65,-235.32 1596.32,-226.83 1592.4,-232.63"/>
</g>
<!-- Node31 -->
<g id="node31" class="node">
<title>Node31</title>
<g id="a_node31"><a xlink:href="_sampling_container_8cpp.html" target="_top" xlink:title=" ">
<polygon fill="white" stroke="black" points="1239,-179.5 1239,-198.5 1368,-198.5 1368,-179.5 1239,-179.5"/>
<text text-anchor="middle" x="1303.5" y="-186.5" font-family="Helvetica,sans-Serif" font-size="10.00">SamplingContainer.cpp</text>
</a>
</g>
</g>
<!-- Node18&#45;&gt;Node31 -->
<g id="edge32" class="edge">
<title>Node18&#45;&gt;Node31</title>
<path fill="none" stroke="midnightblue" d="M1559.6,-234.32C1500.76,-224.14 1409.05,-208.27 1352.82,-198.54"/>
<polygon fill="midnightblue" stroke="midnightblue" points="1559.01,-237.78 1569.46,-236.03 1560.21,-230.88 1559.01,-237.78"/>
</g>
<!-- Node32 -->
<g id="node32" class="node">
<title>Node32</title>
<g id="a_node32"><a xlink:href="_a_b_l_stats_8_h.html" target="_top" xlink:title=" ">
<polygon fill="white" stroke="black" points="1590,-179.5 1590,-198.5 1661,-198.5 1661,-179.5 1590,-179.5"/>
<text text-anchor="middle" x="1625.5" y="-186.5" font-family="Helvetica,sans-Serif" font-size="10.00">ABLStats.H</text>
</a>
</g>
</g>
<!-- Node18&#45;&gt;Node32 -->
<g id="edge33" class="edge">
<title>Node18&#45;&gt;Node32</title>
<path fill="none" stroke="midnightblue" d="M1619,-225.1C1620.66,-216.14 1622.56,-205.86 1623.88,-198.75"/>
<polygon fill="midnightblue" stroke="midnightblue" points="1615.53,-224.61 1617.15,-235.08 1622.41,-225.89 1615.53,-224.61"/>
</g>
<!-- Node20 -->
<g id="node20" class="node">
<title>Node20</title>
<g id="a_node20"><a xlink:href="_lidar_sampler_8_h.html" target="_top" xlink:title=" ">
<polygon fill="white" stroke="black" points="1139,-118 1139,-137 1230,-137 1230,-118 1139,-118"/>
<text text-anchor="middle" x="1184.5" y="-125" font-family="Helvetica,sans-Serif" font-size="10.00">LidarSampler.H</text>
</a>
</g>
</g>
<!-- Node19&#45;&gt;Node20 -->
<g id="edge21" class="edge">
<title>Node19&#45;&gt;Node20</title>
<path fill="none" stroke="midnightblue" d="M1179.7,-169.32C1180.97,-158.5 1182.51,-145.4 1183.5,-137.01"/>
<polygon fill="midnightblue" stroke="midnightblue" points="1176.2,-169.13 1178.5,-179.48 1183.15,-169.95 1176.2,-169.13"/>
</g>
<!-- Node24 -->
<g id="node24" class="node">
<title>Node24</title>
<g id="a_node24"><a xlink:href="_line_sampler_8cpp.html" target="_top" xlink:title=" ">
<polygon fill="white" stroke="black" points="1248,-118 1248,-137 1345,-137 1345,-118 1248,-118"/>
<text text-anchor="middle" x="1296.5" y="-125" font-family="Helvetica,sans-Serif" font-size="10.00">LineSampler.cpp</text>
</a>
</g>
</g>
<!-- Node19&#45;&gt;Node24 -->
<g id="edge25" class="edge">
<title>Node19&#45;&gt;Node24</title>
<path fill="none" stroke="midnightblue" d="M1203.77,-174.87C1226.83,-163.33 1259.7,-146.9 1279.48,-137.01"/>
<polygon fill="midnightblue" stroke="midnightblue" points="1201.93,-171.87 1194.55,-179.48 1205.06,-178.13 1201.93,-171.87"/>
</g>
<!-- Node21 -->
<g id="node21" class="node">
<title>Node21</title>
<g id="a_node21"><a xlink:href="_d_t_u_spinner_sampler_8_h.html" target="_top" xlink:title=" ">
<polygon fill="white" stroke="black" points="1056,-56.5 1056,-75.5 1181,-75.5 1181,-56.5 1056,-56.5"/>
<text text-anchor="middle" x="1118.5" y="-63.5" font-family="Helvetica,sans-Serif" font-size="10.00">DTUSpinnerSampler.H</text>
</a>
</g>
</g>
<!-- Node20&#45;&gt;Node21 -->
<g id="edge22" class="edge">
<title>Node20&#45;&gt;Node21</title>
<path fill="none" stroke="midnightblue" d="M1167.47,-111.15C1154.89,-99.81 1138.22,-84.78 1127.94,-75.51"/>
<polygon fill="midnightblue" stroke="midnightblue" points="1165.27,-113.88 1175.04,-117.98 1169.96,-108.68 1165.27,-113.88"/>
</g>
<!-- Node23 -->
<g id="node23" class="node">
<title>Node23</title>
<g id="a_node23"><a xlink:href="_lidar_sampler_8cpp.html" target="_top" xlink:title=" ">
<polygon fill="white" stroke="black" points="1199,-56.5 1199,-75.5 1300,-75.5 1300,-56.5 1199,-56.5"/>
<text text-anchor="middle" x="1249.5" y="-63.5" font-family="Helvetica,sans-Serif" font-size="10.00">LidarSampler.cpp</text>
</a>
</g>
</g>
<!-- Node20&#45;&gt;Node23 -->
<g id="edge24" class="edge">
<title>Node20&#45;&gt;Node23</title>
<path fill="none" stroke="midnightblue" d="M1201.27,-111.15C1213.66,-99.81 1230.08,-84.78 1240.2,-75.51"/>
<polygon fill="midnightblue" stroke="midnightblue" points="1198.83,-108.64 1193.81,-117.98 1203.55,-113.8 1198.83,-108.64"/>
</g>
<!-- Node22 -->
<g id="node22" class="node">
<title>Node22</title>
<g id="a_node22"><a xlink:href="_d_t_u_spinner_sampler_8cpp.html" target="_top" xlink:title=" ">
<polygon fill="white" stroke="black" points="1051.5,-0.5 1051.5,-19.5 1185.5,-19.5 1185.5,-0.5 1051.5,-0.5"/>
<text text-anchor="middle" x="1118.5" y="-7.5" font-family="Helvetica,sans-Serif" font-size="10.00">DTUSpinnerSampler.cpp</text>
</a>
</g>
</g>
<!-- Node21&#45;&gt;Node22 -->
<g id="edge23" class="edge">
<title>Node21&#45;&gt;Node22</title>
<path fill="none" stroke="midnightblue" d="M1118.5,-45.8C1118.5,-36.91 1118.5,-26.78 1118.5,-19.75"/>
<polygon fill="midnightblue" stroke="midnightblue" points="1115,-46.08 1118.5,-56.08 1122,-46.08 1115,-46.08"/>
</g>
<!-- Node26 -->
<g id="node26" class="node">
<title>Node26</title>
<g id="a_node26"><a xlink:href="_plane_sampler_8cpp.html" target="_top" xlink:title=" ">
<polygon fill="white" stroke="black" points="1381.5,-118 1381.5,-137 1485.5,-137 1485.5,-118 1381.5,-118"/>
<text text-anchor="middle" x="1433.5" y="-125" font-family="Helvetica,sans-Serif" font-size="10.00">PlaneSampler.cpp</text>
</a>
</g>
</g>
<!-- Node25&#45;&gt;Node26 -->
<g id="edge27" class="edge">
<title>Node25&#45;&gt;Node26</title>
<path fill="none" stroke="midnightblue" d="M1433.5,-169.32C1433.5,-158.5 1433.5,-145.4 1433.5,-137.01"/>
<polygon fill="midnightblue" stroke="midnightblue" points="1430,-169.48 1433.5,-179.48 1437,-169.48 1430,-169.48"/>
</g>
<!-- Node28 -->
<g id="node28" class="node">
<title>Node28</title>
<g id="a_node28"><a xlink:href="_probe_sampler_8cpp.html" target="_top" xlink:title=" ">
<polygon fill="white" stroke="black" points="1016.5,-118 1016.5,-137 1120.5,-137 1120.5,-118 1016.5,-118"/>
<text text-anchor="middle" x="1068.5" y="-125" font-family="Helvetica,sans-Serif" font-size="10.00">ProbeSampler.cpp</text>
</a>
</g>
</g>
<!-- Node27&#45;&gt;Node28 -->
<g id="edge29" class="edge">
<title>Node27&#45;&gt;Node28</title>
<path fill="none" stroke="midnightblue" d="M1068.5,-169.32C1068.5,-158.5 1068.5,-145.4 1068.5,-137.01"/>
<polygon fill="midnightblue" stroke="midnightblue" points="1065,-169.48 1068.5,-179.48 1072,-169.48 1065,-169.48"/>
</g>
<!-- Node29&#45;&gt;Node30 -->
<g id="edge31" class="edge">
<title>Node29&#45;&gt;Node30</title>
<path fill="none" stroke="midnightblue" d="M1544.7,-170.33C1550.44,-159.33 1557.56,-145.66 1562.07,-137.01"/>
<polygon fill="midnightblue" stroke="midnightblue" points="1541.46,-168.99 1539.94,-179.48 1547.67,-172.22 1541.46,-168.99"/>
</g>
<!-- Node32&#45;&gt;Node33 -->
<g id="edge34" class="edge">
<title>Node32&#45;&gt;Node33</title>
<path fill="none" stroke="midnightblue" d="M1645.77,-173.29C1661.5,-161.88 1682.75,-146.46 1695.77,-137.01"/>
<polygon fill="midnightblue" stroke="midnightblue" points="1643.29,-170.77 1637.25,-179.48 1647.4,-176.43 1643.29,-170.77"/>
</g>
</g>
</svg>
        <g id="navigator" transform="translate(0 0)" fill="#404254">
                <rect fill="#f2f5e9" fill-opacity="0.5" stroke="#606060" stroke-width=".5" x="0" y="0" width="60" height="60"/>
                <use id="zoomplus" xlink:href="#zoomPlus" x="17" y="9" onmousedown="handleZoom(evt,'in')"/>
                <use id="zoomminus" xlink:href="#zoomMin" x="42" y="9" onmousedown="handleZoom(evt,'out')"/>
                <use id="reset" xlink:href="#resetDef" x="30" y="36" onmousedown="handleReset()"/>
                <g id="arrowUp" xlink:href="#dirArrow" transform="translate(30 24)" onmousedown="handlePan(0,-1)">
                  <use xlink:href="#rim" fill="#404040">
                        <set attributeName="fill" to="#808080" begin="arrowUp.mouseover" end="arrowUp.mouseout"/>
                  </use>
                  <path fill="none" stroke="white" stroke-width="1.5" d="M0,-3.0v7 M-2.5,-0.5L0,-3.0L2.5,-0.5"/>
                </g>
                <g id="arrowRight" xlink:href="#dirArrow" transform="rotate(90) translate(36 -43)" onmousedown="handlePan(1,0)">
                  <use xlink:href="#rim" fill="#404040">
                        <set attributeName="fill" to="#808080" begin="arrowRight.mouseover" end="arrowRight.mouseout"/>
                  </use>
                  <path fill="none" stroke="white" stroke-width="1.5" d="M0,-3.0v7 M-2.5,-0.5L0,-3.0L2.5,-0.5"/>
                </g>
                <g id="arrowDown" xlink:href="#dirArrow" transform="rotate(180) translate(-30 -48)" onmousedown="handlePan(0,1)">
                  <use xlink:href="#rim" fill="#404040">
                        <set attributeName="fill" to="#808080" begin="arrowDown.mouseover" end="arrowDown.mouseout"/>
                  </use>
                  <path fill="none" stroke="white" stroke-width="1.5" d="M0,-3.0v7 M-2.5,-0.5L0,-3.0L2.5,-0.5"/>
                </g>
                <g id="arrowLeft" xlink:href="#dirArrow" transform="rotate(270) translate(-36 17)" onmousedown="handlePan(-1,0)">
                  <use xlink:href="#rim" fill="#404040">
                        <set attributeName="fill" to="#808080" begin="arrowLeft.mouseover" end="arrowLeft.mouseout"/>
                  </use>
                  <path fill="none" stroke="white" stroke-width="1.5" d="M0,-3.0v7 M-2.5,-0.5L0,-3.0L2.5,-0.5"/>
                </g>
        </g>
        <svg viewBox="0 0 15 15" width="100%" height="30px" preserveAspectRatio="xMaxYMin meet">
         <g id="arrow_out" transform="scale(0.3 0.3)">
          <a xlink:href="nc__interface_8_h__dep__incl_org.svg" target="_base">
           <rect id="button" ry="5" rx="5" y="6" x="6" height="38" width="38"
                fill="#f2f5e9" fill-opacity="0.5" stroke="#606060" stroke-width="1.0"/>
           <path id="arrow"
             d="M 11.500037,31.436501 C 11.940474,20.09759 22.043105,11.32322 32.158766,21.979434 L 37.068811,17.246167 C 37.068811,17.246167 37.088388,32 37.088388,32 L 22.160133,31.978069 C 22.160133,31.978069 26.997745,27.140456 26.997745,27.140456 C 18.528582,18.264221 13.291696,25.230495 11.500037,31.436501 z"
             style="fill:#404040;"/>
          </a>
         </g>
        </svg>
</svg>
