<?xml version="1.0" encoding="UTF-8" standalone="no"?>
<!DOCTYPE svg PUBLIC "-//W3C//DTD SVG 1.1//EN"
 "http://www.w3.org/Graphics/SVG/1.1/DTD/svg11.dtd">
<!-- Generated by graphviz version 2.43.0 (0)
 -->
<!-- Title: amr_wind::actuator::TurbineFastData Pages: 1 -->
<!--zoomable 548 -->
<svg id="main" version="1.1" xmlns="http://www.w3.org/2000/svg" xmlns:xlink="http://www.w3.org/1999/xlink" xml:space="preserve" onload="init(evt)">
<style type="text/css"><![CDATA[
.edge:hover path { stroke: red; }
.edge:hover polygon { stroke: red; fill: red; }
]]></style>
<script type="text/javascript"><![CDATA[
var edges = document.getElementsByTagName('g');
if (edges && edges.length) {
  for (var i=0;i<edges.length;i++) {
    if (edges[i].id.substr(0,4)=='edge') {
      edges[i].setAttribute('class','edge');
    }
  }
}
]]></script>
        <defs>
                <circle id="rim" cx="0" cy="0" r="7"/>
                <circle id="rim2" cx="0" cy="0" r="3.5"/>
                <g id="zoomPlus">
                        <use xlink:href="#rim" fill="#404040">
                                <set attributeName="fill" to="#808080" begin="zoomplus.mouseover" end="zoomplus.mouseout"/>
                        </use>
                        <path d="M-4,0h8M0,-4v8" fill="none" stroke="white" stroke-width="1.5" pointer-events="none"/>
                </g>
                <g id="zoomMin">
                        <use xlink:href="#rim" fill="#404040">
                                <set attributeName="fill" to="#808080" begin="zoomminus.mouseover" end="zoomminus.mouseout"/>
                        </use>
                        <path d="M-4,0h8" fill="none" stroke="white" stroke-width="1.5" pointer-events="none"/>
                </g>
                <g id="dirArrow">
                        <path fill="none" stroke="white" stroke-width="1.5" d="M0,-3.0v7 M-2.5,-0.5L0,-3.0L2.5,-0.5"/>
                </g>
               <g id="resetDef">
                       <use xlink:href="#rim2" fill="#404040">
                               <set attributeName="fill" to="#808080" begin="reset.mouseover" end="reset.mouseout"/>
                       </use>
               </g>
        </defs>

<script type="text/javascript">
var viewWidth = 1600;
var viewHeight = 548;
var sectionId = 'dynsection-1';
</script>
<script xlink:href="svgpan.js"/>
<svg id="graph" class="graph">
<g id="viewport">
<title>amr_wind::actuator::TurbineFastData</title>
<polygon fill="white" stroke="transparent" points="-4,4 -4,-544 1596,-544 1596,4 -4,4"/>
<!-- Node1 -->
<g id="node1" class="node">
<title>Node1</title>
<g id="a_node1"><a xlink:title=" ">
<polygon fill="#bfbfbf" stroke="black" points="1481,-210.5 1481,-240.5 1592,-240.5 1592,-210.5 1481,-210.5"/>
<text text-anchor="start" x="1489" y="-228.5" font-family="Helvetica,sans-Serif" font-size="10.00">amr_wind::actuator</text>
<text text-anchor="middle" x="1536.5" y="-217.5" font-family="Helvetica,sans-Serif" font-size="10.00">::TurbineFastData</text>
</a>
</g>
</g>
<!-- Node2 -->
<g id="node2" class="node">
<title>Node2</title>
<g id="a_node2"><a xlink:href="structamr__wind_1_1actuator_1_1_turbine_base_data.html" target="_top" xlink:title=" ">
<polygon fill="white" stroke="black" points="1312,-371.5 1312,-401.5 1423,-401.5 1423,-371.5 1312,-371.5"/>
<text text-anchor="start" x="1320" y="-389.5" font-family="Helvetica,sans-Serif" font-size="10.00">amr_wind::actuator</text>
<text text-anchor="middle" x="1367.5" y="-378.5" font-family="Helvetica,sans-Serif" font-size="10.00">::TurbineBaseData</text>
</a>
</g>
</g>
<!-- Node2&#45;&gt;Node1 -->
<g id="edge1" class="edge">
<title>Node2&#45;&gt;Node1</title>
<path fill="none" stroke="midnightblue" d="M1391.49,-364.34C1425.94,-331.13 1490.06,-269.31 1519.71,-240.72"/>
<polygon fill="midnightblue" stroke="midnightblue" points="1388.98,-361.89 1384.21,-371.35 1393.84,-366.93 1388.98,-361.89"/>
</g>
<!-- Node3 -->
<g id="node3" class="node">
<title>Node3</title>
<g id="a_node3"><a xlink:title=" ">
<polygon fill="white" stroke="#bfbfbf" points="1035,-454.5 1035,-484.5 1196,-484.5 1196,-454.5 1035,-454.5"/>
<text text-anchor="start" x="1043" y="-472.5" font-family="Helvetica,sans-Serif" font-size="10.00">std::vector&lt; amr_wind</text>
<text text-anchor="middle" x="1115.5" y="-461.5" font-family="Helvetica,sans-Serif" font-size="10.00">::actuator::ComponentView &gt;</text>
</a>
</g>
</g>
<!-- Node3&#45;&gt;Node2 -->
<g id="edge2" class="edge">
<title>Node3&#45;&gt;Node2</title>
<path fill="none" stroke="#9a32cd" stroke-dasharray="5,2" d="M1206.15,-453.46C1234.74,-446.98 1266.18,-438.4 1294,-427.5 1311.5,-420.64 1329.92,-410.18 1343.82,-401.53"/>
<polygon fill="#9a32cd" stroke="#9a32cd" points="1205.17,-450.09 1196.16,-455.66 1206.68,-456.92 1205.17,-450.09"/>
<text text-anchor="middle" x="1254" y="-453.5" font-family="Helvetica,sans-Serif" font-size="10.00"> blades</text>
</g>
<!-- Node4 -->
<g id="node4" class="node">
<title>Node4</title>
<g id="a_node4"><a xlink:href="structamr__wind_1_1actuator_1_1_component_view.html" target="_top" xlink:title="Slice of actutator data for components (tower, blade, etc)">
<polygon fill="white" stroke="black" points="743.5,-454.5 743.5,-484.5 854.5,-484.5 854.5,-454.5 743.5,-454.5"/>
<text text-anchor="start" x="751.5" y="-472.5" font-family="Helvetica,sans-Serif" font-size="10.00">amr_wind::actuator</text>
<text text-anchor="middle" x="799" y="-461.5" font-family="Helvetica,sans-Serif" font-size="10.00">::ComponentView</text>
</a>
</g>
</g>
<!-- Node4&#45;&gt;Node2 -->
<g id="edge15" class="edge">
<title>Node4&#45;&gt;Node2</title>
<path fill="none" stroke="#9a32cd" stroke-dasharray="5,2" d="M864.91,-455.3C911.95,-445.38 977.19,-432.37 1035,-423.5 1132.02,-408.62 1245.89,-397.22 1311.77,-391.22"/>
<polygon fill="#9a32cd" stroke="#9a32cd" points="863.91,-451.94 854.86,-457.44 865.36,-458.79 863.91,-451.94"/>
<text text-anchor="middle" x="1115.5" y="-437.5" font-family="Helvetica,sans-Serif" font-size="10.00"> hub</text>
<text text-anchor="middle" x="1115.5" y="-426.5" font-family="Helvetica,sans-Serif" font-size="10.00">tower</text>
</g>
<!-- Node4&#45;&gt;Node3 -->
<g id="edge3" class="edge">
<title>Node4&#45;&gt;Node3</title>
<path fill="none" stroke="#9a32cd" stroke-dasharray="5,2" d="M865.01,-469.5C914.35,-469.5 982.42,-469.5 1035,-469.5"/>
<polygon fill="#9a32cd" stroke="#9a32cd" points="864.78,-466 854.78,-469.5 864.78,-473 864.78,-466"/>
<text text-anchor="middle" x="947.5" y="-472.5" font-family="Helvetica,sans-Serif" font-size="10.00"> elements</text>
</g>
<!-- Node5 -->
<g id="node5" class="node">
<title>Node5</title>
<g id="a_node5"><a xlink:href="structamr__wind_1_1utils_1_1_slice.html" target="_top" xlink:title=" ">
<polygon fill="white" stroke="black" points="450.5,-509.5 450.5,-539.5 571.5,-539.5 571.5,-509.5 450.5,-509.5"/>
<text text-anchor="start" x="458.5" y="-527.5" font-family="Helvetica,sans-Serif" font-size="10.00">amr_wind::utils::Slice</text>
<text text-anchor="middle" x="511" y="-516.5" font-family="Helvetica,sans-Serif" font-size="10.00">&lt; amrex::Real &gt;</text>
</a>
</g>
</g>
<!-- Node5&#45;&gt;Node4 -->
<g id="edge4" class="edge">
<title>Node5&#45;&gt;Node4</title>
<path fill="none" stroke="#9a32cd" stroke-dasharray="5,2" d="M581.69,-511.74C622.11,-504.26 673.97,-494.54 720,-485.5 727.6,-484.01 735.6,-482.4 743.47,-480.81"/>
<polygon fill="#9a32cd" stroke="#9a32cd" points="580.87,-508.33 571.67,-513.59 582.14,-515.21 580.87,-508.33"/>
<text text-anchor="middle" x="663.5" y="-508.5" font-family="Helvetica,sans-Serif" font-size="10.00"> chord</text>
</g>
<!-- Node6 -->
<g id="node6" class="node">
<title>Node6</title>
<g id="a_node6"><a xlink:href="structamr__wind_1_1utils_1_1_slice.html" target="_top" xlink:title=" ">
<polygon fill="white" stroke="black" points="116.5,-482 116.5,-501 265.5,-501 265.5,-482 116.5,-482"/>
<text text-anchor="middle" x="191" y="-489" font-family="Helvetica,sans-Serif" font-size="10.00">amr_wind::utils::Slice&lt; T &gt;</text>
</a>
</g>
</g>
<!-- Node6&#45;&gt;Node5 -->
<g id="edge5" class="edge">
<title>Node6&#45;&gt;Node5</title>
<path fill="none" stroke="orange" stroke-dasharray="5,2" d="M275.82,-500.2C330.76,-505.9 401.24,-513.21 450.47,-518.32"/>
<polygon fill="orange" stroke="orange" points="276.06,-496.7 265.75,-499.15 275.34,-503.67 276.06,-496.7"/>
<text text-anchor="middle" x="350.5" y="-516.5" font-family="Helvetica,sans-Serif" font-size="10.00"> &lt; amrex::Real &gt;</text>
</g>
<!-- Node7 -->
<g id="node7" class="node">
<title>Node7</title>
<g id="a_node7"><a xlink:href="structamr__wind_1_1utils_1_1_slice.html" target="_top" xlink:title=" ">
<polygon fill="white" stroke="black" points="440,-456.5 440,-486.5 582,-486.5 582,-456.5 440,-456.5"/>
<text text-anchor="start" x="448" y="-474.5" font-family="Helvetica,sans-Serif" font-size="10.00">amr_wind::utils::Slice</text>
<text text-anchor="middle" x="511" y="-463.5" font-family="Helvetica,sans-Serif" font-size="10.00">&lt; amr_wind::vs::Tensor &gt;</text>
</a>
</g>
</g>
<!-- Node6&#45;&gt;Node7 -->
<g id="edge8" class="edge">
<title>Node6&#45;&gt;Node7</title>
<path fill="none" stroke="orange" stroke-dasharray="5,2" d="M275.79,-486.23C326.92,-483.01 391.52,-478.95 439.92,-475.91"/>
<polygon fill="orange" stroke="orange" points="275.52,-482.74 265.75,-486.86 275.95,-489.73 275.52,-482.74"/>
<text text-anchor="middle" x="350.5" y="-487.5" font-family="Helvetica,sans-Serif" font-size="10.00"> &lt; amr_wind::vs::Tensor &gt;</text>
</g>
<!-- Node9 -->
<g id="node9" class="node">
<title>Node9</title>
<g id="a_node9"><a xlink:href="structamr__wind_1_1utils_1_1_slice.html" target="_top" xlink:title=" ">
<polygon fill="white" stroke="black" points="440.5,-367.5 440.5,-397.5 581.5,-397.5 581.5,-367.5 440.5,-367.5"/>
<text text-anchor="start" x="448.5" y="-385.5" font-family="Helvetica,sans-Serif" font-size="10.00">amr_wind::utils::Slice</text>
<text text-anchor="middle" x="511" y="-374.5" font-family="Helvetica,sans-Serif" font-size="10.00">&lt; amr_wind::vs::Vector &gt;</text>
</a>
</g>
</g>
<!-- Node6&#45;&gt;Node9 -->
<g id="edge12" class="edge">
<title>Node6&#45;&gt;Node9</title>
<path fill="none" stroke="orange" stroke-dasharray="5,2" d="M230.18,-478.84C247.17,-473.43 267.48,-467.28 286,-462.5 342.71,-447.85 360.13,-456 415,-435.5 441.18,-425.72 468.84,-409.53 487.52,-397.62"/>
<polygon fill="orange" stroke="orange" points="229.05,-475.53 220.6,-481.92 231.19,-482.19 229.05,-475.53"/>
<text text-anchor="middle" x="350.5" y="-465.5" font-family="Helvetica,sans-Serif" font-size="10.00"> &lt; amr_wind::vs::Vector &gt;</text>
</g>
<!-- Node7&#45;&gt;Node4 -->
<g id="edge6" class="edge">
<title>Node7&#45;&gt;Node4</title>
<path fill="none" stroke="#9a32cd" stroke-dasharray="5,2" d="M592.41,-470.94C640.56,-470.6 700.5,-470.18 743.21,-469.88"/>
<polygon fill="#9a32cd" stroke="#9a32cd" points="592.31,-467.44 582.33,-471.01 592.35,-474.44 592.31,-467.44"/>
<text text-anchor="middle" x="663.5" y="-473.5" font-family="Helvetica,sans-Serif" font-size="10.00"> orientation</text>
</g>
<!-- Node8 -->
<g id="node8" class="node">
<title>Node8</title>
<g id="a_node8"><a xlink:href="structamr__wind_1_1vs_1_1_tensor_t.html" target="_top" xlink:title="Tensor in 3D vector space.">
<polygon fill="white" stroke="black" points="114,-403 114,-422 268,-422 268,-403 114,-403"/>
<text text-anchor="middle" x="191" y="-410" font-family="Helvetica,sans-Serif" font-size="10.00">amr_wind::vs::TensorT&lt; T &gt;</text>
</a>
</g>
</g>
<!-- Node8&#45;&gt;Node7 -->
<g id="edge7" class="edge">
<title>Node8&#45;&gt;Node7</title>
<path fill="none" stroke="#9a32cd" stroke-dasharray="5,2" d="M275.97,-402.32C318.41,-399.81 370.26,-400.81 415,-413.5 444.56,-421.88 474.05,-442.23 492.15,-456.44"/>
<polygon fill="#9a32cd" stroke="#9a32cd" points="275.7,-398.83 265.95,-402.99 276.16,-405.82 275.7,-398.83"/>
<text text-anchor="middle" x="350.5" y="-427.5" font-family="Helvetica,sans-Serif" font-size="10.00"> ptr_begin</text>
<text text-anchor="middle" x="350.5" y="-416.5" font-family="Helvetica,sans-Serif" font-size="10.00">ptr_end</text>
</g>
<!-- Node9&#45;&gt;Node4 -->
<g id="edge9" class="edge">
<title>Node9&#45;&gt;Node4</title>
<path fill="none" stroke="#9a32cd" stroke-dasharray="5,2" d="M591.88,-377.24C631.83,-377.5 680.05,-382.3 720,-399.5 747.91,-411.51 772.6,-437.64 786.39,-454.36"/>
<polygon fill="#9a32cd" stroke="#9a32cd" points="591.63,-373.74 581.64,-377.27 591.65,-380.74 591.63,-373.74"/>
<text text-anchor="middle" x="663.5" y="-457.5" font-family="Helvetica,sans-Serif" font-size="10.00"> vel_rel</text>
<text text-anchor="middle" x="663.5" y="-446.5" font-family="Helvetica,sans-Serif" font-size="10.00">vel_pos</text>
<text text-anchor="middle" x="663.5" y="-435.5" font-family="Helvetica,sans-Serif" font-size="10.00">force</text>
<text text-anchor="middle" x="663.5" y="-424.5" font-family="Helvetica,sans-Serif" font-size="10.00">vel</text>
<text text-anchor="middle" x="663.5" y="-413.5" font-family="Helvetica,sans-Serif" font-size="10.00">epsilon</text>
<text text-anchor="middle" x="663.5" y="-402.5" font-family="Helvetica,sans-Serif" font-size="10.00">pos</text>
</g>
<!-- Node10 -->
<g id="node10" class="node">
<title>Node10</title>
<g id="a_node10"><a xlink:href="structamr__wind_1_1vs_1_1_vector_t.html" target="_top" xlink:title="Vector in 3D space.">
<polygon fill="white" stroke="black" points="114.5,-360 114.5,-379 267.5,-379 267.5,-360 114.5,-360"/>
<text text-anchor="middle" x="191" y="-367" font-family="Helvetica,sans-Serif" font-size="10.00">amr_wind::vs::VectorT&lt; T &gt;</text>
</a>
</g>
</g>
<!-- Node10&#45;&gt;Node9 -->
<g id="edge10" class="edge">
<title>Node10&#45;&gt;Node9</title>
<path fill="none" stroke="#9a32cd" stroke-dasharray="5,2" d="M277.78,-366.01C319.28,-365.11 369.79,-365.19 415,-368.5 423.23,-369.1 431.83,-370 440.35,-371.05"/>
<polygon fill="#9a32cd" stroke="#9a32cd" points="277.62,-362.51 267.71,-366.25 277.79,-369.51 277.62,-362.51"/>
<text text-anchor="middle" x="350.5" y="-382.5" font-family="Helvetica,sans-Serif" font-size="10.00"> ptr_begin</text>
<text text-anchor="middle" x="350.5" y="-371.5" font-family="Helvetica,sans-Serif" font-size="10.00">ptr_end</text>
</g>
<!-- Node11 -->
<g id="node11" class="node">
<title>Node11</title>
<g id="a_node11"><a xlink:title=" ">
<polygon fill="white" stroke="#bfbfbf" points="0,-322 0,-341 29,-341 29,-322 0,-322"/>
<text text-anchor="middle" x="14.5" y="-329" font-family="Helvetica,sans-Serif" font-size="10.00">T</text>
</a>
</g>
</g>
<!-- Node11&#45;&gt;Node10 -->
<g id="edge11" class="edge">
<title>Node11&#45;&gt;Node10</title>
<path fill="none" stroke="#9a32cd" stroke-dasharray="5,2" d="M38.4,-341.63C41.26,-342.69 44.18,-343.68 47,-344.5 69.51,-351.03 94.54,-356.11 117.28,-359.94"/>
<polygon fill="#9a32cd" stroke="#9a32cd" points="39.65,-338.36 29.07,-337.86 37.03,-344.85 39.65,-338.36"/>
<text text-anchor="middle" x="71.5" y="-358.5" font-family="Helvetica,sans-Serif" font-size="10.00"> vv</text>
</g>
<!-- Node12 -->
<g id="node12" class="node">
<title>Node12</title>
<g id="a_node12"><a xlink:title="STL class.">
<polygon fill="white" stroke="#bfbfbf" points="750.5,-322 750.5,-341 847.5,-341 847.5,-322 750.5,-322"/>
<text text-anchor="middle" x="799" y="-329" font-family="Helvetica,sans-Serif" font-size="10.00">std::vector&lt; T &gt;</text>
</a>
</g>
</g>
<!-- Node11&#45;&gt;Node12 -->
<g id="edge14" class="edge">
<title>Node11&#45;&gt;Node12</title>
<path fill="none" stroke="#9a32cd" stroke-dasharray="5,2" d="M39.35,-331.5C148.47,-331.5 601.29,-331.5 750.26,-331.5"/>
<polygon fill="#9a32cd" stroke="#9a32cd" points="39.08,-328 29.08,-331.5 39.08,-335 39.08,-328"/>
<text text-anchor="middle" x="350.5" y="-334.5" font-family="Helvetica,sans-Serif" font-size="10.00"> elements</text>
</g>
<!-- Node18 -->
<g id="node18" class="node">
<title>Node18</title>
<g id="a_node18"><a xlink:title="STL class.">
<polygon fill="white" stroke="#bfbfbf" points="140.5,-68 140.5,-87 241.5,-87 241.5,-68 140.5,-68"/>
<text text-anchor="middle" x="191" y="-75" font-family="Helvetica,sans-Serif" font-size="10.00">std::map&lt; K, T &gt;</text>
</a>
</g>
</g>
<!-- Node11&#45;&gt;Node18 -->
<g id="edge24" class="edge">
<title>Node11&#45;&gt;Node18</title>
<path fill="none" stroke="#9a32cd" stroke-dasharray="5,2" d="M18.12,-311.75C25.11,-267.1 48.35,-157.73 114,-99.5 121.4,-92.94 130.65,-88.33 140.12,-85.09"/>
<polygon fill="#9a32cd" stroke="#9a32cd" points="14.63,-311.47 16.65,-321.87 21.55,-312.47 14.63,-311.47"/>
<text text-anchor="middle" x="71.5" y="-203.5" font-family="Helvetica,sans-Serif" font-size="10.00"> elements</text>
</g>
<!-- Node12&#45;&gt;Node3 -->
<g id="edge13" class="edge">
<title>Node12&#45;&gt;Node3</title>
<path fill="none" stroke="orange" stroke-dasharray="5,2" d="M828.83,-345.54C872.87,-366.81 959.7,-408.03 1035,-439.5 1047.25,-444.62 1060.71,-449.85 1073.02,-454.47"/>
<polygon fill="orange" stroke="orange" points="830.13,-342.28 819.6,-341.07 827.08,-348.58 830.13,-342.28"/>
<text text-anchor="start" x="893" y="-444.5" font-family="Helvetica,sans-Serif" font-size="10.00"> &lt; amr_wind::actuator</text>
<text text-anchor="middle" x="947.5" y="-433.5" font-family="Helvetica,sans-Serif" font-size="10.00">::ComponentView &gt;</text>
</g>
<!-- Node13 -->
<g id="node13" class="node">
<title>Node13</title>
<g id="a_node13"><a xlink:title=" ">
<polygon fill="white" stroke="#bfbfbf" points="1051.5,-316.5 1051.5,-346.5 1179.5,-346.5 1179.5,-316.5 1051.5,-316.5"/>
<text text-anchor="start" x="1059.5" y="-334.5" font-family="Helvetica,sans-Serif" font-size="10.00">std::vector&lt; amr_wind</text>
<text text-anchor="middle" x="1115.5" y="-323.5" font-family="Helvetica,sans-Serif" font-size="10.00">::actuator::FLLCData &gt;</text>
</a>
</g>
</g>
<!-- Node12&#45;&gt;Node13 -->
<g id="edge18" class="edge">
<title>Node12&#45;&gt;Node13</title>
<path fill="none" stroke="orange" stroke-dasharray="5,2" d="M858.01,-331.5C912.83,-331.5 994.86,-331.5 1051.32,-331.5"/>
<polygon fill="orange" stroke="orange" points="857.77,-328 847.77,-331.5 857.77,-335 857.77,-328"/>
<text text-anchor="start" x="893" y="-345.5" font-family="Helvetica,sans-Serif" font-size="10.00"> &lt; amr_wind::actuator</text>
<text text-anchor="middle" x="947.5" y="-334.5" font-family="Helvetica,sans-Serif" font-size="10.00">::FLLCData &gt;</text>
</g>
<!-- Node22 -->
<g id="node22" class="node">
<title>Node22</title>
<g id="a_node22"><a xlink:title=" ">
<polygon fill="white" stroke="#bfbfbf" points="1053.5,-166.5 1053.5,-196.5 1177.5,-196.5 1177.5,-166.5 1053.5,-166.5"/>
<text text-anchor="start" x="1061.5" y="-184.5" font-family="Helvetica,sans-Serif" font-size="10.00">std::vector&lt; exw_fast</text>
<text text-anchor="middle" x="1115.5" y="-173.5" font-family="Helvetica,sans-Serif" font-size="10.00">::FastTurbine * &gt;</text>
</a>
</g>
</g>
<!-- Node12&#45;&gt;Node22 -->
<g id="edge34" class="edge">
<title>Node12&#45;&gt;Node22</title>
<path fill="none" stroke="orange" stroke-dasharray="5,2" d="M857.64,-320.1C912.28,-308.67 989.91,-290.65 1017,-275.5 1053.53,-255.07 1086.4,-217.61 1103.04,-196.67"/>
<polygon fill="orange" stroke="orange" points="856.81,-316.7 847.72,-322.15 858.23,-323.55 856.81,-316.7"/>
<text text-anchor="middle" x="947.5" y="-317.5" font-family="Helvetica,sans-Serif" font-size="10.00"> &lt; exw_fast::FastTurbine * &gt;</text>
</g>
<!-- Node13&#45;&gt;Node2 -->
<g id="edge16" class="edge">
<title>Node13&#45;&gt;Node2</title>
<path fill="none" stroke="#9a32cd" stroke-dasharray="5,2" d="M1189.85,-347.64C1228.91,-356.23 1276.13,-366.62 1311.93,-374.49"/>
<polygon fill="#9a32cd" stroke="#9a32cd" points="1190.1,-344.11 1179.59,-345.38 1188.6,-350.95 1190.1,-344.11"/>
<text text-anchor="middle" x="1254" y="-372.5" font-family="Helvetica,sans-Serif" font-size="10.00"> fllc</text>
</g>
<!-- Node14 -->
<g id="node14" class="node">
<title>Node14</title>
<g id="a_node14"><a xlink:href="structamr__wind_1_1actuator_1_1_f_l_l_c_data.html" target="_top" xlink:title=" ">
<polygon fill="white" stroke="black" points="743.5,-248.5 743.5,-278.5 854.5,-278.5 854.5,-248.5 743.5,-248.5"/>
<text text-anchor="start" x="751.5" y="-266.5" font-family="Helvetica,sans-Serif" font-size="10.00">amr_wind::actuator</text>
<text text-anchor="middle" x="799" y="-255.5" font-family="Helvetica,sans-Serif" font-size="10.00">::FLLCData</text>
</a>
</g>
</g>
<!-- Node14&#45;&gt;Node13 -->
<g id="edge17" class="edge">
<title>Node14&#45;&gt;Node13</title>
<path fill="none" stroke="#9a32cd" stroke-dasharray="5,2" d="M864.85,-253.98C908.8,-249.88 967.63,-249.05 1017,-264.5 1049.54,-274.68 1080.87,-299.83 1098.89,-316.26"/>
<polygon fill="#9a32cd" stroke="#9a32cd" points="864.46,-250.5 854.87,-254.99 865.17,-257.47 864.46,-250.5"/>
<text text-anchor="middle" x="947.5" y="-267.5" font-family="Helvetica,sans-Serif" font-size="10.00"> elements</text>
</g>
<!-- Node15 -->
<g id="node15" class="node">
<title>Node15</title>
<g id="a_node15"><a xlink:href="classexw__fast_1_1_fast_iface.html" target="_top" xlink:title=" ">
<polygon fill="white" stroke="black" points="1312.5,-88 1312.5,-107 1422.5,-107 1422.5,-88 1312.5,-88"/>
<text text-anchor="middle" x="1367.5" y="-95" font-family="Helvetica,sans-Serif" font-size="10.00">exw_fast::FastIface</text>
</a>
</g>
</g>
<!-- Node15&#45;&gt;Node1 -->
<g id="edge19" class="edge">
<title>Node15&#45;&gt;Node1</title>
<path fill="none" stroke="#9a32cd" stroke-dasharray="5,2" d="M1389.37,-113.5C1421.83,-138.38 1483.98,-186.01 1515.74,-210.36"/>
<polygon fill="#9a32cd" stroke="#9a32cd" points="1391.12,-110.43 1381.05,-107.12 1386.86,-115.98 1391.12,-110.43"/>
<text text-anchor="middle" x="1452" y="-171.5" font-family="Helvetica,sans-Serif" font-size="10.00"> fast</text>
</g>
<!-- Node16 -->
<g id="node16" class="node">
<title>Node16</title>
<g id="a_node16"><a xlink:title=" ">
<polygon fill="white" stroke="#bfbfbf" points="1051,-0.5 1051,-30.5 1180,-30.5 1180,-0.5 1051,-0.5"/>
<text text-anchor="start" x="1059" y="-18.5" font-family="Helvetica,sans-Serif" font-size="10.00">amr_wind::ExtSolver</text>
<text text-anchor="middle" x="1115.5" y="-7.5" font-family="Helvetica,sans-Serif" font-size="10.00">::Register&lt; FastIface &gt;</text>
</a>
</g>
</g>
<!-- Node16&#45;&gt;Node15 -->
<g id="edge20" class="edge">
<title>Node16&#45;&gt;Node15</title>
<path fill="none" stroke="midnightblue" d="M1190.02,-20.38C1222.81,-24.44 1261.32,-31.88 1294,-45.5 1318.59,-55.75 1342.87,-75.7 1356.15,-87.69"/>
<polygon fill="midnightblue" stroke="midnightblue" points="1190.38,-16.9 1180.04,-19.22 1189.57,-23.85 1190.38,-16.9"/>
</g>
<!-- Node17 -->
<g id="node17" class="node">
<title>Node17</title>
<g id="a_node17"><a xlink:title=" ">
<polygon fill="white" stroke="#bfbfbf" points="607,-57 607,-76 720,-76 720,-57 607,-57"/>
<text text-anchor="middle" x="663.5" y="-64" font-family="Helvetica,sans-Serif" font-size="10.00">std::map&lt; int, int &gt;</text>
</a>
</g>
</g>
<!-- Node17&#45;&gt;Node15 -->
<g id="edge21" class="edge">
<title>Node17&#45;&gt;Node15</title>
<path fill="none" stroke="#9a32cd" stroke-dasharray="5,2" d="M730.39,-65.72C772.59,-65.27 828.52,-64.73 878,-64.5 1063.08,-63.63 1110.47,-59.58 1294,-83.5 1303.03,-84.68 1312.62,-86.28 1321.78,-87.98"/>
<polygon fill="#9a32cd" stroke="#9a32cd" points="730.2,-62.23 720.24,-65.84 730.28,-69.22 730.2,-62.23"/>
<text text-anchor="middle" x="947.5" y="-67.5" font-family="Helvetica,sans-Serif" font-size="10.00"> m_turbine_map</text>
</g>
<!-- Node18&#45;&gt;Node17 -->
<g id="edge22" class="edge">
<title>Node18&#45;&gt;Node17</title>
<path fill="none" stroke="orange" stroke-dasharray="5,2" d="M252.15,-76.09C344.01,-73.95 517.93,-69.88 606.95,-67.8"/>
<polygon fill="orange" stroke="orange" points="251.82,-72.6 241.91,-76.33 251.99,-79.6 251.82,-72.6"/>
<text text-anchor="middle" x="350.5" y="-78.5" font-family="Helvetica,sans-Serif" font-size="10.00"> &lt; int, int &gt;</text>
</g>
<!-- Node19 -->
<g id="node19" class="node">
<title>Node19</title>
<g id="a_node19"><a xlink:title=" ">
<polygon fill="white" stroke="#bfbfbf" points="0,-68 0,-87 29,-87 29,-68 0,-68"/>
<text text-anchor="middle" x="14.5" y="-75" font-family="Helvetica,sans-Serif" font-size="10.00">K</text>
</a>
</g>
</g>
<!-- Node19&#45;&gt;Node18 -->
<g id="edge23" class="edge">
<title>Node19&#45;&gt;Node18</title>
<path fill="none" stroke="#9a32cd" stroke-dasharray="5,2" d="M39.54,-77.5C65.39,-77.5 107.21,-77.5 140.21,-77.5"/>
<polygon fill="#9a32cd" stroke="#9a32cd" points="39.19,-74 29.19,-77.5 39.19,-81 39.19,-74"/>
<text text-anchor="middle" x="71.5" y="-80.5" font-family="Helvetica,sans-Serif" font-size="10.00"> keys</text>
</g>
<!-- Node20 -->
<g id="node20" class="node">
<title>Node20</title>
<g id="a_node20"><a xlink:title="STL class.">
<polygon fill="white" stroke="#bfbfbf" points="478.5,-115 478.5,-134 543.5,-134 543.5,-115 478.5,-115"/>
<text text-anchor="middle" x="511" y="-122" font-family="Helvetica,sans-Serif" font-size="10.00">std::string</text>
</a>
</g>
</g>
<!-- Node20&#45;&gt;Node15 -->
<g id="edge25" class="edge">
<title>Node20&#45;&gt;Node15</title>
<path fill="none" stroke="#9a32cd" stroke-dasharray="5,2" d="M554.09,-122.62C570.58,-121.91 589.68,-121.13 607,-120.5 871.32,-110.93 1187.49,-102.24 1312.16,-98.93"/>
<polygon fill="#9a32cd" stroke="#9a32cd" points="553.5,-119.14 543.66,-123.07 553.81,-126.14 553.5,-119.14"/>
<text text-anchor="middle" x="947.5" y="-114.5" font-family="Helvetica,sans-Serif" font-size="10.00"> m_output_dir</text>
</g>
<!-- Node23 -->
<g id="node23" class="node">
<title>Node23</title>
<g id="a_node23"><a xlink:href="structexw__fast_1_1_fast_turbine.html" target="_top" xlink:title="Representation of a turbine for exchanging data with FAST.">
<polygon fill="white" stroke="black" points="738,-210 738,-229 860,-229 860,-210 738,-210"/>
<text text-anchor="middle" x="799" y="-217" font-family="Helvetica,sans-Serif" font-size="10.00">exw_fast::FastTurbine</text>
</a>
</g>
</g>
<!-- Node20&#45;&gt;Node23 -->
<g id="edge32" class="edge">
<title>Node20&#45;&gt;Node23</title>
<path fill="none" stroke="#9a32cd" stroke-dasharray="5,2" d="M553.7,-122.63C597.14,-122.26 666.23,-126.21 720,-150.5 750.65,-164.34 777.94,-194.5 790.57,-209.95"/>
<polygon fill="#9a32cd" stroke="#9a32cd" points="553.44,-119.13 543.5,-122.8 553.56,-126.13 553.44,-119.13"/>
<text text-anchor="middle" x="663.5" y="-175.5" font-family="Helvetica,sans-Serif" font-size="10.00"> tlabel</text>
<text text-anchor="middle" x="663.5" y="-164.5" font-family="Helvetica,sans-Serif" font-size="10.00">input_file</text>
<text text-anchor="middle" x="663.5" y="-153.5" font-family="Helvetica,sans-Serif" font-size="10.00">checkpoint_file</text>
</g>
<!-- Node21 -->
<g id="node21" class="node">
<title>Node21</title>
<g id="a_node21"><a xlink:title="STL class.">
<polygon fill="white" stroke="#bfbfbf" points="139,-109.5 139,-139.5 243,-139.5 243,-109.5 139,-109.5"/>
<text text-anchor="start" x="147" y="-127.5" font-family="Helvetica,sans-Serif" font-size="10.00">std::basic_string&lt;</text>
<text text-anchor="middle" x="191" y="-116.5" font-family="Helvetica,sans-Serif" font-size="10.00"> char &gt;</text>
</a>
</g>
</g>
<!-- Node21&#45;&gt;Node20 -->
<g id="edge26" class="edge">
<title>Node21&#45;&gt;Node20</title>
<path fill="none" stroke="midnightblue" d="M253.14,-124.5C320.44,-124.5 426,-124.5 478.36,-124.5"/>
<polygon fill="midnightblue" stroke="midnightblue" points="253.09,-121 243.09,-124.5 253.09,-128 253.09,-121"/>
</g>
<!-- Node22&#45;&gt;Node15 -->
<g id="edge27" class="edge">
<title>Node22&#45;&gt;Node15</title>
<path fill="none" stroke="#9a32cd" stroke-dasharray="5,2" d="M1170.83,-163.24C1222.31,-145.95 1297.58,-120.66 1338.12,-107.03"/>
<polygon fill="#9a32cd" stroke="#9a32cd" points="1169.56,-159.98 1161.19,-166.48 1171.79,-166.62 1169.56,-159.98"/>
<text text-anchor="middle" x="1254" y="-149.5" font-family="Helvetica,sans-Serif" font-size="10.00"> m_turbine_data</text>
</g>
<!-- Node23&#45;&gt;Node1 -->
<g id="edge35" class="edge">
<title>Node23&#45;&gt;Node1</title>
<path fill="none" stroke="#9a32cd" stroke-dasharray="5,2" d="M870.36,-220.07C1016.26,-221.26 1349.04,-223.98 1480.56,-225.05"/>
<polygon fill="#9a32cd" stroke="#9a32cd" points="870.22,-216.57 860.19,-219.99 870.16,-223.57 870.22,-216.57"/>
<text text-anchor="middle" x="1254" y="-226.5" font-family="Helvetica,sans-Serif" font-size="10.00"> fast_data</text>
</g>
<!-- Node23&#45;&gt;Node22 -->
<g id="edge28" class="edge">
<title>Node23&#45;&gt;Node22</title>
<path fill="none" stroke="#9a32cd" stroke-dasharray="5,2" d="M843.83,-207.53C854.91,-204.86 866.83,-202.3 878,-200.5 937.17,-190.98 1005.48,-186.14 1053.42,-183.74"/>
<polygon fill="#9a32cd" stroke="#9a32cd" points="842.79,-204.18 833.93,-209.99 844.48,-210.98 842.79,-204.18"/>
<text text-anchor="middle" x="947.5" y="-203.5" font-family="Helvetica,sans-Serif" font-size="10.00"> elements</text>
</g>
<!-- Node24 -->
<g id="node24" class="node">
<title>Node24</title>
<g id="a_node24"><a xlink:href="structexw__fast_1_1_op_f_m___output_type.html" target="_top" xlink:title=" ">
<polygon fill="white" stroke="black" points="433,-208 433,-227 589,-227 589,-208 433,-208"/>
<text text-anchor="middle" x="511" y="-215" font-family="Helvetica,sans-Serif" font-size="10.00">exw_fast::OpFM_OutputType</text>
</a>
</g>
</g>
<!-- Node24&#45;&gt;Node23 -->
<g id="edge29" class="edge">
<title>Node24&#45;&gt;Node23</title>
<path fill="none" stroke="#9a32cd" stroke-dasharray="5,2" d="M599.03,-218.11C643.85,-218.42 697.38,-218.8 737.62,-219.08"/>
<polygon fill="#9a32cd" stroke="#9a32cd" points="599.04,-214.61 589.02,-218.04 598.99,-221.61 599.04,-214.61"/>
<text text-anchor="middle" x="663.5" y="-221.5" font-family="Helvetica,sans-Serif" font-size="10.00"> from_cfd</text>
</g>
<!-- Node25 -->
<g id="node25" class="node">
<title>Node25</title>
<g id="a_node25"><a xlink:href="structexw__fast_1_1_s_c___output_type.html" target="_top" xlink:title=" ">
<polygon fill="white" stroke="black" points="441,-170 441,-189 581,-189 581,-170 441,-170"/>
<text text-anchor="middle" x="511" y="-177" font-family="Helvetica,sans-Serif" font-size="10.00">exw_fast::SC_OutputType</text>
</a>
</g>
</g>
<!-- Node25&#45;&gt;Node23 -->
<g id="edge30" class="edge">
<title>Node25&#45;&gt;Node23</title>
<path fill="none" stroke="#9a32cd" stroke-dasharray="5,2" d="M591.32,-186.31C630.23,-190.15 677.71,-195.57 720,-202.5 732.45,-204.54 745.9,-207.28 758.07,-209.96"/>
<polygon fill="#9a32cd" stroke="#9a32cd" points="591.4,-182.8 581.11,-185.32 590.72,-189.77 591.4,-182.8"/>
<text text-anchor="middle" x="663.5" y="-205.5" font-family="Helvetica,sans-Serif" font-size="10.00"> from_sc</text>
</g>
<!-- Node26 -->
<g id="node26" class="node">
<title>Node26</title>
<g id="a_node26"><a xlink:href="structexw__fast_1_1_op_f_m___input_type.html" target="_top" xlink:title=" ">
<polygon fill="white" stroke="black" points="437,-284 437,-303 585,-303 585,-284 437,-284"/>
<text text-anchor="middle" x="511" y="-291" font-family="Helvetica,sans-Serif" font-size="10.00">exw_fast::OpFM_InputType</text>
</a>
</g>
</g>
<!-- Node26&#45;&gt;Node23 -->
<g id="edge31" class="edge">
<title>Node26&#45;&gt;Node23</title>
<path fill="none" stroke="#9a32cd" stroke-dasharray="5,2" d="M595.06,-294.3C635.08,-291.41 682.42,-282.96 720,-261.5 730.97,-255.24 727.6,-246.67 738,-239.5 744.24,-235.2 751.47,-231.77 758.71,-229.04"/>
<polygon fill="#9a32cd" stroke="#9a32cd" points="594.82,-290.81 585.05,-294.92 595.25,-297.79 594.82,-290.81"/>
<text text-anchor="middle" x="663.5" y="-295.5" font-family="Helvetica,sans-Serif" font-size="10.00"> to_cfd</text>
</g>
<!-- Node27 -->
<g id="node27" class="node">
<title>Node27</title>
<g id="a_node27"><a xlink:href="structexw__fast_1_1_s_c___input_type.html" target="_top" xlink:title=" ">
<polygon fill="white" stroke="black" points="445,-246 445,-265 577,-265 577,-246 445,-246"/>
<text text-anchor="middle" x="511" y="-253" font-family="Helvetica,sans-Serif" font-size="10.00">exw_fast::SC_InputType</text>
</a>
</g>
</g>
<!-- Node27&#45;&gt;Node23 -->
<g id="edge33" class="edge">
<title>Node27&#45;&gt;Node23</title>
<path fill="none" stroke="#9a32cd" stroke-dasharray="5,2" d="M587.36,-248.85C626.94,-245.03 676.18,-239.74 720,-233.5 728.99,-232.22 738.53,-230.67 747.74,-229.07"/>
<polygon fill="#9a32cd" stroke="#9a32cd" points="586.88,-245.38 577.26,-249.82 587.55,-252.35 586.88,-245.38"/>
<text text-anchor="middle" x="663.5" y="-249.5" font-family="Helvetica,sans-Serif" font-size="10.00"> to_sc</text>
</g>
</g>
</svg>
        <g id="navigator" transform="translate(0 0)" fill="#404254">
                <rect fill="#f2f5e9" fill-opacity="0.5" stroke="#606060" stroke-width=".5" x="0" y="0" width="60" height="60"/>
                <use id="zoomplus" xlink:href="#zoomPlus" x="17" y="9" onmousedown="handleZoom(evt,'in')"/>
                <use id="zoomminus" xlink:href="#zoomMin" x="42" y="9" onmousedown="handleZoom(evt,'out')"/>
                <use id="reset" xlink:href="#resetDef" x="30" y="36" onmousedown="handleReset()"/>
                <g id="arrowUp" xlink:href="#dirArrow" transform="translate(30 24)" onmousedown="handlePan(0,-1)">
                  <use xlink:href="#rim" fill="#404040">
                        <set attributeName="fill" to="#808080" begin="arrowUp.mouseover" end="arrowUp.mouseout"/>
                  </use>
                  <path fill="none" stroke="white" stroke-width="1.5" d="M0,-3.0v7 M-2.5,-0.5L0,-3.0L2.5,-0.5"/>
                </g>
                <g id="arrowRight" xlink:href="#dirArrow" transform="rotate(90) translate(36 -43)" onmousedown="handlePan(1,0)">
                  <use xlink:href="#rim" fill="#404040">
                        <set attributeName="fill" to="#808080" begin="arrowRight.mouseover" end="arrowRight.mouseout"/>
                  </use>
                  <path fill="none" stroke="white" stroke-width="1.5" d="M0,-3.0v7 M-2.5,-0.5L0,-3.0L2.5,-0.5"/>
                </g>
                <g id="arrowDown" xlink:href="#dirArrow" transform="rotate(180) translate(-30 -48)" onmousedown="handlePan(0,1)">
                  <use xlink:href="#rim" fill="#404040">
                        <set attributeName="fill" to="#808080" begin="arrowDown.mouseover" end="arrowDown.mouseout"/>
                  </use>
                  <path fill="none" stroke="white" stroke-width="1.5" d="M0,-3.0v7 M-2.5,-0.5L0,-3.0L2.5,-0.5"/>
                </g>
                <g id="arrowLeft" xlink:href="#dirArrow" transform="rotate(270) translate(-36 17)" onmousedown="handlePan(-1,0)">
                  <use xlink:href="#rim" fill="#404040">
                        <set attributeName="fill" to="#808080" begin="arrowLeft.mouseover" end="arrowLeft.mouseout"/>
                  </use>
                  <path fill="none" stroke="white" stroke-width="1.5" d="M0,-3.0v7 M-2.5,-0.5L0,-3.0L2.5,-0.5"/>
                </g>
        </g>
        <svg viewBox="0 0 15 15" width="100%" height="30px" preserveAspectRatio="xMaxYMin meet">
         <g id="arrow_out" transform="scale(0.3 0.3)">
          <a xlink:href="structamr__wind_1_1actuator_1_1_turbine_fast_data__coll__graph_org.svg" target="_base">
           <rect id="button" ry="5" rx="5" y="6" x="6" height="38" width="38"
                fill="#f2f5e9" fill-opacity="0.5" stroke="#606060" stroke-width="1.0"/>
           <path id="arrow"
             d="M 11.500037,31.436501 C 11.940474,20.09759 22.043105,11.32322 32.158766,21.979434 L 37.068811,17.246167 C 37.068811,17.246167 37.088388,32 37.088388,32 L 22.160133,31.978069 C 22.160133,31.978069 26.997745,27.140456 26.997745,27.140456 C 18.528582,18.264221 13.291696,25.230495 11.500037,31.436501 z"
             style="fill:#404040;"/>
          </a>
         </g>
        </svg>
</svg>
