<?xml version="1.0" encoding="UTF-8" standalone="no"?>
<!DOCTYPE svg PUBLIC "-//W3C//DTD SVG 1.1//EN"
 "http://www.w3.org/Graphics/SVG/1.1/DTD/svg11.dtd">
<!-- Generated by graphviz version 2.43.0 (0)
 -->
<!-- Title: amr_wind::actuator::WingBaseData Pages: 1 -->
<svg width="1002pt" height="268pt"
 viewBox="0.00 0.00 1002.00 268.00" xmlns="http://www.w3.org/2000/svg" xmlns:xlink="http://www.w3.org/1999/xlink">
<g id="graph0" class="graph" transform="scale(1 1) rotate(0) translate(4 264)">
<title>amr_wind::actuator::WingBaseData</title>
<polygon fill="white" stroke="transparent" points="-4,4 -4,-264 998,-264 998,4 -4,4"/>
<!-- Node1 -->
<g id="node1" class="node">
<title>Node1</title>
<g id="a_node1"><a xlink:title="Base data representation of a fixed&#45;wing.">
<polygon fill="#bfbfbf" stroke="black" points="883,-56 883,-86 994,-86 994,-56 883,-56"/>
<text text-anchor="start" x="891" y="-74" font-family="Helvetica,sans-Serif" font-size="10.00">amr_wind::actuator</text>
<text text-anchor="middle" x="938.5" y="-63" font-family="Helvetica,sans-Serif" font-size="10.00">::WingBaseData</text>
</a>
</g>
</g>
<!-- Node2 -->
<g id="node2" class="node">
<title>Node2</title>
<g id="a_node2"><a xlink:href="structamr__wind_1_1actuator_1_1_component_view.html" target="_top" xlink:title="Slice of actutator data for components (tower, blade, etc)">
<polygon fill="white" stroke="black" points="649,-123 649,-153 760,-153 760,-123 649,-123"/>
<text text-anchor="start" x="657" y="-141" font-family="Helvetica,sans-Serif" font-size="10.00">amr_wind::actuator</text>
<text text-anchor="middle" x="704.5" y="-130" font-family="Helvetica,sans-Serif" font-size="10.00">::ComponentView</text>
</a>
</g>
</g>
<!-- Node2&#45;&gt;Node1 -->
<g id="edge1" class="edge">
<title>Node2&#45;&gt;Node1</title>
<path fill="none" stroke="#9a32cd" stroke-dasharray="5,2" d="M767.19,-120.18C803.99,-109.56 850.21,-96.21 885.21,-86.1"/>
<polygon fill="#9a32cd" stroke="#9a32cd" points="766.2,-116.83 757.57,-122.96 768.14,-123.55 766.2,-116.83"/>
<text text-anchor="middle" x="821.5" y="-119" font-family="Helvetica,sans-Serif" font-size="10.00"> component_view</text>
</g>
<!-- Node3 -->
<g id="node3" class="node">
<title>Node3</title>
<g id="a_node3"><a xlink:href="structamr__wind_1_1utils_1_1_slice.html" target="_top" xlink:title=" ">
<polygon fill="white" stroke="black" points="418,-162 418,-192 539,-192 539,-162 418,-162"/>
<text text-anchor="start" x="426" y="-180" font-family="Helvetica,sans-Serif" font-size="10.00">amr_wind::utils::Slice</text>
<text text-anchor="middle" x="478.5" y="-169" font-family="Helvetica,sans-Serif" font-size="10.00">&lt; amrex::Real &gt;</text>
</a>
</g>
</g>
<!-- Node3&#45;&gt;Node2 -->
<g id="edge2" class="edge">
<title>Node3&#45;&gt;Node2</title>
<path fill="none" stroke="#9a32cd" stroke-dasharray="5,2" d="M549.45,-174.05C575.28,-172.04 604.67,-168.67 631,-163 642.32,-160.56 654.32,-156.89 665.23,-153.11"/>
<polygon fill="#9a32cd" stroke="#9a32cd" points="549.08,-170.57 539.36,-174.78 549.59,-177.55 549.08,-170.57"/>
<text text-anchor="middle" x="602.5" y="-174" font-family="Helvetica,sans-Serif" font-size="10.00"> chord</text>
</g>
<!-- Node4 -->
<g id="node4" class="node">
<title>Node4</title>
<g id="a_node4"><a xlink:href="structamr__wind_1_1utils_1_1_slice.html" target="_top" xlink:title=" ">
<polygon fill="white" stroke="black" points="84.5,-167.5 84.5,-186.5 233.5,-186.5 233.5,-167.5 84.5,-167.5"/>
<text text-anchor="middle" x="159" y="-174.5" font-family="Helvetica,sans-Serif" font-size="10.00">amr_wind::utils::Slice&lt; T &gt;</text>
</a>
</g>
</g>
<!-- Node4&#45;&gt;Node3 -->
<g id="edge3" class="edge">
<title>Node4&#45;&gt;Node3</title>
<path fill="none" stroke="orange" stroke-dasharray="5,2" d="M243.67,-177C298.43,-177 368.66,-177 417.8,-177"/>
<polygon fill="orange" stroke="orange" points="243.64,-173.5 233.64,-177 243.64,-180.5 243.64,-173.5"/>
<text text-anchor="middle" x="318.5" y="-180" font-family="Helvetica,sans-Serif" font-size="10.00"> &lt; amrex::Real &gt;</text>
</g>
<!-- Node5 -->
<g id="node5" class="node">
<title>Node5</title>
<g id="a_node5"><a xlink:href="structamr__wind_1_1utils_1_1_slice.html" target="_top" xlink:title=" ">
<polygon fill="white" stroke="black" points="407.5,-211 407.5,-241 549.5,-241 549.5,-211 407.5,-211"/>
<text text-anchor="start" x="415.5" y="-229" font-family="Helvetica,sans-Serif" font-size="10.00">amr_wind::utils::Slice</text>
<text text-anchor="middle" x="478.5" y="-218" font-family="Helvetica,sans-Serif" font-size="10.00">&lt; amr_wind::vs::Tensor &gt;</text>
</a>
</g>
</g>
<!-- Node4&#45;&gt;Node5 -->
<g id="edge6" class="edge">
<title>Node4&#45;&gt;Node5</title>
<path fill="none" stroke="orange" stroke-dasharray="5,2" d="M231.51,-188.04C284.02,-196.14 355.01,-207.1 407.23,-215.15"/>
<polygon fill="orange" stroke="orange" points="232.01,-184.57 221.59,-186.51 230.94,-191.49 232.01,-184.57"/>
<text text-anchor="middle" x="318.5" y="-213" font-family="Helvetica,sans-Serif" font-size="10.00"> &lt; amr_wind::vs::Tensor &gt;</text>
</g>
<!-- Node7 -->
<g id="node7" class="node">
<title>Node7</title>
<g id="a_node7"><a xlink:href="structamr__wind_1_1utils_1_1_slice.html" target="_top" xlink:title=" ">
<polygon fill="white" stroke="black" points="408,-85 408,-115 549,-115 549,-85 408,-85"/>
<text text-anchor="start" x="416" y="-103" font-family="Helvetica,sans-Serif" font-size="10.00">amr_wind::utils::Slice</text>
<text text-anchor="middle" x="478.5" y="-92" font-family="Helvetica,sans-Serif" font-size="10.00">&lt; amr_wind::vs::Vector &gt;</text>
</a>
</g>
</g>
<!-- Node4&#45;&gt;Node7 -->
<g id="edge10" class="edge">
<title>Node4&#45;&gt;Node7</title>
<path fill="none" stroke="orange" stroke-dasharray="5,2" d="M209.19,-165.07C264.71,-151.61 355.11,-129.68 415.43,-115.05"/>
<polygon fill="orange" stroke="orange" points="208.14,-161.72 199.25,-167.48 209.79,-168.53 208.14,-161.72"/>
<text text-anchor="middle" x="318.5" y="-155" font-family="Helvetica,sans-Serif" font-size="10.00"> &lt; amr_wind::vs::Vector &gt;</text>
</g>
<!-- Node5&#45;&gt;Node2 -->
<g id="edge4" class="edge">
<title>Node5&#45;&gt;Node2</title>
<path fill="none" stroke="#9a32cd" stroke-dasharray="5,2" d="M559.71,-210.02C583.23,-203.96 608.63,-196.03 631,-186 650.42,-177.29 670.44,-163.62 684.51,-153.08"/>
<polygon fill="#9a32cd" stroke="#9a32cd" points="558.62,-206.68 549.76,-212.5 560.31,-213.47 558.62,-206.68"/>
<text text-anchor="middle" x="602.5" y="-209" font-family="Helvetica,sans-Serif" font-size="10.00"> orientation</text>
</g>
<!-- Node6 -->
<g id="node6" class="node">
<title>Node6</title>
<g id="a_node6"><a xlink:href="structamr__wind_1_1vs_1_1_tensor_t.html" target="_top" xlink:title="Tensor in 3D vector space.">
<polygon fill="white" stroke="black" points="82,-235.5 82,-254.5 236,-254.5 236,-235.5 82,-235.5"/>
<text text-anchor="middle" x="159" y="-242.5" font-family="Helvetica,sans-Serif" font-size="10.00">amr_wind::vs::TensorT&lt; T &gt;</text>
</a>
</g>
</g>
<!-- Node6&#45;&gt;Node5 -->
<g id="edge5" class="edge">
<title>Node6&#45;&gt;Node5</title>
<path fill="none" stroke="#9a32cd" stroke-dasharray="5,2" d="M246.32,-239.83C296.92,-236.81 360.01,-233.03 407.5,-230.19"/>
<polygon fill="#9a32cd" stroke="#9a32cd" points="245.82,-236.36 236.05,-240.45 246.24,-243.35 245.82,-236.36"/>
<text text-anchor="middle" x="318.5" y="-252" font-family="Helvetica,sans-Serif" font-size="10.00"> ptr_begin</text>
<text text-anchor="middle" x="318.5" y="-241" font-family="Helvetica,sans-Serif" font-size="10.00">ptr_end</text>
</g>
<!-- Node7&#45;&gt;Node2 -->
<g id="edge7" class="edge">
<title>Node7&#45;&gt;Node2</title>
<path fill="none" stroke="#9a32cd" stroke-dasharray="5,2" d="M559.33,-90.24C582.74,-89.56 608.17,-90.99 631,-97 650.16,-102.04 669.57,-113.43 683.49,-122.93"/>
<polygon fill="#9a32cd" stroke="#9a32cd" points="558.92,-86.76 549.08,-90.68 559.22,-93.75 558.92,-86.76"/>
<text text-anchor="middle" x="602.5" y="-155" font-family="Helvetica,sans-Serif" font-size="10.00"> vel_rel</text>
<text text-anchor="middle" x="602.5" y="-144" font-family="Helvetica,sans-Serif" font-size="10.00">vel_pos</text>
<text text-anchor="middle" x="602.5" y="-133" font-family="Helvetica,sans-Serif" font-size="10.00">force</text>
<text text-anchor="middle" x="602.5" y="-122" font-family="Helvetica,sans-Serif" font-size="10.00">vel</text>
<text text-anchor="middle" x="602.5" y="-111" font-family="Helvetica,sans-Serif" font-size="10.00">epsilon</text>
<text text-anchor="middle" x="602.5" y="-100" font-family="Helvetica,sans-Serif" font-size="10.00">pos</text>
</g>
<!-- Node8 -->
<g id="node8" class="node">
<title>Node8</title>
<g id="a_node8"><a xlink:href="structamr__wind_1_1vs_1_1_vector_t.html" target="_top" xlink:title="Vector in 3D space.">
<polygon fill="white" stroke="black" points="82.5,-88.5 82.5,-107.5 235.5,-107.5 235.5,-88.5 82.5,-88.5"/>
<text text-anchor="middle" x="159" y="-95.5" font-family="Helvetica,sans-Serif" font-size="10.00">amr_wind::vs::VectorT&lt; T &gt;</text>
</a>
</g>
</g>
<!-- Node8&#45;&gt;Node7 -->
<g id="edge8" class="edge">
<title>Node8&#45;&gt;Node7</title>
<path fill="none" stroke="#9a32cd" stroke-dasharray="5,2" d="M245.67,-98.26C287.15,-98.42 337.67,-98.66 383,-99 391.04,-99.06 399.46,-99.13 407.83,-99.21"/>
<polygon fill="#9a32cd" stroke="#9a32cd" points="245.62,-94.76 235.61,-98.22 245.59,-101.76 245.62,-94.76"/>
<text text-anchor="middle" x="318.5" y="-113" font-family="Helvetica,sans-Serif" font-size="10.00"> ptr_begin</text>
<text text-anchor="middle" x="318.5" y="-102" font-family="Helvetica,sans-Serif" font-size="10.00">ptr_end</text>
</g>
<!-- Node9 -->
<g id="node9" class="node">
<title>Node9</title>
<g id="a_node9"><a xlink:title=" ">
<polygon fill="white" stroke="#bfbfbf" points="0,-44.5 0,-63.5 29,-63.5 29,-44.5 0,-44.5"/>
<text text-anchor="middle" x="14.5" y="-51.5" font-family="Helvetica,sans-Serif" font-size="10.00">T</text>
</a>
</g>
</g>
<!-- Node9&#45;&gt;Node8 -->
<g id="edge9" class="edge">
<title>Node9&#45;&gt;Node8</title>
<path fill="none" stroke="#9a32cd" stroke-dasharray="5,2" d="M38.46,-63.37C51.17,-68.37 67.32,-74.42 82,-79 93.04,-82.44 105.12,-85.69 116.34,-88.5"/>
<polygon fill="#9a32cd" stroke="#9a32cd" points="39.68,-60.09 29.1,-59.64 37.08,-66.59 39.68,-60.09"/>
<text text-anchor="middle" x="55.5" y="-75" font-family="Helvetica,sans-Serif" font-size="10.00"> vv</text>
</g>
<!-- Node12 -->
<g id="node12" class="node">
<title>Node12</title>
<g id="a_node12"><a xlink:title="STL class.">
<polygon fill="white" stroke="#bfbfbf" points="100,-0.5 100,-19.5 218,-19.5 218,-0.5 100,-0.5"/>
<text text-anchor="middle" x="159" y="-7.5" font-family="Helvetica,sans-Serif" font-size="10.00">std::unique_ptr&lt; T &gt;</text>
</a>
</g>
</g>
<!-- Node9&#45;&gt;Node12 -->
<g id="edge14" class="edge">
<title>Node9&#45;&gt;Node12</title>
<path fill="none" stroke="#9a32cd" stroke-dasharray="5,2" d="M38.51,-45.12C51.24,-40.36 67.39,-34.55 82,-30 93.98,-26.27 107.17,-22.64 119.15,-19.51"/>
<polygon fill="#9a32cd" stroke="#9a32cd" points="37.25,-41.86 29.13,-48.68 39.73,-48.41 37.25,-41.86"/>
<text text-anchor="middle" x="55.5" y="-44" font-family="Helvetica,sans-Serif" font-size="10.00"> ptr</text>
</g>
<!-- Node10 -->
<g id="node10" class="node">
<title>Node10</title>
<g id="a_node10"><a xlink:title=" ">
<polygon fill="white" stroke="#bfbfbf" points="401,-36 401,-66 556,-66 556,-36 401,-36"/>
<text text-anchor="start" x="409" y="-54" font-family="Helvetica,sans-Serif" font-size="10.00">std::unique_ptr&lt; amr</text>
<text text-anchor="middle" x="478.5" y="-43" font-family="Helvetica,sans-Serif" font-size="10.00">_wind::actuator::FLLCData &gt;</text>
</a>
</g>
</g>
<!-- Node10&#45;&gt;Node1 -->
<g id="edge11" class="edge">
<title>Node10&#45;&gt;Node1</title>
<path fill="none" stroke="#9a32cd" stroke-dasharray="5,2" d="M566.41,-54.8C659.56,-58.86 804.58,-65.2 882.9,-68.62"/>
<polygon fill="#9a32cd" stroke="#9a32cd" points="566.3,-51.29 556.16,-54.35 566,-58.28 566.3,-51.29"/>
<text text-anchor="middle" x="704.5" y="-65" font-family="Helvetica,sans-Serif" font-size="10.00"> fllc</text>
</g>
<!-- Node11 -->
<g id="node11" class="node">
<title>Node11</title>
<g id="a_node11"><a xlink:href="structamr__wind_1_1actuator_1_1_f_l_l_c_data.html" target="_top" xlink:title=" ">
<polygon fill="white" stroke="black" points="103.5,-39 103.5,-69 214.5,-69 214.5,-39 103.5,-39"/>
<text text-anchor="start" x="111.5" y="-57" font-family="Helvetica,sans-Serif" font-size="10.00">amr_wind::actuator</text>
<text text-anchor="middle" x="159" y="-46" font-family="Helvetica,sans-Serif" font-size="10.00">::FLLCData</text>
</a>
</g>
</g>
<!-- Node11&#45;&gt;Node10 -->
<g id="edge12" class="edge">
<title>Node11&#45;&gt;Node10</title>
<path fill="none" stroke="#9a32cd" stroke-dasharray="5,2" d="M224.82,-53.39C275.8,-52.91 346.96,-52.23 400.78,-51.72"/>
<polygon fill="#9a32cd" stroke="#9a32cd" points="224.55,-49.89 214.58,-53.48 224.61,-56.89 224.55,-49.89"/>
<text text-anchor="middle" x="318.5" y="-56" font-family="Helvetica,sans-Serif" font-size="10.00"> ptr</text>
</g>
<!-- Node12&#45;&gt;Node10 -->
<g id="edge13" class="edge">
<title>Node12&#45;&gt;Node10</title>
<path fill="none" stroke="orange" stroke-dasharray="5,2" d="M228.22,-11.04C272.58,-12.58 331.54,-16.28 383,-25 398.43,-27.61 414.98,-31.71 429.85,-35.88"/>
<polygon fill="orange" stroke="orange" points="228.24,-7.54 218.13,-10.71 228.01,-14.53 228.24,-7.54"/>
<text text-anchor="start" x="264" y="-39" font-family="Helvetica,sans-Serif" font-size="10.00"> &lt; amr_wind::actuator</text>
<text text-anchor="middle" x="318.5" y="-28" font-family="Helvetica,sans-Serif" font-size="10.00">::FLLCData &gt;</text>
</g>
</g>
</svg>
