<?xml version="1.0" encoding="UTF-8" standalone="no"?>
<!DOCTYPE svg PUBLIC "-//W3C//DTD SVG 1.1//EN"
 "http://www.w3.org/Graphics/SVG/1.1/DTD/svg11.dtd">
<!-- Generated by graphviz version 2.43.0 (0)
 -->
<!-- Title: amr_wind::actuator::ComponentView Pages: 1 -->
<svg width="754pt" height="184pt"
 viewBox="0.00 0.00 754.00 183.50" xmlns="http://www.w3.org/2000/svg" xmlns:xlink="http://www.w3.org/1999/xlink">
<g id="graph0" class="graph" transform="scale(1 1) rotate(0) translate(4 179.5)">
<title>amr_wind::actuator::ComponentView</title>
<polygon fill="white" stroke="transparent" points="-4,4 -4,-179.5 750,-179.5 750,4 -4,4"/>
<!-- Node1 -->
<g id="node1" class="node">
<title>Node1</title>
<g id="a_node1"><a xlink:title="Slice of actutator data for components (tower, blade, etc)">
<polygon fill="#bfbfbf" stroke="black" points="635,-89.5 635,-119.5 746,-119.5 746,-89.5 635,-89.5"/>
<text text-anchor="start" x="643" y="-107.5" font-family="Helvetica,sans-Serif" font-size="10.00">amr_wind::actuator</text>
<text text-anchor="middle" x="690.5" y="-96.5" font-family="Helvetica,sans-Serif" font-size="10.00">::ComponentView</text>
</a>
</g>
</g>
<!-- Node2 -->
<g id="node2" class="node">
<title>Node2</title>
<g id="a_node2"><a xlink:href="structamr__wind_1_1utils_1_1_slice.html" target="_top" xlink:title=" ">
<polygon fill="white" stroke="black" points="410.5,-77.5 410.5,-107.5 531.5,-107.5 531.5,-77.5 410.5,-77.5"/>
<text text-anchor="start" x="418.5" y="-95.5" font-family="Helvetica,sans-Serif" font-size="10.00">amr_wind::utils::Slice</text>
<text text-anchor="middle" x="471" y="-84.5" font-family="Helvetica,sans-Serif" font-size="10.00">&lt; amrex::Real &gt;</text>
</a>
</g>
</g>
<!-- Node2&#45;&gt;Node1 -->
<g id="edge1" class="edge">
<title>Node2&#45;&gt;Node1</title>
<path fill="none" stroke="#9a32cd" stroke-dasharray="5,2" d="M541.74,-96.35C571.84,-98.01 606.55,-99.92 634.76,-101.48"/>
<polygon fill="#9a32cd" stroke="#9a32cd" points="541.9,-92.85 531.72,-95.79 541.51,-99.84 541.9,-92.85"/>
<text text-anchor="middle" x="588.5" y="-102.5" font-family="Helvetica,sans-Serif" font-size="10.00"> chord</text>
</g>
<!-- Node3 -->
<g id="node3" class="node">
<title>Node3</title>
<g id="a_node3"><a xlink:href="structamr__wind_1_1utils_1_1_slice.html" target="_top" xlink:title=" ">
<polygon fill="white" stroke="black" points="83.5,-83 83.5,-102 232.5,-102 232.5,-83 83.5,-83"/>
<text text-anchor="middle" x="158" y="-90" font-family="Helvetica,sans-Serif" font-size="10.00">amr_wind::utils::Slice&lt; T &gt;</text>
</a>
</g>
</g>
<!-- Node3&#45;&gt;Node2 -->
<g id="edge2" class="edge">
<title>Node3&#45;&gt;Node2</title>
<path fill="none" stroke="orange" stroke-dasharray="5,2" d="M242.75,-92.5C295.68,-92.5 362.82,-92.5 410.36,-92.5"/>
<polygon fill="orange" stroke="orange" points="242.7,-89 232.7,-92.5 242.7,-96 242.7,-89"/>
<text text-anchor="middle" x="317.5" y="-95.5" font-family="Helvetica,sans-Serif" font-size="10.00"> &lt; amrex::Real &gt;</text>
</g>
<!-- Node4 -->
<g id="node4" class="node">
<title>Node4</title>
<g id="a_node4"><a xlink:href="structamr__wind_1_1utils_1_1_slice.html" target="_top" xlink:title=" ">
<polygon fill="white" stroke="black" points="400,-126.5 400,-156.5 542,-156.5 542,-126.5 400,-126.5"/>
<text text-anchor="start" x="408" y="-144.5" font-family="Helvetica,sans-Serif" font-size="10.00">amr_wind::utils::Slice</text>
<text text-anchor="middle" x="471" y="-133.5" font-family="Helvetica,sans-Serif" font-size="10.00">&lt; amr_wind::vs::Tensor &gt;</text>
</a>
</g>
</g>
<!-- Node3&#45;&gt;Node4 -->
<g id="edge5" class="edge">
<title>Node3&#45;&gt;Node4</title>
<path fill="none" stroke="orange" stroke-dasharray="5,2" d="M229.28,-103.57C280.23,-111.6 348.84,-122.41 399.78,-130.44"/>
<polygon fill="orange" stroke="orange" points="229.76,-100.1 219.33,-102.01 228.67,-107.02 229.76,-100.1"/>
<text text-anchor="middle" x="317.5" y="-129.5" font-family="Helvetica,sans-Serif" font-size="10.00"> &lt; amr_wind::vs::Tensor &gt;</text>
</g>
<!-- Node6 -->
<g id="node6" class="node">
<title>Node6</title>
<g id="a_node6"><a xlink:href="structamr__wind_1_1utils_1_1_slice.html" target="_top" xlink:title=" ">
<polygon fill="white" stroke="black" points="400.5,-0.5 400.5,-30.5 541.5,-30.5 541.5,-0.5 400.5,-0.5"/>
<text text-anchor="start" x="408.5" y="-18.5" font-family="Helvetica,sans-Serif" font-size="10.00">amr_wind::utils::Slice</text>
<text text-anchor="middle" x="471" y="-7.5" font-family="Helvetica,sans-Serif" font-size="10.00">&lt; amr_wind::vs::Vector &gt;</text>
</a>
</g>
</g>
<!-- Node3&#45;&gt;Node6 -->
<g id="edge9" class="edge">
<title>Node3&#45;&gt;Node6</title>
<path fill="none" stroke="orange" stroke-dasharray="5,2" d="M207.19,-80.57C261.56,-67.11 350.11,-45.18 409.2,-30.55"/>
<polygon fill="orange" stroke="orange" points="206.31,-77.18 197.45,-82.98 207.99,-83.98 206.31,-77.18"/>
<text text-anchor="middle" x="317.5" y="-70.5" font-family="Helvetica,sans-Serif" font-size="10.00"> &lt; amr_wind::vs::Vector &gt;</text>
</g>
<!-- Node4&#45;&gt;Node1 -->
<g id="edge3" class="edge">
<title>Node4&#45;&gt;Node1</title>
<path fill="none" stroke="#9a32cd" stroke-dasharray="5,2" d="M552.03,-127.89C579.56,-123.2 609.74,-118.07 634.79,-113.81"/>
<polygon fill="#9a32cd" stroke="#9a32cd" points="551.29,-124.46 542.02,-129.59 552.46,-131.36 551.29,-124.46"/>
<text text-anchor="middle" x="588.5" y="-128.5" font-family="Helvetica,sans-Serif" font-size="10.00"> orientation</text>
</g>
<!-- Node5 -->
<g id="node5" class="node">
<title>Node5</title>
<g id="a_node5"><a xlink:href="structamr__wind_1_1vs_1_1_tensor_t.html" target="_top" xlink:title="Tensor in 3D vector space.">
<polygon fill="white" stroke="black" points="81,-151 81,-170 235,-170 235,-151 81,-151"/>
<text text-anchor="middle" x="158" y="-158" font-family="Helvetica,sans-Serif" font-size="10.00">amr_wind::vs::TensorT&lt; T &gt;</text>
</a>
</g>
</g>
<!-- Node5&#45;&gt;Node4 -->
<g id="edge4" class="edge">
<title>Node5&#45;&gt;Node4</title>
<path fill="none" stroke="#9a32cd" stroke-dasharray="5,2" d="M245.28,-155.23C293.95,-152.26 353.99,-148.59 399.76,-145.79"/>
<polygon fill="#9a32cd" stroke="#9a32cd" points="244.85,-151.75 235.08,-155.85 245.27,-158.74 244.85,-151.75"/>
<text text-anchor="middle" x="317.5" y="-167.5" font-family="Helvetica,sans-Serif" font-size="10.00"> ptr_begin</text>
<text text-anchor="middle" x="317.5" y="-156.5" font-family="Helvetica,sans-Serif" font-size="10.00">ptr_end</text>
</g>
<!-- Node6&#45;&gt;Node1 -->
<g id="edge6" class="edge">
<title>Node6&#45;&gt;Node1</title>
<path fill="none" stroke="#9a32cd" stroke-dasharray="5,2" d="M551.83,-11.06C573.82,-12.59 597.08,-16.91 617,-26.5 645.65,-40.3 668.53,-70.77 680.46,-89.27"/>
<polygon fill="#9a32cd" stroke="#9a32cd" points="552,-7.57 541.83,-10.55 551.64,-14.56 552,-7.57"/>
<text text-anchor="middle" x="588.5" y="-84.5" font-family="Helvetica,sans-Serif" font-size="10.00"> vel_rel</text>
<text text-anchor="middle" x="588.5" y="-73.5" font-family="Helvetica,sans-Serif" font-size="10.00">vel_pos</text>
<text text-anchor="middle" x="588.5" y="-62.5" font-family="Helvetica,sans-Serif" font-size="10.00">force</text>
<text text-anchor="middle" x="588.5" y="-51.5" font-family="Helvetica,sans-Serif" font-size="10.00">vel</text>
<text text-anchor="middle" x="588.5" y="-40.5" font-family="Helvetica,sans-Serif" font-size="10.00">epsilon</text>
<text text-anchor="middle" x="588.5" y="-29.5" font-family="Helvetica,sans-Serif" font-size="10.00">pos</text>
</g>
<!-- Node7 -->
<g id="node7" class="node">
<title>Node7</title>
<g id="a_node7"><a xlink:href="structamr__wind_1_1vs_1_1_vector_t.html" target="_top" xlink:title="Vector in 3D space.">
<polygon fill="white" stroke="black" points="81.5,-4 81.5,-23 234.5,-23 234.5,-4 81.5,-4"/>
<text text-anchor="middle" x="158" y="-11" font-family="Helvetica,sans-Serif" font-size="10.00">amr_wind::vs::VectorT&lt; T &gt;</text>
</a>
</g>
</g>
<!-- Node7&#45;&gt;Node6 -->
<g id="edge7" class="edge">
<title>Node7&#45;&gt;Node6</title>
<path fill="none" stroke="#9a32cd" stroke-dasharray="5,2" d="M244.67,-13.75C286.15,-13.9 336.67,-14.14 382,-14.5 387.96,-14.55 394.14,-14.6 400.35,-14.66"/>
<polygon fill="#9a32cd" stroke="#9a32cd" points="244.62,-10.25 234.61,-13.71 244.6,-17.25 244.62,-10.25"/>
<text text-anchor="middle" x="317.5" y="-28.5" font-family="Helvetica,sans-Serif" font-size="10.00"> ptr_begin</text>
<text text-anchor="middle" x="317.5" y="-17.5" font-family="Helvetica,sans-Serif" font-size="10.00">ptr_end</text>
</g>
<!-- Node8 -->
<g id="node8" class="node">
<title>Node8</title>
<g id="a_node8"><a xlink:title=" ">
<polygon fill="white" stroke="#bfbfbf" points="0,-4 0,-23 29,-23 29,-4 0,-4"/>
<text text-anchor="middle" x="14.5" y="-11" font-family="Helvetica,sans-Serif" font-size="10.00">T</text>
</a>
</g>
</g>
<!-- Node8&#45;&gt;Node7 -->
<g id="edge8" class="edge">
<title>Node8&#45;&gt;Node7</title>
<path fill="none" stroke="#9a32cd" stroke-dasharray="5,2" d="M39.33,-13.5C51.14,-13.5 66.13,-13.5 81.43,-13.5"/>
<polygon fill="#9a32cd" stroke="#9a32cd" points="39.07,-10 29.07,-13.5 39.07,-17 39.07,-10"/>
<text text-anchor="middle" x="55" y="-16.5" font-family="Helvetica,sans-Serif" font-size="10.00"> vv</text>
</g>
</g>
</svg>
