<?xml version="1.0" encoding="UTF-8" standalone="no"?>
<!DOCTYPE svg PUBLIC "-//W3C//DTD SVG 1.1//EN"
 "http://www.w3.org/Graphics/SVG/1.1/DTD/svg11.dtd">
<!-- Generated by graphviz version 2.43.0 (0)
 -->
<!-- Title: amr_wind::actuator::FixedWingData Pages: 1 -->
<!--zoomable 357 -->
<svg id="main" version="1.1" xmlns="http://www.w3.org/2000/svg" xmlns:xlink="http://www.w3.org/1999/xlink" xml:space="preserve" onload="init(evt)">
<style type="text/css"><![CDATA[
.edge:hover path { stroke: red; }
.edge:hover polygon { stroke: red; fill: red; }
]]></style>
<script type="text/javascript"><![CDATA[
var edges = document.getElementsByTagName('g');
if (edges && edges.length) {
  for (var i=0;i<edges.length;i++) {
    if (edges[i].id.substr(0,4)=='edge') {
      edges[i].setAttribute('class','edge');
    }
  }
}
]]></script>
        <defs>
                <circle id="rim" cx="0" cy="0" r="7"/>
                <circle id="rim2" cx="0" cy="0" r="3.5"/>
                <g id="zoomPlus">
                        <use xlink:href="#rim" fill="#404040">
                                <set attributeName="fill" to="#808080" begin="zoomplus.mouseover" end="zoomplus.mouseout"/>
                        </use>
                        <path d="M-4,0h8M0,-4v8" fill="none" stroke="white" stroke-width="1.5" pointer-events="none"/>
                </g>
                <g id="zoomMin">
                        <use xlink:href="#rim" fill="#404040">
                                <set attributeName="fill" to="#808080" begin="zoomminus.mouseover" end="zoomminus.mouseout"/>
                        </use>
                        <path d="M-4,0h8" fill="none" stroke="white" stroke-width="1.5" pointer-events="none"/>
                </g>
                <g id="dirArrow">
                        <path fill="none" stroke="white" stroke-width="1.5" d="M0,-3.0v7 M-2.5,-0.5L0,-3.0L2.5,-0.5"/>
                </g>
               <g id="resetDef">
                       <use xlink:href="#rim2" fill="#404040">
                               <set attributeName="fill" to="#808080" begin="reset.mouseover" end="reset.mouseout"/>
                       </use>
               </g>
        </defs>

<script type="text/javascript">
var viewWidth = 1299;
var viewHeight = 357;
var sectionId = 'dynsection-1';
</script>
<script xlink:href="svgpan.js"/>
<svg id="graph" class="graph">
<g id="viewport">
<title>amr_wind::actuator::FixedWingData</title>
<polygon fill="white" stroke="transparent" points="-4,4 -4,-352.5 1295,-352.5 1295,4 -4,4"/>
<!-- Node1 -->
<g id="node1" class="node">
<title>Node1</title>
<g id="a_node1"><a xlink:title=" ">
<polygon fill="#bfbfbf" stroke="black" points="1180,-49.5 1180,-79.5 1291,-79.5 1291,-49.5 1180,-49.5"/>
<text text-anchor="start" x="1188" y="-67.5" font-family="Helvetica,sans-Serif" font-size="10.00">amr_wind::actuator</text>
<text text-anchor="middle" x="1235.5" y="-56.5" font-family="Helvetica,sans-Serif" font-size="10.00">::FixedWingData</text>
</a>
</g>
</g>
<!-- Node2 -->
<g id="node2" class="node">
<title>Node2</title>
<g id="a_node2"><a xlink:href="structamr__wind_1_1actuator_1_1_wing_base_data.html" target="_top" xlink:title="Base data representation of a fixed&#45;wing.">
<polygon fill="white" stroke="black" points="974,-118.5 974,-148.5 1085,-148.5 1085,-118.5 974,-118.5"/>
<text text-anchor="start" x="982" y="-136.5" font-family="Helvetica,sans-Serif" font-size="10.00">amr_wind::actuator</text>
<text text-anchor="middle" x="1029.5" y="-125.5" font-family="Helvetica,sans-Serif" font-size="10.00">::WingBaseData</text>
</a>
</g>
</g>
<!-- Node2&#45;&gt;Node1 -->
<g id="edge1" class="edge">
<title>Node2&#45;&gt;Node1</title>
<path fill="none" stroke="midnightblue" d="M1084.5,-115.23C1117.45,-104.09 1159.05,-90.02 1190.08,-79.52"/>
<polygon fill="midnightblue" stroke="midnightblue" points="1083.37,-111.92 1075.02,-118.44 1085.61,-118.55 1083.37,-111.92"/>
</g>
<!-- Node3 -->
<g id="node3" class="node">
<title>Node3</title>
<g id="a_node3"><a xlink:href="structamr__wind_1_1actuator_1_1_component_view.html" target="_top" xlink:title="Slice of actutator data for components (tower, blade, etc)">
<polygon fill="white" stroke="black" points="713.5,-211.5 713.5,-241.5 824.5,-241.5 824.5,-211.5 713.5,-211.5"/>
<text text-anchor="start" x="721.5" y="-229.5" font-family="Helvetica,sans-Serif" font-size="10.00">amr_wind::actuator</text>
<text text-anchor="middle" x="769" y="-218.5" font-family="Helvetica,sans-Serif" font-size="10.00">::ComponentView</text>
</a>
</g>
</g>
<!-- Node3&#45;&gt;Node2 -->
<g id="edge2" class="edge">
<title>Node3&#45;&gt;Node2</title>
<path fill="none" stroke="#9a32cd" stroke-dasharray="5,2" d="M821.49,-207.97C869.98,-190.53 941.71,-164.72 986.74,-148.52"/>
<polygon fill="#9a32cd" stroke="#9a32cd" points="820.04,-204.78 811.82,-211.45 822.41,-211.36 820.04,-204.78"/>
<text text-anchor="middle" x="912.5" y="-190.5" font-family="Helvetica,sans-Serif" font-size="10.00"> component_view</text>
</g>
<!-- Node4 -->
<g id="node4" class="node">
<title>Node4</title>
<g id="a_node4"><a xlink:href="structamr__wind_1_1utils_1_1_slice.html" target="_top" xlink:title=" ">
<polygon fill="white" stroke="black" points="410.5,-236.5 410.5,-266.5 531.5,-266.5 531.5,-236.5 410.5,-236.5"/>
<text text-anchor="start" x="418.5" y="-254.5" font-family="Helvetica,sans-Serif" font-size="10.00">amr_wind::utils::Slice</text>
<text text-anchor="middle" x="471" y="-243.5" font-family="Helvetica,sans-Serif" font-size="10.00">&lt; amrex::Real &gt;</text>
</a>
</g>
</g>
<!-- Node4&#45;&gt;Node3 -->
<g id="edge3" class="edge">
<title>Node4&#45;&gt;Node3</title>
<path fill="none" stroke="#9a32cd" stroke-dasharray="5,2" d="M541.75,-245.61C594.07,-241.19 664.7,-235.22 713.05,-231.14"/>
<polygon fill="#9a32cd" stroke="#9a32cd" points="541.21,-242.14 531.54,-246.47 541.8,-249.12 541.21,-242.14"/>
<text text-anchor="middle" x="614.5" y="-245.5" font-family="Helvetica,sans-Serif" font-size="10.00"> chord</text>
</g>
<!-- Node5 -->
<g id="node5" class="node">
<title>Node5</title>
<g id="a_node5"><a xlink:href="structamr__wind_1_1utils_1_1_slice.html" target="_top" xlink:title=" ">
<polygon fill="white" stroke="black" points="83.5,-234 83.5,-253 232.5,-253 232.5,-234 83.5,-234"/>
<text text-anchor="middle" x="158" y="-241" font-family="Helvetica,sans-Serif" font-size="10.00">amr_wind::utils::Slice&lt; T &gt;</text>
</a>
</g>
</g>
<!-- Node5&#45;&gt;Node4 -->
<g id="edge4" class="edge">
<title>Node5&#45;&gt;Node4</title>
<path fill="none" stroke="orange" stroke-dasharray="5,2" d="M242.75,-242.39C284.6,-242.22 335.99,-242.57 382,-244.5 391.19,-244.89 400.9,-245.47 410.39,-246.15"/>
<polygon fill="orange" stroke="orange" points="242.59,-238.89 232.6,-242.45 242.62,-245.89 242.59,-238.89"/>
<text text-anchor="middle" x="317.5" y="-247.5" font-family="Helvetica,sans-Serif" font-size="10.00"> &lt; amrex::Real &gt;</text>
</g>
<!-- Node6 -->
<g id="node6" class="node">
<title>Node6</title>
<g id="a_node6"><a xlink:href="structamr__wind_1_1utils_1_1_slice.html" target="_top" xlink:title=" ">
<polygon fill="white" stroke="black" points="400,-187.5 400,-217.5 542,-217.5 542,-187.5 400,-187.5"/>
<text text-anchor="start" x="408" y="-205.5" font-family="Helvetica,sans-Serif" font-size="10.00">amr_wind::utils::Slice</text>
<text text-anchor="middle" x="471" y="-194.5" font-family="Helvetica,sans-Serif" font-size="10.00">&lt; amr_wind::vs::Tensor &gt;</text>
</a>
</g>
</g>
<!-- Node5&#45;&gt;Node6 -->
<g id="edge7" class="edge">
<title>Node5&#45;&gt;Node6</title>
<path fill="none" stroke="orange" stroke-dasharray="5,2" d="M218.15,-232.16C229.69,-230.13 241.7,-228.14 253,-226.5 301.95,-219.38 357.38,-213.28 399.97,-209.01"/>
<polygon fill="orange" stroke="orange" points="217.4,-228.74 208.17,-233.95 218.63,-235.63 217.4,-228.74"/>
<text text-anchor="middle" x="317.5" y="-229.5" font-family="Helvetica,sans-Serif" font-size="10.00"> &lt; amr_wind::vs::Tensor &gt;</text>
</g>
<!-- Node8 -->
<g id="node8" class="node">
<title>Node8</title>
<g id="a_node8"><a xlink:href="structamr__wind_1_1utils_1_1_slice.html" target="_top" xlink:title=" ">
<polygon fill="white" stroke="black" points="400.5,-285.5 400.5,-315.5 541.5,-315.5 541.5,-285.5 400.5,-285.5"/>
<text text-anchor="start" x="408.5" y="-303.5" font-family="Helvetica,sans-Serif" font-size="10.00">amr_wind::utils::Slice</text>
<text text-anchor="middle" x="471" y="-292.5" font-family="Helvetica,sans-Serif" font-size="10.00">&lt; amr_wind::vs::Vector &gt;</text>
</a>
</g>
</g>
<!-- Node5&#45;&gt;Node8 -->
<g id="edge11" class="edge">
<title>Node5&#45;&gt;Node8</title>
<path fill="none" stroke="orange" stroke-dasharray="5,2" d="M226.44,-254.78C270.72,-262.31 329.88,-272.61 382,-282.5 387.98,-283.63 394.17,-284.84 400.38,-286.07"/>
<polygon fill="orange" stroke="orange" points="226.82,-251.29 216.37,-253.07 225.65,-258.19 226.82,-251.29"/>
<text text-anchor="middle" x="317.5" y="-285.5" font-family="Helvetica,sans-Serif" font-size="10.00"> &lt; amr_wind::vs::Vector &gt;</text>
</g>
<!-- Node6&#45;&gt;Node3 -->
<g id="edge5" class="edge">
<title>Node6&#45;&gt;Node3</title>
<path fill="none" stroke="#9a32cd" stroke-dasharray="5,2" d="M552.64,-206.32C588.34,-208.29 630.8,-211.02 669,-214.5 683.4,-215.81 698.93,-217.54 713.34,-219.28"/>
<polygon fill="#9a32cd" stroke="#9a32cd" points="552.46,-202.81 542.28,-205.76 552.08,-209.8 552.46,-202.81"/>
<text text-anchor="middle" x="614.5" y="-217.5" font-family="Helvetica,sans-Serif" font-size="10.00"> orientation</text>
</g>
<!-- Node7 -->
<g id="node7" class="node">
<title>Node7</title>
<g id="a_node7"><a xlink:href="structamr__wind_1_1vs_1_1_tensor_t.html" target="_top" xlink:title="Tensor in 3D vector space.">
<polygon fill="white" stroke="black" points="81,-155 81,-174 235,-174 235,-155 81,-155"/>
<text text-anchor="middle" x="158" y="-162" font-family="Helvetica,sans-Serif" font-size="10.00">amr_wind::vs::TensorT&lt; T &gt;</text>
</a>
</g>
</g>
<!-- Node7&#45;&gt;Node6 -->
<g id="edge6" class="edge">
<title>Node7&#45;&gt;Node6</title>
<path fill="none" stroke="#9a32cd" stroke-dasharray="5,2" d="M229.47,-153.98C274.24,-149.9 332.82,-149.48 382,-165.5 391.38,-168.56 391.24,-173.96 400,-178.5 406.27,-181.75 413.08,-184.71 419.91,-187.36"/>
<polygon fill="#9a32cd" stroke="#9a32cd" points="228.87,-150.52 219.26,-154.99 229.56,-157.48 228.87,-150.52"/>
<text text-anchor="middle" x="317.5" y="-179.5" font-family="Helvetica,sans-Serif" font-size="10.00"> ptr_begin</text>
<text text-anchor="middle" x="317.5" y="-168.5" font-family="Helvetica,sans-Serif" font-size="10.00">ptr_end</text>
</g>
<!-- Node8&#45;&gt;Node3 -->
<g id="edge8" class="edge">
<title>Node8&#45;&gt;Node3</title>
<path fill="none" stroke="#9a32cd" stroke-dasharray="5,2" d="M551.61,-284.8C587.64,-277.26 630.65,-267.67 669,-257.5 686.76,-252.79 706.08,-246.91 722.9,-241.55"/>
<polygon fill="#9a32cd" stroke="#9a32cd" points="550.73,-281.41 541.65,-286.87 552.15,-288.26 550.73,-281.41"/>
<text text-anchor="middle" x="614.5" y="-340.5" font-family="Helvetica,sans-Serif" font-size="10.00"> vel_rel</text>
<text text-anchor="middle" x="614.5" y="-329.5" font-family="Helvetica,sans-Serif" font-size="10.00">vel_pos</text>
<text text-anchor="middle" x="614.5" y="-318.5" font-family="Helvetica,sans-Serif" font-size="10.00">force</text>
<text text-anchor="middle" x="614.5" y="-307.5" font-family="Helvetica,sans-Serif" font-size="10.00">vel</text>
<text text-anchor="middle" x="614.5" y="-296.5" font-family="Helvetica,sans-Serif" font-size="10.00">epsilon</text>
<text text-anchor="middle" x="614.5" y="-285.5" font-family="Helvetica,sans-Serif" font-size="10.00">pos</text>
</g>
<!-- Node9 -->
<g id="node9" class="node">
<title>Node9</title>
<g id="a_node9"><a xlink:href="structamr__wind_1_1vs_1_1_vector_t.html" target="_top" xlink:title="Vector in 3D space.">
<polygon fill="white" stroke="black" points="81.5,-287 81.5,-306 234.5,-306 234.5,-287 81.5,-287"/>
<text text-anchor="middle" x="158" y="-294" font-family="Helvetica,sans-Serif" font-size="10.00">amr_wind::vs::VectorT&lt; T &gt;</text>
</a>
</g>
</g>
<!-- Node9&#45;&gt;Node8 -->
<g id="edge9" class="edge">
<title>Node9&#45;&gt;Node8</title>
<path fill="none" stroke="#9a32cd" stroke-dasharray="5,2" d="M244.94,-297.61C293.89,-298.23 354.42,-299.01 400.37,-299.6"/>
<polygon fill="#9a32cd" stroke="#9a32cd" points="244.73,-294.1 234.68,-297.47 244.64,-301.1 244.73,-294.1"/>
<text text-anchor="middle" x="317.5" y="-312.5" font-family="Helvetica,sans-Serif" font-size="10.00"> ptr_begin</text>
<text text-anchor="middle" x="317.5" y="-301.5" font-family="Helvetica,sans-Serif" font-size="10.00">ptr_end</text>
</g>
<!-- Node10 -->
<g id="node10" class="node">
<title>Node10</title>
<g id="a_node10"><a xlink:title=" ">
<polygon fill="white" stroke="#bfbfbf" points="0,-128 0,-147 29,-147 29,-128 0,-128"/>
<text text-anchor="middle" x="14.5" y="-135" font-family="Helvetica,sans-Serif" font-size="10.00">T</text>
</a>
</g>
</g>
<!-- Node10&#45;&gt;Node9 -->
<g id="edge10" class="edge">
<title>Node10&#45;&gt;Node9</title>
<path fill="none" stroke="#9a32cd" stroke-dasharray="5,2" d="M21.25,-157.13C30.07,-184.12 49.3,-232.71 81,-262.5 92.9,-273.69 109.1,-281.62 123.49,-287"/>
<polygon fill="#9a32cd" stroke="#9a32cd" points="24.51,-155.82 18.2,-147.31 17.83,-157.9 24.51,-155.82"/>
<text text-anchor="middle" x="55" y="-241.5" font-family="Helvetica,sans-Serif" font-size="10.00"> vv</text>
</g>
<!-- Node13 -->
<g id="node13" class="node">
<title>Node13</title>
<g id="a_node13"><a xlink:title="STL class.">
<polygon fill="white" stroke="#bfbfbf" points="412,-100 412,-119 530,-119 530,-100 412,-100"/>
<text text-anchor="middle" x="471" y="-107" font-family="Helvetica,sans-Serif" font-size="10.00">std::unique_ptr&lt; T &gt;</text>
</a>
</g>
</g>
<!-- Node10&#45;&gt;Node13 -->
<g id="edge15" class="edge">
<title>Node10&#45;&gt;Node13</title>
<path fill="none" stroke="#9a32cd" stroke-dasharray="5,2" d="M39.39,-136.03C108.67,-131.76 311.07,-119.29 411.74,-113.09"/>
<polygon fill="#9a32cd" stroke="#9a32cd" points="38.87,-132.55 29.1,-136.66 39.3,-139.54 38.87,-132.55"/>
<text text-anchor="middle" x="158" y="-135.5" font-family="Helvetica,sans-Serif" font-size="10.00"> ptr</text>
</g>
<!-- Node11 -->
<g id="node11" class="node">
<title>Node11</title>
<g id="a_node11"><a xlink:title=" ">
<polygon fill="white" stroke="#bfbfbf" points="691.5,-118.5 691.5,-148.5 846.5,-148.5 846.5,-118.5 691.5,-118.5"/>
<text text-anchor="start" x="699.5" y="-136.5" font-family="Helvetica,sans-Serif" font-size="10.00">std::unique_ptr&lt; amr</text>
<text text-anchor="middle" x="769" y="-125.5" font-family="Helvetica,sans-Serif" font-size="10.00">_wind::actuator::FLLCData &gt;</text>
</a>
</g>
</g>
<!-- Node11&#45;&gt;Node2 -->
<g id="edge12" class="edge">
<title>Node11&#45;&gt;Node2</title>
<path fill="none" stroke="#9a32cd" stroke-dasharray="5,2" d="M856.75,-133.5C895.48,-133.5 939.95,-133.5 973.93,-133.5"/>
<polygon fill="#9a32cd" stroke="#9a32cd" points="856.51,-130 846.51,-133.5 856.51,-137 856.51,-130"/>
<text text-anchor="middle" x="912.5" y="-136.5" font-family="Helvetica,sans-Serif" font-size="10.00"> fllc</text>
</g>
<!-- Node12 -->
<g id="node12" class="node">
<title>Node12</title>
<g id="a_node12"><a xlink:href="structamr__wind_1_1actuator_1_1_f_l_l_c_data.html" target="_top" xlink:title=" ">
<polygon fill="white" stroke="black" points="415.5,-138.5 415.5,-168.5 526.5,-168.5 526.5,-138.5 415.5,-138.5"/>
<text text-anchor="start" x="423.5" y="-156.5" font-family="Helvetica,sans-Serif" font-size="10.00">amr_wind::actuator</text>
<text text-anchor="middle" x="471" y="-145.5" font-family="Helvetica,sans-Serif" font-size="10.00">::FLLCData</text>
</a>
</g>
</g>
<!-- Node12&#45;&gt;Node11 -->
<g id="edge13" class="edge">
<title>Node12&#45;&gt;Node11</title>
<path fill="none" stroke="#9a32cd" stroke-dasharray="5,2" d="M536.69,-149.13C582.23,-146.05 643.39,-141.92 691.38,-138.68"/>
<polygon fill="#9a32cd" stroke="#9a32cd" points="536.38,-145.64 526.64,-149.81 536.85,-152.63 536.38,-145.64"/>
<text text-anchor="middle" x="614.5" y="-149.5" font-family="Helvetica,sans-Serif" font-size="10.00"> ptr</text>
</g>
<!-- Node13&#45;&gt;Node11 -->
<g id="edge14" class="edge">
<title>Node13&#45;&gt;Node11</title>
<path fill="none" stroke="orange" stroke-dasharray="5,2" d="M540.77,-108.48C578.69,-108.62 626.56,-109.92 669,-114.5 678.22,-115.5 687.87,-116.89 697.37,-118.48"/>
<polygon fill="orange" stroke="orange" points="540.35,-104.98 530.35,-108.48 540.35,-111.98 540.35,-104.98"/>
<text text-anchor="start" x="560" y="-128.5" font-family="Helvetica,sans-Serif" font-size="10.00"> &lt; amr_wind::actuator</text>
<text text-anchor="middle" x="614.5" y="-117.5" font-family="Helvetica,sans-Serif" font-size="10.00">::FLLCData &gt;</text>
</g>
<!-- Node14 -->
<g id="node14" class="node">
<title>Node14</title>
<g id="a_node14"><a xlink:title=" ">
<polygon fill="white" stroke="#bfbfbf" points="687,-49.5 687,-79.5 851,-79.5 851,-49.5 687,-49.5"/>
<text text-anchor="start" x="695" y="-67.5" font-family="Helvetica,sans-Serif" font-size="10.00">std::unique_ptr&lt; amr</text>
<text text-anchor="middle" x="769" y="-56.5" font-family="Helvetica,sans-Serif" font-size="10.00">_wind::actuator::AirfoilTable &gt;</text>
</a>
</g>
</g>
<!-- Node13&#45;&gt;Node14 -->
<g id="edge18" class="edge">
<title>Node13&#45;&gt;Node14</title>
<path fill="none" stroke="orange" stroke-dasharray="5,2" d="M507.72,-96.66C523.54,-91.47 542.5,-85.9 560,-82.5 601.45,-74.44 648.25,-69.99 686.95,-67.53"/>
<polygon fill="orange" stroke="orange" points="506.18,-93.49 497.82,-100 508.41,-100.12 506.18,-93.49"/>
<text text-anchor="start" x="560" y="-96.5" font-family="Helvetica,sans-Serif" font-size="10.00"> &lt; amr_wind::actuator</text>
<text text-anchor="middle" x="614.5" y="-85.5" font-family="Helvetica,sans-Serif" font-size="10.00">::AirfoilTable &gt;</text>
</g>
<!-- Node14&#45;&gt;Node1 -->
<g id="edge16" class="edge">
<title>Node14&#45;&gt;Node1</title>
<path fill="none" stroke="#9a32cd" stroke-dasharray="5,2" d="M861.34,-64.5C956.26,-64.5 1101.66,-64.5 1179.99,-64.5"/>
<polygon fill="#9a32cd" stroke="#9a32cd" points="861.18,-61 851.18,-64.5 861.18,-68 861.18,-61"/>
<text text-anchor="middle" x="1029.5" y="-67.5" font-family="Helvetica,sans-Serif" font-size="10.00"> aflookup</text>
</g>
<!-- Node15 -->
<g id="node15" class="node">
<title>Node15</title>
<g id="a_node15"><a xlink:href="classamr__wind_1_1actuator_1_1_airfoil_table.html" target="_top" xlink:title=" ">
<polygon fill="white" stroke="black" points="415.5,-15.5 415.5,-45.5 526.5,-45.5 526.5,-15.5 415.5,-15.5"/>
<text text-anchor="start" x="423.5" y="-33.5" font-family="Helvetica,sans-Serif" font-size="10.00">amr_wind::actuator</text>
<text text-anchor="middle" x="471" y="-22.5" font-family="Helvetica,sans-Serif" font-size="10.00">::AirfoilTable</text>
</a>
</g>
</g>
<!-- Node15&#45;&gt;Node14 -->
<g id="edge17" class="edge">
<title>Node15&#45;&gt;Node14</title>
<path fill="none" stroke="#9a32cd" stroke-dasharray="5,2" d="M536.86,-23.48C575.71,-21.08 625.79,-21.18 669,-31.5 677.7,-33.58 678.68,-37.22 687,-40.5 695.05,-43.68 703.69,-46.66 712.22,-49.38"/>
<polygon fill="#9a32cd" stroke="#9a32cd" points="536.46,-20 526.72,-24.18 536.94,-26.98 536.46,-20"/>
<text text-anchor="middle" x="614.5" y="-34.5" font-family="Helvetica,sans-Serif" font-size="10.00"> ptr</text>
</g>
<!-- Node16 -->
<g id="node16" class="node">
<title>Node16</title>
<g id="a_node16"><a xlink:title="STL class.">
<polygon fill="white" stroke="#bfbfbf" points="997,-8 997,-27 1062,-27 1062,-8 997,-8"/>
<text text-anchor="middle" x="1029.5" y="-15" font-family="Helvetica,sans-Serif" font-size="10.00">std::string</text>
</a>
</g>
</g>
<!-- Node16&#45;&gt;Node1 -->
<g id="edge19" class="edge">
<title>Node16&#45;&gt;Node1</title>
<path fill="none" stroke="#9a32cd" stroke-dasharray="5,2" d="M1072.5,-17.02C1098.68,-17.69 1132.81,-20.35 1162,-28.5 1178.78,-33.18 1196.32,-41.78 1209.94,-49.39"/>
<polygon fill="#9a32cd" stroke="#9a32cd" points="1072.23,-13.51 1062.17,-16.84 1072.11,-20.51 1072.23,-13.51"/>
<text text-anchor="middle" x="1132.5" y="-42.5" font-family="Helvetica,sans-Serif" font-size="10.00"> airfoil_type</text>
<text text-anchor="middle" x="1132.5" y="-31.5" font-family="Helvetica,sans-Serif" font-size="10.00">airfoil_file</text>
</g>
<!-- Node17 -->
<g id="node17" class="node">
<title>Node17</title>
<g id="a_node17"><a xlink:title="STL class.">
<polygon fill="white" stroke="#bfbfbf" points="717,-0.5 717,-30.5 821,-30.5 821,-0.5 717,-0.5"/>
<text text-anchor="start" x="725" y="-18.5" font-family="Helvetica,sans-Serif" font-size="10.00">std::basic_string&lt;</text>
<text text-anchor="middle" x="769" y="-7.5" font-family="Helvetica,sans-Serif" font-size="10.00"> char &gt;</text>
</a>
</g>
</g>
<!-- Node17&#45;&gt;Node16 -->
<g id="edge20" class="edge">
<title>Node17&#45;&gt;Node16</title>
<path fill="none" stroke="midnightblue" d="M831.17,-15.97C883.11,-16.38 955.57,-16.94 996.68,-17.25"/>
<polygon fill="midnightblue" stroke="midnightblue" points="831.1,-12.47 821.07,-15.9 831.04,-19.47 831.1,-12.47"/>
</g>
</g>
</svg>
        <g id="navigator" transform="translate(0 0)" fill="#404254">
                <rect fill="#f2f5e9" fill-opacity="0.5" stroke="#606060" stroke-width=".5" x="0" y="0" width="60" height="60"/>
                <use id="zoomplus" xlink:href="#zoomPlus" x="17" y="9" onmousedown="handleZoom(evt,'in')"/>
                <use id="zoomminus" xlink:href="#zoomMin" x="42" y="9" onmousedown="handleZoom(evt,'out')"/>
                <use id="reset" xlink:href="#resetDef" x="30" y="36" onmousedown="handleReset()"/>
                <g id="arrowUp" xlink:href="#dirArrow" transform="translate(30 24)" onmousedown="handlePan(0,-1)">
                  <use xlink:href="#rim" fill="#404040">
                        <set attributeName="fill" to="#808080" begin="arrowUp.mouseover" end="arrowUp.mouseout"/>
                  </use>
                  <path fill="none" stroke="white" stroke-width="1.5" d="M0,-3.0v7 M-2.5,-0.5L0,-3.0L2.5,-0.5"/>
                </g>
                <g id="arrowRight" xlink:href="#dirArrow" transform="rotate(90) translate(36 -43)" onmousedown="handlePan(1,0)">
                  <use xlink:href="#rim" fill="#404040">
                        <set attributeName="fill" to="#808080" begin="arrowRight.mouseover" end="arrowRight.mouseout"/>
                  </use>
                  <path fill="none" stroke="white" stroke-width="1.5" d="M0,-3.0v7 M-2.5,-0.5L0,-3.0L2.5,-0.5"/>
                </g>
                <g id="arrowDown" xlink:href="#dirArrow" transform="rotate(180) translate(-30 -48)" onmousedown="handlePan(0,1)">
                  <use xlink:href="#rim" fill="#404040">
                        <set attributeName="fill" to="#808080" begin="arrowDown.mouseover" end="arrowDown.mouseout"/>
                  </use>
                  <path fill="none" stroke="white" stroke-width="1.5" d="M0,-3.0v7 M-2.5,-0.5L0,-3.0L2.5,-0.5"/>
                </g>
                <g id="arrowLeft" xlink:href="#dirArrow" transform="rotate(270) translate(-36 17)" onmousedown="handlePan(-1,0)">
                  <use xlink:href="#rim" fill="#404040">
                        <set attributeName="fill" to="#808080" begin="arrowLeft.mouseover" end="arrowLeft.mouseout"/>
                  </use>
                  <path fill="none" stroke="white" stroke-width="1.5" d="M0,-3.0v7 M-2.5,-0.5L0,-3.0L2.5,-0.5"/>
                </g>
        </g>
        <svg viewBox="0 0 15 15" width="100%" height="30px" preserveAspectRatio="xMaxYMin meet">
         <g id="arrow_out" transform="scale(0.3 0.3)">
          <a xlink:href="structamr__wind_1_1actuator_1_1_fixed_wing_data__coll__graph_org.svg" target="_base">
           <rect id="button" ry="5" rx="5" y="6" x="6" height="38" width="38"
                fill="#f2f5e9" fill-opacity="0.5" stroke="#606060" stroke-width="1.0"/>
           <path id="arrow"
             d="M 11.500037,31.436501 C 11.940474,20.09759 22.043105,11.32322 32.158766,21.979434 L 37.068811,17.246167 C 37.068811,17.246167 37.088388,32 37.088388,32 L 22.160133,31.978069 C 22.160133,31.978069 26.997745,27.140456 26.997745,27.140456 C 18.528582,18.264221 13.291696,25.230495 11.500037,31.436501 z"
             style="fill:#404040;"/>
          </a>
         </g>
        </svg>
</svg>
