<?xml version="1.0" encoding="UTF-8" standalone="no"?>
<!DOCTYPE svg PUBLIC "-//W3C//DTD SVG 1.1//EN"
 "http://www.w3.org/Graphics/SVG/1.1/DTD/svg11.dtd">
<!-- Generated by graphviz version 2.43.0 (0)
 -->
<!-- Title: amr_wind::actuator::TurbineBaseData Pages: 1 -->
<svg width="1243pt" height="275pt"
 viewBox="0.00 0.00 1243.00 274.50" xmlns="http://www.w3.org/2000/svg" xmlns:xlink="http://www.w3.org/1999/xlink">
<g id="graph0" class="graph" transform="scale(1 1) rotate(0) translate(4 270.5)">
<title>amr_wind::actuator::TurbineBaseData</title>
<polygon fill="white" stroke="transparent" points="-4,4 -4,-270.5 1239,-270.5 1239,4 -4,4"/>
<!-- Node1 -->
<g id="node1" class="node">
<title>Node1</title>
<g id="a_node1"><a xlink:title=" ">
<polygon fill="#bfbfbf" stroke="black" points="1124,-94.5 1124,-124.5 1235,-124.5 1235,-94.5 1124,-94.5"/>
<text text-anchor="start" x="1132" y="-112.5" font-family="Helvetica,sans-Serif" font-size="10.00">amr_wind::actuator</text>
<text text-anchor="middle" x="1179.5" y="-101.5" font-family="Helvetica,sans-Serif" font-size="10.00">::TurbineBaseData</text>
</a>
</g>
</g>
<!-- Node2 -->
<g id="node2" class="node">
<title>Node2</title>
<g id="a_node2"><a xlink:title=" ">
<polygon fill="white" stroke="#bfbfbf" points="891,-94.5 891,-124.5 1052,-124.5 1052,-94.5 891,-94.5"/>
<text text-anchor="start" x="899" y="-112.5" font-family="Helvetica,sans-Serif" font-size="10.00">std::vector&lt; amr_wind</text>
<text text-anchor="middle" x="971.5" y="-101.5" font-family="Helvetica,sans-Serif" font-size="10.00">::actuator::ComponentView &gt;</text>
</a>
</g>
</g>
<!-- Node2&#45;&gt;Node1 -->
<g id="edge1" class="edge">
<title>Node2&#45;&gt;Node1</title>
<path fill="none" stroke="#9a32cd" stroke-dasharray="5,2" d="M1062.36,-109.5C1083.33,-109.5 1105.03,-109.5 1123.92,-109.5"/>
<polygon fill="#9a32cd" stroke="#9a32cd" points="1062.15,-106 1052.14,-109.5 1062.14,-113 1062.15,-106"/>
<text text-anchor="middle" x="1088" y="-112.5" font-family="Helvetica,sans-Serif" font-size="10.00"> blades</text>
</g>
<!-- Node3 -->
<g id="node3" class="node">
<title>Node3</title>
<g id="a_node3"><a xlink:href="structamr__wind_1_1actuator_1_1_component_view.html" target="_top" xlink:title="Slice of actutator data for components (tower, blade, etc)">
<polygon fill="white" stroke="black" points="635,-153.5 635,-183.5 746,-183.5 746,-153.5 635,-153.5"/>
<text text-anchor="start" x="643" y="-171.5" font-family="Helvetica,sans-Serif" font-size="10.00">amr_wind::actuator</text>
<text text-anchor="middle" x="690.5" y="-160.5" font-family="Helvetica,sans-Serif" font-size="10.00">::ComponentView</text>
</a>
</g>
</g>
<!-- Node3&#45;&gt;Node1 -->
<g id="edge14" class="edge">
<title>Node3&#45;&gt;Node1</title>
<path fill="none" stroke="#9a32cd" stroke-dasharray="5,2" d="M756.39,-164.47C828.76,-159.48 949.17,-149.75 1052,-134.5 1075.69,-130.99 1101.68,-126.04 1123.9,-121.48"/>
<polygon fill="#9a32cd" stroke="#9a32cd" points="755.81,-161 746.07,-165.17 756.29,-167.98 755.81,-161"/>
<text text-anchor="middle" x="971.5" y="-166.5" font-family="Helvetica,sans-Serif" font-size="10.00"> hub</text>
<text text-anchor="middle" x="971.5" y="-155.5" font-family="Helvetica,sans-Serif" font-size="10.00">tower</text>
</g>
<!-- Node3&#45;&gt;Node2 -->
<g id="edge2" class="edge">
<title>Node3&#45;&gt;Node2</title>
<path fill="none" stroke="#9a32cd" stroke-dasharray="5,2" d="M740.94,-150.21C748.6,-147.74 756.47,-145.4 764,-143.5 805.39,-133.04 852.29,-125.02 890.92,-119.4"/>
<polygon fill="#9a32cd" stroke="#9a32cd" points="739.78,-146.91 731.4,-153.39 741.99,-153.55 739.78,-146.91"/>
<text text-anchor="middle" x="818.5" y="-146.5" font-family="Helvetica,sans-Serif" font-size="10.00"> elements</text>
</g>
<!-- Node4 -->
<g id="node4" class="node">
<title>Node4</title>
<g id="a_node4"><a xlink:href="structamr__wind_1_1utils_1_1_slice.html" target="_top" xlink:title=" ">
<polygon fill="white" stroke="black" points="410.5,-159.5 410.5,-189.5 531.5,-189.5 531.5,-159.5 410.5,-159.5"/>
<text text-anchor="start" x="418.5" y="-177.5" font-family="Helvetica,sans-Serif" font-size="10.00">amr_wind::utils::Slice</text>
<text text-anchor="middle" x="471" y="-166.5" font-family="Helvetica,sans-Serif" font-size="10.00">&lt; amrex::Real &gt;</text>
</a>
</g>
</g>
<!-- Node4&#45;&gt;Node3 -->
<g id="edge3" class="edge">
<title>Node4&#45;&gt;Node3</title>
<path fill="none" stroke="#9a32cd" stroke-dasharray="5,2" d="M541.74,-172.58C571.84,-171.75 606.55,-170.79 634.76,-170.01"/>
<polygon fill="#9a32cd" stroke="#9a32cd" points="541.62,-169.08 531.72,-172.85 541.81,-176.08 541.62,-169.08"/>
<text text-anchor="middle" x="588.5" y="-174.5" font-family="Helvetica,sans-Serif" font-size="10.00"> chord</text>
</g>
<!-- Node5 -->
<g id="node5" class="node">
<title>Node5</title>
<g id="a_node5"><a xlink:href="structamr__wind_1_1utils_1_1_slice.html" target="_top" xlink:title=" ">
<polygon fill="white" stroke="black" points="83.5,-166 83.5,-185 232.5,-185 232.5,-166 83.5,-166"/>
<text text-anchor="middle" x="158" y="-173" font-family="Helvetica,sans-Serif" font-size="10.00">amr_wind::utils::Slice&lt; T &gt;</text>
</a>
</g>
</g>
<!-- Node5&#45;&gt;Node4 -->
<g id="edge4" class="edge">
<title>Node5&#45;&gt;Node4</title>
<path fill="none" stroke="orange" stroke-dasharray="5,2" d="M242.75,-175.23C295.68,-175.06 362.82,-174.84 410.36,-174.69"/>
<polygon fill="orange" stroke="orange" points="242.69,-171.73 232.7,-175.26 242.71,-178.73 242.69,-171.73"/>
<text text-anchor="middle" x="317.5" y="-177.5" font-family="Helvetica,sans-Serif" font-size="10.00"> &lt; amrex::Real &gt;</text>
</g>
<!-- Node6 -->
<g id="node6" class="node">
<title>Node6</title>
<g id="a_node6"><a xlink:href="structamr__wind_1_1utils_1_1_slice.html" target="_top" xlink:title=" ">
<polygon fill="white" stroke="black" points="400,-110.5 400,-140.5 542,-140.5 542,-110.5 400,-110.5"/>
<text text-anchor="start" x="408" y="-128.5" font-family="Helvetica,sans-Serif" font-size="10.00">amr_wind::utils::Slice</text>
<text text-anchor="middle" x="471" y="-117.5" font-family="Helvetica,sans-Serif" font-size="10.00">&lt; amr_wind::vs::Tensor &gt;</text>
</a>
</g>
</g>
<!-- Node5&#45;&gt;Node6 -->
<g id="edge7" class="edge">
<title>Node5&#45;&gt;Node6</title>
<path fill="none" stroke="orange" stroke-dasharray="5,2" d="M224.14,-164.3C233.81,-162.67 243.66,-161.03 253,-159.5 301.92,-151.5 357.12,-142.86 399.6,-136.29"/>
<polygon fill="orange" stroke="orange" points="223.43,-160.87 214.15,-165.99 224.6,-167.77 223.43,-160.87"/>
<text text-anchor="middle" x="317.5" y="-162.5" font-family="Helvetica,sans-Serif" font-size="10.00"> &lt; amr_wind::vs::Tensor &gt;</text>
</g>
<!-- Node8 -->
<g id="node8" class="node">
<title>Node8</title>
<g id="a_node8"><a xlink:href="structamr__wind_1_1utils_1_1_slice.html" target="_top" xlink:title=" ">
<polygon fill="white" stroke="black" points="400.5,-208.5 400.5,-238.5 541.5,-238.5 541.5,-208.5 400.5,-208.5"/>
<text text-anchor="start" x="408.5" y="-226.5" font-family="Helvetica,sans-Serif" font-size="10.00">amr_wind::utils::Slice</text>
<text text-anchor="middle" x="471" y="-215.5" font-family="Helvetica,sans-Serif" font-size="10.00">&lt; amr_wind::vs::Vector &gt;</text>
</a>
</g>
</g>
<!-- Node5&#45;&gt;Node8 -->
<g id="edge11" class="edge">
<title>Node5&#45;&gt;Node8</title>
<path fill="none" stroke="orange" stroke-dasharray="5,2" d="M232.38,-186.57C275.89,-193.16 332.1,-201.73 382,-209.5 387.96,-210.43 394.15,-211.4 400.35,-212.38"/>
<polygon fill="orange" stroke="orange" points="232.87,-183.1 222.46,-185.06 231.82,-190.02 232.87,-183.1"/>
<text text-anchor="middle" x="317.5" y="-212.5" font-family="Helvetica,sans-Serif" font-size="10.00"> &lt; amr_wind::vs::Vector &gt;</text>
</g>
<!-- Node6&#45;&gt;Node3 -->
<g id="edge5" class="edge">
<title>Node6&#45;&gt;Node3</title>
<path fill="none" stroke="#9a32cd" stroke-dasharray="5,2" d="M552.03,-141.32C579.56,-146.76 609.74,-152.73 634.79,-157.68"/>
<polygon fill="#9a32cd" stroke="#9a32cd" points="552.5,-137.85 542.02,-139.34 551.15,-144.72 552.5,-137.85"/>
<text text-anchor="middle" x="588.5" y="-155.5" font-family="Helvetica,sans-Serif" font-size="10.00"> orientation</text>
</g>
<!-- Node7 -->
<g id="node7" class="node">
<title>Node7</title>
<g id="a_node7"><a xlink:href="structamr__wind_1_1vs_1_1_tensor_t.html" target="_top" xlink:title="Tensor in 3D vector space.">
<polygon fill="white" stroke="black" points="81,-88 81,-107 235,-107 235,-88 81,-88"/>
<text text-anchor="middle" x="158" y="-95" font-family="Helvetica,sans-Serif" font-size="10.00">amr_wind::vs::TensorT&lt; T &gt;</text>
</a>
</g>
</g>
<!-- Node7&#45;&gt;Node6 -->
<g id="edge6" class="edge">
<title>Node7&#45;&gt;Node6</title>
<path fill="none" stroke="#9a32cd" stroke-dasharray="5,2" d="M245.15,-91.36C286.73,-89.95 337.2,-90.54 382,-97.5 398.63,-100.08 416.43,-105.26 431.63,-110.46"/>
<polygon fill="#9a32cd" stroke="#9a32cd" points="244.91,-87.86 235.05,-91.74 245.18,-94.86 244.91,-87.86"/>
<text text-anchor="middle" x="317.5" y="-111.5" font-family="Helvetica,sans-Serif" font-size="10.00"> ptr_begin</text>
<text text-anchor="middle" x="317.5" y="-100.5" font-family="Helvetica,sans-Serif" font-size="10.00">ptr_end</text>
</g>
<!-- Node8&#45;&gt;Node3 -->
<g id="edge8" class="edge">
<title>Node8&#45;&gt;Node3</title>
<path fill="none" stroke="#9a32cd" stroke-dasharray="5,2" d="M541.49,-205.93C571.74,-198.28 606.66,-189.45 634.98,-182.29"/>
<polygon fill="#9a32cd" stroke="#9a32cd" points="540.27,-202.63 531.43,-208.47 541.99,-209.41 540.27,-202.63"/>
<text text-anchor="middle" x="588.5" y="-258.5" font-family="Helvetica,sans-Serif" font-size="10.00"> vel_rel</text>
<text text-anchor="middle" x="588.5" y="-247.5" font-family="Helvetica,sans-Serif" font-size="10.00">vel_pos</text>
<text text-anchor="middle" x="588.5" y="-236.5" font-family="Helvetica,sans-Serif" font-size="10.00">force</text>
<text text-anchor="middle" x="588.5" y="-225.5" font-family="Helvetica,sans-Serif" font-size="10.00">vel</text>
<text text-anchor="middle" x="588.5" y="-214.5" font-family="Helvetica,sans-Serif" font-size="10.00">epsilon</text>
<text text-anchor="middle" x="588.5" y="-203.5" font-family="Helvetica,sans-Serif" font-size="10.00">pos</text>
</g>
<!-- Node9 -->
<g id="node9" class="node">
<title>Node9</title>
<g id="a_node9"><a xlink:href="structamr__wind_1_1vs_1_1_vector_t.html" target="_top" xlink:title="Vector in 3D space.">
<polygon fill="white" stroke="black" points="81.5,-219 81.5,-238 234.5,-238 234.5,-219 81.5,-219"/>
<text text-anchor="middle" x="158" y="-226" font-family="Helvetica,sans-Serif" font-size="10.00">amr_wind::vs::VectorT&lt; T &gt;</text>
</a>
</g>
</g>
<!-- Node9&#45;&gt;Node8 -->
<g id="edge9" class="edge">
<title>Node9&#45;&gt;Node8</title>
<path fill="none" stroke="#9a32cd" stroke-dasharray="5,2" d="M244.94,-227.12C293.89,-226.33 354.42,-225.36 400.37,-224.62"/>
<polygon fill="#9a32cd" stroke="#9a32cd" points="244.62,-223.62 234.68,-227.28 244.74,-230.62 244.62,-223.62"/>
<text text-anchor="middle" x="317.5" y="-240.5" font-family="Helvetica,sans-Serif" font-size="10.00"> ptr_begin</text>
<text text-anchor="middle" x="317.5" y="-229.5" font-family="Helvetica,sans-Serif" font-size="10.00">ptr_end</text>
</g>
<!-- Node10 -->
<g id="node10" class="node">
<title>Node10</title>
<g id="a_node10"><a xlink:title=" ">
<polygon fill="white" stroke="#bfbfbf" points="0,-66 0,-85 29,-85 29,-66 0,-66"/>
<text text-anchor="middle" x="14.5" y="-73" font-family="Helvetica,sans-Serif" font-size="10.00">T</text>
</a>
</g>
</g>
<!-- Node10&#45;&gt;Node9 -->
<g id="edge10" class="edge">
<title>Node10&#45;&gt;Node9</title>
<path fill="none" stroke="#9a32cd" stroke-dasharray="5,2" d="M21.77,-94.92C30.98,-120.75 50.49,-166.41 81,-194.5 93.02,-205.56 109.23,-213.48 123.6,-218.88"/>
<polygon fill="#9a32cd" stroke="#9a32cd" points="24.98,-93.51 18.44,-85.17 18.36,-95.77 24.98,-93.51"/>
<text text-anchor="middle" x="55" y="-174.5" font-family="Helvetica,sans-Serif" font-size="10.00"> vv</text>
</g>
<!-- Node11 -->
<g id="node11" class="node">
<title>Node11</title>
<g id="a_node11"><a xlink:title="STL class.">
<polygon fill="white" stroke="#bfbfbf" points="642,-50 642,-69 739,-69 739,-50 642,-50"/>
<text text-anchor="middle" x="690.5" y="-57" font-family="Helvetica,sans-Serif" font-size="10.00">std::vector&lt; T &gt;</text>
</a>
</g>
</g>
<!-- Node10&#45;&gt;Node11 -->
<g id="edge13" class="edge">
<title>Node10&#45;&gt;Node11</title>
<path fill="none" stroke="#9a32cd" stroke-dasharray="5,2" d="M39.33,-74.93C137.12,-72.61 508.82,-63.79 641.82,-60.63"/>
<polygon fill="#9a32cd" stroke="#9a32cd" points="39.18,-71.44 29.27,-75.17 39.35,-78.43 39.18,-71.44"/>
<text text-anchor="middle" x="317.5" y="-72.5" font-family="Helvetica,sans-Serif" font-size="10.00"> elements</text>
</g>
<!-- Node11&#45;&gt;Node2 -->
<g id="edge12" class="edge">
<title>Node11&#45;&gt;Node2</title>
<path fill="none" stroke="orange" stroke-dasharray="5,2" d="M743.01,-71.23C750.05,-72.73 757.2,-74.19 764,-75.5 805.74,-83.54 852.46,-91.33 890.89,-97.42"/>
<polygon fill="orange" stroke="orange" points="743.34,-67.72 732.83,-69.02 741.86,-74.56 743.34,-67.72"/>
<text text-anchor="start" x="764" y="-107.5" font-family="Helvetica,sans-Serif" font-size="10.00"> &lt; amr_wind::actuator</text>
<text text-anchor="middle" x="818.5" y="-96.5" font-family="Helvetica,sans-Serif" font-size="10.00">::ComponentView &gt;</text>
</g>
<!-- Node12 -->
<g id="node12" class="node">
<title>Node12</title>
<g id="a_node12"><a xlink:title=" ">
<polygon fill="white" stroke="#bfbfbf" points="907.5,-37.5 907.5,-67.5 1035.5,-67.5 1035.5,-37.5 907.5,-37.5"/>
<text text-anchor="start" x="915.5" y="-55.5" font-family="Helvetica,sans-Serif" font-size="10.00">std::vector&lt; amr_wind</text>
<text text-anchor="middle" x="971.5" y="-44.5" font-family="Helvetica,sans-Serif" font-size="10.00">::actuator::FLLCData &gt;</text>
</a>
</g>
</g>
<!-- Node11&#45;&gt;Node12 -->
<g id="edge17" class="edge">
<title>Node11&#45;&gt;Node12</title>
<path fill="none" stroke="orange" stroke-dasharray="5,2" d="M749.25,-54.31C754.24,-53.99 759.21,-53.71 764,-53.5 811.99,-51.4 866.32,-51.23 907.2,-51.53"/>
<polygon fill="orange" stroke="orange" points="748.77,-50.84 739.04,-55.03 749.27,-57.82 748.77,-50.84"/>
<text text-anchor="start" x="764" y="-67.5" font-family="Helvetica,sans-Serif" font-size="10.00"> &lt; amr_wind::actuator</text>
<text text-anchor="middle" x="818.5" y="-56.5" font-family="Helvetica,sans-Serif" font-size="10.00">::FLLCData &gt;</text>
</g>
<!-- Node12&#45;&gt;Node1 -->
<g id="edge15" class="edge">
<title>Node12&#45;&gt;Node1</title>
<path fill="none" stroke="#9a32cd" stroke-dasharray="5,2" d="M1036.62,-70.24C1064.7,-78.01 1097.3,-87.03 1124.16,-94.46"/>
<polygon fill="#9a32cd" stroke="#9a32cd" points="1037.46,-66.84 1026.89,-67.55 1035.6,-73.59 1037.46,-66.84"/>
<text text-anchor="middle" x="1088" y="-91.5" font-family="Helvetica,sans-Serif" font-size="10.00"> fllc</text>
</g>
<!-- Node13 -->
<g id="node13" class="node">
<title>Node13</title>
<g id="a_node13"><a xlink:href="structamr__wind_1_1actuator_1_1_f_l_l_c_data.html" target="_top" xlink:title=" ">
<polygon fill="white" stroke="black" points="635,-0.5 635,-30.5 746,-30.5 746,-0.5 635,-0.5"/>
<text text-anchor="start" x="643" y="-18.5" font-family="Helvetica,sans-Serif" font-size="10.00">amr_wind::actuator</text>
<text text-anchor="middle" x="690.5" y="-7.5" font-family="Helvetica,sans-Serif" font-size="10.00">::FLLCData</text>
</a>
</g>
</g>
<!-- Node13&#45;&gt;Node12 -->
<g id="edge16" class="edge">
<title>Node13&#45;&gt;Node12</title>
<path fill="none" stroke="#9a32cd" stroke-dasharray="5,2" d="M756.39,-22.25C791.04,-26.05 834.4,-31.1 873,-36.5 884.13,-38.06 895.94,-39.86 907.37,-41.69"/>
<polygon fill="#9a32cd" stroke="#9a32cd" points="756.71,-18.77 746.39,-21.17 755.95,-25.73 756.71,-18.77"/>
<text text-anchor="middle" x="818.5" y="-39.5" font-family="Helvetica,sans-Serif" font-size="10.00"> elements</text>
</g>
</g>
</svg>
