<?xml version="1.0" encoding="UTF-8" standalone="no"?>
<!DOCTYPE svg PUBLIC "-//W3C//DTD SVG 1.1//EN"
 "http://www.w3.org/Graphics/SVG/1.1/DTD/svg11.dtd">
<!-- Generated by graphviz version 2.43.0 (0)
 -->
<!-- Title: amr_wind::pde::AdvectionOp&lt; PDE, fvm::Godunov, typename std::enable_if&lt; std::is_base_of&lt; ScalarTransport, PDE &gt;::value &gt;::type &gt; Pages: 1 -->
<!--zoomable 686 -->
<svg id="main" version="1.1" xmlns="http://www.w3.org/2000/svg" xmlns:xlink="http://www.w3.org/1999/xlink" xml:space="preserve" onload="init(evt)">
<style type="text/css"><![CDATA[
.edge:hover path { stroke: red; }
.edge:hover polygon { stroke: red; fill: red; }
]]></style>
<script type="text/javascript"><![CDATA[
var edges = document.getElementsByTagName('g');
if (edges && edges.length) {
  for (var i=0;i<edges.length;i++) {
    if (edges[i].id.substr(0,4)=='edge') {
      edges[i].setAttribute('class','edge');
    }
  }
}
]]></script>
        <defs>
                <circle id="rim" cx="0" cy="0" r="7"/>
                <circle id="rim2" cx="0" cy="0" r="3.5"/>
                <g id="zoomPlus">
                        <use xlink:href="#rim" fill="#404040">
                                <set attributeName="fill" to="#808080" begin="zoomplus.mouseover" end="zoomplus.mouseout"/>
                        </use>
                        <path d="M-4,0h8M0,-4v8" fill="none" stroke="white" stroke-width="1.5" pointer-events="none"/>
                </g>
                <g id="zoomMin">
                        <use xlink:href="#rim" fill="#404040">
                                <set attributeName="fill" to="#808080" begin="zoomminus.mouseover" end="zoomminus.mouseout"/>
                        </use>
                        <path d="M-4,0h8" fill="none" stroke="white" stroke-width="1.5" pointer-events="none"/>
                </g>
                <g id="dirArrow">
                        <path fill="none" stroke="white" stroke-width="1.5" d="M0,-3.0v7 M-2.5,-0.5L0,-3.0L2.5,-0.5"/>
                </g>
               <g id="resetDef">
                       <use xlink:href="#rim2" fill="#404040">
                               <set attributeName="fill" to="#808080" begin="reset.mouseover" end="reset.mouseout"/>
                       </use>
               </g>
        </defs>

<script type="text/javascript">
var viewWidth = 712;
var viewHeight = 686;
var sectionId = 'dynsection-0';
</script>
<script xlink:href="svgpan.js"/>
<svg id="graph" class="graph">
<g id="viewport">
<title>amr_wind::pde::AdvectionOp&lt; PDE, fvm::Godunov, typename std::enable_if&lt; std::is_base_of&lt; ScalarTransport, PDE &gt;::value &gt;::type &gt;</title>
<polygon fill="white" stroke="transparent" points="-4,4 -4,-682 708,-682 708,4 -4,4"/>
<!-- Node1 -->
<g id="node1" class="node">
<title>Node1</title>
<g id="a_node1"><a xlink:title="Godunov advection operator for scalar transport equations.">
<polygon fill="#bfbfbf" stroke="black" points="0,-0.5 0,-63.5 190,-63.5 190,-0.5 0,-0.5"/>
<text text-anchor="start" x="8" y="-51.5" font-family="Helvetica,sans-Serif" font-size="10.00">amr_wind::pde::Advection</text>
<text text-anchor="start" x="8" y="-40.5" font-family="Helvetica,sans-Serif" font-size="10.00">Op&lt; PDE, fvm::Godunov,</text>
<text text-anchor="start" x="8" y="-29.5" font-family="Helvetica,sans-Serif" font-size="10.00"> typename std::enable_if</text>
<text text-anchor="start" x="8" y="-18.5" font-family="Helvetica,sans-Serif" font-size="10.00">&lt; std::is_base_of&lt; ScalarTransport,</text>
<text text-anchor="middle" x="95" y="-7.5" font-family="Helvetica,sans-Serif" font-size="10.00"> PDE &gt;::value &gt;::type &gt;</text>
</a>
</g>
</g>
<!-- Node2 -->
<g id="node2" class="node">
<title>Node2</title>
<g id="a_node2"><a xlink:href="classamr__wind_1_1_field.html" target="_top" xlink:title="Computational field.">
<polygon fill="white" stroke="black" points="97,-246.5 97,-265.5 191,-265.5 191,-246.5 97,-246.5"/>
<text text-anchor="middle" x="144" y="-253.5" font-family="Helvetica,sans-Serif" font-size="10.00">amr_wind::Field</text>
</a>
</g>
</g>
<!-- Node2&#45;&gt;Node1 -->
<g id="edge1" class="edge">
<title>Node2&#45;&gt;Node1</title>
<path fill="none" stroke="#9a32cd" stroke-dasharray="5,2" d="M134.97,-237.27C125.46,-217.69 110.92,-184.96 104,-155 96.95,-124.48 95.03,-88.63 94.68,-63.72"/>
<polygon fill="#9a32cd" stroke="#9a32cd" points="131.95,-239.07 139.53,-246.46 138.22,-235.95 131.95,-239.07"/>
<text text-anchor="middle" x="124" y="-147" font-family="Helvetica,sans-Serif" font-size="10.00"> density</text>
<text text-anchor="middle" x="124" y="-136" font-family="Helvetica,sans-Serif" font-size="10.00">u_mac</text>
<text text-anchor="middle" x="124" y="-125" font-family="Helvetica,sans-Serif" font-size="10.00">v_mac</text>
<text text-anchor="middle" x="124" y="-114" font-family="Helvetica,sans-Serif" font-size="10.00">w_mac</text>
</g>
<!-- Node16 -->
<g id="node16" class="node">
<title>Node16</title>
<g id="a_node16"><a xlink:href="structamr__wind_1_1pde_1_1_p_d_e_fields.html" target="_top" xlink:title="Collection of fields related to a PDE.">
<polygon fill="white" stroke="black" points="153.5,-123.5 153.5,-142.5 296.5,-142.5 296.5,-123.5 153.5,-123.5"/>
<text text-anchor="middle" x="225" y="-130.5" font-family="Helvetica,sans-Serif" font-size="10.00">amr_wind::pde::PDEFields</text>
</a>
</g>
</g>
<!-- Node2&#45;&gt;Node16 -->
<g id="edge21" class="edge">
<title>Node2&#45;&gt;Node16</title>
<path fill="none" stroke="#9a32cd" stroke-dasharray="5,2" d="M143.75,-236.24C144.41,-218.44 147.81,-191.72 161,-173 170.97,-158.86 187.85,-148.88 201.78,-142.56"/>
<polygon fill="#9a32cd" stroke="#9a32cd" points="140.25,-236.43 143.64,-246.47 147.25,-236.51 140.25,-236.43"/>
<text text-anchor="middle" x="187" y="-220" font-family="Helvetica,sans-Serif" font-size="10.00"> src_term</text>
<text text-anchor="middle" x="187" y="-209" font-family="Helvetica,sans-Serif" font-size="10.00">field</text>
<text text-anchor="middle" x="187" y="-198" font-family="Helvetica,sans-Serif" font-size="10.00">diff_term</text>
<text text-anchor="middle" x="187" y="-187" font-family="Helvetica,sans-Serif" font-size="10.00">mueff</text>
<text text-anchor="middle" x="187" y="-176" font-family="Helvetica,sans-Serif" font-size="10.00">conv_term</text>
</g>
<!-- Node3 -->
<g id="node3" class="node">
<title>Node3</title>
<g id="a_node3"><a xlink:title=" ">
<polygon fill="white" stroke="#bfbfbf" points="346,-324.5 346,-354.5 466,-354.5 466,-324.5 346,-324.5"/>
<text text-anchor="start" x="354" y="-342.5" font-family="Helvetica,sans-Serif" font-size="10.00">std::shared_ptr&lt; amr</text>
<text text-anchor="middle" x="406" y="-331.5" font-family="Helvetica,sans-Serif" font-size="10.00">_wind::FieldInfo &gt;</text>
</a>
</g>
</g>
<!-- Node3&#45;&gt;Node2 -->
<g id="edge2" class="edge">
<title>Node3&#45;&gt;Node2</title>
<path fill="none" stroke="#9a32cd" stroke-dasharray="5,2" d="M351.39,-321.51C296.5,-304.44 214.11,-278.81 171.59,-265.58"/>
<polygon fill="#9a32cd" stroke="#9a32cd" points="350.37,-324.86 360.96,-324.49 352.45,-318.18 350.37,-324.86"/>
<text text-anchor="middle" x="316.5" y="-292.5" font-family="Helvetica,sans-Serif" font-size="10.00"> m_info</text>
</g>
<!-- Node4 -->
<g id="node4" class="node">
<title>Node4</title>
<g id="a_node4"><a xlink:href="structamr__wind_1_1_field_info.html" target="_top" xlink:title="Information common to a field that has multiple states.">
<polygon fill="white" stroke="black" points="349.5,-419 349.5,-438 462.5,-438 462.5,-419 349.5,-419"/>
<text text-anchor="middle" x="406" y="-426" font-family="Helvetica,sans-Serif" font-size="10.00">amr_wind::FieldInfo</text>
</a>
</g>
</g>
<!-- Node4&#45;&gt;Node3 -->
<g id="edge3" class="edge">
<title>Node4&#45;&gt;Node3</title>
<path fill="none" stroke="#9a32cd" stroke-dasharray="5,2" d="M406,-408.41C406,-392.15 406,-369.16 406,-354.55"/>
<polygon fill="#9a32cd" stroke="#9a32cd" points="402.5,-408.84 406,-418.84 409.5,-408.84 402.5,-408.84"/>
<text text-anchor="middle" x="414.5" y="-381.5" font-family="Helvetica,sans-Serif" font-size="10.00"> ptr</text>
</g>
<!-- Node5 -->
<g id="node5" class="node">
<title>Node5</title>
<g id="a_node5"><a xlink:title=" ">
<polygon fill="white" stroke="#bfbfbf" points="362.5,-491.5 362.5,-521.5 531.5,-521.5 531.5,-491.5 362.5,-491.5"/>
<text text-anchor="start" x="370.5" y="-509.5" font-family="Helvetica,sans-Serif" font-size="10.00">std::unique_ptr&lt; amr</text>
<text text-anchor="middle" x="447" y="-498.5" font-family="Helvetica,sans-Serif" font-size="10.00">_wind::FieldFillPatchOpsBase &gt;</text>
</a>
</g>
</g>
<!-- Node5&#45;&gt;Node4 -->
<g id="edge4" class="edge">
<title>Node5&#45;&gt;Node4</title>
<path fill="none" stroke="#9a32cd" stroke-dasharray="5,2" d="M435.54,-482.19C432.22,-475.62 428.53,-468.49 425,-462 420.56,-453.85 415.2,-444.74 411.31,-438.25"/>
<polygon fill="#9a32cd" stroke="#9a32cd" points="432.48,-483.9 440.08,-491.28 438.74,-480.77 432.48,-483.9"/>
<text text-anchor="middle" x="467.5" y="-465" font-family="Helvetica,sans-Serif" font-size="10.00"> m_fillpatch_op</text>
</g>
<!-- Node6 -->
<g id="node6" class="node">
<title>Node6</title>
<g id="a_node6"><a xlink:href="classamr__wind_1_1_field_fill_patch_ops_base.html" target="_top" xlink:title="Abstract interface for classes that handle fill patch and physical boundary condition operations for ...">
<polygon fill="white" stroke="black" points="341,-580.5 341,-610.5 475,-610.5 475,-580.5 341,-580.5"/>
<text text-anchor="start" x="349" y="-598.5" font-family="Helvetica,sans-Serif" font-size="10.00">amr_wind::FieldFillPatch</text>
<text text-anchor="middle" x="408" y="-587.5" font-family="Helvetica,sans-Serif" font-size="10.00">OpsBase</text>
</a>
</g>
</g>
<!-- Node6&#45;&gt;Node5 -->
<g id="edge5" class="edge">
<title>Node6&#45;&gt;Node5</title>
<path fill="none" stroke="#9a32cd" stroke-dasharray="5,2" d="M404.25,-570.37C403.77,-560.53 404.61,-549.3 409,-540 412.41,-532.78 418.27,-526.55 424.39,-521.53"/>
<polygon fill="#9a32cd" stroke="#9a32cd" points="400.77,-570.72 405.19,-580.35 407.74,-570.06 400.77,-570.72"/>
<text text-anchor="middle" x="417.5" y="-548.5" font-family="Helvetica,sans-Serif" font-size="10.00"> ptr</text>
</g>
<!-- Node7 -->
<g id="node7" class="node">
<title>Node7</title>
<g id="a_node7"><a xlink:title="STL class.">
<polygon fill="white" stroke="#bfbfbf" points="493,-586 493,-605 611,-605 611,-586 493,-586"/>
<text text-anchor="middle" x="552" y="-593" font-family="Helvetica,sans-Serif" font-size="10.00">std::unique_ptr&lt; T &gt;</text>
</a>
</g>
</g>
<!-- Node7&#45;&gt;Node5 -->
<g id="edge6" class="edge">
<title>Node7&#45;&gt;Node5</title>
<path fill="none" stroke="orange" stroke-dasharray="5,2" d="M506.1,-583.4C478.52,-576.27 447.99,-567.37 444,-562 435.52,-550.59 438.01,-533.84 441.52,-521.93"/>
<polygon fill="orange" stroke="orange" points="505.52,-586.87 516.08,-585.94 507.25,-580.08 505.52,-586.87"/>
<text text-anchor="start" x="444" y="-554" font-family="Helvetica,sans-Serif" font-size="10.00"> &lt; amr_wind::FieldFillPatch</text>
<text text-anchor="middle" x="510.5" y="-543" font-family="Helvetica,sans-Serif" font-size="10.00">OpsBase &gt;</text>
</g>
<!-- Node8 -->
<g id="node8" class="node">
<title>Node8</title>
<g id="a_node8"><a xlink:title=" ">
<polygon fill="white" stroke="#bfbfbf" points="537.5,-658.5 537.5,-677.5 566.5,-677.5 566.5,-658.5 537.5,-658.5"/>
<text text-anchor="middle" x="552" y="-665.5" font-family="Helvetica,sans-Serif" font-size="10.00">T</text>
</a>
</g>
</g>
<!-- Node8&#45;&gt;Node7 -->
<g id="edge7" class="edge">
<title>Node8&#45;&gt;Node7</title>
<path fill="none" stroke="#9a32cd" stroke-dasharray="5,2" d="M552,-647.94C552,-634.03 552,-615.82 552,-605.22"/>
<polygon fill="#9a32cd" stroke="#9a32cd" points="548.5,-648.36 552,-658.36 555.5,-648.36 548.5,-648.36"/>
<text text-anchor="middle" x="560.5" y="-632" font-family="Helvetica,sans-Serif" font-size="10.00"> ptr</text>
</g>
<!-- Node11 -->
<g id="node11" class="node">
<title>Node11</title>
<g id="a_node11"><a xlink:title="STL class.">
<polygon fill="white" stroke="#bfbfbf" points="586,-541.5 586,-560.5 704,-560.5 704,-541.5 586,-541.5"/>
<text text-anchor="middle" x="645" y="-548.5" font-family="Helvetica,sans-Serif" font-size="10.00">std::shared_ptr&lt; T &gt;</text>
</a>
</g>
</g>
<!-- Node8&#45;&gt;Node11 -->
<g id="edge11" class="edge">
<title>Node8&#45;&gt;Node11</title>
<path fill="none" stroke="#9a32cd" stroke-dasharray="5,2" d="M574.41,-652.75C588.97,-642.57 607.5,-627.74 620,-611 631.85,-595.13 639.31,-572.81 642.75,-560.67"/>
<polygon fill="#9a32cd" stroke="#9a32cd" points="572.27,-649.97 565.95,-658.47 576.19,-655.77 572.27,-649.97"/>
<text text-anchor="middle" x="610.5" y="-632" font-family="Helvetica,sans-Serif" font-size="10.00"> ptr</text>
</g>
<!-- Node14 -->
<g id="node14" class="node">
<title>Node14</title>
<g id="a_node14"><a xlink:title="STL class.">
<polygon fill="white" stroke="#bfbfbf" points="230,-491.5 230,-521.5 344,-521.5 344,-491.5 230,-491.5"/>
<text text-anchor="start" x="238" y="-509.5" font-family="Helvetica,sans-Serif" font-size="10.00">std::unordered_map</text>
<text text-anchor="middle" x="287" y="-498.5" font-family="Helvetica,sans-Serif" font-size="10.00">&lt; K, T &gt;</text>
</a>
</g>
</g>
<!-- Node8&#45;&gt;Node14 -->
<g id="edge18" class="edge">
<title>Node8&#45;&gt;Node14</title>
<path fill="none" stroke="#9a32cd" stroke-dasharray="5,2" d="M527.15,-666.53C459.28,-664.66 273.3,-655.49 236,-611 212.71,-583.22 247.85,-542.98 270.43,-521.79"/>
<polygon fill="#9a32cd" stroke="#9a32cd" points="527.26,-670.03 537.35,-666.78 527.44,-663.03 527.26,-670.03"/>
<text text-anchor="middle" x="260.5" y="-593" font-family="Helvetica,sans-Serif" font-size="10.00"> elements</text>
</g>
<!-- Node9 -->
<g id="node9" class="node">
<title>Node9</title>
<g id="a_node9"><a xlink:title="STL class.">
<polygon fill="white" stroke="#bfbfbf" points="106.5,-497 106.5,-516 171.5,-516 171.5,-497 106.5,-497"/>
<text text-anchor="middle" x="139" y="-504" font-family="Helvetica,sans-Serif" font-size="10.00">std::string</text>
</a>
</g>
</g>
<!-- Node9&#45;&gt;Node1 -->
<g id="edge19" class="edge">
<title>Node9&#45;&gt;Node1</title>
<path fill="none" stroke="#9a32cd" stroke-dasharray="5,2" d="M104.92,-492.99C79.09,-481.06 48,-460.3 48,-429.5 48,-429.5 48,-429.5 48,-132 48,-107.46 59.93,-82.51 71.78,-63.8"/>
<polygon fill="#9a32cd" stroke="#9a32cd" points="103.57,-496.22 114.13,-496.99 106.35,-489.8 103.57,-496.22"/>
<text text-anchor="middle" x="86" y="-298" font-family="Helvetica,sans-Serif" font-size="10.00"> godunov_type</text>
<text text-anchor="middle" x="86" y="-287" font-family="Helvetica,sans-Serif" font-size="10.00">advection_type</text>
</g>
<!-- Node9&#45;&gt;Node2 -->
<g id="edge12" class="edge">
<title>Node9&#45;&gt;Node2</title>
<path fill="none" stroke="#9a32cd" stroke-dasharray="5,2" d="M139.37,-486.92C140.38,-436.92 143.12,-300.92 143.83,-265.52"/>
<polygon fill="#9a32cd" stroke="#9a32cd" points="135.87,-486.88 139.17,-496.95 142.87,-487.02 135.87,-486.88"/>
<text text-anchor="middle" x="165" y="-381.5" font-family="Helvetica,sans-Serif" font-size="10.00"> m_name</text>
</g>
<!-- Node9&#45;&gt;Node4 -->
<g id="edge8" class="edge">
<title>Node9&#45;&gt;Node4</title>
<path fill="none" stroke="#9a32cd" stroke-dasharray="5,2" d="M164.02,-492.15C174.82,-486.34 187.57,-479.4 199,-473 207.51,-468.23 208.83,-465.33 218,-462 241.59,-453.44 303.1,-443.63 349.39,-437.05"/>
<polygon fill="#9a32cd" stroke="#9a32cd" points="162.27,-489.12 155.11,-496.93 165.58,-495.29 162.27,-489.12"/>
<text text-anchor="middle" x="253" y="-465" font-family="Helvetica,sans-Serif" font-size="10.00"> m_basename</text>
</g>
<!-- Node13 -->
<g id="node13" class="node">
<title>Node13</title>
<g id="a_node13"><a xlink:title=" ">
<polygon fill="white" stroke="#bfbfbf" points="167,-413.5 167,-443.5 289,-443.5 289,-413.5 167,-413.5"/>
<text text-anchor="start" x="175" y="-431.5" font-family="Helvetica,sans-Serif" font-size="10.00">std::unordered_map</text>
<text text-anchor="middle" x="228" y="-420.5" font-family="Helvetica,sans-Serif" font-size="10.00">&lt; std::string, size_t &gt;</text>
</a>
</g>
</g>
<!-- Node9&#45;&gt;Node13 -->
<g id="edge15" class="edge">
<title>Node9&#45;&gt;Node13</title>
<path fill="none" stroke="#9a32cd" stroke-dasharray="5,2" d="M150.21,-488.23C156.29,-479.69 164.33,-469.62 173,-462 180.92,-455.05 190.53,-448.78 199.5,-443.65"/>
<polygon fill="#9a32cd" stroke="#9a32cd" points="147.18,-486.47 144.44,-496.7 152.96,-490.41 147.18,-486.47"/>
<text text-anchor="middle" x="186" y="-465" font-family="Helvetica,sans-Serif" font-size="10.00"> keys</text>
</g>
<!-- Node10 -->
<g id="node10" class="node">
<title>Node10</title>
<g id="a_node10"><a xlink:title="STL class.">
<polygon fill="white" stroke="#bfbfbf" points="86,-580.5 86,-610.5 190,-610.5 190,-580.5 86,-580.5"/>
<text text-anchor="start" x="94" y="-598.5" font-family="Helvetica,sans-Serif" font-size="10.00">std::basic_string&lt;</text>
<text text-anchor="middle" x="138" y="-587.5" font-family="Helvetica,sans-Serif" font-size="10.00"> char &gt;</text>
</a>
</g>
</g>
<!-- Node10&#45;&gt;Node9 -->
<g id="edge9" class="edge">
<title>Node10&#45;&gt;Node9</title>
<path fill="none" stroke="midnightblue" d="M138.28,-570.06C138.49,-552.13 138.76,-528.8 138.9,-516.31"/>
<polygon fill="midnightblue" stroke="midnightblue" points="134.78,-570.09 138.17,-580.13 141.78,-570.17 134.78,-570.09"/>
</g>
<!-- Node11&#45;&gt;Node3 -->
<g id="edge10" class="edge">
<title>Node11&#45;&gt;Node3</title>
<path fill="none" stroke="orange" stroke-dasharray="5,2" d="M627.33,-534.51C582.61,-495.31 465.42,-392.58 422.26,-354.75"/>
<polygon fill="orange" stroke="orange" points="625.21,-537.3 635.03,-541.26 629.82,-532.04 625.21,-537.3"/>
<text text-anchor="middle" x="615" y="-465" font-family="Helvetica,sans-Serif" font-size="10.00"> &lt; amr_wind::FieldInfo &gt;</text>
</g>
<!-- Node12 -->
<g id="node12" class="node">
<title>Node12</title>
<g id="a_node12"><a xlink:href="classamr__wind_1_1_field_repo.html" target="_top" xlink:title="Field Repository.">
<polygon fill="white" stroke="black" points="167.5,-330 167.5,-349 286.5,-349 286.5,-330 167.5,-330"/>
<text text-anchor="middle" x="227" y="-337" font-family="Helvetica,sans-Serif" font-size="10.00">amr_wind::FieldRepo</text>
</a>
</g>
</g>
<!-- Node12&#45;&gt;Node2 -->
<g id="edge13" class="edge">
<title>Node12&#45;&gt;Node2</title>
<path fill="none" stroke="#9a32cd" stroke-dasharray="5,2" d="M198.89,-325.1C189.94,-319.95 180.44,-313.49 173,-306 161.16,-294.07 152.26,-276.38 147.61,-265.84"/>
<polygon fill="#9a32cd" stroke="#9a32cd" points="197.45,-328.3 207.92,-329.97 200.78,-322.14 197.45,-328.3"/>
<text text-anchor="middle" x="193" y="-292.5" font-family="Helvetica,sans-Serif" font-size="10.00"> m_repo</text>
</g>
<!-- Node12&#45;&gt;Node16 -->
<g id="edge22" class="edge">
<title>Node12&#45;&gt;Node16</title>
<path fill="none" stroke="#9a32cd" stroke-dasharray="5,2" d="M226.82,-319.84C226.4,-277.04 225.38,-173.09 225.08,-142.56"/>
<polygon fill="#9a32cd" stroke="#9a32cd" points="223.32,-320.01 226.92,-329.97 230.32,-319.94 223.32,-320.01"/>
<text text-anchor="middle" x="238.5" y="-253.5" font-family="Helvetica,sans-Serif" font-size="10.00"> repo</text>
</g>
<!-- Node13&#45;&gt;Node12 -->
<g id="edge14" class="edge">
<title>Node13&#45;&gt;Node12</title>
<path fill="none" stroke="#9a32cd" stroke-dasharray="5,2" d="M227.72,-403.06C227.51,-385.13 227.24,-361.8 227.1,-349.31"/>
<polygon fill="#9a32cd" stroke="#9a32cd" points="224.22,-403.17 227.83,-413.13 231.22,-403.09 224.22,-403.17"/>
<text text-anchor="middle" x="263.5" y="-387" font-family="Helvetica,sans-Serif" font-size="10.00"> m_fid_map</text>
<text text-anchor="middle" x="263.5" y="-376" font-family="Helvetica,sans-Serif" font-size="10.00">m_int_fid_map</text>
</g>
<!-- Node14&#45;&gt;Node13 -->
<g id="edge16" class="edge">
<title>Node14&#45;&gt;Node13</title>
<path fill="none" stroke="orange" stroke-dasharray="5,2" d="M295.16,-481.24C296,-474.61 295.5,-467.7 292,-462 287.18,-454.14 279.79,-448.11 271.73,-443.51"/>
<polygon fill="orange" stroke="orange" points="291.7,-480.67 292.95,-491.19 298.53,-482.19 291.7,-480.67"/>
<text text-anchor="middle" x="349.5" y="-465" font-family="Helvetica,sans-Serif" font-size="10.00"> &lt; std::string, size_t &gt;</text>
</g>
<!-- Node15 -->
<g id="node15" class="node">
<title>Node15</title>
<g id="a_node15"><a xlink:title=" ">
<polygon fill="white" stroke="#bfbfbf" points="293.5,-586 293.5,-605 322.5,-605 322.5,-586 293.5,-586"/>
<text text-anchor="middle" x="308" y="-593" font-family="Helvetica,sans-Serif" font-size="10.00">K</text>
</a>
</g>
</g>
<!-- Node15&#45;&gt;Node14 -->
<g id="edge17" class="edge">
<title>Node15&#45;&gt;Node14</title>
<path fill="none" stroke="#9a32cd" stroke-dasharray="5,2" d="M303.5,-575.88C299.57,-559.59 293.95,-536.31 290.39,-521.55"/>
<polygon fill="#9a32cd" stroke="#9a32cd" points="300.16,-576.94 305.91,-585.84 306.97,-575.3 300.16,-576.94"/>
<text text-anchor="middle" x="312" y="-548.5" font-family="Helvetica,sans-Serif" font-size="10.00"> keys</text>
</g>
<!-- Node16&#45;&gt;Node1 -->
<g id="edge20" class="edge">
<title>Node16&#45;&gt;Node1</title>
<path fill="none" stroke="#9a32cd" stroke-dasharray="5,2" d="M205.47,-117.12C186.95,-103.02 158.57,-81.41 135.21,-63.62"/>
<polygon fill="#9a32cd" stroke="#9a32cd" points="203.39,-119.94 213.46,-123.21 207.63,-114.37 203.39,-119.94"/>
<text text-anchor="middle" x="187" y="-85" font-family="Helvetica,sans-Serif" font-size="10.00"> fields</text>
</g>
</g>
</svg>
        <g id="navigator" transform="translate(0 0)" fill="#404254">
                <rect fill="#f2f5e9" fill-opacity="0.5" stroke="#606060" stroke-width=".5" x="0" y="0" width="60" height="60"/>
                <use id="zoomplus" xlink:href="#zoomPlus" x="17" y="9" onmousedown="handleZoom(evt,'in')"/>
                <use id="zoomminus" xlink:href="#zoomMin" x="42" y="9" onmousedown="handleZoom(evt,'out')"/>
                <use id="reset" xlink:href="#resetDef" x="30" y="36" onmousedown="handleReset()"/>
                <g id="arrowUp" xlink:href="#dirArrow" transform="translate(30 24)" onmousedown="handlePan(0,-1)">
                  <use xlink:href="#rim" fill="#404040">
                        <set attributeName="fill" to="#808080" begin="arrowUp.mouseover" end="arrowUp.mouseout"/>
                  </use>
                  <path fill="none" stroke="white" stroke-width="1.5" d="M0,-3.0v7 M-2.5,-0.5L0,-3.0L2.5,-0.5"/>
                </g>
                <g id="arrowRight" xlink:href="#dirArrow" transform="rotate(90) translate(36 -43)" onmousedown="handlePan(1,0)">
                  <use xlink:href="#rim" fill="#404040">
                        <set attributeName="fill" to="#808080" begin="arrowRight.mouseover" end="arrowRight.mouseout"/>
                  </use>
                  <path fill="none" stroke="white" stroke-width="1.5" d="M0,-3.0v7 M-2.5,-0.5L0,-3.0L2.5,-0.5"/>
                </g>
                <g id="arrowDown" xlink:href="#dirArrow" transform="rotate(180) translate(-30 -48)" onmousedown="handlePan(0,1)">
                  <use xlink:href="#rim" fill="#404040">
                        <set attributeName="fill" to="#808080" begin="arrowDown.mouseover" end="arrowDown.mouseout"/>
                  </use>
                  <path fill="none" stroke="white" stroke-width="1.5" d="M0,-3.0v7 M-2.5,-0.5L0,-3.0L2.5,-0.5"/>
                </g>
                <g id="arrowLeft" xlink:href="#dirArrow" transform="rotate(270) translate(-36 17)" onmousedown="handlePan(-1,0)">
                  <use xlink:href="#rim" fill="#404040">
                        <set attributeName="fill" to="#808080" begin="arrowLeft.mouseover" end="arrowLeft.mouseout"/>
                  </use>
                  <path fill="none" stroke="white" stroke-width="1.5" d="M0,-3.0v7 M-2.5,-0.5L0,-3.0L2.5,-0.5"/>
                </g>
        </g>
        <svg viewBox="0 0 15 15" width="100%" height="30px" preserveAspectRatio="xMaxYMin meet">
         <g id="arrow_out" transform="scale(0.3 0.3)">
          <a xlink:href="structamr__wind_1_1pde_1_1_advection_op_3_01_p_d_e_00_01fvm_1_1_godunov_00_01typename_01std_1_1e67b21b13ebe42a3bc0e90017894fc7d7_org.svg" target="_base">
           <rect id="button" ry="5" rx="5" y="6" x="6" height="38" width="38"
                fill="#f2f5e9" fill-opacity="0.5" stroke="#606060" stroke-width="1.0"/>
           <path id="arrow"
             d="M 11.500037,31.436501 C 11.940474,20.09759 22.043105,11.32322 32.158766,21.979434 L 37.068811,17.246167 C 37.068811,17.246167 37.088388,32 37.088388,32 L 22.160133,31.978069 C 22.160133,31.978069 26.997745,27.140456 26.997745,27.140456 C 18.528582,18.264221 13.291696,25.230495 11.500037,31.436501 z"
             style="fill:#404040;"/>
          </a>
         </g>
        </svg>
</svg>
