<?xml version="1.0" encoding="UTF-8" standalone="no"?>
<!DOCTYPE svg PUBLIC "-//W3C//DTD SVG 1.1//EN"
 "http://www.w3.org/Graphics/SVG/1.1/DTD/svg11.dtd">
<!-- Generated by graphviz version 2.43.0 (0)
 -->
<!-- Title: amr_wind::actuator::FlatPlateData Pages: 1 -->
<!--zoomable 268 -->
<svg id="main" version="1.1" xmlns="http://www.w3.org/2000/svg" xmlns:xlink="http://www.w3.org/1999/xlink" xml:space="preserve" onload="init(evt)">
<style type="text/css"><![CDATA[
.edge:hover path { stroke: red; }
.edge:hover polygon { stroke: red; fill: red; }
]]></style>
<script type="text/javascript"><![CDATA[
var edges = document.getElementsByTagName('g');
if (edges && edges.length) {
  for (var i=0;i<edges.length;i++) {
    if (edges[i].id.substr(0,4)=='edge') {
      edges[i].setAttribute('class','edge');
    }
  }
}
]]></script>
        <defs>
                <circle id="rim" cx="0" cy="0" r="7"/>
                <circle id="rim2" cx="0" cy="0" r="3.5"/>
                <g id="zoomPlus">
                        <use xlink:href="#rim" fill="#404040">
                                <set attributeName="fill" to="#808080" begin="zoomplus.mouseover" end="zoomplus.mouseout"/>
                        </use>
                        <path d="M-4,0h8M0,-4v8" fill="none" stroke="white" stroke-width="1.5" pointer-events="none"/>
                </g>
                <g id="zoomMin">
                        <use xlink:href="#rim" fill="#404040">
                                <set attributeName="fill" to="#808080" begin="zoomminus.mouseover" end="zoomminus.mouseout"/>
                        </use>
                        <path d="M-4,0h8" fill="none" stroke="white" stroke-width="1.5" pointer-events="none"/>
                </g>
                <g id="dirArrow">
                        <path fill="none" stroke="white" stroke-width="1.5" d="M0,-3.0v7 M-2.5,-0.5L0,-3.0L2.5,-0.5"/>
                </g>
               <g id="resetDef">
                       <use xlink:href="#rim2" fill="#404040">
                               <set attributeName="fill" to="#808080" begin="reset.mouseover" end="reset.mouseout"/>
                       </use>
               </g>
        </defs>

<script type="text/javascript">
var viewWidth = 1194;
var viewHeight = 268;
var sectionId = 'dynsection-1';
</script>
<script xlink:href="svgpan.js"/>
<svg id="graph" class="graph">
<g id="viewport">
<title>amr_wind::actuator::FlatPlateData</title>
<polygon fill="white" stroke="transparent" points="-4,4 -4,-264 1190,-264 1190,4 -4,4"/>
<!-- Node1 -->
<g id="node1" class="node">
<title>Node1</title>
<g id="a_node1"><a xlink:title=" ">
<polygon fill="#bfbfbf" stroke="black" points="1075,-23 1075,-53 1186,-53 1186,-23 1075,-23"/>
<text text-anchor="start" x="1083" y="-41" font-family="Helvetica,sans-Serif" font-size="10.00">amr_wind::actuator</text>
<text text-anchor="middle" x="1130.5" y="-30" font-family="Helvetica,sans-Serif" font-size="10.00">::FlatPlateData</text>
</a>
</g>
</g>
<!-- Node2 -->
<g id="node2" class="node">
<title>Node2</title>
<g id="a_node2"><a xlink:href="structamr__wind_1_1actuator_1_1_wing_base_data.html" target="_top" xlink:title="Base data representation of a fixed&#45;wing.">
<polygon fill="white" stroke="black" points="883,-59 883,-89 994,-89 994,-59 883,-59"/>
<text text-anchor="start" x="891" y="-77" font-family="Helvetica,sans-Serif" font-size="10.00">amr_wind::actuator</text>
<text text-anchor="middle" x="938.5" y="-66" font-family="Helvetica,sans-Serif" font-size="10.00">::WingBaseData</text>
</a>
</g>
</g>
<!-- Node2&#45;&gt;Node1 -->
<g id="edge1" class="edge">
<title>Node2&#45;&gt;Node1</title>
<path fill="none" stroke="midnightblue" d="M1004.21,-61.74C1027.19,-57.39 1052.8,-52.53 1074.86,-48.35"/>
<polygon fill="midnightblue" stroke="midnightblue" points="1003.37,-58.34 994.2,-63.64 1004.68,-65.21 1003.37,-58.34"/>
</g>
<!-- Node3 -->
<g id="node3" class="node">
<title>Node3</title>
<g id="a_node3"><a xlink:href="structamr__wind_1_1actuator_1_1_component_view.html" target="_top" xlink:title="Slice of actutator data for components (tower, blade, etc)">
<polygon fill="white" stroke="black" points="649,-123 649,-153 760,-153 760,-123 649,-123"/>
<text text-anchor="start" x="657" y="-141" font-family="Helvetica,sans-Serif" font-size="10.00">amr_wind::actuator</text>
<text text-anchor="middle" x="704.5" y="-130" font-family="Helvetica,sans-Serif" font-size="10.00">::ComponentView</text>
</a>
</g>
</g>
<!-- Node3&#45;&gt;Node2 -->
<g id="edge2" class="edge">
<title>Node3&#45;&gt;Node2</title>
<path fill="none" stroke="#9a32cd" stroke-dasharray="5,2" d="M769.71,-120.29C805.32,-110.46 849.12,-98.38 883.05,-89.02"/>
<polygon fill="#9a32cd" stroke="#9a32cd" points="768.6,-116.96 759.89,-122.99 770.46,-123.71 768.6,-116.96"/>
<text text-anchor="middle" x="821.5" y="-120" font-family="Helvetica,sans-Serif" font-size="10.00"> component_view</text>
</g>
<!-- Node4 -->
<g id="node4" class="node">
<title>Node4</title>
<g id="a_node4"><a xlink:href="structamr__wind_1_1utils_1_1_slice.html" target="_top" xlink:title=" ">
<polygon fill="white" stroke="black" points="418,-162 418,-192 539,-192 539,-162 418,-162"/>
<text text-anchor="start" x="426" y="-180" font-family="Helvetica,sans-Serif" font-size="10.00">amr_wind::utils::Slice</text>
<text text-anchor="middle" x="478.5" y="-169" font-family="Helvetica,sans-Serif" font-size="10.00">&lt; amrex::Real &gt;</text>
</a>
</g>
</g>
<!-- Node4&#45;&gt;Node3 -->
<g id="edge3" class="edge">
<title>Node4&#45;&gt;Node3</title>
<path fill="none" stroke="#9a32cd" stroke-dasharray="5,2" d="M549.45,-174.05C575.28,-172.04 604.67,-168.67 631,-163 642.32,-160.56 654.32,-156.89 665.23,-153.11"/>
<polygon fill="#9a32cd" stroke="#9a32cd" points="549.08,-170.57 539.36,-174.78 549.59,-177.55 549.08,-170.57"/>
<text text-anchor="middle" x="602.5" y="-174" font-family="Helvetica,sans-Serif" font-size="10.00"> chord</text>
</g>
<!-- Node5 -->
<g id="node5" class="node">
<title>Node5</title>
<g id="a_node5"><a xlink:href="structamr__wind_1_1utils_1_1_slice.html" target="_top" xlink:title=" ">
<polygon fill="white" stroke="black" points="84.5,-167.5 84.5,-186.5 233.5,-186.5 233.5,-167.5 84.5,-167.5"/>
<text text-anchor="middle" x="159" y="-174.5" font-family="Helvetica,sans-Serif" font-size="10.00">amr_wind::utils::Slice&lt; T &gt;</text>
</a>
</g>
</g>
<!-- Node5&#45;&gt;Node4 -->
<g id="edge4" class="edge">
<title>Node5&#45;&gt;Node4</title>
<path fill="none" stroke="orange" stroke-dasharray="5,2" d="M243.67,-177C298.43,-177 368.66,-177 417.8,-177"/>
<polygon fill="orange" stroke="orange" points="243.64,-173.5 233.64,-177 243.64,-180.5 243.64,-173.5"/>
<text text-anchor="middle" x="318.5" y="-180" font-family="Helvetica,sans-Serif" font-size="10.00"> &lt; amrex::Real &gt;</text>
</g>
<!-- Node6 -->
<g id="node6" class="node">
<title>Node6</title>
<g id="a_node6"><a xlink:href="structamr__wind_1_1utils_1_1_slice.html" target="_top" xlink:title=" ">
<polygon fill="white" stroke="black" points="407.5,-211 407.5,-241 549.5,-241 549.5,-211 407.5,-211"/>
<text text-anchor="start" x="415.5" y="-229" font-family="Helvetica,sans-Serif" font-size="10.00">amr_wind::utils::Slice</text>
<text text-anchor="middle" x="478.5" y="-218" font-family="Helvetica,sans-Serif" font-size="10.00">&lt; amr_wind::vs::Tensor &gt;</text>
</a>
</g>
</g>
<!-- Node5&#45;&gt;Node6 -->
<g id="edge7" class="edge">
<title>Node5&#45;&gt;Node6</title>
<path fill="none" stroke="orange" stroke-dasharray="5,2" d="M231.51,-188.04C284.02,-196.14 355.01,-207.1 407.23,-215.15"/>
<polygon fill="orange" stroke="orange" points="232.01,-184.57 221.59,-186.51 230.94,-191.49 232.01,-184.57"/>
<text text-anchor="middle" x="318.5" y="-213" font-family="Helvetica,sans-Serif" font-size="10.00"> &lt; amr_wind::vs::Tensor &gt;</text>
</g>
<!-- Node8 -->
<g id="node8" class="node">
<title>Node8</title>
<g id="a_node8"><a xlink:href="structamr__wind_1_1utils_1_1_slice.html" target="_top" xlink:title=" ">
<polygon fill="white" stroke="black" points="408,-85 408,-115 549,-115 549,-85 408,-85"/>
<text text-anchor="start" x="416" y="-103" font-family="Helvetica,sans-Serif" font-size="10.00">amr_wind::utils::Slice</text>
<text text-anchor="middle" x="478.5" y="-92" font-family="Helvetica,sans-Serif" font-size="10.00">&lt; amr_wind::vs::Vector &gt;</text>
</a>
</g>
</g>
<!-- Node5&#45;&gt;Node8 -->
<g id="edge11" class="edge">
<title>Node5&#45;&gt;Node8</title>
<path fill="none" stroke="orange" stroke-dasharray="5,2" d="M209.19,-165.07C264.71,-151.61 355.11,-129.68 415.43,-115.05"/>
<polygon fill="orange" stroke="orange" points="208.14,-161.72 199.25,-167.48 209.79,-168.53 208.14,-161.72"/>
<text text-anchor="middle" x="318.5" y="-155" font-family="Helvetica,sans-Serif" font-size="10.00"> &lt; amr_wind::vs::Vector &gt;</text>
</g>
<!-- Node6&#45;&gt;Node3 -->
<g id="edge5" class="edge">
<title>Node6&#45;&gt;Node3</title>
<path fill="none" stroke="#9a32cd" stroke-dasharray="5,2" d="M559.71,-210.02C583.23,-203.96 608.63,-196.03 631,-186 650.42,-177.29 670.44,-163.62 684.51,-153.08"/>
<polygon fill="#9a32cd" stroke="#9a32cd" points="558.62,-206.68 549.76,-212.5 560.31,-213.47 558.62,-206.68"/>
<text text-anchor="middle" x="602.5" y="-209" font-family="Helvetica,sans-Serif" font-size="10.00"> orientation</text>
</g>
<!-- Node7 -->
<g id="node7" class="node">
<title>Node7</title>
<g id="a_node7"><a xlink:href="structamr__wind_1_1vs_1_1_tensor_t.html" target="_top" xlink:title="Tensor in 3D vector space.">
<polygon fill="white" stroke="black" points="82,-235.5 82,-254.5 236,-254.5 236,-235.5 82,-235.5"/>
<text text-anchor="middle" x="159" y="-242.5" font-family="Helvetica,sans-Serif" font-size="10.00">amr_wind::vs::TensorT&lt; T &gt;</text>
</a>
</g>
</g>
<!-- Node7&#45;&gt;Node6 -->
<g id="edge6" class="edge">
<title>Node7&#45;&gt;Node6</title>
<path fill="none" stroke="#9a32cd" stroke-dasharray="5,2" d="M246.32,-239.83C296.92,-236.81 360.01,-233.03 407.5,-230.19"/>
<polygon fill="#9a32cd" stroke="#9a32cd" points="245.82,-236.36 236.05,-240.45 246.24,-243.35 245.82,-236.36"/>
<text text-anchor="middle" x="318.5" y="-252" font-family="Helvetica,sans-Serif" font-size="10.00"> ptr_begin</text>
<text text-anchor="middle" x="318.5" y="-241" font-family="Helvetica,sans-Serif" font-size="10.00">ptr_end</text>
</g>
<!-- Node8&#45;&gt;Node3 -->
<g id="edge8" class="edge">
<title>Node8&#45;&gt;Node3</title>
<path fill="none" stroke="#9a32cd" stroke-dasharray="5,2" d="M559.33,-90.24C582.74,-89.56 608.17,-90.99 631,-97 650.16,-102.04 669.57,-113.43 683.49,-122.93"/>
<polygon fill="#9a32cd" stroke="#9a32cd" points="558.92,-86.76 549.08,-90.68 559.22,-93.75 558.92,-86.76"/>
<text text-anchor="middle" x="602.5" y="-155" font-family="Helvetica,sans-Serif" font-size="10.00"> vel_rel</text>
<text text-anchor="middle" x="602.5" y="-144" font-family="Helvetica,sans-Serif" font-size="10.00">vel_pos</text>
<text text-anchor="middle" x="602.5" y="-133" font-family="Helvetica,sans-Serif" font-size="10.00">force</text>
<text text-anchor="middle" x="602.5" y="-122" font-family="Helvetica,sans-Serif" font-size="10.00">vel</text>
<text text-anchor="middle" x="602.5" y="-111" font-family="Helvetica,sans-Serif" font-size="10.00">epsilon</text>
<text text-anchor="middle" x="602.5" y="-100" font-family="Helvetica,sans-Serif" font-size="10.00">pos</text>
</g>
<!-- Node9 -->
<g id="node9" class="node">
<title>Node9</title>
<g id="a_node9"><a xlink:href="structamr__wind_1_1vs_1_1_vector_t.html" target="_top" xlink:title="Vector in 3D space.">
<polygon fill="white" stroke="black" points="82.5,-88.5 82.5,-107.5 235.5,-107.5 235.5,-88.5 82.5,-88.5"/>
<text text-anchor="middle" x="159" y="-95.5" font-family="Helvetica,sans-Serif" font-size="10.00">amr_wind::vs::VectorT&lt; T &gt;</text>
</a>
</g>
</g>
<!-- Node9&#45;&gt;Node8 -->
<g id="edge9" class="edge">
<title>Node9&#45;&gt;Node8</title>
<path fill="none" stroke="#9a32cd" stroke-dasharray="5,2" d="M245.67,-98.26C287.15,-98.42 337.67,-98.66 383,-99 391.04,-99.06 399.46,-99.13 407.83,-99.21"/>
<polygon fill="#9a32cd" stroke="#9a32cd" points="245.62,-94.76 235.61,-98.22 245.59,-101.76 245.62,-94.76"/>
<text text-anchor="middle" x="318.5" y="-113" font-family="Helvetica,sans-Serif" font-size="10.00"> ptr_begin</text>
<text text-anchor="middle" x="318.5" y="-102" font-family="Helvetica,sans-Serif" font-size="10.00">ptr_end</text>
</g>
<!-- Node10 -->
<g id="node10" class="node">
<title>Node10</title>
<g id="a_node10"><a xlink:title=" ">
<polygon fill="white" stroke="#bfbfbf" points="0,-44.5 0,-63.5 29,-63.5 29,-44.5 0,-44.5"/>
<text text-anchor="middle" x="14.5" y="-51.5" font-family="Helvetica,sans-Serif" font-size="10.00">T</text>
</a>
</g>
</g>
<!-- Node10&#45;&gt;Node9 -->
<g id="edge10" class="edge">
<title>Node10&#45;&gt;Node9</title>
<path fill="none" stroke="#9a32cd" stroke-dasharray="5,2" d="M38.51,-62.88C51.24,-67.64 67.39,-73.45 82,-78 93.98,-81.73 107.17,-85.36 119.15,-88.49"/>
<polygon fill="#9a32cd" stroke="#9a32cd" points="39.73,-59.59 29.13,-59.32 37.25,-66.14 39.73,-59.59"/>
<text text-anchor="middle" x="55.5" y="-75" font-family="Helvetica,sans-Serif" font-size="10.00"> vv</text>
</g>
<!-- Node13 -->
<g id="node13" class="node">
<title>Node13</title>
<g id="a_node13"><a xlink:title="STL class.">
<polygon fill="white" stroke="#bfbfbf" points="100,-0.5 100,-19.5 218,-19.5 218,-0.5 100,-0.5"/>
<text text-anchor="middle" x="159" y="-7.5" font-family="Helvetica,sans-Serif" font-size="10.00">std::unique_ptr&lt; T &gt;</text>
</a>
</g>
</g>
<!-- Node10&#45;&gt;Node13 -->
<g id="edge15" class="edge">
<title>Node10&#45;&gt;Node13</title>
<path fill="none" stroke="#9a32cd" stroke-dasharray="5,2" d="M38.46,-44.63C51.17,-39.63 67.32,-33.58 82,-29 93.04,-25.56 105.12,-22.31 116.34,-19.5"/>
<polygon fill="#9a32cd" stroke="#9a32cd" points="37.08,-41.41 29.1,-48.36 39.68,-47.91 37.08,-41.41"/>
<text text-anchor="middle" x="55.5" y="-45" font-family="Helvetica,sans-Serif" font-size="10.00"> ptr</text>
</g>
<!-- Node11 -->
<g id="node11" class="node">
<title>Node11</title>
<g id="a_node11"><a xlink:title=" ">
<polygon fill="white" stroke="#bfbfbf" points="401,-36 401,-66 556,-66 556,-36 401,-36"/>
<text text-anchor="start" x="409" y="-54" font-family="Helvetica,sans-Serif" font-size="10.00">std::unique_ptr&lt; amr</text>
<text text-anchor="middle" x="478.5" y="-43" font-family="Helvetica,sans-Serif" font-size="10.00">_wind::actuator::FLLCData &gt;</text>
</a>
</g>
</g>
<!-- Node11&#45;&gt;Node2 -->
<g id="edge12" class="edge">
<title>Node11&#45;&gt;Node2</title>
<path fill="none" stroke="#9a32cd" stroke-dasharray="5,2" d="M566.41,-55.36C659.56,-60.04 804.58,-67.33 882.9,-71.26"/>
<polygon fill="#9a32cd" stroke="#9a32cd" points="566.32,-51.86 556.16,-54.85 565.97,-58.85 566.32,-51.86"/>
<text text-anchor="middle" x="704.5" y="-68" font-family="Helvetica,sans-Serif" font-size="10.00"> fllc</text>
</g>
<!-- Node12 -->
<g id="node12" class="node">
<title>Node12</title>
<g id="a_node12"><a xlink:href="structamr__wind_1_1actuator_1_1_f_l_l_c_data.html" target="_top" xlink:title=" ">
<polygon fill="white" stroke="black" points="103.5,-39 103.5,-69 214.5,-69 214.5,-39 103.5,-39"/>
<text text-anchor="start" x="111.5" y="-57" font-family="Helvetica,sans-Serif" font-size="10.00">amr_wind::actuator</text>
<text text-anchor="middle" x="159" y="-46" font-family="Helvetica,sans-Serif" font-size="10.00">::FLLCData</text>
</a>
</g>
</g>
<!-- Node12&#45;&gt;Node11 -->
<g id="edge13" class="edge">
<title>Node12&#45;&gt;Node11</title>
<path fill="none" stroke="#9a32cd" stroke-dasharray="5,2" d="M224.82,-53.39C275.8,-52.91 346.96,-52.23 400.78,-51.72"/>
<polygon fill="#9a32cd" stroke="#9a32cd" points="224.55,-49.89 214.58,-53.48 224.61,-56.89 224.55,-49.89"/>
<text text-anchor="middle" x="318.5" y="-57" font-family="Helvetica,sans-Serif" font-size="10.00"> ptr</text>
</g>
<!-- Node13&#45;&gt;Node11 -->
<g id="edge14" class="edge">
<title>Node13&#45;&gt;Node11</title>
<path fill="none" stroke="orange" stroke-dasharray="5,2" d="M228.19,-11.59C272.54,-13.44 331.5,-17.42 383,-26 397.56,-28.43 413.14,-32.09 427.37,-35.87"/>
<polygon fill="orange" stroke="orange" points="228.24,-8.09 218.11,-11.2 227.96,-15.08 228.24,-8.09"/>
<text text-anchor="start" x="264" y="-40" font-family="Helvetica,sans-Serif" font-size="10.00"> &lt; amr_wind::actuator</text>
<text text-anchor="middle" x="318.5" y="-29" font-family="Helvetica,sans-Serif" font-size="10.00">::FLLCData &gt;</text>
</g>
<!-- Node14 -->
<g id="node14" class="node">
<title>Node14</title>
<g id="a_node14"><a xlink:href="classamr__wind_1_1actuator_1_1_thin_airfoil.html" target="_top" xlink:title=" ">
<polygon fill="white" stroke="black" points="883,-10 883,-40 994,-40 994,-10 883,-10"/>
<text text-anchor="start" x="891" y="-28" font-family="Helvetica,sans-Serif" font-size="10.00">amr_wind::actuator</text>
<text text-anchor="middle" x="938.5" y="-17" font-family="Helvetica,sans-Serif" font-size="10.00">::ThinAirfoil</text>
</a>
</g>
</g>
<!-- Node14&#45;&gt;Node1 -->
<g id="edge16" class="edge">
<title>Node14&#45;&gt;Node1</title>
<path fill="none" stroke="#9a32cd" stroke-dasharray="5,2" d="M1004.21,-29.43C1027.19,-31 1052.8,-32.75 1074.86,-34.26"/>
<polygon fill="#9a32cd" stroke="#9a32cd" points="1004.42,-25.93 994.2,-28.74 1003.94,-32.92 1004.42,-25.93"/>
<text text-anchor="middle" x="1034.5" y="-36" font-family="Helvetica,sans-Serif" font-size="10.00"> aflookup</text>
</g>
</g>
</svg>
        <g id="navigator" transform="translate(0 0)" fill="#404254">
                <rect fill="#f2f5e9" fill-opacity="0.5" stroke="#606060" stroke-width=".5" x="0" y="0" width="60" height="60"/>
                <use id="zoomplus" xlink:href="#zoomPlus" x="17" y="9" onmousedown="handleZoom(evt,'in')"/>
                <use id="zoomminus" xlink:href="#zoomMin" x="42" y="9" onmousedown="handleZoom(evt,'out')"/>
                <use id="reset" xlink:href="#resetDef" x="30" y="36" onmousedown="handleReset()"/>
                <g id="arrowUp" xlink:href="#dirArrow" transform="translate(30 24)" onmousedown="handlePan(0,-1)">
                  <use xlink:href="#rim" fill="#404040">
                        <set attributeName="fill" to="#808080" begin="arrowUp.mouseover" end="arrowUp.mouseout"/>
                  </use>
                  <path fill="none" stroke="white" stroke-width="1.5" d="M0,-3.0v7 M-2.5,-0.5L0,-3.0L2.5,-0.5"/>
                </g>
                <g id="arrowRight" xlink:href="#dirArrow" transform="rotate(90) translate(36 -43)" onmousedown="handlePan(1,0)">
                  <use xlink:href="#rim" fill="#404040">
                        <set attributeName="fill" to="#808080" begin="arrowRight.mouseover" end="arrowRight.mouseout"/>
                  </use>
                  <path fill="none" stroke="white" stroke-width="1.5" d="M0,-3.0v7 M-2.5,-0.5L0,-3.0L2.5,-0.5"/>
                </g>
                <g id="arrowDown" xlink:href="#dirArrow" transform="rotate(180) translate(-30 -48)" onmousedown="handlePan(0,1)">
                  <use xlink:href="#rim" fill="#404040">
                        <set attributeName="fill" to="#808080" begin="arrowDown.mouseover" end="arrowDown.mouseout"/>
                  </use>
                  <path fill="none" stroke="white" stroke-width="1.5" d="M0,-3.0v7 M-2.5,-0.5L0,-3.0L2.5,-0.5"/>
                </g>
                <g id="arrowLeft" xlink:href="#dirArrow" transform="rotate(270) translate(-36 17)" onmousedown="handlePan(-1,0)">
                  <use xlink:href="#rim" fill="#404040">
                        <set attributeName="fill" to="#808080" begin="arrowLeft.mouseover" end="arrowLeft.mouseout"/>
                  </use>
                  <path fill="none" stroke="white" stroke-width="1.5" d="M0,-3.0v7 M-2.5,-0.5L0,-3.0L2.5,-0.5"/>
                </g>
        </g>
        <svg viewBox="0 0 15 15" width="100%" height="30px" preserveAspectRatio="xMaxYMin meet">
         <g id="arrow_out" transform="scale(0.3 0.3)">
          <a xlink:href="structamr__wind_1_1actuator_1_1_flat_plate_data__coll__graph_org.svg" target="_base">
           <rect id="button" ry="5" rx="5" y="6" x="6" height="38" width="38"
                fill="#f2f5e9" fill-opacity="0.5" stroke="#606060" stroke-width="1.0"/>
           <path id="arrow"
             d="M 11.500037,31.436501 C 11.940474,20.09759 22.043105,11.32322 32.158766,21.979434 L 37.068811,17.246167 C 37.068811,17.246167 37.088388,32 37.088388,32 L 22.160133,31.978069 C 22.160133,31.978069 26.997745,27.140456 26.997745,27.140456 C 18.528582,18.264221 13.291696,25.230495 11.500037,31.436501 z"
             style="fill:#404040;"/>
          </a>
         </g>
        </svg>
</svg>
