<?xml version="1.0" encoding="UTF-8" standalone="no"?>
<!DOCTYPE svg PUBLIC "-//W3C//DTD SVG 1.1//EN"
 "http://www.w3.org/Graphics/SVG/1.1/DTD/svg11.dtd">
<!-- Generated by graphviz version 2.43.0 (0)
 -->
<!-- Title: trig_ops.H Pages: 1 -->
<!--zoomable 375 -->
<svg id="main" version="1.1" xmlns="http://www.w3.org/2000/svg" xmlns:xlink="http://www.w3.org/1999/xlink" xml:space="preserve" onload="init(evt)">
<style type="text/css"><![CDATA[
.edge:hover path { stroke: red; }
.edge:hover polygon { stroke: red; fill: red; }
]]></style>
<script type="text/javascript"><![CDATA[
var edges = document.getElementsByTagName('g');
if (edges && edges.length) {
  for (var i=0;i<edges.length;i++) {
    if (edges[i].id.substr(0,4)=='edge') {
      edges[i].setAttribute('class','edge');
    }
  }
}
]]></script>
        <defs>
                <circle id="rim" cx="0" cy="0" r="7"/>
                <circle id="rim2" cx="0" cy="0" r="3.5"/>
                <g id="zoomPlus">
                        <use xlink:href="#rim" fill="#404040">
                                <set attributeName="fill" to="#808080" begin="zoomplus.mouseover" end="zoomplus.mouseout"/>
                        </use>
                        <path d="M-4,0h8M0,-4v8" fill="none" stroke="white" stroke-width="1.5" pointer-events="none"/>
                </g>
                <g id="zoomMin">
                        <use xlink:href="#rim" fill="#404040">
                                <set attributeName="fill" to="#808080" begin="zoomminus.mouseover" end="zoomminus.mouseout"/>
                        </use>
                        <path d="M-4,0h8" fill="none" stroke="white" stroke-width="1.5" pointer-events="none"/>
                </g>
                <g id="dirArrow">
                        <path fill="none" stroke="white" stroke-width="1.5" d="M0,-3.0v7 M-2.5,-0.5L0,-3.0L2.5,-0.5"/>
                </g>
               <g id="resetDef">
                       <use xlink:href="#rim2" fill="#404040">
                               <set attributeName="fill" to="#808080" begin="reset.mouseover" end="reset.mouseout"/>
                       </use>
               </g>
        </defs>

<script type="text/javascript">
var viewWidth = 2971;
var viewHeight = 375;
var sectionId = 'dynsection-1';
</script>
<script xlink:href="svgpan.js"/>
<svg id="graph" class="graph">
<g id="viewport">
<title>trig_ops.H</title>
<polygon fill="white" stroke="transparent" points="-4,4 -4,-371 2967.27,-371 2967.27,4 -4,4"/>
<!-- Node1 -->
<g id="node1" class="node">
<title>Node1</title>
<g id="a_node1"><a xlink:title=" ">
<polygon fill="#bfbfbf" stroke="black" points="1834.77,-347.5 1834.77,-366.5 1900.77,-366.5 1900.77,-347.5 1834.77,-347.5"/>
<text text-anchor="middle" x="1867.77" y="-354.5" font-family="Helvetica,sans-Serif" font-size="10.00">trig_ops.H</text>
</a>
</g>
</g>
<!-- Node2 -->
<g id="node2" class="node">
<title>Node2</title>
<g id="a_node2"><a xlink:href="tensor_i_8_h.html" target="_top" xlink:title=" ">
<polygon fill="white" stroke="black" points="1004.27,-291.5 1004.27,-310.5 1065.27,-310.5 1065.27,-291.5 1004.27,-291.5"/>
<text text-anchor="middle" x="1034.77" y="-298.5" font-family="Helvetica,sans-Serif" font-size="10.00">tensorI.H</text>
</a>
</g>
</g>
<!-- Node1&#45;&gt;Node2 -->
<g id="edge1" class="edge">
<title>Node1&#45;&gt;Node2</title>
<path fill="none" stroke="midnightblue" d="M1824.53,-353.2C1676.49,-343.6 1192.12,-312.2 1065.36,-303.98"/>
<polygon fill="midnightblue" stroke="midnightblue" points="1824.4,-356.7 1834.6,-353.85 1824.85,-349.71 1824.4,-356.7"/>
</g>
<!-- Node43 -->
<g id="node6" class="node">
<title>Node43</title>
<g id="a_node6"><a xlink:href="_a_b_l_modulated_power_law_8_h.html" target="_top" xlink:title=" ">
<polygon fill="white" stroke="black" points="1269.77,-123.5 1269.77,-142.5 1415.77,-142.5 1415.77,-123.5 1269.77,-123.5"/>
<text text-anchor="middle" x="1342.77" y="-130.5" font-family="Helvetica,sans-Serif" font-size="10.00">ABLModulatedPowerLaw.H</text>
</a>
</g>
</g>
<!-- Node1&#45;&gt;Node43 -->
<g id="edge52" class="edge">
<title>Node1&#45;&gt;Node43</title>
<path fill="none" stroke="midnightblue" d="M1824.43,-356.74C1726.71,-357.6 1492.8,-354.88 1429.77,-311 1369.07,-268.74 1348.86,-171.79 1344.03,-142.52"/>
<polygon fill="midnightblue" stroke="midnightblue" points="1824.59,-360.24 1834.56,-356.63 1824.52,-353.24 1824.59,-360.24"/>
</g>
<!-- Node45 -->
<g id="node8" class="node">
<title>Node45</title>
<g id="a_node8"><a xlink:href="_a_b_l_forcing_8cpp.html" target="_top" xlink:title=" ">
<polygon fill="white" stroke="black" points="1352.27,-6 1352.27,-25 1443.27,-25 1443.27,-6 1352.27,-6"/>
<text text-anchor="middle" x="1397.77" y="-13" font-family="Helvetica,sans-Serif" font-size="10.00">ABLForcing.cpp</text>
</a>
</g>
</g>
<!-- Node1&#45;&gt;Node45 -->
<g id="edge53" class="edge">
<title>Node1&#45;&gt;Node45</title>
<path fill="none" stroke="midnightblue" d="M1824.26,-353.94C1716.11,-347.63 1443.77,-324.01 1443.77,-246 1443.77,-246 1443.77,-246 1443.77,-132 1443.77,-89.26 1416.25,-43.54 1403.78,-25.02"/>
<polygon fill="midnightblue" stroke="midnightblue" points="1824.32,-357.45 1834.5,-354.51 1824.71,-350.46 1824.32,-357.45"/>
</g>
<!-- Node51 -->
<g id="node14" class="node">
<title>Node51</title>
<g id="a_node14"><a xlink:href="_a_b_l_wall_function_8cpp.html" target="_top" xlink:title=" ">
<polygon fill="white" stroke="black" points="2067.27,-6 2067.27,-25 2184.27,-25 2184.27,-6 2067.27,-6"/>
<text text-anchor="middle" x="2125.77" y="-13" font-family="Helvetica,sans-Serif" font-size="10.00">ABLWallFunction.cpp</text>
</a>
</g>
</g>
<!-- Node1&#45;&gt;Node51 -->
<g id="edge66" class="edge">
<title>Node1&#45;&gt;Node51</title>
<path fill="none" stroke="midnightblue" d="M1824.07,-354.22C1762,-350.68 1653.1,-340.34 1628.77,-311 1623.1,-304.16 1623.57,-298.21 1628.77,-291 1666.57,-238.55 1848.22,-230.34 1904.77,-199 1998.35,-147.15 2090.62,-53.67 2117.78,-25.05"/>
<polygon fill="midnightblue" stroke="midnightblue" points="1824.18,-357.73 1834.35,-354.77 1824.55,-350.74 1824.18,-357.73"/>
</g>
<!-- Node62 -->
<g id="node21" class="node">
<title>Node62</title>
<g id="a_node21"><a xlink:href="_synthetic_turbulence_8cpp.html" target="_top" xlink:title=" ">
<polygon fill="white" stroke="black" points="165.27,-67.5 165.27,-86.5 300.27,-86.5 300.27,-67.5 165.27,-67.5"/>
<text text-anchor="middle" x="232.77" y="-74.5" font-family="Helvetica,sans-Serif" font-size="10.00">SyntheticTurbulence.cpp</text>
</a>
</g>
</g>
<!-- Node1&#45;&gt;Node62 -->
<g id="edge62" class="edge">
<title>Node1&#45;&gt;Node62</title>
<path fill="none" stroke="midnightblue" d="M1824.39,-355.78C1544.14,-354.09 0.77,-340.47 0.77,-246 0.77,-246 0.77,-246 0.77,-188 0.77,-157.9 -2.31,-143.46 19.77,-123 40.7,-103.61 111.05,-91.43 165.23,-84.71"/>
<polygon fill="midnightblue" stroke="midnightblue" points="1824.55,-359.28 1834.57,-355.84 1824.59,-352.28 1824.55,-359.28"/>
</g>
<!-- Node90 -->
<g id="node31" class="node">
<title>Node90</title>
<g id="a_node31"><a xlink:href="_a_b_l_forcing_8_h.html" target="_top" xlink:title=" ">
<polygon fill="white" stroke="black" points="1472.27,-67.5 1472.27,-86.5 1553.27,-86.5 1553.27,-67.5 1472.27,-67.5"/>
<text text-anchor="middle" x="1512.77" y="-74.5" font-family="Helvetica,sans-Serif" font-size="10.00">ABLForcing.H</text>
</a>
</g>
</g>
<!-- Node1&#45;&gt;Node90 -->
<g id="edge35" class="edge">
<title>Node1&#45;&gt;Node90</title>
<path fill="none" stroke="midnightblue" d="M1824.31,-356.38C1767.16,-355.29 1664.84,-347.73 1586.77,-311 1547.16,-292.36 1512.77,-289.77 1512.77,-246 1512.77,-246 1512.77,-246 1512.77,-188 1512.77,-150.19 1512.77,-105.06 1512.77,-86.56"/>
<polygon fill="midnightblue" stroke="midnightblue" points="1824.4,-359.89 1834.44,-356.52 1824.49,-352.89 1824.4,-359.89"/>
</g>
<!-- Node92 -->
<g id="node33" class="node">
<title>Node92</title>
<g id="a_node33"><a xlink:href="_m_o_data_8_h.html" target="_top" xlink:title=" ">
<polygon fill="white" stroke="black" points="1614.27,-235.5 1614.27,-254.5 1681.27,-254.5 1681.27,-235.5 1614.27,-235.5"/>
<text text-anchor="middle" x="1647.77" y="-242.5" font-family="Helvetica,sans-Serif" font-size="10.00">MOData.H</text>
</a>
</g>
</g>
<!-- Node1&#45;&gt;Node92 -->
<g id="edge39" class="edge">
<title>Node1&#45;&gt;Node92</title>
<path fill="none" stroke="midnightblue" d="M1824.55,-355.37C1755.37,-353.34 1624.59,-344.98 1595.77,-311 1578.94,-291.16 1611.49,-267.09 1632.29,-254.54"/>
<polygon fill="midnightblue" stroke="midnightblue" points="1824.61,-358.87 1834.7,-355.63 1824.79,-351.87 1824.61,-358.87"/>
</g>
<!-- Node99 -->
<g id="node40" class="node">
<title>Node99</title>
<g id="a_node40"><a xlink:href="_body_force_8cpp.html" target="_top" xlink:title=" ">
<polygon fill="white" stroke="black" points="1637.77,-291.5 1637.77,-310.5 1725.77,-310.5 1725.77,-291.5 1637.77,-291.5"/>
<text text-anchor="middle" x="1681.77" y="-298.5" font-family="Helvetica,sans-Serif" font-size="10.00">BodyForce.cpp</text>
</a>
</g>
</g>
<!-- Node1&#45;&gt;Node99 -->
<g id="edge54" class="edge">
<title>Node1&#45;&gt;Node99</title>
<path fill="none" stroke="midnightblue" d="M1828.39,-344.57C1793.3,-334.38 1742.75,-319.7 1711.1,-310.52"/>
<polygon fill="midnightblue" stroke="midnightblue" points="1827.72,-348.02 1838.3,-347.44 1829.67,-341.29 1827.72,-348.02"/>
</g>
<!-- Node100 -->
<g id="node41" class="node">
<title>Node100</title>
<g id="a_node41"><a xlink:href="_coriolis_forcing_8cpp.html" target="_top" xlink:title=" ">
<polygon fill="white" stroke="black" points="1744.27,-291.5 1744.27,-310.5 1853.27,-310.5 1853.27,-291.5 1744.27,-291.5"/>
<text text-anchor="middle" x="1798.77" y="-298.5" font-family="Helvetica,sans-Serif" font-size="10.00">CoriolisForcing.cpp</text>
</a>
</g>
</g>
<!-- Node1&#45;&gt;Node100 -->
<g id="edge55" class="edge">
<title>Node1&#45;&gt;Node100</title>
<path fill="none" stroke="midnightblue" d="M1848.73,-341.1C1836.31,-331.38 1820.53,-319.03 1810.06,-310.83"/>
<polygon fill="midnightblue" stroke="midnightblue" points="1846.65,-343.92 1856.68,-347.32 1850.97,-338.4 1846.65,-343.92"/>
</g>
<!-- Node101 -->
<g id="node42" class="node">
<title>Node101</title>
<g id="a_node42"><a xlink:href="_geostrophic_forcing_8cpp.html" target="_top" xlink:title=" ">
<polygon fill="white" stroke="black" points="1871.27,-291.5 1871.27,-310.5 2002.27,-310.5 2002.27,-291.5 1871.27,-291.5"/>
<text text-anchor="middle" x="1936.77" y="-298.5" font-family="Helvetica,sans-Serif" font-size="10.00">GeostrophicForcing.cpp</text>
</a>
</g>
</g>
<!-- Node1&#45;&gt;Node101 -->
<g id="edge56" class="edge">
<title>Node1&#45;&gt;Node101</title>
<path fill="none" stroke="midnightblue" d="M1886.81,-341.1C1899.23,-331.38 1915.01,-319.03 1925.48,-310.83"/>
<polygon fill="midnightblue" stroke="midnightblue" points="1884.57,-338.4 1878.86,-347.32 1888.89,-343.92 1884.57,-338.4"/>
</g>
<!-- Node102 -->
<g id="node43" class="node">
<title>Node102</title>
<g id="a_node43"><a xlink:href="_channel_flow_8cpp.html" target="_top" xlink:title=" ">
<polygon fill="white" stroke="black" points="2020.27,-291.5 2020.27,-310.5 2119.27,-310.5 2119.27,-291.5 2020.27,-291.5"/>
<text text-anchor="middle" x="2069.77" y="-298.5" font-family="Helvetica,sans-Serif" font-size="10.00">ChannelFlow.cpp</text>
</a>
</g>
</g>
<!-- Node1&#45;&gt;Node102 -->
<g id="edge57" class="edge">
<title>Node1&#45;&gt;Node102</title>
<path fill="none" stroke="midnightblue" d="M1909.56,-344.83C1947.7,-334.63 2003.25,-319.78 2037.91,-310.52"/>
<polygon fill="midnightblue" stroke="midnightblue" points="1908.53,-341.48 1899.78,-347.44 1910.34,-348.24 1908.53,-341.48"/>
</g>
<!-- Node103 -->
<g id="node44" class="node">
<title>Node103</title>
<g id="a_node44"><a xlink:href="_convecting_taylor_vortex_8cpp.html" target="_top" xlink:title=" ">
<polygon fill="white" stroke="black" points="2137.77,-291.5 2137.77,-310.5 2289.77,-310.5 2289.77,-291.5 2137.77,-291.5"/>
<text text-anchor="middle" x="2213.77" y="-298.5" font-family="Helvetica,sans-Serif" font-size="10.00">ConvectingTaylorVortex.cpp</text>
</a>
</g>
</g>
<!-- Node1&#45;&gt;Node103 -->
<g id="edge58" class="edge">
<title>Node1&#45;&gt;Node103</title>
<path fill="none" stroke="midnightblue" d="M1910.93,-349.26C1973.8,-339.45 2090.55,-321.23 2159.28,-310.5"/>
<polygon fill="midnightblue" stroke="midnightblue" points="1910.29,-345.82 1900.95,-350.82 1911.37,-352.74 1910.29,-345.82"/>
</g>
<!-- Node104 -->
<g id="node45" class="node">
<title>Node104</title>
<g id="a_node45"><a xlink:href="_ekman_spiral_8cpp.html" target="_top" xlink:title=" ">
<polygon fill="white" stroke="black" points="2307.77,-291.5 2307.77,-310.5 2405.77,-310.5 2405.77,-291.5 2307.77,-291.5"/>
<text text-anchor="middle" x="2356.77" y="-298.5" font-family="Helvetica,sans-Serif" font-size="10.00">EkmanSpiral.cpp</text>
</a>
</g>
</g>
<!-- Node1&#45;&gt;Node104 -->
<g id="edge59" class="edge">
<title>Node1&#45;&gt;Node104</title>
<path fill="none" stroke="midnightblue" d="M1911.19,-352.19C1989,-345.2 2157.32,-329.35 2298.77,-311 2301.7,-310.62 2304.71,-310.21 2307.75,-309.78"/>
<polygon fill="midnightblue" stroke="midnightblue" points="1910.47,-348.74 1900.82,-353.12 1911.09,-355.71 1910.47,-348.74"/>
</g>
<!-- Node105 -->
<g id="node46" class="node">
<title>Node105</title>
<g id="a_node46"><a xlink:href="_free_stream_8cpp.html" target="_top" xlink:title=" ">
<polygon fill="white" stroke="black" points="2424.27,-291.5 2424.27,-310.5 2517.27,-310.5 2517.27,-291.5 2424.27,-291.5"/>
<text text-anchor="middle" x="2470.77" y="-298.5" font-family="Helvetica,sans-Serif" font-size="10.00">FreeStream.cpp</text>
</a>
</g>
</g>
<!-- Node1&#45;&gt;Node105 -->
<g id="edge60" class="edge">
<title>Node1&#45;&gt;Node105</title>
<path fill="none" stroke="midnightblue" d="M1910.95,-353.59C2003.52,-348.16 2227.82,-333.68 2414.77,-311 2417.8,-310.63 2420.92,-310.22 2424.06,-309.78"/>
<polygon fill="midnightblue" stroke="midnightblue" points="1910.63,-350.1 1900.85,-354.17 1911.03,-357.09 1910.63,-350.1"/>
</g>
<!-- Node106 -->
<g id="node47" class="node">
<title>Node106</title>
<g id="a_node47"><a xlink:href="_n_w_b_8cpp.html" target="_top" xlink:title=" ">
<polygon fill="white" stroke="black" points="2535.27,-291.5 2535.27,-310.5 2596.27,-310.5 2596.27,-291.5 2535.27,-291.5"/>
<text text-anchor="middle" x="2565.77" y="-298.5" font-family="Helvetica,sans-Serif" font-size="10.00">NWB.cpp</text>
</a>
</g>
</g>
<!-- Node1&#45;&gt;Node106 -->
<g id="edge61" class="edge">
<title>Node1&#45;&gt;Node106</title>
<path fill="none" stroke="midnightblue" d="M1911.16,-355.41C2016.97,-353.46 2296.47,-345.21 2526.77,-311 2529.52,-310.59 2532.36,-310.09 2535.2,-309.54"/>
<polygon fill="midnightblue" stroke="midnightblue" points="1910.82,-351.92 1900.88,-355.59 1910.94,-358.92 1910.82,-351.92"/>
</g>
<!-- Node107 -->
<g id="node48" class="node">
<title>Node107</title>
<g id="a_node48"><a xlink:href="_taylor_green_vortex_8cpp.html" target="_top" xlink:title=" ">
<polygon fill="white" stroke="black" points="2614.27,-291.5 2614.27,-310.5 2741.27,-310.5 2741.27,-291.5 2614.27,-291.5"/>
<text text-anchor="middle" x="2677.77" y="-298.5" font-family="Helvetica,sans-Serif" font-size="10.00">TaylorGreenVortex.cpp</text>
</a>
</g>
</g>
<!-- Node1&#45;&gt;Node107 -->
<g id="edge63" class="edge">
<title>Node1&#45;&gt;Node107</title>
<path fill="none" stroke="midnightblue" d="M1910.99,-354.32C2024.84,-349.7 2342.39,-335.47 2605.77,-311 2608.53,-310.74 2611.35,-310.46 2614.19,-310.17"/>
<polygon fill="midnightblue" stroke="midnightblue" points="1910.78,-350.83 1900.93,-354.73 1911.06,-357.82 1910.78,-350.83"/>
</g>
<!-- Node108 -->
<g id="node49" class="node">
<title>Node108</title>
<g id="a_node49"><a xlink:href="_vortex_ring_8cpp.html" target="_top" xlink:title=" ">
<polygon fill="white" stroke="black" points="2759.77,-291.5 2759.77,-310.5 2849.77,-310.5 2849.77,-291.5 2759.77,-291.5"/>
<text text-anchor="middle" x="2804.77" y="-298.5" font-family="Helvetica,sans-Serif" font-size="10.00">VortexRing.cpp</text>
</a>
</g>
</g>
<!-- Node1&#45;&gt;Node108 -->
<g id="edge64" class="edge">
<title>Node1&#45;&gt;Node108</title>
<path fill="none" stroke="midnightblue" d="M1911.39,-355.54C2040.17,-353.8 2429.79,-345.81 2750.77,-311 2753.7,-310.68 2756.71,-310.31 2759.74,-309.9"/>
<polygon fill="midnightblue" stroke="midnightblue" points="1911.11,-352.04 1901.16,-355.67 1911.2,-359.04 1911.11,-352.04"/>
</g>
<!-- Node109 -->
<g id="node50" class="node">
<title>Node109</title>
<g id="a_node50"><a xlink:href="_a_b_l_field_init_8cpp.html" target="_top" xlink:title=" ">
<polygon fill="white" stroke="black" points="2868.27,-291.5 2868.27,-310.5 2963.27,-310.5 2963.27,-291.5 2868.27,-291.5"/>
<text text-anchor="middle" x="2915.77" y="-298.5" font-family="Helvetica,sans-Serif" font-size="10.00">ABLFieldInit.cpp</text>
</a>
</g>
</g>
<!-- Node1&#45;&gt;Node109 -->
<g id="edge65" class="edge">
<title>Node1&#45;&gt;Node109</title>
<path fill="none" stroke="midnightblue" d="M1910.98,-355.75C2049.3,-354.59 2493.46,-348.02 2858.77,-311 2861.86,-310.69 2865.04,-310.32 2868.23,-309.91"/>
<polygon fill="midnightblue" stroke="midnightblue" points="1910.77,-352.25 1900.8,-355.83 1910.83,-359.25 1910.77,-352.25"/>
</g>
<!-- Node3 -->
<g id="node3" class="node">
<title>Node3</title>
<g id="a_node3"><a xlink:href="tensor_8_h.html" target="_top" xlink:title=" ">
<polygon fill="white" stroke="black" points="1006.27,-235.5 1006.27,-254.5 1063.27,-254.5 1063.27,-235.5 1006.27,-235.5"/>
<text text-anchor="middle" x="1034.77" y="-242.5" font-family="Helvetica,sans-Serif" font-size="10.00">tensor.H</text>
</a>
</g>
</g>
<!-- Node2&#45;&gt;Node3 -->
<g id="edge2" class="edge">
<title>Node2&#45;&gt;Node3</title>
<path fill="none" stroke="midnightblue" d="M1028.3,-281.1C1027.66,-272.14 1028.11,-261.86 1029.64,-254.75"/>
<polygon fill="midnightblue" stroke="midnightblue" points="1024.84,-281.62 1029.6,-291.08 1031.78,-280.71 1024.84,-281.62"/>
</g>
<!-- Node3&#45;&gt;Node2 -->
<g id="edge34" class="edge">
<title>Node3&#45;&gt;Node2</title>
<path fill="none" stroke="midnightblue" d="M1041.23,-264.69C1041.88,-273.64 1041.45,-283.93 1039.94,-291.08"/>
<polygon fill="midnightblue" stroke="midnightblue" points="1044.69,-264.2 1039.9,-254.75 1037.75,-265.13 1044.69,-264.2"/>
</g>
<!-- Node4 -->
<g id="node4" class="node">
<title>Node4</title>
<g id="a_node4"><a xlink:href="vector__space_8_h.html" target="_top" xlink:title=" ">
<polygon fill="white" stroke="red" points="707.77,-179.5 707.77,-198.5 799.77,-198.5 799.77,-179.5 707.77,-179.5"/>
<text text-anchor="middle" x="753.77" y="-186.5" font-family="Helvetica,sans-Serif" font-size="10.00">vector_space.H</text>
</a>
</g>
</g>
<!-- Node3&#45;&gt;Node4 -->
<g id="edge3" class="edge">
<title>Node3&#45;&gt;Node4</title>
<path fill="none" stroke="midnightblue" d="M995.91,-236.53C944.16,-226.59 852.84,-209.04 798.35,-198.57"/>
<polygon fill="midnightblue" stroke="midnightblue" points="995.54,-240.02 1006.02,-238.47 996.86,-233.15 995.54,-240.02"/>
</g>
<!-- Node5 -->
<g id="node5" class="node">
<title>Node5</title>
<g id="a_node5"><a xlink:href="_multi_parser_8_h.html" target="_top" xlink:title=" ">
<polygon fill="white" stroke="red" points="843.27,-123.5 843.27,-142.5 924.27,-142.5 924.27,-123.5 843.27,-123.5"/>
<text text-anchor="middle" x="883.77" y="-130.5" font-family="Helvetica,sans-Serif" font-size="10.00">MultiParser.H</text>
</a>
</g>
</g>
<!-- Node4&#45;&gt;Node5 -->
<g id="edge4" class="edge">
<title>Node4&#45;&gt;Node5</title>
<path fill="none" stroke="midnightblue" d="M783.85,-175.5C808.23,-165.38 841.91,-151.39 863.27,-142.52"/>
<polygon fill="midnightblue" stroke="midnightblue" points="782.26,-172.38 774.37,-179.44 784.95,-178.84 782.26,-172.38"/>
</g>
<!-- Node4&#45;&gt;Node43 -->
<g id="edge5" class="edge">
<title>Node4&#45;&gt;Node43</title>
<path fill="none" stroke="midnightblue" d="M810.03,-183.39C903.63,-175.64 1097.19,-159.23 1260.77,-143 1263.62,-142.72 1266.53,-142.42 1269.46,-142.12"/>
<polygon fill="midnightblue" stroke="midnightblue" points="809.61,-179.91 799.94,-184.23 810.19,-186.89 809.61,-179.91"/>
</g>
<!-- Node55 -->
<g id="node18" class="node">
<title>Node55</title>
<g id="a_node18"><a xlink:href="_i_b_types_8_h.html" target="_top" xlink:title=" ">
<polygon fill="white" stroke="red" points="721.27,-123.5 721.27,-142.5 786.27,-142.5 786.27,-123.5 721.27,-123.5"/>
<text text-anchor="middle" x="753.77" y="-130.5" font-family="Helvetica,sans-Serif" font-size="10.00">IBTypes.H</text>
</a>
</g>
</g>
<!-- Node4&#45;&gt;Node55 -->
<g id="edge18" class="edge">
<title>Node4&#45;&gt;Node55</title>
<path fill="none" stroke="midnightblue" d="M753.77,-168.8C753.77,-159.91 753.77,-149.78 753.77,-142.75"/>
<polygon fill="midnightblue" stroke="midnightblue" points="750.27,-169.08 753.77,-179.08 757.27,-169.08 750.27,-169.08"/>
</g>
<!-- Node56 -->
<g id="node19" class="node">
<title>Node56</title>
<g id="a_node19"><a xlink:href="_bluff_body_8_h.html" target="_top" xlink:title=" ">
<polygon fill="white" stroke="red" points="658.27,-67.5 658.27,-86.5 731.27,-86.5 731.27,-67.5 658.27,-67.5"/>
<text text-anchor="middle" x="694.77" y="-74.5" font-family="Helvetica,sans-Serif" font-size="10.00">BluffBody.H</text>
</a>
</g>
</g>
<!-- Node4&#45;&gt;Node56 -->
<g id="edge20" class="edge">
<title>Node4&#45;&gt;Node56</title>
<path fill="none" stroke="midnightblue" d="M736.17,-172.43C728.01,-164.37 718.81,-153.94 712.77,-143 702.58,-124.55 697.82,-99.91 695.89,-86.91"/>
<polygon fill="midnightblue" stroke="midnightblue" points="733.86,-175.06 743.54,-179.37 738.66,-169.97 733.86,-175.06"/>
</g>
<!-- Node61 -->
<g id="node20" class="node">
<title>Node61</title>
<g id="a_node20"><a xlink:href="_synthetic_turbulence_8_h.html" target="_top" xlink:title=" ">
<polygon fill="white" stroke="black" points="259.27,-123.5 259.27,-142.5 384.27,-142.5 384.27,-123.5 259.27,-123.5"/>
<text text-anchor="middle" x="321.77" y="-130.5" font-family="Helvetica,sans-Serif" font-size="10.00">SyntheticTurbulence.H</text>
</a>
</g>
</g>
<!-- Node4&#45;&gt;Node61 -->
<g id="edge21" class="edge">
<title>Node4&#45;&gt;Node61</title>
<path fill="none" stroke="midnightblue" d="M697.56,-180.97C616.81,-170.88 468.46,-152.34 384.33,-141.82"/>
<polygon fill="midnightblue" stroke="midnightblue" points="697.18,-184.45 707.54,-182.22 698.05,-177.51 697.18,-184.45"/>
</g>
<!-- Node63 -->
<g id="node22" class="node">
<title>Node63</title>
<g id="a_node22"><a xlink:href="_lidar_sampler_8_h.html" target="_top" xlink:title=" ">
<polygon fill="white" stroke="red" points="942.27,-123.5 942.27,-142.5 1033.27,-142.5 1033.27,-123.5 942.27,-123.5"/>
<text text-anchor="middle" x="987.77" y="-130.5" font-family="Helvetica,sans-Serif" font-size="10.00">LidarSampler.H</text>
</a>
</g>
</g>
<!-- Node4&#45;&gt;Node63 -->
<g id="edge23" class="edge">
<title>Node4&#45;&gt;Node63</title>
<path fill="none" stroke="midnightblue" d="M800.77,-177.15C844.99,-166.95 910.29,-151.88 950.86,-142.52"/>
<polygon fill="midnightblue" stroke="midnightblue" points="799.8,-173.78 790.85,-179.44 801.38,-180.61 799.8,-173.78"/>
</g>
<!-- Node64 -->
<g id="node23" class="node">
<title>Node64</title>
<g id="a_node23"><a xlink:href="_d_t_u_spinner_sampler_8_h.html" target="_top" xlink:title=" ">
<polygon fill="white" stroke="red" points="838.27,-67.5 838.27,-86.5 963.27,-86.5 963.27,-67.5 838.27,-67.5"/>
<text text-anchor="middle" x="900.77" y="-74.5" font-family="Helvetica,sans-Serif" font-size="10.00">DTUSpinnerSampler.H</text>
</a>
</g>
</g>
<!-- Node4&#45;&gt;Node64 -->
<g id="edge25" class="edge">
<title>Node4&#45;&gt;Node64</title>
<path fill="none" stroke="midnightblue" d="M772.15,-172.57C788.36,-159.13 812.76,-139.29 834.77,-123 852.6,-109.8 873.93,-95.52 887.41,-86.67"/>
<polygon fill="midnightblue" stroke="midnightblue" points="769.49,-170.23 764.05,-179.32 773.97,-175.61 769.49,-170.23"/>
</g>
<!-- Node67 -->
<g id="node24" class="node">
<title>Node67</title>
<g id="a_node24"><a xlink:href="_box_refiner_8_h.html" target="_top" xlink:title=" ">
<polygon fill="white" stroke="red" points="1051.77,-123.5 1051.77,-142.5 1131.77,-142.5 1131.77,-123.5 1051.77,-123.5"/>
<text text-anchor="middle" x="1091.77" y="-130.5" font-family="Helvetica,sans-Serif" font-size="10.00">BoxRefiner.H</text>
</a>
</g>
</g>
<!-- Node4&#45;&gt;Node67 -->
<g id="edge26" class="edge">
<title>Node4&#45;&gt;Node67</title>
<path fill="none" stroke="midnightblue" d="M809.99,-179.71C868.28,-171 962.01,-156.7 1042.77,-143 1045.67,-142.51 1048.66,-141.99 1051.67,-141.46"/>
<polygon fill="midnightblue" stroke="midnightblue" points="809.26,-176.28 799.88,-181.21 810.29,-183.2 809.26,-176.28"/>
</g>
<!-- Node69 -->
<g id="node25" class="node">
<title>Node69</title>
<g id="a_node25"><a xlink:href="_cylinder_refiner_8_h.html" target="_top" xlink:title=" ">
<polygon fill="white" stroke="red" points="1150.27,-123.5 1150.27,-142.5 1251.27,-142.5 1251.27,-123.5 1150.27,-123.5"/>
<text text-anchor="middle" x="1200.77" y="-130.5" font-family="Helvetica,sans-Serif" font-size="10.00">CylinderRefiner.H</text>
</a>
</g>
</g>
<!-- Node4&#45;&gt;Node69 -->
<g id="edge27" class="edge">
<title>Node4&#45;&gt;Node69</title>
<path fill="none" stroke="midnightblue" d="M810.22,-182.03C885.64,-173.91 1023.42,-158.62 1140.77,-143 1143.8,-142.6 1146.91,-142.17 1150.05,-141.73"/>
<polygon fill="midnightblue" stroke="midnightblue" points="809.57,-178.58 800,-183.13 810.32,-185.54 809.57,-178.58"/>
</g>
<!-- Node71 -->
<g id="node26" class="node">
<title>Node71</title>
<g id="a_node26"><a xlink:href="actuator__types_8_h.html" target="_top" xlink:title=" ">
<polygon fill="white" stroke="red" points="28.77,-123.5 28.77,-142.5 128.77,-142.5 128.77,-123.5 28.77,-123.5"/>
<text text-anchor="middle" x="78.77" y="-130.5" font-family="Helvetica,sans-Serif" font-size="10.00">actuator_types.H</text>
</a>
</g>
</g>
<!-- Node4&#45;&gt;Node71 -->
<g id="edge28" class="edge">
<title>Node4&#45;&gt;Node71</title>
<path fill="none" stroke="midnightblue" d="M697.62,-185.38C589.17,-179.98 343.45,-166.16 137.77,-143 134.89,-142.68 131.93,-142.31 128.95,-141.93"/>
<polygon fill="midnightblue" stroke="midnightblue" points="697.52,-188.87 707.68,-185.87 697.86,-181.88 697.52,-188.87"/>
</g>
<!-- Node86 -->
<g id="node27" class="node">
<title>Node86</title>
<g id="a_node27"><a xlink:href="actuator__utils_8_h.html" target="_top" xlink:title=" ">
<polygon fill="white" stroke="red" points="146.77,-123.5 146.77,-142.5 240.77,-142.5 240.77,-123.5 146.77,-123.5"/>
<text text-anchor="middle" x="193.77" y="-130.5" font-family="Helvetica,sans-Serif" font-size="10.00">actuator_utils.H</text>
</a>
</g>
</g>
<!-- Node4&#45;&gt;Node86 -->
<g id="edge29" class="edge">
<title>Node4&#45;&gt;Node86</title>
<path fill="none" stroke="midnightblue" d="M697.37,-184.26C604.05,-177.79 411.72,-163.22 249.77,-143 246.84,-142.63 243.82,-142.23 240.79,-141.8"/>
<polygon fill="midnightblue" stroke="midnightblue" points="697.23,-187.76 707.44,-184.96 697.71,-180.78 697.23,-187.76"/>
</g>
<!-- Node75 -->
<g id="node28" class="node">
<title>Node75</title>
<g id="a_node28"><a xlink:href="_actuator_disk_8_h.html" target="_top" xlink:title=" ">
<polygon fill="white" stroke="red" points="574.77,-123.5 574.77,-142.5 664.77,-142.5 664.77,-123.5 574.77,-123.5"/>
<text text-anchor="middle" x="619.77" y="-130.5" font-family="Helvetica,sans-Serif" font-size="10.00">ActuatorDisk.H</text>
</a>
</g>
</g>
<!-- Node4&#45;&gt;Node75 -->
<g id="edge30" class="edge">
<title>Node4&#45;&gt;Node75</title>
<path fill="none" stroke="midnightblue" d="M723.09,-175.64C697.95,-165.5 663.02,-151.43 640.9,-142.52"/>
<polygon fill="midnightblue" stroke="midnightblue" points="721.95,-178.95 732.54,-179.44 724.57,-172.46 721.95,-178.95"/>
</g>
<!-- Node78 -->
<g id="node29" class="node">
<title>Node78</title>
<g id="a_node29"><a xlink:href="_joukowsky_8_h.html" target="_top" xlink:title=" ">
<polygon fill="white" stroke="red" points="462.27,-67.5 462.27,-86.5 539.27,-86.5 539.27,-67.5 462.27,-67.5"/>
<text text-anchor="middle" x="500.77" y="-74.5" font-family="Helvetica,sans-Serif" font-size="10.00">Joukowsky.H</text>
</a>
</g>
</g>
<!-- Node4&#45;&gt;Node78 -->
<g id="edge33" class="edge">
<title>Node4&#45;&gt;Node78</title>
<path fill="none" stroke="midnightblue" d="M697.52,-188.58C614.78,-188.1 466.41,-181.69 432.77,-143 413.8,-121.19 453.57,-98.46 479.92,-86.52"/>
<polygon fill="midnightblue" stroke="midnightblue" points="697.75,-192.08 707.76,-188.61 697.77,-185.08 697.75,-192.08"/>
</g>
<!-- Node88 -->
<g id="node30" class="node">
<title>Node88</title>
<g id="a_node30"><a xlink:href="_actuator_container_8_h.html" target="_top" xlink:title=" ">
<polygon fill="white" stroke="red" points="441.27,-123.5 441.27,-142.5 556.27,-142.5 556.27,-123.5 441.27,-123.5"/>
<text text-anchor="middle" x="498.77" y="-130.5" font-family="Helvetica,sans-Serif" font-size="10.00">ActuatorContainer.H</text>
</a>
</g>
</g>
<!-- Node4&#45;&gt;Node88 -->
<g id="edge32" class="edge">
<title>Node4&#45;&gt;Node88</title>
<path fill="none" stroke="midnightblue" d="M703.46,-177.35C655.27,-167.14 583.49,-151.94 538.99,-142.52"/>
<polygon fill="midnightblue" stroke="midnightblue" points="702.86,-180.8 713.36,-179.44 704.31,-173.95 702.86,-180.8"/>
</g>
<!-- Node44 -->
<g id="node7" class="node">
<title>Node44</title>
<g id="a_node7"><a xlink:href="_a_b_l_8_h.html" target="_top" xlink:title=" ">
<polygon fill="white" stroke="black" points="1679.77,-67.5 1679.77,-86.5 1725.77,-86.5 1725.77,-67.5 1679.77,-67.5"/>
<text text-anchor="middle" x="1702.77" y="-74.5" font-family="Helvetica,sans-Serif" font-size="10.00">ABL.H</text>
</a>
</g>
</g>
<!-- Node43&#45;&gt;Node44 -->
<g id="edge6" class="edge">
<title>Node43&#45;&gt;Node44</title>
<path fill="none" stroke="midnightblue" d="M1415.18,-122.08C1477.86,-113.35 1570.9,-100.02 1651.77,-87 1660.91,-85.53 1670.95,-83.78 1679.69,-82.22"/>
<polygon fill="midnightblue" stroke="midnightblue" points="1414.42,-118.65 1405,-123.5 1415.38,-125.59 1414.42,-118.65"/>
</g>
<!-- Node52 -->
<g id="node15" class="node">
<title>Node52</title>
<g id="a_node15"><a xlink:href="_a_b_l_fill_m_p_l_8_h.html" target="_top" xlink:title=" ">
<polygon fill="white" stroke="black" points="1215.77,-67.5 1215.77,-86.5 1295.77,-86.5 1295.77,-67.5 1215.77,-67.5"/>
<text text-anchor="middle" x="1255.77" y="-74.5" font-family="Helvetica,sans-Serif" font-size="10.00">ABLFillMPL.H</text>
</a>
</g>
</g>
<!-- Node43&#45;&gt;Node52 -->
<g id="edge14" class="edge">
<title>Node43&#45;&gt;Node52</title>
<path fill="none" stroke="midnightblue" d="M1320.05,-117.9C1304.1,-108 1283.27,-95.07 1269.71,-86.65"/>
<polygon fill="midnightblue" stroke="midnightblue" points="1318.45,-121.02 1328.79,-123.32 1322.14,-115.08 1318.45,-121.02"/>
</g>
<!-- Node54 -->
<g id="node17" class="node">
<title>Node54</title>
<g id="a_node17"><a xlink:href="_a_b_l_modulated_power_law_8cpp.html" target="_top" xlink:title=" ">
<polygon fill="white" stroke="black" points="1177.77,-6 1177.77,-25 1333.77,-25 1333.77,-6 1177.77,-6"/>
<text text-anchor="middle" x="1255.77" y="-13" font-family="Helvetica,sans-Serif" font-size="10.00">ABLModulatedPowerLaw.cpp</text>
</a>
</g>
</g>
<!-- Node43&#45;&gt;Node54 -->
<g id="edge17" class="edge">
<title>Node43&#45;&gt;Node54</title>
<path fill="none" stroke="midnightblue" d="M1333.77,-114.01C1326.67,-100.54 1316.11,-81.93 1304.77,-67 1292.65,-51.05 1275.95,-34.81 1265.51,-25.2"/>
<polygon fill="midnightblue" stroke="midnightblue" points="1330.79,-115.87 1338.47,-123.17 1337.02,-112.67 1330.79,-115.87"/>
</g>
<!-- Node44&#45;&gt;Node45 -->
<g id="edge7" class="edge">
<title>Node44&#45;&gt;Node45</title>
<path fill="none" stroke="midnightblue" d="M1669.35,-70.06C1603.7,-58.37 1463.3,-33.33 1452.77,-31 1444.86,-29.25 1436.38,-27.13 1428.5,-25.06"/>
<polygon fill="midnightblue" stroke="midnightblue" points="1669.13,-73.57 1679.59,-71.88 1670.36,-66.68 1669.13,-73.57"/>
</g>
<!-- Node46 -->
<g id="node9" class="node">
<title>Node46</title>
<g id="a_node9"><a xlink:href="_a_b_l_mean_boussinesq_8cpp.html" target="_top" xlink:title=" ">
<polygon fill="white" stroke="black" points="1633.77,-6 1633.77,-25 1771.77,-25 1771.77,-6 1633.77,-6"/>
<text text-anchor="middle" x="1702.77" y="-13" font-family="Helvetica,sans-Serif" font-size="10.00">ABLMeanBoussinesq.cpp</text>
</a>
</g>
</g>
<!-- Node44&#45;&gt;Node46 -->
<g id="edge8" class="edge">
<title>Node44&#45;&gt;Node46</title>
<path fill="none" stroke="midnightblue" d="M1702.77,-57.32C1702.77,-46.5 1702.77,-33.4 1702.77,-25.01"/>
<polygon fill="midnightblue" stroke="midnightblue" points="1699.27,-57.48 1702.77,-67.48 1706.27,-57.48 1699.27,-57.48"/>
</g>
<!-- Node47 -->
<g id="node10" class="node">
<title>Node47</title>
<g id="a_node10"><a xlink:href="incflo_8cpp.html" target="_top" xlink:title=" ">
<polygon fill="white" stroke="black" points="1790.27,-6 1790.27,-25 1853.27,-25 1853.27,-6 1790.27,-6"/>
<text text-anchor="middle" x="1821.77" y="-13" font-family="Helvetica,sans-Serif" font-size="10.00">incflo.cpp</text>
</a>
</g>
</g>
<!-- Node44&#45;&gt;Node47 -->
<g id="edge9" class="edge">
<title>Node44&#45;&gt;Node47</title>
<path fill="none" stroke="midnightblue" d="M1729.04,-62.87C1752.1,-51.33 1784.97,-34.9 1804.75,-25.01"/>
<polygon fill="midnightblue" stroke="midnightblue" points="1727.2,-59.87 1719.82,-67.48 1730.33,-66.13 1727.2,-59.87"/>
</g>
<!-- Node48 -->
<g id="node11" class="node">
<title>Node48</title>
<g id="a_node11"><a xlink:href="incflo__apply__nodal__projection_8cpp.html" target="_top" xlink:title=" ">
<polygon fill="white" stroke="black" points="1871.27,-0.5 1871.27,-30.5 1978.27,-30.5 1978.27,-0.5 1871.27,-0.5"/>
<text text-anchor="start" x="1879.27" y="-18.5" font-family="Helvetica,sans-Serif" font-size="10.00">incflo_apply_nodal</text>
<text text-anchor="middle" x="1924.77" y="-7.5" font-family="Helvetica,sans-Serif" font-size="10.00">_projection.cpp</text>
</a>
</g>
</g>
<!-- Node44&#45;&gt;Node48 -->
<g id="edge10" class="edge">
<title>Node44&#45;&gt;Node48</title>
<path fill="none" stroke="midnightblue" d="M1736.12,-67.06C1772.24,-57.38 1830.33,-41.81 1872.52,-30.5"/>
<polygon fill="midnightblue" stroke="midnightblue" points="1734.86,-63.78 1726.11,-69.74 1736.67,-70.54 1734.86,-63.78"/>
</g>
<!-- Node49 -->
<g id="node12" class="node">
<title>Node49</title>
<g id="a_node12"><a xlink:href="init_8cpp.html" target="_top" xlink:title=" ">
<polygon fill="white" stroke="black" points="1996.27,-6 1996.27,-25 2049.27,-25 2049.27,-6 1996.27,-6"/>
<text text-anchor="middle" x="2022.77" y="-13" font-family="Helvetica,sans-Serif" font-size="10.00">init.cpp</text>
</a>
</g>
</g>
<!-- Node44&#45;&gt;Node49 -->
<g id="edge11" class="edge">
<title>Node44&#45;&gt;Node49</title>
<path fill="none" stroke="midnightblue" d="M1736.07,-73.31C1789.83,-68.4 1898.72,-56.09 1987.77,-31 1993.34,-29.43 1999.22,-27.23 2004.53,-25.01"/>
<polygon fill="midnightblue" stroke="midnightblue" points="1735.72,-69.83 1726.07,-74.2 1736.34,-76.8 1735.72,-69.83"/>
</g>
<!-- Node50 -->
<g id="node13" class="node">
<title>Node50</title>
<g id="a_node13"><a xlink:href="_a_b_l_8cpp.html" target="_top" xlink:title=" ">
<polygon fill="white" stroke="black" points="1559.77,-6 1559.77,-25 1615.77,-25 1615.77,-6 1559.77,-6"/>
<text text-anchor="middle" x="1587.77" y="-13" font-family="Helvetica,sans-Serif" font-size="10.00">ABL.cpp</text>
</a>
</g>
</g>
<!-- Node44&#45;&gt;Node50 -->
<g id="edge12" class="edge">
<title>Node44&#45;&gt;Node50</title>
<path fill="none" stroke="midnightblue" d="M1677.39,-62.87C1655.1,-51.33 1623.33,-34.9 1604.22,-25.01"/>
<polygon fill="midnightblue" stroke="midnightblue" points="1675.8,-65.99 1686.29,-67.48 1679.02,-59.77 1675.8,-65.99"/>
</g>
<!-- Node44&#45;&gt;Node51 -->
<g id="edge13" class="edge">
<title>Node44&#45;&gt;Node51</title>
<path fill="none" stroke="midnightblue" d="M1735.92,-72.79C1799.02,-66.46 1940.64,-51.21 2058.77,-31 2068.62,-29.31 2079.22,-27.17 2089.02,-25.06"/>
<polygon fill="midnightblue" stroke="midnightblue" points="1735.38,-69.32 1725.78,-73.8 1736.08,-76.29 1735.38,-69.32"/>
</g>
<!-- Node53 -->
<g id="node16" class="node">
<title>Node53</title>
<g id="a_node16"><a xlink:href="_a_b_l_fill_m_p_l_8cpp.html" target="_top" xlink:title=" ">
<polygon fill="white" stroke="black" points="1069.77,-6 1069.77,-25 1159.77,-25 1159.77,-6 1069.77,-6"/>
<text text-anchor="middle" x="1114.77" y="-13" font-family="Helvetica,sans-Serif" font-size="10.00">ABLFillMPL.cpp</text>
</a>
</g>
</g>
<!-- Node52&#45;&gt;Node53 -->
<g id="edge15" class="edge">
<title>Node52&#45;&gt;Node53</title>
<path fill="none" stroke="midnightblue" d="M1226.1,-63.48C1198.71,-51.92 1158.79,-35.08 1134.93,-25.01"/>
<polygon fill="midnightblue" stroke="midnightblue" points="1224.99,-66.81 1235.57,-67.48 1227.71,-60.36 1224.99,-66.81"/>
</g>
<!-- Node52&#45;&gt;Node54 -->
<g id="edge16" class="edge">
<title>Node52&#45;&gt;Node54</title>
<path fill="none" stroke="midnightblue" d="M1255.77,-57.32C1255.77,-46.5 1255.77,-33.4 1255.77,-25.01"/>
<polygon fill="midnightblue" stroke="midnightblue" points="1252.27,-57.48 1255.77,-67.48 1259.27,-57.48 1252.27,-57.48"/>
</g>
<!-- Node55&#45;&gt;Node56 -->
<g id="edge19" class="edge">
<title>Node55&#45;&gt;Node56</title>
<path fill="none" stroke="midnightblue" d="M736.87,-116.54C726.35,-106.91 713.2,-94.87 704.42,-86.83"/>
<polygon fill="midnightblue" stroke="midnightblue" points="734.55,-119.15 744.29,-123.32 739.28,-113.99 734.55,-119.15"/>
</g>
<!-- Node61&#45;&gt;Node62 -->
<g id="edge22" class="edge">
<title>Node61&#45;&gt;Node62</title>
<path fill="none" stroke="midnightblue" d="M298.53,-117.9C282.21,-108 260.9,-95.07 247.03,-86.65"/>
<polygon fill="midnightblue" stroke="midnightblue" points="297.1,-121.13 307.47,-123.32 300.74,-115.14 297.1,-121.13"/>
</g>
<!-- Node63&#45;&gt;Node64 -->
<g id="edge24" class="edge">
<title>Node63&#45;&gt;Node64</title>
<path fill="none" stroke="midnightblue" d="M965.05,-117.9C949.1,-108 928.27,-95.07 914.71,-86.65"/>
<polygon fill="midnightblue" stroke="midnightblue" points="963.45,-121.02 973.79,-123.32 967.14,-115.08 963.45,-121.02"/>
</g>
<!-- Node75&#45;&gt;Node78 -->
<g id="edge31" class="edge">
<title>Node75&#45;&gt;Node78</title>
<path fill="none" stroke="midnightblue" d="M591.63,-119.23C569.37,-109.13 538.91,-95.31 519.54,-86.52"/>
<polygon fill="midnightblue" stroke="midnightblue" points="590.36,-122.5 600.91,-123.44 593.25,-116.12 590.36,-122.5"/>
</g>
<!-- Node90&#45;&gt;Node45 -->
<g id="edge36" class="edge">
<title>Node90&#45;&gt;Node45</title>
<path fill="none" stroke="midnightblue" d="M1487.39,-62.87C1465.1,-51.33 1433.33,-34.9 1414.22,-25.01"/>
<polygon fill="midnightblue" stroke="midnightblue" points="1485.8,-65.99 1496.29,-67.48 1489.02,-59.77 1485.8,-65.99"/>
</g>
<!-- Node90&#45;&gt;Node50 -->
<g id="edge37" class="edge">
<title>Node90&#45;&gt;Node50</title>
<path fill="none" stroke="midnightblue" d="M1531.71,-60.97C1546.06,-49.59 1565.24,-34.37 1577.04,-25.01"/>
<polygon fill="midnightblue" stroke="midnightblue" points="1529.17,-58.52 1523.52,-67.48 1533.52,-64 1529.17,-58.52"/>
</g>
<!-- Node91 -->
<g id="node32" class="node">
<title>Node91</title>
<g id="a_node32"><a xlink:href="_a_b_l_stats_8cpp.html" target="_top" xlink:title=" ">
<polygon fill="white" stroke="black" points="1461.77,-6 1461.77,-25 1541.77,-25 1541.77,-6 1461.77,-6"/>
<text text-anchor="middle" x="1501.77" y="-13" font-family="Helvetica,sans-Serif" font-size="10.00">ABLStats.cpp</text>
</a>
</g>
</g>
<!-- Node90&#45;&gt;Node91 -->
<g id="edge38" class="edge">
<title>Node90&#45;&gt;Node91</title>
<path fill="none" stroke="midnightblue" d="M1509.32,-57.32C1507.31,-46.5 1504.89,-33.4 1503.34,-25.01"/>
<polygon fill="midnightblue" stroke="midnightblue" points="1505.93,-58.28 1511.19,-67.48 1512.82,-57.01 1505.93,-58.28"/>
</g>
<!-- Node93 -->
<g id="node34" class="node">
<title>Node93</title>
<g id="a_node34"><a xlink:href="_a_b_l_wall_function_8_h.html" target="_top" xlink:title=" ">
<polygon fill="white" stroke="black" points="1649.27,-179.5 1649.27,-198.5 1756.27,-198.5 1756.27,-179.5 1649.27,-179.5"/>
<text text-anchor="middle" x="1702.77" y="-186.5" font-family="Helvetica,sans-Serif" font-size="10.00">ABLWallFunction.H</text>
</a>
</g>
</g>
<!-- Node92&#45;&gt;Node93 -->
<g id="edge40" class="edge">
<title>Node92&#45;&gt;Node93</title>
<path fill="none" stroke="midnightblue" d="M1664.06,-228C1673.81,-218.43 1685.82,-206.64 1693.86,-198.75"/>
<polygon fill="midnightblue" stroke="midnightblue" points="1661.54,-225.58 1656.85,-235.08 1666.44,-230.57 1661.54,-225.58"/>
</g>
<!-- Node97 -->
<g id="node38" class="node">
<title>Node97</title>
<g id="a_node38"><a xlink:href="_shear_stress_8_h.html" target="_top" xlink:title=" ">
<polygon fill="white" stroke="black" points="1810.27,-179.5 1810.27,-198.5 1895.27,-198.5 1895.27,-179.5 1810.27,-179.5"/>
<text text-anchor="middle" x="1852.77" y="-186.5" font-family="Helvetica,sans-Serif" font-size="10.00">ShearStress.H</text>
</a>
</g>
</g>
<!-- Node92&#45;&gt;Node97 -->
<g id="edge49" class="edge">
<title>Node92&#45;&gt;Node97</title>
<path fill="none" stroke="midnightblue" d="M1690.18,-232.83C1728.88,-222.63 1785.26,-207.78 1820.44,-198.52"/>
<polygon fill="midnightblue" stroke="midnightblue" points="1689.03,-229.51 1680.25,-235.44 1690.81,-236.28 1689.03,-229.51"/>
</g>
<!-- Node98 -->
<g id="node39" class="node">
<title>Node98</title>
<g id="a_node39"><a xlink:href="_m_o_data_8cpp.html" target="_top" xlink:title=" ">
<polygon fill="white" stroke="black" points="1554.27,-179.5 1554.27,-198.5 1631.27,-198.5 1631.27,-179.5 1554.27,-179.5"/>
<text text-anchor="middle" x="1592.77" y="-186.5" font-family="Helvetica,sans-Serif" font-size="10.00">MOData.cpp</text>
</a>
</g>
</g>
<!-- Node92&#45;&gt;Node98 -->
<g id="edge51" class="edge">
<title>Node92&#45;&gt;Node98</title>
<path fill="none" stroke="midnightblue" d="M1631.48,-228C1621.73,-218.43 1609.72,-206.64 1601.68,-198.75"/>
<polygon fill="midnightblue" stroke="midnightblue" points="1629.1,-230.57 1638.69,-235.08 1634,-225.58 1629.1,-230.57"/>
</g>
<!-- Node93&#45;&gt;Node44 -->
<g id="edge41" class="edge">
<title>Node93&#45;&gt;Node44</title>
<path fill="none" stroke="midnightblue" d="M1702.77,-169.35C1702.77,-145.25 1702.77,-104.31 1702.77,-86.59"/>
<polygon fill="midnightblue" stroke="midnightblue" points="1699.27,-169.37 1702.77,-179.37 1706.27,-169.37 1699.27,-169.37"/>
</g>
<!-- Node93&#45;&gt;Node51 -->
<g id="edge48" class="edge">
<title>Node93&#45;&gt;Node51</title>
<path fill="none" stroke="midnightblue" d="M1766.46,-180.23C1798.36,-174.01 1836.36,-162.87 1865.77,-143 1900.98,-119.21 1888.27,-90.36 1923.77,-67 1930.73,-62.42 2032.58,-38.21 2088.93,-25.05"/>
<polygon fill="midnightblue" stroke="midnightblue" points="1765.54,-176.84 1756.33,-182.09 1766.8,-183.73 1765.54,-176.84"/>
</g>
<!-- Node94 -->
<g id="node35" class="node">
<title>Node94</title>
<g id="a_node35"><a xlink:href="_a_b_l_stats_base_8_h.html" target="_top" xlink:title=" ">
<polygon fill="white" stroke="black" points="1579.27,-123.5 1579.27,-142.5 1674.27,-142.5 1674.27,-123.5 1579.27,-123.5"/>
<text text-anchor="middle" x="1626.77" y="-130.5" font-family="Helvetica,sans-Serif" font-size="10.00">ABLStatsBase.H</text>
</a>
</g>
</g>
<!-- Node93&#45;&gt;Node94 -->
<g id="edge42" class="edge">
<title>Node93&#45;&gt;Node94</title>
<path fill="none" stroke="midnightblue" d="M1682.19,-173.38C1668.46,-163.62 1650.84,-151.11 1639.2,-142.83"/>
<polygon fill="midnightblue" stroke="midnightblue" points="1680.38,-176.38 1690.56,-179.32 1684.43,-170.68 1680.38,-176.38"/>
</g>
<!-- Node95 -->
<g id="node36" class="node">
<title>Node95</title>
<g id="a_node36"><a xlink:href="_a_b_l_stats_8_h.html" target="_top" xlink:title=" ">
<polygon fill="white" stroke="black" points="1571.27,-67.5 1571.27,-86.5 1642.27,-86.5 1642.27,-67.5 1571.27,-67.5"/>
<text text-anchor="middle" x="1606.77" y="-74.5" font-family="Helvetica,sans-Serif" font-size="10.00">ABLStats.H</text>
</a>
</g>
</g>
<!-- Node93&#45;&gt;Node95 -->
<g id="edge47" class="edge">
<title>Node93&#45;&gt;Node95</title>
<path fill="none" stroke="midnightblue" d="M1651.79,-177.07C1618.94,-168.87 1580.6,-156.74 1570.77,-143 1557.26,-124.12 1580.54,-99.65 1595.56,-86.79"/>
<polygon fill="midnightblue" stroke="midnightblue" points="1651.23,-180.53 1661.77,-179.48 1652.87,-173.73 1651.23,-180.53"/>
</g>
<!-- Node96 -->
<g id="node37" class="node">
<title>Node96</title>
<g id="a_node37"><a xlink:href="_boussinesq_bubble_8cpp.html" target="_top" xlink:title=" ">
<polygon fill="white" stroke="black" points="1730.77,-123.5 1730.77,-142.5 1856.77,-142.5 1856.77,-123.5 1730.77,-123.5"/>
<text text-anchor="middle" x="1793.77" y="-130.5" font-family="Helvetica,sans-Serif" font-size="10.00">BoussinesqBubble.cpp</text>
</a>
</g>
</g>
<!-- Node93&#45;&gt;Node96 -->
<g id="edge46" class="edge">
<title>Node93&#45;&gt;Node96</title>
<path fill="none" stroke="midnightblue" d="M1726.06,-174.18C1742.81,-164.24 1764.87,-151.15 1779.18,-142.65"/>
<polygon fill="midnightblue" stroke="midnightblue" points="1724.2,-171.21 1717.39,-179.32 1727.78,-177.23 1724.2,-171.21"/>
</g>
<!-- Node94&#45;&gt;Node44 -->
<g id="edge43" class="edge">
<title>Node94&#45;&gt;Node44</title>
<path fill="none" stroke="midnightblue" d="M1647.35,-117.38C1661.08,-107.62 1678.69,-95.11 1690.34,-86.83"/>
<polygon fill="midnightblue" stroke="midnightblue" points="1645.1,-114.68 1638.98,-123.32 1649.16,-120.38 1645.1,-114.68"/>
</g>
<!-- Node94&#45;&gt;Node95 -->
<g id="edge44" class="edge">
<title>Node94&#45;&gt;Node95</title>
<path fill="none" stroke="midnightblue" d="M1619.99,-113.69C1616.62,-104.59 1612.7,-94.01 1610.01,-86.75"/>
<polygon fill="midnightblue" stroke="midnightblue" points="1616.71,-114.92 1623.47,-123.08 1623.28,-112.49 1616.71,-114.92"/>
</g>
<!-- Node95&#45;&gt;Node91 -->
<g id="edge45" class="edge">
<title>Node95&#45;&gt;Node91</title>
<path fill="none" stroke="midnightblue" d="M1582.77,-62.4C1562.47,-50.9 1534,-34.77 1516.79,-25.01"/>
<polygon fill="midnightblue" stroke="midnightblue" points="1581.3,-65.59 1591.73,-67.48 1584.75,-59.5 1581.3,-65.59"/>
</g>
<!-- Node97&#45;&gt;Node51 -->
<g id="edge50" class="edge">
<title>Node97&#45;&gt;Node51</title>
<path fill="none" stroke="midnightblue" d="M1870.57,-172.42C1879.54,-164.14 1890.27,-153.51 1898.77,-143 1923.89,-111.93 1914.75,-90.9 1946.77,-67 1958.38,-58.33 2041.71,-36.99 2090.48,-25.01"/>
<polygon fill="midnightblue" stroke="midnightblue" points="1868.03,-170 1862.95,-179.3 1872.72,-175.2 1868.03,-170"/>
</g>
</g>
</svg>
        <g id="navigator" transform="translate(0 0)" fill="#404254">
                <rect fill="#f2f5e9" fill-opacity="0.5" stroke="#606060" stroke-width=".5" x="0" y="0" width="60" height="60"/>
                <use id="zoomplus" xlink:href="#zoomPlus" x="17" y="9" onmousedown="handleZoom(evt,'in')"/>
                <use id="zoomminus" xlink:href="#zoomMin" x="42" y="9" onmousedown="handleZoom(evt,'out')"/>
                <use id="reset" xlink:href="#resetDef" x="30" y="36" onmousedown="handleReset()"/>
                <g id="arrowUp" xlink:href="#dirArrow" transform="translate(30 24)" onmousedown="handlePan(0,-1)">
                  <use xlink:href="#rim" fill="#404040">
                        <set attributeName="fill" to="#808080" begin="arrowUp.mouseover" end="arrowUp.mouseout"/>
                  </use>
                  <path fill="none" stroke="white" stroke-width="1.5" d="M0,-3.0v7 M-2.5,-0.5L0,-3.0L2.5,-0.5"/>
                </g>
                <g id="arrowRight" xlink:href="#dirArrow" transform="rotate(90) translate(36 -43)" onmousedown="handlePan(1,0)">
                  <use xlink:href="#rim" fill="#404040">
                        <set attributeName="fill" to="#808080" begin="arrowRight.mouseover" end="arrowRight.mouseout"/>
                  </use>
                  <path fill="none" stroke="white" stroke-width="1.5" d="M0,-3.0v7 M-2.5,-0.5L0,-3.0L2.5,-0.5"/>
                </g>
                <g id="arrowDown" xlink:href="#dirArrow" transform="rotate(180) translate(-30 -48)" onmousedown="handlePan(0,1)">
                  <use xlink:href="#rim" fill="#404040">
                        <set attributeName="fill" to="#808080" begin="arrowDown.mouseover" end="arrowDown.mouseout"/>
                  </use>
                  <path fill="none" stroke="white" stroke-width="1.5" d="M0,-3.0v7 M-2.5,-0.5L0,-3.0L2.5,-0.5"/>
                </g>
                <g id="arrowLeft" xlink:href="#dirArrow" transform="rotate(270) translate(-36 17)" onmousedown="handlePan(-1,0)">
                  <use xlink:href="#rim" fill="#404040">
                        <set attributeName="fill" to="#808080" begin="arrowLeft.mouseover" end="arrowLeft.mouseout"/>
                  </use>
                  <path fill="none" stroke="white" stroke-width="1.5" d="M0,-3.0v7 M-2.5,-0.5L0,-3.0L2.5,-0.5"/>
                </g>
        </g>
        <svg viewBox="0 0 15 15" width="100%" height="30px" preserveAspectRatio="xMaxYMin meet">
         <g id="arrow_out" transform="scale(0.3 0.3)">
          <a xlink:href="trig__ops_8_h__dep__incl_org.svg" target="_base">
           <rect id="button" ry="5" rx="5" y="6" x="6" height="38" width="38"
                fill="#f2f5e9" fill-opacity="0.5" stroke="#606060" stroke-width="1.0"/>
           <path id="arrow"
             d="M 11.500037,31.436501 C 11.940474,20.09759 22.043105,11.32322 32.158766,21.979434 L 37.068811,17.246167 C 37.068811,17.246167 37.088388,32 37.088388,32 L 22.160133,31.978069 C 22.160133,31.978069 26.997745,27.140456 26.997745,27.140456 C 18.528582,18.264221 13.291696,25.230495 11.500037,31.436501 z"
             style="fill:#404040;"/>
          </a>
         </g>
        </svg>
</svg>
