<?xml version="1.0" encoding="UTF-8" standalone="no"?>
<!DOCTYPE svg PUBLIC "-//W3C//DTD SVG 1.1//EN"
 "http://www.w3.org/Graphics/SVG/1.1/DTD/svg11.dtd">
<!-- Generated by graphviz version 2.43.0 (0)
 -->
<!-- Title: vector.H Pages: 1 -->
<svg width="2421pt" height="420pt"
 viewBox="0.00 0.00 2421.00 420.00" xmlns="http://www.w3.org/2000/svg" xmlns:xlink="http://www.w3.org/1999/xlink">
<g id="graph0" class="graph" transform="scale(1 1) rotate(0) translate(4 416)">
<title>vector.H</title>
<polygon fill="white" stroke="transparent" points="-4,4 -4,-416 2417,-416 2417,4 -4,4"/>
<!-- Node1 -->
<g id="node1" class="node">
<title>Node1</title>
<g id="a_node1"><a xlink:title=" ">
<polygon fill="#bfbfbf" stroke="black" points="1685,-392.5 1685,-411.5 1742,-411.5 1742,-392.5 1685,-392.5"/>
<text text-anchor="middle" x="1713.5" y="-399.5" font-family="Helvetica,sans-Serif" font-size="10.00">vector.H</text>
</a>
</g>
</g>
<!-- Node2 -->
<g id="node2" class="node">
<title>Node2</title>
<g id="a_node2"><a xlink:href="vector__space_8_h.html" target="_top" xlink:title=" ">
<polygon fill="white" stroke="black" points="1505.5,-280.5 1505.5,-299.5 1597.5,-299.5 1597.5,-280.5 1505.5,-280.5"/>
<text text-anchor="middle" x="1551.5" y="-287.5" font-family="Helvetica,sans-Serif" font-size="10.00">vector_space.H</text>
</a>
</g>
</g>
<!-- Node1&#45;&gt;Node2 -->
<g id="edge1" class="edge">
<title>Node1&#45;&gt;Node2</title>
<path fill="none" stroke="midnightblue" d="M1674.91,-391.62C1651.44,-384.57 1621.79,-373.13 1599.5,-356 1579.04,-340.27 1563.19,-313.57 1555.9,-299.8"/>
<polygon fill="midnightblue" stroke="midnightblue" points="1673.98,-395 1684.55,-394.38 1675.9,-388.27 1673.98,-395"/>
</g>
<!-- Node88 -->
<g id="node47" class="node">
<title>Node88</title>
<g id="a_node47"><a xlink:href="vector_i_8_h.html" target="_top" xlink:title=" ">
<polygon fill="white" stroke="black" points="1683,-336.5 1683,-355.5 1744,-355.5 1744,-336.5 1683,-336.5"/>
<text text-anchor="middle" x="1713.5" y="-343.5" font-family="Helvetica,sans-Serif" font-size="10.00">vectorI.H</text>
</a>
</g>
</g>
<!-- Node1&#45;&gt;Node88 -->
<g id="edge78" class="edge">
<title>Node1&#45;&gt;Node88</title>
<path fill="none" stroke="midnightblue" d="M1707.03,-382.1C1706.4,-373.14 1706.84,-362.86 1708.37,-355.75"/>
<polygon fill="midnightblue" stroke="midnightblue" points="1703.57,-382.62 1708.33,-392.08 1710.51,-381.71 1703.57,-382.62"/>
</g>
<!-- Node89 -->
<g id="node48" class="node">
<title>Node89</title>
<g id="a_node48"><a xlink:href="tensor_8_h.html" target="_top" xlink:title=" ">
<polygon fill="white" stroke="black" points="1608,-336.5 1608,-355.5 1665,-355.5 1665,-336.5 1608,-336.5"/>
<text text-anchor="middle" x="1636.5" y="-343.5" font-family="Helvetica,sans-Serif" font-size="10.00">tensor.H</text>
</a>
</g>
</g>
<!-- Node1&#45;&gt;Node89 -->
<g id="edge80" class="edge">
<title>Node1&#45;&gt;Node89</title>
<path fill="none" stroke="midnightblue" d="M1692.6,-386.34C1678.59,-376.52 1660.62,-363.91 1648.84,-355.65"/>
<polygon fill="midnightblue" stroke="midnightblue" points="1690.93,-389.45 1701.13,-392.32 1694.95,-383.72 1690.93,-389.45"/>
</g>
<!-- Node91 -->
<g id="node50" class="node">
<title>Node91</title>
<g id="a_node50"><a xlink:href="_power_law_profile_8cpp.html" target="_top" xlink:title=" ">
<polygon fill="white" stroke="black" points="1762,-336.5 1762,-355.5 1879,-355.5 1879,-336.5 1762,-336.5"/>
<text text-anchor="middle" x="1820.5" y="-343.5" font-family="Helvetica,sans-Serif" font-size="10.00">PowerLawProfile.cpp</text>
</a>
</g>
</g>
<!-- Node1&#45;&gt;Node91 -->
<g id="edge84" class="edge">
<title>Node1&#45;&gt;Node91</title>
<path fill="none" stroke="midnightblue" d="M1739.8,-387.73C1759.61,-377.73 1786.21,-364.31 1803.35,-355.65"/>
<polygon fill="midnightblue" stroke="midnightblue" points="1738.04,-384.69 1730.69,-392.32 1741.2,-390.94 1738.04,-384.69"/>
</g>
<!-- Node3 -->
<g id="node3" class="node">
<title>Node3</title>
<g id="a_node3"><a xlink:href="_multi_parser_8_h.html" target="_top" xlink:title=" ">
<polygon fill="white" stroke="black" points="440,-224.5 440,-243.5 521,-243.5 521,-224.5 440,-224.5"/>
<text text-anchor="middle" x="480.5" y="-231.5" font-family="Helvetica,sans-Serif" font-size="10.00">MultiParser.H</text>
</a>
</g>
</g>
<!-- Node2&#45;&gt;Node3 -->
<g id="edge2" class="edge">
<title>Node2&#45;&gt;Node3</title>
<path fill="none" stroke="midnightblue" d="M1495.41,-286.17C1304.98,-276.57 685.87,-245.35 521.1,-237.05"/>
<polygon fill="midnightblue" stroke="midnightblue" points="1495.32,-289.67 1505.48,-286.68 1495.67,-282.68 1495.32,-289.67"/>
</g>
<!-- Node41 -->
<g id="node16" class="node">
<title>Node41</title>
<g id="a_node16"><a xlink:href="_a_b_l_modulated_power_law_8_h.html" target="_top" xlink:title=" ">
<polygon fill="white" stroke="black" points="1579.5,-224.5 1579.5,-243.5 1725.5,-243.5 1725.5,-224.5 1579.5,-224.5"/>
<text text-anchor="middle" x="1652.5" y="-231.5" font-family="Helvetica,sans-Serif" font-size="10.00">ABLModulatedPowerLaw.H</text>
</a>
</g>
</g>
<!-- Node2&#45;&gt;Node41 -->
<g id="edge22" class="edge">
<title>Node2&#45;&gt;Node41</title>
<path fill="none" stroke="midnightblue" d="M1576.58,-275.59C1595.26,-265.61 1620.2,-252.27 1636.31,-243.65"/>
<polygon fill="midnightblue" stroke="midnightblue" points="1574.9,-272.52 1567.73,-280.32 1578.2,-278.7 1574.9,-272.52"/>
</g>
<!-- Node53 -->
<g id="node20" class="node">
<title>Node53</title>
<g id="a_node20"><a xlink:href="_i_b_types_8_h.html" target="_top" xlink:title=" ">
<polygon fill="white" stroke="black" points="297,-224.5 297,-243.5 362,-243.5 362,-224.5 297,-224.5"/>
<text text-anchor="middle" x="329.5" y="-231.5" font-family="Helvetica,sans-Serif" font-size="10.00">IBTypes.H</text>
</a>
</g>
</g>
<!-- Node2&#45;&gt;Node53 -->
<g id="edge27" class="edge">
<title>Node2&#45;&gt;Node53</title>
<path fill="none" stroke="midnightblue" d="M1494.92,-287.7C1330.44,-283.73 838.23,-270.33 430.5,-244 407.66,-242.52 381.97,-240.23 362.22,-238.32"/>
<polygon fill="midnightblue" stroke="midnightblue" points="1495.19,-291.21 1505.28,-287.95 1495.36,-284.21 1495.19,-291.21"/>
</g>
<!-- Node54 -->
<g id="node21" class="node">
<title>Node54</title>
<g id="a_node21"><a xlink:href="_bluff_body_8_h.html" target="_top" xlink:title=" ">
<polygon fill="white" stroke="black" points="134,-168.5 134,-187.5 207,-187.5 207,-168.5 134,-168.5"/>
<text text-anchor="middle" x="170.5" y="-175.5" font-family="Helvetica,sans-Serif" font-size="10.00">BluffBody.H</text>
</a>
</g>
</g>
<!-- Node2&#45;&gt;Node54 -->
<g id="edge38" class="edge">
<title>Node2&#45;&gt;Node54</title>
<path fill="none" stroke="midnightblue" d="M1495.11,-288.54C1265.12,-286.47 404.63,-276.59 287.5,-244 245.19,-232.23 201.58,-202.41 181.65,-187.61"/>
<polygon fill="midnightblue" stroke="midnightblue" points="1495.23,-292.04 1505.26,-288.63 1495.3,-285.04 1495.23,-292.04"/>
</g>
<!-- Node59 -->
<g id="node26" class="node">
<title>Node59</title>
<g id="a_node26"><a xlink:href="_synthetic_turbulence_8_h.html" target="_top" xlink:title=" ">
<polygon fill="white" stroke="black" points="1756,-224.5 1756,-243.5 1881,-243.5 1881,-224.5 1756,-224.5"/>
<text text-anchor="middle" x="1818.5" y="-231.5" font-family="Helvetica,sans-Serif" font-size="10.00">SyntheticTurbulence.H</text>
</a>
</g>
</g>
<!-- Node2&#45;&gt;Node59 -->
<g id="edge39" class="edge">
<title>Node2&#45;&gt;Node59</title>
<path fill="none" stroke="midnightblue" d="M1603.86,-278.41C1654.32,-268.2 1729.7,-252.96 1776.39,-243.52"/>
<polygon fill="midnightblue" stroke="midnightblue" points="1602.91,-275.03 1593.81,-280.44 1604.3,-281.89 1602.91,-275.03"/>
</g>
<!-- Node61 -->
<g id="node28" class="node">
<title>Node61</title>
<g id="a_node28"><a xlink:href="_lidar_sampler_8_h.html" target="_top" xlink:title=" ">
<polygon fill="white" stroke="black" points="1947,-224.5 1947,-243.5 2038,-243.5 2038,-224.5 1947,-224.5"/>
<text text-anchor="middle" x="1992.5" y="-231.5" font-family="Helvetica,sans-Serif" font-size="10.00">LidarSampler.H</text>
</a>
</g>
</g>
<!-- Node2&#45;&gt;Node61 -->
<g id="edge41" class="edge">
<title>Node2&#45;&gt;Node61</title>
<path fill="none" stroke="midnightblue" d="M1607.73,-280.04C1751.88,-260.63 1789.86,-261.78 1929.5,-244 1935.09,-243.29 1940.95,-242.5 1946.76,-241.7"/>
<polygon fill="midnightblue" stroke="midnightblue" points="1607.06,-276.6 1597.62,-281.41 1608,-283.53 1607.06,-276.6"/>
</g>
<!-- Node62 -->
<g id="node29" class="node">
<title>Node62</title>
<g id="a_node29"><a xlink:href="_d_t_u_spinner_sampler_8_h.html" target="_top" xlink:title=" ">
<polygon fill="white" stroke="black" points="1933,-168.5 1933,-187.5 2058,-187.5 2058,-168.5 1933,-168.5"/>
<text text-anchor="middle" x="1995.5" y="-175.5" font-family="Helvetica,sans-Serif" font-size="10.00">DTUSpinnerSampler.H</text>
</a>
</g>
</g>
<!-- Node2&#45;&gt;Node62 -->
<g id="edge45" class="edge">
<title>Node2&#45;&gt;Node62</title>
<path fill="none" stroke="midnightblue" d="M1607.75,-280.06C1734.98,-263.13 1774.02,-285.26 1890.5,-244 1928.29,-230.61 1966.9,-202.1 1984.96,-187.7"/>
<polygon fill="midnightblue" stroke="midnightblue" points="1607.05,-276.62 1597.63,-281.46 1608.01,-283.56 1607.05,-276.62"/>
</g>
<!-- Node65 -->
<g id="node32" class="node">
<title>Node65</title>
<g id="a_node32"><a xlink:href="_box_refiner_8_h.html" target="_top" xlink:title=" ">
<polygon fill="white" stroke="black" points="2056.5,-224.5 2056.5,-243.5 2136.5,-243.5 2136.5,-224.5 2056.5,-224.5"/>
<text text-anchor="middle" x="2096.5" y="-231.5" font-family="Helvetica,sans-Serif" font-size="10.00">BoxRefiner.H</text>
</a>
</g>
</g>
<!-- Node2&#45;&gt;Node65 -->
<g id="edge46" class="edge">
<title>Node2&#45;&gt;Node65</title>
<path fill="none" stroke="midnightblue" d="M1607.67,-280.09C1804.01,-256.85 1856.22,-269.33 2047.5,-244 2050.42,-243.61 2053.42,-243.17 2056.44,-242.7"/>
<polygon fill="midnightblue" stroke="midnightblue" points="1607.12,-276.63 1597.6,-281.3 1607.95,-283.58 1607.12,-276.63"/>
</g>
<!-- Node67 -->
<g id="node34" class="node">
<title>Node67</title>
<g id="a_node34"><a xlink:href="_cylinder_refiner_8_h.html" target="_top" xlink:title=" ">
<polygon fill="white" stroke="black" points="2155,-224.5 2155,-243.5 2256,-243.5 2256,-224.5 2155,-224.5"/>
<text text-anchor="middle" x="2205.5" y="-231.5" font-family="Helvetica,sans-Serif" font-size="10.00">CylinderRefiner.H</text>
</a>
</g>
</g>
<!-- Node2&#45;&gt;Node67 -->
<g id="edge48" class="edge">
<title>Node2&#45;&gt;Node67</title>
<path fill="none" stroke="midnightblue" d="M1607.67,-280.11C1847.33,-253.41 1910.5,-269.44 2145.5,-244 2148.54,-243.67 2151.66,-243.3 2154.8,-242.9"/>
<polygon fill="midnightblue" stroke="midnightblue" points="1607.14,-276.65 1597.6,-281.24 1607.93,-283.6 1607.14,-276.65"/>
</g>
<!-- Node69 -->
<g id="node36" class="node">
<title>Node69</title>
<g id="a_node36"><a xlink:href="actuator__types_8_h.html" target="_top" xlink:title=" ">
<polygon fill="white" stroke="black" points="1120.5,-168.5 1120.5,-187.5 1220.5,-187.5 1220.5,-168.5 1120.5,-168.5"/>
<text text-anchor="middle" x="1170.5" y="-175.5" font-family="Helvetica,sans-Serif" font-size="10.00">actuator_types.H</text>
</a>
</g>
</g>
<!-- Node2&#45;&gt;Node69 -->
<g id="edge50" class="edge">
<title>Node2&#45;&gt;Node69</title>
<path fill="none" stroke="midnightblue" d="M1511.89,-277.69C1480.14,-268.61 1434.45,-255.52 1394.5,-244 1324.66,-223.86 1242.63,-200.01 1199.84,-187.55"/>
<polygon fill="midnightblue" stroke="midnightblue" points="1511.11,-281.1 1521.69,-280.49 1513.03,-274.37 1511.11,-281.1"/>
</g>
<!-- Node73 -->
<g id="node39" class="node">
<title>Node73</title>
<g id="a_node39"><a xlink:href="_actuator_disk_8_h.html" target="_top" xlink:title=" ">
<polygon fill="white" stroke="red" points="1433.5,-56.5 1433.5,-75.5 1523.5,-75.5 1523.5,-56.5 1433.5,-56.5"/>
<text text-anchor="middle" x="1478.5" y="-63.5" font-family="Helvetica,sans-Serif" font-size="10.00">ActuatorDisk.H</text>
</a>
</g>
</g>
<!-- Node2&#45;&gt;Node73 -->
<g id="edge74" class="edge">
<title>Node2&#45;&gt;Node73</title>
<path fill="none" stroke="midnightblue" d="M1545.81,-270.72C1535.76,-238.54 1514.05,-169.71 1494.5,-112 1490.19,-99.28 1484.93,-84.64 1481.64,-75.6"/>
<polygon fill="midnightblue" stroke="midnightblue" points="1542.54,-271.99 1548.86,-280.5 1549.23,-269.91 1542.54,-271.99"/>
</g>
<!-- Node76 -->
<g id="node40" class="node">
<title>Node76</title>
<g id="a_node40"><a xlink:href="_joukowsky_8_h.html" target="_top" xlink:title=" ">
<polygon fill="white" stroke="red" points="1440,-0.5 1440,-19.5 1517,-19.5 1517,-0.5 1440,-0.5"/>
<text text-anchor="middle" x="1478.5" y="-7.5" font-family="Helvetica,sans-Serif" font-size="10.00">Joukowsky.H</text>
</a>
</g>
</g>
<!-- Node2&#45;&gt;Node76 -->
<g id="edge76" class="edge">
<title>Node2&#45;&gt;Node76</title>
<path fill="none" stroke="midnightblue" d="M1551.5,-270.25C1551.5,-248.36 1551.5,-211.05 1551.5,-179 1551.5,-179 1551.5,-179 1551.5,-121 1551.5,-90.9 1549,-81.17 1532.5,-56 1522.33,-40.49 1505.2,-27.53 1492.96,-19.56"/>
<polygon fill="midnightblue" stroke="midnightblue" points="1548,-270.44 1551.5,-280.44 1555,-270.44 1548,-270.44"/>
</g>
<!-- Node83 -->
<g id="node43" class="node">
<title>Node83</title>
<g id="a_node43"><a xlink:href="_actuator_wing_8_h.html" target="_top" xlink:title=" ">
<polygon fill="white" stroke="red" points="1294,-112.5 1294,-131.5 1387,-131.5 1387,-112.5 1294,-112.5"/>
<text text-anchor="middle" x="1340.5" y="-119.5" font-family="Helvetica,sans-Serif" font-size="10.00">ActuatorWing.H</text>
</a>
</g>
</g>
<!-- Node2&#45;&gt;Node83 -->
<g id="edge77" class="edge">
<title>Node2&#45;&gt;Node83</title>
<path fill="none" stroke="midnightblue" d="M1532.45,-274.01C1489.34,-240.1 1385.4,-158.32 1351.44,-131.61"/>
<polygon fill="midnightblue" stroke="midnightblue" points="1530.43,-276.88 1540.45,-280.31 1534.76,-271.37 1530.43,-276.88"/>
</g>
<!-- Node84 -->
<g id="node44" class="node">
<title>Node84</title>
<g id="a_node44"><a xlink:href="actuator__utils_8_h.html" target="_top" xlink:title=" ">
<polygon fill="white" stroke="red" points="730.5,-224.5 730.5,-243.5 824.5,-243.5 824.5,-224.5 730.5,-224.5"/>
<text text-anchor="middle" x="777.5" y="-231.5" font-family="Helvetica,sans-Serif" font-size="10.00">actuator_utils.H</text>
</a>
</g>
</g>
<!-- Node2&#45;&gt;Node84 -->
<g id="edge68" class="edge">
<title>Node2&#45;&gt;Node84</title>
<path fill="none" stroke="midnightblue" d="M1495.32,-285.08C1349.4,-274.9 960.34,-247.76 824.83,-238.3"/>
<polygon fill="midnightblue" stroke="midnightblue" points="1495.18,-288.58 1505.4,-285.78 1495.67,-281.6 1495.18,-288.58"/>
</g>
<!-- Node86 -->
<g id="node46" class="node">
<title>Node86</title>
<g id="a_node46"><a xlink:href="_actuator_container_8_h.html" target="_top" xlink:title=" ">
<polygon fill="white" stroke="red" points="2274,-224.5 2274,-243.5 2389,-243.5 2389,-224.5 2274,-224.5"/>
<text text-anchor="middle" x="2331.5" y="-231.5" font-family="Helvetica,sans-Serif" font-size="10.00">ActuatorContainer.H</text>
</a>
</g>
</g>
<!-- Node2&#45;&gt;Node86 -->
<g id="edge75" class="edge">
<title>Node2&#45;&gt;Node86</title>
<path fill="none" stroke="midnightblue" d="M1607.65,-280.13C1900.42,-249.23 1977.22,-271.5 2265.5,-244 2268.26,-243.74 2271.09,-243.44 2273.94,-243.13"/>
<polygon fill="midnightblue" stroke="midnightblue" points="1607.17,-276.66 1597.59,-281.2 1607.91,-283.62 1607.17,-276.66"/>
</g>
<!-- Node4 -->
<g id="node4" class="node">
<title>Node4</title>
<g id="a_node4"><a xlink:href="bluff__body__ops_8_h.html" target="_top" xlink:title=" ">
<polygon fill="white" stroke="red" points="229,-112.5 229,-131.5 330,-131.5 330,-112.5 229,-112.5"/>
<text text-anchor="middle" x="279.5" y="-119.5" font-family="Helvetica,sans-Serif" font-size="10.00">bluff_body_ops.H</text>
</a>
</g>
</g>
<!-- Node3&#45;&gt;Node4 -->
<g id="edge3" class="edge">
<title>Node3&#45;&gt;Node4</title>
<path fill="none" stroke="midnightblue" d="M429.83,-227.05C380.81,-220.25 311.25,-207.46 292.5,-188 277.81,-172.75 277.52,-145.84 278.52,-131.91"/>
<polygon fill="midnightblue" stroke="midnightblue" points="429.58,-230.55 439.95,-228.41 430.51,-223.61 429.58,-230.55"/>
</g>
<!-- Node5 -->
<g id="node5" class="node">
<title>Node5</title>
<g id="a_node5"><a xlink:href="bluff__body__ops_8cpp.html" target="_top" xlink:title=" ">
<polygon fill="white" stroke="black" points="259.5,-56.5 259.5,-75.5 369.5,-75.5 369.5,-56.5 259.5,-56.5"/>
<text text-anchor="middle" x="314.5" y="-63.5" font-family="Helvetica,sans-Serif" font-size="10.00">bluff_body_ops.cpp</text>
</a>
</g>
</g>
<!-- Node3&#45;&gt;Node5 -->
<g id="edge5" class="edge">
<title>Node3&#45;&gt;Node5</title>
<path fill="none" stroke="midnightblue" d="M478.41,-214.26C474.52,-188 463.8,-140.3 435.5,-112 416.48,-92.98 388.71,-81.91 364.56,-75.5"/>
<polygon fill="midnightblue" stroke="midnightblue" points="474.96,-214.91 479.72,-224.37 481.9,-214.01 474.96,-214.91"/>
</g>
<!-- Node12 -->
<g id="node6" class="node">
<title>Node12</title>
<g id="a_node6"><a xlink:href="_i_b_model_8_h.html" target="_top" xlink:title=" ">
<polygon fill="white" stroke="red" points="360,-112.5 360,-131.5 427,-131.5 427,-112.5 360,-112.5"/>
<text text-anchor="middle" x="393.5" y="-119.5" font-family="Helvetica,sans-Serif" font-size="10.00">IBModel.H</text>
</a>
</g>
</g>
<!-- Node3&#45;&gt;Node12 -->
<g id="edge6" class="edge">
<title>Node3&#45;&gt;Node12</title>
<path fill="none" stroke="midnightblue" d="M467.27,-216.27C448.46,-192.49 414.69,-149.79 400.3,-131.59"/>
<polygon fill="midnightblue" stroke="midnightblue" points="464.72,-218.7 473.67,-224.37 470.22,-214.35 464.72,-218.7"/>
</g>
<!-- Node13 -->
<g id="node7" class="node">
<title>Node13</title>
<g id="a_node7"><a xlink:href="_i_b_8cpp.html" target="_top" xlink:title=" ">
<polygon fill="white" stroke="black" points="423,-56.5 423,-75.5 470,-75.5 470,-56.5 423,-56.5"/>
<text text-anchor="middle" x="446.5" y="-63.5" font-family="Helvetica,sans-Serif" font-size="10.00">IB.cpp</text>
</a>
</g>
</g>
<!-- Node3&#45;&gt;Node13 -->
<g id="edge8" class="edge">
<title>Node3&#45;&gt;Node13</title>
<path fill="none" stroke="midnightblue" d="M482.71,-214.24C484.9,-190 486.52,-146.78 475.5,-112 471.06,-98 461.06,-84.14 454.05,-75.58"/>
<polygon fill="midnightblue" stroke="midnightblue" points="479.22,-213.92 481.67,-224.22 486.19,-214.64 479.22,-213.92"/>
</g>
<!-- Node14 -->
<g id="node8" class="node">
<title>Node14</title>
<g id="a_node8"><a xlink:href="_act_parser_8_h.html" target="_top" xlink:title=" ">
<polygon fill="white" stroke="red" points="527.5,-168.5 527.5,-187.5 599.5,-187.5 599.5,-168.5 527.5,-168.5"/>
<text text-anchor="middle" x="563.5" y="-175.5" font-family="Helvetica,sans-Serif" font-size="10.00">ActParser.H</text>
</a>
</g>
</g>
<!-- Node3&#45;&gt;Node14 -->
<g id="edge9" class="edge">
<title>Node3&#45;&gt;Node14</title>
<path fill="none" stroke="midnightblue" d="M502.6,-218.62C517.76,-208.76 537.38,-195.99 550.2,-187.65"/>
<polygon fill="midnightblue" stroke="midnightblue" points="500.31,-215.94 493.84,-224.32 504.13,-221.8 500.31,-215.94"/>
</g>
<!-- Node4&#45;&gt;Node5 -->
<g id="edge4" class="edge">
<title>Node4&#45;&gt;Node5</title>
<path fill="none" stroke="midnightblue" d="M290.8,-103.57C296.82,-94.27 303.97,-83.25 308.83,-75.75"/>
<polygon fill="midnightblue" stroke="midnightblue" points="287.78,-101.79 285.28,-112.08 293.66,-105.6 287.78,-101.79"/>
</g>
<!-- Node12&#45;&gt;Node13 -->
<g id="edge7" class="edge">
<title>Node12&#45;&gt;Node13</title>
<path fill="none" stroke="midnightblue" d="M409.48,-104.72C418.82,-95.2 430.25,-83.56 437.91,-75.75"/>
<polygon fill="midnightblue" stroke="midnightblue" points="406.76,-102.49 402.25,-112.08 411.75,-107.4 406.76,-102.49"/>
</g>
<!-- Node15 -->
<g id="node9" class="node">
<title>Node15</title>
<g id="a_node9"><a xlink:href="actuator__ops_8_h.html" target="_top" xlink:title=" ">
<polygon fill="white" stroke="red" points="655.5,-112.5 655.5,-131.5 745.5,-131.5 745.5,-112.5 655.5,-112.5"/>
<text text-anchor="middle" x="700.5" y="-119.5" font-family="Helvetica,sans-Serif" font-size="10.00">actuator_ops.H</text>
</a>
</g>
</g>
<!-- Node14&#45;&gt;Node15 -->
<g id="edge10" class="edge">
<title>Node14&#45;&gt;Node15</title>
<path fill="none" stroke="midnightblue" d="M594.52,-164.77C620.26,-154.63 656.19,-140.47 678.89,-131.52"/>
<polygon fill="midnightblue" stroke="midnightblue" points="593.23,-161.52 585.21,-168.44 595.79,-168.03 593.23,-161.52"/>
</g>
<!-- Node17 -->
<g id="node11" class="node">
<title>Node17</title>
<g id="a_node11"><a xlink:href="_actuator_model_8_h.html" target="_top" xlink:title=" ">
<polygon fill="white" stroke="red" points="688.5,-0.5 688.5,-19.5 786.5,-19.5 786.5,-0.5 688.5,-0.5"/>
<text text-anchor="middle" x="737.5" y="-7.5" font-family="Helvetica,sans-Serif" font-size="10.00">ActuatorModel.H</text>
</a>
</g>
</g>
<!-- Node14&#45;&gt;Node17 -->
<g id="edge17" class="edge">
<title>Node14&#45;&gt;Node17</title>
<path fill="none" stroke="midnightblue" d="M559.47,-158.41C554.98,-132.33 551.23,-84.85 575.5,-56 590.02,-38.74 646.02,-25.93 688.14,-18.47"/>
<polygon fill="midnightblue" stroke="midnightblue" points="556.08,-159.3 561.42,-168.45 562.95,-157.97 556.08,-159.3"/>
</g>
<!-- Node33 -->
<g id="node13" class="node">
<title>Node33</title>
<g id="a_node13"><a xlink:href="wing__ops_8_h.html" target="_top" xlink:title=" ">
<polygon fill="white" stroke="red" points="1161,-0.5 1161,-19.5 1234,-19.5 1234,-0.5 1161,-0.5"/>
<text text-anchor="middle" x="1197.5" y="-7.5" font-family="Helvetica,sans-Serif" font-size="10.00">wing_ops.H</text>
</a>
</g>
</g>
<!-- Node14&#45;&gt;Node33 -->
<g id="edge21" class="edge">
<title>Node14&#45;&gt;Node33</title>
<path fill="none" stroke="midnightblue" d="M567.79,-158.57C575.3,-127.94 591.68,-68.67 608.5,-56 652.58,-22.8 1038.94,-13.62 1160.83,-11.53"/>
<polygon fill="midnightblue" stroke="midnightblue" points="564.35,-157.88 565.43,-168.42 571.16,-159.5 564.35,-157.88"/>
</g>
<!-- Node36 -->
<g id="node14" class="node">
<title>Node36</title>
<g id="a_node14"><a xlink:href="_f_l_l_c_8_h.html" target="_top" xlink:title=" ">
<polygon fill="white" stroke="red" points="801.5,-112.5 801.5,-131.5 851.5,-131.5 851.5,-112.5 801.5,-112.5"/>
<text text-anchor="middle" x="826.5" y="-119.5" font-family="Helvetica,sans-Serif" font-size="10.00">FLLC.H</text>
</a>
</g>
</g>
<!-- Node14&#45;&gt;Node36 -->
<g id="edge18" class="edge">
<title>Node14&#45;&gt;Node36</title>
<path fill="none" stroke="midnightblue" d="M609.47,-167.56C665.15,-156.13 756.96,-137.28 801.16,-128.2"/>
<polygon fill="midnightblue" stroke="midnightblue" points="608.61,-164.16 599.52,-169.6 610.02,-171.02 608.61,-164.16"/>
</g>
<!-- Node16 -->
<g id="node10" class="node">
<title>Node16</title>
<g id="a_node10"><a xlink:href="_act_src_line_op_8_h.html" target="_top" xlink:title=" ">
<polygon fill="white" stroke="black" points="617.5,-56.5 617.5,-75.5 709.5,-75.5 709.5,-56.5 617.5,-56.5"/>
<text text-anchor="middle" x="663.5" y="-63.5" font-family="Helvetica,sans-Serif" font-size="10.00">ActSrcLineOp.H</text>
</a>
</g>
</g>
<!-- Node15&#45;&gt;Node16 -->
<g id="edge11" class="edge">
<title>Node15&#45;&gt;Node16</title>
<path fill="none" stroke="midnightblue" d="M688.55,-103.57C682.19,-94.27 674.63,-83.25 669.5,-75.75"/>
<polygon fill="midnightblue" stroke="midnightblue" points="685.85,-105.81 694.39,-112.08 691.63,-101.86 685.85,-105.81"/>
</g>
<!-- Node15&#45;&gt;Node17 -->
<g id="edge13" class="edge">
<title>Node15&#45;&gt;Node17</title>
<path fill="none" stroke="midnightblue" d="M708.09,-103.17C711.46,-94.97 715.37,-85.06 718.5,-76 725.33,-56.22 731.85,-32.52 735.19,-19.92"/>
<polygon fill="midnightblue" stroke="midnightblue" points="704.83,-101.89 704.2,-112.47 711.29,-104.59 704.83,-101.89"/>
</g>
<!-- Node23 -->
<g id="node12" class="node">
<title>Node23</title>
<g id="a_node12"><a xlink:href="_act_src_disk_op___turbine_8_h.html" target="_top" xlink:title=" ">
<polygon fill="white" stroke="black" points="803.5,-56.5 803.5,-75.5 937.5,-75.5 937.5,-56.5 803.5,-56.5"/>
<text text-anchor="middle" x="870.5" y="-63.5" font-family="Helvetica,sans-Serif" font-size="10.00">ActSrcDiskOp_Turbine.H</text>
</a>
</g>
</g>
<!-- Node15&#45;&gt;Node23 -->
<g id="edge14" class="edge">
<title>Node15&#45;&gt;Node23</title>
<path fill="none" stroke="midnightblue" d="M737.32,-109.3C769.35,-99.13 815.02,-84.62 843.69,-75.52"/>
<polygon fill="midnightblue" stroke="midnightblue" points="735.91,-106.08 727.44,-112.44 738.03,-112.75 735.91,-106.08"/>
</g>
<!-- Node15&#45;&gt;Node33 -->
<g id="edge16" class="edge">
<title>Node15&#45;&gt;Node33</title>
<path fill="none" stroke="midnightblue" d="M717.18,-105.58C734.91,-90.18 764.48,-67.24 794.5,-56 861.26,-31.02 1074.56,-17.4 1160.8,-12.8"/>
<polygon fill="midnightblue" stroke="midnightblue" points="714.61,-103.18 709.48,-112.45 719.27,-108.4 714.61,-103.18"/>
</g>
<!-- Node16&#45;&gt;Node17 -->
<g id="edge12" class="edge">
<title>Node16&#45;&gt;Node17</title>
<path fill="none" stroke="midnightblue" d="M683.53,-50.38C696.91,-40.62 714.06,-28.11 725.39,-19.83"/>
<polygon fill="midnightblue" stroke="midnightblue" points="681.4,-47.6 675.39,-56.32 685.53,-53.26 681.4,-47.6"/>
</g>
<!-- Node23&#45;&gt;Node17 -->
<g id="edge15" class="edge">
<title>Node23&#45;&gt;Node17</title>
<path fill="none" stroke="midnightblue" d="M840.05,-52.64C815.09,-42.5 780.42,-28.43 758.48,-19.52"/>
<polygon fill="midnightblue" stroke="midnightblue" points="838.84,-55.92 849.43,-56.44 841.48,-49.44 838.84,-55.92"/>
</g>
<!-- Node38 -->
<g id="node15" class="node">
<title>Node38</title>
<g id="a_node15"><a xlink:href="_f_l_l_c_op_8_h.html" target="_top" xlink:title=" ">
<polygon fill="white" stroke="red" points="1135.5,-56.5 1135.5,-75.5 1199.5,-75.5 1199.5,-56.5 1135.5,-56.5"/>
<text text-anchor="middle" x="1167.5" y="-63.5" font-family="Helvetica,sans-Serif" font-size="10.00">FLLCOp.H</text>
</a>
</g>
</g>
<!-- Node36&#45;&gt;Node38 -->
<g id="edge19" class="edge">
<title>Node36&#45;&gt;Node38</title>
<path fill="none" stroke="midnightblue" d="M861.54,-111.98C967.15,-90.73 1081.1,-76.66 1135.47,-70.48"/>
<polygon fill="midnightblue" stroke="midnightblue" points="860.77,-108.57 851.68,-114 862.17,-115.43 860.77,-108.57"/>
</g>
<!-- Node38&#45;&gt;Node33 -->
<g id="edge20" class="edge">
<title>Node38&#45;&gt;Node33</title>
<path fill="none" stroke="midnightblue" d="M1177.35,-47.27C1182.47,-38.05 1188.52,-27.17 1192.64,-19.75"/>
<polygon fill="midnightblue" stroke="midnightblue" points="1174.25,-45.64 1172.45,-56.08 1180.37,-49.04 1174.25,-45.64"/>
</g>
<!-- Node42 -->
<g id="node17" class="node">
<title>Node42</title>
<g id="a_node17"><a xlink:href="_a_b_l_8_h.html" target="_top" xlink:title=" ">
<polygon fill="white" stroke="red" points="1579.5,-168.5 1579.5,-187.5 1625.5,-187.5 1625.5,-168.5 1579.5,-168.5"/>
<text text-anchor="middle" x="1602.5" y="-175.5" font-family="Helvetica,sans-Serif" font-size="10.00">ABL.H</text>
</a>
</g>
</g>
<!-- Node41&#45;&gt;Node42 -->
<g id="edge23" class="edge">
<title>Node41&#45;&gt;Node42</title>
<path fill="none" stroke="midnightblue" d="M1637.42,-216.72C1628.61,-207.2 1617.83,-195.56 1610.6,-187.75"/>
<polygon fill="midnightblue" stroke="midnightblue" points="1634.88,-219.12 1644.24,-224.08 1640.02,-214.37 1634.88,-219.12"/>
</g>
<!-- Node50 -->
<g id="node18" class="node">
<title>Node50</title>
<g id="a_node18"><a xlink:href="_a_b_l_fill_m_p_l_8_h.html" target="_top" xlink:title=" ">
<polygon fill="white" stroke="red" points="1681.5,-168.5 1681.5,-187.5 1761.5,-187.5 1761.5,-168.5 1681.5,-168.5"/>
<text text-anchor="middle" x="1721.5" y="-175.5" font-family="Helvetica,sans-Serif" font-size="10.00">ABLFillMPL.H</text>
</a>
</g>
</g>
<!-- Node41&#45;&gt;Node50 -->
<g id="edge24" class="edge">
<title>Node41&#45;&gt;Node50</title>
<path fill="none" stroke="midnightblue" d="M1671.54,-218.1C1683.96,-208.38 1699.74,-196.03 1710.21,-187.83"/>
<polygon fill="midnightblue" stroke="midnightblue" points="1669.3,-215.4 1663.59,-224.32 1673.62,-220.92 1669.3,-215.4"/>
</g>
<!-- Node52 -->
<g id="node19" class="node">
<title>Node52</title>
<g id="a_node19"><a xlink:href="_a_b_l_modulated_power_law_8cpp.html" target="_top" xlink:title=" ">
<polygon fill="white" stroke="black" points="1611.5,-112.5 1611.5,-131.5 1767.5,-131.5 1767.5,-112.5 1611.5,-112.5"/>
<text text-anchor="middle" x="1689.5" y="-119.5" font-family="Helvetica,sans-Serif" font-size="10.00">ABLModulatedPowerLaw.cpp</text>
</a>
</g>
</g>
<!-- Node41&#45;&gt;Node52 -->
<g id="edge26" class="edge">
<title>Node41&#45;&gt;Node52</title>
<path fill="none" stroke="midnightblue" d="M1657.88,-214.43C1661.74,-201.37 1667.18,-183.53 1672.5,-168 1676.88,-155.2 1682.53,-140.58 1686.08,-131.57"/>
<polygon fill="midnightblue" stroke="midnightblue" points="1654.49,-213.53 1655.04,-224.11 1661.21,-215.5 1654.49,-213.53"/>
</g>
<!-- Node50&#45;&gt;Node52 -->
<g id="edge25" class="edge">
<title>Node50&#45;&gt;Node52</title>
<path fill="none" stroke="midnightblue" d="M1711,-159.27C1705.53,-150.05 1699.08,-139.17 1694.69,-131.75"/>
<polygon fill="midnightblue" stroke="midnightblue" points="1708.11,-161.26 1716.22,-168.08 1714.13,-157.7 1708.11,-161.26"/>
</g>
<!-- Node53&#45;&gt;Node4 -->
<g id="edge33" class="edge">
<title>Node53&#45;&gt;Node4</title>
<path fill="none" stroke="midnightblue" d="M295.68,-219.96C281.86,-212.76 267.32,-202.32 259.5,-188 249.32,-169.35 263.34,-144.79 272.57,-131.85"/>
<polygon fill="midnightblue" stroke="midnightblue" points="294.5,-223.28 305.03,-224.44 297.52,-216.97 294.5,-223.28"/>
</g>
<!-- Node53&#45;&gt;Node12 -->
<g id="edge37" class="edge">
<title>Node53&#45;&gt;Node12</title>
<path fill="none" stroke="midnightblue" d="M344.94,-216.63C352.12,-208.46 360.39,-198.17 366.5,-188 377.83,-169.14 386.57,-144.67 390.77,-131.8"/>
<polygon fill="midnightblue" stroke="midnightblue" points="342.12,-214.53 338,-224.29 347.31,-219.23 342.12,-214.53"/>
</g>
<!-- Node53&#45;&gt;Node54 -->
<g id="edge28" class="edge">
<title>Node53&#45;&gt;Node54</title>
<path fill="none" stroke="midnightblue" d="M294.67,-221.17C264.73,-211 222.28,-196.59 195.58,-187.52"/>
<polygon fill="midnightblue" stroke="midnightblue" points="293.71,-224.54 304.31,-224.44 295.96,-217.91 293.71,-224.54"/>
</g>
<!-- Node58 -->
<g id="node25" class="node">
<title>Node58</title>
<g id="a_node25"><a xlink:href="_i_b_ops_8_h.html" target="_top" xlink:title=" ">
<polygon fill="white" stroke="red" points="301.5,-168.5 301.5,-187.5 357.5,-187.5 357.5,-168.5 301.5,-168.5"/>
<text text-anchor="middle" x="329.5" y="-175.5" font-family="Helvetica,sans-Serif" font-size="10.00">IBOps.H</text>
</a>
</g>
</g>
<!-- Node53&#45;&gt;Node58 -->
<g id="edge34" class="edge">
<title>Node53&#45;&gt;Node58</title>
<path fill="none" stroke="midnightblue" d="M329.5,-213.8C329.5,-204.91 329.5,-194.78 329.5,-187.75"/>
<polygon fill="midnightblue" stroke="midnightblue" points="326,-214.08 329.5,-224.08 333,-214.08 326,-214.08"/>
</g>
<!-- Node54&#45;&gt;Node4 -->
<g id="edge29" class="edge">
<title>Node54&#45;&gt;Node4</title>
<path fill="none" stroke="midnightblue" d="M197.02,-163.86C217.23,-153.85 244.49,-140.35 262.03,-131.65"/>
<polygon fill="midnightblue" stroke="midnightblue" points="195.42,-160.75 188.01,-168.32 198.53,-167.02 195.42,-160.75"/>
</g>
<!-- Node55 -->
<g id="node22" class="node">
<title>Node55</title>
<g id="a_node22"><a xlink:href="_box_8_h.html" target="_top" xlink:title=" ">
<polygon fill="white" stroke="red" points="79.5,-112.5 79.5,-131.5 125.5,-131.5 125.5,-112.5 79.5,-112.5"/>
<text text-anchor="middle" x="102.5" y="-119.5" font-family="Helvetica,sans-Serif" font-size="10.00">Box.H</text>
</a>
</g>
</g>
<!-- Node54&#45;&gt;Node55 -->
<g id="edge30" class="edge">
<title>Node54&#45;&gt;Node55</title>
<path fill="none" stroke="midnightblue" d="M151.74,-162.1C139.5,-152.38 123.94,-140.03 113.62,-131.83"/>
<polygon fill="midnightblue" stroke="midnightblue" points="149.57,-164.85 159.57,-168.32 153.92,-159.36 149.57,-164.85"/>
</g>
<!-- Node56 -->
<g id="node23" class="node">
<title>Node56</title>
<g id="a_node23"><a xlink:href="_cylinder_8_h.html" target="_top" xlink:title=" ">
<polygon fill="white" stroke="red" points="144,-112.5 144,-131.5 211,-131.5 211,-112.5 144,-112.5"/>
<text text-anchor="middle" x="177.5" y="-119.5" font-family="Helvetica,sans-Serif" font-size="10.00">Cylinder.H</text>
</a>
</g>
</g>
<!-- Node54&#45;&gt;Node56 -->
<g id="edge31" class="edge">
<title>Node54&#45;&gt;Node56</title>
<path fill="none" stroke="midnightblue" d="M172.95,-158.1C174.11,-149.14 175.44,-138.86 176.37,-131.75"/>
<polygon fill="midnightblue" stroke="midnightblue" points="169.47,-157.72 171.66,-168.08 176.41,-158.62 169.47,-157.72"/>
</g>
<!-- Node57 -->
<g id="node24" class="node">
<title>Node57</title>
<g id="a_node24"><a xlink:href="_sphere_8_h.html" target="_top" xlink:title=" ">
<polygon fill="white" stroke="red" points="0,-112.5 0,-131.5 61,-131.5 61,-112.5 0,-112.5"/>
<text text-anchor="middle" x="30.5" y="-119.5" font-family="Helvetica,sans-Serif" font-size="10.00">Sphere.H</text>
</a>
</g>
</g>
<!-- Node54&#45;&gt;Node57 -->
<g id="edge32" class="edge">
<title>Node54&#45;&gt;Node57</title>
<path fill="none" stroke="midnightblue" d="M138.8,-164.77C112.5,-154.63 75.78,-140.47 52.58,-131.52"/>
<polygon fill="midnightblue" stroke="midnightblue" points="137.73,-168.11 148.32,-168.44 140.25,-161.58 137.73,-168.11"/>
</g>
<!-- Node58&#45;&gt;Node4 -->
<g id="edge35" class="edge">
<title>Node58&#45;&gt;Node4</title>
<path fill="none" stroke="midnightblue" d="M314.42,-160.72C305.61,-151.2 294.83,-139.56 287.6,-131.75"/>
<polygon fill="midnightblue" stroke="midnightblue" points="311.88,-163.12 321.24,-168.08 317.02,-158.37 311.88,-163.12"/>
</g>
<!-- Node58&#45;&gt;Node12 -->
<g id="edge36" class="edge">
<title>Node58&#45;&gt;Node12</title>
<path fill="none" stroke="midnightblue" d="M347.49,-161.82C358.96,-152.15 373.41,-139.95 383.03,-131.83"/>
<polygon fill="midnightblue" stroke="midnightblue" points="345.17,-159.2 339.78,-168.32 349.68,-164.55 345.17,-159.2"/>
</g>
<!-- Node60 -->
<g id="node27" class="node">
<title>Node60</title>
<g id="a_node27"><a xlink:href="_synthetic_turbulence_8cpp.html" target="_top" xlink:title=" ">
<polygon fill="white" stroke="black" points="1780,-168.5 1780,-187.5 1915,-187.5 1915,-168.5 1780,-168.5"/>
<text text-anchor="middle" x="1847.5" y="-175.5" font-family="Helvetica,sans-Serif" font-size="10.00">SyntheticTurbulence.cpp</text>
</a>
</g>
</g>
<!-- Node59&#45;&gt;Node60 -->
<g id="edge40" class="edge">
<title>Node59&#45;&gt;Node60</title>
<path fill="none" stroke="midnightblue" d="M1828.18,-214.98C1833.1,-205.82 1838.86,-195.09 1842.8,-187.75"/>
<polygon fill="midnightblue" stroke="midnightblue" points="1824.94,-213.62 1823.29,-224.08 1831.1,-216.93 1824.94,-213.62"/>
</g>
<!-- Node61&#45;&gt;Node62 -->
<g id="edge42" class="edge">
<title>Node61&#45;&gt;Node62</title>
<path fill="none" stroke="midnightblue" d="M1993.57,-213.8C1994.06,-204.91 1994.62,-194.78 1995.01,-187.75"/>
<polygon fill="midnightblue" stroke="midnightblue" points="1990.06,-213.9 1993,-224.08 1997.04,-214.29 1990.06,-213.9"/>
</g>
<!-- Node64 -->
<g id="node31" class="node">
<title>Node64</title>
<g id="a_node31"><a xlink:href="_lidar_sampler_8cpp.html" target="_top" xlink:title=" ">
<polygon fill="white" stroke="black" points="2076,-168.5 2076,-187.5 2177,-187.5 2177,-168.5 2076,-168.5"/>
<text text-anchor="middle" x="2126.5" y="-175.5" font-family="Helvetica,sans-Serif" font-size="10.00">LidarSampler.cpp</text>
</a>
</g>
</g>
<!-- Node61&#45;&gt;Node64 -->
<g id="edge44" class="edge">
<title>Node61&#45;&gt;Node64</title>
<path fill="none" stroke="midnightblue" d="M2023.18,-220.64C2048.32,-210.5 2083.25,-196.43 2105.37,-187.52"/>
<polygon fill="midnightblue" stroke="midnightblue" points="2021.7,-217.46 2013.73,-224.44 2024.32,-223.95 2021.7,-217.46"/>
</g>
<!-- Node63 -->
<g id="node30" class="node">
<title>Node63</title>
<g id="a_node30"><a xlink:href="_d_t_u_spinner_sampler_8cpp.html" target="_top" xlink:title=" ">
<polygon fill="white" stroke="black" points="1928.5,-112.5 1928.5,-131.5 2062.5,-131.5 2062.5,-112.5 1928.5,-112.5"/>
<text text-anchor="middle" x="1995.5" y="-119.5" font-family="Helvetica,sans-Serif" font-size="10.00">DTUSpinnerSampler.cpp</text>
</a>
</g>
</g>
<!-- Node62&#45;&gt;Node63 -->
<g id="edge43" class="edge">
<title>Node62&#45;&gt;Node63</title>
<path fill="none" stroke="midnightblue" d="M1995.5,-157.8C1995.5,-148.91 1995.5,-138.78 1995.5,-131.75"/>
<polygon fill="midnightblue" stroke="midnightblue" points="1992,-158.08 1995.5,-168.08 1999,-158.08 1992,-158.08"/>
</g>
<!-- Node66 -->
<g id="node33" class="node">
<title>Node66</title>
<g id="a_node33"><a xlink:href="_box_refiner_8cpp.html" target="_top" xlink:title=" ">
<polygon fill="white" stroke="black" points="2195,-168.5 2195,-187.5 2284,-187.5 2284,-168.5 2195,-168.5"/>
<text text-anchor="middle" x="2239.5" y="-175.5" font-family="Helvetica,sans-Serif" font-size="10.00">BoxRefiner.cpp</text>
</a>
</g>
</g>
<!-- Node65&#45;&gt;Node66 -->
<g id="edge47" class="edge">
<title>Node65&#45;&gt;Node66</title>
<path fill="none" stroke="midnightblue" d="M2128.53,-220.91C2155.41,-210.75 2193.14,-196.51 2216.95,-187.52"/>
<polygon fill="midnightblue" stroke="midnightblue" points="2127.28,-217.64 2119.16,-224.44 2129.75,-224.19 2127.28,-217.64"/>
</g>
<!-- Node68 -->
<g id="node35" class="node">
<title>Node68</title>
<g id="a_node35"><a xlink:href="_cylinder_refiner_8cpp.html" target="_top" xlink:title=" ">
<polygon fill="white" stroke="black" points="2302,-168.5 2302,-187.5 2413,-187.5 2413,-168.5 2302,-168.5"/>
<text text-anchor="middle" x="2357.5" y="-175.5" font-family="Helvetica,sans-Serif" font-size="10.00">CylinderRefiner.cpp</text>
</a>
</g>
</g>
<!-- Node67&#45;&gt;Node68 -->
<g id="edge49" class="edge">
<title>Node67&#45;&gt;Node68</title>
<path fill="none" stroke="midnightblue" d="M2239.17,-221.04C2267.77,-210.88 2308.11,-196.55 2333.53,-187.52"/>
<polygon fill="midnightblue" stroke="midnightblue" points="2237.84,-217.8 2229.58,-224.44 2240.18,-224.39 2237.84,-217.8"/>
</g>
<!-- Node69&#45;&gt;Node15 -->
<g id="edge52" class="edge">
<title>Node69&#45;&gt;Node15</title>
<path fill="none" stroke="midnightblue" d="M1110.12,-170.06C1014.54,-159.08 830.57,-137.94 745.58,-128.18"/>
<polygon fill="midnightblue" stroke="midnightblue" points="1109.87,-173.56 1120.2,-171.22 1110.67,-166.6 1109.87,-173.56"/>
</g>
<!-- Node69&#45;&gt;Node16 -->
<g id="edge51" class="edge">
<title>Node69&#45;&gt;Node16</title>
<path fill="none" stroke="midnightblue" d="M1125.46,-165.93C1095.26,-157.91 1054.87,-146.05 1020.5,-132 1002.83,-124.78 1000.66,-117.86 982.5,-112 932.73,-95.93 785.46,-79.33 709.68,-71.54"/>
<polygon fill="midnightblue" stroke="midnightblue" points="1124.73,-169.35 1135.29,-168.49 1126.5,-162.58 1124.73,-169.35"/>
</g>
<!-- Node69&#45;&gt;Node17 -->
<g id="edge53" class="edge">
<title>Node69&#45;&gt;Node17</title>
<path fill="none" stroke="midnightblue" d="M1164.23,-158.94C1158.26,-144.27 1147.87,-124.1 1132.5,-112 1029.07,-30.54 867.42,-14.14 786.75,-11.25"/>
<polygon fill="midnightblue" stroke="midnightblue" points="1161.02,-160.33 1167.81,-168.45 1167.57,-157.86 1161.02,-160.33"/>
</g>
<!-- Node69&#45;&gt;Node33 -->
<g id="edge67" class="edge">
<title>Node69&#45;&gt;Node33</title>
<path fill="none" stroke="midnightblue" d="M1179.36,-159.39C1188.75,-139.66 1202.96,-106.45 1208.5,-76 1212.15,-55.96 1205.4,-32.36 1200.96,-19.84"/>
<polygon fill="midnightblue" stroke="midnightblue" points="1176.21,-157.87 1174.96,-168.39 1182.5,-160.94 1176.21,-157.87"/>
</g>
<!-- Node69&#45;&gt;Node36 -->
<g id="edge63" class="edge">
<title>Node69&#45;&gt;Node36</title>
<path fill="none" stroke="midnightblue" d="M1110.15,-170.32C1047.42,-162.89 946.56,-149.58 860.5,-132 857.63,-131.41 854.64,-130.73 851.68,-130.01"/>
<polygon fill="midnightblue" stroke="midnightblue" points="1109.92,-173.81 1120.26,-171.5 1110.74,-166.86 1109.92,-173.81"/>
</g>
<!-- Node69&#45;&gt;Node38 -->
<g id="edge64" class="edge">
<title>Node69&#45;&gt;Node38</title>
<path fill="none" stroke="midnightblue" d="M1169.99,-158.35C1169.33,-134.25 1168.22,-93.31 1167.73,-75.59"/>
<polygon fill="midnightblue" stroke="midnightblue" points="1166.49,-158.47 1170.26,-168.37 1173.49,-158.28 1166.49,-158.47"/>
</g>
<!-- Node70 -->
<g id="node37" class="node">
<title>Node70</title>
<g id="a_node37"><a xlink:href="turbine__types_8_h.html" target="_top" xlink:title=" ">
<polygon fill="white" stroke="red" points="1029.5,-112.5 1029.5,-131.5 1123.5,-131.5 1123.5,-112.5 1029.5,-112.5"/>
<text text-anchor="middle" x="1076.5" y="-119.5" font-family="Helvetica,sans-Serif" font-size="10.00">turbine_types.H</text>
</a>
</g>
</g>
<!-- Node69&#45;&gt;Node70 -->
<g id="edge54" class="edge">
<title>Node69&#45;&gt;Node70</title>
<path fill="none" stroke="midnightblue" d="M1146.44,-163.18C1129.14,-153.24 1106.35,-140.15 1091.57,-131.65"/>
<polygon fill="midnightblue" stroke="midnightblue" points="1144.98,-166.38 1155.4,-168.32 1148.47,-160.31 1144.98,-166.38"/>
</g>
<!-- Node72 -->
<g id="node38" class="node">
<title>Node72</title>
<g id="a_node38"><a xlink:href="disk__types_8_h.html" target="_top" xlink:title=" ">
<polygon fill="white" stroke="red" points="1405.5,-112.5 1405.5,-131.5 1485.5,-131.5 1485.5,-112.5 1405.5,-112.5"/>
<text text-anchor="middle" x="1445.5" y="-119.5" font-family="Helvetica,sans-Serif" font-size="10.00">disk_types.H</text>
</a>
</g>
</g>
<!-- Node69&#45;&gt;Node72 -->
<g id="edge56" class="edge">
<title>Node69&#45;&gt;Node72</title>
<path fill="none" stroke="midnightblue" d="M1223.99,-166.5C1277.1,-156.07 1357.33,-140.31 1405.26,-130.9"/>
<polygon fill="midnightblue" stroke="midnightblue" points="1223.21,-163.08 1214.07,-168.44 1224.56,-169.95 1223.21,-163.08"/>
</g>
<!-- Node77 -->
<g id="node41" class="node">
<title>Node77</title>
<g id="a_node41"><a xlink:href="actuator__utils_8cpp.html" target="_top" xlink:title=" ">
<polygon fill="white" stroke="black" points="869.5,-112.5 869.5,-131.5 973.5,-131.5 973.5,-112.5 869.5,-112.5"/>
<text text-anchor="middle" x="921.5" y="-119.5" font-family="Helvetica,sans-Serif" font-size="10.00">actuator_utils.cpp</text>
</a>
</g>
</g>
<!-- Node69&#45;&gt;Node77 -->
<g id="edge60" class="edge">
<title>Node69&#45;&gt;Node77</title>
<path fill="none" stroke="midnightblue" d="M1121.08,-166.28C1074.02,-156.08 1004.13,-140.92 960.77,-131.52"/>
<polygon fill="midnightblue" stroke="midnightblue" points="1120.53,-169.74 1131.05,-168.44 1122.01,-162.9 1120.53,-169.74"/>
</g>
<!-- Node78 -->
<g id="node42" class="node">
<title>Node78</title>
<g id="a_node42"><a xlink:href="_airfoil_table_8_h.html" target="_top" xlink:title=" ">
<polygon fill="white" stroke="red" points="1255.5,-56.5 1255.5,-75.5 1337.5,-75.5 1337.5,-56.5 1255.5,-56.5"/>
<text text-anchor="middle" x="1296.5" y="-63.5" font-family="Helvetica,sans-Serif" font-size="10.00">AirfoilTable.H</text>
</a>
</g>
</g>
<!-- Node69&#45;&gt;Node78 -->
<g id="edge61" class="edge">
<title>Node69&#45;&gt;Node78</title>
<path fill="none" stroke="midnightblue" d="M1195.72,-163.54C1209.9,-155.37 1227.51,-144.19 1241.5,-132 1261.78,-114.33 1281.03,-88.93 1290.45,-75.72"/>
<polygon fill="midnightblue" stroke="midnightblue" points="1193.98,-160.51 1186.97,-168.45 1197.4,-166.61 1193.98,-160.51"/>
</g>
<!-- Node69&#45;&gt;Node83 -->
<g id="edge65" class="edge">
<title>Node69&#45;&gt;Node83</title>
<path fill="none" stroke="midnightblue" d="M1207.32,-165.3C1239.35,-155.13 1285.02,-140.62 1313.69,-131.52"/>
<polygon fill="midnightblue" stroke="midnightblue" points="1205.91,-162.08 1197.44,-168.44 1208.03,-168.75 1205.91,-162.08"/>
</g>
<!-- Node70&#45;&gt;Node23 -->
<g id="edge55" class="edge">
<title>Node70&#45;&gt;Node23</title>
<path fill="none" stroke="midnightblue" d="M1033.88,-109.83C994.99,-99.63 938.34,-84.78 902.99,-75.52"/>
<polygon fill="midnightblue" stroke="midnightblue" points="1033.3,-113.29 1043.86,-112.44 1035.07,-106.52 1033.3,-113.29"/>
</g>
<!-- Node72&#45;&gt;Node73 -->
<g id="edge57" class="edge">
<title>Node72&#45;&gt;Node73</title>
<path fill="none" stroke="midnightblue" d="M1456.33,-103.27C1461.97,-94.05 1468.62,-83.17 1473.15,-75.75"/>
<polygon fill="midnightblue" stroke="midnightblue" points="1453.18,-101.73 1450.95,-112.08 1459.15,-105.38 1453.18,-101.73"/>
</g>
<!-- Node72&#45;&gt;Node76 -->
<g id="edge59" class="edge">
<title>Node72&#45;&gt;Node76</title>
<path fill="none" stroke="midnightblue" d="M1432.94,-103.68C1424.9,-90.32 1417.21,-71.56 1424.5,-56 1432.16,-39.64 1449.01,-27.16 1461.87,-19.54"/>
<polygon fill="midnightblue" stroke="midnightblue" points="1430.22,-105.91 1438.65,-112.33 1436.06,-102.05 1430.22,-105.91"/>
</g>
<!-- Node73&#45;&gt;Node76 -->
<g id="edge58" class="edge">
<title>Node73&#45;&gt;Node76</title>
<path fill="none" stroke="midnightblue" d="M1478.5,-45.8C1478.5,-36.91 1478.5,-26.78 1478.5,-19.75"/>
<polygon fill="midnightblue" stroke="midnightblue" points="1475,-46.08 1478.5,-56.08 1482,-46.08 1475,-46.08"/>
</g>
<!-- Node78&#45;&gt;Node33 -->
<g id="edge62" class="edge">
<title>Node78&#45;&gt;Node33</title>
<path fill="none" stroke="midnightblue" d="M1271.66,-51.45C1253.39,-41.48 1229.08,-28.23 1213.37,-19.65"/>
<polygon fill="midnightblue" stroke="midnightblue" points="1270.14,-54.61 1280.59,-56.32 1273.49,-48.46 1270.14,-54.61"/>
</g>
<!-- Node83&#45;&gt;Node33 -->
<g id="edge66" class="edge">
<title>Node83&#45;&gt;Node33</title>
<path fill="none" stroke="midnightblue" d="M1348.27,-102.85C1353,-88.72 1356.41,-69.34 1346.5,-56 1320.8,-21.4 1269.29,-12.44 1234.1,-10.61"/>
<polygon fill="midnightblue" stroke="midnightblue" points="1344.91,-101.85 1344.61,-112.44 1351.45,-104.35 1344.91,-101.85"/>
</g>
<!-- Node84&#45;&gt;Node16 -->
<g id="edge71" class="edge">
<title>Node84&#45;&gt;Node16</title>
<path fill="none" stroke="midnightblue" d="M720.16,-228.3C693.17,-222.87 663.29,-211.52 646.5,-188 621.36,-152.78 647.08,-96.85 658.57,-75.59"/>
<polygon fill="midnightblue" stroke="midnightblue" points="719.88,-231.8 730.33,-230.1 721.1,-224.91 719.88,-231.8"/>
</g>
<!-- Node84&#45;&gt;Node23 -->
<g id="edge72" class="edge">
<title>Node84&#45;&gt;Node23</title>
<path fill="none" stroke="midnightblue" d="M774.95,-214.05C772.54,-188.62 771.91,-143.06 792.5,-112 804.33,-94.15 825.84,-82.52 843.28,-75.56"/>
<polygon fill="midnightblue" stroke="midnightblue" points="771.5,-214.66 776.11,-224.19 778.45,-213.86 771.5,-214.66"/>
</g>
<!-- Node84&#45;&gt;Node77 -->
<g id="edge73" class="edge">
<title>Node84&#45;&gt;Node77</title>
<path fill="none" stroke="midnightblue" d="M796.98,-218.12C827.55,-194.77 885.8,-150.27 910.25,-131.59"/>
<polygon fill="midnightblue" stroke="midnightblue" points="794.62,-215.52 788.8,-224.37 798.87,-221.08 794.62,-215.52"/>
</g>
<!-- Node85 -->
<g id="node45" class="node">
<title>Node85</title>
<g id="a_node45"><a xlink:href="actuator__ops_i_8_h.html" target="_top" xlink:title=" ">
<polygon fill="white" stroke="black" points="656,-168.5 656,-187.5 749,-187.5 749,-168.5 656,-168.5"/>
<text text-anchor="middle" x="702.5" y="-175.5" font-family="Helvetica,sans-Serif" font-size="10.00">actuator_opsI.H</text>
</a>
</g>
</g>
<!-- Node84&#45;&gt;Node85 -->
<g id="edge69" class="edge">
<title>Node84&#45;&gt;Node85</title>
<path fill="none" stroke="midnightblue" d="M757.19,-218.38C743.64,-208.62 726.26,-196.11 714.77,-187.83"/>
<polygon fill="midnightblue" stroke="midnightblue" points="755.29,-221.32 765.45,-224.32 759.38,-215.64 755.29,-221.32"/>
</g>
<!-- Node85&#45;&gt;Node15 -->
<g id="edge70" class="edge">
<title>Node85&#45;&gt;Node15</title>
<path fill="none" stroke="midnightblue" d="M701.79,-157.8C701.46,-148.91 701.08,-138.78 700.82,-131.75"/>
<polygon fill="midnightblue" stroke="midnightblue" points="698.3,-158.22 702.17,-168.08 705.3,-157.96 698.3,-158.22"/>
</g>
<!-- Node88&#45;&gt;Node1 -->
<g id="edge79" class="edge">
<title>Node88&#45;&gt;Node1</title>
<path fill="none" stroke="midnightblue" d="M1719.96,-365.69C1720.61,-374.64 1720.18,-384.93 1718.67,-392.08"/>
<polygon fill="midnightblue" stroke="midnightblue" points="1723.42,-365.2 1718.63,-355.75 1716.48,-366.13 1723.42,-365.2"/>
</g>
<!-- Node89&#45;&gt;Node2 -->
<g id="edge81" class="edge">
<title>Node89&#45;&gt;Node2</title>
<path fill="none" stroke="midnightblue" d="M1614.31,-330.9C1598.72,-321 1578.37,-308.07 1565.12,-299.65"/>
<polygon fill="midnightblue" stroke="midnightblue" points="1612.53,-333.92 1622.84,-336.32 1616.28,-328.01 1612.53,-333.92"/>
</g>
<!-- Node90 -->
<g id="node49" class="node">
<title>Node90</title>
<g id="a_node49"><a xlink:href="tensor_i_8_h.html" target="_top" xlink:title=" ">
<polygon fill="white" stroke="black" points="1616,-280.5 1616,-299.5 1677,-299.5 1677,-280.5 1616,-280.5"/>
<text text-anchor="middle" x="1646.5" y="-287.5" font-family="Helvetica,sans-Serif" font-size="10.00">tensorI.H</text>
</a>
</g>
</g>
<!-- Node89&#45;&gt;Node90 -->
<g id="edge82" class="edge">
<title>Node89&#45;&gt;Node90</title>
<path fill="none" stroke="midnightblue" d="M1633.56,-325.8C1634.61,-316.91 1636.94,-306.78 1639.75,-299.75"/>
<polygon fill="midnightblue" stroke="midnightblue" points="1630.05,-325.9 1632.98,-336.08 1637.04,-326.29 1630.05,-325.9"/>
</g>
<!-- Node90&#45;&gt;Node89 -->
<g id="edge83" class="edge">
<title>Node90&#45;&gt;Node89</title>
<path fill="none" stroke="midnightblue" d="M1649.46,-309.99C1648.44,-318.86 1646.12,-329.01 1643.32,-336.08"/>
<polygon fill="midnightblue" stroke="midnightblue" points="1652.97,-309.92 1650.01,-299.75 1645.98,-309.55 1652.97,-309.92"/>
</g>
</g>
</svg>
