<?xml version="1.0" encoding="UTF-8" standalone="no"?>
<!DOCTYPE svg PUBLIC "-//W3C//DTD SVG 1.1//EN"
 "http://www.w3.org/Graphics/SVG/1.1/DTD/svg11.dtd">
<!-- Generated by graphviz version 2.43.0 (0)
 -->
<!-- Title: vstraits.H Pages: 1 -->
<svg width="2356pt" height="476pt"
 viewBox="0.00 0.00 2355.50 476.00" xmlns="http://www.w3.org/2000/svg" xmlns:xlink="http://www.w3.org/1999/xlink">
<g id="graph0" class="graph" transform="scale(1 1) rotate(0) translate(4 472)">
<title>vstraits.H</title>
<polygon fill="white" stroke="transparent" points="-4,4 -4,-472 2351.5,-472 2351.5,4 -4,4"/>
<!-- Node1 -->
<g id="node1" class="node">
<title>Node1</title>
<g id="a_node1"><a xlink:title=" ">
<polygon fill="#bfbfbf" stroke="black" points="1459,-448.5 1459,-467.5 1523,-467.5 1523,-448.5 1459,-448.5"/>
<text text-anchor="middle" x="1491" y="-455.5" font-family="Helvetica,sans-Serif" font-size="10.00">vstraits.H</text>
</a>
</g>
</g>
<!-- Node2 -->
<g id="node2" class="node">
<title>Node2</title>
<g id="a_node2"><a xlink:href="vector_8_h.html" target="_top" xlink:title=" ">
<polygon fill="white" stroke="black" points="1462.5,-392.5 1462.5,-411.5 1519.5,-411.5 1519.5,-392.5 1462.5,-392.5"/>
<text text-anchor="middle" x="1491" y="-399.5" font-family="Helvetica,sans-Serif" font-size="10.00">vector.H</text>
</a>
</g>
</g>
<!-- Node1&#45;&gt;Node2 -->
<g id="edge1" class="edge">
<title>Node1&#45;&gt;Node2</title>
<path fill="none" stroke="midnightblue" d="M1491,-437.8C1491,-428.91 1491,-418.78 1491,-411.75"/>
<polygon fill="midnightblue" stroke="midnightblue" points="1487.5,-438.08 1491,-448.08 1494.5,-438.08 1487.5,-438.08"/>
</g>
<!-- Node90 -->
<g id="node47" class="node">
<title>Node90</title>
<g id="a_node47"><a xlink:href="tensor_8_h.html" target="_top" xlink:title=" ">
<polygon fill="white" stroke="black" points="1314.5,-336.5 1314.5,-355.5 1371.5,-355.5 1371.5,-336.5 1314.5,-336.5"/>
<text text-anchor="middle" x="1343" y="-343.5" font-family="Helvetica,sans-Serif" font-size="10.00">tensor.H</text>
</a>
</g>
</g>
<!-- Node1&#45;&gt;Node90 -->
<g id="edge80" class="edge">
<title>Node1&#45;&gt;Node90</title>
<path fill="none" stroke="midnightblue" d="M1470.98,-442.12C1439.56,-418.77 1379.69,-374.27 1354.56,-355.59"/>
<polygon fill="midnightblue" stroke="midnightblue" points="1469.27,-445.21 1479.39,-448.37 1473.45,-439.59 1469.27,-445.21"/>
</g>
<!-- Node93 -->
<g id="node50" class="node">
<title>Node93</title>
<g id="a_node50"><a xlink:href="_geostrophic_forcing_8cpp.html" target="_top" xlink:title=" ">
<polygon fill="white" stroke="black" points="1537.5,-392.5 1537.5,-411.5 1668.5,-411.5 1668.5,-392.5 1537.5,-392.5"/>
<text text-anchor="middle" x="1603" y="-399.5" font-family="Helvetica,sans-Serif" font-size="10.00">GeostrophicForcing.cpp</text>
</a>
</g>
</g>
<!-- Node1&#45;&gt;Node93 -->
<g id="edge81" class="edge">
<title>Node1&#45;&gt;Node93</title>
<path fill="none" stroke="midnightblue" d="M1518.25,-443.86C1539.02,-433.85 1567.02,-420.35 1585.05,-411.65"/>
<polygon fill="midnightblue" stroke="midnightblue" points="1516.48,-440.83 1508.99,-448.32 1519.52,-447.13 1516.48,-440.83"/>
</g>
<!-- Node3 -->
<g id="node3" class="node">
<title>Node3</title>
<g id="a_node3"><a xlink:href="vector__space_8_h.html" target="_top" xlink:title=" ">
<polygon fill="white" stroke="black" points="1440,-280.5 1440,-299.5 1532,-299.5 1532,-280.5 1440,-280.5"/>
<text text-anchor="middle" x="1486" y="-287.5" font-family="Helvetica,sans-Serif" font-size="10.00">vector_space.H</text>
</a>
</g>
</g>
<!-- Node2&#45;&gt;Node3 -->
<g id="edge2" class="edge">
<title>Node2&#45;&gt;Node3</title>
<path fill="none" stroke="midnightblue" d="M1503.7,-383.9C1511.77,-370.91 1519.86,-352.53 1515,-336 1510.85,-321.91 1500.78,-308.07 1493.67,-299.54"/>
<polygon fill="midnightblue" stroke="midnightblue" points="1500.72,-382.05 1498.01,-392.3 1506.52,-385.98 1500.72,-382.05"/>
</g>
<!-- Node89 -->
<g id="node46" class="node">
<title>Node89</title>
<g id="a_node46"><a xlink:href="vector_i_8_h.html" target="_top" xlink:title=" ">
<polygon fill="white" stroke="black" points="1563.5,-336.5 1563.5,-355.5 1624.5,-355.5 1624.5,-336.5 1563.5,-336.5"/>
<text text-anchor="middle" x="1594" y="-343.5" font-family="Helvetica,sans-Serif" font-size="10.00">vectorI.H</text>
</a>
</g>
</g>
<!-- Node2&#45;&gt;Node89 -->
<g id="edge73" class="edge">
<title>Node2&#45;&gt;Node89</title>
<path fill="none" stroke="midnightblue" d="M1511.39,-387.18C1529.08,-377.24 1554.34,-364.15 1572.38,-355.65"/>
<polygon fill="midnightblue" stroke="midnightblue" points="1509.36,-384.31 1502.43,-392.32 1512.85,-390.38 1509.36,-384.31"/>
</g>
<!-- Node2&#45;&gt;Node90 -->
<g id="edge75" class="edge">
<title>Node2&#45;&gt;Node90</title>
<path fill="none" stroke="midnightblue" d="M1457.85,-388.91C1430.03,-378.75 1390.98,-364.51 1366.34,-355.52"/>
<polygon fill="midnightblue" stroke="midnightblue" points="1456.96,-392.3 1467.55,-392.44 1459.35,-385.73 1456.96,-392.3"/>
</g>
<!-- Node92 -->
<g id="node49" class="node">
<title>Node92</title>
<g id="a_node49"><a xlink:href="_power_law_profile_8cpp.html" target="_top" xlink:title=" ">
<polygon fill="white" stroke="black" points="1389.5,-336.5 1389.5,-355.5 1506.5,-355.5 1506.5,-336.5 1389.5,-336.5"/>
<text text-anchor="middle" x="1448" y="-343.5" font-family="Helvetica,sans-Serif" font-size="10.00">PowerLawProfile.cpp</text>
</a>
</g>
</g>
<!-- Node2&#45;&gt;Node92 -->
<g id="edge79" class="edge">
<title>Node2&#45;&gt;Node92</title>
<path fill="none" stroke="midnightblue" d="M1477.58,-384.14C1470.09,-374.74 1461.06,-363.4 1454.97,-355.75"/>
<polygon fill="midnightblue" stroke="midnightblue" points="1474.93,-386.44 1483.9,-392.08 1480.41,-382.08 1474.93,-386.44"/>
</g>
<!-- Node4 -->
<g id="node4" class="node">
<title>Node4</title>
<g id="a_node4"><a xlink:href="_multi_parser_8_h.html" target="_top" xlink:title=" ">
<polygon fill="white" stroke="black" points="426.5,-224.5 426.5,-243.5 507.5,-243.5 507.5,-224.5 426.5,-224.5"/>
<text text-anchor="middle" x="467" y="-231.5" font-family="Helvetica,sans-Serif" font-size="10.00">MultiParser.H</text>
</a>
</g>
</g>
<!-- Node3&#45;&gt;Node4 -->
<g id="edge3" class="edge">
<title>Node3&#45;&gt;Node4</title>
<path fill="none" stroke="midnightblue" d="M1429.97,-283.77C1414.44,-282.42 1397.57,-281.06 1382,-280 1044.41,-257.1 635.98,-241.18 507.62,-236.46"/>
<polygon fill="midnightblue" stroke="midnightblue" points="1429.68,-287.25 1439.95,-284.64 1430.3,-280.28 1429.68,-287.25"/>
</g>
<!-- Node42 -->
<g id="node16" class="node">
<title>Node42</title>
<g id="a_node16"><a xlink:href="_a_b_l_modulated_power_law_8_h.html" target="_top" xlink:title=" ">
<polygon fill="white" stroke="black" points="1526,-224.5 1526,-243.5 1672,-243.5 1672,-224.5 1526,-224.5"/>
<text text-anchor="middle" x="1599" y="-231.5" font-family="Helvetica,sans-Serif" font-size="10.00">ABLModulatedPowerLaw.H</text>
</a>
</g>
</g>
<!-- Node3&#45;&gt;Node42 -->
<g id="edge21" class="edge">
<title>Node3&#45;&gt;Node42</title>
<path fill="none" stroke="midnightblue" d="M1513,-276.1C1534.11,-266.01 1562.86,-252.27 1581.18,-243.52"/>
<polygon fill="midnightblue" stroke="midnightblue" points="1511.42,-272.97 1503.91,-280.44 1514.44,-279.29 1511.42,-272.97"/>
</g>
<!-- Node54 -->
<g id="node20" class="node">
<title>Node54</title>
<g id="a_node20"><a xlink:href="_i_b_types_8_h.html" target="_top" xlink:title=" ">
<polygon fill="white" stroke="black" points="245.5,-224.5 245.5,-243.5 310.5,-243.5 310.5,-224.5 245.5,-224.5"/>
<text text-anchor="middle" x="278" y="-231.5" font-family="Helvetica,sans-Serif" font-size="10.00">IBTypes.H</text>
</a>
</g>
</g>
<!-- Node3&#45;&gt;Node54 -->
<g id="edge26" class="edge">
<title>Node3&#45;&gt;Node54</title>
<path fill="none" stroke="midnightblue" d="M1429.98,-283.64C1414.45,-282.3 1397.58,-280.96 1382,-280 953.63,-253.49 845.63,-265.87 417,-244 380.53,-242.14 338.72,-239.34 310.56,-237.36"/>
<polygon fill="midnightblue" stroke="midnightblue" points="1429.69,-287.13 1439.96,-284.53 1430.31,-280.16 1429.69,-287.13"/>
</g>
<!-- Node55 -->
<g id="node21" class="node">
<title>Node55</title>
<g id="a_node21"><a xlink:href="_bluff_body_8_h.html" target="_top" xlink:title=" ">
<polygon fill="white" stroke="black" points="120.5,-168.5 120.5,-187.5 193.5,-187.5 193.5,-168.5 120.5,-168.5"/>
<text text-anchor="middle" x="157" y="-175.5" font-family="Helvetica,sans-Serif" font-size="10.00">BluffBody.H</text>
</a>
</g>
</g>
<!-- Node3&#45;&gt;Node55 -->
<g id="edge37" class="edge">
<title>Node3&#45;&gt;Node55</title>
<path fill="none" stroke="midnightblue" d="M1429.98,-283.58C1414.45,-282.24 1397.58,-280.92 1382,-280 1254.82,-272.51 355.23,-288.87 236,-244 204.75,-232.24 176.79,-202.7 164.15,-187.83"/>
<polygon fill="midnightblue" stroke="midnightblue" points="1429.69,-287.07 1439.96,-284.47 1430.31,-280.1 1429.69,-287.07"/>
</g>
<!-- Node60 -->
<g id="node26" class="node">
<title>Node60</title>
<g id="a_node26"><a xlink:href="_synthetic_turbulence_8_h.html" target="_top" xlink:title=" ">
<polygon fill="white" stroke="black" points="1696.5,-224.5 1696.5,-243.5 1821.5,-243.5 1821.5,-224.5 1696.5,-224.5"/>
<text text-anchor="middle" x="1759" y="-231.5" font-family="Helvetica,sans-Serif" font-size="10.00">SyntheticTurbulence.H</text>
</a>
</g>
</g>
<!-- Node3&#45;&gt;Node60 -->
<g id="edge38" class="edge">
<title>Node3&#45;&gt;Node60</title>
<path fill="none" stroke="midnightblue" d="M1539.22,-278.47C1590.81,-268.27 1668.1,-252.98 1715.94,-243.52"/>
<polygon fill="midnightblue" stroke="midnightblue" points="1538.39,-275.07 1529.26,-280.44 1539.75,-281.94 1538.39,-275.07"/>
</g>
<!-- Node62 -->
<g id="node28" class="node">
<title>Node62</title>
<g id="a_node28"><a xlink:href="_lidar_sampler_8_h.html" target="_top" xlink:title=" ">
<polygon fill="white" stroke="black" points="1882.5,-224.5 1882.5,-243.5 1973.5,-243.5 1973.5,-224.5 1882.5,-224.5"/>
<text text-anchor="middle" x="1928" y="-231.5" font-family="Helvetica,sans-Serif" font-size="10.00">LidarSampler.H</text>
</a>
</g>
</g>
<!-- Node3&#45;&gt;Node62 -->
<g id="edge40" class="edge">
<title>Node3&#45;&gt;Node62</title>
<path fill="none" stroke="midnightblue" d="M1542.18,-282.88C1616.55,-274.66 1751.76,-259.3 1867,-244 1871.99,-243.34 1877.2,-242.62 1882.39,-241.88"/>
<polygon fill="midnightblue" stroke="midnightblue" points="1541.65,-279.42 1532.09,-283.99 1542.42,-286.37 1541.65,-279.42"/>
</g>
<!-- Node63 -->
<g id="node29" class="node">
<title>Node63</title>
<g id="a_node29"><a xlink:href="_d_t_u_spinner_sampler_8_h.html" target="_top" xlink:title=" ">
<polygon fill="white" stroke="black" points="1867.5,-168.5 1867.5,-187.5 1992.5,-187.5 1992.5,-168.5 1867.5,-168.5"/>
<text text-anchor="middle" x="1930" y="-175.5" font-family="Helvetica,sans-Serif" font-size="10.00">DTUSpinnerSampler.H</text>
</a>
</g>
</g>
<!-- Node3&#45;&gt;Node63 -->
<g id="edge44" class="edge">
<title>Node3&#45;&gt;Node63</title>
<path fill="none" stroke="midnightblue" d="M1542.37,-289.2C1612.04,-287.76 1733.24,-279.67 1830,-244 1866.33,-230.61 1902.94,-202.1 1920.04,-187.7"/>
<polygon fill="midnightblue" stroke="midnightblue" points="1542,-285.71 1532.06,-289.37 1542.11,-292.71 1542,-285.71"/>
</g>
<!-- Node66 -->
<g id="node32" class="node">
<title>Node66</title>
<g id="a_node32"><a xlink:href="_box_refiner_8_h.html" target="_top" xlink:title=" ">
<polygon fill="white" stroke="black" points="1992,-224.5 1992,-243.5 2072,-243.5 2072,-224.5 1992,-224.5"/>
<text text-anchor="middle" x="2032" y="-231.5" font-family="Helvetica,sans-Serif" font-size="10.00">BoxRefiner.H</text>
</a>
</g>
</g>
<!-- Node3&#45;&gt;Node66 -->
<g id="edge45" class="edge">
<title>Node3&#45;&gt;Node66</title>
<path fill="none" stroke="midnightblue" d="M1542.54,-285.49C1634.81,-279.4 1823.38,-265.43 1982,-244 1985.23,-243.56 1988.58,-243.06 1991.93,-242.53"/>
<polygon fill="midnightblue" stroke="midnightblue" points="1542.06,-282.01 1532.31,-286.16 1542.52,-289 1542.06,-282.01"/>
</g>
<!-- Node68 -->
<g id="node34" class="node">
<title>Node68</title>
<g id="a_node34"><a xlink:href="_cylinder_refiner_8_h.html" target="_top" xlink:title=" ">
<polygon fill="white" stroke="black" points="2090.5,-224.5 2090.5,-243.5 2191.5,-243.5 2191.5,-224.5 2090.5,-224.5"/>
<text text-anchor="middle" x="2141" y="-231.5" font-family="Helvetica,sans-Serif" font-size="10.00">CylinderRefiner.H</text>
</a>
</g>
</g>
<!-- Node3&#45;&gt;Node68 -->
<g id="edge47" class="edge">
<title>Node3&#45;&gt;Node68</title>
<path fill="none" stroke="midnightblue" d="M1542.14,-286.13C1647.83,-280.43 1883.49,-266.25 2081,-244 2084.04,-243.66 2087.15,-243.28 2090.3,-242.87"/>
<polygon fill="midnightblue" stroke="midnightblue" points="1541.82,-282.64 1532.02,-286.67 1542.19,-289.63 1541.82,-282.64"/>
</g>
<!-- Node70 -->
<g id="node36" class="node">
<title>Node70</title>
<g id="a_node36"><a xlink:href="actuator__types_8_h.html" target="_top" xlink:title=" ">
<polygon fill="white" stroke="black" points="1000,-168.5 1000,-187.5 1100,-187.5 1100,-168.5 1000,-168.5"/>
<text text-anchor="middle" x="1050" y="-175.5" font-family="Helvetica,sans-Serif" font-size="10.00">actuator_types.H</text>
</a>
</g>
</g>
<!-- Node3&#45;&gt;Node70 -->
<g id="edge49" class="edge">
<title>Node3&#45;&gt;Node70</title>
<path fill="none" stroke="midnightblue" d="M1442.33,-277.98C1355.33,-256.03 1162.04,-207.27 1083.83,-187.53"/>
<polygon fill="midnightblue" stroke="midnightblue" points="1441.6,-281.41 1452.15,-280.46 1443.31,-274.62 1441.6,-281.41"/>
</g>
<!-- Node74 -->
<g id="node39" class="node">
<title>Node74</title>
<g id="a_node39"><a xlink:href="_actuator_disk_8_h.html" target="_top" xlink:title=" ">
<polygon fill="white" stroke="red" points="1368,-56.5 1368,-75.5 1458,-75.5 1458,-56.5 1368,-56.5"/>
<text text-anchor="middle" x="1413" y="-63.5" font-family="Helvetica,sans-Serif" font-size="10.00">ActuatorDisk.H</text>
</a>
</g>
</g>
<!-- Node3&#45;&gt;Node74 -->
<g id="edge69" class="edge">
<title>Node3&#45;&gt;Node74</title>
<path fill="none" stroke="midnightblue" d="M1480.31,-270.72C1470.26,-238.54 1448.55,-169.71 1429,-112 1424.69,-99.28 1419.43,-84.64 1416.14,-75.6"/>
<polygon fill="midnightblue" stroke="midnightblue" points="1477.04,-271.99 1483.36,-280.5 1483.73,-269.91 1477.04,-271.99"/>
</g>
<!-- Node77 -->
<g id="node40" class="node">
<title>Node77</title>
<g id="a_node40"><a xlink:href="_joukowsky_8_h.html" target="_top" xlink:title=" ">
<polygon fill="white" stroke="red" points="1374.5,-0.5 1374.5,-19.5 1451.5,-19.5 1451.5,-0.5 1374.5,-0.5"/>
<text text-anchor="middle" x="1413" y="-7.5" font-family="Helvetica,sans-Serif" font-size="10.00">Joukowsky.H</text>
</a>
</g>
</g>
<!-- Node3&#45;&gt;Node77 -->
<g id="edge71" class="edge">
<title>Node3&#45;&gt;Node77</title>
<path fill="none" stroke="midnightblue" d="M1486,-270.25C1486,-248.36 1486,-211.05 1486,-179 1486,-179 1486,-179 1486,-121 1486,-90.9 1483.5,-81.17 1467,-56 1456.83,-40.49 1439.7,-27.53 1427.46,-19.56"/>
<polygon fill="midnightblue" stroke="midnightblue" points="1482.5,-270.44 1486,-280.44 1489.5,-270.44 1482.5,-270.44"/>
</g>
<!-- Node84 -->
<g id="node43" class="node">
<title>Node84</title>
<g id="a_node43"><a xlink:href="_actuator_wing_8_h.html" target="_top" xlink:title=" ">
<polygon fill="white" stroke="red" points="1228.5,-112.5 1228.5,-131.5 1321.5,-131.5 1321.5,-112.5 1228.5,-112.5"/>
<text text-anchor="middle" x="1275" y="-119.5" font-family="Helvetica,sans-Serif" font-size="10.00">ActuatorWing.H</text>
</a>
</g>
</g>
<!-- Node3&#45;&gt;Node84 -->
<g id="edge72" class="edge">
<title>Node3&#45;&gt;Node84</title>
<path fill="none" stroke="midnightblue" d="M1466.95,-274.01C1423.84,-240.1 1319.9,-158.32 1285.94,-131.61"/>
<polygon fill="midnightblue" stroke="midnightblue" points="1464.93,-276.88 1474.95,-280.31 1469.26,-271.37 1464.93,-276.88"/>
</g>
<!-- Node85 -->
<g id="node44" class="node">
<title>Node85</title>
<g id="a_node44"><a xlink:href="actuator__utils_8_h.html" target="_top" xlink:title=" ">
<polygon fill="white" stroke="red" points="809,-168.5 809,-187.5 903,-187.5 903,-168.5 809,-168.5"/>
<text text-anchor="middle" x="856" y="-175.5" font-family="Helvetica,sans-Serif" font-size="10.00">actuator_utils.H</text>
</a>
</g>
</g>
<!-- Node3&#45;&gt;Node85 -->
<g id="edge66" class="edge">
<title>Node3&#45;&gt;Node85</title>
<path fill="none" stroke="midnightblue" d="M1429.6,-279.34C1376.73,-270.26 1295.5,-256.29 1225,-244 1109.33,-223.84 973.33,-199.8 903.17,-187.37"/>
<polygon fill="midnightblue" stroke="midnightblue" points="1429.34,-282.84 1439.79,-281.08 1430.52,-275.94 1429.34,-282.84"/>
</g>
<!-- Node87 -->
<g id="node45" class="node">
<title>Node87</title>
<g id="a_node45"><a xlink:href="_actuator_container_8_h.html" target="_top" xlink:title=" ">
<polygon fill="white" stroke="red" points="2209.5,-224.5 2209.5,-243.5 2324.5,-243.5 2324.5,-224.5 2209.5,-224.5"/>
<text text-anchor="middle" x="2267" y="-231.5" font-family="Helvetica,sans-Serif" font-size="10.00">ActuatorContainer.H</text>
</a>
</g>
</g>
<!-- Node3&#45;&gt;Node87 -->
<g id="edge70" class="edge">
<title>Node3&#45;&gt;Node87</title>
<path fill="none" stroke="midnightblue" d="M1542.14,-286.81C1662.76,-281.81 1955.59,-268.09 2200,-244 2203.04,-243.7 2206.15,-243.37 2209.29,-243.02"/>
<polygon fill="midnightblue" stroke="midnightblue" points="1541.88,-283.32 1532.03,-287.23 1542.17,-290.31 1541.88,-283.32"/>
</g>
<!-- Node5 -->
<g id="node5" class="node">
<title>Node5</title>
<g id="a_node5"><a xlink:href="bluff__body__ops_8_h.html" target="_top" xlink:title=" ">
<polygon fill="white" stroke="red" points="228.5,-112.5 228.5,-131.5 329.5,-131.5 329.5,-112.5 228.5,-112.5"/>
<text text-anchor="middle" x="279" y="-119.5" font-family="Helvetica,sans-Serif" font-size="10.00">bluff_body_ops.H</text>
</a>
</g>
</g>
<!-- Node4&#45;&gt;Node5 -->
<g id="edge4" class="edge">
<title>Node4&#45;&gt;Node5</title>
<path fill="none" stroke="midnightblue" d="M443.59,-219.3C404.28,-196.3 326.15,-150.59 293.68,-131.59"/>
<polygon fill="midnightblue" stroke="midnightblue" points="441.85,-222.34 452.25,-224.37 445.38,-216.3 441.85,-222.34"/>
</g>
<!-- Node6 -->
<g id="node6" class="node">
<title>Node6</title>
<g id="a_node6"><a xlink:href="bluff__body__ops_8cpp.html" target="_top" xlink:title=" ">
<polygon fill="white" stroke="black" points="248,-56.5 248,-75.5 358,-75.5 358,-56.5 248,-56.5"/>
<text text-anchor="middle" x="303" y="-63.5" font-family="Helvetica,sans-Serif" font-size="10.00">bluff_body_ops.cpp</text>
</a>
</g>
</g>
<!-- Node4&#45;&gt;Node6 -->
<g id="edge6" class="edge">
<title>Node4&#45;&gt;Node6</title>
<path fill="none" stroke="midnightblue" d="M465.43,-214.27C462.26,-188.02 452.81,-140.35 425,-112 406.35,-92.98 378.97,-81.94 354.87,-75.55"/>
<polygon fill="midnightblue" stroke="midnightblue" points="461.96,-214.79 466.46,-224.38 468.93,-214.08 461.96,-214.79"/>
</g>
<!-- Node13 -->
<g id="node7" class="node">
<title>Node13</title>
<g id="a_node7"><a xlink:href="_i_b_model_8_h.html" target="_top" xlink:title=" ">
<polygon fill="white" stroke="red" points="349.5,-112.5 349.5,-131.5 416.5,-131.5 416.5,-112.5 349.5,-112.5"/>
<text text-anchor="middle" x="383" y="-119.5" font-family="Helvetica,sans-Serif" font-size="10.00">IBModel.H</text>
</a>
</g>
</g>
<!-- Node4&#45;&gt;Node13 -->
<g id="edge7" class="edge">
<title>Node4&#45;&gt;Node13</title>
<path fill="none" stroke="midnightblue" d="M454.23,-216.27C436.07,-192.49 403.46,-149.79 389.56,-131.59"/>
<polygon fill="midnightblue" stroke="midnightblue" points="451.56,-218.54 460.41,-224.37 457.12,-214.3 451.56,-218.54"/>
</g>
<!-- Node14 -->
<g id="node8" class="node">
<title>Node14</title>
<g id="a_node8"><a xlink:href="_i_b_8cpp.html" target="_top" xlink:title=" ">
<polygon fill="white" stroke="black" points="424.5,-56.5 424.5,-75.5 471.5,-75.5 471.5,-56.5 424.5,-56.5"/>
<text text-anchor="middle" x="448" y="-63.5" font-family="Helvetica,sans-Serif" font-size="10.00">IB.cpp</text>
</a>
</g>
</g>
<!-- Node4&#45;&gt;Node14 -->
<g id="edge9" class="edge">
<title>Node4&#45;&gt;Node14</title>
<path fill="none" stroke="midnightblue" d="M467.72,-214.28C468.31,-190.37 468.2,-147.78 462,-112 459.77,-99.1 454.86,-84.75 451.49,-75.8"/>
<polygon fill="midnightblue" stroke="midnightblue" points="464.22,-214.31 467.41,-224.41 471.22,-214.53 464.22,-214.31"/>
</g>
<!-- Node15 -->
<g id="node9" class="node">
<title>Node15</title>
<g id="a_node9"><a xlink:href="_act_parser_8_h.html" target="_top" xlink:title=" ">
<polygon fill="white" stroke="red" points="526,-168.5 526,-187.5 598,-187.5 598,-168.5 526,-168.5"/>
<text text-anchor="middle" x="562" y="-175.5" font-family="Helvetica,sans-Serif" font-size="10.00">ActParser.H</text>
</a>
</g>
</g>
<!-- Node4&#45;&gt;Node15 -->
<g id="edge10" class="edge">
<title>Node4&#45;&gt;Node15</title>
<path fill="none" stroke="midnightblue" d="M491.32,-219.18C508.8,-209.24 531.83,-196.15 546.77,-187.65"/>
<polygon fill="midnightblue" stroke="midnightblue" points="489.23,-216.34 482.26,-224.32 492.69,-222.43 489.23,-216.34"/>
</g>
<!-- Node5&#45;&gt;Node6 -->
<g id="edge5" class="edge">
<title>Node5&#45;&gt;Node6</title>
<path fill="none" stroke="midnightblue" d="M287.14,-102.69C291.18,-93.59 295.88,-83.01 299.11,-75.75"/>
<polygon fill="midnightblue" stroke="midnightblue" points="283.83,-101.52 282.96,-112.08 290.22,-104.37 283.83,-101.52"/>
</g>
<!-- Node13&#45;&gt;Node14 -->
<g id="edge8" class="edge">
<title>Node13&#45;&gt;Node14</title>
<path fill="none" stroke="midnightblue" d="M401.27,-105.82C412.92,-96.15 427.6,-83.95 437.37,-75.83"/>
<polygon fill="midnightblue" stroke="midnightblue" points="398.9,-103.24 393.44,-112.32 403.37,-108.63 398.9,-103.24"/>
</g>
<!-- Node16 -->
<g id="node10" class="node">
<title>Node16</title>
<g id="a_node10"><a xlink:href="actuator__ops_8_h.html" target="_top" xlink:title=" ">
<polygon fill="white" stroke="red" points="590,-112.5 590,-131.5 680,-131.5 680,-112.5 590,-112.5"/>
<text text-anchor="middle" x="635" y="-119.5" font-family="Helvetica,sans-Serif" font-size="10.00">actuator_ops.H</text>
</a>
</g>
</g>
<!-- Node15&#45;&gt;Node16 -->
<g id="edge11" class="edge">
<title>Node15&#45;&gt;Node16</title>
<path fill="none" stroke="midnightblue" d="M582.14,-162.1C595.28,-152.38 611.98,-140.03 623.06,-131.83"/>
<polygon fill="midnightblue" stroke="midnightblue" points="579.69,-159.56 573.73,-168.32 583.85,-165.19 579.69,-159.56"/>
</g>
<!-- Node18 -->
<g id="node12" class="node">
<title>Node18</title>
<g id="a_node12"><a xlink:href="_actuator_model_8_h.html" target="_top" xlink:title=" ">
<polygon fill="white" stroke="red" points="625,-0.5 625,-19.5 723,-19.5 723,-0.5 625,-0.5"/>
<text text-anchor="middle" x="674" y="-7.5" font-family="Helvetica,sans-Serif" font-size="10.00">ActuatorModel.H</text>
</a>
</g>
</g>
<!-- Node15&#45;&gt;Node18 -->
<g id="edge16" class="edge">
<title>Node15&#45;&gt;Node18</title>
<path fill="none" stroke="midnightblue" d="M553.1,-159.27C541.78,-133.93 526.16,-86.99 548,-56 565.33,-31.41 597.37,-20.18 624.8,-15.09"/>
<polygon fill="midnightblue" stroke="midnightblue" points="549.99,-160.87 557.43,-168.42 556.31,-157.88 549.99,-160.87"/>
</g>
<!-- Node34 -->
<g id="node13" class="node">
<title>Node34</title>
<g id="a_node13"><a xlink:href="wing__ops_8_h.html" target="_top" xlink:title=" ">
<polygon fill="white" stroke="red" points="992.5,-0.5 992.5,-19.5 1065.5,-19.5 1065.5,-0.5 992.5,-0.5"/>
<text text-anchor="middle" x="1029" y="-7.5" font-family="Helvetica,sans-Serif" font-size="10.00">wing_ops.H</text>
</a>
</g>
</g>
<!-- Node15&#45;&gt;Node34 -->
<g id="edge20" class="edge">
<title>Node15&#45;&gt;Node34</title>
<path fill="none" stroke="midnightblue" d="M564.35,-158.08C566.78,-144.34 571.6,-125.82 581,-112 603.79,-78.47 615.51,-71.42 653,-56 713.96,-30.94 910.07,-17.53 992.24,-12.89"/>
<polygon fill="midnightblue" stroke="midnightblue" points="560.85,-157.87 562.83,-168.28 567.77,-158.91 560.85,-157.87"/>
</g>
<!-- Node37 -->
<g id="node14" class="node">
<title>Node37</title>
<g id="a_node14"><a xlink:href="_f_l_l_c_8_h.html" target="_top" xlink:title=" ">
<polygon fill="white" stroke="red" points="736,-112.5 736,-131.5 786,-131.5 786,-112.5 736,-112.5"/>
<text text-anchor="middle" x="761" y="-119.5" font-family="Helvetica,sans-Serif" font-size="10.00">FLLC.H</text>
</a>
</g>
</g>
<!-- Node15&#45;&gt;Node37 -->
<g id="edge17" class="edge">
<title>Node15&#45;&gt;Node37</title>
<path fill="none" stroke="midnightblue" d="M603.25,-165.81C643.23,-154.96 702.58,-138.85 735.92,-129.81"/>
<polygon fill="midnightblue" stroke="midnightblue" points="602.27,-162.45 593.53,-168.44 604.1,-169.2 602.27,-162.45"/>
</g>
<!-- Node17 -->
<g id="node11" class="node">
<title>Node17</title>
<g id="a_node11"><a xlink:href="_act_src_line_op_8_h.html" target="_top" xlink:title=" ">
<polygon fill="white" stroke="black" points="684,-56.5 684,-75.5 776,-75.5 776,-56.5 684,-56.5"/>
<text text-anchor="middle" x="730" y="-63.5" font-family="Helvetica,sans-Serif" font-size="10.00">ActSrcLineOp.H</text>
</a>
</g>
</g>
<!-- Node16&#45;&gt;Node17 -->
<g id="edge12" class="edge">
<title>Node16&#45;&gt;Node17</title>
<path fill="none" stroke="midnightblue" d="M659.32,-107.18C676.8,-97.24 699.83,-84.15 714.77,-75.65"/>
<polygon fill="midnightblue" stroke="midnightblue" points="657.23,-104.34 650.26,-112.32 660.69,-110.43 657.23,-104.34"/>
</g>
<!-- Node16&#45;&gt;Node18 -->
<g id="edge14" class="edge">
<title>Node16&#45;&gt;Node18</title>
<path fill="none" stroke="midnightblue" d="M634.54,-101.98C634.81,-88.7 636.39,-70.77 642,-56 647.37,-41.84 658.3,-28.02 665.88,-19.51"/>
<polygon fill="midnightblue" stroke="midnightblue" points="631.04,-102.27 634.57,-112.27 638.04,-102.26 631.04,-102.27"/>
</g>
<!-- Node16&#45;&gt;Node34 -->
<g id="edge15" class="edge">
<title>Node16&#45;&gt;Node34</title>
<path fill="none" stroke="midnightblue" d="M641.17,-102.68C647.27,-87.54 658.17,-66.85 675,-56 726.93,-22.51 912.91,-13.89 992.47,-11.71"/>
<polygon fill="midnightblue" stroke="midnightblue" points="637.88,-101.48 637.69,-112.07 644.44,-103.91 637.88,-101.48"/>
</g>
<!-- Node17&#45;&gt;Node18 -->
<g id="edge13" class="edge">
<title>Node17&#45;&gt;Node18</title>
<path fill="none" stroke="midnightblue" d="M713.67,-49.25C703.74,-39.67 691.41,-27.79 683.16,-19.83"/>
<polygon fill="midnightblue" stroke="midnightblue" points="711.37,-51.9 721,-56.32 716.23,-46.86 711.37,-51.9"/>
</g>
<!-- Node39 -->
<g id="node15" class="node">
<title>Node39</title>
<g id="a_node15"><a xlink:href="_f_l_l_c_op_8_h.html" target="_top" xlink:title=" ">
<polygon fill="white" stroke="red" points="920,-56.5 920,-75.5 984,-75.5 984,-56.5 920,-56.5"/>
<text text-anchor="middle" x="952" y="-63.5" font-family="Helvetica,sans-Serif" font-size="10.00">FLLCOp.H</text>
</a>
</g>
</g>
<!-- Node37&#45;&gt;Node39 -->
<g id="edge18" class="edge">
<title>Node37&#45;&gt;Node39</title>
<path fill="none" stroke="midnightblue" d="M796.44,-110.98C832.49,-100.79 887.77,-85.16 921.8,-75.54"/>
<polygon fill="midnightblue" stroke="midnightblue" points="795.03,-107.74 786.36,-113.83 796.94,-114.48 795.03,-107.74"/>
</g>
<!-- Node39&#45;&gt;Node34 -->
<g id="edge19" class="edge">
<title>Node39&#45;&gt;Node34</title>
<path fill="none" stroke="midnightblue" d="M972.9,-50.34C986.91,-40.52 1004.88,-27.91 1016.66,-19.65"/>
<polygon fill="midnightblue" stroke="midnightblue" points="970.55,-47.72 964.37,-56.32 974.57,-53.45 970.55,-47.72"/>
</g>
<!-- Node43 -->
<g id="node17" class="node">
<title>Node43</title>
<g id="a_node17"><a xlink:href="_a_b_l_8_h.html" target="_top" xlink:title=" ">
<polygon fill="white" stroke="red" points="1612,-168.5 1612,-187.5 1658,-187.5 1658,-168.5 1612,-168.5"/>
<text text-anchor="middle" x="1635" y="-175.5" font-family="Helvetica,sans-Serif" font-size="10.00">ABL.H</text>
</a>
</g>
</g>
<!-- Node42&#45;&gt;Node43 -->
<g id="edge22" class="edge">
<title>Node42&#45;&gt;Node43</title>
<path fill="none" stroke="midnightblue" d="M1610.62,-215.57C1616.82,-206.27 1624.17,-195.25 1629.17,-187.75"/>
<polygon fill="midnightblue" stroke="midnightblue" points="1607.58,-213.82 1604.94,-224.08 1613.4,-217.7 1607.58,-213.82"/>
</g>
<!-- Node51 -->
<g id="node18" class="node">
<title>Node51</title>
<g id="a_node18"><a xlink:href="_a_b_l_fill_m_p_l_8_h.html" target="_top" xlink:title=" ">
<polygon fill="white" stroke="red" points="1514,-168.5 1514,-187.5 1594,-187.5 1594,-168.5 1514,-168.5"/>
<text text-anchor="middle" x="1554" y="-175.5" font-family="Helvetica,sans-Serif" font-size="10.00">ABLFillMPL.H</text>
</a>
</g>
</g>
<!-- Node42&#45;&gt;Node51 -->
<g id="edge23" class="edge">
<title>Node42&#45;&gt;Node51</title>
<path fill="none" stroke="midnightblue" d="M1584.95,-216.14C1577.11,-206.74 1567.67,-195.4 1561.29,-187.75"/>
<polygon fill="midnightblue" stroke="midnightblue" points="1582.48,-218.64 1591.57,-224.08 1587.86,-214.16 1582.48,-218.64"/>
</g>
<!-- Node53 -->
<g id="node19" class="node">
<title>Node53</title>
<g id="a_node19"><a xlink:href="_a_b_l_modulated_power_law_8cpp.html" target="_top" xlink:title=" ">
<polygon fill="white" stroke="black" points="1561,-112.5 1561,-131.5 1717,-131.5 1717,-112.5 1561,-112.5"/>
<text text-anchor="middle" x="1639" y="-119.5" font-family="Helvetica,sans-Serif" font-size="10.00">ABLModulatedPowerLaw.cpp</text>
</a>
</g>
</g>
<!-- Node42&#45;&gt;Node53 -->
<g id="edge25" class="edge">
<title>Node42&#45;&gt;Node53</title>
<path fill="none" stroke="midnightblue" d="M1631.59,-219.9C1645.1,-212.65 1659.38,-202.18 1667,-188 1677.47,-168.52 1659.37,-144.3 1647.71,-131.63"/>
<polygon fill="midnightblue" stroke="midnightblue" points="1629.87,-216.84 1622.45,-224.41 1632.97,-223.12 1629.87,-216.84"/>
</g>
<!-- Node51&#45;&gt;Node53 -->
<g id="edge24" class="edge">
<title>Node51&#45;&gt;Node53</title>
<path fill="none" stroke="midnightblue" d="M1576.19,-162.9C1591.78,-153 1612.13,-140.07 1625.38,-131.65"/>
<polygon fill="midnightblue" stroke="midnightblue" points="1574.22,-160.01 1567.66,-168.32 1577.97,-165.92 1574.22,-160.01"/>
</g>
<!-- Node54&#45;&gt;Node5 -->
<g id="edge32" class="edge">
<title>Node54&#45;&gt;Node5</title>
<path fill="none" stroke="midnightblue" d="M259.71,-217.11C247.39,-204.38 234.5,-185.77 241,-168 246.41,-153.21 259.06,-139.93 268.29,-131.7"/>
<polygon fill="midnightblue" stroke="midnightblue" points="257.48,-219.82 267.12,-224.21 262.32,-214.77 257.48,-219.82"/>
</g>
<!-- Node54&#45;&gt;Node13 -->
<g id="edge36" class="edge">
<title>Node54&#45;&gt;Node13</title>
<path fill="none" stroke="midnightblue" d="M293.37,-216.9C315.94,-193.25 357.28,-149.95 374.8,-131.59"/>
<polygon fill="midnightblue" stroke="midnightblue" points="290.61,-214.72 286.24,-224.37 295.68,-219.55 290.61,-214.72"/>
</g>
<!-- Node54&#45;&gt;Node55 -->
<g id="edge27" class="edge">
<title>Node54&#45;&gt;Node55</title>
<path fill="none" stroke="midnightblue" d="M249.69,-220.37C227.03,-210.26 195.87,-196.35 176.08,-187.52"/>
<polygon fill="midnightblue" stroke="midnightblue" points="248.27,-223.56 258.83,-224.44 251.12,-217.17 248.27,-223.56"/>
</g>
<!-- Node59 -->
<g id="node25" class="node">
<title>Node59</title>
<g id="a_node25"><a xlink:href="_i_b_ops_8_h.html" target="_top" xlink:title=" ">
<polygon fill="white" stroke="red" points="250,-168.5 250,-187.5 306,-187.5 306,-168.5 250,-168.5"/>
<text text-anchor="middle" x="278" y="-175.5" font-family="Helvetica,sans-Serif" font-size="10.00">IBOps.H</text>
</a>
</g>
</g>
<!-- Node54&#45;&gt;Node59 -->
<g id="edge33" class="edge">
<title>Node54&#45;&gt;Node59</title>
<path fill="none" stroke="midnightblue" d="M278,-213.8C278,-204.91 278,-194.78 278,-187.75"/>
<polygon fill="midnightblue" stroke="midnightblue" points="274.5,-214.08 278,-224.08 281.5,-214.08 274.5,-214.08"/>
</g>
<!-- Node55&#45;&gt;Node5 -->
<g id="edge28" class="edge">
<title>Node55&#45;&gt;Node5</title>
<path fill="none" stroke="midnightblue" d="M185.54,-164.37C208.39,-154.26 239.81,-140.35 259.76,-131.52"/>
<polygon fill="midnightblue" stroke="midnightblue" points="184.06,-161.2 176.33,-168.44 186.89,-167.6 184.06,-161.2"/>
</g>
<!-- Node56 -->
<g id="node22" class="node">
<title>Node56</title>
<g id="a_node22"><a xlink:href="_box_8_h.html" target="_top" xlink:title=" ">
<polygon fill="white" stroke="red" points="0,-112.5 0,-131.5 46,-131.5 46,-112.5 0,-112.5"/>
<text text-anchor="middle" x="23" y="-119.5" font-family="Helvetica,sans-Serif" font-size="10.00">Box.H</text>
</a>
</g>
</g>
<!-- Node55&#45;&gt;Node56 -->
<g id="edge29" class="edge">
<title>Node55&#45;&gt;Node56</title>
<path fill="none" stroke="midnightblue" d="M126.32,-164.64C101.18,-154.5 66.25,-140.43 44.13,-131.52"/>
<polygon fill="midnightblue" stroke="midnightblue" points="125.18,-167.95 135.77,-168.44 127.8,-161.46 125.18,-167.95"/>
</g>
<!-- Node57 -->
<g id="node23" class="node">
<title>Node57</title>
<g id="a_node23"><a xlink:href="_cylinder_8_h.html" target="_top" xlink:title=" ">
<polygon fill="white" stroke="red" points="64.5,-112.5 64.5,-131.5 131.5,-131.5 131.5,-112.5 64.5,-112.5"/>
<text text-anchor="middle" x="98" y="-119.5" font-family="Helvetica,sans-Serif" font-size="10.00">Cylinder.H</text>
</a>
</g>
</g>
<!-- Node55&#45;&gt;Node57 -->
<g id="edge30" class="edge">
<title>Node55&#45;&gt;Node57</title>
<path fill="none" stroke="midnightblue" d="M140.11,-161.54C129.59,-151.91 116.43,-139.87 107.65,-131.83"/>
<polygon fill="midnightblue" stroke="midnightblue" points="137.78,-164.15 147.52,-168.32 142.51,-158.99 137.78,-164.15"/>
</g>
<!-- Node58 -->
<g id="node24" class="node">
<title>Node58</title>
<g id="a_node24"><a xlink:href="_sphere_8_h.html" target="_top" xlink:title=" ">
<polygon fill="white" stroke="red" points="149.5,-112.5 149.5,-131.5 210.5,-131.5 210.5,-112.5 149.5,-112.5"/>
<text text-anchor="middle" x="180" y="-119.5" font-family="Helvetica,sans-Serif" font-size="10.00">Sphere.H</text>
</a>
</g>
</g>
<!-- Node55&#45;&gt;Node58 -->
<g id="edge31" class="edge">
<title>Node55&#45;&gt;Node58</title>
<path fill="none" stroke="midnightblue" d="M164.8,-158.69C168.68,-149.59 173.18,-139.01 176.27,-131.75"/>
<polygon fill="midnightblue" stroke="midnightblue" points="161.5,-157.51 160.8,-168.08 167.94,-160.25 161.5,-157.51"/>
</g>
<!-- Node59&#45;&gt;Node5 -->
<g id="edge34" class="edge">
<title>Node59&#45;&gt;Node5</title>
<path fill="none" stroke="midnightblue" d="M278.36,-157.8C278.52,-148.91 278.71,-138.78 278.84,-131.75"/>
<polygon fill="midnightblue" stroke="midnightblue" points="274.85,-158.02 278.17,-168.08 281.85,-158.15 274.85,-158.02"/>
</g>
<!-- Node59&#45;&gt;Node13 -->
<g id="edge35" class="edge">
<title>Node59&#45;&gt;Node13</title>
<path fill="none" stroke="midnightblue" d="M303.81,-163.73C323.25,-153.73 349.35,-140.31 366.17,-131.65"/>
<polygon fill="midnightblue" stroke="midnightblue" points="302.16,-160.64 294.87,-168.32 305.36,-166.86 302.16,-160.64"/>
</g>
<!-- Node61 -->
<g id="node27" class="node">
<title>Node61</title>
<g id="a_node27"><a xlink:href="_synthetic_turbulence_8cpp.html" target="_top" xlink:title=" ">
<polygon fill="white" stroke="black" points="1714.5,-168.5 1714.5,-187.5 1849.5,-187.5 1849.5,-168.5 1714.5,-168.5"/>
<text text-anchor="middle" x="1782" y="-175.5" font-family="Helvetica,sans-Serif" font-size="10.00">SyntheticTurbulence.cpp</text>
</a>
</g>
</g>
<!-- Node60&#45;&gt;Node61 -->
<g id="edge39" class="edge">
<title>Node60&#45;&gt;Node61</title>
<path fill="none" stroke="midnightblue" d="M1766.8,-214.69C1770.68,-205.59 1775.18,-195.01 1778.27,-187.75"/>
<polygon fill="midnightblue" stroke="midnightblue" points="1763.5,-213.51 1762.8,-224.08 1769.94,-216.25 1763.5,-213.51"/>
</g>
<!-- Node62&#45;&gt;Node63 -->
<g id="edge41" class="edge">
<title>Node62&#45;&gt;Node63</title>
<path fill="none" stroke="midnightblue" d="M1928.71,-213.8C1929.04,-204.91 1929.42,-194.78 1929.68,-187.75"/>
<polygon fill="midnightblue" stroke="midnightblue" points="1925.2,-213.96 1928.33,-224.08 1932.2,-214.22 1925.2,-213.96"/>
</g>
<!-- Node65 -->
<g id="node31" class="node">
<title>Node65</title>
<g id="a_node31"><a xlink:href="_lidar_sampler_8cpp.html" target="_top" xlink:title=" ">
<polygon fill="white" stroke="black" points="2010.5,-168.5 2010.5,-187.5 2111.5,-187.5 2111.5,-168.5 2010.5,-168.5"/>
<text text-anchor="middle" x="2061" y="-175.5" font-family="Helvetica,sans-Serif" font-size="10.00">LidarSampler.cpp</text>
</a>
</g>
</g>
<!-- Node62&#45;&gt;Node65 -->
<g id="edge43" class="edge">
<title>Node62&#45;&gt;Node65</title>
<path fill="none" stroke="midnightblue" d="M1958.45,-220.64C1983.41,-210.5 2018.08,-196.43 2040.02,-187.52"/>
<polygon fill="midnightblue" stroke="midnightblue" points="1957.02,-217.44 1949.07,-224.44 1959.66,-223.92 1957.02,-217.44"/>
</g>
<!-- Node64 -->
<g id="node30" class="node">
<title>Node64</title>
<g id="a_node30"><a xlink:href="_d_t_u_spinner_sampler_8cpp.html" target="_top" xlink:title=" ">
<polygon fill="white" stroke="black" points="1863,-112.5 1863,-131.5 1997,-131.5 1997,-112.5 1863,-112.5"/>
<text text-anchor="middle" x="1930" y="-119.5" font-family="Helvetica,sans-Serif" font-size="10.00">DTUSpinnerSampler.cpp</text>
</a>
</g>
</g>
<!-- Node63&#45;&gt;Node64 -->
<g id="edge42" class="edge">
<title>Node63&#45;&gt;Node64</title>
<path fill="none" stroke="midnightblue" d="M1930,-157.8C1930,-148.91 1930,-138.78 1930,-131.75"/>
<polygon fill="midnightblue" stroke="midnightblue" points="1926.5,-158.08 1930,-168.08 1933.5,-158.08 1926.5,-158.08"/>
</g>
<!-- Node67 -->
<g id="node33" class="node">
<title>Node67</title>
<g id="a_node33"><a xlink:href="_box_refiner_8cpp.html" target="_top" xlink:title=" ">
<polygon fill="white" stroke="black" points="2129.5,-168.5 2129.5,-187.5 2218.5,-187.5 2218.5,-168.5 2129.5,-168.5"/>
<text text-anchor="middle" x="2174" y="-175.5" font-family="Helvetica,sans-Serif" font-size="10.00">BoxRefiner.cpp</text>
</a>
</g>
</g>
<!-- Node66&#45;&gt;Node67 -->
<g id="edge46" class="edge">
<title>Node66&#45;&gt;Node67</title>
<path fill="none" stroke="midnightblue" d="M2064.16,-220.77C2090.83,-210.63 2128.07,-196.47 2151.6,-187.52"/>
<polygon fill="midnightblue" stroke="midnightblue" points="2062.6,-217.62 2054.5,-224.44 2065.09,-224.16 2062.6,-217.62"/>
</g>
<!-- Node69 -->
<g id="node35" class="node">
<title>Node69</title>
<g id="a_node35"><a xlink:href="_cylinder_refiner_8cpp.html" target="_top" xlink:title=" ">
<polygon fill="white" stroke="black" points="2236.5,-168.5 2236.5,-187.5 2347.5,-187.5 2347.5,-168.5 2236.5,-168.5"/>
<text text-anchor="middle" x="2292" y="-175.5" font-family="Helvetica,sans-Serif" font-size="10.00">CylinderRefiner.cpp</text>
</a>
</g>
</g>
<!-- Node68&#45;&gt;Node69 -->
<g id="edge48" class="edge">
<title>Node68&#45;&gt;Node69</title>
<path fill="none" stroke="midnightblue" d="M2174.45,-221.04C2202.86,-210.88 2242.94,-196.55 2268.19,-187.52"/>
<polygon fill="midnightblue" stroke="midnightblue" points="2173.16,-217.78 2164.93,-224.44 2175.52,-224.37 2173.16,-217.78"/>
</g>
<!-- Node70&#45;&gt;Node16 -->
<g id="edge51" class="edge">
<title>Node70&#45;&gt;Node16</title>
<path fill="none" stroke="midnightblue" d="M989.79,-169.16C905.76,-158.23 755.24,-138.65 680.16,-128.88"/>
<polygon fill="midnightblue" stroke="midnightblue" points="989.57,-172.67 999.94,-170.49 990.48,-165.73 989.57,-172.67"/>
</g>
<!-- Node70&#45;&gt;Node17 -->
<g id="edge50" class="edge">
<title>Node70&#45;&gt;Node17</title>
<path fill="none" stroke="midnightblue" d="M1026.55,-163.58C1000.49,-149.14 956.84,-126.34 917,-112 870.18,-95.16 814.52,-82.68 776.16,-75.18"/>
<polygon fill="midnightblue" stroke="midnightblue" points="1024.87,-166.65 1035.31,-168.49 1028.29,-160.55 1024.87,-166.65"/>
</g>
<!-- Node70&#45;&gt;Node18 -->
<g id="edge52" class="edge">
<title>Node70&#45;&gt;Node18</title>
<path fill="none" stroke="midnightblue" d="M1041.98,-158.82C1027.37,-125.85 997.49,-59.31 993,-56 951.13,-25.13 801.71,-15.36 723.12,-12.33"/>
<polygon fill="midnightblue" stroke="midnightblue" points="1038.89,-160.49 1046.14,-168.22 1045.29,-157.65 1038.89,-160.49"/>
</g>
<!-- Node70&#45;&gt;Node34 -->
<g id="edge65" class="edge">
<title>Node70&#45;&gt;Node34</title>
<path fill="none" stroke="midnightblue" d="M1109.61,-166.12C1128.62,-159.53 1147.65,-148.96 1159,-132 1167.45,-119.37 1175.22,-81.71 1156,-56 1135.06,-27.99 1095.27,-17.35 1065.78,-13.34"/>
<polygon fill="midnightblue" stroke="midnightblue" points="1108.5,-162.8 1100.01,-169.14 1110.6,-169.48 1108.5,-162.8"/>
</g>
<!-- Node70&#45;&gt;Node37 -->
<g id="edge61" class="edge">
<title>Node70&#45;&gt;Node37</title>
<path fill="none" stroke="midnightblue" d="M989.89,-167.86C938.04,-159.62 861.27,-146.59 795,-132 792.14,-131.37 789.15,-130.66 786.19,-129.92"/>
<polygon fill="midnightblue" stroke="midnightblue" points="989.49,-171.34 999.92,-169.44 990.58,-164.42 989.49,-171.34"/>
</g>
<!-- Node70&#45;&gt;Node39 -->
<g id="edge62" class="edge">
<title>Node70&#45;&gt;Node39</title>
<path fill="none" stroke="midnightblue" d="M1030.57,-162.08C1020.34,-153.77 1007.9,-142.92 998,-132 981.28,-113.57 965.33,-88.92 957.34,-75.91"/>
<polygon fill="midnightblue" stroke="midnightblue" points="1028.54,-164.93 1038.54,-168.41 1032.89,-159.45 1028.54,-164.93"/>
</g>
<!-- Node71 -->
<g id="node37" class="node">
<title>Node71</title>
<g id="a_node37"><a xlink:href="turbine__types_8_h.html" target="_top" xlink:title=" ">
<polygon fill="white" stroke="red" points="1040,-112.5 1040,-131.5 1134,-131.5 1134,-112.5 1040,-112.5"/>
<text text-anchor="middle" x="1087" y="-119.5" font-family="Helvetica,sans-Serif" font-size="10.00">turbine_types.H</text>
</a>
</g>
</g>
<!-- Node70&#45;&gt;Node71 -->
<g id="edge53" class="edge">
<title>Node70&#45;&gt;Node71</title>
<path fill="none" stroke="midnightblue" d="M1061.95,-159.57C1068.31,-150.27 1075.87,-139.25 1081,-131.75"/>
<polygon fill="midnightblue" stroke="midnightblue" points="1058.87,-157.86 1056.11,-168.08 1064.65,-161.81 1058.87,-157.86"/>
</g>
<!-- Node73 -->
<g id="node38" class="node">
<title>Node73</title>
<g id="a_node38"><a xlink:href="disk__types_8_h.html" target="_top" xlink:title=" ">
<polygon fill="white" stroke="red" points="1340,-112.5 1340,-131.5 1420,-131.5 1420,-112.5 1340,-112.5"/>
<text text-anchor="middle" x="1380" y="-119.5" font-family="Helvetica,sans-Serif" font-size="10.00">disk_types.H</text>
</a>
</g>
</g>
<!-- Node70&#45;&gt;Node73 -->
<g id="edge54" class="edge">
<title>Node70&#45;&gt;Node73</title>
<path fill="none" stroke="midnightblue" d="M1110.35,-167.64C1167.09,-158.75 1254.38,-144.88 1330,-132 1333.22,-131.45 1336.55,-130.87 1339.89,-130.29"/>
<polygon fill="midnightblue" stroke="midnightblue" points="1109.46,-164.23 1100.12,-169.23 1110.54,-171.15 1109.46,-164.23"/>
</g>
<!-- Node78 -->
<g id="node41" class="node">
<title>Node78</title>
<g id="a_node41"><a xlink:href="actuator__utils_8cpp.html" target="_top" xlink:title=" ">
<polygon fill="white" stroke="black" points="804,-112.5 804,-131.5 908,-131.5 908,-112.5 804,-112.5"/>
<text text-anchor="middle" x="856" y="-119.5" font-family="Helvetica,sans-Serif" font-size="10.00">actuator_utils.cpp</text>
</a>
</g>
</g>
<!-- Node70&#45;&gt;Node78 -->
<g id="edge58" class="edge">
<title>Node70&#45;&gt;Node78</title>
<path fill="none" stroke="midnightblue" d="M1009.4,-165.7C972.78,-155.51 919.74,-140.74 886.6,-131.52"/>
<polygon fill="midnightblue" stroke="midnightblue" points="1008.69,-169.13 1019.26,-168.44 1010.56,-162.39 1008.69,-169.13"/>
</g>
<!-- Node79 -->
<g id="node42" class="node">
<title>Node79</title>
<g id="a_node42"><a xlink:href="_airfoil_table_8_h.html" target="_top" xlink:title=" ">
<polygon fill="white" stroke="red" points="1065,-56.5 1065,-75.5 1147,-75.5 1147,-56.5 1065,-56.5"/>
<text text-anchor="middle" x="1106" y="-63.5" font-family="Helvetica,sans-Serif" font-size="10.00">AirfoilTable.H</text>
</a>
</g>
</g>
<!-- Node70&#45;&gt;Node79 -->
<g id="edge59" class="edge">
<title>Node70&#45;&gt;Node79</title>
<path fill="none" stroke="midnightblue" d="M1099.11,-164.89C1116,-158.13 1133.12,-147.75 1143,-132 1155.42,-112.2 1132.08,-88.11 1117.13,-75.55"/>
<polygon fill="midnightblue" stroke="midnightblue" points="1097.46,-161.77 1089.25,-168.48 1099.85,-168.35 1097.46,-161.77"/>
</g>
<!-- Node70&#45;&gt;Node84 -->
<g id="edge63" class="edge">
<title>Node70&#45;&gt;Node84</title>
<path fill="none" stroke="midnightblue" d="M1095.47,-166.09C1137.97,-155.89 1200.58,-140.86 1239.51,-131.52"/>
<polygon fill="midnightblue" stroke="midnightblue" points="1094.56,-162.71 1085.65,-168.44 1096.19,-169.51 1094.56,-162.71"/>
</g>
<!-- Node73&#45;&gt;Node74 -->
<g id="edge55" class="edge">
<title>Node73&#45;&gt;Node74</title>
<path fill="none" stroke="midnightblue" d="M1390.83,-103.27C1396.47,-94.05 1403.12,-83.17 1407.65,-75.75"/>
<polygon fill="midnightblue" stroke="midnightblue" points="1387.68,-101.73 1385.45,-112.08 1393.65,-105.38 1387.68,-101.73"/>
</g>
<!-- Node73&#45;&gt;Node77 -->
<g id="edge57" class="edge">
<title>Node73&#45;&gt;Node77</title>
<path fill="none" stroke="midnightblue" d="M1367.44,-103.68C1359.4,-90.32 1351.71,-71.56 1359,-56 1366.66,-39.64 1383.51,-27.16 1396.37,-19.54"/>
<polygon fill="midnightblue" stroke="midnightblue" points="1364.72,-105.91 1373.15,-112.33 1370.56,-102.05 1364.72,-105.91"/>
</g>
<!-- Node74&#45;&gt;Node77 -->
<g id="edge56" class="edge">
<title>Node74&#45;&gt;Node77</title>
<path fill="none" stroke="midnightblue" d="M1413,-45.8C1413,-36.91 1413,-26.78 1413,-19.75"/>
<polygon fill="midnightblue" stroke="midnightblue" points="1409.5,-46.08 1413,-56.08 1416.5,-46.08 1409.5,-46.08"/>
</g>
<!-- Node79&#45;&gt;Node34 -->
<g id="edge60" class="edge">
<title>Node79&#45;&gt;Node34</title>
<path fill="none" stroke="midnightblue" d="M1085.1,-50.34C1071.09,-40.52 1053.12,-27.91 1041.34,-19.65"/>
<polygon fill="midnightblue" stroke="midnightblue" points="1083.43,-53.45 1093.63,-56.32 1087.45,-47.72 1083.43,-53.45"/>
</g>
<!-- Node84&#45;&gt;Node34 -->
<g id="edge64" class="edge">
<title>Node84&#45;&gt;Node34</title>
<path fill="none" stroke="midnightblue" d="M1263.48,-103.99C1252.49,-89.1 1234.59,-68.01 1214,-56 1167.31,-28.78 1104.8,-17.97 1065.72,-13.72"/>
<polygon fill="midnightblue" stroke="midnightblue" points="1260.75,-106.2 1269.39,-112.33 1266.46,-102.15 1260.75,-106.2"/>
</g>
<!-- Node85&#45;&gt;Node17 -->
<g id="edge67" class="edge">
<title>Node85&#45;&gt;Node17</title>
<path fill="none" stroke="midnightblue" d="M798.93,-171.94C772.5,-166.4 743.38,-155.06 727,-132 714.96,-115.05 721.78,-88.89 726.57,-75.51"/>
<polygon fill="midnightblue" stroke="midnightblue" points="798.42,-175.41 808.89,-173.79 799.7,-168.52 798.42,-175.41"/>
</g>
<!-- Node85&#45;&gt;Node78 -->
<g id="edge68" class="edge">
<title>Node85&#45;&gt;Node78</title>
<path fill="none" stroke="midnightblue" d="M856,-157.8C856,-148.91 856,-138.78 856,-131.75"/>
<polygon fill="midnightblue" stroke="midnightblue" points="852.5,-158.08 856,-168.08 859.5,-158.08 852.5,-158.08"/>
</g>
<!-- Node89&#45;&gt;Node2 -->
<g id="edge74" class="edge">
<title>Node89&#45;&gt;Node2</title>
<path fill="none" stroke="midnightblue" d="M1573.86,-360.68C1556.09,-370.67 1530.55,-383.91 1512.41,-392.44"/>
<polygon fill="midnightblue" stroke="midnightblue" points="1575.92,-363.54 1582.84,-355.52 1572.42,-357.47 1575.92,-363.54"/>
</g>
<!-- Node90&#45;&gt;Node3 -->
<g id="edge76" class="edge">
<title>Node90&#45;&gt;Node3</title>
<path fill="none" stroke="midnightblue" d="M1375.03,-332.91C1401.91,-322.75 1439.64,-308.51 1463.45,-299.52"/>
<polygon fill="midnightblue" stroke="midnightblue" points="1373.78,-329.64 1365.66,-336.44 1376.25,-336.19 1373.78,-329.64"/>
</g>
<!-- Node91 -->
<g id="node48" class="node">
<title>Node91</title>
<g id="a_node48"><a xlink:href="tensor_i_8_h.html" target="_top" xlink:title=" ">
<polygon fill="white" stroke="black" points="1312.5,-280.5 1312.5,-299.5 1373.5,-299.5 1373.5,-280.5 1312.5,-280.5"/>
<text text-anchor="middle" x="1343" y="-287.5" font-family="Helvetica,sans-Serif" font-size="10.00">tensorI.H</text>
</a>
</g>
</g>
<!-- Node90&#45;&gt;Node91 -->
<g id="edge77" class="edge">
<title>Node90&#45;&gt;Node91</title>
<path fill="none" stroke="midnightblue" d="M1336.53,-326.1C1335.9,-317.14 1336.34,-306.86 1337.87,-299.75"/>
<polygon fill="midnightblue" stroke="midnightblue" points="1333.07,-326.62 1337.83,-336.08 1340.01,-325.71 1333.07,-326.62"/>
</g>
<!-- Node91&#45;&gt;Node90 -->
<g id="edge78" class="edge">
<title>Node91&#45;&gt;Node90</title>
<path fill="none" stroke="midnightblue" d="M1349.46,-309.69C1350.11,-318.64 1349.68,-328.93 1348.17,-336.08"/>
<polygon fill="midnightblue" stroke="midnightblue" points="1352.92,-309.2 1348.13,-299.75 1345.98,-310.13 1352.92,-309.2"/>
</g>
</g>
</svg>
